<svg id="图层_1" data-name="图层 1" xmlns="http://www.w3.org/2000/svg" xmlns:xlink="http://www.w3.org/1999/xlink" viewBox="0 0 1920 1438"><defs><style>.cls-1{fill:#a3d1be;}.cls-2{fill:none;}.cls-3{clip-path:url(#clip-path);}.cls-4{opacity:0.16;}.cls-5,.cls-6{fill:#fff;}.cls-5{fill-opacity:0.7;}.cls-7,.cls-8{fill:#e4f8fb;}.cls-7{fill-rule:evenodd;}.cls-9{mask:url(#mask);}.cls-10{fill:#95ccb5;}.cls-11{fill:#94d0b7;}.cls-12{fill:#87c1a9;}</style><clipPath id="clip-path"><rect class="cls-2" width="1920" height="1438"/></clipPath><mask id="mask" x="-75.76" y="687.23" width="2113.39" height="1009.6" maskUnits="userSpaceOnUse"><g id="mask0"><path class="cls-1" d="M983.31,687.23C401,687.23-49.09,755.37-49.09,839.44l44.5,448.49s579.07,152.31,966,152.31,987.86-152.31,987.86-152.31l88.41-448.49C2037.63,755.37,1565.59,687.23,983.31,687.23Z"/></g></mask></defs><title>bg_s10 1_m</title><g class="cls-3"><g class="cls-4"><circle class="cls-5" cx="623.34" cy="472.07" r="337.49"/><circle class="cls-6" cx="595.24" cy="490.4" r="310.02"/><circle class="cls-6" cx="1102.87" cy="643.9" r="337.49" transform="translate(-132.29 968.44) rotate(-45)"/><circle class="cls-6" cx="1123.66" cy="347.28" r="337.49"/><circle class="cls-6" cx="1397.7" cy="610.15" r="337.49"/><circle class="cls-6" cx="1605.66" cy="786.32" r="337.49" transform="translate(-85.73 1365.68) rotate(-45)"/><path class="cls-7" d="M608.58,414.44a97.68,97.68,0,0,1,7.33-50.73c22-50.76,82.07-73.61,134.23-51a104.4,104.4,0,0,1,47.91,41.55,103.39,103.39,0,0,0-62-82.06c-52.16-22.57-112.25.28-134.22,51C588.57,353.78,592.2,387.52,608.58,414.44Z"/><path class="cls-7" d="M1061.83,369.11c8.4,17.69,21,35.47,37.43,51.5C1147.71,467.94,1210.74,482,1240,452c10.77-11,15.48-26.45,14.73-43.91,16.4,34.54,16.63,68.67-2.74,88.5-29.3,30-92.32,15.92-140.77-31.41C1080.6,435.26,1063.13,399.18,1061.83,369.11Z"/></g><circle class="cls-5" cx="423.59" cy="646.16" r="337.49"/><circle class="cls-6" cx="399.61" cy="669.62" r="310.03"/><circle class="cls-6" cx="927.44" cy="721.1" r="337.49" transform="translate(-238.26 867) rotate(-45)"/><circle class="cls-8" cx="833.13" cy="345.92" r="308.53"/><circle class="cls-6" cx="889.94" cy="426.13" r="337.49"/><circle class="cls-6" cx="1210.01" cy="630.46" r="337.49" transform="translate(-91.4 1040.26) rotate(-45)"/><circle class="cls-6" cx="1448.35" cy="762.66" r="337.49"/><path class="cls-7" d="M397.87,592.52a97.65,97.65,0,0,1-2.71-51.19c11.64-54.08,66.12-88.22,121.69-76.25a104.3,104.3,0,0,1,55.09,31.39c-10.94-33.31-39.35-60.3-76.83-68.37-55.57-12-110,22.18-121.69,76.25C366.41,536.93,376.55,569.31,397.87,592.52Z"/><path class="cls-7" d="M833.57,459.62c11.68,15.7,27.54,30.68,46.75,43.19,56.76,37,121.32,38.47,144.2,3.34,8.4-12.9,10-29,5.87-45.95,22.82,30.68,29.71,64.11,14.58,87.34-22.88,35.12-87.44,33.63-144.19-3.34C864.88,520.82,840.7,488.85,833.57,459.62Z"/><path class="cls-1" d="M984.31,684.24c-568.53,0-1029.42,68.14-1029.42,152.21l43.45,448.49s586.79,152.31,964.53,152.31,964.54-152.31,964.54-152.31l86.31-448.49C2013.72,752.38,1552.84,684.24,984.31,684.24Z"/><g class="cls-9"><path class="cls-10" d="M405.1,914.33c-346,12.79-483.91,120.4-480.8,204.4l43,447.22s362.7,139,592.56,130.5,581.3-173.9,581.3-173.9l-144.4-251.64C993.65,1186.91,751.06,901.54,405.1,914.33Z"/><path class="cls-11" d="M1274,859.27C1687.23,871.19,2020.23,949,2017.8,1033l-44.5,447.4s-430.86,139.95-705.39,132S571.3,1440,571.3,1440l-35.76-330.3C538,1025.64,860.85,847.36,1274,859.27Z"/><path class="cls-12" d="M-9.77,1380.37s-66.81-187,41.4-209.76,157.7,152.15,157.7,152.15,9.36-41.29,30.74-41.29,48.09,40.22,48.09,40.22-20.07-177,105.54-153.16,94.87,121.61,94.87,121.61,20-16.28,33.4-14.12,0,72.8,0,72.8,33.41-14.12,48.1-5.4,21.37,50,21.37,50Z"/><path class="cls-12" d="M1946.66,1381.06s63-177.13-39.06-198.72-148.84,144.13-148.84,144.13-8.83-39.11-29-39.11-45.38,38.11-45.38,38.11,18.94-167.66-99.6-145.1-89.54,115.21-89.54,115.21-18.89-15.43-31.52-13.38,0,69,0,69-31.52-13.38-45.38-5.12-20.18,47.38-20.18,47.38Z"/></g></g></svg>