<svg width="1920" height="1438" viewBox="0 0 1920 1438" fill="none" xmlns="http://www.w3.org/2000/svg">
<g clip-path="url(#clip0)">
<rect width="1920" height="1438" fill="white"/>
<g opacity="0.16">
<circle cx="623.337" cy="472.067" r="337.493" transform="rotate(40.2707 623.337 472.067)" fill="white" fill-opacity="0.7"/>
<circle cx="595.243" cy="490.403" r="310.025" transform="rotate(40.2707 595.243 490.403)" fill="white"/>
<circle cx="1102.87" cy="643.903" r="337.493" transform="rotate(40.2707 1102.87 643.903)" fill="white"/>
<circle cx="1123.66" cy="347.281" r="337.493" transform="rotate(40.2707 1123.66 347.281)" fill="white"/>
<circle cx="1397.7" cy="610.145" r="337.493" transform="rotate(40.2707 1397.7 610.145)" fill="white"/>
<circle cx="1605.66" cy="786.321" r="337.493" transform="rotate(40.2707 1605.66 786.321)" fill="white"/>
<path fill-rule="evenodd" clip-rule="evenodd" d="M608.576 414.443C606.537 397.658 608.768 380.225 615.914 363.711C637.881 312.949 697.976 290.098 750.14 312.672C770.878 321.646 787.24 336.448 798.048 354.216C793.82 319.408 771.227 287.392 736.034 272.162C683.87 249.589 623.775 272.44 601.808 323.201C588.574 353.783 592.198 387.517 608.576 414.443Z" fill="#E4F8FB"/>
<path fill-rule="evenodd" clip-rule="evenodd" d="M1061.83 369.115C1070.23 386.795 1082.86 404.58 1099.26 420.606C1147.71 467.941 1210.74 482.008 1240.03 452.025C1250.8 441.006 1255.51 425.572 1254.76 408.107C1271.16 442.646 1271.39 476.783 1252.02 496.615C1222.72 526.598 1159.7 512.531 1111.25 465.196C1080.6 435.255 1063.13 399.177 1061.83 369.115Z" fill="#E4F8FB"/>
</g>
<circle cx="423.589" cy="646.155" r="337.493" transform="rotate(29.017 423.589 646.155)" fill="white" fill-opacity="0.7"/>
<circle cx="399.614" cy="669.624" r="310.025" transform="rotate(29.017 399.614 669.624)" fill="white"/>
<circle cx="927.439" cy="721.103" r="337.493" transform="rotate(29.017 927.439 721.103)" fill="white"/>
<circle cx="833.134" cy="345.924" r="308.534" transform="rotate(29.017 833.134 345.924)" fill="#E4F8FB"/>
<circle cx="889.937" cy="426.129" r="337.493" transform="rotate(29.017 889.937 426.129)" fill="white"/>
<circle cx="1210.01" cy="630.462" r="337.493" transform="rotate(29.017 1210.01 630.462)" fill="white"/>
<circle cx="1448.35" cy="762.662" r="337.493" transform="rotate(29.017 1448.35 762.662)" fill="white"/>
<path fill-rule="evenodd" clip-rule="evenodd" d="M397.868 592.519C392.592 576.454 391.377 558.919 395.163 541.327C406.802 487.254 461.282 453.115 516.848 465.075C538.937 469.829 557.873 481.153 571.94 496.468C560.999 463.156 532.594 436.167 495.106 428.098C439.54 416.139 385.06 450.278 373.422 504.35C366.41 536.928 376.548 569.308 397.868 592.519Z" fill="#E4F8FB"/>
<path fill-rule="evenodd" clip-rule="evenodd" d="M833.565 459.616C845.249 475.317 861.107 490.295 880.322 502.811C937.08 539.781 1001.64 541.278 1024.52 506.155C1032.92 493.246 1034.53 477.186 1030.39 460.201C1053.21 490.875 1060.1 524.31 1044.97 547.542C1022.09 582.665 957.535 581.169 900.778 544.199C864.881 520.816 840.702 488.845 833.565 459.616Z" fill="#E4F8FB"/>
<path d="M984.307 684.238C415.777 684.238 -45.1079 752.384 -45.1079 836.446L-1.66047 1284.94C-1.66047 1284.94 585.133 1437.25 962.873 1437.25C1340.61 1437.25 1927.41 1284.94 1927.41 1284.94L2013.72 836.446C2013.72 752.384 1552.84 684.238 984.307 684.238Z" fill="#A3D1BE"/>
<mask id="mask0" mask-type="alpha" maskUnits="userSpaceOnUse" x="-50" y="687" width="2088" height="754">
<path d="M983.31 687.229C401.028 687.229 -49.0928 755.374 -49.0928 839.436L-4.59435 1287.93C-4.59435 1287.93 574.48 1440.24 961.358 1440.24C1348.23 1440.24 1949.22 1287.93 1949.22 1287.93L2037.63 839.436C2037.63 755.374 1565.59 687.229 983.31 687.229Z" fill="#A3D1BE"/>
</mask>
<g mask="url(#mask0)">
<path d="M405.104 914.328C59.1465 927.118 -78.8106 1034.73 -75.7049 1118.73L-32.6969 1565.95C-32.6969 1565.95 330.001 1704.95 559.86 1696.45C789.72 1687.95 1141.16 1522.55 1141.16 1522.55L996.756 1270.91C993.651 1186.91 751.062 901.538 405.104 914.328Z" fill="#95CCB5"/>
<path d="M1274.04 859.272C1687.23 871.188 2020.23 948.965 2017.8 1032.99L1973.3 1480.39C1973.3 1480.39 1542.44 1620.34 1267.91 1612.42C993.378 1604.5 571.302 1439.96 571.302 1439.96L535.543 1109.66C537.966 1025.64 860.846 847.356 1274.04 859.272Z" fill="#94D0B7"/>
<path d="M-9.77379 1380.37C-9.77379 1380.37 -76.5779 1193.4 31.6252 1170.61C139.883 1147.73 189.333 1322.76 189.333 1322.76C189.333 1322.76 198.69 1281.47 220.069 1281.47C241.449 1281.47 268.16 1321.69 268.16 1321.69C268.16 1321.69 248.086 1144.72 373.697 1168.53C499.309 1192.34 468.572 1290.14 468.572 1290.14C468.572 1290.14 488.592 1273.86 501.974 1276.02C515.357 1278.19 501.974 1348.82 501.974 1348.82C501.974 1348.82 535.376 1334.7 550.065 1343.42C564.753 1352.14 571.444 1393.43 571.444 1393.43L-9.77379 1380.37Z" fill="#87C1A9"/>
<path d="M1946.66 1381.06C1946.66 1381.06 2009.71 1203.93 1907.6 1182.34C1805.43 1160.66 1758.76 1326.47 1758.76 1326.47C1758.76 1326.47 1749.93 1287.36 1729.76 1287.36C1709.58 1287.36 1684.38 1325.47 1684.38 1325.47C1684.38 1325.47 1703.32 1157.81 1584.78 1180.37C1466.24 1202.92 1495.24 1295.58 1495.24 1295.58C1495.24 1295.58 1476.35 1280.15 1463.72 1282.2C1451.09 1284.26 1463.72 1351.17 1463.72 1351.17C1463.72 1351.17 1432.2 1337.79 1418.34 1346.05C1404.48 1354.31 1398.16 1393.43 1398.16 1393.43L1946.66 1381.06Z" fill="#87C1A9"/>
</g>
</g>
<defs>
<clipPath id="clip0">
<rect width="1920" height="1438" fill="white"/>
</clipPath>
</defs>
</svg>
