<svg width="287" height="354" viewBox="0 0 287 354" fill="none" xmlns="http://www.w3.org/2000/svg">
<rect y="7.20001" width="287" height="346" rx="30" fill="#FFFCEB"/>
<mask id="mask0" mask-type="alpha" maskUnits="userSpaceOnUse" x="0" y="7" width="287" height="346">
<rect y="7" width="287" height="346" rx="30" fill="#FFFCEB"/>
</mask>
<g mask="url(#mask0)">
<path opacity="0.3" d="M-287.011 329.499C-331.542 336.34 -322.939 360.458 -324.986 387.195L-323.372 423.29C-315.517 425.806 -316.357 433.301 -312.496 442.175C-308.623 451.078 -302.543 455.359 -296.026 459.272C-287.299 464.512 -277.789 466.098 -268.821 470.594C-256.403 476.82 -243.639 482.703 -231.089 488.271C-222.521 492.072 -213.672 493.165 -205.038 496.539C-195.256 500.36 -173.072 479.134 -163.039 480.16C-95.0308 487.113 -51.5315 488.844 15.2897 453.423C43.0347 438.716 70.7897 424.557 98.7129 410.399C126.134 396.496 159.66 435.113 189.604 432.647C213.538 430.676 271.256 443.612 294.711 436.974C321.831 429.299 312.178 354.478 333.971 331.191C348.095 316.098 358.117 306.484 359.807 280.167C361.985 246.238 366.214 212.333 347.933 188.069C333.51 168.925 334.934 133.123 282.461 154.327C238.086 172.258 234.769 216.048 208.181 226.807C164.823 244.35 137.139 195.011 91.9028 208.88C46.6671 222.75 38.4568 259.27 18.8727 270.971C-4.01789 284.647 -24.1482 288.497 -51.1314 279.996C-75.4917 272.321 -97.6021 259.649 -122.308 262.834C-147.985 266.144 -165.09 285.927 -183.469 308.75C-205.431 336.021 -256.766 324.852 -287.011 329.499Z" fill="#6CBDC0"/>
<path opacity="0.3" d="M-65.5011 327.49C-110.033 334.331 -101.429 358.449 -103.476 385.186L-101.862 421.281C-94.0073 423.797 -94.847 431.291 -90.986 440.166C-87.1131 449.068 -81.0328 453.35 -74.5164 457.262C-65.789 462.503 -56.2791 464.089 -47.3112 468.585C-34.8932 474.811 -22.1294 480.694 -9.57936 486.262C-1.01107 490.063 7.83758 491.156 16.4724 494.53C26.2534 498.351 48.4378 477.125 58.471 478.151C126.479 485.104 169.978 486.835 236.8 451.414C264.545 436.707 292.3 422.548 320.223 408.39C347.644 394.486 381.17 433.104 411.114 430.638C435.048 428.667 492.766 441.603 516.221 434.965C543.341 427.29 533.688 352.469 555.48 329.182C569.604 314.089 579.627 304.475 581.317 278.158C583.495 244.228 587.724 210.324 569.443 186.059C555.02 166.916 556.444 131.114 503.971 152.318C459.596 170.249 456.279 214.039 429.69 224.797C386.333 242.341 358.648 193.002 313.413 206.871C268.177 220.741 259.967 257.261 240.383 268.962C217.492 282.638 197.362 286.488 170.379 277.986C146.018 270.311 123.908 257.64 99.2017 260.825C73.5251 264.135 56.4202 283.918 38.0408 306.741C16.0791 334.012 -35.2564 322.843 -65.5011 327.49Z" fill="#6CBDC0"/>
</g>
<path d="M226.294 11.9221C229.294 6.58927 225.44 0 219.321 0H69.9443C63.9972 0 60.1292 6.2585 62.7888 11.5777L69.5666 25.1331C73.632 33.2639 81.9423 38.4 91.0328 38.4H197.364C206.034 38.4 214.031 33.7233 218.281 26.1663L226.294 11.9221Z" fill="#6CBDC0"/>
<line x1="89.4" y1="22" x2="200.6" y2="22" stroke="#87D0D2" stroke-width="2.4" stroke-linecap="round"/>
<path d="M13.3125 327.011C9.05974 339.257 18.1533 352.041 31.117 352.041H258.883C271.847 352.041 280.94 339.257 276.688 327.011L262.594 286.426C255.51 266.027 236.285 252.352 214.691 252.352H75.3088C53.715 252.352 34.4901 266.027 27.4063 286.426L13.3125 327.011Z" fill="#698FC8" stroke="#5F83BA" stroke-width="2.30494"/>
<path d="M36.6121 325.26C33.4642 332.849 39.0414 341.2 47.2573 341.2H243.22C251.436 341.2 257.013 332.849 253.865 325.26L238.029 287.082C231.781 272.019 217.078 262.2 200.77 262.2H89.7066C73.3994 262.2 58.6963 272.019 52.4483 287.082L36.6121 325.26Z" fill="#769CD7"/>
<path d="M110.078 226.837L114.29 227.969L110.658 251.504C110.324 253.666 108.464 255.261 106.276 255.261C103.214 255.261 101.074 252.232 102.097 249.346L110.078 226.837Z" fill="#284273"/>
<path d="M189.259 225.837L185.046 226.969L188.679 250.504C189.013 252.666 190.873 254.261 193.061 254.261C196.122 254.261 198.263 251.232 197.239 248.346L189.259 225.837Z" fill="#284273"/>
<path d="M190.864 130.427L191.834 130.427C199.787 130.427 206.588 136.145 207.955 143.979L211.727 165.609" stroke="#80A4DA" stroke-width="2.45455" stroke-linecap="round"/>
<path d="M48.0272 218.096C47.0063 228.26 54.9868 237.082 65.2018 237.082H224.798C235.013 237.082 242.994 228.26 241.973 218.096L234.74 146.085C233.362 132.364 221.814 121.918 208.024 121.918H81.9762C68.1862 121.918 56.6383 132.364 55.2602 146.085L48.0272 218.096Z" fill="#698FC8" stroke="#5F83BA" stroke-width="3.83578"/>
<path d="M71.6239 225.752C72.6799 225.752 73.2079 225.144 73.2079 223.944V219.544C73.5439 219.384 73.8959 219.208 74.2479 219.016L74.7119 219.736C75.3679 219.416 75.9919 219.048 76.5999 218.632V219.208H81.9119V218.68C82.4239 219.032 82.9999 219.384 83.6399 219.72L84.5519 218.328C82.3759 217.288 80.8399 216.088 79.9439 214.712H78.6319C77.5919 216.024 76.1519 217.128 74.3119 218.024V217.384L73.2079 217.96V215.528H74.3599V213.944H73.2079V211.16H71.5759V213.944H69.8479V215.528H71.5759V218.632C70.9039 218.856 70.2319 219.048 69.5439 219.208L69.9599 220.808C70.5039 220.632 71.0319 220.44 71.5759 220.248V223.544C71.5759 224.04 71.3999 224.296 71.0639 224.296C70.6959 224.296 70.3119 224.248 69.9119 224.184L70.2639 225.752H71.6239ZM80.7439 217.736H77.7199C78.2799 217.224 78.8079 216.664 79.2879 216.024C79.6719 216.616 80.1679 217.192 80.7439 217.736ZM83.1119 220.248H75.5599V225.784H77.1599V225.112H81.5119V225.784H83.1119V220.248ZM77.1599 223.576V221.784H81.5119V223.576H77.1599ZM74.2639 212.344V213.784H76.1679V214.984H77.7039V213.784H78.8079V212.344H77.7039V211.048H76.1679V212.344H74.2639ZM80.7439 211.048V212.344H79.6239V213.784H80.7439V214.984H82.2799V213.784H84.1679V212.344H82.2799V211.048H80.7439Z" fill="white"/>
<path d="M90.4079 214.712V221.32H95.4159V222.296H89.0479V223.896H95.4159V225.88H97.1119V223.896H103.352V222.296H97.1119V221.32H102.024V214.712H97.1119V213.768H103.128V212.2H97.1119V211.032H95.4159V212.2H89.2719V213.768H95.4159V214.712H90.4079ZM100.408 219.784H97.1119V218.76H100.408V219.784ZM95.4159 219.784H92.0239V218.76H95.4159V219.784ZM92.0239 217.272V216.232H95.4159V217.272H92.0239ZM97.1119 216.232H100.408V217.272H97.1119V216.232Z" fill="white"/>
<path d="M122.088 213.416H119.32C119.768 212.872 120.136 212.312 120.44 211.736L119.096 211.08C118.792 211.688 118.376 212.312 117.864 212.952L118.744 213.416H116.216V211.016H114.584V213.416H112.024L112.856 213C112.472 212.296 112.072 211.64 111.656 211.064L110.344 211.72C110.728 212.216 111.08 212.776 111.416 213.416H108.712V216.696H110.312V214.872H120.488V216.696H122.088V213.416ZM111.272 215.624V219.064H119.528V215.624H111.272ZM117.992 217.88H112.808V216.888H117.992V217.88ZM121.064 219.704H109.752V225.912H111.384V225.32H119.448V225.912H121.064V219.704ZM111.384 223.976V223.048H114.632V223.976H111.384ZM116.232 223.976V223.048H119.448V223.976H116.232ZM111.384 221.896V221.032H114.632V221.896H111.384ZM116.232 221.032H119.448V221.896H116.232V221.032Z" fill="white"/>
<path d="M139.96 211.56H129.544V225.816H131.224V224.696H138.28V225.8H139.96V211.56ZM131.224 223.064V218.76H138.28V223.064H131.224ZM131.224 217.128V213.192H138.28V217.128H131.224Z" fill="white"/>
<path d="M146.52 217.496V219.16H161.064V217.496H146.52Z" fill="white"/>
<path d="M169.688 214.584L168.44 215C168.744 215.736 169 216.488 169.208 217.272L170.456 216.952C170.232 216.056 169.976 215.272 169.688 214.584ZM169.688 219.976L168.424 220.392C168.744 221.32 169.016 222.28 169.24 223.288L170.568 222.936C170.312 221.816 170.008 220.84 169.688 219.976ZM168.76 210.952C168.664 211.496 168.536 212.04 168.376 212.552H166.664V217.992L165.624 218.056L165.832 219.544L166.648 219.496C166.552 221.576 166.184 223.336 165.544 224.744L166.792 225.88C167.624 224.2 168.072 222.04 168.168 219.384C169.064 219.32 169.928 219.24 170.776 219.16V223.8C170.776 224.168 170.648 224.36 170.408 224.36C169.992 224.36 169.544 224.328 169.064 224.296L169.464 225.816H170.888C171.816 225.816 172.296 225.32 172.296 224.344V218.984L172.856 218.92V217.464L172.296 217.528V212.552H170.056C170.232 212.136 170.376 211.672 170.472 211.192L168.76 210.952ZM168.184 217.896V214.088H170.776V217.688C169.96 217.752 169.096 217.832 168.184 217.896ZM174.2 211.672C174.2 212.92 174.12 213.832 173.976 214.408C173.816 214.984 173.448 215.592 172.904 216.232L174.2 217.4C174.904 216.664 175.352 216.008 175.528 215.464C175.704 214.952 175.8 214.184 175.8 213.176H177.336V215.24C177.336 216.424 177.928 217.016 179.144 217.016H180.392V215.464H179.624C179.176 215.464 178.952 215.256 178.952 214.872V211.672H174.2ZM173.32 217.88V219.384H173.624C173.976 220.728 174.648 221.96 175.64 223.048C174.904 223.656 174.024 224.184 172.984 224.6L173.88 225.992C175.032 225.528 176.024 224.936 176.872 224.216C177.624 224.824 178.504 225.384 179.512 225.896L180.36 224.408C179.48 223.976 178.696 223.512 178.024 223C178.824 221.976 179.4 220.744 179.736 219.304V217.88H173.32ZM175.16 219.384H178.104C177.8 220.312 177.352 221.144 176.776 221.896C176.056 221.128 175.512 220.296 175.16 219.384Z" fill="white"/>
<path d="M187.656 219.336C186.92 221.256 186.056 223.16 185.064 225.016L186.6 225.704C187.528 223.896 188.36 221.96 189.128 219.912L187.656 219.336ZM186.536 211.192L185.352 212.344C186.568 213.208 187.496 214.008 188.152 214.76L189.336 213.56C188.568 212.776 187.64 211.992 186.536 211.192ZM186.088 214.936L184.904 216.088C186.04 216.968 186.92 217.784 187.544 218.52L188.728 217.336C188.008 216.536 187.128 215.736 186.088 214.936ZM193.624 211.08V215.192H190.136V219.224C190.104 221.432 189.656 223.272 188.776 224.712L190.056 225.88C190.84 224.616 191.352 223.048 191.576 221.192L191.928 222.696C193.768 222.472 195.528 222.2 197.192 221.896V223.656C197.192 224.072 196.936 224.28 196.456 224.28C195.928 224.28 195.352 224.248 194.744 224.2L195.192 225.784H196.952C198.168 225.784 198.792 225.256 198.792 224.232V215.192H195.208V211.08H193.624ZM190.648 211.464L189.288 212.12C189.912 212.92 190.488 213.8 191.032 214.792L192.344 214.152C191.8 213.176 191.24 212.28 190.648 211.464ZM198.184 211.48C197.736 212.376 197.112 213.288 196.328 214.216L197.608 214.872C198.376 213.976 199.016 213.064 199.512 212.104L198.184 211.48ZM196.36 218.568C195.464 218.392 194.712 218.264 194.12 218.168C193.592 218.104 192.792 218.008 191.704 217.896V216.696H197.192V220.44C195.368 220.76 193.496 220.984 191.576 221.144C191.64 220.536 191.688 219.912 191.704 219.24C192.264 219.272 192.808 219.336 193.32 219.416C194.184 219.544 195.016 219.688 195.816 219.848L196.36 218.568Z" fill="white"/>
<path d="M206.744 214.568H208.856V214.792C208.84 214.92 208.808 215.048 208.776 215.192H206.568L206.744 214.568ZM210.408 214.568H212.312V215.192H210.36L210.408 214.792V214.568ZM213.864 214.568H217.4V211.656H213.864V211.08H212.312V211.656H210.408V211.08H208.856V211.656H205.112V212.872H208.856V213.496H205.512L204.92 216.296H208.024C207.976 216.328 207.928 216.376 207.864 216.424C207.272 216.808 206.12 217.128 204.408 217.4L205.112 218.488L206.12 218.296V223.832H208.536C207.432 224.184 205.944 224.488 204.072 224.744L204.776 225.96C207.016 225.608 208.744 225.128 209.944 224.552L209.4 223.832H212.888L212.472 224.6C214.456 224.92 216.344 225.368 218.168 225.976L218.68 224.712C217.336 224.36 215.928 224.056 214.488 223.832H216.776V218.024H207.224C207.976 217.8 208.584 217.528 209.048 217.208C209.4 216.952 209.688 216.648 209.928 216.296H212.312V217.704H213.864V216.296H216.68C216.68 216.456 216.632 216.584 216.552 216.68C216.456 216.744 216.2 216.792 215.784 216.792C215.48 216.792 215.16 216.776 214.808 216.76L215.064 217.704C215.352 217.72 215.656 217.736 215.96 217.736C216.856 217.72 217.416 217.56 217.656 217.272C217.896 216.968 218.024 216.28 218.024 215.192H213.864V214.568ZM210.408 212.872H212.312V213.496H210.408V212.872ZM213.864 212.872H216.024V213.496H213.864V212.872ZM215.208 222.68H207.704V222.12H215.208V222.68ZM207.704 221.128V220.632H215.208V221.128H207.704ZM207.704 219.608V219.096H215.208V219.608H207.704Z" fill="white"/>
<path d="M159.933 147.073L139.214 195.67H125.655L146.412 150.119H119.98V140.217H159.933V147.073Z" fill="#FFC232"/>
<path d="M103.36 144.832H96.576V144.176H103.36V144.832ZM103.36 146.656H96.576V145.984H103.36V146.656ZM105.264 142.96H94.752V147.872H105.264V142.96ZM104.352 152.016C104.064 152.592 103.696 153.12 103.264 153.584C102.832 153.12 102.464 152.592 102.192 152.016H104.352ZM95.872 153.92H97.952V154.544C97.248 154.608 96.544 154.656 95.872 154.704V153.92ZM95.872 151.936H97.952V152.608H95.872V151.936ZM97.952 149.968V150.608H95.872V149.968H97.952ZM105.472 150.496L105.152 150.56H100.176V152.016H101.648L100.592 152.304C100.976 153.184 101.472 153.984 102.048 154.672C101.376 155.168 100.592 155.552 99.776 155.824V149.968H107.104V148.464H92.88V149.968H94.128V154.832C93.632 154.88 93.152 154.896 92.736 154.928L92.88 156.56C94.288 156.432 96.112 156.272 97.952 156.096V157.392H99.776V156.096C100.096 156.48 100.448 157.008 100.624 157.376C101.616 157.008 102.528 156.512 103.344 155.888C104.192 156.544 105.184 157.04 106.32 157.376C106.576 156.928 107.072 156.24 107.44 155.888C106.384 155.632 105.424 155.232 104.624 154.704C105.52 153.696 106.208 152.448 106.64 150.944L105.472 150.496Z" fill="#FFC232"/>
<path d="M101.36 189.8H98.592V188.76H101.36V189.8ZM106.48 185.192H93.648V192.392H95.504V186.776H104.56V190.344C104.56 190.536 104.496 190.584 104.256 190.6C104.08 190.616 103.584 190.616 103.04 190.6V187.496H96.928V191.8H98.592V191.08H102.72C102.896 191.496 103.04 191.992 103.088 192.36C104.24 192.36 105.088 192.344 105.68 192.056C106.304 191.768 106.48 191.256 106.48 190.376V185.192ZM102.432 183.24H97.44V182.264H102.432V183.24ZM95.632 181V184.52H104.368V181H95.632ZM100.864 178.776V177.432H98.928V178.776H93.008V180.392H106.992V178.776H100.864Z" fill="#FFC232"/>
<path d="M172.796 177.637C172.796 176.319 173.226 175.255 174.085 174.444C174.945 173.634 176.097 173.228 177.542 173.228C179.007 173.228 180.165 173.634 181.014 174.444C181.864 175.245 182.289 176.334 182.289 177.711V178.765C182.289 180.084 181.864 181.143 181.014 181.944C180.165 182.745 179.017 183.145 177.572 183.145C176.136 183.145 174.979 182.75 174.1 181.959C173.231 181.158 172.796 180.064 172.796 178.677V177.637ZM175.975 178.765C175.975 179.273 176.117 179.688 176.4 180.01C176.683 180.323 177.074 180.479 177.572 180.479C178.597 180.479 179.11 179.825 179.11 178.516V177.637C179.11 177.13 178.973 176.715 178.7 176.392C178.426 176.06 178.041 175.894 177.542 175.894C177.064 175.894 176.683 176.055 176.4 176.378C176.117 176.69 175.975 177.12 175.975 177.667V178.765ZM182.933 189.635C182.933 188.306 183.363 187.242 184.222 186.441C185.091 185.64 186.244 185.24 187.679 185.24C189.134 185.24 190.292 185.635 191.151 186.427C192.01 187.218 192.44 188.321 192.44 189.737V190.762C192.44 192.091 192.015 193.155 191.166 193.956C190.316 194.757 189.164 195.157 187.708 195.157C186.273 195.157 185.116 194.761 184.237 193.97C183.368 193.17 182.933 192.076 182.933 190.689V189.635ZM186.097 190.762C186.097 191.221 186.253 191.627 186.566 191.978C186.878 192.32 187.259 192.491 187.708 192.491C188.656 192.491 189.168 192.042 189.247 191.143L189.261 189.635C189.261 189.117 189.12 188.702 188.836 188.389C188.553 188.067 188.167 187.906 187.679 187.906C187.21 187.906 186.834 188.057 186.551 188.36C186.268 188.653 186.117 189.053 186.097 189.561V190.762ZM178.509 193.267L176.209 192.11L186.625 175.44L188.924 176.597L178.509 193.267Z" fill="#FFC232"/>
<circle cx="186.119" cy="151.195" r="14.575" fill="#FFC232" stroke="black" stroke-width="1.21716"/>
<line x1="181.984" y1="138.19" x2="192.786" y2="138.19" stroke="black" stroke-width="1.21716"/>
<line x1="182.681" y1="141.327" x2="197.317" y2="141.327" stroke="black" stroke-width="1.21716"/>
<line x1="182.681" y1="144.812" x2="199.408" y2="144.812" stroke="black" stroke-width="1.21716"/>
<line x1="182.332" y1="148.296" x2="200.453" y2="148.296" stroke="black" stroke-width="1.21716"/>
<line x1="182.332" y1="151.781" x2="200.801" y2="151.781" stroke="black" stroke-width="1.21716"/>
<line x1="181.984" y1="155.266" x2="200.453" y2="155.266" stroke="black" stroke-width="1.21716"/>
<line x1="181.635" y1="158.751" x2="198.711" y2="158.751" stroke="black" stroke-width="1.21716"/>
<circle cx="183.576" cy="152.589" r="14.575" fill="#FFC232" stroke="black" stroke-width="1.21716"/>
<path d="M189.698 146.196V145.384H188.886H177.708H176.897V146.196V148.786V149.597H177.708H180.967V159.691V160.503H181.778H184.816H185.628V159.691V149.597H188.886H189.698V148.786V146.196Z" fill="white" stroke="black" stroke-width="1.62288" stroke-linecap="round"/>
<rect x="68" y="58" width="157.909" height="48.2727" rx="24.1364" fill="#4BC2CB"/>
<path d="M74.5 81.1091V81.1091C74.5 70.942 82.742 62.7 92.9091 62.7H97.8182" stroke="#87D9DB" stroke-width="2.45455" stroke-linecap="round"/>
<mask id="path-29-outside-1" maskUnits="userSpaceOnUse" x="80.432" y="69.754" width="132" height="25" fill="black">
<rect fill="white" x="80.432" y="69.754" width="132" height="25"/>
<path d="M97.878 86.534V88.226H93.414V86.534H97.878ZM91.488 90.566H93.414V89.918H97.878V90.494H99.894V84.842H91.488V90.566ZM93.684 82.07C94.458 81.35 95.124 80.594 95.574 79.892C96.078 80.612 96.798 81.368 97.59 82.07H93.684ZM94.53 78.056C94.458 78.164 94.386 78.29 94.314 78.416V77.21H97.05V78.65H99.066V77.21H101.172V75.392H99.066V73.772H97.05V75.392H94.314V73.772H92.334V75.392H90.336V77.21H92.334V78.596H94.188C93.324 79.856 91.92 81.206 90.408 82.124L90.246 80.99L88.932 81.35V79.118H90.318V77.156H88.932V73.772H86.88V77.156H84.792V79.118H86.88V81.908C85.962 82.16 85.116 82.376 84.432 82.52L84.882 84.59C85.494 84.41 86.178 84.212 86.88 84.014V88.136C86.88 88.406 86.79 88.478 86.574 88.478C86.34 88.496 85.602 88.496 84.9 88.46C85.17 89.054 85.44 89.972 85.494 90.548C86.736 90.548 87.582 90.476 88.176 90.116C88.752 89.792 88.932 89.216 88.932 88.154V83.384L89.85 83.096C90.12 83.492 90.354 83.978 90.498 84.32C91.326 83.906 92.118 83.384 92.856 82.79V83.762H98.436V82.754C99.12 83.294 99.84 83.744 100.542 84.104C100.83 83.492 101.244 82.718 101.658 82.232C99.714 81.476 97.77 79.874 96.474 78.056H94.53Z"/>
<path d="M106.698 83.546V82.448H109.83V83.546H106.698ZM106.698 79.748H109.83V80.846H106.698V79.748ZM115.176 79.748V80.846H112.026V79.748H115.176ZM115.176 83.546H112.026V82.448H115.176V83.546ZM119.208 86.228H112.026V85.256H117.336V78.038H112.026V77.174H118.686V75.23H112.026V73.772H109.83V75.23H103.296V77.174H109.83V78.038H104.646V85.256H109.83V86.228H102.864V88.154H109.83V90.584H112.026V88.154H119.208V86.228Z"/>
<path d="M127.956 85.31V86.246H124.608V85.31H127.956ZM133.536 86.246H130.026V85.31H133.536V86.246ZM130.026 88.622V87.686H133.536V88.622H130.026ZM124.608 88.622V87.686H127.956V88.622H124.608ZM122.574 90.602H124.608V90.17H133.536V90.584H135.678V83.762H122.574V90.602ZM131.682 81.476H126.282V80.414H131.682V81.476ZM124.284 78.884V83.006H133.806V78.884H124.284ZM134.328 76.202C134.724 75.716 135.156 75.14 135.588 74.528L133.32 73.862C133.032 74.564 132.492 75.536 132.042 76.166L132.15 76.202H130.026V73.754H127.884V76.202H125.652L125.976 76.058C125.688 75.446 125.112 74.564 124.554 73.916L122.646 74.654C122.988 75.122 123.348 75.68 123.636 76.202H121.26V80.288H123.276V78.02H134.796V80.288H136.92V76.202H134.328Z"/>
<path d="M143.004 87.02V82.988H150.996V87.02H143.004ZM150.996 76.994V80.864H143.004V76.994H150.996ZM140.79 74.834V90.35H143.004V89.18H150.996V90.314H153.3V74.834H140.79Z"/>
<path d="M161.004 76.904H173.226V75.104H166.998V73.772H164.73V75.104H159.042V79.928C158.88 79.01 158.484 77.75 158.016 76.742L156.486 77.372C156.954 78.542 157.35 80.054 157.458 80.99L159.042 80.27V80.918C159.042 81.35 159.042 81.818 159.024 82.286C157.998 82.808 157.026 83.276 156.306 83.582L156.936 85.508C157.548 85.148 158.196 84.77 158.844 84.374C158.592 86.102 158.034 87.83 156.846 89.18C157.242 89.432 158.034 90.17 158.34 90.584C160.626 88.028 161.004 83.834 161.004 80.936V76.904ZM165.324 83.654H166.17V85.058H165.324V83.654ZM168.168 85.058H167.286V83.654H168.168V85.058ZM168.006 86.984C168.114 87.236 168.24 87.506 168.348 87.794L167.52 87.866V86.354H169.464V82.34H167.52V81.368C168.258 81.278 168.978 81.152 169.572 80.99L168.618 79.766C167.484 80.072 165.558 80.324 163.956 80.432C164.1 80.792 164.28 81.296 164.334 81.656C164.838 81.638 165.378 81.602 165.936 81.548V82.34H164.1V86.354H165.936V88.01C164.964 88.1 164.082 88.172 163.344 88.226L163.56 89.882C165.054 89.738 166.98 89.522 168.888 89.288C168.996 89.63 169.086 89.954 169.158 90.224L170.4 89.774C170.184 88.964 169.662 87.632 169.212 86.624L168.006 86.984ZM161.94 77.894V81.764C161.94 84.032 161.796 87.164 160.266 89.378C160.626 89.576 161.328 90.188 161.598 90.512C163.308 88.064 163.614 84.32 163.614 81.782V79.46H169.95C169.968 86.786 170.004 90.548 172.182 90.548C173.226 90.548 173.55 89.756 173.694 87.722C173.37 87.434 172.92 86.876 172.632 86.462C172.614 87.722 172.524 88.766 172.308 88.766C171.606 88.766 171.66 84.68 171.732 77.894H161.94Z"/>
<path d="M179.76 74.114C179.436 74.6 179.04 75.122 178.572 75.626C178.104 75.068 177.564 74.51 176.88 73.988L175.332 75.176C176.07 75.788 176.664 76.4 177.132 77.066C176.286 77.804 175.386 78.488 174.54 78.956C174.972 79.424 175.494 80.288 175.764 80.846C176.502 80.324 177.33 79.64 178.104 78.902C178.32 79.46 178.464 80.054 178.572 80.648C177.672 82.196 176.124 83.762 174.702 84.536C175.116 85.004 175.656 85.832 175.908 86.354C176.862 85.67 177.87 84.662 178.752 83.582C178.734 85.634 178.572 87.29 178.212 87.794C178.068 87.992 177.906 88.082 177.636 88.118C177.222 88.154 176.538 88.172 175.566 88.1C175.962 88.73 176.16 89.504 176.178 90.224C177.132 90.278 177.942 90.26 178.662 90.08C179.13 89.972 179.544 89.72 179.814 89.342C180.66 88.244 180.876 85.868 180.876 83.402C180.876 81.26 180.696 79.208 179.688 77.282C180.318 76.562 180.912 75.842 181.362 75.158L179.76 74.114ZM187.41 87.794V83.186H190.866V81.17H187.41V77.048H191.028V75.014H181.632V77.048H185.196V81.17H181.848V83.186H185.196V87.794H180.804V89.828H191.298V87.794H187.41Z"/>
<path d="M195.546 81.44C195.546 81.152 195.546 80.882 195.546 80.612V79.928H197.94V81.44H195.546ZM200.316 76.598V78.038H195.546V76.598H200.316ZM202.44 81.44H199.722V79.928H202.314V74.69H193.638V80.612C193.638 83.132 193.548 86.624 192.396 89.036C192.828 89.252 193.656 89.846 193.98 90.224C194.88 88.46 195.276 85.994 195.438 83.726V88.676H196.986V83.204H197.94V90.53H199.722V83.204H200.748V86.768C200.748 86.912 200.712 86.966 200.568 86.966C200.46 86.966 200.136 86.966 199.776 86.948C200.01 87.416 200.226 88.118 200.28 88.622C201 88.622 201.522 88.586 201.918 88.298C202.35 88.01 202.44 87.524 202.44 86.804V81.44ZM205.266 75.5H203.268V85.922H205.266V75.5ZM206.778 74.096V88.028C206.778 88.316 206.67 88.388 206.382 88.406C206.076 88.406 205.14 88.406 204.204 88.37C204.474 89 204.78 89.936 204.852 90.53C206.238 90.53 207.282 90.458 207.948 90.116C208.596 89.774 208.83 89.18 208.83 88.028V74.096H206.778Z"/>
</mask>
<path d="M97.878 86.534V88.226H93.414V86.534H97.878ZM91.488 90.566H93.414V89.918H97.878V90.494H99.894V84.842H91.488V90.566ZM93.684 82.07C94.458 81.35 95.124 80.594 95.574 79.892C96.078 80.612 96.798 81.368 97.59 82.07H93.684ZM94.53 78.056C94.458 78.164 94.386 78.29 94.314 78.416V77.21H97.05V78.65H99.066V77.21H101.172V75.392H99.066V73.772H97.05V75.392H94.314V73.772H92.334V75.392H90.336V77.21H92.334V78.596H94.188C93.324 79.856 91.92 81.206 90.408 82.124L90.246 80.99L88.932 81.35V79.118H90.318V77.156H88.932V73.772H86.88V77.156H84.792V79.118H86.88V81.908C85.962 82.16 85.116 82.376 84.432 82.52L84.882 84.59C85.494 84.41 86.178 84.212 86.88 84.014V88.136C86.88 88.406 86.79 88.478 86.574 88.478C86.34 88.496 85.602 88.496 84.9 88.46C85.17 89.054 85.44 89.972 85.494 90.548C86.736 90.548 87.582 90.476 88.176 90.116C88.752 89.792 88.932 89.216 88.932 88.154V83.384L89.85 83.096C90.12 83.492 90.354 83.978 90.498 84.32C91.326 83.906 92.118 83.384 92.856 82.79V83.762H98.436V82.754C99.12 83.294 99.84 83.744 100.542 84.104C100.83 83.492 101.244 82.718 101.658 82.232C99.714 81.476 97.77 79.874 96.474 78.056H94.53Z" fill="white"/>
<path d="M106.698 83.546V82.448H109.83V83.546H106.698ZM106.698 79.748H109.83V80.846H106.698V79.748ZM115.176 79.748V80.846H112.026V79.748H115.176ZM115.176 83.546H112.026V82.448H115.176V83.546ZM119.208 86.228H112.026V85.256H117.336V78.038H112.026V77.174H118.686V75.23H112.026V73.772H109.83V75.23H103.296V77.174H109.83V78.038H104.646V85.256H109.83V86.228H102.864V88.154H109.83V90.584H112.026V88.154H119.208V86.228Z" fill="white"/>
<path d="M127.956 85.31V86.246H124.608V85.31H127.956ZM133.536 86.246H130.026V85.31H133.536V86.246ZM130.026 88.622V87.686H133.536V88.622H130.026ZM124.608 88.622V87.686H127.956V88.622H124.608ZM122.574 90.602H124.608V90.17H133.536V90.584H135.678V83.762H122.574V90.602ZM131.682 81.476H126.282V80.414H131.682V81.476ZM124.284 78.884V83.006H133.806V78.884H124.284ZM134.328 76.202C134.724 75.716 135.156 75.14 135.588 74.528L133.32 73.862C133.032 74.564 132.492 75.536 132.042 76.166L132.15 76.202H130.026V73.754H127.884V76.202H125.652L125.976 76.058C125.688 75.446 125.112 74.564 124.554 73.916L122.646 74.654C122.988 75.122 123.348 75.68 123.636 76.202H121.26V80.288H123.276V78.02H134.796V80.288H136.92V76.202H134.328Z" fill="white"/>
<path d="M143.004 87.02V82.988H150.996V87.02H143.004ZM150.996 76.994V80.864H143.004V76.994H150.996ZM140.79 74.834V90.35H143.004V89.18H150.996V90.314H153.3V74.834H140.79Z" fill="white"/>
<path d="M161.004 76.904H173.226V75.104H166.998V73.772H164.73V75.104H159.042V79.928C158.88 79.01 158.484 77.75 158.016 76.742L156.486 77.372C156.954 78.542 157.35 80.054 157.458 80.99L159.042 80.27V80.918C159.042 81.35 159.042 81.818 159.024 82.286C157.998 82.808 157.026 83.276 156.306 83.582L156.936 85.508C157.548 85.148 158.196 84.77 158.844 84.374C158.592 86.102 158.034 87.83 156.846 89.18C157.242 89.432 158.034 90.17 158.34 90.584C160.626 88.028 161.004 83.834 161.004 80.936V76.904ZM165.324 83.654H166.17V85.058H165.324V83.654ZM168.168 85.058H167.286V83.654H168.168V85.058ZM168.006 86.984C168.114 87.236 168.24 87.506 168.348 87.794L167.52 87.866V86.354H169.464V82.34H167.52V81.368C168.258 81.278 168.978 81.152 169.572 80.99L168.618 79.766C167.484 80.072 165.558 80.324 163.956 80.432C164.1 80.792 164.28 81.296 164.334 81.656C164.838 81.638 165.378 81.602 165.936 81.548V82.34H164.1V86.354H165.936V88.01C164.964 88.1 164.082 88.172 163.344 88.226L163.56 89.882C165.054 89.738 166.98 89.522 168.888 89.288C168.996 89.63 169.086 89.954 169.158 90.224L170.4 89.774C170.184 88.964 169.662 87.632 169.212 86.624L168.006 86.984ZM161.94 77.894V81.764C161.94 84.032 161.796 87.164 160.266 89.378C160.626 89.576 161.328 90.188 161.598 90.512C163.308 88.064 163.614 84.32 163.614 81.782V79.46H169.95C169.968 86.786 170.004 90.548 172.182 90.548C173.226 90.548 173.55 89.756 173.694 87.722C173.37 87.434 172.92 86.876 172.632 86.462C172.614 87.722 172.524 88.766 172.308 88.766C171.606 88.766 171.66 84.68 171.732 77.894H161.94Z" fill="white"/>
<path d="M179.76 74.114C179.436 74.6 179.04 75.122 178.572 75.626C178.104 75.068 177.564 74.51 176.88 73.988L175.332 75.176C176.07 75.788 176.664 76.4 177.132 77.066C176.286 77.804 175.386 78.488 174.54 78.956C174.972 79.424 175.494 80.288 175.764 80.846C176.502 80.324 177.33 79.64 178.104 78.902C178.32 79.46 178.464 80.054 178.572 80.648C177.672 82.196 176.124 83.762 174.702 84.536C175.116 85.004 175.656 85.832 175.908 86.354C176.862 85.67 177.87 84.662 178.752 83.582C178.734 85.634 178.572 87.29 178.212 87.794C178.068 87.992 177.906 88.082 177.636 88.118C177.222 88.154 176.538 88.172 175.566 88.1C175.962 88.73 176.16 89.504 176.178 90.224C177.132 90.278 177.942 90.26 178.662 90.08C179.13 89.972 179.544 89.72 179.814 89.342C180.66 88.244 180.876 85.868 180.876 83.402C180.876 81.26 180.696 79.208 179.688 77.282C180.318 76.562 180.912 75.842 181.362 75.158L179.76 74.114ZM187.41 87.794V83.186H190.866V81.17H187.41V77.048H191.028V75.014H181.632V77.048H185.196V81.17H181.848V83.186H185.196V87.794H180.804V89.828H191.298V87.794H187.41Z" fill="white"/>
<path d="M195.546 81.44C195.546 81.152 195.546 80.882 195.546 80.612V79.928H197.94V81.44H195.546ZM200.316 76.598V78.038H195.546V76.598H200.316ZM202.44 81.44H199.722V79.928H202.314V74.69H193.638V80.612C193.638 83.132 193.548 86.624 192.396 89.036C192.828 89.252 193.656 89.846 193.98 90.224C194.88 88.46 195.276 85.994 195.438 83.726V88.676H196.986V83.204H197.94V90.53H199.722V83.204H200.748V86.768C200.748 86.912 200.712 86.966 200.568 86.966C200.46 86.966 200.136 86.966 199.776 86.948C200.01 87.416 200.226 88.118 200.28 88.622C201 88.622 201.522 88.586 201.918 88.298C202.35 88.01 202.44 87.524 202.44 86.804V81.44ZM205.266 75.5H203.268V85.922H205.266V75.5ZM206.778 74.096V88.028C206.778 88.316 206.67 88.388 206.382 88.406C206.076 88.406 205.14 88.406 204.204 88.37C204.474 89 204.78 89.936 204.852 90.53C206.238 90.53 207.282 90.458 207.948 90.116C208.596 89.774 208.83 89.18 208.83 88.028V74.096H206.778Z" fill="white"/>
<path d="M97.878 86.534V88.226H93.414V86.534H97.878ZM91.488 90.566H93.414V89.918H97.878V90.494H99.894V84.842H91.488V90.566ZM93.684 82.07C94.458 81.35 95.124 80.594 95.574 79.892C96.078 80.612 96.798 81.368 97.59 82.07H93.684ZM94.53 78.056C94.458 78.164 94.386 78.29 94.314 78.416V77.21H97.05V78.65H99.066V77.21H101.172V75.392H99.066V73.772H97.05V75.392H94.314V73.772H92.334V75.392H90.336V77.21H92.334V78.596H94.188C93.324 79.856 91.92 81.206 90.408 82.124L90.246 80.99L88.932 81.35V79.118H90.318V77.156H88.932V73.772H86.88V77.156H84.792V79.118H86.88V81.908C85.962 82.16 85.116 82.376 84.432 82.52L84.882 84.59C85.494 84.41 86.178 84.212 86.88 84.014V88.136C86.88 88.406 86.79 88.478 86.574 88.478C86.34 88.496 85.602 88.496 84.9 88.46C85.17 89.054 85.44 89.972 85.494 90.548C86.736 90.548 87.582 90.476 88.176 90.116C88.752 89.792 88.932 89.216 88.932 88.154V83.384L89.85 83.096C90.12 83.492 90.354 83.978 90.498 84.32C91.326 83.906 92.118 83.384 92.856 82.79V83.762H98.436V82.754C99.12 83.294 99.84 83.744 100.542 84.104C100.83 83.492 101.244 82.718 101.658 82.232C99.714 81.476 97.77 79.874 96.474 78.056H94.53Z" stroke="#23B2BD" stroke-width="6.54545" stroke-linejoin="round" mask="url(#path-29-outside-1)"/>
<path d="M106.698 83.546V82.448H109.83V83.546H106.698ZM106.698 79.748H109.83V80.846H106.698V79.748ZM115.176 79.748V80.846H112.026V79.748H115.176ZM115.176 83.546H112.026V82.448H115.176V83.546ZM119.208 86.228H112.026V85.256H117.336V78.038H112.026V77.174H118.686V75.23H112.026V73.772H109.83V75.23H103.296V77.174H109.83V78.038H104.646V85.256H109.83V86.228H102.864V88.154H109.83V90.584H112.026V88.154H119.208V86.228Z" stroke="#23B2BD" stroke-width="6.54545" stroke-linejoin="round" mask="url(#path-29-outside-1)"/>
<path d="M127.956 85.31V86.246H124.608V85.31H127.956ZM133.536 86.246H130.026V85.31H133.536V86.246ZM130.026 88.622V87.686H133.536V88.622H130.026ZM124.608 88.622V87.686H127.956V88.622H124.608ZM122.574 90.602H124.608V90.17H133.536V90.584H135.678V83.762H122.574V90.602ZM131.682 81.476H126.282V80.414H131.682V81.476ZM124.284 78.884V83.006H133.806V78.884H124.284ZM134.328 76.202C134.724 75.716 135.156 75.14 135.588 74.528L133.32 73.862C133.032 74.564 132.492 75.536 132.042 76.166L132.15 76.202H130.026V73.754H127.884V76.202H125.652L125.976 76.058C125.688 75.446 125.112 74.564 124.554 73.916L122.646 74.654C122.988 75.122 123.348 75.68 123.636 76.202H121.26V80.288H123.276V78.02H134.796V80.288H136.92V76.202H134.328Z" stroke="#23B2BD" stroke-width="6.54545" stroke-linejoin="round" mask="url(#path-29-outside-1)"/>
<path d="M143.004 87.02V82.988H150.996V87.02H143.004ZM150.996 76.994V80.864H143.004V76.994H150.996ZM140.79 74.834V90.35H143.004V89.18H150.996V90.314H153.3V74.834H140.79Z" stroke="#23B2BD" stroke-width="6.54545" stroke-linejoin="round" mask="url(#path-29-outside-1)"/>
<path d="M161.004 76.904H173.226V75.104H166.998V73.772H164.73V75.104H159.042V79.928C158.88 79.01 158.484 77.75 158.016 76.742L156.486 77.372C156.954 78.542 157.35 80.054 157.458 80.99L159.042 80.27V80.918C159.042 81.35 159.042 81.818 159.024 82.286C157.998 82.808 157.026 83.276 156.306 83.582L156.936 85.508C157.548 85.148 158.196 84.77 158.844 84.374C158.592 86.102 158.034 87.83 156.846 89.18C157.242 89.432 158.034 90.17 158.34 90.584C160.626 88.028 161.004 83.834 161.004 80.936V76.904ZM165.324 83.654H166.17V85.058H165.324V83.654ZM168.168 85.058H167.286V83.654H168.168V85.058ZM168.006 86.984C168.114 87.236 168.24 87.506 168.348 87.794L167.52 87.866V86.354H169.464V82.34H167.52V81.368C168.258 81.278 168.978 81.152 169.572 80.99L168.618 79.766C167.484 80.072 165.558 80.324 163.956 80.432C164.1 80.792 164.28 81.296 164.334 81.656C164.838 81.638 165.378 81.602 165.936 81.548V82.34H164.1V86.354H165.936V88.01C164.964 88.1 164.082 88.172 163.344 88.226L163.56 89.882C165.054 89.738 166.98 89.522 168.888 89.288C168.996 89.63 169.086 89.954 169.158 90.224L170.4 89.774C170.184 88.964 169.662 87.632 169.212 86.624L168.006 86.984ZM161.94 77.894V81.764C161.94 84.032 161.796 87.164 160.266 89.378C160.626 89.576 161.328 90.188 161.598 90.512C163.308 88.064 163.614 84.32 163.614 81.782V79.46H169.95C169.968 86.786 170.004 90.548 172.182 90.548C173.226 90.548 173.55 89.756 173.694 87.722C173.37 87.434 172.92 86.876 172.632 86.462C172.614 87.722 172.524 88.766 172.308 88.766C171.606 88.766 171.66 84.68 171.732 77.894H161.94Z" stroke="#23B2BD" stroke-width="6.54545" stroke-linejoin="round" mask="url(#path-29-outside-1)"/>
<path d="M179.76 74.114C179.436 74.6 179.04 75.122 178.572 75.626C178.104 75.068 177.564 74.51 176.88 73.988L175.332 75.176C176.07 75.788 176.664 76.4 177.132 77.066C176.286 77.804 175.386 78.488 174.54 78.956C174.972 79.424 175.494 80.288 175.764 80.846C176.502 80.324 177.33 79.64 178.104 78.902C178.32 79.46 178.464 80.054 178.572 80.648C177.672 82.196 176.124 83.762 174.702 84.536C175.116 85.004 175.656 85.832 175.908 86.354C176.862 85.67 177.87 84.662 178.752 83.582C178.734 85.634 178.572 87.29 178.212 87.794C178.068 87.992 177.906 88.082 177.636 88.118C177.222 88.154 176.538 88.172 175.566 88.1C175.962 88.73 176.16 89.504 176.178 90.224C177.132 90.278 177.942 90.26 178.662 90.08C179.13 89.972 179.544 89.72 179.814 89.342C180.66 88.244 180.876 85.868 180.876 83.402C180.876 81.26 180.696 79.208 179.688 77.282C180.318 76.562 180.912 75.842 181.362 75.158L179.76 74.114ZM187.41 87.794V83.186H190.866V81.17H187.41V77.048H191.028V75.014H181.632V77.048H185.196V81.17H181.848V83.186H185.196V87.794H180.804V89.828H191.298V87.794H187.41Z" stroke="#23B2BD" stroke-width="6.54545" stroke-linejoin="round" mask="url(#path-29-outside-1)"/>
<path d="M195.546 81.44C195.546 81.152 195.546 80.882 195.546 80.612V79.928H197.94V81.44H195.546ZM200.316 76.598V78.038H195.546V76.598H200.316ZM202.44 81.44H199.722V79.928H202.314V74.69H193.638V80.612C193.638 83.132 193.548 86.624 192.396 89.036C192.828 89.252 193.656 89.846 193.98 90.224C194.88 88.46 195.276 85.994 195.438 83.726V88.676H196.986V83.204H197.94V90.53H199.722V83.204H200.748V86.768C200.748 86.912 200.712 86.966 200.568 86.966C200.46 86.966 200.136 86.966 199.776 86.948C200.01 87.416 200.226 88.118 200.28 88.622C201 88.622 201.522 88.586 201.918 88.298C202.35 88.01 202.44 87.524 202.44 86.804V81.44ZM205.266 75.5H203.268V85.922H205.266V75.5ZM206.778 74.096V88.028C206.778 88.316 206.67 88.388 206.382 88.406C206.076 88.406 205.14 88.406 204.204 88.37C204.474 89 204.78 89.936 204.852 90.53C206.238 90.53 207.282 90.458 207.948 90.116C208.596 89.774 208.83 89.18 208.83 88.028V74.096H206.778Z" stroke="#23B2BD" stroke-width="6.54545" stroke-linejoin="round" mask="url(#path-29-outside-1)"/>
<g opacity="0.8">
<path d="M34.63 284.134V285.59H47.356V284.134H34.63Z" fill="white"/>
<path d="M52.102 281.586L51.01 281.95C51.276 282.594 51.5 283.252 51.682 283.938L52.774 283.658C52.578 282.874 52.354 282.188 52.102 281.586ZM52.102 286.304L50.996 286.668C51.276 287.48 51.514 288.32 51.71 289.202L52.872 288.894C52.648 287.914 52.382 287.06 52.102 286.304ZM51.29 278.408C51.206 278.884 51.094 279.36 50.954 279.808H49.456V284.568L48.546 284.624L48.728 285.926L49.442 285.884C49.358 287.704 49.036 289.244 48.476 290.476L49.568 291.47C50.296 290 50.688 288.11 50.772 285.786C51.556 285.73 52.312 285.66 53.054 285.59V289.65C53.054 289.972 52.942 290.14 52.732 290.14C52.368 290.14 51.976 290.112 51.556 290.084L51.906 291.414H53.152C53.964 291.414 54.384 290.98 54.384 290.126V285.436L54.874 285.38V284.106L54.384 284.162V279.808H52.424C52.578 279.444 52.704 279.038 52.788 278.618L51.29 278.408ZM50.786 284.484V281.152H53.054V284.302C52.34 284.358 51.584 284.428 50.786 284.484ZM56.05 279.038C56.05 280.13 55.98 280.928 55.854 281.432C55.714 281.936 55.392 282.468 54.916 283.028L56.05 284.05C56.666 283.406 57.058 282.832 57.212 282.356C57.366 281.908 57.45 281.236 57.45 280.354H58.794V282.16C58.794 283.196 59.312 283.714 60.376 283.714H61.468V282.356H60.796C60.404 282.356 60.208 282.174 60.208 281.838V279.038H56.05ZM55.28 284.47V285.786H55.546C55.854 286.962 56.442 288.04 57.31 288.992C56.666 289.524 55.896 289.986 54.986 290.35L55.77 291.568C56.778 291.162 57.646 290.644 58.388 290.014C59.046 290.546 59.816 291.036 60.698 291.484L61.44 290.182C60.67 289.804 59.984 289.398 59.396 288.95C60.096 288.054 60.6 286.976 60.894 285.716V284.47H55.28ZM56.89 285.786H59.466C59.2 286.598 58.808 287.326 58.304 287.984C57.674 287.312 57.198 286.584 56.89 285.786Z" fill="white"/>
<path d="M65.024 285.744C64.38 287.424 63.624 289.09 62.756 290.714L64.1 291.316C64.912 289.734 65.64 288.04 66.312 286.248L65.024 285.744ZM64.044 278.618L63.008 279.626C64.072 280.382 64.884 281.082 65.458 281.74L66.494 280.69C65.822 280.004 65.01 279.318 64.044 278.618ZM63.652 281.894L62.616 282.902C63.61 283.672 64.38 284.386 64.926 285.03L65.962 283.994C65.332 283.294 64.562 282.594 63.652 281.894ZM70.246 278.52V282.118H67.194V285.646C67.166 287.578 66.774 289.188 66.004 290.448L67.124 291.47C67.81 290.364 68.258 288.992 68.454 287.368L68.762 288.684C70.372 288.488 71.912 288.25 73.368 287.984V289.524C73.368 289.888 73.144 290.07 72.724 290.07C72.262 290.07 71.758 290.042 71.226 290L71.618 291.386H73.158C74.222 291.386 74.768 290.924 74.768 290.028V282.118H71.632V278.52H70.246ZM67.642 278.856L66.452 279.43C66.998 280.13 67.502 280.9 67.978 281.768L69.126 281.208C68.65 280.354 68.16 279.57 67.642 278.856ZM74.236 278.87C73.844 279.654 73.298 280.452 72.612 281.264L73.732 281.838C74.404 281.054 74.964 280.256 75.398 279.416L74.236 278.87ZM72.64 285.072C71.856 284.918 71.198 284.806 70.68 284.722C70.218 284.666 69.518 284.582 68.566 284.484V283.434H73.368V286.71C71.772 286.99 70.134 287.186 68.454 287.326C68.51 286.794 68.552 286.248 68.566 285.66C69.056 285.688 69.532 285.744 69.98 285.814C70.736 285.926 71.464 286.052 72.164 286.192L72.64 285.072Z" fill="white"/>
<path d="M78.926 281.572H80.774V281.768C80.76 281.88 80.732 281.992 80.704 282.118H78.772L78.926 281.572ZM82.132 281.572H83.798V282.118H82.09L82.132 281.768V281.572ZM85.156 281.572H88.25V279.024H85.156V278.52H83.798V279.024H82.132V278.52H80.774V279.024H77.498V280.088H80.774V280.634H77.848L77.33 283.084H80.046C80.004 283.112 79.962 283.154 79.906 283.196C79.388 283.532 78.38 283.812 76.882 284.05L77.498 285.002L78.38 284.834V289.678H80.494C79.528 289.986 78.226 290.252 76.588 290.476L77.204 291.54C79.164 291.232 80.676 290.812 81.726 290.308L81.25 289.678H84.302L83.938 290.35C85.674 290.63 87.326 291.022 88.922 291.554L89.37 290.448C88.194 290.14 86.962 289.874 85.702 289.678H87.704V284.596H79.346C80.004 284.4 80.536 284.162 80.942 283.882C81.25 283.658 81.502 283.392 81.712 283.084H83.798V284.316H85.156V283.084H87.62C87.62 283.224 87.578 283.336 87.508 283.42C87.424 283.476 87.2 283.518 86.836 283.518C86.57 283.518 86.29 283.504 85.982 283.49L86.206 284.316C86.458 284.33 86.724 284.344 86.99 284.344C87.774 284.33 88.264 284.19 88.474 283.938C88.684 283.672 88.796 283.07 88.796 282.118H85.156V281.572ZM82.132 280.088H83.798V280.634H82.132V280.088ZM85.156 280.088H87.046V280.634H85.156V280.088ZM86.332 288.67H79.766V288.18H86.332V288.67ZM79.766 287.312V286.878H86.332V287.312H79.766ZM79.766 285.982V285.534H86.332V285.982H79.766Z" fill="white"/>
<path d="M91.064 279.416V280.634H93.374V284.918H90.854V286.178H93.416C92.8 286.78 91.89 287.284 90.686 287.704L91.428 288.936C92.254 288.53 92.968 288.082 93.584 287.578V288.698H96.286V289.664H91.554V291.008H102.348V289.664H97.714V288.698H100.388V287.564C101.018 288.096 101.802 288.558 102.74 288.964L103.342 287.704C102.138 287.326 101.214 286.822 100.57 286.178H103.132V284.918H100.612V280.634H102.922V279.416H100.612V278.492H99.184V279.416H94.802V278.492H93.374V279.416H91.064ZM93.766 287.41C94.2 287.018 94.564 286.612 94.872 286.178H99.114C99.394 286.598 99.758 287.018 100.206 287.41H97.714V286.486H96.286V287.41H93.766ZM94.802 284.918V284.26H99.184V284.918H94.802ZM94.802 283.14V282.468H99.184V283.14H94.802ZM94.802 281.348V280.634H99.184V281.348H94.802Z" fill="white"/>
<path d="M104.938 280.914V282.328H109.152C108.144 284.582 106.576 286.444 104.42 287.9L105.274 289.272C107.598 287.48 109.25 285.184 110.258 282.37V287.34H107.528V288.754H110.258V291.47H111.742V288.754H114.584V287.34H111.742V282.37C112.666 284.848 114.262 287.088 116.544 289.09L117.538 287.83C115.326 286.22 113.758 284.386 112.834 282.328H117.048V280.914H111.742V278.534H110.258V280.914H104.938Z" fill="white"/>
<path d="M122.354 279.808C121.276 279.808 120.408 280.172 119.75 280.9C119.106 281.586 118.784 282.482 118.77 283.602H120.408C120.436 282.818 120.604 282.216 120.912 281.824C121.22 281.404 121.682 281.194 122.298 281.194C122.872 281.194 123.306 281.32 123.6 281.586C123.88 281.852 124.034 282.258 124.034 282.804C124.034 283.364 123.81 283.896 123.376 284.386C123.096 284.68 122.648 285.058 122.004 285.506C120.842 286.304 120.072 286.92 119.708 287.34C119.036 288.096 118.714 288.978 118.714 290H125.686V288.558H120.758C120.982 288.054 121.598 287.466 122.62 286.794C123.6 286.136 124.3 285.604 124.692 285.184C125.336 284.47 125.672 283.686 125.672 282.818C125.672 281.922 125.364 281.208 124.748 280.648C124.118 280.088 123.32 279.808 122.354 279.808Z" fill="white"/>
<path d="M136.993 284.526C136.209 284.526 135.593 284.792 135.173 285.352C134.781 285.828 134.599 286.472 134.599 287.27C134.599 288.054 134.781 288.684 135.173 289.188C135.593 289.72 136.209 290 136.993 290C137.777 290 138.379 289.72 138.799 289.188C139.163 288.698 139.359 288.054 139.359 287.27C139.359 286.472 139.163 285.828 138.799 285.352C138.379 284.792 137.777 284.526 136.993 284.526ZM135.565 279.808L129.951 290.196H131.169L136.783 279.808H135.565ZM129.769 280.004C128.985 280.004 128.369 280.27 127.949 280.83C127.557 281.306 127.375 281.95 127.375 282.748C127.375 283.532 127.557 284.162 127.949 284.666C128.369 285.198 128.985 285.478 129.769 285.478C130.553 285.478 131.155 285.198 131.575 284.666C131.939 284.176 132.135 283.532 132.135 282.748C132.135 281.95 131.939 281.306 131.575 280.83C131.155 280.27 130.553 280.004 129.769 280.004ZM136.993 285.548C137.329 285.548 137.567 285.73 137.707 286.108C137.819 286.388 137.875 286.766 137.875 287.27C137.875 287.746 137.819 288.124 137.721 288.404C137.567 288.782 137.329 288.978 136.993 288.978C136.643 288.978 136.391 288.796 136.251 288.432C136.139 288.152 136.083 287.76 136.083 287.27C136.083 286.766 136.139 286.374 136.251 286.094C136.391 285.73 136.643 285.548 136.993 285.548ZM129.769 281.026C130.105 281.026 130.343 281.208 130.483 281.586C130.595 281.866 130.651 282.244 130.651 282.748C130.651 283.224 130.595 283.602 130.497 283.882C130.343 284.26 130.105 284.456 129.769 284.456C129.419 284.456 129.167 284.274 129.027 283.91C128.915 283.63 128.859 283.238 128.859 282.748C128.859 282.244 128.915 281.852 129.027 281.572C129.167 281.208 129.419 281.026 129.769 281.026Z" fill="white"/>
<path d="M143.924 282.846V285.716H141.04V287.032H143.924V289.916H145.24V287.032H148.11V285.716H145.24V282.846H143.924Z" fill="white"/>
<path d="M151.112 291.358C152.036 291.358 152.498 290.826 152.498 289.776V285.926C152.792 285.786 153.1 285.632 153.408 285.464L153.814 286.094C154.388 285.814 154.934 285.492 155.466 285.128V285.632H160.114V285.17C160.562 285.478 161.066 285.786 161.626 286.08L162.424 284.862C160.52 283.952 159.176 282.902 158.392 281.698H157.244C156.334 282.846 155.074 283.812 153.464 284.596V284.036L152.498 284.54V282.412H153.506V281.026H152.498V278.59H151.07V281.026H149.558V282.412H151.07V285.128C150.482 285.324 149.894 285.492 149.292 285.632L149.656 287.032C150.132 286.878 150.594 286.71 151.07 286.542V289.426C151.07 289.86 150.916 290.084 150.622 290.084C150.3 290.084 149.964 290.042 149.614 289.986L149.922 291.358H151.112ZM159.092 284.344H156.446C156.936 283.896 157.398 283.406 157.818 282.846C158.154 283.364 158.588 283.868 159.092 284.344ZM161.164 286.542H154.556V291.386H155.956V290.798H159.764V291.386H161.164V286.542ZM155.956 289.454V287.886H159.764V289.454H155.956ZM153.422 279.626V280.886H155.088V281.936H156.432V280.886H157.398V279.626H156.432V278.492H155.088V279.626H153.422ZM159.092 278.492V279.626H158.112V280.886H159.092V281.936H160.436V280.886H162.088V279.626H160.436V278.492H159.092Z" fill="white"/>
<path d="M164.748 281.698V287.48H169.13V288.334H163.558V289.734H169.13V291.47H170.614V289.734H176.074V288.334H170.614V287.48H174.912V281.698H170.614V280.872H175.878V279.5H170.614V278.478H169.13V279.5H163.754V280.872H169.13V281.698H164.748ZM173.498 286.136H170.614V285.24H173.498V286.136ZM169.13 286.136H166.162V285.24H169.13V286.136ZM166.162 283.938V283.028H169.13V283.938H166.162ZM170.614 283.028H173.498V283.938H170.614V283.028Z" fill="white"/>
<path d="M189.668 280.564H187.246C187.638 280.088 187.96 279.598 188.226 279.094L187.05 278.52C186.784 279.052 186.42 279.598 185.972 280.158L186.742 280.564H184.53V278.464H183.102V280.564H180.862L181.59 280.2C181.254 279.584 180.904 279.01 180.54 278.506L179.392 279.08C179.728 279.514 180.036 280.004 180.33 280.564H177.964V283.434H179.364V281.838H188.268V283.434H189.668V280.564ZM180.204 282.496V285.506H187.428V282.496H180.204ZM186.084 284.47H181.548V283.602H186.084V284.47ZM188.772 286.066H178.874V291.498H180.302V290.98H187.358V291.498H188.772V286.066ZM180.302 289.804V288.992H183.144V289.804H180.302ZM184.544 289.804V288.992H187.358V289.804H184.544ZM180.302 287.984V287.228H183.144V287.984H180.302ZM184.544 287.228H187.358V287.984H184.544V287.228Z" fill="white"/>
<path d="M202.506 278.94H193.392V291.414H194.862V290.434H201.036V291.4H202.506V278.94ZM194.862 289.006V285.24H201.036V289.006H194.862ZM194.862 283.812V280.368H201.036V283.812H194.862Z" fill="white"/>
<path d="M217.71 280.438H212.852V291.246H214.252V290.392H216.282V291.246H217.71V280.438ZM214.252 288.992V281.824H216.282V288.992H214.252ZM207.616 278.534V281.208H205.544V282.636H207.616C207.546 286.276 206.748 288.922 205.222 290.588L206.328 291.568C208.064 289.664 208.988 286.696 209.072 282.636H210.43C210.402 286.332 210.36 288.502 210.29 289.132C210.192 289.72 209.87 290.028 209.338 290.028C208.988 290.028 208.582 290 208.106 289.944L208.47 291.274C208.974 291.33 209.352 291.358 209.576 291.358C210.808 291.358 211.508 290.84 211.648 289.818C211.788 288.726 211.858 285.856 211.858 281.208H209.072V278.534H207.616Z" fill="white"/>
<path d="M220.972 280.536C220.664 282.384 220.09 284.05 219.222 285.534L219.964 286.738C220.16 286.458 220.342 286.164 220.524 285.856V290.98H221.84V290.266H224.038V283.294H221.686C221.98 282.426 222.204 281.502 222.372 280.536H224.304V279.136H219.684V280.536H220.972ZM226.376 282.174H228.042V283.07H226.376V282.174ZM226.376 284.246H228.042V285.114H226.376V284.246ZM229.386 285.114V284.246H231.5V283.07H229.386V282.174H231.458V280.998H229.386V280.116H231.724V278.898H225.032V286.318H230.688C230.688 287.312 230.66 288.11 230.604 288.698C230.492 288.054 230.352 287.34 230.156 286.584L229.176 286.864C229.372 287.648 229.526 288.446 229.652 289.272L230.59 288.908C230.562 289.104 230.548 289.258 230.52 289.398C230.408 289.902 230.002 290.154 229.33 290.154C228.98 290.154 228.602 290.126 228.196 290.098L228.518 291.372C228.882 291.4 229.232 291.414 229.582 291.414C230.534 291.414 231.164 291.148 231.5 290.616C231.822 290.084 231.99 288.25 231.99 285.114H229.386ZM228.042 280.116V280.998H226.376V280.116H228.042ZM224.892 286.78C224.696 288.264 224.458 289.496 224.206 290.476L225.41 290.91C225.62 289.818 225.802 288.53 225.97 287.06L224.892 286.78ZM227.328 286.92L226.292 287.032C226.348 287.83 226.376 288.95 226.404 290.406L227.496 290.266C227.468 288.852 227.412 287.732 227.328 286.92ZM228.77 286.808L227.762 286.934C227.874 287.578 227.958 288.502 228 289.692L229.064 289.552C229.008 288.39 228.91 287.48 228.77 286.808ZM221.84 288.978V284.554H222.778V288.978H221.84Z" fill="white"/>
<path d="M234.104 280.004L233.558 285.632H235.084C235.28 285.282 235.546 285.03 235.896 284.862C236.204 284.708 236.582 284.638 237.016 284.638C237.66 284.638 238.164 284.82 238.5 285.212C238.836 285.59 239.018 286.122 239.018 286.794C239.018 287.41 238.808 287.9 238.416 288.264C238.01 288.628 237.506 288.81 236.918 288.81C236.372 288.81 235.938 288.684 235.63 288.46C235.266 288.194 235.056 287.788 234.986 287.242H233.376C233.446 288.166 233.838 288.908 234.566 289.454C235.21 289.944 235.994 290.196 236.904 290.196C237.898 290.196 238.752 289.902 239.48 289.314C240.264 288.656 240.656 287.816 240.656 286.78C240.656 285.702 240.348 284.848 239.76 284.232C239.172 283.616 238.402 283.308 237.464 283.308C237.016 283.308 236.61 283.378 236.246 283.518C235.84 283.658 235.49 283.882 235.182 284.19H235.14L235.42 281.446H240.194V280.004H234.104Z" fill="white"/>
<path d="M251.809 284.526C251.025 284.526 250.409 284.792 249.989 285.352C249.597 285.828 249.415 286.472 249.415 287.27C249.415 288.054 249.597 288.684 249.989 289.188C250.409 289.72 251.025 290 251.809 290C252.593 290 253.195 289.72 253.615 289.188C253.979 288.698 254.175 288.054 254.175 287.27C254.175 286.472 253.979 285.828 253.615 285.352C253.195 284.792 252.593 284.526 251.809 284.526ZM250.381 279.808L244.767 290.196H245.985L251.599 279.808H250.381ZM244.585 280.004C243.801 280.004 243.185 280.27 242.765 280.83C242.373 281.306 242.191 281.95 242.191 282.748C242.191 283.532 242.373 284.162 242.765 284.666C243.185 285.198 243.801 285.478 244.585 285.478C245.369 285.478 245.971 285.198 246.391 284.666C246.755 284.176 246.951 283.532 246.951 282.748C246.951 281.95 246.755 281.306 246.391 280.83C245.971 280.27 245.369 280.004 244.585 280.004ZM251.809 285.548C252.145 285.548 252.383 285.73 252.523 286.108C252.635 286.388 252.691 286.766 252.691 287.27C252.691 287.746 252.635 288.124 252.537 288.404C252.383 288.782 252.145 288.978 251.809 288.978C251.459 288.978 251.207 288.796 251.067 288.432C250.955 288.152 250.899 287.76 250.899 287.27C250.899 286.766 250.955 286.374 251.067 286.094C251.207 285.73 251.459 285.548 251.809 285.548ZM244.585 281.026C244.921 281.026 245.159 281.208 245.299 281.586C245.411 281.866 245.467 282.244 245.467 282.748C245.467 283.224 245.411 283.602 245.313 283.882C245.159 284.26 244.921 284.456 244.585 284.456C244.235 284.456 243.983 284.274 243.843 283.91C243.731 283.63 243.675 283.238 243.675 282.748C243.675 282.244 243.731 281.852 243.843 281.572C243.983 281.208 244.235 281.026 244.585 281.026Z" fill="white"/>
</g>
<g opacity="0.8">
<path d="M61.758 305.422C61.086 306.332 60.582 307.284 60.218 308.292C59.784 309.468 59.574 310.686 59.574 311.974C59.574 313.234 59.784 314.466 60.218 315.642C60.582 316.622 61.086 317.574 61.758 318.498H63.088C62.5 317.518 62.052 316.552 61.744 315.6C61.324 314.382 61.128 313.164 61.128 311.96C61.128 310.742 61.324 309.524 61.744 308.32C62.052 307.354 62.5 306.388 63.088 305.422H61.758Z" fill="white"/>
<path d="M64.9501 307.004L64.4041 312.632H65.9301C66.1261 312.282 66.3921 312.03 66.7421 311.862C67.0501 311.708 67.4281 311.638 67.8621 311.638C68.5061 311.638 69.0101 311.82 69.3461 312.212C69.6821 312.59 69.8641 313.122 69.8641 313.794C69.8641 314.41 69.6541 314.9 69.2621 315.264C68.8561 315.628 68.3521 315.81 67.7641 315.81C67.2181 315.81 66.7841 315.684 66.4761 315.46C66.1121 315.194 65.9021 314.788 65.8321 314.242H64.2221C64.2921 315.166 64.6841 315.908 65.4121 316.454C66.0561 316.944 66.8401 317.196 67.7501 317.196C68.7441 317.196 69.5981 316.902 70.3261 316.314C71.1101 315.656 71.5021 314.816 71.5021 313.78C71.5021 312.702 71.1941 311.848 70.6061 311.232C70.0181 310.616 69.2481 310.308 68.3101 310.308C67.8621 310.308 67.4561 310.378 67.0921 310.518C66.6861 310.658 66.3361 310.882 66.0281 311.19H65.9861L66.2661 308.446H71.0401V307.004H64.9501Z" fill="white"/>
<path d="M82.6546 311.526C81.8706 311.526 81.2546 311.792 80.8346 312.352C80.4426 312.828 80.2606 313.472 80.2606 314.27C80.2606 315.054 80.4426 315.684 80.8346 316.188C81.2546 316.72 81.8706 317 82.6546 317C83.4386 317 84.0406 316.72 84.4606 316.188C84.8246 315.698 85.0206 315.054 85.0206 314.27C85.0206 313.472 84.8246 312.828 84.4606 312.352C84.0406 311.792 83.4386 311.526 82.6546 311.526ZM81.2266 306.808L75.6126 317.196H76.8306L82.4446 306.808H81.2266ZM75.4306 307.004C74.6466 307.004 74.0306 307.27 73.6106 307.83C73.2186 308.306 73.0366 308.95 73.0366 309.748C73.0366 310.532 73.2186 311.162 73.6106 311.666C74.0306 312.198 74.6466 312.478 75.4306 312.478C76.2146 312.478 76.8166 312.198 77.2366 311.666C77.6006 311.176 77.7966 310.532 77.7966 309.748C77.7966 308.95 77.6006 308.306 77.2366 307.83C76.8166 307.27 76.2146 307.004 75.4306 307.004ZM82.6546 312.548C82.9906 312.548 83.2286 312.73 83.3686 313.108C83.4806 313.388 83.5366 313.766 83.5366 314.27C83.5366 314.746 83.4806 315.124 83.3826 315.404C83.2286 315.782 82.9906 315.978 82.6546 315.978C82.3046 315.978 82.0526 315.796 81.9126 315.432C81.8006 315.152 81.7446 314.76 81.7446 314.27C81.7446 313.766 81.8006 313.374 81.9126 313.094C82.0526 312.73 82.3046 312.548 82.6546 312.548ZM75.4306 308.026C75.7666 308.026 76.0046 308.208 76.1446 308.586C76.2566 308.866 76.3126 309.244 76.3126 309.748C76.3126 310.224 76.2566 310.602 76.1586 310.882C76.0046 311.26 75.7666 311.456 75.4306 311.456C75.0806 311.456 74.8286 311.274 74.6886 310.91C74.5766 310.63 74.5206 310.238 74.5206 309.748C74.5206 309.244 74.5766 308.852 74.6886 308.572C74.8286 308.208 75.0806 308.026 75.4306 308.026Z" fill="white"/>
<path d="M89.6979 308.012H98.8399V306.612H90.4959C90.6359 306.318 90.7899 306.01 90.9299 305.702L89.4459 305.366C88.6339 307.158 87.6819 308.53 86.6039 309.496L87.5419 310.63C88.0319 310.182 88.4939 309.664 88.9419 309.09C88.9139 310.028 88.8579 310.994 88.7739 311.974H86.5059V313.346H88.6339C88.4939 314.396 88.3399 315.46 88.1439 316.524H96.2079C96.2079 316.538 96.1939 316.552 96.1939 316.58C96.0959 316.832 95.9419 317 95.7459 317.084C95.5639 317.14 95.3399 317.182 95.0879 317.182C94.4859 317.182 93.8139 317.154 93.0719 317.126L93.5059 318.456C94.1779 318.456 94.7799 318.442 95.2839 318.442C95.9559 318.442 96.4739 318.33 96.8239 318.12C97.1739 317.924 97.4119 317.602 97.5379 317.154C97.5659 317.056 97.5939 316.846 97.6359 316.524H99.1339V315.18H97.7199C97.7479 314.676 97.7759 314.06 97.8039 313.346H99.5259V311.974H97.8599L97.9579 308.838H89.1379C89.3199 308.572 89.5019 308.292 89.6979 308.012ZM91.9799 313.346L91.3499 314.256C92.0919 314.48 92.8339 314.788 93.5759 315.18H89.8379C89.9359 314.62 90.0199 314.004 90.1039 313.346H91.9799ZM90.2299 311.974C90.2579 311.414 90.2999 310.812 90.3279 310.182H92.0639L91.4479 311.092C92.1339 311.316 92.8199 311.61 93.5059 311.974H90.2299ZM94.5139 311.974L94.9339 311.33C94.1079 310.882 93.1979 310.49 92.2179 310.182H96.4879L96.4319 311.974H94.5139ZM96.3899 313.346C96.3619 314.074 96.3339 314.676 96.3059 315.18H94.3739L94.8499 314.466C94.0239 314.018 93.1139 313.654 92.1339 313.346H96.3899Z" fill="white"/>
<path d="M104.608 310.686H110.138V312.758H104.608V310.686ZM110.138 309.328H104.608V307.368H110.138V309.328ZM104.524 314.116H110.138V316.412C110.138 316.776 109.998 316.972 109.718 316.972C109.2 316.972 108.626 316.944 108.01 316.902L108.402 318.33H110.194C111.146 318.33 111.622 317.868 111.622 316.944V305.968H103.138V312.842C103.11 314.746 102.676 316.314 101.808 317.532L102.928 318.554C103.796 317.364 104.328 315.88 104.524 314.116Z" fill="white"/>
<path d="M119.588 305.506V316.552H114.73V317.98H127.316V316.552H121.1V311.078H126.28V309.664H121.1V305.506H119.588Z" fill="white"/>
<path d="M128.982 305.94V318.47H130.41V307.312H132.16C131.81 308.418 131.32 309.664 130.704 311.05C131.642 312.212 132.118 313.262 132.118 314.2C132.118 314.424 132.062 314.578 131.95 314.662C131.838 314.746 131.614 314.788 131.278 314.816C131.068 314.816 130.802 314.788 130.494 314.732L130.97 316.216C132.006 316.202 132.748 316.006 133.168 315.642C133.448 315.362 133.588 314.872 133.588 314.2C133.518 313.248 133.056 312.128 132.188 310.826C132.734 309.51 133.21 308.264 133.63 307.088V305.94H128.982ZM135.464 309.79H139.006V310.952H135.464V309.79ZM139.006 308.474H135.464V307.298H139.006V308.474ZM140.322 312.646C139.79 313.29 139.23 313.78 138.656 314.13C138.432 313.738 138.222 313.304 138.04 312.828L136.934 313.444C137.718 315.656 138.992 317.294 140.728 318.33L141.582 317.07C140.714 316.594 139.972 315.964 139.342 315.166C140.042 314.774 140.686 314.256 141.246 313.584L140.322 312.646ZM135.464 312.282H140.434V305.926H134.022V316.566C134.022 316.762 133.896 316.888 133.672 316.972L134.022 318.26C135.59 317.868 136.892 317.448 137.928 317.014L137.578 315.656C136.878 315.992 136.178 316.258 135.464 316.482V312.282Z" fill="white"/>
<path d="M146.342 306.808C145.18 306.808 144.256 307.312 143.584 308.32C142.898 309.328 142.562 310.644 142.562 312.282C142.562 313.808 142.87 314.998 143.514 315.866C144.158 316.748 145.096 317.196 146.328 317.196C147.322 317.196 148.162 316.86 148.834 316.216C149.506 315.572 149.856 314.746 149.856 313.738C149.856 312.758 149.562 311.946 148.974 311.316C148.386 310.686 147.602 310.378 146.622 310.378C146.118 310.378 145.67 310.462 145.278 310.658C144.858 310.854 144.508 311.148 144.228 311.568H144.158V311.442C144.158 310.518 144.34 309.748 144.732 309.132C145.124 308.474 145.656 308.152 146.328 308.152C147.28 308.152 147.868 308.614 148.064 309.538H149.66C149.408 307.718 148.302 306.808 146.342 306.808ZM146.272 311.708C146.874 311.708 147.35 311.89 147.714 312.268C148.05 312.632 148.232 313.122 148.232 313.738C148.232 314.354 148.05 314.858 147.686 315.25C147.322 315.642 146.86 315.838 146.272 315.838C145.698 315.838 145.236 315.656 144.872 315.292C144.508 314.928 144.326 314.424 144.326 313.794C144.326 313.15 144.494 312.632 144.844 312.268C145.18 311.89 145.656 311.708 146.272 311.708Z" fill="white"/>
<path d="M154.596 306.808C153.42 306.808 152.51 307.284 151.866 308.264C151.25 309.188 150.942 310.434 150.942 312.002C150.942 313.57 151.25 314.816 151.866 315.74C152.51 316.706 153.42 317.196 154.596 317.196C155.758 317.196 156.668 316.706 157.326 315.74C157.942 314.816 158.25 313.57 158.25 312.002C158.25 310.434 157.942 309.188 157.326 308.264C156.668 307.284 155.758 306.808 154.596 306.808ZM154.596 308.194C155.38 308.194 155.94 308.628 156.276 309.524C156.5 310.126 156.612 310.952 156.612 312.002C156.612 313.038 156.5 313.864 156.276 314.48C155.94 315.362 155.38 315.81 154.596 315.81C153.798 315.81 153.238 315.362 152.916 314.48C152.692 313.864 152.58 313.038 152.58 312.002C152.58 310.952 152.692 310.126 152.916 309.524C153.238 308.628 153.798 308.194 154.596 308.194Z" fill="white"/>
<path d="M162.991 306.808C161.815 306.808 160.905 307.284 160.261 308.264C159.645 309.188 159.337 310.434 159.337 312.002C159.337 313.57 159.645 314.816 160.261 315.74C160.905 316.706 161.815 317.196 162.991 317.196C164.153 317.196 165.063 316.706 165.721 315.74C166.337 314.816 166.645 313.57 166.645 312.002C166.645 310.434 166.337 309.188 165.721 308.264C165.063 307.284 164.153 306.808 162.991 306.808ZM162.991 308.194C163.775 308.194 164.335 308.628 164.671 309.524C164.895 310.126 165.007 310.952 165.007 312.002C165.007 313.038 164.895 313.864 164.671 314.48C164.335 315.362 163.775 315.81 162.991 315.81C162.193 315.81 161.633 315.362 161.311 314.48C161.087 313.864 160.975 313.038 160.975 312.002C160.975 310.952 161.087 310.126 161.311 309.524C161.633 308.628 162.193 308.194 162.991 308.194Z" fill="white"/>
<path d="M172.058 307.004V308.404H175.334V317H176.972V308.404H180.248V307.004H172.058Z" fill="white"/>
<path d="M186.103 307.004V317H187.741V313.164H190.219C192.655 313.164 193.873 312.128 193.873 310.07C193.873 308.026 192.655 307.004 190.247 307.004H186.103ZM187.741 308.404H190.121C190.835 308.404 191.367 308.53 191.703 308.796C192.039 309.048 192.221 309.468 192.221 310.07C192.221 310.672 192.053 311.106 191.717 311.372C191.381 311.624 190.849 311.764 190.121 311.764H187.741V308.404Z" fill="white"/>
<path d="M198.497 309.566C197.391 309.566 196.509 309.916 195.851 310.644C195.179 311.358 194.857 312.268 194.857 313.388C194.857 314.494 195.179 315.404 195.837 316.104C196.509 316.832 197.391 317.196 198.497 317.196C199.589 317.196 200.485 316.832 201.157 316.104C201.801 315.404 202.137 314.494 202.137 313.388C202.137 312.268 201.801 311.358 201.143 310.644C200.471 309.916 199.589 309.566 198.497 309.566ZM198.497 310.868C199.155 310.868 199.673 311.12 200.037 311.652C200.345 312.1 200.513 312.688 200.513 313.388C200.513 314.074 200.345 314.648 200.037 315.11C199.673 315.628 199.155 315.894 198.497 315.894C197.825 315.894 197.321 315.628 196.957 315.11C196.649 314.662 196.495 314.088 196.495 313.388C196.495 312.688 196.649 312.1 196.957 311.652C197.321 311.12 197.825 310.868 198.497 310.868Z" fill="white"/>
<path d="M204.609 306.808C204.301 306.808 204.049 306.906 203.839 307.102C203.629 307.298 203.531 307.55 203.531 307.858C203.531 308.166 203.629 308.418 203.839 308.628C204.049 308.824 204.301 308.922 204.609 308.922C204.917 308.922 205.169 308.824 205.379 308.628C205.589 308.432 205.701 308.166 205.701 307.858C205.701 307.55 205.589 307.298 205.393 307.102C205.183 306.906 204.917 306.808 204.609 306.808ZM203.811 309.762V317H205.407V309.762H203.811Z" fill="white"/>
<path d="M211.125 309.566C210.691 309.566 210.299 309.65 209.935 309.832C209.585 310 209.263 310.266 208.983 310.602V309.762H207.387V317H208.983V312.646C209.039 312.072 209.235 311.624 209.571 311.316C209.865 311.036 210.215 310.896 210.607 310.896C211.699 310.896 212.245 311.484 212.245 312.674V317H213.841V312.534C213.841 310.546 212.931 309.566 211.125 309.566Z" fill="white"/>
<path d="M217.79 307.424L216.194 308.082V309.762H214.892V311.078H216.194V315.166C216.194 315.754 216.334 316.188 216.614 316.496C216.908 316.832 217.37 317 218 317H219.218V315.684H218.266C218.098 315.684 217.986 315.642 217.902 315.558C217.818 315.46 217.79 315.334 217.79 315.166V311.078H219.4V309.762H217.79V307.424Z" fill="white"/>
<path d="M223.324 309.566C222.428 309.566 221.714 309.748 221.168 310.14C220.608 310.504 220.342 311.022 220.342 311.694C220.342 312.324 220.622 312.814 221.182 313.164C221.532 313.388 222.134 313.598 222.988 313.794C223.716 313.962 224.192 314.088 224.416 314.2C224.836 314.396 225.046 314.662 225.046 314.998C225.046 315.586 224.486 315.894 223.366 315.894C222.834 315.894 222.456 315.796 222.218 315.628C221.98 315.432 221.812 315.11 221.728 314.648H220.174C220.328 316.342 221.406 317.196 223.422 317.196C225.592 317.196 226.684 316.426 226.684 314.886C226.684 314.242 226.39 313.724 225.816 313.36C225.424 313.094 224.808 312.87 223.996 312.674C223.268 312.492 222.792 312.352 222.554 312.254C222.162 312.086 221.98 311.876 221.98 311.652C221.98 311.372 222.092 311.176 222.344 311.05C222.554 310.924 222.876 310.868 223.296 310.868C223.786 310.868 224.15 310.938 224.388 311.092C224.612 311.232 224.78 311.498 224.892 311.862H226.446C226.278 310.322 225.228 309.566 223.324 309.566Z" fill="white"/>
<path d="M227.683 305.422C228.257 306.388 228.705 307.354 229.027 308.32C229.433 309.524 229.643 310.742 229.643 311.96C229.643 313.164 229.433 314.382 229.027 315.6C228.705 316.552 228.257 317.518 227.683 318.498H229.013C229.671 317.574 230.189 316.622 230.553 315.642C230.973 314.466 231.197 313.234 231.197 311.974C231.197 310.686 230.973 309.468 230.553 308.292C230.189 307.284 229.671 306.332 229.013 305.422H227.683Z" fill="white"/>
</g>
</svg>
