<svg width="287" height="354" viewBox="0 0 287 354" fill="none" xmlns="http://www.w3.org/2000/svg">
<rect y="7.19995" width="287" height="346" rx="30" fill="#FFFCEB"/>
<mask id="mask0" mask-type="alpha" maskUnits="userSpaceOnUse" x="0" y="7" width="287" height="347">
<rect y="7.19995" width="287" height="346" rx="30" fill="#FFFCEB"/>
</mask>
<g mask="url(#mask0)">
<path opacity="0.3" d="M-287.011 329.499C-331.542 336.34 -322.939 360.458 -324.986 387.195L-323.372 423.29C-315.517 425.806 -316.357 433.301 -312.496 442.175C-308.623 451.078 -302.543 455.359 -296.026 459.272C-287.299 464.512 -277.789 466.098 -268.821 470.594C-256.403 476.82 -243.639 482.703 -231.089 488.271C-222.521 492.072 -213.672 493.165 -205.038 496.539C-195.256 500.36 -173.072 479.134 -163.039 480.16C-95.0308 487.113 -51.5315 488.844 15.2897 453.423C43.0347 438.716 70.7897 424.557 98.7129 410.399C126.134 396.496 159.66 435.113 189.604 432.647C213.538 430.676 271.256 443.612 294.711 436.974C321.831 429.299 312.178 354.478 333.971 331.191C348.095 316.098 358.117 306.484 359.807 280.167C361.985 246.238 366.214 212.333 347.933 188.069C333.51 168.925 334.934 133.123 282.461 154.327C238.086 172.258 234.769 216.048 208.181 226.807C164.823 244.35 137.139 195.011 91.9028 208.88C46.6671 222.75 38.4568 259.27 18.8727 270.971C-4.01789 284.647 -24.1482 288.497 -51.1314 279.996C-75.4917 272.321 -97.6021 259.649 -122.308 262.834C-147.985 266.144 -165.09 285.927 -183.469 308.75C-205.431 336.021 -256.766 324.852 -287.011 329.499Z" fill="#6CBDC0"/>
<path opacity="0.3" d="M-65.5011 327.49C-110.033 334.331 -101.429 358.449 -103.476 385.186L-101.862 421.281C-94.0073 423.797 -94.847 431.291 -90.986 440.166C-87.1131 449.068 -81.0328 453.35 -74.5164 457.262C-65.789 462.503 -56.2791 464.089 -47.3112 468.585C-34.8932 474.811 -22.1294 480.694 -9.57936 486.262C-1.01107 490.063 7.83758 491.156 16.4724 494.53C26.2534 498.351 48.4378 477.125 58.471 478.151C126.479 485.104 169.978 486.835 236.8 451.414C264.545 436.707 292.3 422.548 320.223 408.39C347.644 394.486 381.17 433.104 411.114 430.638C435.048 428.667 492.766 441.603 516.221 434.965C543.341 427.29 533.688 352.469 555.48 329.182C569.604 314.089 579.627 304.475 581.317 278.158C583.495 244.228 587.724 210.324 569.443 186.059C555.02 166.916 556.444 131.114 503.971 152.318C459.596 170.249 456.279 214.039 429.69 224.797C386.333 242.341 358.648 193.002 313.413 206.871C268.177 220.741 259.967 257.261 240.383 268.962C217.492 282.638 197.362 286.488 170.379 277.986C146.018 270.311 123.908 257.64 99.2017 260.825C73.5251 264.135 56.4202 283.918 38.0408 306.741C16.0791 334.012 -35.2564 322.843 -65.5011 327.49Z" fill="#6CBDC0"/>
</g>
<path d="M226.294 11.9221C229.294 6.58927 225.44 0 219.321 0H69.9443C63.9972 0 60.1292 6.2585 62.7888 11.5777L69.5666 25.1331C73.632 33.2639 81.9423 38.4 91.0328 38.4H197.364C206.034 38.4 214.031 33.7233 218.281 26.1663L226.294 11.9221Z" fill="#6CBDC0"/>
<line x1="89.4" y1="22" x2="200.6" y2="22" stroke="#87D0D2" stroke-width="2.4" stroke-linecap="round"/>
<path d="M13.3125 327.011C9.05974 339.257 18.1533 352.041 31.117 352.041H258.883C271.847 352.041 280.94 339.257 276.688 327.011L262.594 286.426C255.51 266.027 236.285 252.352 214.691 252.352H75.3088C53.715 252.352 34.4901 266.027 27.4063 286.426L13.3125 327.011Z" fill="#698FC8" stroke="#5F83BA" stroke-width="2.30494"/>
<path d="M36.6121 325.26C33.4642 332.849 39.0414 341.2 47.2573 341.2H243.22C251.436 341.2 257.013 332.849 253.865 325.26L238.029 287.082C231.781 272.019 217.078 262.2 200.77 262.2H89.7066C73.3994 262.2 58.6963 272.019 52.4483 287.082L36.6121 325.26Z" fill="#769CD7"/>
<g opacity="0.7">
<path d="M47.9572 283.746C47.8872 284.95 47.7192 286.028 47.4672 286.952L48.5732 287.302C48.8112 286.308 48.9652 285.174 49.0352 283.886L47.9572 283.746ZM50.3232 283.634L49.3152 283.858C49.4552 284.698 49.5812 285.65 49.6792 286.742L50.8132 286.476C50.6732 285.454 50.5052 284.502 50.3232 283.634ZM51.2472 280.064L50.3232 280.372C50.7992 279.518 51.3312 278.454 51.9332 277.166L50.7292 276.718C50.4772 277.306 50.2252 277.852 50.0012 278.37C49.6932 278.426 49.3852 278.468 49.0772 278.524C49.6372 277.586 50.1972 276.396 50.7572 274.968L49.4132 274.436C49.0492 275.766 48.6152 276.984 48.1252 278.104C47.9572 278.356 47.7472 278.524 47.5232 278.622L47.8872 279.896C48.4052 279.798 48.9092 279.7 49.3992 279.616C48.9232 280.526 48.5312 281.17 48.2232 281.548C48.0552 281.716 47.8452 281.842 47.6072 281.94L47.9572 283.2C48.8392 283.074 49.7772 282.822 50.7572 282.458C50.7992 282.654 50.8412 282.864 50.8832 283.088L51.9332 282.822C51.7232 281.772 51.4992 280.848 51.2472 280.064ZM50.2672 280.484C50.3512 280.778 50.4352 281.086 50.5192 281.422C50.1832 281.534 49.8332 281.632 49.4832 281.716C49.7212 281.38 49.9872 280.96 50.2672 280.484ZM51.5832 283.242L50.6452 283.564C50.8972 284.208 51.1492 284.964 51.3732 285.832L52.3532 285.384C52.1292 284.614 51.8632 283.9 51.5832 283.242ZM56.3852 274.898V287.33H57.7292V276.214H58.9052C58.5972 277.67 58.2612 278.916 57.9252 279.966C58.8492 281.436 59.3252 282.626 59.3392 283.536C59.3392 283.886 59.3252 284.11 59.2972 284.194C59.2552 284.306 59.1852 284.376 59.0872 284.39C58.7512 284.39 58.3452 284.362 57.8692 284.32L58.2752 285.664C59.2272 285.664 59.8572 285.496 60.1792 285.188C60.4732 284.88 60.6272 284.334 60.6272 283.536C60.6132 282.612 60.1652 281.422 59.2972 279.966C59.6612 278.734 60.0112 277.404 60.3192 275.976V274.898H56.3852ZM52.3392 278.93V280.218H53.4732V281.464C53.4732 281.59 53.4592 281.73 53.4592 281.884H52.2132V283.172H53.3472C53.1092 284.642 52.5632 285.762 51.7232 286.546L52.7872 287.498C53.8372 286.504 54.4952 285.062 54.7612 283.172H56.0352V281.884H54.8592C54.8592 281.744 54.8732 281.604 54.8732 281.464V280.218H55.8672V278.93H54.8732V277.306C55.4052 277.194 55.8532 277.068 56.2172 276.928L55.7692 275.696C55.5172 275.822 55.2092 275.934 54.8732 276.032V274.534H53.4732V276.326C52.9972 276.382 52.4792 276.438 51.9192 276.466L52.2692 277.656L53.4732 277.53V278.93H52.3392Z" fill="white"/>
<path d="M66.6472 274.534V279.154H61.7892V280.582H66.6472V287.456H68.1312V283.186C69.2232 283.704 70.5812 284.446 72.1912 285.426L73.0312 284.18C71.3652 283.256 69.7272 282.444 68.1312 281.744V280.582H74.3472V279.154H68.1312V277.474H72.5412V276.074H68.1312V274.534H66.6472Z" fill="white"/>
<path d="M76.1672 275.066V276.466H79.7372C78.8412 277.824 77.7632 278.846 76.5032 279.546L76.8952 280.806C79.8632 280.666 82.7612 280.372 85.5892 279.952C85.9112 280.372 86.2052 280.792 86.4852 281.212L87.6892 280.358C87.0032 279.35 86.0232 278.174 84.7352 276.816L83.5452 277.572C83.9092 277.964 84.2452 278.342 84.5812 278.734C82.7612 279.014 80.9132 279.224 79.0232 279.364C79.9192 278.58 80.7172 277.614 81.4452 276.466H87.9272V275.066H76.1672ZM76.7412 282.318V283.704H81.3332V285.524H75.8592V286.952H88.2912V285.524H82.8172V283.704H87.3112V282.318H82.8172V280.96H81.3332V282.318H76.7412Z" fill="white"/>
<path d="M100.905 281.478H91.2452V287.484H92.7292V286.952H99.4212V287.484H100.905V281.478ZM92.7292 285.552V282.878H99.4212V285.552H92.7292ZM90.3632 280.232C93.9332 280.106 97.1812 279.91 100.093 279.644C100.415 280.176 100.737 280.722 101.045 281.296L102.473 280.596C101.465 278.902 100.415 277.362 99.2952 275.962L97.9652 276.592C98.3992 277.138 98.8332 277.726 99.2532 278.342C97.0972 278.538 94.8852 278.692 92.6172 278.804C93.7652 277.74 94.8712 276.452 95.9492 274.968L94.4372 274.436C92.5332 277.222 91.0772 278.692 90.0972 278.846L90.3632 280.232Z" fill="white"/>
<path d="M109.123 283.928H115.423V281.254H107.821V282.29H114.121V282.878H107.961L107.569 285.622H114.569C114.569 285.846 114.541 286.028 114.485 286.154C114.429 286.266 114.261 286.336 113.981 286.336C113.337 286.336 112.637 286.308 111.881 286.28L112.189 287.428C112.833 287.456 113.505 287.47 114.205 287.47C114.933 287.456 115.409 287.274 115.605 286.938C115.801 286.574 115.913 285.762 115.913 284.502H109.025L109.123 283.928ZM104.755 274.646L103.817 275.542C104.685 276.27 105.357 276.942 105.819 277.572L106.771 276.62C106.211 275.962 105.539 275.304 104.755 274.646ZM104.559 277.936L103.621 278.846C104.545 279.588 105.259 280.274 105.763 280.918L106.715 279.98C106.127 279.294 105.399 278.608 104.559 277.936ZM105.707 281.828C105.119 283.494 104.433 285.132 103.649 286.728L104.965 287.302C105.693 285.748 106.337 284.096 106.925 282.332L105.707 281.828ZM109.823 275.29V276.214H113.197V275.29H112.077C112.007 274.982 111.923 274.702 111.839 274.45L110.635 274.646C110.719 274.842 110.803 275.052 110.887 275.29H109.823ZM110.257 276.564V277.334H112.777V276.564H110.257ZM110.257 277.642V278.412H112.763V277.642H110.257ZM110.145 278.748V280.876H112.889V278.748H110.145ZM111.951 280.12H111.083V279.448H111.951V280.12ZM106.967 279.224C106.897 279.784 106.785 280.316 106.631 280.82L107.471 281.114C107.597 280.568 107.681 280.008 107.723 279.42L106.967 279.224ZM108.675 279.308L107.961 279.392C107.989 279.77 108.017 280.302 108.031 281.002L108.885 280.89C108.843 280.218 108.773 279.7 108.675 279.308ZM109.669 279.182L108.969 279.378C109.095 279.854 109.207 280.33 109.305 280.82L110.061 280.54C109.963 280.12 109.837 279.672 109.669 279.182ZM109.501 277.096L108.773 277.32C109.053 276.928 109.389 276.438 109.781 275.85L108.857 275.514C108.703 275.766 108.549 276.004 108.409 276.256L107.835 276.312C108.171 275.92 108.479 275.43 108.759 274.814L107.835 274.534C107.541 275.346 107.191 275.962 106.799 276.382L106.995 277.138C107.303 277.11 107.597 277.068 107.891 277.04C107.373 277.768 106.981 278.174 106.729 278.258L106.911 279.07C107.737 278.958 108.479 278.846 109.151 278.734C109.179 278.846 109.221 278.972 109.249 279.112L110.089 278.902C109.907 278.216 109.711 277.614 109.501 277.096ZM108.717 277.39C108.773 277.558 108.843 277.74 108.913 277.95L108.171 278.076C108.325 277.894 108.507 277.67 108.717 277.39ZM115.857 276.97L115.325 277.138C115.591 276.788 115.899 276.368 116.249 275.864L115.339 275.528C115.171 275.78 115.017 276.018 114.863 276.242C114.667 276.27 114.457 276.284 114.247 276.312C114.597 275.92 114.905 275.43 115.171 274.828L114.247 274.562C113.953 275.346 113.603 275.962 113.211 276.396L113.407 277.152L114.275 277.068C113.743 277.754 113.351 278.146 113.085 278.23L113.281 279.042C114.135 278.944 114.905 278.832 115.577 278.72C115.605 278.804 115.633 278.916 115.661 279.042L116.487 278.832C116.305 278.132 116.095 277.502 115.857 276.97ZM115.129 277.39C115.199 277.558 115.269 277.74 115.339 277.936C115.087 277.992 114.807 278.034 114.513 278.09C114.681 277.908 114.891 277.67 115.129 277.39ZM113.379 279.196C113.323 279.756 113.225 280.288 113.085 280.778L113.925 281.072C114.023 280.526 114.093 279.966 114.135 279.392L113.379 279.196ZM115.073 279.266L114.359 279.35C114.415 279.728 114.457 280.26 114.485 280.96L115.339 280.848C115.297 280.176 115.213 279.658 115.073 279.266ZM116.067 279.098L115.367 279.294C115.535 279.77 115.675 280.246 115.787 280.736L116.543 280.456C116.431 280.036 116.277 279.588 116.067 279.098Z" fill="white"/>
<path d="M117.873 278.02V279.448H122.927C122.171 282.654 120.379 284.95 117.551 286.322L118.489 287.554C121.289 286.084 123.165 283.788 124.117 280.666C125.181 283.55 127.043 285.804 129.675 287.428L130.599 286.224C127.869 284.628 126.007 282.374 124.999 279.448H130.277V278.02H124.663C124.761 277.208 124.817 276.34 124.817 275.43V274.506H123.333V275.766C123.319 276.55 123.263 277.292 123.179 278.02H117.873Z" fill="white"/>
<path d="M133.007 277.698V283.48H137.389V284.334H131.817V285.734H137.389V287.47H138.873V285.734H144.333V284.334H138.873V283.48H143.171V277.698H138.873V276.872H144.137V275.5H138.873V274.478H137.389V275.5H132.013V276.872H137.389V277.698H133.007ZM141.757 282.136H138.873V281.24H141.757V282.136ZM137.389 282.136H134.421V281.24H137.389V282.136ZM134.421 279.938V279.028H137.389V279.938H134.421ZM138.873 279.028H141.757V279.938H138.873V279.028Z" fill="white"/>
<path d="M150.353 276.186V277.586H153.097C152.313 278.314 151.207 278.916 149.751 279.42L150.507 280.666C151.361 280.302 152.131 279.896 152.803 279.448C152.943 279.588 153.069 279.756 153.195 279.938C152.453 280.722 151.473 281.366 150.269 281.898L150.983 283.144C152.103 282.598 153.041 281.912 153.783 281.086C153.881 281.324 153.965 281.59 154.049 281.87C153.013 283.018 151.571 284.012 149.737 284.852L150.577 286.098C151.991 285.398 153.237 284.516 154.301 283.452C154.315 283.718 154.329 283.998 154.329 284.306C154.329 285.146 154.231 285.65 154.063 285.846C153.867 286.014 153.587 286.112 153.195 286.112H152.131L152.565 287.428C152.817 287.428 153.041 287.414 153.251 287.414C154.147 287.372 154.791 287.204 155.183 286.91C155.547 286.602 155.743 285.734 155.743 284.306C155.743 284.012 155.729 283.718 155.715 283.438C156.317 284.376 157.059 285.216 157.927 285.958L158.669 284.684C157.423 283.774 156.415 282.682 155.645 281.394C156.121 281.058 156.513 280.736 156.821 280.428C157.241 280.022 157.661 279.49 158.081 278.846L156.863 278.104C156.527 278.664 156.163 279.154 155.799 279.546C155.547 279.798 155.281 280.036 155.001 280.232C154.721 279.602 154.357 279.056 153.909 278.58C154.245 278.272 154.539 277.936 154.819 277.586H158.165V276.186H156.401C156.625 275.808 156.849 275.402 157.045 274.954L155.673 274.464C155.449 275.066 155.211 275.64 154.931 276.186H153.461C153.251 275.528 153.013 274.954 152.761 274.45L151.389 274.968C151.627 275.346 151.837 275.752 152.019 276.186H150.353ZM146.027 274.94V287.33H147.483V283.438L147.861 284.628C148.799 284.614 149.457 284.404 149.849 283.998C150.101 283.69 150.227 283.172 150.227 282.416C150.171 281.548 149.821 280.526 149.191 279.35C149.569 278.202 149.905 277.096 150.185 276.032V274.94H146.027ZM147.483 283.186V276.256H148.771C148.519 277.236 148.183 278.342 147.763 279.56C148.463 280.624 148.813 281.576 148.813 282.416C148.813 282.71 148.771 282.92 148.687 283.032C148.589 283.144 148.421 283.228 148.169 283.256C147.987 283.256 147.763 283.228 147.483 283.186Z" fill="white"/>
<path d="M162.897 276.004L159.075 286H160.825L161.735 283.494H165.921L166.831 286H168.581L164.759 276.004H162.897ZM162.225 282.15L163.807 277.768H163.863L165.431 282.15H162.225Z" fill="white"/>
<path d="M169.557 276.004V286H171.195V282.164H173.673C176.109 282.164 177.327 281.128 177.327 279.07C177.327 277.026 176.109 276.004 173.701 276.004H169.557ZM171.195 277.404H173.575C174.289 277.404 174.821 277.53 175.157 277.796C175.493 278.048 175.675 278.468 175.675 279.07C175.675 279.672 175.507 280.106 175.171 280.372C174.835 280.624 174.303 280.764 173.575 280.764H171.195V277.404Z" fill="white"/>
<path d="M178.731 276.004V286H180.369V282.164H182.847C185.283 282.164 186.501 281.128 186.501 279.07C186.501 277.026 185.283 276.004 182.875 276.004H178.731ZM180.369 277.404H182.749C183.463 277.404 183.995 277.53 184.331 277.796C184.667 278.048 184.849 278.468 184.849 279.07C184.849 279.672 184.681 280.106 184.345 280.372C184.009 280.624 183.477 280.764 182.749 280.764H180.369V277.404Z" fill="white"/>
<path d="M193.169 274.506V276.172H187.863V277.6H193.169V279.308H188.941V280.666H189.879C190.089 281.338 190.425 281.982 190.901 282.598C191.405 283.256 192.021 283.858 192.721 284.418C191.293 285.202 189.585 285.804 187.569 286.252L188.409 287.554C190.579 286.966 192.441 286.21 193.981 285.272C194.611 285.65 195.297 286 196.053 286.322C197.145 286.784 198.293 287.176 199.511 287.498L200.365 286.196C199.245 285.944 198.195 285.636 197.187 285.272C196.487 285.006 195.829 284.712 195.227 284.404C196.599 283.326 197.649 282.052 198.377 280.596V279.308H194.681V277.6H199.987V276.172H194.681V274.506H193.169ZM193.953 283.648C193.365 283.256 192.847 282.808 192.385 282.318C191.923 281.842 191.573 281.282 191.321 280.666H196.725C196.067 281.8 195.143 282.794 193.953 283.648Z" fill="white"/>
<path d="M204.453 274.38C203.781 276.55 202.731 278.44 201.317 280.036L201.793 281.548C202.283 281.044 202.745 280.512 203.165 279.98V287.484H204.621V277.782C205.111 276.9 205.517 275.976 205.825 275.024L204.453 274.38ZM205.937 277.376V278.804H210.949V285.454C210.949 285.86 210.753 286.07 210.375 286.07C209.759 286.07 209.115 286.028 208.443 285.972L208.779 287.4H210.879C211.901 287.4 212.419 286.868 212.419 285.818V278.804H214.323V277.376H212.419V274.562H210.949V277.376H205.937ZM207.435 280.022L206.231 280.764C207.197 281.968 207.967 283.074 208.541 284.054L209.787 283.186C209.227 282.29 208.443 281.226 207.435 280.022Z" fill="white"/>
<path d="M216.857 277.698V283.48H221.239V284.334H215.667V285.734H221.239V287.47H222.723V285.734H228.183V284.334H222.723V283.48H227.021V277.698H222.723V276.872H227.987V275.5H222.723V274.478H221.239V275.5H215.863V276.872H221.239V277.698H216.857ZM225.607 282.136H222.723V281.24H225.607V282.136ZM221.239 282.136H218.271V281.24H221.239V282.136ZM218.271 279.938V279.028H221.239V279.938H218.271ZM222.723 279.028H225.607V279.938H222.723V279.028Z" fill="white"/>
<path d="M236.079 276.382H240.139C239.929 276.704 239.705 276.984 239.467 277.236L240.447 278.034C240.881 277.544 241.287 276.928 241.651 276.186V275.178H236.793C236.877 274.982 236.947 274.786 237.031 274.562L235.687 274.394C235.337 275.374 234.679 276.186 233.699 276.844L234.497 277.894C235.113 277.446 235.645 276.942 236.079 276.382ZM230.017 275.192V276.424H233.517V275.192H230.017ZM229.737 277.712V278.958H233.811V277.712H229.737ZM237.423 276.452C237.087 277.712 235.995 278.496 234.147 278.818L234.679 279.658H231.263V285.524H233.629C232.677 285.888 231.375 286.182 229.709 286.434L230.367 287.568C232.299 287.232 233.783 286.798 234.819 286.266L234.259 285.524H237.409L236.975 286.378C238.599 286.658 240.167 287.05 241.651 287.568L242.127 286.406C240.895 286.042 239.593 285.748 238.235 285.524H240.601V279.812C240.909 279.896 241.245 279.98 241.609 280.036L242.197 278.818C240.727 278.65 239.495 278.132 238.487 277.236C238.543 277.068 238.599 276.886 238.655 276.704L237.423 276.452ZM235.645 279.658C236.625 279.35 237.381 278.874 237.927 278.202C238.571 278.846 239.327 279.322 240.167 279.658H235.645ZM239.173 284.376H232.691V283.76H239.173V284.376ZM232.691 282.836V282.276H239.173V282.836H232.691ZM232.691 281.338V280.75H239.173V281.338H232.691Z" fill="white"/>
<path d="M64.36 296.422C63.716 298.578 62.736 300.44 61.392 302.022L61.868 303.548C62.316 303.072 62.736 302.568 63.128 302.064V309.414H64.612V299.754C65.06 298.9 65.438 298.004 65.732 297.066L64.36 296.422ZM69.96 296.45L68.392 296.702C68.616 297.262 68.812 297.864 68.994 298.508H65.452V299.894H68.182C67.44 301.84 66.278 303.45 64.71 304.724L65.466 305.97C65.998 305.522 66.502 305.032 66.964 304.514V307.594C66.964 307.818 66.838 307.972 66.614 308.084L66.936 309.33C68.476 308.882 69.792 308.406 70.884 307.902L70.632 306.502C69.918 306.866 69.162 307.188 68.35 307.468V302.624C68.854 301.784 69.274 300.874 69.61 299.894H74.09V298.508H70.464C70.296 297.738 70.128 297.052 69.96 296.45ZM73.376 301.28C72.9 301.868 72.312 302.442 71.626 302.974C71.416 302.148 71.29 301.266 71.248 300.314L70.03 300.678C70.184 304.318 71.374 307.174 73.6 309.232L74.594 308.07C73.432 307.02 72.578 305.732 72.018 304.22C72.928 303.618 73.67 303.016 74.258 302.4L73.376 301.28Z" fill="white"/>
<path d="M86.83 303.478H77.17V309.484H78.654V308.952H85.346V309.484H86.83V303.478ZM78.654 307.552V304.878H85.346V307.552H78.654ZM76.288 302.232C79.858 302.106 83.106 301.91 86.018 301.644C86.34 302.176 86.662 302.722 86.97 303.296L88.398 302.596C87.39 300.902 86.34 299.362 85.22 297.962L83.89 298.592C84.324 299.138 84.758 299.726 85.178 300.342C83.022 300.538 80.81 300.692 78.542 300.804C79.69 299.74 80.796 298.452 81.874 296.968L80.362 296.436C78.458 299.222 77.002 300.692 76.022 300.846L76.288 302.232Z" fill="white"/>
<path d="M95.048 305.928H101.348V303.254H93.746V304.29H100.046V304.878H93.886L93.494 307.622H100.494C100.494 307.846 100.466 308.028 100.41 308.154C100.354 308.266 100.186 308.336 99.906 308.336C99.262 308.336 98.562 308.308 97.806 308.28L98.114 309.428C98.758 309.456 99.43 309.47 100.13 309.47C100.858 309.456 101.334 309.274 101.53 308.938C101.726 308.574 101.838 307.762 101.838 306.502H94.95L95.048 305.928ZM90.68 296.646L89.742 297.542C90.61 298.27 91.282 298.942 91.744 299.572L92.696 298.62C92.136 297.962 91.464 297.304 90.68 296.646ZM90.484 299.936L89.546 300.846C90.47 301.588 91.184 302.274 91.688 302.918L92.64 301.98C92.052 301.294 91.324 300.608 90.484 299.936ZM91.632 303.828C91.044 305.494 90.358 307.132 89.574 308.728L90.89 309.302C91.618 307.748 92.262 306.096 92.85 304.332L91.632 303.828ZM95.748 297.29V298.214H99.122V297.29H98.002C97.932 296.982 97.848 296.702 97.764 296.45L96.56 296.646C96.644 296.842 96.728 297.052 96.812 297.29H95.748ZM96.182 298.564V299.334H98.702V298.564H96.182ZM96.182 299.642V300.412H98.688V299.642H96.182ZM96.07 300.748V302.876H98.814V300.748H96.07ZM97.876 302.12H97.008V301.448H97.876V302.12ZM92.892 301.224C92.822 301.784 92.71 302.316 92.556 302.82L93.396 303.114C93.522 302.568 93.606 302.008 93.648 301.42L92.892 301.224ZM94.6 301.308L93.886 301.392C93.914 301.77 93.942 302.302 93.956 303.002L94.81 302.89C94.768 302.218 94.698 301.7 94.6 301.308ZM95.594 301.182L94.894 301.378C95.02 301.854 95.132 302.33 95.23 302.82L95.986 302.54C95.888 302.12 95.762 301.672 95.594 301.182ZM95.426 299.096L94.698 299.32C94.978 298.928 95.314 298.438 95.706 297.85L94.782 297.514C94.628 297.766 94.474 298.004 94.334 298.256L93.76 298.312C94.096 297.92 94.404 297.43 94.684 296.814L93.76 296.534C93.466 297.346 93.116 297.962 92.724 298.382L92.92 299.138C93.228 299.11 93.522 299.068 93.816 299.04C93.298 299.768 92.906 300.174 92.654 300.258L92.836 301.07C93.662 300.958 94.404 300.846 95.076 300.734C95.104 300.846 95.146 300.972 95.174 301.112L96.014 300.902C95.832 300.216 95.636 299.614 95.426 299.096ZM94.642 299.39C94.698 299.558 94.768 299.74 94.838 299.95L94.096 300.076C94.25 299.894 94.432 299.67 94.642 299.39ZM101.782 298.97L101.25 299.138C101.516 298.788 101.824 298.368 102.174 297.864L101.264 297.528C101.096 297.78 100.942 298.018 100.788 298.242C100.592 298.27 100.382 298.284 100.172 298.312C100.522 297.92 100.83 297.43 101.096 296.828L100.172 296.562C99.878 297.346 99.528 297.962 99.136 298.396L99.332 299.152L100.2 299.068C99.668 299.754 99.276 300.146 99.01 300.23L99.206 301.042C100.06 300.944 100.83 300.832 101.502 300.72C101.53 300.804 101.558 300.916 101.586 301.042L102.412 300.832C102.23 300.132 102.02 299.502 101.782 298.97ZM101.054 299.39C101.124 299.558 101.194 299.74 101.264 299.936C101.012 299.992 100.732 300.034 100.438 300.09C100.606 299.908 100.816 299.67 101.054 299.39ZM99.304 301.196C99.248 301.756 99.15 302.288 99.01 302.778L99.85 303.072C99.948 302.526 100.018 301.966 100.06 301.392L99.304 301.196ZM100.998 301.266L100.284 301.35C100.34 301.728 100.382 302.26 100.41 302.96L101.264 302.848C101.222 302.176 101.138 301.658 100.998 301.266ZM101.992 301.098L101.292 301.294C101.46 301.77 101.6 302.246 101.712 302.736L102.468 302.456C102.356 302.036 102.202 301.588 101.992 301.098Z" fill="white"/>
<path d="M103.798 300.02V301.448H108.852C108.096 304.654 106.304 306.95 103.476 308.322L104.414 309.554C107.214 308.084 109.09 305.788 110.042 302.666C111.106 305.55 112.968 307.804 115.6 309.428L116.524 308.224C113.794 306.628 111.932 304.374 110.924 301.448H116.202V300.02H110.588C110.686 299.208 110.742 298.34 110.742 297.43V296.506H109.258V297.766C109.244 298.55 109.188 299.292 109.104 300.02H103.798Z" fill="white"/>
<path d="M118.932 299.698V305.48H123.314V306.334H117.742V307.734H123.314V309.47H124.798V307.734H130.258V306.334H124.798V305.48H129.096V299.698H124.798V298.872H130.062V297.5H124.798V296.478H123.314V297.5H117.938V298.872H123.314V299.698H118.932ZM127.682 304.136H124.798V303.24H127.682V304.136ZM123.314 304.136H120.346V303.24H123.314V304.136ZM120.346 301.938V301.028H123.314V301.938H120.346ZM124.798 301.028H127.682V301.938H124.798V301.028Z" fill="white"/>
<path d="M136.278 298.186V299.586H139.022C138.238 300.314 137.132 300.916 135.676 301.42L136.432 302.666C137.286 302.302 138.056 301.896 138.728 301.448C138.868 301.588 138.994 301.756 139.12 301.938C138.378 302.722 137.398 303.366 136.194 303.898L136.908 305.144C138.028 304.598 138.966 303.912 139.708 303.086C139.806 303.324 139.89 303.59 139.974 303.87C138.938 305.018 137.496 306.012 135.662 306.852L136.502 308.098C137.916 307.398 139.162 306.516 140.226 305.452C140.24 305.718 140.254 305.998 140.254 306.306C140.254 307.146 140.156 307.65 139.988 307.846C139.792 308.014 139.512 308.112 139.12 308.112H138.056L138.49 309.428C138.742 309.428 138.966 309.414 139.176 309.414C140.072 309.372 140.716 309.204 141.108 308.91C141.472 308.602 141.668 307.734 141.668 306.306C141.668 306.012 141.654 305.718 141.64 305.438C142.242 306.376 142.984 307.216 143.852 307.958L144.594 306.684C143.348 305.774 142.34 304.682 141.57 303.394C142.046 303.058 142.438 302.736 142.746 302.428C143.166 302.022 143.586 301.49 144.006 300.846L142.788 300.104C142.452 300.664 142.088 301.154 141.724 301.546C141.472 301.798 141.206 302.036 140.926 302.232C140.646 301.602 140.282 301.056 139.834 300.58C140.17 300.272 140.464 299.936 140.744 299.586H144.09V298.186H142.326C142.55 297.808 142.774 297.402 142.97 296.954L141.598 296.464C141.374 297.066 141.136 297.64 140.856 298.186H139.386C139.176 297.528 138.938 296.954 138.686 296.45L137.314 296.968C137.552 297.346 137.762 297.752 137.944 298.186H136.278ZM131.952 296.94V309.33H133.408V305.438L133.786 306.628C134.724 306.614 135.382 306.404 135.774 305.998C136.026 305.69 136.152 305.172 136.152 304.416C136.096 303.548 135.746 302.526 135.116 301.35C135.494 300.202 135.83 299.096 136.11 298.032V296.94H131.952ZM133.408 305.186V298.256H134.696C134.444 299.236 134.108 300.342 133.688 301.56C134.388 302.624 134.738 303.576 134.738 304.416C134.738 304.71 134.696 304.92 134.612 305.032C134.514 305.144 134.346 305.228 134.094 305.256C133.912 305.256 133.688 305.228 133.408 305.186Z" fill="white"/>
<path d="M154.016 301.504C153.834 301.994 153.624 302.4 153.4 302.736L154.338 303.072C154.59 302.694 154.814 302.26 154.996 301.756L154.016 301.504ZM149.942 301.49L148.976 301.784C149.242 302.204 149.466 302.624 149.648 303.072L150.6 302.82C150.404 302.316 150.194 301.882 149.942 301.49ZM146.932 300.524V304.206H157.068V300.51C157.278 300.622 157.502 300.72 157.754 300.832L158.538 299.614C156.284 298.718 154.254 297.682 152.434 296.506H151.566C149.746 297.682 147.716 298.718 145.462 299.614L146.246 300.846C146.47 300.734 146.708 300.636 146.932 300.524ZM156.774 300.37H147.254C147.912 300.062 148.556 299.74 149.172 299.418V299.88H154.814V299.39C155.43 299.712 156.074 300.034 156.774 300.37ZM155.738 303.142H152.658V301.462H155.738V303.142ZM151.342 303.142H148.262V301.462H151.342V303.142ZM156.536 304.696H147.478V309.498H148.864V309.064H155.15V309.484H156.536V304.696ZM148.864 307.93V307.314H155.15V307.93H148.864ZM148.864 306.334V305.774H155.15V306.334H148.864ZM153.764 298.816H150.25C150.866 298.452 151.454 298.102 152 297.738C152.532 298.088 153.12 298.452 153.764 298.816Z" fill="white"/>
<path d="M161.814 296.912V299.908H170.2V296.912H161.814ZM168.8 298.83H163.214V298.004H168.8V298.83ZM161.128 300.482V307.006H163.55C162.514 307.538 161.296 308.028 159.868 308.462L160.722 309.554C162.43 308.98 163.858 308.322 165.006 307.566L164.348 307.006H167.638L167.05 307.552C168.772 308.266 170.088 308.938 171.012 309.568L172.034 308.56C171.082 308.042 169.948 307.524 168.618 307.006H170.914V300.482H161.128ZM169.514 305.774H162.528V305.088H169.514V305.774ZM162.528 303.996V303.352H169.514V303.996H162.528ZM162.528 302.26V301.63H169.514V302.26H162.528Z" fill="white"/>
<path d="M175.1 302.736V303.996H182.282V304.99H173.84V306.264H182.282V307.72C182.282 308.028 182.086 308.182 181.708 308.182C181.148 308.182 180.56 308.14 179.93 308.084L180.252 309.456H182.198C183.22 309.456 183.738 308.994 183.738 308.07V306.264H186.16V304.99H183.738V303.996H184.956V302.736H180.728V301.742H185.53V300.482H180.728V299.74H179.272V300.482H174.484V301.742H179.272V302.736H175.1ZM177.158 306.404L175.982 307.146C176.682 307.846 177.228 308.476 177.634 309.064L178.782 308.266C178.39 307.734 177.858 307.104 177.158 306.404ZM176.024 298.62H176.192C176.542 299.124 176.85 299.642 177.116 300.188L178.432 299.698C178.236 299.362 177.998 298.998 177.718 298.62H179.804V297.402H176.556C176.64 297.178 176.71 296.954 176.794 296.702L175.408 296.394C175.072 297.486 174.512 298.536 173.7 299.516L174.946 300.314C175.338 299.81 175.702 299.236 176.024 298.62ZM181.68 298.578H182.282C182.632 299.082 182.94 299.614 183.22 300.174L184.494 299.684C184.312 299.334 184.074 298.97 183.794 298.578H185.922V297.36H182.184C182.268 297.136 182.338 296.912 182.408 296.674L181.036 296.38C180.784 297.318 180.364 298.2 179.776 299.04L180.966 299.768C181.218 299.404 181.456 298.998 181.68 298.578Z" fill="white"/>
<path d="M188.12 305.816C188.05 306.936 187.868 307.916 187.588 308.784L188.834 309.176C189.086 308.252 189.24 307.174 189.31 305.97L188.12 305.816ZM190.766 305.606L189.674 305.83C189.814 306.67 189.926 307.622 190.024 308.714L191.256 308.42C191.116 307.412 190.948 306.474 190.766 305.606ZM192.264 301.966L191.158 302.33C191.27 302.68 191.396 303.044 191.508 303.422C190.906 303.576 190.318 303.702 189.73 303.814C190.584 302.848 191.648 301.294 192.936 299.166L191.662 298.69C191.326 299.278 191.004 299.81 190.71 300.314C190.22 300.398 189.73 300.482 189.254 300.538C189.912 299.628 190.556 298.48 191.186 297.108L189.814 296.59C189.338 297.878 188.792 299.068 188.162 300.16C187.994 300.398 187.798 300.566 187.588 300.664L187.924 301.91C188.596 301.798 189.254 301.7 189.898 301.602C189.254 302.582 188.708 303.268 188.274 303.66C188.106 303.8 187.91 303.926 187.672 304.038L188.022 305.27C189.212 305.13 190.472 304.864 191.788 304.472L191.914 305.032L193.076 304.738C192.824 303.702 192.558 302.778 192.264 301.966ZM192.208 305.228L191.2 305.578C191.424 306.138 191.648 306.782 191.844 307.524L192.712 307.146C192.516 307.608 192.306 308.028 192.082 308.42L193.118 309.33C194 307.958 194.602 306.068 194.91 303.646C195.358 304.598 195.89 305.508 196.52 306.362C195.806 307.132 194.924 307.804 193.86 308.392L194.784 309.526C195.806 308.966 196.688 308.28 197.444 307.482C198.06 308.168 198.774 308.812 199.558 309.414L200.538 308.252C199.712 307.706 198.97 307.09 198.312 306.404C199.124 305.228 199.67 303.828 199.978 302.232V300.93H198.438C198.718 300.034 198.956 298.956 199.152 297.696V296.954H192.796V298.27H193.832V299.46C193.804 302.526 193.468 304.976 192.824 306.824C192.642 306.264 192.432 305.732 192.208 305.228ZM195.638 302.26H198.592C198.368 303.38 197.948 304.388 197.36 305.298C196.66 304.388 196.086 303.38 195.638 302.26ZM195.134 300.93C195.162 300.454 195.176 299.964 195.176 299.46V298.27H197.682C197.5 299.278 197.29 300.16 197.052 300.93H195.134Z" fill="white"/>
<path d="M205.172 300.342V305.592H210.842V300.342H205.172ZM209.47 304.374H206.53V301.56H209.47V304.374ZM213.782 297.262H202.218V309.176H203.632V308.728H212.368V309.176H213.782V297.262ZM203.632 307.44V298.55H212.368V307.44H203.632Z" fill="white"/>
<path d="M221.622 297.108V299.838H224.016V300.328H220.978V301.448H228.37V300.328H225.318V299.838H227.698V297.108H225.318V296.464H224.016V297.108H221.622ZM226.494 298.844H225.318V298.102H226.494V298.844ZM224.016 298.844H222.826V298.102H224.016V298.844ZM221.65 301.868V307.44H223.4C222.826 307.832 222.014 308.168 220.95 308.42C220.698 307.622 220.39 306.852 220.04 306.124L218.906 306.502C219.004 306.726 219.116 306.964 219.228 307.216C218.766 307.398 218.262 307.58 217.702 307.776V306.012H220.572V300.706H216.372V307.888C216.372 308.084 216.274 308.21 216.092 308.294L216.47 309.344C217.646 309.036 218.696 308.7 219.634 308.322C219.718 308.574 219.816 308.84 219.9 309.134L220.922 308.658L221.398 309.47C222.602 309.148 223.54 308.728 224.184 308.21L223.596 307.44H225.57L225.164 308.238C226.172 308.546 227.152 308.966 228.09 309.498L228.538 308.434C227.754 308.014 226.928 307.692 226.074 307.44H227.684V301.868H221.65ZM226.326 306.418H223.008V305.816H226.326V306.418ZM223.008 304.934V304.36H226.326V304.934H223.008ZM223.008 303.464V302.876H226.326V303.464H223.008ZM217.8 296.59C217.072 297.682 216.274 298.62 215.42 299.418L216.19 300.496C216.582 300.132 216.96 299.754 217.324 299.362V300.062H219.69V299.096C219.928 299.39 220.194 299.726 220.488 300.118L221.328 299.208C220.6 298.312 219.844 297.43 219.032 296.59H217.8ZM217.688 298.942C217.996 298.592 218.276 298.214 218.556 297.822C218.836 298.102 219.172 298.466 219.564 298.942H217.688ZM217.702 303.898H219.242V304.78H217.702V303.898ZM219.242 302.778H217.702V301.938H219.242V302.778Z" fill="white"/>
</g>
<g opacity="0.7">
<path d="M61.758 323.422C61.086 324.332 60.582 325.284 60.218 326.292C59.784 327.468 59.574 328.686 59.574 329.974C59.574 331.234 59.784 332.466 60.218 333.642C60.582 334.622 61.086 335.574 61.758 336.498H63.088C62.5 335.518 62.052 334.552 61.744 333.6C61.324 332.382 61.128 331.164 61.128 329.96C61.128 328.742 61.324 327.524 61.744 326.32C62.052 325.354 62.5 324.388 63.088 323.422H61.758Z" fill="white"/>
<path d="M67.3581 326.012H76.5001V324.612H68.1561C68.2961 324.318 68.4501 324.01 68.5901 323.702L67.1061 323.366C66.2941 325.158 65.3421 326.53 64.2641 327.496L65.2021 328.63C65.6921 328.182 66.1541 327.664 66.6021 327.09C66.5741 328.028 66.5181 328.994 66.4341 329.974H64.1661V331.346H66.2941C66.1541 332.396 66.0001 333.46 65.8041 334.524H73.8681C73.8681 334.538 73.8541 334.552 73.8541 334.58C73.7561 334.832 73.6021 335 73.4061 335.084C73.2241 335.14 73.0001 335.182 72.7481 335.182C72.1461 335.182 71.4741 335.154 70.7321 335.126L71.1661 336.456C71.8381 336.456 72.4401 336.442 72.9441 336.442C73.6161 336.442 74.1341 336.33 74.4841 336.12C74.8341 335.924 75.0721 335.602 75.1981 335.154C75.2261 335.056 75.2541 334.846 75.2961 334.524H76.7941V333.18H75.3801C75.4081 332.676 75.4361 332.06 75.4641 331.346H77.1861V329.974H75.5201L75.6181 326.838H66.7981C66.9801 326.572 67.1621 326.292 67.3581 326.012ZM69.6401 331.346L69.0101 332.256C69.7521 332.48 70.4941 332.788 71.2361 333.18H67.4981C67.5961 332.62 67.6801 332.004 67.7641 331.346H69.6401ZM67.8901 329.974C67.9181 329.414 67.9601 328.812 67.9881 328.182H69.7241L69.1081 329.092C69.7941 329.316 70.4801 329.61 71.1661 329.974H67.8901ZM72.1741 329.974L72.5941 329.33C71.7681 328.882 70.8581 328.49 69.8781 328.182H74.1481L74.0921 329.974H72.1741ZM74.0501 331.346C74.0221 332.074 73.9941 332.676 73.9661 333.18H72.0341L72.5101 332.466C71.6841 332.018 70.7741 331.654 69.7941 331.346H74.0501Z" fill="white"/>
<path d="M82.2681 328.686H87.7981V330.758H82.2681V328.686ZM87.7981 327.328H82.2681V325.368H87.7981V327.328ZM82.1841 332.116H87.7981V334.412C87.7981 334.776 87.6581 334.972 87.3781 334.972C86.8601 334.972 86.2861 334.944 85.6701 334.902L86.0621 336.33H87.8541C88.8061 336.33 89.2821 335.868 89.2821 334.944V323.968H80.7981V330.842C80.7701 332.746 80.3361 334.314 79.4681 335.532L80.5881 336.554C81.4561 335.364 81.9881 333.88 82.1841 332.116Z" fill="white"/>
<path d="M97.2481 323.506V334.552H92.3901V335.98H104.976V334.552H98.7601V329.078H103.94V327.664H98.7601V323.506H97.2481Z" fill="white"/>
<path d="M106.642 323.94V336.47H108.07V325.312H109.82C109.47 326.418 108.98 327.664 108.364 329.05C109.302 330.212 109.778 331.262 109.778 332.2C109.778 332.424 109.722 332.578 109.61 332.662C109.498 332.746 109.274 332.788 108.938 332.816C108.728 332.816 108.462 332.788 108.154 332.732L108.63 334.216C109.666 334.202 110.408 334.006 110.828 333.642C111.108 333.362 111.248 332.872 111.248 332.2C111.178 331.248 110.716 330.128 109.848 328.826C110.394 327.51 110.87 326.264 111.29 325.088V323.94H106.642ZM113.124 327.79H116.666V328.952H113.124V327.79ZM116.666 326.474H113.124V325.298H116.666V326.474ZM117.982 330.646C117.45 331.29 116.89 331.78 116.316 332.13C116.092 331.738 115.882 331.304 115.7 330.828L114.594 331.444C115.378 333.656 116.652 335.294 118.388 336.33L119.242 335.07C118.374 334.594 117.632 333.964 117.002 333.166C117.702 332.774 118.346 332.256 118.906 331.584L117.982 330.646ZM113.124 330.282H118.094V323.926H111.682V334.566C111.682 334.762 111.556 334.888 111.332 334.972L111.682 336.26C113.25 335.868 114.552 335.448 115.588 335.014L115.238 333.656C114.538 333.992 113.838 334.258 113.124 334.482V330.282Z" fill="white"/>
<path d="M124.002 324.808C122.84 324.808 121.916 325.312 121.244 326.32C120.558 327.328 120.222 328.644 120.222 330.282C120.222 331.808 120.53 332.998 121.174 333.866C121.818 334.748 122.756 335.196 123.988 335.196C124.982 335.196 125.822 334.86 126.494 334.216C127.166 333.572 127.516 332.746 127.516 331.738C127.516 330.758 127.222 329.946 126.634 329.316C126.046 328.686 125.262 328.378 124.282 328.378C123.778 328.378 123.33 328.462 122.938 328.658C122.518 328.854 122.168 329.148 121.888 329.568H121.818V329.442C121.818 328.518 122 327.748 122.392 327.132C122.784 326.474 123.316 326.152 123.988 326.152C124.94 326.152 125.528 326.614 125.724 327.538H127.32C127.068 325.718 125.962 324.808 124.002 324.808ZM123.932 329.708C124.534 329.708 125.01 329.89 125.374 330.268C125.71 330.632 125.892 331.122 125.892 331.738C125.892 332.354 125.71 332.858 125.346 333.25C124.982 333.642 124.52 333.838 123.932 333.838C123.358 333.838 122.896 333.656 122.532 333.292C122.168 332.928 121.986 332.424 121.986 331.794C121.986 331.15 122.154 330.632 122.504 330.268C122.84 329.89 123.316 329.708 123.932 329.708Z" fill="white"/>
<path d="M132.257 324.808C131.081 324.808 130.171 325.284 129.527 326.264C128.911 327.188 128.603 328.434 128.603 330.002C128.603 331.57 128.911 332.816 129.527 333.74C130.171 334.706 131.081 335.196 132.257 335.196C133.419 335.196 134.329 334.706 134.987 333.74C135.603 332.816 135.911 331.57 135.911 330.002C135.911 328.434 135.603 327.188 134.987 326.264C134.329 325.284 133.419 324.808 132.257 324.808ZM132.257 326.194C133.041 326.194 133.601 326.628 133.937 327.524C134.161 328.126 134.273 328.952 134.273 330.002C134.273 331.038 134.161 331.864 133.937 332.48C133.601 333.362 133.041 333.81 132.257 333.81C131.459 333.81 130.899 333.362 130.577 332.48C130.353 331.864 130.241 331.038 130.241 330.002C130.241 328.952 130.353 328.126 130.577 327.524C130.899 326.628 131.459 326.194 132.257 326.194Z" fill="white"/>
<path d="M140.651 324.808C139.475 324.808 138.565 325.284 137.921 326.264C137.305 327.188 136.997 328.434 136.997 330.002C136.997 331.57 137.305 332.816 137.921 333.74C138.565 334.706 139.475 335.196 140.651 335.196C141.813 335.196 142.723 334.706 143.381 333.74C143.997 332.816 144.305 331.57 144.305 330.002C144.305 328.434 143.997 327.188 143.381 326.264C142.723 325.284 141.813 324.808 140.651 324.808ZM140.651 326.194C141.435 326.194 141.995 326.628 142.331 327.524C142.555 328.126 142.667 328.952 142.667 330.002C142.667 331.038 142.555 331.864 142.331 332.48C141.995 333.362 141.435 333.81 140.651 333.81C139.853 333.81 139.293 333.362 138.971 332.48C138.747 331.864 138.635 331.038 138.635 330.002C138.635 328.952 138.747 328.126 138.971 327.524C139.293 326.628 139.853 326.194 140.651 326.194Z" fill="white"/>
<path d="M149.718 325.004V326.404H152.994V335H154.632V326.404H157.908V325.004H149.718Z" fill="white"/>
<path d="M163.763 325.004V335H165.401V331.164H167.879C170.315 331.164 171.533 330.128 171.533 328.07C171.533 326.026 170.315 325.004 167.907 325.004H163.763ZM165.401 326.404H167.781C168.495 326.404 169.027 326.53 169.363 326.796C169.699 327.048 169.881 327.468 169.881 328.07C169.881 328.672 169.713 329.106 169.377 329.372C169.041 329.624 168.509 329.764 167.781 329.764H165.401V326.404Z" fill="white"/>
<path d="M176.157 327.566C175.051 327.566 174.169 327.916 173.511 328.644C172.839 329.358 172.517 330.268 172.517 331.388C172.517 332.494 172.839 333.404 173.497 334.104C174.169 334.832 175.051 335.196 176.157 335.196C177.249 335.196 178.145 334.832 178.817 334.104C179.461 333.404 179.797 332.494 179.797 331.388C179.797 330.268 179.461 329.358 178.803 328.644C178.131 327.916 177.249 327.566 176.157 327.566ZM176.157 328.868C176.815 328.868 177.333 329.12 177.697 329.652C178.005 330.1 178.173 330.688 178.173 331.388C178.173 332.074 178.005 332.648 177.697 333.11C177.333 333.628 176.815 333.894 176.157 333.894C175.485 333.894 174.981 333.628 174.617 333.11C174.309 332.662 174.155 332.088 174.155 331.388C174.155 330.688 174.309 330.1 174.617 329.652C174.981 329.12 175.485 328.868 176.157 328.868Z" fill="white"/>
<path d="M182.27 324.808C181.962 324.808 181.71 324.906 181.5 325.102C181.29 325.298 181.192 325.55 181.192 325.858C181.192 326.166 181.29 326.418 181.5 326.628C181.71 326.824 181.962 326.922 182.27 326.922C182.578 326.922 182.83 326.824 183.04 326.628C183.25 326.432 183.362 326.166 183.362 325.858C183.362 325.55 183.25 325.298 183.054 325.102C182.844 324.906 182.578 324.808 182.27 324.808ZM181.472 327.762V335H183.068V327.762H181.472Z" fill="white"/>
<path d="M188.785 327.566C188.351 327.566 187.959 327.65 187.595 327.832C187.245 328 186.923 328.266 186.643 328.602V327.762H185.047V335H186.643V330.646C186.699 330.072 186.895 329.624 187.231 329.316C187.525 329.036 187.875 328.896 188.267 328.896C189.359 328.896 189.905 329.484 189.905 330.674V335H191.501V330.534C191.501 328.546 190.591 327.566 188.785 327.566Z" fill="white"/>
<path d="M195.45 325.424L193.854 326.082V327.762H192.552V329.078H193.854V333.166C193.854 333.754 193.994 334.188 194.274 334.496C194.568 334.832 195.03 335 195.66 335H196.878V333.684H195.926C195.758 333.684 195.646 333.642 195.562 333.558C195.478 333.46 195.45 333.334 195.45 333.166V329.078H197.06V327.762H195.45V325.424Z" fill="white"/>
<path d="M200.984 327.566C200.088 327.566 199.374 327.748 198.828 328.14C198.268 328.504 198.002 329.022 198.002 329.694C198.002 330.324 198.282 330.814 198.842 331.164C199.192 331.388 199.794 331.598 200.648 331.794C201.376 331.962 201.852 332.088 202.076 332.2C202.496 332.396 202.706 332.662 202.706 332.998C202.706 333.586 202.146 333.894 201.026 333.894C200.494 333.894 200.116 333.796 199.878 333.628C199.64 333.432 199.472 333.11 199.388 332.648H197.834C197.988 334.342 199.066 335.196 201.082 335.196C203.252 335.196 204.344 334.426 204.344 332.886C204.344 332.242 204.05 331.724 203.476 331.36C203.084 331.094 202.468 330.87 201.656 330.674C200.928 330.492 200.452 330.352 200.214 330.254C199.822 330.086 199.64 329.876 199.64 329.652C199.64 329.372 199.752 329.176 200.004 329.05C200.214 328.924 200.536 328.868 200.956 328.868C201.446 328.868 201.81 328.938 202.048 329.092C202.272 329.232 202.44 329.498 202.552 329.862H204.106C203.938 328.322 202.888 327.566 200.984 327.566Z" fill="white"/>
<path d="M205.344 323.422C205.918 324.388 206.365 325.354 206.688 326.32C207.093 327.524 207.303 328.742 207.303 329.96C207.303 331.164 207.093 332.382 206.688 333.6C206.365 334.552 205.918 335.518 205.344 336.498H206.674C207.332 335.574 207.85 334.622 208.214 333.642C208.634 332.466 208.857 331.234 208.857 329.974C208.857 328.686 208.634 327.468 208.214 326.292C207.85 325.284 207.332 324.332 206.674 323.422H205.344Z" fill="white"/>
</g>
<path d="M110.078 226.837L114.29 227.969L110.658 251.504C110.324 253.666 108.464 255.261 106.276 255.261C103.214 255.261 101.074 252.232 102.097 249.346L110.078 226.837Z" fill="#284273"/>
<path d="M189.259 225.837L185.046 226.969L188.679 250.504C189.013 252.666 190.873 254.261 193.061 254.261C196.122 254.261 198.263 251.232 197.239 248.346L189.259 225.837Z" fill="#284273"/>
<path d="M190.864 130.427L191.834 130.427C199.787 130.427 206.588 136.145 207.955 143.979L211.727 165.609" stroke="#80A4DA" stroke-width="2.45455" stroke-linecap="round"/>
<path d="M48.0272 218.096C47.0063 228.26 54.9868 237.082 65.2018 237.082H224.798C235.013 237.082 242.994 228.26 241.973 218.096L234.74 146.085C233.362 132.364 221.814 121.918 208.024 121.918H81.9762C68.1862 121.918 56.6383 132.364 55.2602 146.085L48.0272 218.096Z" fill="#698FC8" stroke="#5F83BA" stroke-width="3.83578"/>
<path d="M73.52 219.032H62.48V225.896H64.176V225.288H71.824V225.896H73.52V219.032ZM64.176 223.688V220.632H71.824V223.688H64.176ZM61.472 217.608C65.552 217.464 69.264 217.24 72.592 216.936C72.96 217.544 73.328 218.168 73.68 218.824L75.312 218.024C74.16 216.088 72.96 214.328 71.68 212.728L70.16 213.448C70.656 214.072 71.152 214.744 71.632 215.448C69.168 215.672 66.64 215.848 64.048 215.976C65.36 214.76 66.624 213.288 67.856 211.592L66.128 210.984C63.952 214.168 62.288 215.848 61.168 216.024L61.472 217.608Z" fill="white"/>
<path d="M86.112 221.832H93.312V218.776H84.624V219.96H91.824V220.632H84.784L84.336 223.768H92.336C92.336 224.024 92.304 224.232 92.24 224.376C92.176 224.504 91.984 224.584 91.664 224.584C90.928 224.584 90.128 224.552 89.264 224.52L89.616 225.832C90.352 225.864 91.12 225.88 91.92 225.88C92.752 225.864 93.296 225.656 93.52 225.272C93.744 224.856 93.872 223.928 93.872 222.488H86L86.112 221.832ZM81.12 211.224L80.048 212.248C81.04 213.08 81.808 213.848 82.336 214.568L83.424 213.48C82.784 212.728 82.016 211.976 81.12 211.224ZM80.896 214.984L79.824 216.024C80.88 216.872 81.696 217.656 82.272 218.392L83.36 217.32C82.688 216.536 81.856 215.752 80.896 214.984ZM82.208 219.432C81.536 221.336 80.752 223.208 79.856 225.032L81.36 225.688C82.192 223.912 82.928 222.024 83.6 220.008L82.208 219.432ZM86.912 211.96V213.016H90.768V211.96H89.488C89.408 211.608 89.312 211.288 89.216 211L87.84 211.224C87.936 211.448 88.032 211.688 88.128 211.96H86.912ZM87.408 213.416V214.296H90.288V213.416H87.408ZM87.408 214.648V215.528H90.272V214.648H87.408ZM87.28 215.912V218.344H90.416V215.912H87.28ZM89.344 217.48H88.352V216.712H89.344V217.48ZM83.648 216.456C83.568 217.096 83.44 217.704 83.264 218.28L84.224 218.616C84.368 217.992 84.464 217.352 84.512 216.68L83.648 216.456ZM85.6 216.552L84.784 216.648C84.816 217.08 84.848 217.688 84.864 218.488L85.84 218.36C85.792 217.592 85.712 217 85.6 216.552ZM86.736 216.408L85.936 216.632C86.08 217.176 86.208 217.72 86.32 218.28L87.184 217.96C87.072 217.48 86.928 216.968 86.736 216.408ZM86.544 214.024L85.712 214.28C86.032 213.832 86.416 213.272 86.864 212.6L85.808 212.216C85.632 212.504 85.456 212.776 85.296 213.064L84.64 213.128C85.024 212.68 85.376 212.12 85.696 211.416L84.64 211.096C84.304 212.024 83.904 212.728 83.456 213.208L83.68 214.072C84.032 214.04 84.368 213.992 84.704 213.96C84.112 214.792 83.664 215.256 83.376 215.352L83.584 216.28C84.528 216.152 85.376 216.024 86.144 215.896C86.176 216.024 86.224 216.168 86.256 216.328L87.216 216.088C87.008 215.304 86.784 214.616 86.544 214.024ZM85.648 214.36C85.712 214.552 85.792 214.76 85.872 215L85.024 215.144C85.2 214.936 85.408 214.68 85.648 214.36ZM93.808 213.88L93.2 214.072C93.504 213.672 93.856 213.192 94.256 212.616L93.216 212.232C93.024 212.52 92.848 212.792 92.672 213.048C92.448 213.08 92.208 213.096 91.968 213.128C92.368 212.68 92.72 212.12 93.024 211.432L91.968 211.128C91.632 212.024 91.232 212.728 90.784 213.224L91.008 214.088L92 213.992C91.392 214.776 90.944 215.224 90.64 215.32L90.864 216.248C91.84 216.136 92.72 216.008 93.488 215.88C93.52 215.976 93.552 216.104 93.584 216.248L94.528 216.008C94.32 215.208 94.08 214.488 93.808 213.88ZM92.976 214.36C93.056 214.552 93.136 214.76 93.216 214.984C92.928 215.048 92.608 215.096 92.272 215.16C92.464 214.952 92.704 214.68 92.976 214.36ZM90.976 216.424C90.912 217.064 90.8 217.672 90.64 218.232L91.6 218.568C91.712 217.944 91.792 217.304 91.84 216.648L90.976 216.424ZM92.912 216.504L92.096 216.6C92.16 217.032 92.208 217.64 92.24 218.44L93.216 218.312C93.168 217.544 93.072 216.952 92.912 216.504ZM94.048 216.312L93.248 216.536C93.44 217.08 93.6 217.624 93.728 218.184L94.592 217.864C94.464 217.384 94.288 216.872 94.048 216.312Z" fill="white"/>
<path d="M99.312 215.08V216.712H105.088C104.224 220.376 102.176 223 98.944 224.568L100.016 225.976C103.216 224.296 105.36 221.672 106.448 218.104C107.664 221.4 109.792 223.976 112.8 225.832L113.856 224.456C110.736 222.632 108.608 220.056 107.456 216.712H113.488V215.08H107.072C107.184 214.152 107.248 213.16 107.248 212.12V211.064H105.552V212.504C105.536 213.4 105.472 214.248 105.376 215.08H99.312Z" fill="white"/>
<path d="M119.808 214.712V221.32H124.816V222.296H118.448V223.896H124.816V225.88H126.512V223.896H132.752V222.296H126.512V221.32H131.424V214.712H126.512V213.768H132.528V212.2H126.512V211.032H124.816V212.2H118.672V213.768H124.816V214.712H119.808ZM129.808 219.784H126.512V218.76H129.808V219.784ZM124.816 219.784H121.424V218.76H124.816V219.784ZM121.424 217.272V216.232H124.816V217.272H121.424ZM126.512 216.232H129.808V217.272H126.512V216.232Z" fill="white"/>
<path d="M142.832 212.984V214.584H145.968C145.072 215.416 143.808 216.104 142.144 216.68L143.008 218.104C143.984 217.688 144.864 217.224 145.632 216.712C145.792 216.872 145.936 217.064 146.08 217.272C145.232 218.168 144.112 218.904 142.736 219.512L143.552 220.936C144.832 220.312 145.904 219.528 146.752 218.584C146.864 218.856 146.96 219.16 147.056 219.48C145.872 220.792 144.224 221.928 142.128 222.888L143.088 224.312C144.704 223.512 146.128 222.504 147.344 221.288C147.36 221.592 147.376 221.912 147.376 222.264C147.376 223.224 147.264 223.8 147.072 224.024C146.848 224.216 146.528 224.328 146.08 224.328H144.864L145.36 225.832C145.648 225.832 145.904 225.816 146.144 225.816C147.168 225.768 147.904 225.576 148.352 225.24C148.768 224.888 148.992 223.896 148.992 222.264C148.992 221.928 148.976 221.592 148.96 221.272C149.648 222.344 150.496 223.304 151.488 224.152L152.336 222.696C150.912 221.656 149.76 220.408 148.88 218.936C149.424 218.552 149.872 218.184 150.224 217.832C150.704 217.368 151.184 216.76 151.664 216.024L150.272 215.176C149.888 215.816 149.472 216.376 149.056 216.824C148.768 217.112 148.464 217.384 148.144 217.608C147.824 216.888 147.408 216.264 146.896 215.72C147.28 215.368 147.616 214.984 147.936 214.584H151.76V212.984H149.744C150 212.552 150.256 212.088 150.48 211.576L148.912 211.016C148.656 211.704 148.384 212.36 148.064 212.984H146.384C146.144 212.232 145.872 211.576 145.584 211L144.016 211.592C144.288 212.024 144.528 212.488 144.736 212.984H142.832ZM137.888 211.56V225.72H139.552V221.272L139.984 222.632C141.056 222.616 141.808 222.376 142.256 221.912C142.544 221.56 142.688 220.968 142.688 220.104C142.624 219.112 142.224 217.944 141.504 216.6C141.936 215.288 142.32 214.024 142.64 212.808V211.56H137.888ZM139.552 220.984V213.064H141.024C140.736 214.184 140.352 215.448 139.872 216.84C140.672 218.056 141.072 219.144 141.072 220.104C141.072 220.44 141.024 220.68 140.928 220.808C140.816 220.936 140.624 221.032 140.336 221.064C140.128 221.064 139.872 221.032 139.552 220.984Z" fill="white"/>
<path d="M157.008 221.624C156.928 223 156.736 224.232 156.448 225.288L157.712 225.688C157.984 224.552 158.16 223.256 158.24 221.784L157.008 221.624ZM159.712 221.496L158.56 221.752C158.72 222.712 158.864 223.8 158.976 225.048L160.272 224.744C160.112 223.576 159.92 222.488 159.712 221.496ZM160.768 217.416L159.712 217.768C160.256 216.792 160.864 215.576 161.552 214.104L160.176 213.592C159.888 214.264 159.6 214.888 159.344 215.48C158.992 215.544 158.64 215.592 158.288 215.656C158.928 214.584 159.568 213.224 160.208 211.592L158.672 210.984C158.256 212.504 157.76 213.896 157.2 215.176C157.008 215.464 156.768 215.656 156.512 215.768L156.928 217.224C157.52 217.112 158.096 217 158.656 216.904C158.112 217.944 157.664 218.68 157.312 219.112C157.12 219.304 156.88 219.448 156.608 219.56L157.008 221C158.016 220.856 159.088 220.568 160.208 220.152C160.256 220.376 160.304 220.616 160.352 220.872L161.552 220.568C161.312 219.368 161.056 218.312 160.768 217.416ZM159.648 217.896C159.744 218.232 159.84 218.584 159.936 218.968C159.552 219.096 159.152 219.208 158.752 219.304C159.024 218.92 159.328 218.44 159.648 217.896ZM161.152 221.048L160.08 221.416C160.368 222.152 160.656 223.016 160.912 224.008L162.032 223.496C161.776 222.616 161.472 221.8 161.152 221.048ZM166.64 211.512V225.72H168.176V213.016H169.52C169.168 214.68 168.784 216.104 168.4 217.304C169.456 218.984 170 220.344 170.016 221.384C170.016 221.784 170 222.04 169.968 222.136C169.92 222.264 169.84 222.344 169.728 222.36C169.344 222.36 168.88 222.328 168.336 222.28L168.8 223.816C169.888 223.816 170.608 223.624 170.976 223.272C171.312 222.92 171.488 222.296 171.488 221.384C171.472 220.328 170.96 218.968 169.968 217.304C170.384 215.896 170.784 214.376 171.136 212.744V211.512H166.64ZM162.016 216.12V217.592H163.312V219.016C163.312 219.16 163.296 219.32 163.296 219.496H161.872V220.968H163.168C162.896 222.648 162.272 223.928 161.312 224.824L162.528 225.912C163.728 224.776 164.48 223.128 164.784 220.968H166.24V219.496H164.896C164.896 219.336 164.912 219.176 164.912 219.016V217.592H166.048V216.12H164.912V214.264C165.52 214.136 166.032 213.992 166.448 213.832L165.936 212.424C165.648 212.568 165.296 212.696 164.912 212.808V211.096H163.312V213.144C162.768 213.208 162.176 213.272 161.536 213.304L161.936 214.664L163.312 214.52V216.12H162.016Z" fill="white"/>
<path d="M181.568 211.096V216.376H176.016V218.008H181.568V225.864H183.264V220.984C184.512 221.576 186.064 222.424 187.904 223.544L188.864 222.12C186.96 221.064 185.088 220.136 183.264 219.336V218.008H190.368V216.376H183.264V214.456H188.304V212.856H183.264V211.096H181.568Z" fill="white"/>
<path d="M195.264 212.792V214.376H209.552V212.792H203.376C203.104 212.12 202.816 211.496 202.528 210.936L200.656 211.256C200.976 211.736 201.264 212.248 201.52 212.792H195.264ZM205.088 214.472L203.952 215.56C205.84 217.08 207.312 218.488 208.336 219.8L209.568 218.552C208.352 217.192 206.848 215.832 205.088 214.472ZM204.848 217.496C204.208 218.712 203.392 219.784 202.4 220.728C201.36 219.816 200.528 218.776 199.888 217.592L198.448 218.408C199.152 219.672 200.048 220.808 201.104 221.8C199.472 222.952 197.472 223.832 195.104 224.408L196.144 225.944C198.608 225.304 200.704 224.312 202.464 222.936C204.176 224.216 206.272 225.208 208.736 225.896L209.776 224.328C207.408 223.736 205.392 222.888 203.76 221.784C204.784 220.76 205.664 219.56 206.384 218.184L204.848 217.496ZM199.6 214.488C198.416 215.944 196.944 217.208 195.216 218.296L196.288 219.704C198.08 218.52 199.6 217.144 200.816 215.544L199.6 214.488Z" fill="white"/>
<path d="M218.464 217.576C217.6 218.536 216.304 219.352 214.592 219.992L215.504 221.464C216.448 221.016 217.296 220.52 218.064 219.976H219.984C218.992 221.064 217.472 221.976 215.424 222.696L216.48 223.992C218.912 223.016 220.688 221.672 221.808 219.976H223.36C222.144 222.152 220.24 223.64 217.648 224.44L218.592 225.848C221.536 224.888 223.712 222.92 225.088 219.976H226.224C226.16 221.736 226.016 222.888 225.792 223.432C225.568 223.944 225.12 224.216 224.432 224.216C223.824 224.216 223.184 224.184 222.528 224.136L222.944 225.704H225.232C226 225.672 226.544 225.448 226.88 225.032C227.216 224.6 227.472 223.848 227.632 222.776C227.776 221.688 227.872 220.264 227.92 218.504H219.696C219.952 218.216 220.192 217.896 220.416 217.576H226.704V211.544H216.576V217.576H218.464ZM225.056 216.168H218.224V215.208H225.056V216.168ZM218.224 213.896V212.952H225.056V213.896H218.224Z" fill="white"/>
<path d="M122.84 196H109.967V155.02L97.3223 158.714V148.964L121.659 140.547H122.84V196Z" fill="#FFC232"/>
<path d="M140.321 168.883L143.711 140.547H176.122V150.525H154.146L152.89 161.532C153.804 160.999 154.997 160.529 156.47 160.123C157.968 159.717 159.428 159.514 160.85 159.514C166.359 159.514 170.587 161.151 173.532 164.427C176.503 167.677 177.988 172.247 177.988 178.138C177.988 181.692 177.188 184.917 175.589 187.812C174.015 190.681 171.793 192.89 168.924 194.438C166.055 195.987 162.665 196.762 158.755 196.762C155.276 196.762 152.014 196.051 148.967 194.629C145.92 193.182 143.533 191.214 141.807 188.726C140.08 186.212 139.229 183.381 139.255 180.232H152.128C152.255 182.264 152.902 183.876 154.07 185.069C155.238 186.263 156.774 186.859 158.679 186.859C162.995 186.859 165.153 183.66 165.153 177.262C165.153 171.346 162.513 168.388 157.231 168.388C154.235 168.388 152.001 169.353 150.528 171.282L140.321 168.883Z" fill="#FFC232"/>
<path d="M84.36 147.162H77.576V146.506H84.36V147.162ZM84.36 148.986H77.576V148.314H84.36V148.986ZM86.264 145.29H75.752V150.202H86.264V145.29ZM85.352 154.346C85.064 154.922 84.696 155.45 84.264 155.914C83.832 155.45 83.464 154.922 83.192 154.346H85.352ZM76.872 156.25H78.952V156.874C78.248 156.938 77.544 156.986 76.872 157.034V156.25ZM76.872 154.266H78.952V154.938H76.872V154.266ZM78.952 152.298V152.938H76.872V152.298H78.952ZM86.472 152.826L86.152 152.89H81.176V154.346H82.648L81.592 154.634C81.976 155.514 82.472 156.314 83.048 157.002C82.376 157.498 81.592 157.882 80.776 158.154V152.298H88.104V150.794H73.88V152.298H75.128V157.162C74.632 157.21 74.152 157.226 73.736 157.258L73.88 158.89C75.288 158.762 77.112 158.602 78.952 158.426V159.722H80.776V158.426C81.096 158.81 81.448 159.338 81.624 159.706C82.616 159.338 83.528 158.842 84.344 158.218C85.192 158.874 86.184 159.37 87.32 159.706C87.576 159.258 88.072 158.57 88.44 158.218C87.384 157.962 86.424 157.562 85.624 157.034C86.52 156.026 87.208 154.778 87.64 153.274L86.472 152.826Z" fill="#FFC232"/>
<path d="M82.36 192.13H79.592V191.09H82.36V192.13ZM87.48 187.522H74.648V194.722H76.504V189.106H85.56V192.674C85.56 192.866 85.496 192.914 85.256 192.93C85.08 192.946 84.584 192.946 84.04 192.93V189.826H77.928V194.13H79.592V193.41H83.72C83.896 193.826 84.04 194.322 84.088 194.69C85.24 194.69 86.088 194.674 86.68 194.386C87.304 194.098 87.48 193.586 87.48 192.706V187.522ZM83.432 185.57H78.44V184.594H83.432V185.57ZM76.632 183.33V186.85H85.368V183.33H76.632ZM81.864 181.106V179.762H79.928V181.106H74.008V182.722H87.992V181.106H81.864Z" fill="#FFC232"/>
<path d="M187.796 177.967C187.796 176.649 188.226 175.584 189.085 174.774C189.945 173.963 191.097 173.558 192.542 173.558C194.007 173.558 195.165 173.963 196.014 174.774C196.864 175.575 197.289 176.664 197.289 178.041V179.095C197.289 180.414 196.864 181.473 196.014 182.274C195.165 183.075 194.017 183.475 192.572 183.475C191.136 183.475 189.979 183.08 189.1 182.289C188.231 181.488 187.796 180.394 187.796 179.007V177.967ZM190.975 179.095C190.975 179.603 191.117 180.018 191.4 180.34C191.683 180.653 192.074 180.809 192.572 180.809C193.597 180.809 194.11 180.155 194.11 178.846V177.967C194.11 177.459 193.973 177.044 193.7 176.722C193.426 176.39 193.041 176.224 192.542 176.224C192.064 176.224 191.683 176.385 191.4 176.708C191.117 177.02 190.975 177.45 190.975 177.997V179.095ZM197.933 189.964C197.933 188.636 198.363 187.572 199.222 186.771C200.091 185.97 201.244 185.57 202.679 185.57C204.134 185.57 205.292 185.965 206.151 186.756C207.01 187.547 207.44 188.651 207.44 190.067V191.092C207.44 192.42 207.015 193.485 206.166 194.286C205.316 195.086 204.164 195.487 202.708 195.487C201.273 195.487 200.116 195.091 199.237 194.3C198.368 193.5 197.933 192.406 197.933 191.019V189.964ZM201.097 191.092C201.097 191.551 201.253 191.957 201.566 192.308C201.878 192.65 202.259 192.821 202.708 192.821C203.656 192.821 204.168 192.372 204.247 191.473L204.261 189.964C204.261 189.447 204.12 189.032 203.836 188.719C203.553 188.397 203.167 188.236 202.679 188.236C202.21 188.236 201.834 188.387 201.551 188.69C201.268 188.983 201.117 189.383 201.097 189.891V191.092ZM193.509 193.597L191.209 192.44L201.625 175.77L203.924 176.927L193.509 193.597Z" fill="#FFC232"/>
<circle cx="201.119" cy="151.525" r="14.575" fill="#FFC232" stroke="black" stroke-width="1.21716"/>
<line x1="196.984" y1="138.52" x2="207.786" y2="138.52" stroke="black" stroke-width="1.21716"/>
<line x1="197.681" y1="141.657" x2="212.317" y2="141.657" stroke="black" stroke-width="1.21716"/>
<line x1="197.681" y1="145.142" x2="214.408" y2="145.142" stroke="black" stroke-width="1.21716"/>
<line x1="197.332" y1="148.626" x2="215.453" y2="148.626" stroke="black" stroke-width="1.21716"/>
<line x1="197.332" y1="152.111" x2="215.801" y2="152.111" stroke="black" stroke-width="1.21716"/>
<line x1="196.984" y1="155.596" x2="215.453" y2="155.596" stroke="black" stroke-width="1.21716"/>
<line x1="196.635" y1="159.081" x2="213.711" y2="159.081" stroke="black" stroke-width="1.21716"/>
<circle cx="198.576" cy="152.919" r="14.575" fill="#FFC232" stroke="black" stroke-width="1.21716"/>
<path d="M204.698 146.525V145.714H203.886H192.708H191.897V146.525V149.115V149.927H192.708H195.967V160.021V160.833H196.778H199.816H200.628V160.021V149.927H203.886H204.698V149.115V146.525Z" fill="white" stroke="black" stroke-width="1.62288" stroke-linecap="round"/>
<rect x="68" y="58" width="157.909" height="48.2727" rx="24.1364" fill="#4BC2CB"/>
<path d="M74.5 81.109V81.109C74.5 70.942 82.742 62.7 92.9091 62.7H97.8182" stroke="#87D9DB" stroke-width="2.45455" stroke-linecap="round"/>
<mask id="path-31-outside-1" maskUnits="userSpaceOnUse" x="81.252" y="70.61" width="133" height="25" fill="black">
<rect fill="white" x="81.252" y="70.61" width="133" height="25"/>
<path d="M93.928 85.41C93.406 85.698 92.938 85.968 92.542 86.166L93.442 87.876C94.72 87.084 96.25 86.058 97.654 85.104L97.06 83.574L95.818 84.312V79.398H97.114C97.276 81.54 97.564 83.502 97.996 85.068C97.276 85.968 96.466 86.724 95.566 87.282C95.98 87.624 96.574 88.308 96.844 88.758C97.528 88.29 98.158 87.714 98.752 87.048C99.238 87.984 99.868 88.524 100.624 88.524C101.92 88.524 102.46 87.858 102.73 85.374C102.262 85.176 101.668 84.762 101.29 84.33C101.236 85.878 101.092 86.58 100.84 86.58C100.552 86.58 100.282 86.13 100.012 85.356C100.912 83.952 101.632 82.314 102.136 80.55L100.498 80.118C100.228 81.036 99.868 81.954 99.436 82.8C99.274 81.792 99.13 80.64 99.04 79.398H102.334V77.616H100.858L102.136 76.914C101.848 76.338 101.164 75.474 100.588 74.844L99.148 75.6C99.67 76.194 100.246 77.022 100.534 77.616H98.932C98.896 76.68 98.878 75.726 98.878 74.772H96.898C96.916 75.726 96.952 76.68 96.988 77.616H93.928V85.41ZM91.138 85.77H93.28V83.916H91.138V81.918H93.514V80.046H90.814V78.534H93.244V76.662H90.814V74.772H88.852V76.662H86.35V78.534H88.852V80.046H85.738V81.918H89.212V87.084C88.816 86.58 88.492 85.95 88.222 85.158C88.24 84.456 88.24 83.754 88.222 83.07L86.422 82.962C86.512 85.392 86.404 88.182 85.252 90.216C85.684 90.432 86.368 91.08 86.638 91.512C87.232 90.54 87.61 89.424 87.862 88.272C89.392 90.612 91.714 91.098 95.26 91.098H101.776C101.92 90.468 102.262 89.478 102.604 88.992C101.074 89.046 96.556 89.046 95.278 89.046C93.604 89.046 92.236 88.938 91.138 88.506V85.77Z"/>
<path d="M116.878 87.534V89.226H112.414V87.534H116.878ZM110.488 91.566H112.414V90.918H116.878V91.494H118.894V85.842H110.488V91.566ZM112.684 83.07C113.458 82.35 114.124 81.594 114.574 80.892C115.078 81.612 115.798 82.368 116.59 83.07H112.684ZM113.53 79.056C113.458 79.164 113.386 79.29 113.314 79.416V78.21H116.05V79.65H118.066V78.21H120.172V76.392H118.066V74.772H116.05V76.392H113.314V74.772H111.334V76.392H109.336V78.21H111.334V79.596H113.188C112.324 80.856 110.92 82.206 109.408 83.124L109.246 81.99L107.932 82.35V80.118H109.318V78.156H107.932V74.772H105.88V78.156H103.792V80.118H105.88V82.908C104.962 83.16 104.116 83.376 103.432 83.52L103.882 85.59C104.494 85.41 105.178 85.212 105.88 85.014V89.136C105.88 89.406 105.79 89.478 105.574 89.478C105.34 89.496 104.602 89.496 103.9 89.46C104.17 90.054 104.44 90.972 104.494 91.548C105.736 91.548 106.582 91.476 107.176 91.116C107.752 90.792 107.932 90.216 107.932 89.154V84.384L108.85 84.096C109.12 84.492 109.354 84.978 109.498 85.32C110.326 84.906 111.118 84.384 111.856 83.79V84.762H117.436V83.754C118.12 84.294 118.84 84.744 119.542 85.104C119.83 84.492 120.244 83.718 120.658 83.232C118.714 82.476 116.77 80.874 115.474 79.056H113.53Z"/>
<path d="M129.928 85.41C129.406 85.698 128.938 85.968 128.542 86.166L129.442 87.876C130.72 87.084 132.25 86.058 133.654 85.104L133.06 83.574L131.818 84.312V79.398H133.114C133.276 81.54 133.564 83.502 133.996 85.068C133.276 85.968 132.466 86.724 131.566 87.282C131.98 87.624 132.574 88.308 132.844 88.758C133.528 88.29 134.158 87.714 134.752 87.048C135.238 87.984 135.868 88.524 136.624 88.524C137.92 88.524 138.46 87.858 138.73 85.374C138.262 85.176 137.668 84.762 137.29 84.33C137.236 85.878 137.092 86.58 136.84 86.58C136.552 86.58 136.282 86.13 136.012 85.356C136.912 83.952 137.632 82.314 138.136 80.55L136.498 80.118C136.228 81.036 135.868 81.954 135.436 82.8C135.274 81.792 135.13 80.64 135.04 79.398H138.334V77.616H136.858L138.136 76.914C137.848 76.338 137.164 75.474 136.588 74.844L135.148 75.6C135.67 76.194 136.246 77.022 136.534 77.616H134.932C134.896 76.68 134.878 75.726 134.878 74.772H132.898C132.916 75.726 132.952 76.68 132.988 77.616H129.928V85.41ZM127.138 85.77H129.28V83.916H127.138V81.918H129.514V80.046H126.814V78.534H129.244V76.662H126.814V74.772H124.852V76.662H122.35V78.534H124.852V80.046H121.738V81.918H125.212V87.084C124.816 86.58 124.492 85.95 124.222 85.158C124.24 84.456 124.24 83.754 124.222 83.07L122.422 82.962C122.512 85.392 122.404 88.182 121.252 90.216C121.684 90.432 122.368 91.08 122.638 91.512C123.232 90.54 123.61 89.424 123.862 88.272C125.392 90.612 127.714 91.098 131.26 91.098H137.776C137.92 90.468 138.262 89.478 138.604 88.992C137.074 89.046 132.556 89.046 131.278 89.046C129.604 89.046 128.236 88.938 127.138 88.506V85.77Z"/>
<path d="M143.482 75.546C142.654 76.824 141.196 78.084 139.738 78.84C140.206 79.2 141.016 79.956 141.412 80.334C142.888 79.38 144.544 77.832 145.552 76.212L143.482 75.546ZM151.942 84.69H145.3V83.844H151.942V84.69ZM145.3 89.388V88.506H151.942V89.388H145.3ZM145.3 86.13H151.942V87.048H145.3V86.13ZM151.15 78.048C150.502 78.804 149.62 79.452 148.594 79.992C148.954 79.704 149.08 79.272 149.08 78.552V74.754H146.92V78.48C146.92 78.714 146.83 78.768 146.524 78.768C146.218 78.786 145.084 78.786 144.148 78.732C144.472 79.218 144.868 80.01 145.012 80.568C146.308 80.568 147.28 80.55 148.054 80.262L148.09 80.244C145.732 81.396 142.654 82.098 139.504 82.476C139.9 82.926 140.548 83.844 140.818 84.33C141.628 84.204 142.42 84.042 143.23 83.862V91.584H145.3V90.972H151.942V91.494H154.12V82.242H148.36C150.286 81.414 151.978 80.334 153.202 78.966L151.15 78.048ZM150.772 76.428C152.158 77.454 153.796 78.93 154.498 79.938L156.352 78.768C155.542 77.742 153.868 76.338 152.5 75.384L150.772 76.428Z"/>
<path d="M162.634 80.298C162.418 82.134 162.076 83.754 161.554 85.158C161.104 84.834 160.654 84.528 160.222 84.258C160.51 82.998 160.798 81.666 161.086 80.298H162.634ZM163.48 78.282L163.12 78.336H161.5C161.734 77.166 161.95 76.014 162.13 74.952L160.114 74.772C159.952 75.87 159.736 77.094 159.502 78.336H157.72V80.298H159.124C158.692 82.386 158.242 84.402 157.828 85.878L159.592 86.796L159.736 86.238C160.06 86.472 160.384 86.724 160.708 86.976C159.952 88.29 158.98 89.298 157.774 89.928C158.206 90.324 158.764 91.08 159.052 91.62C160.384 90.792 161.464 89.73 162.328 88.326C162.976 88.938 163.534 89.532 163.912 90.036L165.208 88.308C164.758 87.732 164.056 87.084 163.264 86.436C164.092 84.366 164.578 81.756 164.776 78.48L163.48 78.282ZM174.424 81.882H170.464V80.856C171.724 79.668 173.056 77.994 174.01 76.59L172.606 75.546L172.174 75.654H165.136V77.634H170.734C170.23 78.39 169.6 79.182 169.006 79.794H168.34V81.882H164.542V83.898H168.34V89.154C168.34 89.406 168.25 89.478 167.944 89.478C167.656 89.496 166.702 89.478 165.784 89.442C166.09 90.036 166.45 90.954 166.558 91.548C167.872 91.566 168.844 91.494 169.564 91.152C170.266 90.828 170.464 90.252 170.464 89.172V83.898H174.424V81.882Z"/>
<path d="M184.324 77.31C183.802 76.59 182.668 75.582 181.75 74.88L180.346 76.05C181.21 76.788 182.326 77.886 182.812 78.588L184.324 77.31ZM182.776 81.414C182.272 82.602 181.624 83.736 180.886 84.78C180.634 83.718 180.418 82.548 180.256 81.27L185.566 80.676L185.368 78.66L180.04 79.254C179.932 77.814 179.878 76.284 179.896 74.772H177.7C177.718 76.356 177.772 77.94 177.916 79.488L175.504 79.74L175.702 81.774L178.114 81.504C178.366 83.43 178.726 85.23 179.176 86.76C178.096 87.84 176.836 88.758 175.504 89.478C175.954 89.874 176.71 90.702 176.998 91.152C178.06 90.522 179.05 89.73 180.004 88.83C180.814 90.432 181.822 91.422 183.082 91.422C184.702 91.422 185.386 90.648 185.728 87.516C185.152 87.318 184.414 86.814 183.964 86.346C183.856 88.452 183.658 89.28 183.244 89.28C182.686 89.28 182.11 88.488 181.588 87.156C182.884 85.644 183.964 83.916 184.792 82.026L182.776 81.414ZM188.212 76.662H186.16V86.562H188.212V76.662ZM189.58 74.934V89.064C189.58 89.37 189.454 89.46 189.13 89.478C188.842 89.478 187.798 89.478 186.808 89.442C187.096 90.036 187.402 90.972 187.474 91.566C189.004 91.566 190.066 91.494 190.75 91.152C191.434 90.81 191.668 90.252 191.668 89.064V74.934H189.58Z"/>
<path d="M200.344 86.958V85.86H204.124V86.958H200.344ZM198.148 83.916H206.14V84.582H198.148V83.916ZM201.496 77.616C201.298 77.814 201.1 77.976 200.884 78.138C201.298 78.318 201.964 78.66 202.45 78.948H198.544L199.732 78.516C199.642 78.264 199.462 77.94 199.264 77.616H201.496ZM205.06 77.616C205.438 78.048 205.798 78.552 206.05 78.948H202.972C203.35 78.57 203.746 78.12 204.106 77.616H205.06ZM198.148 82.044H206.14V82.71H198.148V82.044ZM206.14 80.226V80.856H198.148V80.226H206.14ZM210.136 86.958H206.338V85.86H208.408V78.948H206.806L208.012 78.408C207.886 78.174 207.67 77.904 207.436 77.616H210.082V75.924H205.132C205.258 75.654 205.384 75.366 205.492 75.096L203.458 74.61C203.098 75.6 202.486 76.59 201.748 77.346V75.924H197.77C197.914 75.672 198.04 75.402 198.166 75.15L196.168 74.61C195.592 75.96 194.53 77.328 193.396 78.192C193.9 78.462 194.746 79.038 195.124 79.38C195.646 78.912 196.186 78.3 196.69 77.616H197.068C197.356 78.048 197.626 78.552 197.788 78.948H195.988V85.86H198.184V86.958H193.9V88.65H197.5C196.942 89.172 195.916 89.64 194.134 90C194.62 90.396 195.214 91.116 195.502 91.566C198.31 90.846 199.57 89.802 200.074 88.65H204.124V91.53H206.338V88.65H210.136V86.958Z"/>
</mask>
<path d="M93.928 85.41C93.406 85.698 92.938 85.968 92.542 86.166L93.442 87.876C94.72 87.084 96.25 86.058 97.654 85.104L97.06 83.574L95.818 84.312V79.398H97.114C97.276 81.54 97.564 83.502 97.996 85.068C97.276 85.968 96.466 86.724 95.566 87.282C95.98 87.624 96.574 88.308 96.844 88.758C97.528 88.29 98.158 87.714 98.752 87.048C99.238 87.984 99.868 88.524 100.624 88.524C101.92 88.524 102.46 87.858 102.73 85.374C102.262 85.176 101.668 84.762 101.29 84.33C101.236 85.878 101.092 86.58 100.84 86.58C100.552 86.58 100.282 86.13 100.012 85.356C100.912 83.952 101.632 82.314 102.136 80.55L100.498 80.118C100.228 81.036 99.868 81.954 99.436 82.8C99.274 81.792 99.13 80.64 99.04 79.398H102.334V77.616H100.858L102.136 76.914C101.848 76.338 101.164 75.474 100.588 74.844L99.148 75.6C99.67 76.194 100.246 77.022 100.534 77.616H98.932C98.896 76.68 98.878 75.726 98.878 74.772H96.898C96.916 75.726 96.952 76.68 96.988 77.616H93.928V85.41ZM91.138 85.77H93.28V83.916H91.138V81.918H93.514V80.046H90.814V78.534H93.244V76.662H90.814V74.772H88.852V76.662H86.35V78.534H88.852V80.046H85.738V81.918H89.212V87.084C88.816 86.58 88.492 85.95 88.222 85.158C88.24 84.456 88.24 83.754 88.222 83.07L86.422 82.962C86.512 85.392 86.404 88.182 85.252 90.216C85.684 90.432 86.368 91.08 86.638 91.512C87.232 90.54 87.61 89.424 87.862 88.272C89.392 90.612 91.714 91.098 95.26 91.098H101.776C101.92 90.468 102.262 89.478 102.604 88.992C101.074 89.046 96.556 89.046 95.278 89.046C93.604 89.046 92.236 88.938 91.138 88.506V85.77Z" fill="white"/>
<path d="M116.878 87.534V89.226H112.414V87.534H116.878ZM110.488 91.566H112.414V90.918H116.878V91.494H118.894V85.842H110.488V91.566ZM112.684 83.07C113.458 82.35 114.124 81.594 114.574 80.892C115.078 81.612 115.798 82.368 116.59 83.07H112.684ZM113.53 79.056C113.458 79.164 113.386 79.29 113.314 79.416V78.21H116.05V79.65H118.066V78.21H120.172V76.392H118.066V74.772H116.05V76.392H113.314V74.772H111.334V76.392H109.336V78.21H111.334V79.596H113.188C112.324 80.856 110.92 82.206 109.408 83.124L109.246 81.99L107.932 82.35V80.118H109.318V78.156H107.932V74.772H105.88V78.156H103.792V80.118H105.88V82.908C104.962 83.16 104.116 83.376 103.432 83.52L103.882 85.59C104.494 85.41 105.178 85.212 105.88 85.014V89.136C105.88 89.406 105.79 89.478 105.574 89.478C105.34 89.496 104.602 89.496 103.9 89.46C104.17 90.054 104.44 90.972 104.494 91.548C105.736 91.548 106.582 91.476 107.176 91.116C107.752 90.792 107.932 90.216 107.932 89.154V84.384L108.85 84.096C109.12 84.492 109.354 84.978 109.498 85.32C110.326 84.906 111.118 84.384 111.856 83.79V84.762H117.436V83.754C118.12 84.294 118.84 84.744 119.542 85.104C119.83 84.492 120.244 83.718 120.658 83.232C118.714 82.476 116.77 80.874 115.474 79.056H113.53Z" fill="white"/>
<path d="M129.928 85.41C129.406 85.698 128.938 85.968 128.542 86.166L129.442 87.876C130.72 87.084 132.25 86.058 133.654 85.104L133.06 83.574L131.818 84.312V79.398H133.114C133.276 81.54 133.564 83.502 133.996 85.068C133.276 85.968 132.466 86.724 131.566 87.282C131.98 87.624 132.574 88.308 132.844 88.758C133.528 88.29 134.158 87.714 134.752 87.048C135.238 87.984 135.868 88.524 136.624 88.524C137.92 88.524 138.46 87.858 138.73 85.374C138.262 85.176 137.668 84.762 137.29 84.33C137.236 85.878 137.092 86.58 136.84 86.58C136.552 86.58 136.282 86.13 136.012 85.356C136.912 83.952 137.632 82.314 138.136 80.55L136.498 80.118C136.228 81.036 135.868 81.954 135.436 82.8C135.274 81.792 135.13 80.64 135.04 79.398H138.334V77.616H136.858L138.136 76.914C137.848 76.338 137.164 75.474 136.588 74.844L135.148 75.6C135.67 76.194 136.246 77.022 136.534 77.616H134.932C134.896 76.68 134.878 75.726 134.878 74.772H132.898C132.916 75.726 132.952 76.68 132.988 77.616H129.928V85.41ZM127.138 85.77H129.28V83.916H127.138V81.918H129.514V80.046H126.814V78.534H129.244V76.662H126.814V74.772H124.852V76.662H122.35V78.534H124.852V80.046H121.738V81.918H125.212V87.084C124.816 86.58 124.492 85.95 124.222 85.158C124.24 84.456 124.24 83.754 124.222 83.07L122.422 82.962C122.512 85.392 122.404 88.182 121.252 90.216C121.684 90.432 122.368 91.08 122.638 91.512C123.232 90.54 123.61 89.424 123.862 88.272C125.392 90.612 127.714 91.098 131.26 91.098H137.776C137.92 90.468 138.262 89.478 138.604 88.992C137.074 89.046 132.556 89.046 131.278 89.046C129.604 89.046 128.236 88.938 127.138 88.506V85.77Z" fill="white"/>
<path d="M143.482 75.546C142.654 76.824 141.196 78.084 139.738 78.84C140.206 79.2 141.016 79.956 141.412 80.334C142.888 79.38 144.544 77.832 145.552 76.212L143.482 75.546ZM151.942 84.69H145.3V83.844H151.942V84.69ZM145.3 89.388V88.506H151.942V89.388H145.3ZM145.3 86.13H151.942V87.048H145.3V86.13ZM151.15 78.048C150.502 78.804 149.62 79.452 148.594 79.992C148.954 79.704 149.08 79.272 149.08 78.552V74.754H146.92V78.48C146.92 78.714 146.83 78.768 146.524 78.768C146.218 78.786 145.084 78.786 144.148 78.732C144.472 79.218 144.868 80.01 145.012 80.568C146.308 80.568 147.28 80.55 148.054 80.262L148.09 80.244C145.732 81.396 142.654 82.098 139.504 82.476C139.9 82.926 140.548 83.844 140.818 84.33C141.628 84.204 142.42 84.042 143.23 83.862V91.584H145.3V90.972H151.942V91.494H154.12V82.242H148.36C150.286 81.414 151.978 80.334 153.202 78.966L151.15 78.048ZM150.772 76.428C152.158 77.454 153.796 78.93 154.498 79.938L156.352 78.768C155.542 77.742 153.868 76.338 152.5 75.384L150.772 76.428Z" fill="white"/>
<path d="M162.634 80.298C162.418 82.134 162.076 83.754 161.554 85.158C161.104 84.834 160.654 84.528 160.222 84.258C160.51 82.998 160.798 81.666 161.086 80.298H162.634ZM163.48 78.282L163.12 78.336H161.5C161.734 77.166 161.95 76.014 162.13 74.952L160.114 74.772C159.952 75.87 159.736 77.094 159.502 78.336H157.72V80.298H159.124C158.692 82.386 158.242 84.402 157.828 85.878L159.592 86.796L159.736 86.238C160.06 86.472 160.384 86.724 160.708 86.976C159.952 88.29 158.98 89.298 157.774 89.928C158.206 90.324 158.764 91.08 159.052 91.62C160.384 90.792 161.464 89.73 162.328 88.326C162.976 88.938 163.534 89.532 163.912 90.036L165.208 88.308C164.758 87.732 164.056 87.084 163.264 86.436C164.092 84.366 164.578 81.756 164.776 78.48L163.48 78.282ZM174.424 81.882H170.464V80.856C171.724 79.668 173.056 77.994 174.01 76.59L172.606 75.546L172.174 75.654H165.136V77.634H170.734C170.23 78.39 169.6 79.182 169.006 79.794H168.34V81.882H164.542V83.898H168.34V89.154C168.34 89.406 168.25 89.478 167.944 89.478C167.656 89.496 166.702 89.478 165.784 89.442C166.09 90.036 166.45 90.954 166.558 91.548C167.872 91.566 168.844 91.494 169.564 91.152C170.266 90.828 170.464 90.252 170.464 89.172V83.898H174.424V81.882Z" fill="white"/>
<path d="M184.324 77.31C183.802 76.59 182.668 75.582 181.75 74.88L180.346 76.05C181.21 76.788 182.326 77.886 182.812 78.588L184.324 77.31ZM182.776 81.414C182.272 82.602 181.624 83.736 180.886 84.78C180.634 83.718 180.418 82.548 180.256 81.27L185.566 80.676L185.368 78.66L180.04 79.254C179.932 77.814 179.878 76.284 179.896 74.772H177.7C177.718 76.356 177.772 77.94 177.916 79.488L175.504 79.74L175.702 81.774L178.114 81.504C178.366 83.43 178.726 85.23 179.176 86.76C178.096 87.84 176.836 88.758 175.504 89.478C175.954 89.874 176.71 90.702 176.998 91.152C178.06 90.522 179.05 89.73 180.004 88.83C180.814 90.432 181.822 91.422 183.082 91.422C184.702 91.422 185.386 90.648 185.728 87.516C185.152 87.318 184.414 86.814 183.964 86.346C183.856 88.452 183.658 89.28 183.244 89.28C182.686 89.28 182.11 88.488 181.588 87.156C182.884 85.644 183.964 83.916 184.792 82.026L182.776 81.414ZM188.212 76.662H186.16V86.562H188.212V76.662ZM189.58 74.934V89.064C189.58 89.37 189.454 89.46 189.13 89.478C188.842 89.478 187.798 89.478 186.808 89.442C187.096 90.036 187.402 90.972 187.474 91.566C189.004 91.566 190.066 91.494 190.75 91.152C191.434 90.81 191.668 90.252 191.668 89.064V74.934H189.58Z" fill="white"/>
<path d="M200.344 86.958V85.86H204.124V86.958H200.344ZM198.148 83.916H206.14V84.582H198.148V83.916ZM201.496 77.616C201.298 77.814 201.1 77.976 200.884 78.138C201.298 78.318 201.964 78.66 202.45 78.948H198.544L199.732 78.516C199.642 78.264 199.462 77.94 199.264 77.616H201.496ZM205.06 77.616C205.438 78.048 205.798 78.552 206.05 78.948H202.972C203.35 78.57 203.746 78.12 204.106 77.616H205.06ZM198.148 82.044H206.14V82.71H198.148V82.044ZM206.14 80.226V80.856H198.148V80.226H206.14ZM210.136 86.958H206.338V85.86H208.408V78.948H206.806L208.012 78.408C207.886 78.174 207.67 77.904 207.436 77.616H210.082V75.924H205.132C205.258 75.654 205.384 75.366 205.492 75.096L203.458 74.61C203.098 75.6 202.486 76.59 201.748 77.346V75.924H197.77C197.914 75.672 198.04 75.402 198.166 75.15L196.168 74.61C195.592 75.96 194.53 77.328 193.396 78.192C193.9 78.462 194.746 79.038 195.124 79.38C195.646 78.912 196.186 78.3 196.69 77.616H197.068C197.356 78.048 197.626 78.552 197.788 78.948H195.988V85.86H198.184V86.958H193.9V88.65H197.5C196.942 89.172 195.916 89.64 194.134 90C194.62 90.396 195.214 91.116 195.502 91.566C198.31 90.846 199.57 89.802 200.074 88.65H204.124V91.53H206.338V88.65H210.136V86.958Z" fill="white"/>
<path d="M93.928 85.41C93.406 85.698 92.938 85.968 92.542 86.166L93.442 87.876C94.72 87.084 96.25 86.058 97.654 85.104L97.06 83.574L95.818 84.312V79.398H97.114C97.276 81.54 97.564 83.502 97.996 85.068C97.276 85.968 96.466 86.724 95.566 87.282C95.98 87.624 96.574 88.308 96.844 88.758C97.528 88.29 98.158 87.714 98.752 87.048C99.238 87.984 99.868 88.524 100.624 88.524C101.92 88.524 102.46 87.858 102.73 85.374C102.262 85.176 101.668 84.762 101.29 84.33C101.236 85.878 101.092 86.58 100.84 86.58C100.552 86.58 100.282 86.13 100.012 85.356C100.912 83.952 101.632 82.314 102.136 80.55L100.498 80.118C100.228 81.036 99.868 81.954 99.436 82.8C99.274 81.792 99.13 80.64 99.04 79.398H102.334V77.616H100.858L102.136 76.914C101.848 76.338 101.164 75.474 100.588 74.844L99.148 75.6C99.67 76.194 100.246 77.022 100.534 77.616H98.932C98.896 76.68 98.878 75.726 98.878 74.772H96.898C96.916 75.726 96.952 76.68 96.988 77.616H93.928V85.41ZM91.138 85.77H93.28V83.916H91.138V81.918H93.514V80.046H90.814V78.534H93.244V76.662H90.814V74.772H88.852V76.662H86.35V78.534H88.852V80.046H85.738V81.918H89.212V87.084C88.816 86.58 88.492 85.95 88.222 85.158C88.24 84.456 88.24 83.754 88.222 83.07L86.422 82.962C86.512 85.392 86.404 88.182 85.252 90.216C85.684 90.432 86.368 91.08 86.638 91.512C87.232 90.54 87.61 89.424 87.862 88.272C89.392 90.612 91.714 91.098 95.26 91.098H101.776C101.92 90.468 102.262 89.478 102.604 88.992C101.074 89.046 96.556 89.046 95.278 89.046C93.604 89.046 92.236 88.938 91.138 88.506V85.77Z" stroke="#23B2BD" stroke-width="6.54545" stroke-linejoin="round" mask="url(#path-31-outside-1)"/>
<path d="M116.878 87.534V89.226H112.414V87.534H116.878ZM110.488 91.566H112.414V90.918H116.878V91.494H118.894V85.842H110.488V91.566ZM112.684 83.07C113.458 82.35 114.124 81.594 114.574 80.892C115.078 81.612 115.798 82.368 116.59 83.07H112.684ZM113.53 79.056C113.458 79.164 113.386 79.29 113.314 79.416V78.21H116.05V79.65H118.066V78.21H120.172V76.392H118.066V74.772H116.05V76.392H113.314V74.772H111.334V76.392H109.336V78.21H111.334V79.596H113.188C112.324 80.856 110.92 82.206 109.408 83.124L109.246 81.99L107.932 82.35V80.118H109.318V78.156H107.932V74.772H105.88V78.156H103.792V80.118H105.88V82.908C104.962 83.16 104.116 83.376 103.432 83.52L103.882 85.59C104.494 85.41 105.178 85.212 105.88 85.014V89.136C105.88 89.406 105.79 89.478 105.574 89.478C105.34 89.496 104.602 89.496 103.9 89.46C104.17 90.054 104.44 90.972 104.494 91.548C105.736 91.548 106.582 91.476 107.176 91.116C107.752 90.792 107.932 90.216 107.932 89.154V84.384L108.85 84.096C109.12 84.492 109.354 84.978 109.498 85.32C110.326 84.906 111.118 84.384 111.856 83.79V84.762H117.436V83.754C118.12 84.294 118.84 84.744 119.542 85.104C119.83 84.492 120.244 83.718 120.658 83.232C118.714 82.476 116.77 80.874 115.474 79.056H113.53Z" stroke="#23B2BD" stroke-width="6.54545" stroke-linejoin="round" mask="url(#path-31-outside-1)"/>
<path d="M129.928 85.41C129.406 85.698 128.938 85.968 128.542 86.166L129.442 87.876C130.72 87.084 132.25 86.058 133.654 85.104L133.06 83.574L131.818 84.312V79.398H133.114C133.276 81.54 133.564 83.502 133.996 85.068C133.276 85.968 132.466 86.724 131.566 87.282C131.98 87.624 132.574 88.308 132.844 88.758C133.528 88.29 134.158 87.714 134.752 87.048C135.238 87.984 135.868 88.524 136.624 88.524C137.92 88.524 138.46 87.858 138.73 85.374C138.262 85.176 137.668 84.762 137.29 84.33C137.236 85.878 137.092 86.58 136.84 86.58C136.552 86.58 136.282 86.13 136.012 85.356C136.912 83.952 137.632 82.314 138.136 80.55L136.498 80.118C136.228 81.036 135.868 81.954 135.436 82.8C135.274 81.792 135.13 80.64 135.04 79.398H138.334V77.616H136.858L138.136 76.914C137.848 76.338 137.164 75.474 136.588 74.844L135.148 75.6C135.67 76.194 136.246 77.022 136.534 77.616H134.932C134.896 76.68 134.878 75.726 134.878 74.772H132.898C132.916 75.726 132.952 76.68 132.988 77.616H129.928V85.41ZM127.138 85.77H129.28V83.916H127.138V81.918H129.514V80.046H126.814V78.534H129.244V76.662H126.814V74.772H124.852V76.662H122.35V78.534H124.852V80.046H121.738V81.918H125.212V87.084C124.816 86.58 124.492 85.95 124.222 85.158C124.24 84.456 124.24 83.754 124.222 83.07L122.422 82.962C122.512 85.392 122.404 88.182 121.252 90.216C121.684 90.432 122.368 91.08 122.638 91.512C123.232 90.54 123.61 89.424 123.862 88.272C125.392 90.612 127.714 91.098 131.26 91.098H137.776C137.92 90.468 138.262 89.478 138.604 88.992C137.074 89.046 132.556 89.046 131.278 89.046C129.604 89.046 128.236 88.938 127.138 88.506V85.77Z" stroke="#23B2BD" stroke-width="6.54545" stroke-linejoin="round" mask="url(#path-31-outside-1)"/>
<path d="M143.482 75.546C142.654 76.824 141.196 78.084 139.738 78.84C140.206 79.2 141.016 79.956 141.412 80.334C142.888 79.38 144.544 77.832 145.552 76.212L143.482 75.546ZM151.942 84.69H145.3V83.844H151.942V84.69ZM145.3 89.388V88.506H151.942V89.388H145.3ZM145.3 86.13H151.942V87.048H145.3V86.13ZM151.15 78.048C150.502 78.804 149.62 79.452 148.594 79.992C148.954 79.704 149.08 79.272 149.08 78.552V74.754H146.92V78.48C146.92 78.714 146.83 78.768 146.524 78.768C146.218 78.786 145.084 78.786 144.148 78.732C144.472 79.218 144.868 80.01 145.012 80.568C146.308 80.568 147.28 80.55 148.054 80.262L148.09 80.244C145.732 81.396 142.654 82.098 139.504 82.476C139.9 82.926 140.548 83.844 140.818 84.33C141.628 84.204 142.42 84.042 143.23 83.862V91.584H145.3V90.972H151.942V91.494H154.12V82.242H148.36C150.286 81.414 151.978 80.334 153.202 78.966L151.15 78.048ZM150.772 76.428C152.158 77.454 153.796 78.93 154.498 79.938L156.352 78.768C155.542 77.742 153.868 76.338 152.5 75.384L150.772 76.428Z" stroke="#23B2BD" stroke-width="6.54545" stroke-linejoin="round" mask="url(#path-31-outside-1)"/>
<path d="M162.634 80.298C162.418 82.134 162.076 83.754 161.554 85.158C161.104 84.834 160.654 84.528 160.222 84.258C160.51 82.998 160.798 81.666 161.086 80.298H162.634ZM163.48 78.282L163.12 78.336H161.5C161.734 77.166 161.95 76.014 162.13 74.952L160.114 74.772C159.952 75.87 159.736 77.094 159.502 78.336H157.72V80.298H159.124C158.692 82.386 158.242 84.402 157.828 85.878L159.592 86.796L159.736 86.238C160.06 86.472 160.384 86.724 160.708 86.976C159.952 88.29 158.98 89.298 157.774 89.928C158.206 90.324 158.764 91.08 159.052 91.62C160.384 90.792 161.464 89.73 162.328 88.326C162.976 88.938 163.534 89.532 163.912 90.036L165.208 88.308C164.758 87.732 164.056 87.084 163.264 86.436C164.092 84.366 164.578 81.756 164.776 78.48L163.48 78.282ZM174.424 81.882H170.464V80.856C171.724 79.668 173.056 77.994 174.01 76.59L172.606 75.546L172.174 75.654H165.136V77.634H170.734C170.23 78.39 169.6 79.182 169.006 79.794H168.34V81.882H164.542V83.898H168.34V89.154C168.34 89.406 168.25 89.478 167.944 89.478C167.656 89.496 166.702 89.478 165.784 89.442C166.09 90.036 166.45 90.954 166.558 91.548C167.872 91.566 168.844 91.494 169.564 91.152C170.266 90.828 170.464 90.252 170.464 89.172V83.898H174.424V81.882Z" stroke="#23B2BD" stroke-width="6.54545" stroke-linejoin="round" mask="url(#path-31-outside-1)"/>
<path d="M184.324 77.31C183.802 76.59 182.668 75.582 181.75 74.88L180.346 76.05C181.21 76.788 182.326 77.886 182.812 78.588L184.324 77.31ZM182.776 81.414C182.272 82.602 181.624 83.736 180.886 84.78C180.634 83.718 180.418 82.548 180.256 81.27L185.566 80.676L185.368 78.66L180.04 79.254C179.932 77.814 179.878 76.284 179.896 74.772H177.7C177.718 76.356 177.772 77.94 177.916 79.488L175.504 79.74L175.702 81.774L178.114 81.504C178.366 83.43 178.726 85.23 179.176 86.76C178.096 87.84 176.836 88.758 175.504 89.478C175.954 89.874 176.71 90.702 176.998 91.152C178.06 90.522 179.05 89.73 180.004 88.83C180.814 90.432 181.822 91.422 183.082 91.422C184.702 91.422 185.386 90.648 185.728 87.516C185.152 87.318 184.414 86.814 183.964 86.346C183.856 88.452 183.658 89.28 183.244 89.28C182.686 89.28 182.11 88.488 181.588 87.156C182.884 85.644 183.964 83.916 184.792 82.026L182.776 81.414ZM188.212 76.662H186.16V86.562H188.212V76.662ZM189.58 74.934V89.064C189.58 89.37 189.454 89.46 189.13 89.478C188.842 89.478 187.798 89.478 186.808 89.442C187.096 90.036 187.402 90.972 187.474 91.566C189.004 91.566 190.066 91.494 190.75 91.152C191.434 90.81 191.668 90.252 191.668 89.064V74.934H189.58Z" stroke="#23B2BD" stroke-width="6.54545" stroke-linejoin="round" mask="url(#path-31-outside-1)"/>
<path d="M200.344 86.958V85.86H204.124V86.958H200.344ZM198.148 83.916H206.14V84.582H198.148V83.916ZM201.496 77.616C201.298 77.814 201.1 77.976 200.884 78.138C201.298 78.318 201.964 78.66 202.45 78.948H198.544L199.732 78.516C199.642 78.264 199.462 77.94 199.264 77.616H201.496ZM205.06 77.616C205.438 78.048 205.798 78.552 206.05 78.948H202.972C203.35 78.57 203.746 78.12 204.106 77.616H205.06ZM198.148 82.044H206.14V82.71H198.148V82.044ZM206.14 80.226V80.856H198.148V80.226H206.14ZM210.136 86.958H206.338V85.86H208.408V78.948H206.806L208.012 78.408C207.886 78.174 207.67 77.904 207.436 77.616H210.082V75.924H205.132C205.258 75.654 205.384 75.366 205.492 75.096L203.458 74.61C203.098 75.6 202.486 76.59 201.748 77.346V75.924H197.77C197.914 75.672 198.04 75.402 198.166 75.15L196.168 74.61C195.592 75.96 194.53 77.328 193.396 78.192C193.9 78.462 194.746 79.038 195.124 79.38C195.646 78.912 196.186 78.3 196.69 77.616H197.068C197.356 78.048 197.626 78.552 197.788 78.948H195.988V85.86H198.184V86.958H193.9V88.65H197.5C196.942 89.172 195.916 89.64 194.134 90C194.62 90.396 195.214 91.116 195.502 91.566C198.31 90.846 199.57 89.802 200.074 88.65H204.124V91.53H206.338V88.65H210.136V86.958Z" stroke="#23B2BD" stroke-width="6.54545" stroke-linejoin="round" mask="url(#path-31-outside-1)"/>
</svg>
