<svg width="287" height="354" viewBox="0 0 287 354" fill="none" xmlns="http://www.w3.org/2000/svg">
<rect y="8" width="287" height="346" rx="30" fill="#FFFCEB"/>
<mask id="mask0" mask-type="alpha" maskUnits="userSpaceOnUse" x="0" y="8" width="287" height="346">
<rect y="8" width="287" height="346" rx="30" fill="#FFFCEB"/>
</mask>
<g mask="url(#mask0)">
<path opacity="0.3" d="M-287.011 330.299C-331.542 337.14 -322.939 361.258 -324.986 387.995L-323.372 424.09C-315.517 426.606 -316.357 434.101 -312.496 442.975C-308.623 451.878 -302.543 456.159 -296.026 460.072C-287.299 465.312 -277.789 466.898 -268.821 471.394C-256.403 477.62 -243.639 483.503 -231.089 489.071C-222.521 492.872 -213.672 493.965 -205.038 497.339C-195.256 501.16 -173.072 479.934 -163.039 480.96C-95.0308 487.913 -51.5315 489.644 15.2897 454.223C43.0347 439.516 70.7897 425.357 98.7129 411.199C126.134 397.296 159.66 435.913 189.604 433.447C213.538 431.476 271.256 444.412 294.711 437.774C321.831 430.099 312.178 355.278 333.971 331.991C348.095 316.898 358.117 307.284 359.807 280.967C361.985 247.038 366.214 213.133 347.933 188.869C333.51 169.725 334.934 133.923 282.461 155.127C238.086 173.058 234.769 216.848 208.181 227.607C164.823 245.15 137.139 195.811 91.9028 209.68C46.6671 223.55 38.4568 260.07 18.8727 271.771C-4.01789 285.447 -24.1482 289.297 -51.1314 280.796C-75.4917 273.121 -97.6021 260.449 -122.308 263.634C-147.985 266.944 -165.09 286.727 -183.469 309.55C-205.431 336.821 -256.766 325.652 -287.011 330.299Z" fill="#6CBDC0"/>
<path opacity="0.3" d="M-65.5011 328.29C-110.033 335.131 -101.429 359.249 -103.476 385.986L-101.862 422.081C-94.0073 424.597 -94.847 432.091 -90.986 440.966C-87.1131 449.869 -81.0328 454.15 -74.5164 458.062C-65.789 463.303 -56.2791 464.889 -47.3112 469.385C-34.8932 475.611 -22.1294 481.494 -9.57936 487.062C-1.01107 490.863 7.83758 491.956 16.4724 495.33C26.2534 499.151 48.4378 477.925 58.471 478.951C126.479 485.904 169.978 487.635 236.8 452.214C264.545 437.507 292.3 423.348 320.223 409.19C347.644 395.286 381.17 433.904 411.114 431.438C435.048 429.467 492.766 442.403 516.221 435.765C543.341 428.09 533.688 353.269 555.48 329.982C569.604 314.889 579.627 305.275 581.317 278.958C583.495 245.029 587.724 211.124 569.443 186.859C555.02 167.716 556.444 131.914 503.971 153.118C459.596 171.049 456.279 214.839 429.69 225.598C386.333 243.141 358.648 193.802 313.413 207.671C268.177 221.541 259.967 258.061 240.383 269.762C217.492 283.438 197.362 287.288 170.379 278.786C146.018 271.112 123.908 258.44 99.2017 261.625C73.5251 264.935 56.4202 284.718 38.0408 307.541C16.0791 334.812 -35.2564 323.643 -65.5011 328.29Z" fill="#6CBDC0"/>
</g>
<path d="M226.294 12.7221C229.294 7.38925 225.44 0.799988 219.321 0.799988H69.9443C63.9972 0.799988 60.1292 7.05849 62.7888 12.3777L69.5666 25.9331C73.632 34.0639 81.9423 39.2 91.0328 39.2H197.364C206.034 39.2 214.031 34.5233 218.281 26.9663L226.294 12.7221Z" fill="#6CBDC0"/>
<line x1="89.4" y1="22.8" x2="200.6" y2="22.8" stroke="#87D0D2" stroke-width="2.4" stroke-linecap="round"/>
<path d="M20.8724 339.326C18.7458 346.015 23.7381 352.841 30.7571 352.841H259.243C266.262 352.841 271.254 346.015 269.128 339.326L252.968 288.498C246.276 267.449 226.73 253.152 204.643 253.152H85.3573C63.2703 253.152 43.7239 267.449 37.032 288.498L20.8724 339.326Z" fill="#698FC8" stroke="#5F83BA" stroke-width="2.30494"/>
<path d="M45.9302 326.384C43.0663 333.925 48.6372 342 56.7042 342H234.296C242.363 342 247.934 333.925 245.07 326.384L230.88 289.017C224.932 273.355 209.923 263 193.171 263H97.8293C81.0766 263 66.0677 273.355 60.1203 289.017L45.9302 326.384Z" fill="#769CD7"/>
<g opacity="0.8">
<path d="M115.263 304.615V309.865H120.933V304.615H115.263ZM119.561 308.647H116.621V305.833H119.561V308.647ZM123.873 301.535H112.309V313.449H113.723V313.001H122.459V313.449H123.873V301.535ZM113.723 311.713V302.823H122.459V311.713H113.723Z" fill="white"/>
<path d="M131.713 301.381V304.111H134.107V304.601H131.069V305.721H138.461V304.601H135.409V304.111H137.789V301.381H135.409V300.737H134.107V301.381H131.713ZM136.585 303.117H135.409V302.375H136.585V303.117ZM134.107 303.117H132.917V302.375H134.107V303.117ZM131.741 306.141V311.713H133.491C132.917 312.105 132.105 312.441 131.041 312.693C130.789 311.895 130.481 311.125 130.131 310.397L128.997 310.775C129.095 310.999 129.207 311.237 129.319 311.489C128.857 311.671 128.353 311.853 127.793 312.049V310.285H130.663V304.979H126.463V312.161C126.463 312.357 126.365 312.483 126.183 312.567L126.561 313.617C127.737 313.309 128.787 312.973 129.725 312.595C129.809 312.847 129.907 313.113 129.991 313.407L131.013 312.931L131.489 313.743C132.693 313.421 133.631 313.001 134.275 312.483L133.687 311.713H135.661L135.255 312.511C136.263 312.819 137.243 313.239 138.181 313.771L138.629 312.707C137.845 312.287 137.019 311.965 136.165 311.713H137.775V306.141H131.741ZM136.417 310.691H133.099V310.089H136.417V310.691ZM133.099 309.207V308.633H136.417V309.207H133.099ZM133.099 307.737V307.149H136.417V307.737H133.099ZM127.891 300.863C127.163 301.955 126.365 302.893 125.511 303.691L126.281 304.769C126.673 304.405 127.051 304.027 127.415 303.635V304.335H129.781V303.369C130.019 303.663 130.285 303.999 130.579 304.391L131.419 303.481C130.691 302.585 129.935 301.703 129.123 300.863H127.891ZM127.779 303.215C128.087 302.865 128.367 302.487 128.647 302.095C128.927 302.375 129.263 302.739 129.655 303.215H127.779ZM127.793 308.171H129.333V309.053H127.793V308.171ZM129.333 307.051H127.793V306.211H129.333V307.051Z" fill="white"/>
<path d="M141.877 303.327H151.747V301.955H142.759C142.927 301.619 143.067 301.269 143.179 300.905L141.765 300.723C141.401 301.787 140.701 302.683 139.679 303.425L140.561 304.601C141.051 304.209 141.485 303.789 141.877 303.327ZM141.639 303.831V305.371H140.155V306.715H141.639V308.633H139.959V309.991H152.223V308.633H150.809V306.715H152.041V305.371H150.809V303.831H149.409V305.371H148.219V303.831H146.833V305.371H145.615V303.831H144.215V305.371H143.025V303.831H141.639ZM143.025 308.633V306.715H144.215V308.633H143.025ZM145.615 308.633V306.715H146.833V308.633H145.615ZM148.219 308.633V306.715H149.409V308.633H148.219ZM141.625 310.271C141.149 311.307 140.575 312.203 139.931 312.959L141.121 313.841C141.779 313.001 142.353 312.021 142.829 310.873L141.625 310.271ZM144.999 310.621L143.655 310.915C143.907 311.727 144.131 312.665 144.299 313.729L145.769 313.379C145.545 312.399 145.279 311.475 144.999 310.621ZM148.093 310.537L146.749 310.831C147.085 311.643 147.365 312.581 147.589 313.645L149.059 313.309C148.779 312.315 148.457 311.391 148.093 310.537ZM150.599 310.215L149.479 310.929C150.221 311.965 150.809 312.903 151.243 313.757L152.461 312.903C152.027 312.147 151.411 311.251 150.599 310.215Z" fill="white"/>
<path d="M158.677 300.779V311.825H153.819V313.253H166.405V311.825H160.189V306.351H165.369V304.937H160.189V300.779H158.677Z" fill="white"/>
<path d="M168.071 301.213V313.743H169.499V302.585H171.249C170.899 303.691 170.409 304.937 169.793 306.323C170.731 307.485 171.207 308.535 171.207 309.473C171.207 309.697 171.151 309.851 171.039 309.935C170.927 310.019 170.703 310.061 170.367 310.089C170.157 310.089 169.891 310.061 169.583 310.005L170.059 311.489C171.095 311.475 171.837 311.279 172.257 310.915C172.537 310.635 172.677 310.145 172.677 309.473C172.607 308.521 172.145 307.401 171.277 306.099C171.823 304.783 172.299 303.537 172.719 302.361V301.213H168.071ZM174.553 305.063H178.095V306.225H174.553V305.063ZM178.095 303.747H174.553V302.571H178.095V303.747ZM179.411 307.919C178.879 308.563 178.319 309.053 177.745 309.403C177.521 309.011 177.311 308.577 177.129 308.101L176.023 308.717C176.807 310.929 178.081 312.567 179.817 313.603L180.671 312.343C179.803 311.867 179.061 311.237 178.431 310.439C179.131 310.047 179.775 309.529 180.335 308.857L179.411 307.919ZM174.553 307.555H179.523V301.199H173.111V311.839C173.111 312.035 172.985 312.161 172.761 312.245L173.111 313.533C174.679 313.141 175.981 312.721 177.017 312.287L176.667 310.929C175.967 311.265 175.267 311.531 174.553 311.755V307.555Z" fill="white"/>
</g>
<path d="M170.182 276.364H199.735C206.268 276.364 212.175 280.25 214.762 286.249L225 310" stroke="#8CB1E9" stroke-width="2.45455" stroke-linecap="round"/>
<path d="M97.2651 227.637L101.478 228.77L97.8451 252.304C97.5114 254.466 95.6508 256.061 93.4633 256.061C90.4015 256.061 88.2613 253.032 89.2845 250.146L97.2651 227.637Z" fill="#284273"/>
<path d="M176.446 226.637L172.233 227.77L175.866 251.304C176.2 253.466 178.06 255.061 180.248 255.061C183.31 255.061 185.45 252.032 184.427 249.146L176.446 226.637Z" fill="#284273"/>
<path d="M190.864 131.227L191.834 131.227C199.787 131.227 206.588 136.945 207.955 144.779L211.727 166.409" stroke="#80A4DA" stroke-width="2.45455" stroke-linecap="round"/>
<path d="M47.9095 218.911C46.9442 229.045 54.913 237.809 65.0927 237.809H208.635C218.814 237.809 226.783 229.045 225.818 218.911L219.309 150.586C217.996 136.805 206.422 126.281 192.579 126.281H81.1478C67.3051 126.281 55.7311 136.805 54.4184 150.586L47.9095 218.911Z" fill="#698FC8" stroke="#5F83BA" stroke-width="3.83578"/>
<path d="M100.72 220.296V221.96H115.264V220.296H100.72Z" fill="white"/>
<path d="M123.888 217.384L122.64 217.8C122.944 218.536 123.2 219.288 123.408 220.072L124.656 219.752C124.432 218.856 124.176 218.072 123.888 217.384ZM123.888 222.776L122.624 223.192C122.944 224.12 123.216 225.08 123.44 226.088L124.768 225.736C124.512 224.616 124.208 223.64 123.888 222.776ZM122.96 213.752C122.864 214.296 122.736 214.84 122.576 215.352H120.864V220.792L119.824 220.856L120.032 222.344L120.848 222.296C120.752 224.376 120.384 226.136 119.744 227.544L120.992 228.68C121.824 227 122.272 224.84 122.368 222.184C123.264 222.12 124.128 222.04 124.976 221.96V226.6C124.976 226.968 124.848 227.16 124.608 227.16C124.192 227.16 123.744 227.128 123.264 227.096L123.664 228.616H125.088C126.016 228.616 126.496 228.12 126.496 227.144V221.784L127.056 221.72V220.264L126.496 220.328V215.352H124.256C124.432 214.936 124.576 214.472 124.672 213.992L122.96 213.752ZM122.384 220.696V216.888H124.976V220.488C124.16 220.552 123.296 220.632 122.384 220.696ZM128.4 214.472C128.4 215.72 128.32 216.632 128.176 217.208C128.016 217.784 127.648 218.392 127.104 219.032L128.4 220.2C129.104 219.464 129.552 218.808 129.728 218.264C129.904 217.752 130 216.984 130 215.976H131.536V218.04C131.536 219.224 132.128 219.816 133.344 219.816H134.592V218.264H133.824C133.376 218.264 133.152 218.056 133.152 217.672V214.472H128.4ZM127.52 220.68V222.184H127.824C128.176 223.528 128.848 224.76 129.84 225.848C129.104 226.456 128.224 226.984 127.184 227.4L128.08 228.792C129.232 228.328 130.224 227.736 131.072 227.016C131.824 227.624 132.704 228.184 133.712 228.696L134.56 227.208C133.68 226.776 132.896 226.312 132.224 225.8C133.024 224.776 133.6 223.544 133.936 222.104V220.68H127.52ZM129.36 222.184H132.304C132 223.112 131.552 223.944 130.976 224.696C130.256 223.928 129.712 223.096 129.36 222.184Z" fill="white"/>
<path d="M141.856 222.136C141.12 224.056 140.256 225.96 139.264 227.816L140.8 228.504C141.728 226.696 142.56 224.76 143.328 222.712L141.856 222.136ZM140.736 213.992L139.552 215.144C140.768 216.008 141.696 216.808 142.352 217.56L143.536 216.36C142.768 215.576 141.84 214.792 140.736 213.992ZM140.288 217.736L139.104 218.888C140.24 219.768 141.12 220.584 141.744 221.32L142.928 220.136C142.208 219.336 141.328 218.536 140.288 217.736ZM147.824 213.88V217.992H144.336V222.024C144.304 224.232 143.856 226.072 142.976 227.512L144.256 228.68C145.04 227.416 145.552 225.848 145.776 223.992L146.128 225.496C147.968 225.272 149.728 225 151.392 224.696V226.456C151.392 226.872 151.136 227.08 150.656 227.08C150.128 227.08 149.552 227.048 148.944 227L149.392 228.584H151.152C152.368 228.584 152.992 228.056 152.992 227.032V217.992H149.408V213.88H147.824ZM144.848 214.264L143.488 214.92C144.112 215.72 144.688 216.6 145.232 217.592L146.544 216.952C146 215.976 145.44 215.08 144.848 214.264ZM152.384 214.28C151.936 215.176 151.312 216.088 150.528 217.016L151.808 217.672C152.576 216.776 153.216 215.864 153.712 214.904L152.384 214.28ZM150.56 221.368C149.664 221.192 148.912 221.064 148.32 220.968C147.792 220.904 146.992 220.808 145.904 220.696V219.496H151.392V223.24C149.568 223.56 147.696 223.784 145.776 223.944C145.84 223.336 145.888 222.712 145.904 222.04C146.464 222.072 147.008 222.136 147.52 222.216C148.384 222.344 149.216 222.488 150.016 222.648L150.56 221.368Z" fill="white"/>
<path d="M160.944 217.368H163.056V217.592C163.04 217.72 163.008 217.848 162.976 217.992H160.768L160.944 217.368ZM164.608 217.368H166.512V217.992H164.56L164.608 217.592V217.368ZM168.064 217.368H171.6V214.456H168.064V213.88H166.512V214.456H164.608V213.88H163.056V214.456H159.312V215.672H163.056V216.296H159.712L159.12 219.096H162.224C162.176 219.128 162.128 219.176 162.064 219.224C161.472 219.608 160.32 219.928 158.608 220.2L159.312 221.288L160.32 221.096V226.632H162.736C161.632 226.984 160.144 227.288 158.272 227.544L158.976 228.76C161.216 228.408 162.944 227.928 164.144 227.352L163.6 226.632H167.088L166.672 227.4C168.656 227.72 170.544 228.168 172.368 228.776L172.88 227.512C171.536 227.16 170.128 226.856 168.688 226.632H170.976V220.824H161.424C162.176 220.6 162.784 220.328 163.248 220.008C163.6 219.752 163.888 219.448 164.128 219.096H166.512V220.504H168.064V219.096H170.88C170.88 219.256 170.832 219.384 170.752 219.48C170.656 219.544 170.4 219.592 169.984 219.592C169.68 219.592 169.36 219.576 169.008 219.56L169.264 220.504C169.552 220.52 169.856 220.536 170.16 220.536C171.056 220.52 171.616 220.36 171.856 220.072C172.096 219.768 172.224 219.08 172.224 217.992H168.064V217.368ZM164.608 215.672H166.512V216.296H164.608V215.672ZM168.064 215.672H170.224V216.296H168.064V215.672ZM169.408 225.48H161.904V224.92H169.408V225.48ZM161.904 223.928V223.432H169.408V223.928H161.904ZM161.904 222.408V221.896H169.408V222.408H161.904Z" fill="white"/>
<path d="M137.085 200.47H98.3896V192.091L116.214 173.353C120.606 168.351 122.803 164.377 122.803 161.432C122.803 159.045 122.282 157.23 121.241 155.986C120.2 154.742 118.689 154.12 116.709 154.12C114.754 154.12 113.167 154.957 111.948 156.633C110.729 158.284 110.12 160.353 110.12 162.841H97.2471C97.2471 159.439 98.0977 156.303 99.7988 153.434C101.5 150.539 103.861 148.28 106.883 146.655C109.904 145.03 113.281 144.217 117.014 144.217C123.006 144.217 127.614 145.601 130.839 148.369C134.089 151.136 135.714 155.11 135.714 160.289C135.714 162.473 135.308 164.606 134.495 166.688C133.683 168.745 132.413 170.915 130.687 173.201C128.985 175.46 126.23 178.495 122.422 182.303L115.262 190.568H137.085V200.47Z" fill="#FFC232"/>
<path d="M149.796 182.437C149.796 181.119 150.226 180.055 151.085 179.244C151.945 178.434 153.097 178.028 154.542 178.028C156.007 178.028 157.165 178.434 158.014 179.244C158.864 180.045 159.289 181.134 159.289 182.511V183.565C159.289 184.884 158.864 185.943 158.014 186.744C157.165 187.545 156.017 187.945 154.572 187.945C153.136 187.945 151.979 187.55 151.1 186.759C150.231 185.958 149.796 184.864 149.796 183.477V182.437ZM152.975 183.565C152.975 184.073 153.117 184.488 153.4 184.81C153.683 185.123 154.074 185.279 154.572 185.279C155.597 185.279 156.11 184.625 156.11 183.316V182.437C156.11 181.93 155.973 181.515 155.7 181.192C155.426 180.86 155.041 180.694 154.542 180.694C154.064 180.694 153.683 180.855 153.4 181.178C153.117 181.49 152.975 181.92 152.975 182.467V183.565ZM159.933 194.435C159.933 193.106 160.363 192.042 161.222 191.241C162.091 190.44 163.244 190.04 164.679 190.04C166.134 190.04 167.292 190.435 168.151 191.227C169.01 192.018 169.44 193.121 169.44 194.537V195.562C169.44 196.891 169.015 197.955 168.166 198.756C167.316 199.557 166.164 199.957 164.708 199.957C163.273 199.957 162.116 199.561 161.237 198.77C160.368 197.97 159.933 196.876 159.933 195.489V194.435ZM163.097 195.562C163.097 196.021 163.253 196.427 163.566 196.778C163.878 197.12 164.259 197.291 164.708 197.291C165.656 197.291 166.168 196.842 166.247 195.943L166.261 194.435C166.261 193.917 166.12 193.502 165.836 193.189C165.553 192.867 165.167 192.706 164.679 192.706C164.21 192.706 163.834 192.857 163.551 193.16C163.268 193.453 163.117 193.853 163.097 194.361V195.562ZM155.509 198.067L153.209 196.91L163.625 180.24L165.924 181.397L155.509 198.067Z" fill="#FFC232"/>
<circle cx="163.119" cy="155.995" r="14.575" fill="#FFC232" stroke="black" stroke-width="1.21716"/>
<line x1="158.984" y1="142.99" x2="169.786" y2="142.99" stroke="black" stroke-width="1.21716"/>
<line x1="159.681" y1="146.127" x2="174.317" y2="146.127" stroke="black" stroke-width="1.21716"/>
<line x1="159.681" y1="149.612" x2="176.408" y2="149.612" stroke="black" stroke-width="1.21716"/>
<line x1="159.332" y1="153.096" x2="177.453" y2="153.096" stroke="black" stroke-width="1.21716"/>
<line x1="159.332" y1="156.581" x2="177.801" y2="156.581" stroke="black" stroke-width="1.21716"/>
<line x1="158.984" y1="160.066" x2="177.453" y2="160.066" stroke="black" stroke-width="1.21716"/>
<line x1="158.635" y1="163.551" x2="175.711" y2="163.551" stroke="black" stroke-width="1.21716"/>
<circle cx="160.576" cy="157.389" r="14.575" fill="#FFC232" stroke="black" stroke-width="1.21716"/>
<path d="M166.698 150.996V150.184H165.886H154.708H153.897V150.996V153.586V154.397H154.708H157.967V164.491V165.303H158.778H161.816H162.628V164.491V154.397H165.886H166.698V153.586V150.996Z" fill="white" stroke="black" stroke-width="1.62288" stroke-linecap="round"/>
<rect x="60.3636" y="63" width="157.909" height="48.2727" rx="24.1364" fill="#4BC2CB"/>
<path d="M66.5 85.9091V85.9091C66.5 75.742 74.742 67.5 84.9091 67.5H89.8182" stroke="#87D9DB" stroke-width="2.45455" stroke-linecap="round"/>
<mask id="path-30-outside-1" maskUnits="userSpaceOnUse" x="73.6093" y="74.6631" width="132" height="25" fill="black">
<rect fill="white" x="73.6093" y="74.6631" width="132" height="25"/>
<path d="M93.9173 87.3571H86.8433V81.9031H92.8733V79.7791H78.5453V81.9031H84.6113V87.3571H77.6093V89.5171H84.6113V95.4751H86.8433V89.5171H93.9173V87.3571ZM79.6433 83.0551C80.2193 84.2611 80.7773 85.8271 80.9573 86.7991L83.0453 86.1511C82.8473 85.1431 82.1993 83.6311 81.6053 82.4791L79.6433 83.0551ZM90.1553 86.7631C90.7673 85.8451 91.4873 84.3871 92.1353 83.0011L89.8493 82.4251C89.5073 83.5951 88.8593 85.1791 88.2833 86.2231L90.1553 86.7631Z"/>
<path d="M99.5333 81.6691V84.8371H97.8773V81.6691H99.5333ZM97.8773 90.0931V86.7091H99.5333V90.0931H97.8773ZM101.531 79.7611H95.8973V93.5851H97.8773V92.0011H101.531V79.7611ZM102.593 90.4891C103.403 91.4071 104.321 92.6851 104.645 93.5131L106.481 92.4511C106.103 91.5691 105.131 90.3811 104.303 89.4991L102.593 90.4891ZM112.115 85.8811V84.0091H108.011V82.4251H111.611V80.5531H108.011V78.6631H105.905V80.5531H102.449V82.4251H105.905V84.0091H101.837V85.8811H108.191V87.4291H101.873V89.2831H108.191V93.1531C108.191 93.4051 108.101 93.4771 107.813 93.4771C107.543 93.4771 106.535 93.4771 105.671 93.4411C105.959 94.0171 106.283 94.8631 106.355 95.4571C107.687 95.4571 108.659 95.4031 109.361 95.0971C110.063 94.7731 110.261 94.2331 110.261 93.2071V89.2831H111.989V87.4291H110.261V85.8811H112.115Z"/>
<path d="M123.185 88.5631H120.017V85.4491H123.185V88.5631ZM118.001 83.5771V90.4171H125.345V83.5771H118.001ZM116.273 92.5051V81.4531H127.091V92.5051H116.273ZM114.041 79.2571V95.4571H116.273V94.5031H127.091V95.4571H129.431V79.2571H114.041Z"/>
<path d="M140.951 81.8131V81.0211H142.283V81.8131H140.951ZM145.631 81.0211V81.8131H144.191V81.0211H145.631ZM142.283 83.6851H138.431V85.1071H148.115V83.6851H144.191V83.0371H147.485V79.7971H144.191V78.6631H142.283V79.7971H139.187V83.0371H142.283V83.6851ZM141.167 90.5971H145.361V91.2991H141.167V90.5971ZM141.167 88.7611H145.361V89.4451H141.167V88.7611ZM141.167 86.9251H145.361V87.5911H141.167V86.9251ZM136.307 85.3231V86.0071H134.057V85.3231H136.307ZM134.057 87.9691V87.2671H136.307V87.9691H134.057ZM134.309 81.8311C134.687 81.2911 135.029 80.7691 135.299 80.2831C135.749 80.7331 136.217 81.2911 136.631 81.8311H134.309ZM147.359 92.5231V85.7191H139.259V92.5231H140.843C140.213 93.0631 139.205 93.5671 138.179 93.9451V92.3431H134.057V91.5871H137.999V90.0391H134.057V89.3371H138.035V83.9731H132.437C132.923 83.5231 133.355 83.0371 133.733 82.5691V83.2711H137.027V82.3711C137.261 82.7131 137.477 83.0371 137.639 83.3071L138.917 81.8851C138.341 80.9311 137.063 79.6171 136.037 78.6811H134.039C133.481 79.9771 132.473 81.5971 131.015 82.8211C131.429 83.0551 132.005 83.6131 132.311 84.0091V95.4211H134.057V93.9451H138.179C137.999 94.0171 137.819 94.0711 137.639 94.1251C138.071 94.4851 138.773 95.2411 139.043 95.6011C140.393 95.0431 141.923 94.0711 142.841 93.0451L141.275 92.5231H144.785L143.759 93.3151C144.821 93.9991 146.063 94.9531 146.747 95.6011L148.421 94.6111C147.701 94.0171 146.477 93.1891 145.379 92.5231H147.359Z"/>
<path d="M160.139 82.4251L161.363 82.1371C161.309 81.7231 161.129 81.1111 160.931 80.6251C161.651 80.5531 162.371 80.4811 163.055 80.3731L162.569 80.6251C163.073 81.1471 163.577 81.8131 163.973 82.4251H160.139ZM159.311 80.8771C159.473 81.3631 159.635 81.9931 159.671 82.4251H157.151V83.7391H159.635V84.4051H155.747V85.7191H165.701V84.4051H161.615V83.7391H164.009V82.4791C164.225 82.8031 164.387 83.1091 164.513 83.3791L165.989 82.5151C165.665 81.8491 164.981 80.9131 164.243 80.1751C164.567 80.1211 164.855 80.0671 165.143 79.9951L163.811 78.7351C162.353 79.0771 159.977 79.3471 157.781 79.5091L156.467 79.2031C156.107 80.4631 155.495 81.7411 154.739 82.5691C155.153 82.8031 155.945 83.2891 156.305 83.5771C156.863 82.8931 157.421 81.9031 157.853 80.8591C158.591 80.8231 159.365 80.7691 160.157 80.6971L159.311 80.8771ZM156.179 95.3131C156.809 94.5031 157.187 93.2251 157.475 92.1631L155.909 91.5871C155.657 92.6131 155.171 93.8011 154.595 94.5571L156.179 95.3131ZM166.295 94.4491C165.899 93.5671 165.089 92.3251 164.225 91.4251L162.695 92.1451C163.037 92.5411 163.379 92.9911 163.685 93.4591C163.181 93.3511 162.515 93.0991 162.191 92.8831C162.137 93.7291 162.065 93.8731 161.651 93.8731H160.139C159.635 93.8731 159.545 93.8191 159.545 93.4051V91.6951C160.121 92.1271 160.715 92.6311 161.057 93.0091L162.191 91.8931C161.921 91.6231 161.543 91.2991 161.111 90.9931H164.693V89.2291H165.989V87.8251H164.693V86.2231H156.449V87.4471H162.839V87.9871H155.531V88.1131C155.081 87.5371 154.001 86.2411 153.587 85.8271V85.6831H155.243V83.7391H153.587V81.1471C154.271 80.9671 154.937 80.7511 155.513 80.5171L154.163 78.9691C152.993 79.5271 151.049 79.9951 149.321 80.2651C149.537 80.6971 149.807 81.3811 149.879 81.8311C150.437 81.7591 151.013 81.6691 151.589 81.5791V83.7391H149.465V85.6831H151.337C150.815 87.4291 149.951 89.3731 149.069 90.5431C149.393 91.0831 149.861 91.9651 150.041 92.5951C150.599 91.7851 151.121 90.6871 151.589 89.4811V95.4751H153.587V88.0951C153.965 88.7431 154.343 89.4451 154.541 89.9131L155.531 88.5091V89.1211H162.839V89.7691H156.395V90.9931H159.275L158.933 91.2991C159.095 91.3891 159.239 91.4971 159.401 91.6051H157.691V93.4231C157.691 94.9351 158.087 95.4211 159.869 95.4211H161.885C163.073 95.4211 163.577 95.0251 163.775 93.6031C164.171 94.2151 164.477 94.8091 164.657 95.2951L166.295 94.4491Z"/>
<path d="M178.139 82.4251L179.363 82.1371C179.309 81.7231 179.129 81.1111 178.931 80.6251C179.651 80.5531 180.371 80.4811 181.055 80.3731L180.569 80.6251C181.073 81.1471 181.577 81.8131 181.973 82.4251H178.139ZM177.311 80.8771C177.473 81.3631 177.635 81.9931 177.671 82.4251H175.151V83.7391H177.635V84.4051H173.747V85.7191H183.701V84.4051H179.615V83.7391H182.009V82.4791C182.225 82.8031 182.387 83.1091 182.513 83.3791L183.989 82.5151C183.665 81.8491 182.981 80.9131 182.243 80.1751C182.567 80.1211 182.855 80.0671 183.143 79.9951L181.811 78.7351C180.353 79.0771 177.977 79.3471 175.781 79.5091L174.467 79.2031C174.107 80.4631 173.495 81.7411 172.739 82.5691C173.153 82.8031 173.945 83.2891 174.305 83.5771C174.863 82.8931 175.421 81.9031 175.853 80.8591C176.591 80.8231 177.365 80.7691 178.157 80.6971L177.311 80.8771ZM174.179 95.3131C174.809 94.5031 175.187 93.2251 175.475 92.1631L173.909 91.5871C173.657 92.6131 173.171 93.8011 172.595 94.5571L174.179 95.3131ZM184.295 94.4491C183.899 93.5671 183.089 92.3251 182.225 91.4251L180.695 92.1451C181.037 92.5411 181.379 92.9911 181.685 93.4591C181.181 93.3511 180.515 93.0991 180.191 92.8831C180.137 93.7291 180.065 93.8731 179.651 93.8731H178.139C177.635 93.8731 177.545 93.8191 177.545 93.4051V91.6951C178.121 92.1271 178.715 92.6311 179.057 93.0091L180.191 91.8931C179.921 91.6231 179.543 91.2991 179.111 90.9931H182.693V89.2291H183.989V87.8251H182.693V86.2231H174.449V87.4471H180.839V87.9871H173.531V88.1131C173.081 87.5371 172.001 86.2411 171.587 85.8271V85.6831H173.243V83.7391H171.587V81.1471C172.271 80.9671 172.937 80.7511 173.513 80.5171L172.163 78.9691C170.993 79.5271 169.049 79.9951 167.321 80.2651C167.537 80.6971 167.807 81.3811 167.879 81.8311C168.437 81.7591 169.013 81.6691 169.589 81.5791V83.7391H167.465V85.6831H169.337C168.815 87.4291 167.951 89.3731 167.069 90.5431C167.393 91.0831 167.861 91.9651 168.041 92.5951C168.599 91.7851 169.121 90.6871 169.589 89.4811V95.4751H171.587V88.0951C171.965 88.7431 172.343 89.4451 172.541 89.9131L173.531 88.5091V89.1211H180.839V89.7691H174.395V90.9931H177.275L176.933 91.2991C177.095 91.3891 177.239 91.4971 177.401 91.6051H175.691V93.4231C175.691 94.9351 176.087 95.4211 177.869 95.4211H179.885C181.073 95.4211 181.577 95.0251 181.775 93.6031C182.171 94.2151 182.477 94.8091 182.657 95.2951L184.295 94.4491Z"/>
<path d="M190.991 81.7771C192.017 81.2731 192.935 80.7151 193.619 80.1751C194.339 80.7331 195.293 81.2911 196.319 81.7771H190.991ZM189.677 83.0371H197.885V82.4611C198.947 82.8751 200.045 83.2351 200.999 83.4691C201.305 82.9291 201.755 82.2091 202.169 81.7231C199.451 81.2371 196.589 80.2291 194.519 78.6811H192.575C191.027 79.9951 188.111 81.2551 185.249 81.8851C185.609 82.2991 186.059 83.0731 186.275 83.5591C187.409 83.2531 188.579 82.8391 189.677 82.3711V83.0371ZM190.235 84.8551H197.075V85.6651H190.235V84.8551ZM188.237 86.9251H199.199V83.6131H188.237V86.9251ZM194.789 90.8851H200.711V89.4271H194.789V88.6711C196.661 88.5631 198.425 88.3831 199.883 88.1311L198.497 86.9791C195.959 87.4111 191.207 87.5911 187.247 87.5731C187.409 87.8791 187.553 88.4911 187.589 88.8511C189.209 88.8691 190.955 88.8511 192.683 88.7791V89.4271H186.869V90.8851H192.683V91.5151H185.555V92.9731H192.683V93.5311C192.683 93.7831 192.575 93.8551 192.287 93.8731C192.035 93.8731 190.973 93.8731 190.091 93.8371C190.361 94.2871 190.667 94.9711 190.793 95.4751C192.161 95.4931 193.133 95.4751 193.853 95.2231C194.573 94.9711 194.789 94.5571 194.789 93.5851V92.9731H201.917V91.5151H194.789V90.8851Z"/>
</mask>
<path d="M93.9173 87.3571H86.8433V81.9031H92.8733V79.7791H78.5453V81.9031H84.6113V87.3571H77.6093V89.5171H84.6113V95.4751H86.8433V89.5171H93.9173V87.3571ZM79.6433 83.0551C80.2193 84.2611 80.7773 85.8271 80.9573 86.7991L83.0453 86.1511C82.8473 85.1431 82.1993 83.6311 81.6053 82.4791L79.6433 83.0551ZM90.1553 86.7631C90.7673 85.8451 91.4873 84.3871 92.1353 83.0011L89.8493 82.4251C89.5073 83.5951 88.8593 85.1791 88.2833 86.2231L90.1553 86.7631Z" fill="white"/>
<path d="M99.5333 81.6691V84.8371H97.8773V81.6691H99.5333ZM97.8773 90.0931V86.7091H99.5333V90.0931H97.8773ZM101.531 79.7611H95.8973V93.5851H97.8773V92.0011H101.531V79.7611ZM102.593 90.4891C103.403 91.4071 104.321 92.6851 104.645 93.5131L106.481 92.4511C106.103 91.5691 105.131 90.3811 104.303 89.4991L102.593 90.4891ZM112.115 85.8811V84.0091H108.011V82.4251H111.611V80.5531H108.011V78.6631H105.905V80.5531H102.449V82.4251H105.905V84.0091H101.837V85.8811H108.191V87.4291H101.873V89.2831H108.191V93.1531C108.191 93.4051 108.101 93.4771 107.813 93.4771C107.543 93.4771 106.535 93.4771 105.671 93.4411C105.959 94.0171 106.283 94.8631 106.355 95.4571C107.687 95.4571 108.659 95.4031 109.361 95.0971C110.063 94.7731 110.261 94.2331 110.261 93.2071V89.2831H111.989V87.4291H110.261V85.8811H112.115Z" fill="white"/>
<path d="M123.185 88.5631H120.017V85.4491H123.185V88.5631ZM118.001 83.5771V90.4171H125.345V83.5771H118.001ZM116.273 92.5051V81.4531H127.091V92.5051H116.273ZM114.041 79.2571V95.4571H116.273V94.5031H127.091V95.4571H129.431V79.2571H114.041Z" fill="white"/>
<path d="M140.951 81.8131V81.0211H142.283V81.8131H140.951ZM145.631 81.0211V81.8131H144.191V81.0211H145.631ZM142.283 83.6851H138.431V85.1071H148.115V83.6851H144.191V83.0371H147.485V79.7971H144.191V78.6631H142.283V79.7971H139.187V83.0371H142.283V83.6851ZM141.167 90.5971H145.361V91.2991H141.167V90.5971ZM141.167 88.7611H145.361V89.4451H141.167V88.7611ZM141.167 86.9251H145.361V87.5911H141.167V86.9251ZM136.307 85.3231V86.0071H134.057V85.3231H136.307ZM134.057 87.9691V87.2671H136.307V87.9691H134.057ZM134.309 81.8311C134.687 81.2911 135.029 80.7691 135.299 80.2831C135.749 80.7331 136.217 81.2911 136.631 81.8311H134.309ZM147.359 92.5231V85.7191H139.259V92.5231H140.843C140.213 93.0631 139.205 93.5671 138.179 93.9451V92.3431H134.057V91.5871H137.999V90.0391H134.057V89.3371H138.035V83.9731H132.437C132.923 83.5231 133.355 83.0371 133.733 82.5691V83.2711H137.027V82.3711C137.261 82.7131 137.477 83.0371 137.639 83.3071L138.917 81.8851C138.341 80.9311 137.063 79.6171 136.037 78.6811H134.039C133.481 79.9771 132.473 81.5971 131.015 82.8211C131.429 83.0551 132.005 83.6131 132.311 84.0091V95.4211H134.057V93.9451H138.179C137.999 94.0171 137.819 94.0711 137.639 94.1251C138.071 94.4851 138.773 95.2411 139.043 95.6011C140.393 95.0431 141.923 94.0711 142.841 93.0451L141.275 92.5231H144.785L143.759 93.3151C144.821 93.9991 146.063 94.9531 146.747 95.6011L148.421 94.6111C147.701 94.0171 146.477 93.1891 145.379 92.5231H147.359Z" fill="white"/>
<path d="M160.139 82.4251L161.363 82.1371C161.309 81.7231 161.129 81.1111 160.931 80.6251C161.651 80.5531 162.371 80.4811 163.055 80.3731L162.569 80.6251C163.073 81.1471 163.577 81.8131 163.973 82.4251H160.139ZM159.311 80.8771C159.473 81.3631 159.635 81.9931 159.671 82.4251H157.151V83.7391H159.635V84.4051H155.747V85.7191H165.701V84.4051H161.615V83.7391H164.009V82.4791C164.225 82.8031 164.387 83.1091 164.513 83.3791L165.989 82.5151C165.665 81.8491 164.981 80.9131 164.243 80.1751C164.567 80.1211 164.855 80.0671 165.143 79.9951L163.811 78.7351C162.353 79.0771 159.977 79.3471 157.781 79.5091L156.467 79.2031C156.107 80.4631 155.495 81.7411 154.739 82.5691C155.153 82.8031 155.945 83.2891 156.305 83.5771C156.863 82.8931 157.421 81.9031 157.853 80.8591C158.591 80.8231 159.365 80.7691 160.157 80.6971L159.311 80.8771ZM156.179 95.3131C156.809 94.5031 157.187 93.2251 157.475 92.1631L155.909 91.5871C155.657 92.6131 155.171 93.8011 154.595 94.5571L156.179 95.3131ZM166.295 94.4491C165.899 93.5671 165.089 92.3251 164.225 91.4251L162.695 92.1451C163.037 92.5411 163.379 92.9911 163.685 93.4591C163.181 93.3511 162.515 93.0991 162.191 92.8831C162.137 93.7291 162.065 93.8731 161.651 93.8731H160.139C159.635 93.8731 159.545 93.8191 159.545 93.4051V91.6951C160.121 92.1271 160.715 92.6311 161.057 93.0091L162.191 91.8931C161.921 91.6231 161.543 91.2991 161.111 90.9931H164.693V89.2291H165.989V87.8251H164.693V86.2231H156.449V87.4471H162.839V87.9871H155.531V88.1131C155.081 87.5371 154.001 86.2411 153.587 85.8271V85.6831H155.243V83.7391H153.587V81.1471C154.271 80.9671 154.937 80.7511 155.513 80.5171L154.163 78.9691C152.993 79.5271 151.049 79.9951 149.321 80.2651C149.537 80.6971 149.807 81.3811 149.879 81.8311C150.437 81.7591 151.013 81.6691 151.589 81.5791V83.7391H149.465V85.6831H151.337C150.815 87.4291 149.951 89.3731 149.069 90.5431C149.393 91.0831 149.861 91.9651 150.041 92.5951C150.599 91.7851 151.121 90.6871 151.589 89.4811V95.4751H153.587V88.0951C153.965 88.7431 154.343 89.4451 154.541 89.9131L155.531 88.5091V89.1211H162.839V89.7691H156.395V90.9931H159.275L158.933 91.2991C159.095 91.3891 159.239 91.4971 159.401 91.6051H157.691V93.4231C157.691 94.9351 158.087 95.4211 159.869 95.4211H161.885C163.073 95.4211 163.577 95.0251 163.775 93.6031C164.171 94.2151 164.477 94.8091 164.657 95.2951L166.295 94.4491Z" fill="white"/>
<path d="M178.139 82.4251L179.363 82.1371C179.309 81.7231 179.129 81.1111 178.931 80.6251C179.651 80.5531 180.371 80.4811 181.055 80.3731L180.569 80.6251C181.073 81.1471 181.577 81.8131 181.973 82.4251H178.139ZM177.311 80.8771C177.473 81.3631 177.635 81.9931 177.671 82.4251H175.151V83.7391H177.635V84.4051H173.747V85.7191H183.701V84.4051H179.615V83.7391H182.009V82.4791C182.225 82.8031 182.387 83.1091 182.513 83.3791L183.989 82.5151C183.665 81.8491 182.981 80.9131 182.243 80.1751C182.567 80.1211 182.855 80.0671 183.143 79.9951L181.811 78.7351C180.353 79.0771 177.977 79.3471 175.781 79.5091L174.467 79.2031C174.107 80.4631 173.495 81.7411 172.739 82.5691C173.153 82.8031 173.945 83.2891 174.305 83.5771C174.863 82.8931 175.421 81.9031 175.853 80.8591C176.591 80.8231 177.365 80.7691 178.157 80.6971L177.311 80.8771ZM174.179 95.3131C174.809 94.5031 175.187 93.2251 175.475 92.1631L173.909 91.5871C173.657 92.6131 173.171 93.8011 172.595 94.5571L174.179 95.3131ZM184.295 94.4491C183.899 93.5671 183.089 92.3251 182.225 91.4251L180.695 92.1451C181.037 92.5411 181.379 92.9911 181.685 93.4591C181.181 93.3511 180.515 93.0991 180.191 92.8831C180.137 93.7291 180.065 93.8731 179.651 93.8731H178.139C177.635 93.8731 177.545 93.8191 177.545 93.4051V91.6951C178.121 92.1271 178.715 92.6311 179.057 93.0091L180.191 91.8931C179.921 91.6231 179.543 91.2991 179.111 90.9931H182.693V89.2291H183.989V87.8251H182.693V86.2231H174.449V87.4471H180.839V87.9871H173.531V88.1131C173.081 87.5371 172.001 86.2411 171.587 85.8271V85.6831H173.243V83.7391H171.587V81.1471C172.271 80.9671 172.937 80.7511 173.513 80.5171L172.163 78.9691C170.993 79.5271 169.049 79.9951 167.321 80.2651C167.537 80.6971 167.807 81.3811 167.879 81.8311C168.437 81.7591 169.013 81.6691 169.589 81.5791V83.7391H167.465V85.6831H169.337C168.815 87.4291 167.951 89.3731 167.069 90.5431C167.393 91.0831 167.861 91.9651 168.041 92.5951C168.599 91.7851 169.121 90.6871 169.589 89.4811V95.4751H171.587V88.0951C171.965 88.7431 172.343 89.4451 172.541 89.9131L173.531 88.5091V89.1211H180.839V89.7691H174.395V90.9931H177.275L176.933 91.2991C177.095 91.3891 177.239 91.4971 177.401 91.6051H175.691V93.4231C175.691 94.9351 176.087 95.4211 177.869 95.4211H179.885C181.073 95.4211 181.577 95.0251 181.775 93.6031C182.171 94.2151 182.477 94.8091 182.657 95.2951L184.295 94.4491Z" fill="white"/>
<path d="M190.991 81.7771C192.017 81.2731 192.935 80.7151 193.619 80.1751C194.339 80.7331 195.293 81.2911 196.319 81.7771H190.991ZM189.677 83.0371H197.885V82.4611C198.947 82.8751 200.045 83.2351 200.999 83.4691C201.305 82.9291 201.755 82.2091 202.169 81.7231C199.451 81.2371 196.589 80.2291 194.519 78.6811H192.575C191.027 79.9951 188.111 81.2551 185.249 81.8851C185.609 82.2991 186.059 83.0731 186.275 83.5591C187.409 83.2531 188.579 82.8391 189.677 82.3711V83.0371ZM190.235 84.8551H197.075V85.6651H190.235V84.8551ZM188.237 86.9251H199.199V83.6131H188.237V86.9251ZM194.789 90.8851H200.711V89.4271H194.789V88.6711C196.661 88.5631 198.425 88.3831 199.883 88.1311L198.497 86.9791C195.959 87.4111 191.207 87.5911 187.247 87.5731C187.409 87.8791 187.553 88.4911 187.589 88.8511C189.209 88.8691 190.955 88.8511 192.683 88.7791V89.4271H186.869V90.8851H192.683V91.5151H185.555V92.9731H192.683V93.5311C192.683 93.7831 192.575 93.8551 192.287 93.8731C192.035 93.8731 190.973 93.8731 190.091 93.8371C190.361 94.2871 190.667 94.9711 190.793 95.4751C192.161 95.4931 193.133 95.4751 193.853 95.2231C194.573 94.9711 194.789 94.5571 194.789 93.5851V92.9731H201.917V91.5151H194.789V90.8851Z" fill="white"/>
<path d="M93.9173 87.3571H86.8433V81.9031H92.8733V79.7791H78.5453V81.9031H84.6113V87.3571H77.6093V89.5171H84.6113V95.4751H86.8433V89.5171H93.9173V87.3571ZM79.6433 83.0551C80.2193 84.2611 80.7773 85.8271 80.9573 86.7991L83.0453 86.1511C82.8473 85.1431 82.1993 83.6311 81.6053 82.4791L79.6433 83.0551ZM90.1553 86.7631C90.7673 85.8451 91.4873 84.3871 92.1353 83.0011L89.8493 82.4251C89.5073 83.5951 88.8593 85.1791 88.2833 86.2231L90.1553 86.7631Z" stroke="#23B2BD" stroke-width="6.54545" stroke-linejoin="round" mask="url(#path-30-outside-1)"/>
<path d="M99.5333 81.6691V84.8371H97.8773V81.6691H99.5333ZM97.8773 90.0931V86.7091H99.5333V90.0931H97.8773ZM101.531 79.7611H95.8973V93.5851H97.8773V92.0011H101.531V79.7611ZM102.593 90.4891C103.403 91.4071 104.321 92.6851 104.645 93.5131L106.481 92.4511C106.103 91.5691 105.131 90.3811 104.303 89.4991L102.593 90.4891ZM112.115 85.8811V84.0091H108.011V82.4251H111.611V80.5531H108.011V78.6631H105.905V80.5531H102.449V82.4251H105.905V84.0091H101.837V85.8811H108.191V87.4291H101.873V89.2831H108.191V93.1531C108.191 93.4051 108.101 93.4771 107.813 93.4771C107.543 93.4771 106.535 93.4771 105.671 93.4411C105.959 94.0171 106.283 94.8631 106.355 95.4571C107.687 95.4571 108.659 95.4031 109.361 95.0971C110.063 94.7731 110.261 94.2331 110.261 93.2071V89.2831H111.989V87.4291H110.261V85.8811H112.115Z" stroke="#23B2BD" stroke-width="6.54545" stroke-linejoin="round" mask="url(#path-30-outside-1)"/>
<path d="M123.185 88.5631H120.017V85.4491H123.185V88.5631ZM118.001 83.5771V90.4171H125.345V83.5771H118.001ZM116.273 92.5051V81.4531H127.091V92.5051H116.273ZM114.041 79.2571V95.4571H116.273V94.5031H127.091V95.4571H129.431V79.2571H114.041Z" stroke="#23B2BD" stroke-width="6.54545" stroke-linejoin="round" mask="url(#path-30-outside-1)"/>
<path d="M140.951 81.8131V81.0211H142.283V81.8131H140.951ZM145.631 81.0211V81.8131H144.191V81.0211H145.631ZM142.283 83.6851H138.431V85.1071H148.115V83.6851H144.191V83.0371H147.485V79.7971H144.191V78.6631H142.283V79.7971H139.187V83.0371H142.283V83.6851ZM141.167 90.5971H145.361V91.2991H141.167V90.5971ZM141.167 88.7611H145.361V89.4451H141.167V88.7611ZM141.167 86.9251H145.361V87.5911H141.167V86.9251ZM136.307 85.3231V86.0071H134.057V85.3231H136.307ZM134.057 87.9691V87.2671H136.307V87.9691H134.057ZM134.309 81.8311C134.687 81.2911 135.029 80.7691 135.299 80.2831C135.749 80.7331 136.217 81.2911 136.631 81.8311H134.309ZM147.359 92.5231V85.7191H139.259V92.5231H140.843C140.213 93.0631 139.205 93.5671 138.179 93.9451V92.3431H134.057V91.5871H137.999V90.0391H134.057V89.3371H138.035V83.9731H132.437C132.923 83.5231 133.355 83.0371 133.733 82.5691V83.2711H137.027V82.3711C137.261 82.7131 137.477 83.0371 137.639 83.3071L138.917 81.8851C138.341 80.9311 137.063 79.6171 136.037 78.6811H134.039C133.481 79.9771 132.473 81.5971 131.015 82.8211C131.429 83.0551 132.005 83.6131 132.311 84.0091V95.4211H134.057V93.9451H138.179C137.999 94.0171 137.819 94.0711 137.639 94.1251C138.071 94.4851 138.773 95.2411 139.043 95.6011C140.393 95.0431 141.923 94.0711 142.841 93.0451L141.275 92.5231H144.785L143.759 93.3151C144.821 93.9991 146.063 94.9531 146.747 95.6011L148.421 94.6111C147.701 94.0171 146.477 93.1891 145.379 92.5231H147.359Z" stroke="#23B2BD" stroke-width="6.54545" stroke-linejoin="round" mask="url(#path-30-outside-1)"/>
<path d="M160.139 82.4251L161.363 82.1371C161.309 81.7231 161.129 81.1111 160.931 80.6251C161.651 80.5531 162.371 80.4811 163.055 80.3731L162.569 80.6251C163.073 81.1471 163.577 81.8131 163.973 82.4251H160.139ZM159.311 80.8771C159.473 81.3631 159.635 81.9931 159.671 82.4251H157.151V83.7391H159.635V84.4051H155.747V85.7191H165.701V84.4051H161.615V83.7391H164.009V82.4791C164.225 82.8031 164.387 83.1091 164.513 83.3791L165.989 82.5151C165.665 81.8491 164.981 80.9131 164.243 80.1751C164.567 80.1211 164.855 80.0671 165.143 79.9951L163.811 78.7351C162.353 79.0771 159.977 79.3471 157.781 79.5091L156.467 79.2031C156.107 80.4631 155.495 81.7411 154.739 82.5691C155.153 82.8031 155.945 83.2891 156.305 83.5771C156.863 82.8931 157.421 81.9031 157.853 80.8591C158.591 80.8231 159.365 80.7691 160.157 80.6971L159.311 80.8771ZM156.179 95.3131C156.809 94.5031 157.187 93.2251 157.475 92.1631L155.909 91.5871C155.657 92.6131 155.171 93.8011 154.595 94.5571L156.179 95.3131ZM166.295 94.4491C165.899 93.5671 165.089 92.3251 164.225 91.4251L162.695 92.1451C163.037 92.5411 163.379 92.9911 163.685 93.4591C163.181 93.3511 162.515 93.0991 162.191 92.8831C162.137 93.7291 162.065 93.8731 161.651 93.8731H160.139C159.635 93.8731 159.545 93.8191 159.545 93.4051V91.6951C160.121 92.1271 160.715 92.6311 161.057 93.0091L162.191 91.8931C161.921 91.6231 161.543 91.2991 161.111 90.9931H164.693V89.2291H165.989V87.8251H164.693V86.2231H156.449V87.4471H162.839V87.9871H155.531V88.1131C155.081 87.5371 154.001 86.2411 153.587 85.8271V85.6831H155.243V83.7391H153.587V81.1471C154.271 80.9671 154.937 80.7511 155.513 80.5171L154.163 78.9691C152.993 79.5271 151.049 79.9951 149.321 80.2651C149.537 80.6971 149.807 81.3811 149.879 81.8311C150.437 81.7591 151.013 81.6691 151.589 81.5791V83.7391H149.465V85.6831H151.337C150.815 87.4291 149.951 89.3731 149.069 90.5431C149.393 91.0831 149.861 91.9651 150.041 92.5951C150.599 91.7851 151.121 90.6871 151.589 89.4811V95.4751H153.587V88.0951C153.965 88.7431 154.343 89.4451 154.541 89.9131L155.531 88.5091V89.1211H162.839V89.7691H156.395V90.9931H159.275L158.933 91.2991C159.095 91.3891 159.239 91.4971 159.401 91.6051H157.691V93.4231C157.691 94.9351 158.087 95.4211 159.869 95.4211H161.885C163.073 95.4211 163.577 95.0251 163.775 93.6031C164.171 94.2151 164.477 94.8091 164.657 95.2951L166.295 94.4491Z" stroke="#23B2BD" stroke-width="6.54545" stroke-linejoin="round" mask="url(#path-30-outside-1)"/>
<path d="M178.139 82.4251L179.363 82.1371C179.309 81.7231 179.129 81.1111 178.931 80.6251C179.651 80.5531 180.371 80.4811 181.055 80.3731L180.569 80.6251C181.073 81.1471 181.577 81.8131 181.973 82.4251H178.139ZM177.311 80.8771C177.473 81.3631 177.635 81.9931 177.671 82.4251H175.151V83.7391H177.635V84.4051H173.747V85.7191H183.701V84.4051H179.615V83.7391H182.009V82.4791C182.225 82.8031 182.387 83.1091 182.513 83.3791L183.989 82.5151C183.665 81.8491 182.981 80.9131 182.243 80.1751C182.567 80.1211 182.855 80.0671 183.143 79.9951L181.811 78.7351C180.353 79.0771 177.977 79.3471 175.781 79.5091L174.467 79.2031C174.107 80.4631 173.495 81.7411 172.739 82.5691C173.153 82.8031 173.945 83.2891 174.305 83.5771C174.863 82.8931 175.421 81.9031 175.853 80.8591C176.591 80.8231 177.365 80.7691 178.157 80.6971L177.311 80.8771ZM174.179 95.3131C174.809 94.5031 175.187 93.2251 175.475 92.1631L173.909 91.5871C173.657 92.6131 173.171 93.8011 172.595 94.5571L174.179 95.3131ZM184.295 94.4491C183.899 93.5671 183.089 92.3251 182.225 91.4251L180.695 92.1451C181.037 92.5411 181.379 92.9911 181.685 93.4591C181.181 93.3511 180.515 93.0991 180.191 92.8831C180.137 93.7291 180.065 93.8731 179.651 93.8731H178.139C177.635 93.8731 177.545 93.8191 177.545 93.4051V91.6951C178.121 92.1271 178.715 92.6311 179.057 93.0091L180.191 91.8931C179.921 91.6231 179.543 91.2991 179.111 90.9931H182.693V89.2291H183.989V87.8251H182.693V86.2231H174.449V87.4471H180.839V87.9871H173.531V88.1131C173.081 87.5371 172.001 86.2411 171.587 85.8271V85.6831H173.243V83.7391H171.587V81.1471C172.271 80.9671 172.937 80.7511 173.513 80.5171L172.163 78.9691C170.993 79.5271 169.049 79.9951 167.321 80.2651C167.537 80.6971 167.807 81.3811 167.879 81.8311C168.437 81.7591 169.013 81.6691 169.589 81.5791V83.7391H167.465V85.6831H169.337C168.815 87.4291 167.951 89.3731 167.069 90.5431C167.393 91.0831 167.861 91.9651 168.041 92.5951C168.599 91.7851 169.121 90.6871 169.589 89.4811V95.4751H171.587V88.0951C171.965 88.7431 172.343 89.4451 172.541 89.9131L173.531 88.5091V89.1211H180.839V89.7691H174.395V90.9931H177.275L176.933 91.2991C177.095 91.3891 177.239 91.4971 177.401 91.6051H175.691V93.4231C175.691 94.9351 176.087 95.4211 177.869 95.4211H179.885C181.073 95.4211 181.577 95.0251 181.775 93.6031C182.171 94.2151 182.477 94.8091 182.657 95.2951L184.295 94.4491Z" stroke="#23B2BD" stroke-width="6.54545" stroke-linejoin="round" mask="url(#path-30-outside-1)"/>
<path d="M190.991 81.7771C192.017 81.2731 192.935 80.7151 193.619 80.1751C194.339 80.7331 195.293 81.2911 196.319 81.7771H190.991ZM189.677 83.0371H197.885V82.4611C198.947 82.8751 200.045 83.2351 200.999 83.4691C201.305 82.9291 201.755 82.2091 202.169 81.7231C199.451 81.2371 196.589 80.2291 194.519 78.6811H192.575C191.027 79.9951 188.111 81.2551 185.249 81.8851C185.609 82.2991 186.059 83.0731 186.275 83.5591C187.409 83.2531 188.579 82.8391 189.677 82.3711V83.0371ZM190.235 84.8551H197.075V85.6651H190.235V84.8551ZM188.237 86.9251H199.199V83.6131H188.237V86.9251ZM194.789 90.8851H200.711V89.4271H194.789V88.6711C196.661 88.5631 198.425 88.3831 199.883 88.1311L198.497 86.9791C195.959 87.4111 191.207 87.5911 187.247 87.5731C187.409 87.8791 187.553 88.4911 187.589 88.8511C189.209 88.8691 190.955 88.8511 192.683 88.7791V89.4271H186.869V90.8851H192.683V91.5151H185.555V92.9731H192.683V93.5311C192.683 93.7831 192.575 93.8551 192.287 93.8731C192.035 93.8731 190.973 93.8731 190.091 93.8371C190.361 94.2871 190.667 94.9711 190.793 95.4751C192.161 95.4931 193.133 95.4751 193.853 95.2231C194.573 94.9711 194.789 94.5571 194.789 93.5851V92.9731H201.917V91.5151H194.789V90.8851Z" stroke="#23B2BD" stroke-width="6.54545" stroke-linejoin="round" mask="url(#path-30-outside-1)"/>
</svg>
