<svg width="19" height="22" viewBox="0 0 19 22" fill="none" xmlns="http://www.w3.org/2000/svg">
<path d="M17.331 9.27855C17.638 9.45518 17.7878 9.81624 17.6959 10.1583L17.2499 11.8198L2.33732 20.7645C1.72557 21.1315 0.983216 20.5518 1.19084 19.8694L1.38512 19.2308C3.08413 13.646 2.80751 7.64643 0.601822 2.24169L0.940125 0.981391C1.07314 0.485848 1.63959 0.250862 2.08433 0.50673L17.331 9.27855Z" fill="#F04928"/>
<path d="M16.9034 10.7378C17.418 11.0397 17.418 11.7838 16.9034 12.0857L1.72067 20.9917C1.14805 21.3276 0.471564 20.7564 0.706748 20.1356C2.83618 14.5146 2.83618 8.3089 0.706747 2.68794C0.471563 2.06713 1.14805 1.49593 1.72067 1.83182L16.9034 10.7378Z" fill="#FFC232"/>
<line x1="0.585972" y1="-0.585972" x2="6.25806" y2="-0.585972" transform="matrix(-0.879218 0.47642 -0.464787 -0.885422 13.6394 11.0043)" stroke="#E8F4FF" stroke-width="1.17194" stroke-linecap="round"/>
</svg>
