<svg width="356" height="588" viewBox="0 0 356 588" fill="none" xmlns="http://www.w3.org/2000/svg">
<path d="M3 20C3 10.6112 10.6112 3 20 3H335C344.389 3 352 10.6112 352 20V514.724C352 520.031 349.522 525.033 345.301 528.248L323.383 544.944C322.492 545.622 321.653 546.364 320.87 547.165L289.874 578.882C286.676 582.155 282.292 584 277.716 584H20C10.6111 584 3 576.389 3 567V20Z" fill="#EDF4FF" stroke="#72A4EF" stroke-width="6"/>
<path d="M286.284 534.823C287.034 526.026 294.394 519.267 303.223 519.267L345.399 519.267C346.308 519.267 346.745 520.381 346.08 521L284.317 578.39C283.647 579.013 282.562 578.484 282.64 577.573L286.284 534.823Z" fill="#B3D1FF" stroke="#72A4EF" stroke-width="6"/>
<circle cx="311" cy="34" r="16.5" fill="#72A4EF" stroke="#418BF9" stroke-width="3"/>
<path fill-rule="evenodd" clip-rule="evenodd" d="M311 35.6057L306.126 40.48L304.52 38.8743L309.395 34L304.52 29.1257L306.126 27.52L311 32.3943L315.875 27.52L317.48 29.1257L312.606 34L317.48 38.8743L315.875 40.48L311 35.6057Z" fill="#EDF4FF"/>
</svg>
