<svg width="345" height="148" viewBox="0 0 345 148" fill="none" xmlns="http://www.w3.org/2000/svg">
<path d="M304.255 107.837V129.506H54.6588L69.217 119.655C79.9447 112.396 87.3718 101.195 89.8827 88.4874L90.5804 84.9564H332.374L304.561 107.2L304.255 107.445V107.837Z" fill="#006FA9" stroke="#284273" stroke-width="1.63003"/>
<path d="M94.8672 80.815H342.037L329.772 90.6242C319.751 98.6381 313.918 110.773 313.918 123.604V125.365H67.2508L75.1226 120.413C87.4107 112.684 94.8672 99.1843 94.8672 84.6673V80.815Z" fill="#6BC4CB" stroke="#284273" stroke-width="1.63003"/>
<path d="M248.183 114.28L248.059 115.792H249.576H253.92H255.227L255.314 114.488C255.422 112.862 255.702 111.232 256.156 109.597C256.639 107.927 257.193 106.377 257.817 104.945C258.466 103.48 259.136 102.188 259.825 101.063C260.548 99.914 261.178 99.0625 261.712 98.4777L262.078 98.0773V97.5349V94.4276V93.0304H260.681H246.727H245.33V94.4276V98.0815V99.4787H246.727H252.862C252.624 99.9056 252.388 100.353 252.154 100.819C251.476 102.155 250.861 103.576 250.307 105.079L250.304 105.087L250.302 105.094C249.767 106.599 249.312 108.132 248.936 109.695C248.557 111.272 248.305 112.801 248.183 114.28Z" fill="white" stroke="black" stroke-width="2.79434"/>
<path d="M265.046 111.16C265.8 111.946 266.785 112.296 267.849 112.308L266.419 114.843L265.244 116.926H267.636H269.636H270.452L270.853 116.216L271.502 115.065C271.665 115.405 271.879 115.723 272.152 116.008C272.921 116.808 273.929 117.157 275.016 117.157C276.104 117.157 277.111 116.808 277.88 116.008C278.668 115.187 278.96 114.1 278.96 112.969C278.96 111.838 278.668 110.751 277.88 109.93C277.119 109.137 276.123 108.788 275.048 108.781L276.478 106.247L277.653 104.163H275.261H273.261H272.445L272.044 104.874L271.41 105.997C271.249 105.667 271.04 105.359 270.773 105.082C270.005 104.281 268.997 103.933 267.91 103.933C266.822 103.933 265.814 104.281 265.046 105.082C264.258 105.903 263.966 106.99 263.966 108.121C263.966 109.252 264.258 110.339 265.046 111.16ZM267.404 107.804C267.404 107.804 267.404 107.805 267.405 107.806L267.404 107.804ZM268.419 108.472C268.419 108.473 268.419 108.474 268.419 108.474L268.419 108.472ZM268.416 107.784C268.417 107.782 268.417 107.781 268.417 107.781C268.417 107.781 268.417 107.782 268.416 107.784ZM274.511 112.652C274.511 112.652 274.511 112.653 274.511 112.654L274.511 112.652ZM275.525 113.32C275.526 113.321 275.526 113.322 275.526 113.322L275.525 113.32ZM275.523 112.632C275.523 112.63 275.523 112.629 275.523 112.629C275.523 112.629 275.523 112.63 275.523 112.632Z" fill="white" stroke="black" stroke-width="2.79434"/>
<path d="M97.4893 103.802V106.4H116.018V103.802H97.4893Z" fill="black"/>
<path d="M124.859 101.486C125.302 102.271 125.665 103.339 125.765 104.024L127.276 103.419C127.155 102.714 126.732 101.687 126.249 100.922L124.859 101.486ZM124.658 100.459H127.518V104.346C126.531 104.447 125.564 104.547 124.658 104.628V100.459ZM130.357 105.876L130.297 104.044L129.451 104.144V98.606H126.813C127.095 97.9212 127.417 97.0955 127.719 96.2698L125.161 95.867C125.081 96.6726 124.839 97.74 124.618 98.606H122.785V104.809L121.375 104.93L121.617 106.843L122.785 106.722C122.745 109.018 122.543 111.717 121.375 113.63C121.838 113.832 122.644 114.355 122.986 114.678C124.336 112.523 124.618 109.159 124.658 106.501L127.518 106.199V112.523C127.518 112.764 127.457 112.845 127.216 112.845C127.014 112.845 126.35 112.845 125.705 112.825C125.947 113.328 126.209 114.174 126.269 114.698C127.417 114.698 128.162 114.657 128.726 114.335C129.31 113.993 129.451 113.469 129.451 112.563V105.977L130.357 105.876ZM126.692 106.763H125.322V111.354H126.692V106.763ZM136.681 106.481C136.258 107.588 135.654 108.575 134.909 109.421C134.204 108.555 133.66 107.568 133.257 106.481H136.681ZM138.031 104.306L137.648 104.386H131.606C133.257 103.097 133.58 101.003 133.58 99.2907V98.6865H135.715V101.083C135.715 102.332 135.855 102.775 136.178 103.097C136.5 103.44 137.044 103.601 137.527 103.601H138.574C138.937 103.601 139.38 103.52 139.662 103.359C139.964 103.218 140.206 102.936 140.347 102.553C140.488 102.191 140.568 101.305 140.629 100.479C140.045 100.298 139.299 99.9151 138.917 99.5928C138.897 100.358 138.876 100.982 138.836 101.264C138.796 101.526 138.756 101.647 138.675 101.687C138.615 101.748 138.514 101.768 138.413 101.768H138.091C138.01 101.768 137.93 101.748 137.89 101.667C137.849 101.607 137.869 101.405 137.869 101.063V96.6121H131.465V99.2505C131.465 100.479 131.324 101.949 129.894 103.057C130.337 103.319 131.203 104.024 131.566 104.386H130.72V106.481H133.177L131.324 106.904C131.848 108.414 132.532 109.723 133.378 110.851C132.311 111.677 131.042 112.301 129.652 112.704C130.096 113.187 130.659 114.114 130.921 114.698C132.432 114.154 133.801 113.449 134.969 112.523C136.117 113.489 137.507 114.214 139.179 114.678C139.501 114.073 140.105 113.167 140.608 112.704C139.038 112.361 137.708 111.757 136.601 110.972C137.95 109.401 138.957 107.367 139.541 104.809L138.031 104.306Z" fill="black"/>
<path d="M161.896 96.3503C161.493 97.5587 160.728 99.1699 160.124 100.197L162.198 100.962C162.823 100.016 163.588 98.5858 164.232 97.1761L161.896 96.3503ZM148.282 114.597C149.369 112.563 150.477 110.247 151.403 108.092L149.631 106.642C148.544 108.998 147.174 111.536 146.167 113.066L148.282 114.597ZM150.658 103.661C149.853 102.916 148.221 101.949 146.973 101.365L145.623 103.057C146.892 103.721 148.483 104.769 149.228 105.534L150.658 103.661ZM146.55 97.74C147.778 98.4046 149.349 99.4519 150.054 100.217L151.544 98.3643C150.759 97.599 149.188 96.6323 147.939 96.0684L146.55 97.74ZM155.915 100.116C155.613 99.0692 154.747 97.599 153.941 96.4913L151.927 97.3775C152.712 98.5456 153.498 100.116 153.74 101.103L155.915 100.116ZM154.908 108.716V107.206H161.01V108.716H154.908ZM161.01 103.721V105.192H154.908V103.721H161.01ZM163.346 101.486H159.238V95.8871H156.821V101.486H152.551V114.657H154.908V110.73H161.01V112.059C161.01 112.321 160.909 112.422 160.607 112.442C160.285 112.442 159.238 112.442 158.311 112.382C158.634 113.006 158.956 113.993 159.036 114.637C160.547 114.637 161.634 114.617 162.38 114.234C163.145 113.872 163.346 113.248 163.346 112.079V101.486Z" fill="black"/>
<path d="M175.007 109.441H183.667V110.267H175.007V109.441ZM180.324 102.574V103.903H176.659C177.102 103.5 177.424 103.057 177.645 102.574H180.324ZM173.839 100.378H175.893C175.893 100.66 175.853 100.922 175.772 101.164H173.577L173.839 100.378ZM178.089 98.183H180.324V98.9886H178.089V98.183ZM184.694 98.183V98.9886H182.6V98.183H184.694ZM180.324 101.164H178.028C178.048 100.902 178.068 100.64 178.089 100.378H180.324V101.164ZM185.822 102.574C185.782 102.876 185.722 103.057 185.641 103.158C185.52 103.299 185.399 103.299 185.218 103.299C184.996 103.319 184.574 103.299 184.11 103.238C184.191 103.419 184.292 103.661 184.352 103.903H182.6V102.574H185.822ZM183.667 106.058H175.007V105.272H183.667V106.058ZM183.667 108.152H175.007V107.347H183.667V108.152ZM186.104 111.636V104.688C186.225 104.688 186.326 104.668 186.406 104.668C186.829 104.648 187.272 104.487 187.574 104.185C187.917 103.822 188.038 103.097 188.138 101.788C188.158 101.567 188.179 101.164 188.179 101.164H182.6V100.378H186.869V96.7733H182.6V95.9073H180.324V96.7733H178.089V95.9073H175.913V96.7733H171.342V98.183H175.913V98.9886H172.087C171.745 100.177 171.261 101.627 170.818 102.614L172.993 102.755L173.054 102.574H174.826C174 103.238 172.55 103.742 170.053 104.064C170.415 104.507 170.979 105.413 171.181 105.917C171.724 105.836 172.208 105.756 172.671 105.655V111.636H175.41C174 112.22 171.946 112.724 170.073 113.046C170.576 113.449 171.422 114.295 171.805 114.758C173.859 114.255 176.417 113.348 178.089 112.361L176.498 111.636H181.875L180.344 112.583C182.439 113.268 184.533 114.114 185.722 114.718L188.38 113.57C187.111 113.026 184.996 112.261 183.063 111.636H186.104Z" fill="black"/>
<path d="M207.634 98.8879H199.094V98.0622H207.634V98.8879ZM207.634 101.184H199.094V100.338H207.634V101.184ZM210.03 96.5316H196.798V102.714H210.03V96.5316ZM208.882 107.931C208.52 108.656 208.057 109.32 207.513 109.904C206.969 109.32 206.506 108.656 206.163 107.931H208.882ZM198.208 110.327H200.826V111.113C199.94 111.193 199.054 111.254 198.208 111.314V110.327ZM198.208 107.83H200.826V108.676H198.208V107.83ZM200.826 105.353V106.158H198.208V105.353H200.826ZM210.292 106.017L209.889 106.098H203.626V107.931H205.479L204.149 108.293C204.633 109.401 205.257 110.408 205.982 111.274C205.136 111.898 204.149 112.382 203.122 112.724V105.353H212.346V103.46H194.442V105.353H196.013V111.475C195.389 111.536 194.784 111.556 194.261 111.596L194.442 113.65C196.214 113.489 198.51 113.288 200.826 113.066V114.698H203.122V113.066C203.525 113.55 203.968 114.214 204.19 114.678C205.438 114.214 206.586 113.59 207.613 112.805C208.681 113.63 209.93 114.255 211.359 114.678C211.682 114.114 212.306 113.248 212.769 112.805C211.44 112.482 210.232 111.979 209.225 111.314C210.352 110.045 211.218 108.474 211.762 106.581L210.292 106.017Z" fill="black"/>
<path d="M229.284 111.435H225.8V110.126H229.284V111.435ZM235.729 105.635H219.576V114.698H221.913V107.629H233.312V112.12C233.312 112.361 233.231 112.422 232.929 112.442C232.708 112.462 232.083 112.462 231.398 112.442V108.535H223.705V113.952H225.8V113.046H230.996C231.217 113.57 231.398 114.194 231.459 114.657C232.909 114.657 233.976 114.637 234.722 114.275C235.507 113.912 235.729 113.268 235.729 112.16V105.635ZM230.633 103.178H224.35V101.949H230.633V103.178ZM222.074 100.358V104.789H233.07V100.358H222.074ZM228.659 97.5587V95.867H226.223V97.5587H218.771V99.5928H236.373V97.5587H228.659Z" fill="black"/>
<path d="M36.5081 68.2373V38.7342H277.04L274.838 40.3662C262.064 49.8356 255.692 65.6781 258.352 81.3554L258.884 84.4946H8.7619L36.0961 68.9458L36.5081 68.7114V68.2373Z" fill="#F04928" stroke="black" stroke-width="1.63003"/>
<path d="M30.8211 33.6835H280.857L275.06 36.7078C259.405 44.8758 250.673 62.0405 253.215 79.4439H3.08111L4.06247 78.8856C20.3718 69.6082 30.534 52.4042 30.8211 33.6835Z" fill="#FFC232" stroke="black" stroke-width="1.63003"/>
<path d="M184.295 49.8075L183.029 50.3315L183.528 51.6077L184.823 54.9163L185.311 56.1631L186.577 55.7289C187.278 55.4886 187.994 55.2102 188.726 54.8944V66.8939V68.291H190.123H194.41H195.807V66.8939V46.9555V45.5583H194.41H191.418H190.821L190.408 45.9898C190.045 46.3696 189.625 46.7406 189.144 47.1012C188.66 47.4595 188.148 47.8105 187.606 48.1541C187.069 48.4758 186.513 48.7805 185.939 49.068C185.369 49.3434 184.821 49.5897 184.295 49.8075ZM207.935 60.2447L207.941 60.2564L207.948 60.268C208.054 60.4469 208.128 60.684 208.128 61.0246C208.128 61.2831 208.042 61.5423 207.707 61.8481C207.485 62.0357 206.939 62.2743 205.756 62.2743C204.746 62.2743 203.928 62.1858 203.283 62.03C202.54 61.8302 201.987 61.642 201.6 61.472L200.039 60.7849L199.673 62.4513L198.896 65.9901L198.663 67.0528L199.636 67.5393C199.986 67.7143 200.413 67.8578 200.871 67.9829C201.332 68.1085 201.834 68.221 202.375 68.3217C202.95 68.444 203.533 68.536 204.125 68.598C204.747 68.6801 205.349 68.7226 205.929 68.7226C207.36 68.7226 208.666 68.547 209.819 68.163C210.959 67.7899 211.96 67.2553 212.78 66.5317C213.588 65.8187 214.204 64.9637 214.613 63.9765C215.015 63.007 215.209 61.9699 215.209 60.8807C215.209 58.5408 214.403 56.5683 212.698 55.1508C211.321 53.9771 209.418 53.2948 207.129 52.9839C207.136 52.881 207.143 52.7762 207.149 52.6696C207.17 52.4318 207.19 52.1916 207.208 51.9491H213.093H214.49V50.5519V46.9555V45.5583H213.093H202.303H200.971L200.908 46.889C200.832 48.487 200.727 50.2014 200.594 52.0327C200.461 53.8537 200.29 55.6455 200.082 57.4079L199.897 58.9692H201.469C203.004 58.9692 204.234 59.0445 205.177 59.1843C206.143 59.3274 206.82 59.5214 207.263 59.729C207.702 59.9346 207.869 60.1289 207.935 60.2447Z" fill="white" stroke="black" stroke-width="2.79434"/>
<path d="M220.387 62.2204C221.142 63.0061 222.126 63.3562 223.191 63.3689L221.761 65.9033L220.585 67.987H222.978H224.977H225.793L226.194 67.2764L226.844 66.1255C227.006 66.4657 227.22 66.7831 227.494 67.0683C228.262 67.8688 229.27 68.2172 230.358 68.2172C231.445 68.2172 232.453 67.8688 233.221 67.0683C234.009 66.2473 234.301 65.1603 234.301 64.0292C234.301 62.8982 234.009 61.8111 233.221 60.9901C232.46 60.1974 231.465 59.8481 230.389 59.8414L231.819 57.3072L232.995 55.2235H230.602H228.602H227.787L227.386 55.9341L226.752 57.0576C226.591 56.7278 226.381 56.4198 226.115 56.1422C225.346 55.3417 224.339 54.9933 223.251 54.9933C222.164 54.9933 221.156 55.3417 220.387 56.1422C219.599 56.9632 219.308 58.0502 219.308 59.1813C219.308 60.3124 219.599 61.3994 220.387 62.2204ZM222.746 58.8648C222.746 58.8648 222.746 58.8655 222.746 58.8668L222.746 58.8648ZM223.76 59.5325C223.761 59.5336 223.761 59.5342 223.761 59.5342L223.76 59.5325ZM223.758 58.8444C223.758 58.8428 223.758 58.842 223.758 58.842C223.758 58.842 223.758 58.8428 223.758 58.8444ZM229.852 63.7128C229.852 63.7128 229.852 63.7134 229.853 63.7148L229.852 63.7128ZM230.867 64.3804C230.867 64.3816 230.867 64.3821 230.867 64.3822L230.867 64.3804ZM230.864 63.6924C230.865 63.6907 230.865 63.6899 230.865 63.6899C230.865 63.6899 230.865 63.6908 230.864 63.6924Z" fill="white" stroke="black" stroke-width="2.79434"/>
<path d="M37.9046 61.7566C37.8039 63.4483 37.6025 65.2408 37.099 66.429C37.5421 66.5901 38.3477 66.9526 38.7303 67.1943C39.2137 65.9255 39.556 63.9317 39.7172 62.0385L37.9046 61.7566ZM41.7916 62.1795C42.1742 63.3678 42.577 64.8984 42.6979 65.9255L44.3695 65.3616C44.2083 64.3546 43.7854 62.8643 43.3826 61.6962L41.7916 62.1795ZM40.4019 58.6148C40.6839 58.1918 40.986 57.7488 41.2679 57.2856C41.4492 57.6883 41.6304 58.1113 41.8117 58.5342L40.4019 58.6148ZM47.9946 58.6551H49.6461V56.5807H47.9946V54.8084H49.8475V52.6937H47.9946V50.2165H45.9202V52.6937H43.9667V54.8084H45.9202V56.5807H44.2285V58.6551H45.9202V58.9773C45.9202 59.5009 45.9202 60.0246 45.9001 60.5482H44.309C44.0875 59.4002 43.443 57.789 42.7784 56.5001L41.4492 57.0036C42.2548 55.7549 43.0604 54.4056 43.7451 53.2173L41.8721 52.4117C41.5096 53.2979 41.0061 54.325 40.4623 55.3521C40.3012 55.1306 40.12 54.8889 39.9186 54.6674C40.5026 53.5396 41.1874 51.9888 41.7916 50.6394L39.7776 49.995C39.5359 50.9818 39.113 52.2103 38.6699 53.2777C38.5289 53.1368 38.4081 52.9958 38.2671 52.8749L37.2803 54.5667C38.0254 55.3521 38.8512 56.3591 39.3949 57.2251C39.0727 57.7488 38.7706 58.2523 38.4685 58.6953L37.1594 58.7558L37.3608 60.8503C38.106 60.7899 38.9317 60.7295 39.7977 60.6489V68.7854H41.7714V60.4676L42.436 60.4072C42.5367 60.7899 42.6173 61.1524 42.6576 61.4746L43.9465 60.9308V62.6427H45.6987C45.4167 64.4956 44.7722 66.1672 43.3222 67.5166C43.8257 67.8186 44.6715 68.4833 45.0945 68.9465C46.8265 67.2346 47.5515 65.0595 47.8133 62.6427H49.8877V60.5482H47.9745C47.9946 60.0246 47.9946 59.5009 47.9946 58.9773V58.6551ZM54.4997 50.9818L54.1977 51.0624H50.1697V68.7652H52.3045V53.0361H53.6539C53.4323 54.5264 53.1302 56.198 52.7879 57.9703C53.7344 59.944 54.0768 61.1121 54.0768 62.1997C54.0768 62.9247 53.9761 63.5692 53.7546 63.7706C53.6942 63.8914 53.533 63.9317 53.3719 63.9317C53.1907 63.9317 52.9288 63.9317 52.7275 63.9115C53.0497 64.4754 53.1705 65.3415 53.1705 65.9255C53.5733 65.9456 53.9358 65.9456 54.2178 65.8852C54.6407 65.8047 54.963 65.6838 55.2449 65.4422C55.8491 64.8782 56.1512 63.7706 56.1512 62.2802C56.1512 61.0718 55.7081 59.6822 54.7011 57.7085C55.2449 55.5334 55.7081 53.4791 56.0706 51.7874L54.4997 50.9818Z" fill="black"/>
<path d="M80.0571 59.4405V57.064H71.7595V54.7278H77.9021V52.4117H71.7595V49.9748H69.2018V57.064H61.8306V59.4405H69.2018V68.7652H71.7595V62.6629C73.7735 63.3678 76.2708 64.3345 77.5799 65.0394L78.8487 62.8643C77.298 62.099 74.2367 61.0718 72.2227 60.4676L71.7595 61.2128V59.4405H80.0571Z" fill="black"/>
<path d="M100.539 64.274V66.1672H95.5446V64.274H100.539ZM93.3896 68.7854H95.5446V68.0603H100.539V68.7048H102.795V62.3809H93.3896V68.7854ZM95.8467 59.2794C96.7127 58.4738 97.4578 57.6279 97.9613 56.8425C98.5253 57.6481 99.3308 58.4939 100.217 59.2794H95.8467ZM96.7932 54.7882C96.7127 54.9091 96.6321 55.05 96.5516 55.191V53.8417H99.6128V55.4528H101.868V53.8417H104.225V51.8075H101.868V49.995H99.6128V51.8075H96.5516V49.995H94.3362V51.8075H92.1007V53.8417H94.3362V55.3924H96.4106C95.4439 56.8022 93.873 58.3127 92.1812 59.3398L92 58.071L90.5298 58.4738V55.9765H92.0805V53.7812H90.5298V49.995H88.2338V53.7812H85.8976V55.9765H88.2338V59.0981C87.2067 59.3801 86.2601 59.6218 85.4948 59.7829L85.9983 62.099C86.6831 61.8976 87.4484 61.676 88.2338 61.4545V66.0665C88.2338 66.3686 88.1331 66.4491 87.8915 66.4491C87.6296 66.4693 86.8039 66.4693 86.0185 66.429C86.3206 67.0936 86.6227 68.1207 86.6831 68.7652C88.0727 68.7652 89.0193 68.6847 89.6839 68.2819C90.3284 67.9193 90.5298 67.2749 90.5298 66.0866V60.7496L91.5569 60.4274C91.859 60.8704 92.1208 61.4142 92.2819 61.7969C93.2084 61.3336 94.0945 60.7496 94.9202 60.085V61.1725H101.164V60.0447C101.929 60.6489 102.734 61.1524 103.52 61.5552C103.842 60.8704 104.305 60.0044 104.769 59.4606C102.593 58.6148 100.418 56.8223 98.9683 54.7882H96.7932Z" fill="black"/>
<path d="M114.436 60.9308V59.7023H117.94V60.9308H114.436ZM114.436 56.6814H117.94V57.9099H114.436V56.6814ZM123.921 56.6814V57.9099H120.397V56.6814H123.921ZM123.921 60.9308H120.397V59.7023H123.921V60.9308ZM128.433 63.9317H120.397V62.8441H126.338V54.7681H120.397V53.8014H127.849V51.6263H120.397V49.995H117.94V51.6263H110.629V53.8014H117.94V54.7681H112.14V62.8441H117.94V63.9317H110.146V66.0866H117.94V68.8055H120.397V66.0866H128.433V63.9317Z" fill="black"/>
<path d="M147.646 52.9756H139.107V52.1499H147.646V52.9756ZM147.646 55.2716H139.107V54.4257H147.646V55.2716ZM150.043 50.6193H136.811V56.8022H150.043V50.6193ZM148.895 62.0184C148.532 62.7434 148.069 63.408 147.525 63.9921C146.982 63.408 146.518 62.7434 146.176 62.0184H148.895ZM138.221 64.415H140.839V65.2005C139.953 65.281 139.067 65.3415 138.221 65.4019V64.415ZM138.221 61.9177H140.839V62.7636H138.221V61.9177ZM140.839 59.4405V60.2461H138.221V59.4405H140.839ZM150.305 60.1051L149.902 60.1857H143.638V62.0184H145.491L144.162 62.3809C144.645 63.4886 145.27 64.4956 145.995 65.3616C145.149 65.9859 144.162 66.4693 143.135 66.8117V59.4405H152.359V57.5474H134.455V59.4405H136.025V65.563C135.401 65.6234 134.797 65.6436 134.273 65.6838L134.455 67.7381C136.227 67.577 138.523 67.3756 140.839 67.154V68.7854H143.135V67.154C143.538 67.6374 143.981 68.302 144.202 68.7652C145.451 68.302 146.599 67.6777 147.626 66.8922C148.693 67.7179 149.942 68.3423 151.372 68.7652C151.694 68.2013 152.319 67.3353 152.782 66.8922C151.453 66.57 150.244 66.0665 149.237 65.4019C150.365 64.1331 151.231 62.5622 151.775 60.669L150.305 60.1051Z" fill="black"/>
<path d="M169.296 65.5227H165.812V64.2136H169.296V65.5227ZM175.741 59.7225H159.589V68.7854H161.925V61.7163H173.324V66.2075C173.324 66.4491 173.244 66.5096 172.942 66.5297C172.72 66.5498 172.096 66.5498 171.411 66.5297V62.6226H163.718V68.0402H165.812V67.1339H171.008C171.23 67.6575 171.411 68.2819 171.471 68.7451C172.922 68.7451 173.989 68.7249 174.734 68.3624C175.52 67.9999 175.741 67.3554 175.741 66.2477V59.7225ZM170.646 57.2654H164.362V56.0369H170.646V57.2654ZM162.086 54.4458V58.8766H173.083V54.4458H162.086ZM168.672 51.6464V49.9547H166.235V51.6464H158.783V53.6805H176.386V51.6464H168.672Z" fill="black"/>
<path d="M285.65 27.6211C284.569 39.2452 267.828 47.1968 248.259 45.3816C244.98 45.0773 241.829 44.5181 238.861 43.7432C236.102 43.0228 223.495 47 221.095 45.9384C218.377 44.7362 225.923 38.4514 223.785 36.8979C217.722 32.4935 214.243 26.8617 214.784 21.0474C215.865 9.42322 232.606 1.47157 252.175 3.28685C271.744 5.10212 286.732 15.9969 285.65 27.6211Z" fill="#284273"/>
<path d="M240.092 16.7312L239.835 19.4888L235.502 19.0868L234.422 30.6978L231.187 30.3977L232.267 18.7868L227.934 18.3848L228.19 15.6272L240.092 16.7312Z" fill="white" fill-opacity="0.9"/>
<path d="M243.081 23.6825C244.224 23.7885 245.082 24.0726 245.656 24.5348C246.231 24.9896 246.476 25.6741 246.391 26.5883C246.305 27.5098 245.933 28.1482 245.276 28.5036C244.619 28.8516 243.715 28.9723 242.565 28.8656L242.023 28.8153L241.785 31.3808L240.06 31.2208L240.762 23.6681C241.145 23.6293 241.548 23.6146 241.971 23.6241C242.394 23.6336 242.764 23.6531 243.081 23.6825ZM243.055 25.1634C242.929 25.1518 242.804 25.1439 242.678 25.1396C242.559 25.136 242.455 25.1338 242.366 25.133L242.16 27.3446L242.702 27.3949C243.299 27.4503 243.756 27.4109 244.074 27.2767C244.391 27.1426 244.57 26.8544 244.612 26.412C244.631 26.1983 244.607 26.0176 244.539 25.87C244.479 25.7231 244.378 25.6022 244.238 25.5075C244.107 25.406 243.939 25.331 243.735 25.2823C243.532 25.2263 243.305 25.1867 243.055 25.1634Z" fill="white" fill-opacity="0.9"/>
<path d="M252.616 29.441C252.573 29.8981 252.468 30.3121 252.3 30.6831C252.132 31.0468 251.91 31.3534 251.634 31.6029C251.359 31.8451 251.037 32.0234 250.67 32.138C250.309 32.2533 249.912 32.2908 249.477 32.2505C249.049 32.2108 248.665 32.1008 248.325 31.9206C247.993 31.741 247.713 31.5069 247.487 31.2182C247.262 30.9222 247.097 30.5797 246.992 30.1908C246.887 29.7944 246.856 29.3677 246.899 28.9107C246.941 28.4536 247.05 28.0436 247.225 27.6806C247.408 27.3183 247.636 27.0161 247.912 26.7739C248.194 26.5325 248.516 26.3541 248.876 26.2388C249.244 26.1242 249.634 26.086 250.047 26.1243C250.467 26.1633 250.844 26.2726 251.176 26.4522C251.516 26.6324 251.799 26.8669 252.025 27.1555C252.251 27.4442 252.417 27.783 252.522 28.172C252.627 28.5609 252.658 28.9839 252.616 29.441ZM250.935 29.2851C250.982 28.7764 250.916 28.3687 250.737 28.0621C250.565 27.7487 250.291 27.5746 249.915 27.5398C249.539 27.5049 249.234 27.6253 249 27.901C248.767 28.1694 248.627 28.5579 248.58 29.0666C248.532 29.5753 248.598 29.9903 248.776 30.3117C248.955 30.6257 249.233 30.8002 249.609 30.835C249.985 30.8699 250.286 30.7492 250.512 30.4727C250.747 30.1896 250.888 29.7937 250.935 29.2851Z" fill="white" fill-opacity="0.9"/>
<path d="M255.268 32.6316L253.621 32.4787L254.162 26.6622L255.809 26.815L255.268 32.6316ZM256.121 25.1486C256.093 25.4508 255.971 25.6812 255.755 25.8397C255.548 25.9914 255.311 26.055 255.046 26.0304C254.781 26.0058 254.556 25.8995 254.373 25.7114C254.198 25.5167 254.124 25.2682 254.152 24.966C254.18 24.6637 254.298 24.4367 254.506 24.285C254.721 24.1265 254.962 24.0596 255.227 24.0842C255.492 24.1088 255.713 24.2185 255.888 24.4132C256.071 24.6012 256.149 24.8463 256.121 25.1486Z" fill="white" fill-opacity="0.9"/>
<path d="M257.34 27.1578C257.628 27.1027 257.996 27.0624 258.444 27.0371C258.893 27.0044 259.361 27.0107 259.848 27.0558C260.342 27.1016 260.745 27.2059 261.057 27.3687C261.377 27.5248 261.622 27.7297 261.791 27.9834C261.961 28.2371 262.071 28.5298 262.122 28.8617C262.173 29.1936 262.18 29.5586 262.143 29.9567L261.838 33.2409L260.19 33.0881L260.477 30.0029C260.526 29.4721 260.491 29.0897 260.372 28.8555C260.252 28.6213 260.001 28.4865 259.618 28.4509C259.5 28.44 259.374 28.4357 259.24 28.4382C259.106 28.4332 258.987 28.4333 258.883 28.4385L258.465 32.9281L256.817 32.7752L257.34 27.1578Z" fill="white" fill-opacity="0.9"/>
<path d="M263.95 26.109L265.622 25.9965L265.463 27.7105L267.442 27.8941L267.314 29.2653L265.335 29.0817L265.145 31.1274C265.113 31.4739 265.146 31.7558 265.245 31.9732C265.351 32.1912 265.588 32.3173 265.957 32.3515C266.134 32.3679 266.316 32.3699 266.503 32.3576C266.698 32.3385 266.875 32.3066 267.036 32.262L267.149 33.5663C266.942 33.6289 266.714 33.6784 266.466 33.7148C266.217 33.7512 265.915 33.753 265.562 33.7202C265.112 33.6785 264.745 33.585 264.461 33.4397C264.178 33.287 263.958 33.0956 263.801 32.8654C263.644 32.6278 263.544 32.3508 263.499 32.0343C263.461 31.7185 263.46 31.3727 263.495 30.9967L263.95 26.109Z" fill="white" fill-opacity="0.9"/>
<path d="M270.023 32.8068C270.325 32.8348 270.541 32.8251 270.672 32.7778C270.803 32.7304 270.876 32.622 270.892 32.4524C270.904 32.3197 270.834 32.1979 270.681 32.0871C270.528 31.9688 270.292 31.8316 269.972 31.6755C269.723 31.5558 269.496 31.4344 269.292 31.3113C269.095 31.189 268.929 31.0509 268.795 30.8972C268.661 30.7361 268.563 30.5522 268.5 30.3456C268.438 30.1391 268.42 29.8957 268.446 29.6156C268.496 29.0701 268.739 28.6576 269.174 28.3782C269.609 28.0988 270.18 27.992 270.888 28.0576C271.242 28.0904 271.578 28.1551 271.896 28.2515C272.215 28.3406 272.467 28.4309 272.652 28.5224L272.245 29.7784C272.06 29.6943 271.855 29.6158 271.631 29.543C271.415 29.4709 271.167 29.4219 270.886 29.3959C270.37 29.348 270.099 29.4678 270.072 29.7553C270.066 29.8217 270.072 29.8817 270.089 29.9353C270.106 29.989 270.146 30.0447 270.207 30.1025C270.269 30.1528 270.353 30.2126 270.458 30.2819C270.571 30.3444 270.713 30.4171 270.884 30.4998C271.233 30.666 271.519 30.8264 271.743 30.981C271.967 31.1282 272.138 31.2854 272.257 31.4525C272.383 31.6129 272.463 31.7877 272.498 31.9768C272.54 32.1666 272.549 32.3831 272.527 32.6264C272.473 33.2014 272.215 33.6162 271.753 33.8707C271.298 34.1259 270.676 34.2169 269.887 34.1438C269.371 34.0959 268.944 34.0116 268.606 33.891C268.275 33.7711 268.046 33.6755 267.918 33.6042L268.319 32.2919C268.589 32.4284 268.868 32.5436 269.157 32.6373C269.447 32.7236 269.735 32.7801 270.023 32.8068Z" fill="white" fill-opacity="0.9"/>
<path d="M97.536 136.744V137.74H95.568V136.744H97.536ZM95.568 139.972V138.988H97.536V139.972H95.568ZM96.336 142.084C96.564 142.42 96.792 142.792 97.008 143.164L95.568 143.524V141.292H98.856V135.424H94.2V143.836C93.912 143.908 93.636 143.968 93.396 144.016L93.804 145.48C94.896 145.18 96.3 144.796 97.656 144.412C97.836 144.796 97.98 145.156 98.064 145.468L99.324 144.832C99.024 143.908 98.232 142.552 97.488 141.544L96.336 142.084ZM104.16 135.4H99.528V146.032H100.98V136.84H102.684V142.6C102.684 142.756 102.636 142.816 102.48 142.816C102.312 142.816 101.82 142.828 101.352 142.792C101.568 143.188 101.796 143.92 101.844 144.352C102.612 144.352 103.176 144.316 103.62 144.052C104.052 143.788 104.16 143.32 104.16 142.648V135.4Z" fill="black"/>
<path d="M109.536 143.68V140.992H114.864V143.68H109.536ZM114.864 136.996V139.576H109.536V136.996H114.864ZM108.06 135.556V145.9H109.536V145.12H114.864V145.876H116.4V135.556H108.06Z" fill="black"/>
<path d="M128.952 138.388H125.916V142.072C125.916 143.452 126.3 143.836 127.632 143.836H129.336C130.5 143.836 130.848 143.332 131.004 141.544C130.644 141.46 130.056 141.232 129.756 141.004C129.708 142.348 129.636 142.564 129.216 142.564H127.824C127.356 142.564 127.272 142.504 127.272 142.072V139.612H128.952V139.924H130.332V135.292H125.808V136.54H128.952V138.388ZM123.648 142.156H125.352V140.92H123.648V139.624H125.46V138.388H123.384V137.26H125.16V136.036H123.384V134.86H122.052V136.036H120.264V137.26H122.052V138.388H119.94V139.624H122.34V143.356C122.028 143.008 121.788 142.564 121.596 141.976C121.62 141.472 121.644 140.956 121.656 140.428L120.348 140.332C120.324 142.384 120.204 144.376 119.616 145.588C119.928 145.72 120.552 146.032 120.804 146.2C121.068 145.612 121.248 144.904 121.368 144.1C122.304 145.444 123.732 145.732 125.964 145.732H130.596C130.68 145.312 130.92 144.652 131.136 144.328C130.056 144.376 126.876 144.376 125.964 144.364C125.04 144.364 124.284 144.316 123.648 144.136V142.156Z" fill="black"/>
<path d="M137.955 140.608H141.435L141.039 142.228H137.559L137.955 140.608Z" fill="black"/>
<path d="M151.299 136.492C151.619 136.492 151.915 136.544 152.187 136.648C152.467 136.752 152.707 136.896 152.907 137.08C153.115 137.256 153.275 137.464 153.387 137.704C153.499 137.944 153.555 138.2 153.555 138.472C153.555 138.776 153.523 139.048 153.459 139.288C153.395 139.528 153.287 139.76 153.135 139.984C152.983 140.208 152.779 140.436 152.523 140.668C152.275 140.9 151.967 141.16 151.599 141.448C151.383 141.616 151.163 141.776 150.939 141.928C150.723 142.08 150.507 142.236 150.291 142.396C150.083 142.556 149.879 142.728 149.679 142.912C149.479 143.088 149.291 143.288 149.115 143.512H152.691L152.331 145H146.799C146.871 144.496 146.995 144.06 147.171 143.692C147.347 143.324 147.563 142.992 147.819 142.696C148.083 142.392 148.379 142.112 148.707 141.856C149.035 141.592 149.391 141.312 149.775 141.016C150.135 140.736 150.439 140.496 150.687 140.296C150.943 140.088 151.147 139.9 151.299 139.732C151.459 139.556 151.575 139.392 151.647 139.24C151.719 139.088 151.755 138.928 151.755 138.76C151.755 138.552 151.679 138.38 151.527 138.244C151.383 138.1 151.195 138.028 150.963 138.028C150.635 138.028 150.315 138.1 150.003 138.244C149.691 138.38 149.351 138.588 148.983 138.868L148.371 137.56C148.851 137.168 149.331 136.892 149.811 136.732C150.291 136.572 150.787 136.492 151.299 136.492Z" fill="black"/>
<path d="M157.675 143.632C157.931 143.632 158.167 143.556 158.383 143.404C158.599 143.252 158.787 143.052 158.947 142.804C159.115 142.556 159.259 142.276 159.379 141.964C159.507 141.644 159.611 141.32 159.691 140.992C159.771 140.664 159.831 140.344 159.871 140.032C159.911 139.72 159.931 139.444 159.931 139.204C159.931 138.796 159.867 138.496 159.739 138.304C159.619 138.112 159.431 138.016 159.175 138.016C158.911 138.016 158.671 138.092 158.455 138.244C158.239 138.396 158.047 138.596 157.879 138.844C157.711 139.092 157.563 139.376 157.435 139.696C157.315 140.016 157.215 140.34 157.135 140.668C157.055 140.996 156.995 141.316 156.955 141.628C156.915 141.94 156.895 142.216 156.895 142.456C156.895 142.872 156.959 143.172 157.087 143.356C157.215 143.54 157.411 143.632 157.675 143.632ZM157.399 145.168C157.007 145.168 156.675 145.1 156.403 144.964C156.131 144.82 155.907 144.632 155.731 144.4C155.563 144.168 155.439 143.908 155.359 143.62C155.287 143.324 155.251 143.02 155.251 142.708C155.251 141.796 155.351 140.96 155.551 140.2C155.759 139.44 156.043 138.784 156.403 138.232C156.771 137.68 157.211 137.252 157.723 136.948C158.235 136.644 158.803 136.492 159.427 136.492C159.819 136.492 160.151 136.564 160.423 136.708C160.695 136.844 160.915 137.028 161.083 137.26C161.259 137.492 161.383 137.756 161.455 138.052C161.535 138.34 161.575 138.64 161.575 138.952C161.575 139.864 161.471 140.7 161.263 141.46C161.063 142.22 160.779 142.876 160.411 143.428C160.051 143.98 159.615 144.408 159.103 144.712C158.591 145.016 158.023 145.168 157.399 145.168Z" fill="black"/>
<path d="M167.34 136.492C167.66 136.492 167.956 136.544 168.228 136.648C168.508 136.752 168.748 136.896 168.948 137.08C169.156 137.256 169.316 137.464 169.428 137.704C169.54 137.944 169.596 138.2 169.596 138.472C169.596 138.776 169.564 139.048 169.5 139.288C169.436 139.528 169.328 139.76 169.176 139.984C169.024 140.208 168.82 140.436 168.564 140.668C168.316 140.9 168.008 141.16 167.64 141.448C167.424 141.616 167.204 141.776 166.98 141.928C166.764 142.08 166.548 142.236 166.332 142.396C166.124 142.556 165.92 142.728 165.72 142.912C165.52 143.088 165.332 143.288 165.156 143.512H168.732L168.372 145H162.84C162.912 144.496 163.036 144.06 163.212 143.692C163.388 143.324 163.604 142.992 163.86 142.696C164.124 142.392 164.42 142.112 164.748 141.856C165.076 141.592 165.432 141.312 165.816 141.016C166.176 140.736 166.48 140.496 166.728 140.296C166.984 140.088 167.188 139.9 167.34 139.732C167.5 139.556 167.616 139.392 167.688 139.24C167.76 139.088 167.796 138.928 167.796 138.76C167.796 138.552 167.72 138.38 167.568 138.244C167.424 138.1 167.236 138.028 167.004 138.028C166.676 138.028 166.356 138.1 166.044 138.244C165.732 138.38 165.392 138.588 165.024 138.868L164.412 137.56C164.892 137.168 165.372 136.892 165.852 136.732C166.332 136.572 166.828 136.492 167.34 136.492Z" fill="black"/>
<path d="M172.54 138.412C172.796 138.316 173.064 138.208 173.344 138.088C173.624 137.96 173.9 137.824 174.172 137.68C174.452 137.528 174.724 137.372 174.988 137.212C175.252 137.044 175.492 136.868 175.708 136.684H176.956L174.952 145H173.164L174.604 139.012C174.324 139.172 174.02 139.32 173.692 139.456C173.364 139.584 173.052 139.696 172.756 139.792L172.54 138.412Z" fill="black"/>
<path d="M178.904 147.22H177.08L183.8 135.604H185.612L178.904 147.22Z" fill="black"/>
<path d="M186.987 138.412C187.243 138.316 187.511 138.208 187.791 138.088C188.071 137.96 188.347 137.824 188.619 137.68C188.899 137.528 189.171 137.372 189.435 137.212C189.699 137.044 189.939 136.868 190.155 136.684H191.403L189.399 145H187.611L189.051 139.012C188.771 139.172 188.467 139.32 188.139 139.456C187.811 139.584 187.499 139.696 187.203 139.792L186.987 138.412Z" fill="black"/>
<path d="M197.827 136.492C198.147 136.492 198.443 136.544 198.715 136.648C198.995 136.752 199.235 136.896 199.435 137.08C199.643 137.256 199.803 137.464 199.915 137.704C200.027 137.944 200.083 138.2 200.083 138.472C200.083 138.776 200.051 139.048 199.987 139.288C199.923 139.528 199.815 139.76 199.663 139.984C199.511 140.208 199.307 140.436 199.051 140.668C198.803 140.9 198.495 141.16 198.127 141.448C197.911 141.616 197.691 141.776 197.467 141.928C197.251 142.08 197.035 142.236 196.819 142.396C196.611 142.556 196.407 142.728 196.207 142.912C196.007 143.088 195.819 143.288 195.643 143.512H199.219L198.859 145H193.327C193.399 144.496 193.523 144.06 193.699 143.692C193.875 143.324 194.091 142.992 194.347 142.696C194.611 142.392 194.907 142.112 195.235 141.856C195.563 141.592 195.919 141.312 196.303 141.016C196.663 140.736 196.967 140.496 197.215 140.296C197.471 140.088 197.675 139.9 197.827 139.732C197.987 139.556 198.103 139.392 198.175 139.24C198.247 139.088 198.283 138.928 198.283 138.76C198.283 138.552 198.207 138.38 198.055 138.244C197.911 138.1 197.723 138.028 197.491 138.028C197.163 138.028 196.843 138.1 196.531 138.244C196.219 138.38 195.879 138.588 195.511 138.868L194.899 137.56C195.379 137.168 195.859 136.892 196.339 136.732C196.819 136.572 197.315 136.492 197.827 136.492Z" fill="black"/>
<path d="M201.371 147.22H199.547L206.267 135.604H208.079L201.371 147.22Z" fill="black"/>
<path d="M212.742 140.584C213.078 140.744 213.338 140.992 213.522 141.328C213.706 141.656 213.798 142.016 213.798 142.408C213.798 142.736 213.73 143.064 213.594 143.392C213.458 143.72 213.242 144.016 212.946 144.28C212.65 144.544 212.274 144.76 211.818 144.928C211.362 145.088 210.814 145.168 210.174 145.168C209.262 145.168 208.442 144.98 207.714 144.604L208.362 143.188C208.594 143.348 208.882 143.48 209.226 143.584C209.57 143.68 209.922 143.728 210.282 143.728C210.506 143.728 210.722 143.704 210.93 143.656C211.146 143.608 211.334 143.528 211.494 143.416C211.654 143.304 211.782 143.16 211.878 142.984C211.974 142.808 212.022 142.592 212.022 142.336C212.022 142.008 211.886 141.76 211.614 141.592C211.35 141.424 210.994 141.34 210.546 141.34H209.778L210.126 139.924H210.99C211.158 139.924 211.334 139.908 211.518 139.876C211.702 139.844 211.87 139.788 212.022 139.708C212.174 139.62 212.298 139.508 212.394 139.372C212.498 139.228 212.55 139.044 212.55 138.82C212.55 138.54 212.454 138.336 212.262 138.208C212.07 138.072 211.818 138.004 211.506 138.004C211.258 138.004 210.982 138.048 210.678 138.136C210.382 138.224 210.074 138.352 209.754 138.52L209.298 137.176C209.69 136.952 210.094 136.784 210.51 136.672C210.926 136.552 211.358 136.492 211.806 136.492C212.23 136.492 212.602 136.552 212.922 136.672C213.242 136.784 213.506 136.936 213.714 137.128C213.93 137.32 214.09 137.54 214.194 137.788C214.298 138.028 214.35 138.276 214.35 138.532C214.35 138.74 214.314 138.948 214.242 139.156C214.178 139.356 214.078 139.548 213.942 139.732C213.814 139.908 213.646 140.072 213.438 140.224C213.238 140.368 213.006 140.488 212.742 140.584Z" fill="black"/>
<path d="M217.474 138.412C217.73 138.316 217.998 138.208 218.278 138.088C218.558 137.96 218.834 137.824 219.106 137.68C219.386 137.528 219.658 137.372 219.922 137.212C220.186 137.044 220.426 136.868 220.642 136.684H221.89L219.886 145H218.098L219.538 139.012C219.258 139.172 218.954 139.32 218.626 139.456C218.298 139.584 217.986 139.696 217.69 139.792L217.474 138.412Z" fill="black"/>
</svg>
