<svg width="359" height="126" viewBox="0 0 359 126" fill="none" xmlns="http://www.w3.org/2000/svg">
<path d="M17.6547 124.596L26.5973 44.2204H340.704L331.761 124.596H17.6547Z" fill="#9FC2F7" stroke="black" stroke-width="1.17178"/>
<path d="M25.2962 117.962L34.2388 37.5859H348.345L339.403 117.962H25.2962Z" fill="#5996F5" stroke="black" stroke-width="1.17178"/>
<mask id="path-3-outside-1" maskUnits="userSpaceOnUse" x="39.22" y="52.2621" width="288" height="57" fill="black">
<rect fill="white" x="39.22" y="52.2621" width="288" height="57"/>
<path d="M146.92 67.0821C146.34 67.4021 145.82 67.7021 145.38 67.9221L146.38 69.8221C147.8 68.9421 149.5 67.8021 151.06 66.7421L150.4 65.0421L149.02 65.8621V60.4021H150.46C150.64 62.7821 150.96 64.9621 151.44 66.7021C150.64 67.7021 149.74 68.5421 148.74 69.1621C149.2 69.5421 149.86 70.3021 150.16 70.8021C150.92 70.2821 151.62 69.6421 152.28 68.9021C152.82 69.9421 153.52 70.5421 154.36 70.5421C155.8 70.5421 156.4 69.8021 156.7 67.0421C156.18 66.8221 155.52 66.3621 155.1 65.8821C155.04 67.6021 154.88 68.3821 154.6 68.3821C154.28 68.3821 153.98 67.8821 153.68 67.0221C154.68 65.4621 155.48 63.6421 156.04 61.6821L154.22 61.2021C153.92 62.2221 153.52 63.2421 153.04 64.1821C152.86 63.0621 152.7 61.7821 152.6 60.4021H156.26V58.4221H154.62L156.04 57.6421C155.72 57.0021 154.96 56.0421 154.32 55.3421L152.72 56.1821C153.3 56.8421 153.94 57.7621 154.26 58.4221H152.48C152.44 57.3821 152.42 56.3221 152.42 55.2621H150.22C150.24 56.3221 150.28 57.3821 150.32 58.4221H146.92V67.0821ZM143.82 67.4821H146.2V65.4221H143.82V63.2021H146.46V61.1221H143.46V59.4421H146.16V57.3621H143.46V55.2621H141.28V57.3621H138.5V59.4421H141.28V61.1221H137.82V63.2021H141.68V68.9421C141.24 68.3821 140.88 67.6821 140.58 66.8021C140.6 66.0221 140.6 65.2421 140.58 64.4821L138.58 64.3621C138.68 67.0621 138.56 70.1621 137.28 72.4221C137.76 72.6621 138.52 73.3821 138.82 73.8621C139.48 72.7821 139.9 71.5421 140.18 70.2621C141.88 72.8621 144.46 73.4021 148.4 73.4021H155.64C155.8 72.7021 156.18 71.6021 156.56 71.0621C154.86 71.1221 149.84 71.1221 148.42 71.1221C146.56 71.1221 145.04 71.0021 143.82 70.5221V67.4821Z"/>
<path d="M176.42 69.4421V71.3221H171.46V69.4421H176.42ZM169.32 73.9221H171.46V73.2021H176.42V73.8421H178.66V67.5621H169.32V73.9221ZM171.76 64.4821C172.62 63.6821 173.36 62.8421 173.86 62.0621C174.42 62.8621 175.22 63.7021 176.1 64.4821H171.76ZM172.7 60.0221C172.62 60.1421 172.54 60.2821 172.46 60.4221V59.0821H175.5V60.6821H177.74V59.0821H180.08V57.0621H177.74V55.2621H175.5V57.0621H172.46V55.2621H170.26V57.0621H168.04V59.0821H170.26V60.6221H172.32C171.36 62.0221 169.8 63.5221 168.12 64.5421L167.94 63.2821L166.48 63.6821V61.2021H168.02V59.0221H166.48V55.2621H164.2V59.0221H161.88V61.2021H164.2V64.3021C163.18 64.5821 162.24 64.8221 161.48 64.9821L161.98 67.2821C162.66 67.0821 163.42 66.8621 164.2 66.6421V71.2221C164.2 71.5221 164.1 71.6021 163.86 71.6021C163.6 71.6221 162.78 71.6221 162 71.5821C162.3 72.2421 162.6 73.2621 162.66 73.9021C164.04 73.9021 164.98 73.8221 165.64 73.4221C166.28 73.0621 166.48 72.4221 166.48 71.2421V65.9421L167.5 65.6221C167.8 66.0621 168.06 66.6021 168.22 66.9821C169.14 66.5221 170.02 65.9421 170.84 65.2821V66.3621H177.04V65.2421C177.8 65.8421 178.6 66.3421 179.38 66.7421C179.7 66.0621 180.16 65.2021 180.62 64.6621C178.46 63.8221 176.3 62.0421 174.86 60.0221H172.7Z"/>
<path d="M194.92 67.0821C194.34 67.4021 193.82 67.7021 193.38 67.9221L194.38 69.8221C195.8 68.9421 197.5 67.8021 199.06 66.7421L198.4 65.0421L197.02 65.8621V60.4021H198.46C198.64 62.7821 198.96 64.9621 199.44 66.7021C198.64 67.7021 197.74 68.5421 196.74 69.1621C197.2 69.5421 197.86 70.3021 198.16 70.8021C198.92 70.2821 199.62 69.6421 200.28 68.9021C200.82 69.9421 201.52 70.5421 202.36 70.5421C203.8 70.5421 204.4 69.8021 204.7 67.0421C204.18 66.8221 203.52 66.3621 203.1 65.8821C203.04 67.6021 202.88 68.3821 202.6 68.3821C202.28 68.3821 201.98 67.8821 201.68 67.0221C202.68 65.4621 203.48 63.6421 204.04 61.6821L202.22 61.2021C201.92 62.2221 201.52 63.2421 201.04 64.1821C200.86 63.0621 200.7 61.7821 200.6 60.4021H204.26V58.4221H202.62L204.04 57.6421C203.72 57.0021 202.96 56.0421 202.32 55.3421L200.72 56.1821C201.3 56.8421 201.94 57.7621 202.26 58.4221H200.48C200.44 57.3821 200.42 56.3221 200.42 55.2621H198.22C198.24 56.3221 198.28 57.3821 198.32 58.4221H194.92V67.0821ZM191.82 67.4821H194.2V65.4221H191.82V63.2021H194.46V61.1221H191.46V59.4421H194.16V57.3621H191.46V55.2621H189.28V57.3621H186.5V59.4421H189.28V61.1221H185.82V63.2021H189.68V68.9421C189.24 68.3821 188.88 67.6821 188.58 66.8021C188.6 66.0221 188.6 65.2421 188.58 64.4821L186.58 64.3621C186.68 67.0621 186.56 70.1621 185.28 72.4221C185.76 72.6621 186.52 73.3821 186.82 73.8621C187.48 72.7821 187.9 71.5421 188.18 70.2621C189.88 72.8621 192.46 73.4021 196.4 73.4021H203.64C203.8 72.7021 204.18 71.6021 204.56 71.0621C202.86 71.1221 197.84 71.1221 196.42 71.1221C194.56 71.1221 193.04 71.0021 191.82 70.5221V67.4821Z"/>
<path d="M214.56 59.7021H212.58V57.8621H214.56V59.7021ZM214.56 63.3421H212.58V61.4821H214.56V63.3421ZM214.56 66.9821H212.58V65.1021H214.56V66.9821ZM216.64 55.9821H210.56V68.8821H216.64V55.9821ZM211.52 69.0221C211.12 70.4221 210.36 71.8621 209.46 72.8021C209.96 73.0621 210.82 73.6221 211.22 73.9621C212.16 72.8821 213.08 71.1621 213.6 69.4821L211.52 69.0221ZM221.24 66.4821V65.4621H222.34V66.4821H221.24ZM221.24 62.9421H222.34V63.8821H221.24V62.9421ZM221.24 60.4421H222.34V61.2221H221.24V60.4421ZM225.48 62.9421V63.8821H224.34V62.9421H225.48ZM224.34 66.4821V65.4621H225.48V66.4821H224.34ZM227.42 68.1621V65.5621H228.4V63.7221H227.42V61.2221H224.34V60.4421H227.96V58.6421H224.34V58.0021C225.5 57.5421 226.64 57.0021 227.56 56.4021L225.68 55.2621C224.88 55.9421 223.42 56.7021 222.02 57.2221C222.12 57.3621 222.24 57.5621 222.34 57.7621V58.6421H221.24V57.1421C221.82 56.9221 222.38 56.7021 222.86 56.4421L221.14 55.2621C220.24 55.8421 218.56 56.4221 217.06 56.8221C217.28 57.1821 217.56 57.7821 217.66 58.1421C218.18 58.0421 218.74 57.9021 219.28 57.7621V58.6421H217.16V60.4421H219.28V61.2221H217.62V62.9421H219.28V63.8821H216.94V65.4621H219.28V66.4821H217.54V68.1621H218.88C218.32 69.2621 217.56 70.2821 216.7 71.0621C216.4 70.3821 216 69.5821 215.62 68.9621L213.86 69.7221C214.34 70.6421 214.92 71.8821 215.18 72.6821L216.16 72.2021C216.5 72.5621 216.86 73.0021 217.08 73.3221C217.9 72.7021 218.64 71.8221 219.28 70.7821V73.9221H221.24V68.1621H222.34V73.9221H224.34V70.0221C225.16 71.2621 226.14 72.4021 227.08 73.1621C227.42 72.6621 228.08 71.9221 228.54 71.5621C227.36 70.8021 226.1 69.5021 225.18 68.1621H227.42Z"/>
<path d="M55.1 99.3621V102.822H46.78V99.3621H55.1ZM44.34 105.902H46.78V105.102H55.1V105.882H57.66V97.1021H44.34V105.902ZM53.04 90.6421C53.66 91.1821 54.32 91.7821 54.96 92.4221C52.66 92.5221 50.34 92.6221 48.18 92.7021C49.14 91.2421 50.14 89.5621 50.98 87.9821L48.24 87.1021C47.56 88.8621 46.42 91.0621 45.3 92.8021C44.18 92.8221 43.14 92.8621 42.22 92.8821L42.36 95.2821C46.08 95.1421 51.66 94.9221 56.94 94.6421C57.48 95.3021 57.92 95.9221 58.22 96.4621L60.28 94.8821C59.26 93.1621 56.88 90.8621 54.9 89.2421L53.04 90.6421Z"/>
<path d="M78.66 87.5821H75.18V88.7221H78.66V87.5821ZM70.18 89.5021C69.58 88.8621 68.28 88.0221 67.3 87.4821L65.94 89.1021C66.94 89.7021 68.18 90.6221 68.74 91.2821L70.18 89.5021ZM69.8 94.6021C69.14 93.9821 67.84 93.2021 66.82 92.7221L65.52 94.3821C66.52 94.9221 67.82 95.8021 68.4 96.4221L69.8 94.6021ZM68.08 105.682C68.88 103.742 69.7 101.422 70.34 99.2821L68.46 98.0821C67.72 100.422 66.7 102.942 65.98 104.502L68.08 105.682ZM77.4 96.0821H76.4V95.2021H77.4V96.0821ZM71.72 97.3221H73.22V93.3421L73.84 93.2821C73.88 93.4821 73.9 93.6621 73.92 93.8221L75 93.4221C74.92 92.8021 74.64 91.8421 74.3 91.1221L73.3 91.4821C73.36 91.6421 73.42 91.8221 73.48 92.0021L72.62 92.0221C73.24 91.3221 73.88 90.5021 74.46 89.7421V90.4621H79.24V90.2421C79.7 90.6421 80.14 91.1221 80.44 91.5221C80.26 91.7221 80.08 91.9421 79.92 92.1221L78.98 92.1421L79.12 93.5821L80.84 93.4821V94.2221L79.54 93.9221C79.38 94.6621 79.16 95.4621 78.84 96.1221V94.1421H75.02V97.1421H78.84V96.4821C79.2 96.6421 79.68 96.9021 79.92 97.0821C80.26 96.4421 80.62 95.4821 80.84 94.5821V97.3221H82.36V93.4021L83.14 93.3421C83.18 93.5221 83.22 93.6821 83.24 93.8221L84.44 93.3021C84.3 92.6421 83.92 91.6621 83.52 90.9421L82.38 91.4021C82.48 91.6021 82.58 91.8221 82.68 92.0421L81.58 92.0621C82.3 91.2821 83.06 90.3621 83.72 89.5421L82.4 88.8021C82.14 89.2621 81.78 89.7821 81.38 90.3221C81.26 90.1821 81.12 90.0221 80.96 89.8821C81.38 89.3021 81.84 88.5621 82.3 87.8821L80.94 87.2221C80.72 87.7221 80.36 88.4421 80.02 89.0621L79.76 88.8621L79.24 89.5621V89.2221H74.46V89.5621L73.26 88.8821C73.04 89.2821 72.74 89.7221 72.42 90.2021C72.3 90.0621 72.14 89.9421 72 89.8021C72.38 89.2221 72.82 88.5221 73.24 87.8421L71.9 87.1621C71.68 87.7021 71.34 88.4221 71 89.0221C70.9 88.9621 70.78 88.8821 70.68 88.8221L69.94 89.9821C70.48 90.3821 71.08 90.9221 71.52 91.4021C71.34 91.6421 71.14 91.8821 70.96 92.1021L69.74 92.1421L69.9 93.5821C70.46 93.5421 71.08 93.5021 71.72 93.4421V94.2221L70.4 93.9221C70.22 94.8221 69.94 95.7821 69.48 96.5021C69.84 96.6421 70.44 96.9421 70.74 97.1221C71.12 96.4621 71.48 95.4821 71.72 94.5821V97.3221ZM82.42 94.2821C82.76 95.1021 83.12 96.1621 83.24 96.8621L84.5 96.4421C84.34 95.7621 83.96 94.7221 83.62 93.9221L82.42 94.2821ZM75.04 93.6021H78.84V92.5221H75.04V93.6021ZM78.84 90.9821H75.04V92.0621H78.84V90.9821ZM74.96 96.1021C74.86 95.5421 74.64 94.6621 74.42 94.0021L73.28 94.2621C73.48 94.9621 73.68 95.8621 73.76 96.4421L74.96 96.1021ZM73.56 101.602L73.72 100.982H82.58V97.6621H71.24V99.0021H80.38V99.6221H71.84C71.6 100.862 71.22 102.342 70.86 103.362L73 103.642C73.06 103.462 73.12 103.262 73.18 103.062H81.06C80.88 103.622 80.7 103.942 80.48 104.102C80.28 104.242 80.04 104.262 79.64 104.262C79.14 104.262 77.82 104.242 76.62 104.122C76.96 104.622 77.22 105.342 77.26 105.862C78.5 105.902 79.72 105.922 80.36 105.902C81.16 105.862 81.72 105.762 82.22 105.382C82.76 104.942 83.12 104.062 83.44 102.462C83.52 102.182 83.56 101.602 83.56 101.602H73.56Z"/>
<path d="M107.88 95.0621V92.6021H100.02C100.22 90.7421 100.24 88.9021 100.26 87.2621H97.66C97.64 88.9021 97.66 90.7221 97.46 92.6021H90.18V95.0621H97.06C96.28 98.5021 94.38 101.822 89.8 103.862C90.5 104.362 91.2 105.222 91.58 105.882C95.82 103.842 97.98 100.722 99.06 97.3821C100.62 101.242 102.94 104.162 106.56 105.862C106.94 105.182 107.72 104.122 108.32 103.622C104.58 102.102 102.16 98.9621 100.84 95.0621H107.88Z"/>
<path d="M118.22 98.1221V96.9021H121.7V98.1221H118.22ZM118.22 93.9021H121.7V95.1221H118.22V93.9021ZM127.64 93.9021V95.1221H124.14V93.9021H127.64ZM127.64 98.1221H124.14V96.9021H127.64V98.1221ZM132.12 101.102H124.14V100.022H130.04V92.0021H124.14V91.0421H131.54V88.8821H124.14V87.2621H121.7V88.8821H114.44V91.0421H121.7V92.0021H115.94V100.022H121.7V101.102H113.96V103.242H121.7V105.942H124.14V103.242H132.12V101.102Z"/>
<path d="M149 94.0421C149.46 93.6621 149.88 93.2621 150.28 92.8421C150.58 94.5621 150.94 96.2021 151.42 97.6821C150.92 96.3821 150.14 95.1221 149 94.0421ZM154.94 93.4221C154.4 94.0621 153.6 94.8421 152.86 95.5021C152.58 94.5221 152.34 93.5021 152.14 92.4421H156.1V90.3821H153.56C153.96 89.6821 154.4 88.8021 154.86 87.9221L152.6 87.2621C152.32 88.1821 151.8 89.4021 151.36 90.2221L151.86 90.3821H148.52L148.98 90.2021C148.76 89.4021 148.22 88.2221 147.64 87.3621L145.72 88.0221C146.14 88.7221 146.54 89.6221 146.8 90.3821H144.48V92.4421H147.94C146.74 93.4821 145.2 94.4021 143.7 95.0221C144.1 95.4021 144.8 96.2621 145.08 96.7021C145.84 96.3021 146.66 95.8021 147.44 95.2621C147.66 95.4821 147.86 95.7221 148.04 95.9821C147.1 96.8421 145.68 97.7621 144.44 98.3621C144.44 97.2021 144.18 95.8621 142.98 94.3421C143.54 92.7821 144.2 90.6021 144.72 88.9021L143.16 88.0021L142.82 88.1021H138.48V105.922H140.54V90.2221H142.1C141.78 91.5821 141.36 93.3221 140.96 94.5821C142.08 95.9221 142.34 97.1621 142.34 98.0821C142.34 98.6421 142.26 99.0421 142.04 99.2021C141.88 99.3221 141.7 99.3621 141.48 99.3821C141.22 99.3821 140.96 99.3821 140.6 99.3621C140.92 99.9221 141.1 100.822 141.12 101.382C141.58 101.402 142.06 101.382 142.4 101.342C142.86 101.262 143.24 101.142 143.56 100.922C144.04 100.582 144.3 99.9821 144.4 99.1421C144.7 99.5021 144.98 99.9021 145.18 100.242C146.36 99.5821 147.84 98.5221 148.98 97.5021C149.12 97.8021 149.24 98.1021 149.34 98.4021C147.88 100.122 145.3 101.902 143.06 102.742C143.56 103.142 144.14 103.862 144.48 104.382C146.24 103.542 148.24 102.122 149.78 100.662C149.84 101.882 149.6 102.862 149.24 103.262C149 103.702 148.68 103.782 148.26 103.782C147.82 103.782 147.32 103.742 146.68 103.682C147.1 104.342 147.26 105.242 147.28 105.862C147.8 105.902 148.26 105.922 148.68 105.902C149.66 105.882 150.3 105.682 150.92 105.002C152.02 104.002 152.48 101.222 151.66 98.4221C152.48 100.702 153.56 102.622 155.04 103.982C155.42 103.402 156.12 102.582 156.66 102.182C155.3 101.082 154.28 99.3821 153.5 97.3821C154.42 96.7221 155.52 95.8221 156.46 95.0021L154.94 93.4221Z"/>
<path d="M174.5 100.662V101.442H167.52V100.662H174.5ZM167.52 103.822V103.022H174.5V103.822H167.52ZM165.18 105.922H167.52V105.382H174.5V105.862H176.94V99.1021H165.18V105.922ZM164.56 93.0221C165.58 92.5821 166.58 92.0821 167.5 91.5421V92.3021H174.52V91.6221C175.46 92.1421 176.46 92.6221 177.42 93.0221H164.56ZM175.9 97.0021H174.2C174.52 96.4421 174.9 95.6621 175.3 94.8621L173.74 94.4821H175.9V97.0021ZM166.06 97.0021V94.4821H168.3L166.76 94.9221C167.08 95.5621 167.34 96.3821 167.44 97.0021H166.06ZM169.94 97.0021H167.92L169.2 96.6221C169.08 96.0221 168.76 95.1621 168.4 94.4821H169.94V97.0021ZM173.32 94.4821C173.14 95.1421 172.8 96.0621 172.52 96.6821L173.7 97.0021H171.86V94.4821H173.32ZM168.76 90.7621C169.6 90.2021 170.32 89.6421 170.88 89.0821C171.48 89.6421 172.24 90.2221 173.1 90.7621H168.76ZM169.68 87.2421C168.04 89.0221 164.76 90.9021 161.5 91.8621C161.94 92.3421 162.46 93.2021 162.74 93.7221C163.18 93.5621 163.64 93.4021 164.08 93.2221V98.4621H177.98V93.2421C178.36 93.4021 178.76 93.5421 179.12 93.6621C179.48 93.0621 179.98 92.2221 180.48 91.6821C177.4 90.9221 174.18 89.3421 171.92 87.2421H169.68Z"/>
<path d="M199.08 91.0221H191V89.7221H199.08V91.0221ZM201.62 87.8621H188.6V92.8621H201.62V87.8621ZM190.06 99.9621H199.86V100.842H190.06V99.9621ZM190.06 97.6021H199.86V98.4421H190.06V97.6021ZM190.06 95.2221H199.86V96.0821H190.06V95.2221ZM202.32 102.442V93.6021H187.7V102.442H190.84C189.48 103.122 187.42 103.842 185.68 104.222C186.22 104.682 187.04 105.422 187.48 105.922C189.5 105.422 192.06 104.462 193.68 103.522L192.14 102.442H197.6L195.92 103.642C198.04 104.262 200.8 105.242 202.34 105.962L204.44 104.282C203.06 103.722 200.96 103.002 199.08 102.442H202.32Z"/>
<path d="M228.12 98.0821V96.0621H220.22V94.9221H226.28V92.9621H220.22V92.1621C220.64 91.7221 221.02 91.2021 221.4 90.6221H222.18C222.7 91.3421 223.2 92.1821 223.42 92.7421L225.46 91.8821C225.3 91.5421 225.02 91.0821 224.7 90.6221H228.02V88.6821H222.5C222.66 88.3421 222.82 87.9821 222.92 87.6621L220.64 87.0821C220.24 88.2221 219.58 89.3821 218.78 90.3021V88.6821H214.4C214.58 88.3421 214.74 88.0221 214.88 87.6821L212.6 87.0821C211.9 88.7821 210.72 90.5021 209.42 91.5821C209.96 91.8621 210.94 92.5221 211.4 92.9021C212 92.2821 212.66 91.5021 213.26 90.6221H213.46C213.84 91.3421 214.24 92.1621 214.38 92.7221L216.42 91.8821C216.3 91.5421 216.08 91.0821 215.82 90.6221H218.5C218.28 90.8621 218.04 91.1021 217.78 91.3021C218.08 91.4621 218.52 91.7421 218.94 92.0021H217.74V92.9621H211.94V94.9221H217.74V96.0621H209.92V98.0821H221.68V99.2821H210.68V101.282H214.36L213.3 102.082C214.46 102.942 215.76 104.182 216.32 105.082L218.16 103.602C217.66 102.902 216.7 102.002 215.74 101.282H221.68V103.402C221.68 103.642 221.58 103.722 221.26 103.722C220.94 103.722 219.74 103.722 218.72 103.682C219.04 104.302 219.44 105.222 219.58 105.902C221.06 105.902 222.2 105.882 223.04 105.542C223.9 105.182 224.14 104.622 224.14 103.442V101.282H227.52V99.2821H224.14V98.0821H228.12Z"/>
<path d="M234.42 98.9421C234.26 100.622 233.94 102.402 233.36 103.582C233.88 103.762 234.76 104.182 235.18 104.442C235.76 103.162 236.18 101.162 236.38 99.2821L234.42 98.9421ZM239.98 97.6621C240.1 98.0421 240.18 98.4021 240.24 98.7021L241.94 97.9421C241.72 96.8021 240.94 95.0621 240.16 93.7021L238.6 94.3621C238.84 94.8021 239.08 95.2821 239.28 95.7821L237.12 95.8821C238.38 94.2621 239.76 92.2421 240.86 90.5021L238.92 89.6021C238.46 90.5821 237.82 91.7221 237.14 92.8421C236.94 92.6021 236.72 92.3221 236.46 92.0421C237.18 90.9221 237.98 89.3821 238.7 88.0221L236.64 87.2621C236.3 88.3221 235.74 89.6421 235.18 90.7421C235.02 90.6021 234.86 90.4621 234.72 90.3421L233.58 91.9621C234.4 92.7621 235.36 93.8221 235.94 94.6821C235.62 95.1421 235.32 95.5621 235.02 95.9621L233.56 96.0221L233.76 98.0821C234.62 98.0221 235.62 97.9621 236.66 97.9021V105.942H238.72V97.7621L239.98 97.6621ZM244.68 90.5821H247.04C246.76 92.2621 246.38 94.3421 246 96.0221L248.12 96.2621L248.28 95.4821H249.58C249.12 97.2421 248.44 98.7821 247.58 100.062C246.04 97.7621 245.18 94.7621 244.68 91.3821V90.5821ZM250.76 93.2821L250.36 93.3621H248.72C249.04 91.7021 249.34 89.9821 249.54 88.5221L247.96 88.3021L247.6 88.4021H240.96V90.5821H242.62V93.5621C242.62 95.7021 242.48 98.5821 241.44 101.222C241.2 100.422 240.86 99.4821 240.52 98.7421L238.84 99.2821C239.28 100.382 239.74 101.802 239.92 102.742L240.92 102.382C240.52 103.162 240.02 103.902 239.4 104.582C239.94 104.842 240.74 105.462 241.14 105.842C243.12 103.642 244.02 100.762 244.4 98.0421C244.88 99.4221 245.46 100.682 246.2 101.802C245.26 102.762 244.18 103.542 242.98 104.122C243.48 104.482 244.26 105.362 244.58 105.882C245.68 105.282 246.7 104.522 247.62 103.562C248.6 104.542 249.76 105.342 251.14 105.942C251.44 105.342 252.1 104.442 252.58 104.022C251.18 103.522 250.02 102.782 249.04 101.842C250.5 99.7621 251.58 97.1021 252.18 93.8221L250.76 93.2821Z"/>
<path d="M257.82 95.1021V97.6821H276.22V95.1021H257.82Z"/>
<path d="M287.44 91.2821C286.68 90.4421 285.06 89.2421 283.88 88.4821L282.16 90.2221C283.4 91.1021 284.96 92.3821 285.66 93.2421L287.44 91.2821ZM286.14 96.3421C284.5 98.1621 282.72 100.002 281.62 101.082L283.14 103.102C284.5 101.762 286.12 100.022 287.52 98.4021L286.14 96.3421ZM294.42 93.0621H297.24C296.88 94.2021 296.38 95.3421 295.98 96.1021C296.54 96.3221 297.52 96.8021 298 97.0821C298.78 95.6421 299.74 93.5821 300.3 91.5821L298.54 90.5621L298.08 90.6821H291.2C291.52 89.7421 291.78 88.7621 292 87.7621L289.52 87.3021C288.9 90.5021 287.7 93.5821 286 95.4221C286.6 95.7021 287.76 96.3421 288.24 96.7221C289 95.7421 289.72 94.4821 290.32 93.0621H291.92V95.1221C291.92 97.3421 290.58 101.762 285.18 103.922C285.6 104.362 286.34 105.362 286.62 105.922C290.66 104.162 292.7 100.762 293.18 98.9821C293.56 100.762 295.42 104.282 299 105.922C299.38 105.302 300.06 104.322 300.52 103.742C295.62 101.602 294.42 97.2421 294.42 95.1021V93.0621Z"/>
<path d="M319.6 98.7021H312.36V97.8421H319.6V98.7021ZM312.36 103.462V102.542H319.6V103.462H312.36ZM319.6 101.062H312.36V100.182H319.6V101.062ZM323.88 95.2221V93.3421H313.98C314.1 93.0621 314.22 92.7621 314.32 92.4821H322.8V90.6821H314.96C315.06 90.3621 315.16 90.0421 315.24 89.7221C317.98 89.5821 320.6 89.3621 322.72 89.0021L321.32 87.3021C317.96 87.8621 312.18 88.1021 307.3 88.1021C307.5 88.5821 307.72 89.3621 307.74 89.8821C309.3 89.9021 310.96 89.8821 312.62 89.8221C312.56 90.1221 312.48 90.4021 312.4 90.6821H307.52V92.4821H311.76C311.64 92.7621 311.52 93.0621 311.38 93.3421H306.12V95.2221H310.38C309.18 97.1021 307.58 98.7621 305.5 99.8821C305.96 100.362 306.66 101.242 307 101.802C308.16 101.122 309.18 100.302 310.08 99.4021V105.982H312.36V105.262H319.6V105.982H322V96.0421H312.64C312.8 95.7621 312.96 95.5021 313.1 95.2221H323.88Z"/>
</mask>
<path d="M146.92 67.0821C146.34 67.4021 145.82 67.7021 145.38 67.9221L146.38 69.8221C147.8 68.9421 149.5 67.8021 151.06 66.7421L150.4 65.0421L149.02 65.8621V60.4021H150.46C150.64 62.7821 150.96 64.9621 151.44 66.7021C150.64 67.7021 149.74 68.5421 148.74 69.1621C149.2 69.5421 149.86 70.3021 150.16 70.8021C150.92 70.2821 151.62 69.6421 152.28 68.9021C152.82 69.9421 153.52 70.5421 154.36 70.5421C155.8 70.5421 156.4 69.8021 156.7 67.0421C156.18 66.8221 155.52 66.3621 155.1 65.8821C155.04 67.6021 154.88 68.3821 154.6 68.3821C154.28 68.3821 153.98 67.8821 153.68 67.0221C154.68 65.4621 155.48 63.6421 156.04 61.6821L154.22 61.2021C153.92 62.2221 153.52 63.2421 153.04 64.1821C152.86 63.0621 152.7 61.7821 152.6 60.4021H156.26V58.4221H154.62L156.04 57.6421C155.72 57.0021 154.96 56.0421 154.32 55.3421L152.72 56.1821C153.3 56.8421 153.94 57.7621 154.26 58.4221H152.48C152.44 57.3821 152.42 56.3221 152.42 55.2621H150.22C150.24 56.3221 150.28 57.3821 150.32 58.4221H146.92V67.0821ZM143.82 67.4821H146.2V65.4221H143.82V63.2021H146.46V61.1221H143.46V59.4421H146.16V57.3621H143.46V55.2621H141.28V57.3621H138.5V59.4421H141.28V61.1221H137.82V63.2021H141.68V68.9421C141.24 68.3821 140.88 67.6821 140.58 66.8021C140.6 66.0221 140.6 65.2421 140.58 64.4821L138.58 64.3621C138.68 67.0621 138.56 70.1621 137.28 72.4221C137.76 72.6621 138.52 73.3821 138.82 73.8621C139.48 72.7821 139.9 71.5421 140.18 70.2621C141.88 72.8621 144.46 73.4021 148.4 73.4021H155.64C155.8 72.7021 156.18 71.6021 156.56 71.0621C154.86 71.1221 149.84 71.1221 148.42 71.1221C146.56 71.1221 145.04 71.0021 143.82 70.5221V67.4821Z" fill="white"/>
<path d="M176.42 69.4421V71.3221H171.46V69.4421H176.42ZM169.32 73.9221H171.46V73.2021H176.42V73.8421H178.66V67.5621H169.32V73.9221ZM171.76 64.4821C172.62 63.6821 173.36 62.8421 173.86 62.0621C174.42 62.8621 175.22 63.7021 176.1 64.4821H171.76ZM172.7 60.0221C172.62 60.1421 172.54 60.2821 172.46 60.4221V59.0821H175.5V60.6821H177.74V59.0821H180.08V57.0621H177.74V55.2621H175.5V57.0621H172.46V55.2621H170.26V57.0621H168.04V59.0821H170.26V60.6221H172.32C171.36 62.0221 169.8 63.5221 168.12 64.5421L167.94 63.2821L166.48 63.6821V61.2021H168.02V59.0221H166.48V55.2621H164.2V59.0221H161.88V61.2021H164.2V64.3021C163.18 64.5821 162.24 64.8221 161.48 64.9821L161.98 67.2821C162.66 67.0821 163.42 66.8621 164.2 66.6421V71.2221C164.2 71.5221 164.1 71.6021 163.86 71.6021C163.6 71.6221 162.78 71.6221 162 71.5821C162.3 72.2421 162.6 73.2621 162.66 73.9021C164.04 73.9021 164.98 73.8221 165.64 73.4221C166.28 73.0621 166.48 72.4221 166.48 71.2421V65.9421L167.5 65.6221C167.8 66.0621 168.06 66.6021 168.22 66.9821C169.14 66.5221 170.02 65.9421 170.84 65.2821V66.3621H177.04V65.2421C177.8 65.8421 178.6 66.3421 179.38 66.7421C179.7 66.0621 180.16 65.2021 180.62 64.6621C178.46 63.8221 176.3 62.0421 174.86 60.0221H172.7Z" fill="white"/>
<path d="M194.92 67.0821C194.34 67.4021 193.82 67.7021 193.38 67.9221L194.38 69.8221C195.8 68.9421 197.5 67.8021 199.06 66.7421L198.4 65.0421L197.02 65.8621V60.4021H198.46C198.64 62.7821 198.96 64.9621 199.44 66.7021C198.64 67.7021 197.74 68.5421 196.74 69.1621C197.2 69.5421 197.86 70.3021 198.16 70.8021C198.92 70.2821 199.62 69.6421 200.28 68.9021C200.82 69.9421 201.52 70.5421 202.36 70.5421C203.8 70.5421 204.4 69.8021 204.7 67.0421C204.18 66.8221 203.52 66.3621 203.1 65.8821C203.04 67.6021 202.88 68.3821 202.6 68.3821C202.28 68.3821 201.98 67.8821 201.68 67.0221C202.68 65.4621 203.48 63.6421 204.04 61.6821L202.22 61.2021C201.92 62.2221 201.52 63.2421 201.04 64.1821C200.86 63.0621 200.7 61.7821 200.6 60.4021H204.26V58.4221H202.62L204.04 57.6421C203.72 57.0021 202.96 56.0421 202.32 55.3421L200.72 56.1821C201.3 56.8421 201.94 57.7621 202.26 58.4221H200.48C200.44 57.3821 200.42 56.3221 200.42 55.2621H198.22C198.24 56.3221 198.28 57.3821 198.32 58.4221H194.92V67.0821ZM191.82 67.4821H194.2V65.4221H191.82V63.2021H194.46V61.1221H191.46V59.4421H194.16V57.3621H191.46V55.2621H189.28V57.3621H186.5V59.4421H189.28V61.1221H185.82V63.2021H189.68V68.9421C189.24 68.3821 188.88 67.6821 188.58 66.8021C188.6 66.0221 188.6 65.2421 188.58 64.4821L186.58 64.3621C186.68 67.0621 186.56 70.1621 185.28 72.4221C185.76 72.6621 186.52 73.3821 186.82 73.8621C187.48 72.7821 187.9 71.5421 188.18 70.2621C189.88 72.8621 192.46 73.4021 196.4 73.4021H203.64C203.8 72.7021 204.18 71.6021 204.56 71.0621C202.86 71.1221 197.84 71.1221 196.42 71.1221C194.56 71.1221 193.04 71.0021 191.82 70.5221V67.4821Z" fill="white"/>
<path d="M214.56 59.7021H212.58V57.8621H214.56V59.7021ZM214.56 63.3421H212.58V61.4821H214.56V63.3421ZM214.56 66.9821H212.58V65.1021H214.56V66.9821ZM216.64 55.9821H210.56V68.8821H216.64V55.9821ZM211.52 69.0221C211.12 70.4221 210.36 71.8621 209.46 72.8021C209.96 73.0621 210.82 73.6221 211.22 73.9621C212.16 72.8821 213.08 71.1621 213.6 69.4821L211.52 69.0221ZM221.24 66.4821V65.4621H222.34V66.4821H221.24ZM221.24 62.9421H222.34V63.8821H221.24V62.9421ZM221.24 60.4421H222.34V61.2221H221.24V60.4421ZM225.48 62.9421V63.8821H224.34V62.9421H225.48ZM224.34 66.4821V65.4621H225.48V66.4821H224.34ZM227.42 68.1621V65.5621H228.4V63.7221H227.42V61.2221H224.34V60.4421H227.96V58.6421H224.34V58.0021C225.5 57.5421 226.64 57.0021 227.56 56.4021L225.68 55.2621C224.88 55.9421 223.42 56.7021 222.02 57.2221C222.12 57.3621 222.24 57.5621 222.34 57.7621V58.6421H221.24V57.1421C221.82 56.9221 222.38 56.7021 222.86 56.4421L221.14 55.2621C220.24 55.8421 218.56 56.4221 217.06 56.8221C217.28 57.1821 217.56 57.7821 217.66 58.1421C218.18 58.0421 218.74 57.9021 219.28 57.7621V58.6421H217.16V60.4421H219.28V61.2221H217.62V62.9421H219.28V63.8821H216.94V65.4621H219.28V66.4821H217.54V68.1621H218.88C218.32 69.2621 217.56 70.2821 216.7 71.0621C216.4 70.3821 216 69.5821 215.62 68.9621L213.86 69.7221C214.34 70.6421 214.92 71.8821 215.18 72.6821L216.16 72.2021C216.5 72.5621 216.86 73.0021 217.08 73.3221C217.9 72.7021 218.64 71.8221 219.28 70.7821V73.9221H221.24V68.1621H222.34V73.9221H224.34V70.0221C225.16 71.2621 226.14 72.4021 227.08 73.1621C227.42 72.6621 228.08 71.9221 228.54 71.5621C227.36 70.8021 226.1 69.5021 225.18 68.1621H227.42Z" fill="white"/>
<path d="M55.1 99.3621V102.822H46.78V99.3621H55.1ZM44.34 105.902H46.78V105.102H55.1V105.882H57.66V97.1021H44.34V105.902ZM53.04 90.6421C53.66 91.1821 54.32 91.7821 54.96 92.4221C52.66 92.5221 50.34 92.6221 48.18 92.7021C49.14 91.2421 50.14 89.5621 50.98 87.9821L48.24 87.1021C47.56 88.8621 46.42 91.0621 45.3 92.8021C44.18 92.8221 43.14 92.8621 42.22 92.8821L42.36 95.2821C46.08 95.1421 51.66 94.9221 56.94 94.6421C57.48 95.3021 57.92 95.9221 58.22 96.4621L60.28 94.8821C59.26 93.1621 56.88 90.8621 54.9 89.2421L53.04 90.6421Z" fill="white"/>
<path d="M78.66 87.5821H75.18V88.7221H78.66V87.5821ZM70.18 89.5021C69.58 88.8621 68.28 88.0221 67.3 87.4821L65.94 89.1021C66.94 89.7021 68.18 90.6221 68.74 91.2821L70.18 89.5021ZM69.8 94.6021C69.14 93.9821 67.84 93.2021 66.82 92.7221L65.52 94.3821C66.52 94.9221 67.82 95.8021 68.4 96.4221L69.8 94.6021ZM68.08 105.682C68.88 103.742 69.7 101.422 70.34 99.2821L68.46 98.0821C67.72 100.422 66.7 102.942 65.98 104.502L68.08 105.682ZM77.4 96.0821H76.4V95.2021H77.4V96.0821ZM71.72 97.3221H73.22V93.3421L73.84 93.2821C73.88 93.4821 73.9 93.6621 73.92 93.8221L75 93.4221C74.92 92.8021 74.64 91.8421 74.3 91.1221L73.3 91.4821C73.36 91.6421 73.42 91.8221 73.48 92.0021L72.62 92.0221C73.24 91.3221 73.88 90.5021 74.46 89.7421V90.4621H79.24V90.2421C79.7 90.6421 80.14 91.1221 80.44 91.5221C80.26 91.7221 80.08 91.9421 79.92 92.1221L78.98 92.1421L79.12 93.5821L80.84 93.4821V94.2221L79.54 93.9221C79.38 94.6621 79.16 95.4621 78.84 96.1221V94.1421H75.02V97.1421H78.84V96.4821C79.2 96.6421 79.68 96.9021 79.92 97.0821C80.26 96.4421 80.62 95.4821 80.84 94.5821V97.3221H82.36V93.4021L83.14 93.3421C83.18 93.5221 83.22 93.6821 83.24 93.8221L84.44 93.3021C84.3 92.6421 83.92 91.6621 83.52 90.9421L82.38 91.4021C82.48 91.6021 82.58 91.8221 82.68 92.0421L81.58 92.0621C82.3 91.2821 83.06 90.3621 83.72 89.5421L82.4 88.8021C82.14 89.2621 81.78 89.7821 81.38 90.3221C81.26 90.1821 81.12 90.0221 80.96 89.8821C81.38 89.3021 81.84 88.5621 82.3 87.8821L80.94 87.2221C80.72 87.7221 80.36 88.4421 80.02 89.0621L79.76 88.8621L79.24 89.5621V89.2221H74.46V89.5621L73.26 88.8821C73.04 89.2821 72.74 89.7221 72.42 90.2021C72.3 90.0621 72.14 89.9421 72 89.8021C72.38 89.2221 72.82 88.5221 73.24 87.8421L71.9 87.1621C71.68 87.7021 71.34 88.4221 71 89.0221C70.9 88.9621 70.78 88.8821 70.68 88.8221L69.94 89.9821C70.48 90.3821 71.08 90.9221 71.52 91.4021C71.34 91.6421 71.14 91.8821 70.96 92.1021L69.74 92.1421L69.9 93.5821C70.46 93.5421 71.08 93.5021 71.72 93.4421V94.2221L70.4 93.9221C70.22 94.8221 69.94 95.7821 69.48 96.5021C69.84 96.6421 70.44 96.9421 70.74 97.1221C71.12 96.4621 71.48 95.4821 71.72 94.5821V97.3221ZM82.42 94.2821C82.76 95.1021 83.12 96.1621 83.24 96.8621L84.5 96.4421C84.34 95.7621 83.96 94.7221 83.62 93.9221L82.42 94.2821ZM75.04 93.6021H78.84V92.5221H75.04V93.6021ZM78.84 90.9821H75.04V92.0621H78.84V90.9821ZM74.96 96.1021C74.86 95.5421 74.64 94.6621 74.42 94.0021L73.28 94.2621C73.48 94.9621 73.68 95.8621 73.76 96.4421L74.96 96.1021ZM73.56 101.602L73.72 100.982H82.58V97.6621H71.24V99.0021H80.38V99.6221H71.84C71.6 100.862 71.22 102.342 70.86 103.362L73 103.642C73.06 103.462 73.12 103.262 73.18 103.062H81.06C80.88 103.622 80.7 103.942 80.48 104.102C80.28 104.242 80.04 104.262 79.64 104.262C79.14 104.262 77.82 104.242 76.62 104.122C76.96 104.622 77.22 105.342 77.26 105.862C78.5 105.902 79.72 105.922 80.36 105.902C81.16 105.862 81.72 105.762 82.22 105.382C82.76 104.942 83.12 104.062 83.44 102.462C83.52 102.182 83.56 101.602 83.56 101.602H73.56Z" fill="white"/>
<path d="M107.88 95.0621V92.6021H100.02C100.22 90.7421 100.24 88.9021 100.26 87.2621H97.66C97.64 88.9021 97.66 90.7221 97.46 92.6021H90.18V95.0621H97.06C96.28 98.5021 94.38 101.822 89.8 103.862C90.5 104.362 91.2 105.222 91.58 105.882C95.82 103.842 97.98 100.722 99.06 97.3821C100.62 101.242 102.94 104.162 106.56 105.862C106.94 105.182 107.72 104.122 108.32 103.622C104.58 102.102 102.16 98.9621 100.84 95.0621H107.88Z" fill="white"/>
<path d="M118.22 98.1221V96.9021H121.7V98.1221H118.22ZM118.22 93.9021H121.7V95.1221H118.22V93.9021ZM127.64 93.9021V95.1221H124.14V93.9021H127.64ZM127.64 98.1221H124.14V96.9021H127.64V98.1221ZM132.12 101.102H124.14V100.022H130.04V92.0021H124.14V91.0421H131.54V88.8821H124.14V87.2621H121.7V88.8821H114.44V91.0421H121.7V92.0021H115.94V100.022H121.7V101.102H113.96V103.242H121.7V105.942H124.14V103.242H132.12V101.102Z" fill="white"/>
<path d="M149 94.0421C149.46 93.6621 149.88 93.2621 150.28 92.8421C150.58 94.5621 150.94 96.2021 151.42 97.6821C150.92 96.3821 150.14 95.1221 149 94.0421ZM154.94 93.4221C154.4 94.0621 153.6 94.8421 152.86 95.5021C152.58 94.5221 152.34 93.5021 152.14 92.4421H156.1V90.3821H153.56C153.96 89.6821 154.4 88.8021 154.86 87.9221L152.6 87.2621C152.32 88.1821 151.8 89.4021 151.36 90.2221L151.86 90.3821H148.52L148.98 90.2021C148.76 89.4021 148.22 88.2221 147.64 87.3621L145.72 88.0221C146.14 88.7221 146.54 89.6221 146.8 90.3821H144.48V92.4421H147.94C146.74 93.4821 145.2 94.4021 143.7 95.0221C144.1 95.4021 144.8 96.2621 145.08 96.7021C145.84 96.3021 146.66 95.8021 147.44 95.2621C147.66 95.4821 147.86 95.7221 148.04 95.9821C147.1 96.8421 145.68 97.7621 144.44 98.3621C144.44 97.2021 144.18 95.8621 142.98 94.3421C143.54 92.7821 144.2 90.6021 144.72 88.9021L143.16 88.0021L142.82 88.1021H138.48V105.922H140.54V90.2221H142.1C141.78 91.5821 141.36 93.3221 140.96 94.5821C142.08 95.9221 142.34 97.1621 142.34 98.0821C142.34 98.6421 142.26 99.0421 142.04 99.2021C141.88 99.3221 141.7 99.3621 141.48 99.3821C141.22 99.3821 140.96 99.3821 140.6 99.3621C140.92 99.9221 141.1 100.822 141.12 101.382C141.58 101.402 142.06 101.382 142.4 101.342C142.86 101.262 143.24 101.142 143.56 100.922C144.04 100.582 144.3 99.9821 144.4 99.1421C144.7 99.5021 144.98 99.9021 145.18 100.242C146.36 99.5821 147.84 98.5221 148.98 97.5021C149.12 97.8021 149.24 98.1021 149.34 98.4021C147.88 100.122 145.3 101.902 143.06 102.742C143.56 103.142 144.14 103.862 144.48 104.382C146.24 103.542 148.24 102.122 149.78 100.662C149.84 101.882 149.6 102.862 149.24 103.262C149 103.702 148.68 103.782 148.26 103.782C147.82 103.782 147.32 103.742 146.68 103.682C147.1 104.342 147.26 105.242 147.28 105.862C147.8 105.902 148.26 105.922 148.68 105.902C149.66 105.882 150.3 105.682 150.92 105.002C152.02 104.002 152.48 101.222 151.66 98.4221C152.48 100.702 153.56 102.622 155.04 103.982C155.42 103.402 156.12 102.582 156.66 102.182C155.3 101.082 154.28 99.3821 153.5 97.3821C154.42 96.7221 155.52 95.8221 156.46 95.0021L154.94 93.4221Z" fill="white"/>
<path d="M174.5 100.662V101.442H167.52V100.662H174.5ZM167.52 103.822V103.022H174.5V103.822H167.52ZM165.18 105.922H167.52V105.382H174.5V105.862H176.94V99.1021H165.18V105.922ZM164.56 93.0221C165.58 92.5821 166.58 92.0821 167.5 91.5421V92.3021H174.52V91.6221C175.46 92.1421 176.46 92.6221 177.42 93.0221H164.56ZM175.9 97.0021H174.2C174.52 96.4421 174.9 95.6621 175.3 94.8621L173.74 94.4821H175.9V97.0021ZM166.06 97.0021V94.4821H168.3L166.76 94.9221C167.08 95.5621 167.34 96.3821 167.44 97.0021H166.06ZM169.94 97.0021H167.92L169.2 96.6221C169.08 96.0221 168.76 95.1621 168.4 94.4821H169.94V97.0021ZM173.32 94.4821C173.14 95.1421 172.8 96.0621 172.52 96.6821L173.7 97.0021H171.86V94.4821H173.32ZM168.76 90.7621C169.6 90.2021 170.32 89.6421 170.88 89.0821C171.48 89.6421 172.24 90.2221 173.1 90.7621H168.76ZM169.68 87.2421C168.04 89.0221 164.76 90.9021 161.5 91.8621C161.94 92.3421 162.46 93.2021 162.74 93.7221C163.18 93.5621 163.64 93.4021 164.08 93.2221V98.4621H177.98V93.2421C178.36 93.4021 178.76 93.5421 179.12 93.6621C179.48 93.0621 179.98 92.2221 180.48 91.6821C177.4 90.9221 174.18 89.3421 171.92 87.2421H169.68Z" fill="white"/>
<path d="M199.08 91.0221H191V89.7221H199.08V91.0221ZM201.62 87.8621H188.6V92.8621H201.62V87.8621ZM190.06 99.9621H199.86V100.842H190.06V99.9621ZM190.06 97.6021H199.86V98.4421H190.06V97.6021ZM190.06 95.2221H199.86V96.0821H190.06V95.2221ZM202.32 102.442V93.6021H187.7V102.442H190.84C189.48 103.122 187.42 103.842 185.68 104.222C186.22 104.682 187.04 105.422 187.48 105.922C189.5 105.422 192.06 104.462 193.68 103.522L192.14 102.442H197.6L195.92 103.642C198.04 104.262 200.8 105.242 202.34 105.962L204.44 104.282C203.06 103.722 200.96 103.002 199.08 102.442H202.32Z" fill="white"/>
<path d="M228.12 98.0821V96.0621H220.22V94.9221H226.28V92.9621H220.22V92.1621C220.64 91.7221 221.02 91.2021 221.4 90.6221H222.18C222.7 91.3421 223.2 92.1821 223.42 92.7421L225.46 91.8821C225.3 91.5421 225.02 91.0821 224.7 90.6221H228.02V88.6821H222.5C222.66 88.3421 222.82 87.9821 222.92 87.6621L220.64 87.0821C220.24 88.2221 219.58 89.3821 218.78 90.3021V88.6821H214.4C214.58 88.3421 214.74 88.0221 214.88 87.6821L212.6 87.0821C211.9 88.7821 210.72 90.5021 209.42 91.5821C209.96 91.8621 210.94 92.5221 211.4 92.9021C212 92.2821 212.66 91.5021 213.26 90.6221H213.46C213.84 91.3421 214.24 92.1621 214.38 92.7221L216.42 91.8821C216.3 91.5421 216.08 91.0821 215.82 90.6221H218.5C218.28 90.8621 218.04 91.1021 217.78 91.3021C218.08 91.4621 218.52 91.7421 218.94 92.0021H217.74V92.9621H211.94V94.9221H217.74V96.0621H209.92V98.0821H221.68V99.2821H210.68V101.282H214.36L213.3 102.082C214.46 102.942 215.76 104.182 216.32 105.082L218.16 103.602C217.66 102.902 216.7 102.002 215.74 101.282H221.68V103.402C221.68 103.642 221.58 103.722 221.26 103.722C220.94 103.722 219.74 103.722 218.72 103.682C219.04 104.302 219.44 105.222 219.58 105.902C221.06 105.902 222.2 105.882 223.04 105.542C223.9 105.182 224.14 104.622 224.14 103.442V101.282H227.52V99.2821H224.14V98.0821H228.12Z" fill="white"/>
<path d="M234.42 98.9421C234.26 100.622 233.94 102.402 233.36 103.582C233.88 103.762 234.76 104.182 235.18 104.442C235.76 103.162 236.18 101.162 236.38 99.2821L234.42 98.9421ZM239.98 97.6621C240.1 98.0421 240.18 98.4021 240.24 98.7021L241.94 97.9421C241.72 96.8021 240.94 95.0621 240.16 93.7021L238.6 94.3621C238.84 94.8021 239.08 95.2821 239.28 95.7821L237.12 95.8821C238.38 94.2621 239.76 92.2421 240.86 90.5021L238.92 89.6021C238.46 90.5821 237.82 91.7221 237.14 92.8421C236.94 92.6021 236.72 92.3221 236.46 92.0421C237.18 90.9221 237.98 89.3821 238.7 88.0221L236.64 87.2621C236.3 88.3221 235.74 89.6421 235.18 90.7421C235.02 90.6021 234.86 90.4621 234.72 90.3421L233.58 91.9621C234.4 92.7621 235.36 93.8221 235.94 94.6821C235.62 95.1421 235.32 95.5621 235.02 95.9621L233.56 96.0221L233.76 98.0821C234.62 98.0221 235.62 97.9621 236.66 97.9021V105.942H238.72V97.7621L239.98 97.6621ZM244.68 90.5821H247.04C246.76 92.2621 246.38 94.3421 246 96.0221L248.12 96.2621L248.28 95.4821H249.58C249.12 97.2421 248.44 98.7821 247.58 100.062C246.04 97.7621 245.18 94.7621 244.68 91.3821V90.5821ZM250.76 93.2821L250.36 93.3621H248.72C249.04 91.7021 249.34 89.9821 249.54 88.5221L247.96 88.3021L247.6 88.4021H240.96V90.5821H242.62V93.5621C242.62 95.7021 242.48 98.5821 241.44 101.222C241.2 100.422 240.86 99.4821 240.52 98.7421L238.84 99.2821C239.28 100.382 239.74 101.802 239.92 102.742L240.92 102.382C240.52 103.162 240.02 103.902 239.4 104.582C239.94 104.842 240.74 105.462 241.14 105.842C243.12 103.642 244.02 100.762 244.4 98.0421C244.88 99.4221 245.46 100.682 246.2 101.802C245.26 102.762 244.18 103.542 242.98 104.122C243.48 104.482 244.26 105.362 244.58 105.882C245.68 105.282 246.7 104.522 247.62 103.562C248.6 104.542 249.76 105.342 251.14 105.942C251.44 105.342 252.1 104.442 252.58 104.022C251.18 103.522 250.02 102.782 249.04 101.842C250.5 99.7621 251.58 97.1021 252.18 93.8221L250.76 93.2821Z" fill="white"/>
<path d="M257.82 95.1021V97.6821H276.22V95.1021H257.82Z" fill="white"/>
<path d="M287.44 91.2821C286.68 90.4421 285.06 89.2421 283.88 88.4821L282.16 90.2221C283.4 91.1021 284.96 92.3821 285.66 93.2421L287.44 91.2821ZM286.14 96.3421C284.5 98.1621 282.72 100.002 281.62 101.082L283.14 103.102C284.5 101.762 286.12 100.022 287.52 98.4021L286.14 96.3421ZM294.42 93.0621H297.24C296.88 94.2021 296.38 95.3421 295.98 96.1021C296.54 96.3221 297.52 96.8021 298 97.0821C298.78 95.6421 299.74 93.5821 300.3 91.5821L298.54 90.5621L298.08 90.6821H291.2C291.52 89.7421 291.78 88.7621 292 87.7621L289.52 87.3021C288.9 90.5021 287.7 93.5821 286 95.4221C286.6 95.7021 287.76 96.3421 288.24 96.7221C289 95.7421 289.72 94.4821 290.32 93.0621H291.92V95.1221C291.92 97.3421 290.58 101.762 285.18 103.922C285.6 104.362 286.34 105.362 286.62 105.922C290.66 104.162 292.7 100.762 293.18 98.9821C293.56 100.762 295.42 104.282 299 105.922C299.38 105.302 300.06 104.322 300.52 103.742C295.62 101.602 294.42 97.2421 294.42 95.1021V93.0621Z" fill="white"/>
<path d="M319.6 98.7021H312.36V97.8421H319.6V98.7021ZM312.36 103.462V102.542H319.6V103.462H312.36ZM319.6 101.062H312.36V100.182H319.6V101.062ZM323.88 95.2221V93.3421H313.98C314.1 93.0621 314.22 92.7621 314.32 92.4821H322.8V90.6821H314.96C315.06 90.3621 315.16 90.0421 315.24 89.7221C317.98 89.5821 320.6 89.3621 322.72 89.0021L321.32 87.3021C317.96 87.8621 312.18 88.1021 307.3 88.1021C307.5 88.5821 307.72 89.3621 307.74 89.8821C309.3 89.9021 310.96 89.8821 312.62 89.8221C312.56 90.1221 312.48 90.4021 312.4 90.6821H307.52V92.4821H311.76C311.64 92.7621 311.52 93.0621 311.38 93.3421H306.12V95.2221H310.38C309.18 97.1021 307.58 98.7621 305.5 99.8821C305.96 100.362 306.66 101.242 307 101.802C308.16 101.122 309.18 100.302 310.08 99.4021V105.982H312.36V105.262H319.6V105.982H322V96.0421H312.64C312.8 95.7621 312.96 95.5021 313.1 95.2221H323.88Z" fill="white"/>
<path d="M146.92 67.0821C146.34 67.4021 145.82 67.7021 145.38 67.9221L146.38 69.8221C147.8 68.9421 149.5 67.8021 151.06 66.7421L150.4 65.0421L149.02 65.8621V60.4021H150.46C150.64 62.7821 150.96 64.9621 151.44 66.7021C150.64 67.7021 149.74 68.5421 148.74 69.1621C149.2 69.5421 149.86 70.3021 150.16 70.8021C150.92 70.2821 151.62 69.6421 152.28 68.9021C152.82 69.9421 153.52 70.5421 154.36 70.5421C155.8 70.5421 156.4 69.8021 156.7 67.0421C156.18 66.8221 155.52 66.3621 155.1 65.8821C155.04 67.6021 154.88 68.3821 154.6 68.3821C154.28 68.3821 153.98 67.8821 153.68 67.0221C154.68 65.4621 155.48 63.6421 156.04 61.6821L154.22 61.2021C153.92 62.2221 153.52 63.2421 153.04 64.1821C152.86 63.0621 152.7 61.7821 152.6 60.4021H156.26V58.4221H154.62L156.04 57.6421C155.72 57.0021 154.96 56.0421 154.32 55.3421L152.72 56.1821C153.3 56.8421 153.94 57.7621 154.26 58.4221H152.48C152.44 57.3821 152.42 56.3221 152.42 55.2621H150.22C150.24 56.3221 150.28 57.3821 150.32 58.4221H146.92V67.0821ZM143.82 67.4821H146.2V65.4221H143.82V63.2021H146.46V61.1221H143.46V59.4421H146.16V57.3621H143.46V55.2621H141.28V57.3621H138.5V59.4421H141.28V61.1221H137.82V63.2021H141.68V68.9421C141.24 68.3821 140.88 67.6821 140.58 66.8021C140.6 66.0221 140.6 65.2421 140.58 64.4821L138.58 64.3621C138.68 67.0621 138.56 70.1621 137.28 72.4221C137.76 72.6621 138.52 73.3821 138.82 73.8621C139.48 72.7821 139.9 71.5421 140.18 70.2621C141.88 72.8621 144.46 73.4021 148.4 73.4021H155.64C155.8 72.7021 156.18 71.6021 156.56 71.0621C154.86 71.1221 149.84 71.1221 148.42 71.1221C146.56 71.1221 145.04 71.0021 143.82 70.5221V67.4821Z" stroke="#284273" stroke-width="4" stroke-linecap="round" mask="url(#path-3-outside-1)"/>
<path d="M176.42 69.4421V71.3221H171.46V69.4421H176.42ZM169.32 73.9221H171.46V73.2021H176.42V73.8421H178.66V67.5621H169.32V73.9221ZM171.76 64.4821C172.62 63.6821 173.36 62.8421 173.86 62.0621C174.42 62.8621 175.22 63.7021 176.1 64.4821H171.76ZM172.7 60.0221C172.62 60.1421 172.54 60.2821 172.46 60.4221V59.0821H175.5V60.6821H177.74V59.0821H180.08V57.0621H177.74V55.2621H175.5V57.0621H172.46V55.2621H170.26V57.0621H168.04V59.0821H170.26V60.6221H172.32C171.36 62.0221 169.8 63.5221 168.12 64.5421L167.94 63.2821L166.48 63.6821V61.2021H168.02V59.0221H166.48V55.2621H164.2V59.0221H161.88V61.2021H164.2V64.3021C163.18 64.5821 162.24 64.8221 161.48 64.9821L161.98 67.2821C162.66 67.0821 163.42 66.8621 164.2 66.6421V71.2221C164.2 71.5221 164.1 71.6021 163.86 71.6021C163.6 71.6221 162.78 71.6221 162 71.5821C162.3 72.2421 162.6 73.2621 162.66 73.9021C164.04 73.9021 164.98 73.8221 165.64 73.4221C166.28 73.0621 166.48 72.4221 166.48 71.2421V65.9421L167.5 65.6221C167.8 66.0621 168.06 66.6021 168.22 66.9821C169.14 66.5221 170.02 65.9421 170.84 65.2821V66.3621H177.04V65.2421C177.8 65.8421 178.6 66.3421 179.38 66.7421C179.7 66.0621 180.16 65.2021 180.62 64.6621C178.46 63.8221 176.3 62.0421 174.86 60.0221H172.7Z" stroke="#284273" stroke-width="4" stroke-linecap="round" mask="url(#path-3-outside-1)"/>
<path d="M194.92 67.0821C194.34 67.4021 193.82 67.7021 193.38 67.9221L194.38 69.8221C195.8 68.9421 197.5 67.8021 199.06 66.7421L198.4 65.0421L197.02 65.8621V60.4021H198.46C198.64 62.7821 198.96 64.9621 199.44 66.7021C198.64 67.7021 197.74 68.5421 196.74 69.1621C197.2 69.5421 197.86 70.3021 198.16 70.8021C198.92 70.2821 199.62 69.6421 200.28 68.9021C200.82 69.9421 201.52 70.5421 202.36 70.5421C203.8 70.5421 204.4 69.8021 204.7 67.0421C204.18 66.8221 203.52 66.3621 203.1 65.8821C203.04 67.6021 202.88 68.3821 202.6 68.3821C202.28 68.3821 201.98 67.8821 201.68 67.0221C202.68 65.4621 203.48 63.6421 204.04 61.6821L202.22 61.2021C201.92 62.2221 201.52 63.2421 201.04 64.1821C200.86 63.0621 200.7 61.7821 200.6 60.4021H204.26V58.4221H202.62L204.04 57.6421C203.72 57.0021 202.96 56.0421 202.32 55.3421L200.72 56.1821C201.3 56.8421 201.94 57.7621 202.26 58.4221H200.48C200.44 57.3821 200.42 56.3221 200.42 55.2621H198.22C198.24 56.3221 198.28 57.3821 198.32 58.4221H194.92V67.0821ZM191.82 67.4821H194.2V65.4221H191.82V63.2021H194.46V61.1221H191.46V59.4421H194.16V57.3621H191.46V55.2621H189.28V57.3621H186.5V59.4421H189.28V61.1221H185.82V63.2021H189.68V68.9421C189.24 68.3821 188.88 67.6821 188.58 66.8021C188.6 66.0221 188.6 65.2421 188.58 64.4821L186.58 64.3621C186.68 67.0621 186.56 70.1621 185.28 72.4221C185.76 72.6621 186.52 73.3821 186.82 73.8621C187.48 72.7821 187.9 71.5421 188.18 70.2621C189.88 72.8621 192.46 73.4021 196.4 73.4021H203.64C203.8 72.7021 204.18 71.6021 204.56 71.0621C202.86 71.1221 197.84 71.1221 196.42 71.1221C194.56 71.1221 193.04 71.0021 191.82 70.5221V67.4821Z" stroke="#284273" stroke-width="4" stroke-linecap="round" mask="url(#path-3-outside-1)"/>
<path d="M214.56 59.7021H212.58V57.8621H214.56V59.7021ZM214.56 63.3421H212.58V61.4821H214.56V63.3421ZM214.56 66.9821H212.58V65.1021H214.56V66.9821ZM216.64 55.9821H210.56V68.8821H216.64V55.9821ZM211.52 69.0221C211.12 70.4221 210.36 71.8621 209.46 72.8021C209.96 73.0621 210.82 73.6221 211.22 73.9621C212.16 72.8821 213.08 71.1621 213.6 69.4821L211.52 69.0221ZM221.24 66.4821V65.4621H222.34V66.4821H221.24ZM221.24 62.9421H222.34V63.8821H221.24V62.9421ZM221.24 60.4421H222.34V61.2221H221.24V60.4421ZM225.48 62.9421V63.8821H224.34V62.9421H225.48ZM224.34 66.4821V65.4621H225.48V66.4821H224.34ZM227.42 68.1621V65.5621H228.4V63.7221H227.42V61.2221H224.34V60.4421H227.96V58.6421H224.34V58.0021C225.5 57.5421 226.64 57.0021 227.56 56.4021L225.68 55.2621C224.88 55.9421 223.42 56.7021 222.02 57.2221C222.12 57.3621 222.24 57.5621 222.34 57.7621V58.6421H221.24V57.1421C221.82 56.9221 222.38 56.7021 222.86 56.4421L221.14 55.2621C220.24 55.8421 218.56 56.4221 217.06 56.8221C217.28 57.1821 217.56 57.7821 217.66 58.1421C218.18 58.0421 218.74 57.9021 219.28 57.7621V58.6421H217.16V60.4421H219.28V61.2221H217.62V62.9421H219.28V63.8821H216.94V65.4621H219.28V66.4821H217.54V68.1621H218.88C218.32 69.2621 217.56 70.2821 216.7 71.0621C216.4 70.3821 216 69.5821 215.62 68.9621L213.86 69.7221C214.34 70.6421 214.92 71.8821 215.18 72.6821L216.16 72.2021C216.5 72.5621 216.86 73.0021 217.08 73.3221C217.9 72.7021 218.64 71.8221 219.28 70.7821V73.9221H221.24V68.1621H222.34V73.9221H224.34V70.0221C225.16 71.2621 226.14 72.4021 227.08 73.1621C227.42 72.6621 228.08 71.9221 228.54 71.5621C227.36 70.8021 226.1 69.5021 225.18 68.1621H227.42Z" stroke="#284273" stroke-width="4" stroke-linecap="round" mask="url(#path-3-outside-1)"/>
<path d="M55.1 99.3621V102.822H46.78V99.3621H55.1ZM44.34 105.902H46.78V105.102H55.1V105.882H57.66V97.1021H44.34V105.902ZM53.04 90.6421C53.66 91.1821 54.32 91.7821 54.96 92.4221C52.66 92.5221 50.34 92.6221 48.18 92.7021C49.14 91.2421 50.14 89.5621 50.98 87.9821L48.24 87.1021C47.56 88.8621 46.42 91.0621 45.3 92.8021C44.18 92.8221 43.14 92.8621 42.22 92.8821L42.36 95.2821C46.08 95.1421 51.66 94.9221 56.94 94.6421C57.48 95.3021 57.92 95.9221 58.22 96.4621L60.28 94.8821C59.26 93.1621 56.88 90.8621 54.9 89.2421L53.04 90.6421Z" stroke="#284273" stroke-width="4" stroke-linecap="round" mask="url(#path-3-outside-1)"/>
<path d="M78.66 87.5821H75.18V88.7221H78.66V87.5821ZM70.18 89.5021C69.58 88.8621 68.28 88.0221 67.3 87.4821L65.94 89.1021C66.94 89.7021 68.18 90.6221 68.74 91.2821L70.18 89.5021ZM69.8 94.6021C69.14 93.9821 67.84 93.2021 66.82 92.7221L65.52 94.3821C66.52 94.9221 67.82 95.8021 68.4 96.4221L69.8 94.6021ZM68.08 105.682C68.88 103.742 69.7 101.422 70.34 99.2821L68.46 98.0821C67.72 100.422 66.7 102.942 65.98 104.502L68.08 105.682ZM77.4 96.0821H76.4V95.2021H77.4V96.0821ZM71.72 97.3221H73.22V93.3421L73.84 93.2821C73.88 93.4821 73.9 93.6621 73.92 93.8221L75 93.4221C74.92 92.8021 74.64 91.8421 74.3 91.1221L73.3 91.4821C73.36 91.6421 73.42 91.8221 73.48 92.0021L72.62 92.0221C73.24 91.3221 73.88 90.5021 74.46 89.7421V90.4621H79.24V90.2421C79.7 90.6421 80.14 91.1221 80.44 91.5221C80.26 91.7221 80.08 91.9421 79.92 92.1221L78.98 92.1421L79.12 93.5821L80.84 93.4821V94.2221L79.54 93.9221C79.38 94.6621 79.16 95.4621 78.84 96.1221V94.1421H75.02V97.1421H78.84V96.4821C79.2 96.6421 79.68 96.9021 79.92 97.0821C80.26 96.4421 80.62 95.4821 80.84 94.5821V97.3221H82.36V93.4021L83.14 93.3421C83.18 93.5221 83.22 93.6821 83.24 93.8221L84.44 93.3021C84.3 92.6421 83.92 91.6621 83.52 90.9421L82.38 91.4021C82.48 91.6021 82.58 91.8221 82.68 92.0421L81.58 92.0621C82.3 91.2821 83.06 90.3621 83.72 89.5421L82.4 88.8021C82.14 89.2621 81.78 89.7821 81.38 90.3221C81.26 90.1821 81.12 90.0221 80.96 89.8821C81.38 89.3021 81.84 88.5621 82.3 87.8821L80.94 87.2221C80.72 87.7221 80.36 88.4421 80.02 89.0621L79.76 88.8621L79.24 89.5621V89.2221H74.46V89.5621L73.26 88.8821C73.04 89.2821 72.74 89.7221 72.42 90.2021C72.3 90.0621 72.14 89.9421 72 89.8021C72.38 89.2221 72.82 88.5221 73.24 87.8421L71.9 87.1621C71.68 87.7021 71.34 88.4221 71 89.0221C70.9 88.9621 70.78 88.8821 70.68 88.8221L69.94 89.9821C70.48 90.3821 71.08 90.9221 71.52 91.4021C71.34 91.6421 71.14 91.8821 70.96 92.1021L69.74 92.1421L69.9 93.5821C70.46 93.5421 71.08 93.5021 71.72 93.4421V94.2221L70.4 93.9221C70.22 94.8221 69.94 95.7821 69.48 96.5021C69.84 96.6421 70.44 96.9421 70.74 97.1221C71.12 96.4621 71.48 95.4821 71.72 94.5821V97.3221ZM82.42 94.2821C82.76 95.1021 83.12 96.1621 83.24 96.8621L84.5 96.4421C84.34 95.7621 83.96 94.7221 83.62 93.9221L82.42 94.2821ZM75.04 93.6021H78.84V92.5221H75.04V93.6021ZM78.84 90.9821H75.04V92.0621H78.84V90.9821ZM74.96 96.1021C74.86 95.5421 74.64 94.6621 74.42 94.0021L73.28 94.2621C73.48 94.9621 73.68 95.8621 73.76 96.4421L74.96 96.1021ZM73.56 101.602L73.72 100.982H82.58V97.6621H71.24V99.0021H80.38V99.6221H71.84C71.6 100.862 71.22 102.342 70.86 103.362L73 103.642C73.06 103.462 73.12 103.262 73.18 103.062H81.06C80.88 103.622 80.7 103.942 80.48 104.102C80.28 104.242 80.04 104.262 79.64 104.262C79.14 104.262 77.82 104.242 76.62 104.122C76.96 104.622 77.22 105.342 77.26 105.862C78.5 105.902 79.72 105.922 80.36 105.902C81.16 105.862 81.72 105.762 82.22 105.382C82.76 104.942 83.12 104.062 83.44 102.462C83.52 102.182 83.56 101.602 83.56 101.602H73.56Z" stroke="#284273" stroke-width="4" stroke-linecap="round" mask="url(#path-3-outside-1)"/>
<path d="M107.88 95.0621V92.6021H100.02C100.22 90.7421 100.24 88.9021 100.26 87.2621H97.66C97.64 88.9021 97.66 90.7221 97.46 92.6021H90.18V95.0621H97.06C96.28 98.5021 94.38 101.822 89.8 103.862C90.5 104.362 91.2 105.222 91.58 105.882C95.82 103.842 97.98 100.722 99.06 97.3821C100.62 101.242 102.94 104.162 106.56 105.862C106.94 105.182 107.72 104.122 108.32 103.622C104.58 102.102 102.16 98.9621 100.84 95.0621H107.88Z" stroke="#284273" stroke-width="4" stroke-linecap="round" mask="url(#path-3-outside-1)"/>
<path d="M118.22 98.1221V96.9021H121.7V98.1221H118.22ZM118.22 93.9021H121.7V95.1221H118.22V93.9021ZM127.64 93.9021V95.1221H124.14V93.9021H127.64ZM127.64 98.1221H124.14V96.9021H127.64V98.1221ZM132.12 101.102H124.14V100.022H130.04V92.0021H124.14V91.0421H131.54V88.8821H124.14V87.2621H121.7V88.8821H114.44V91.0421H121.7V92.0021H115.94V100.022H121.7V101.102H113.96V103.242H121.7V105.942H124.14V103.242H132.12V101.102Z" stroke="#284273" stroke-width="4" stroke-linecap="round" mask="url(#path-3-outside-1)"/>
<path d="M149 94.0421C149.46 93.6621 149.88 93.2621 150.28 92.8421C150.58 94.5621 150.94 96.2021 151.42 97.6821C150.92 96.3821 150.14 95.1221 149 94.0421ZM154.94 93.4221C154.4 94.0621 153.6 94.8421 152.86 95.5021C152.58 94.5221 152.34 93.5021 152.14 92.4421H156.1V90.3821H153.56C153.96 89.6821 154.4 88.8021 154.86 87.9221L152.6 87.2621C152.32 88.1821 151.8 89.4021 151.36 90.2221L151.86 90.3821H148.52L148.98 90.2021C148.76 89.4021 148.22 88.2221 147.64 87.3621L145.72 88.0221C146.14 88.7221 146.54 89.6221 146.8 90.3821H144.48V92.4421H147.94C146.74 93.4821 145.2 94.4021 143.7 95.0221C144.1 95.4021 144.8 96.2621 145.08 96.7021C145.84 96.3021 146.66 95.8021 147.44 95.2621C147.66 95.4821 147.86 95.7221 148.04 95.9821C147.1 96.8421 145.68 97.7621 144.44 98.3621C144.44 97.2021 144.18 95.8621 142.98 94.3421C143.54 92.7821 144.2 90.6021 144.72 88.9021L143.16 88.0021L142.82 88.1021H138.48V105.922H140.54V90.2221H142.1C141.78 91.5821 141.36 93.3221 140.96 94.5821C142.08 95.9221 142.34 97.1621 142.34 98.0821C142.34 98.6421 142.26 99.0421 142.04 99.2021C141.88 99.3221 141.7 99.3621 141.48 99.3821C141.22 99.3821 140.96 99.3821 140.6 99.3621C140.92 99.9221 141.1 100.822 141.12 101.382C141.58 101.402 142.06 101.382 142.4 101.342C142.86 101.262 143.24 101.142 143.56 100.922C144.04 100.582 144.3 99.9821 144.4 99.1421C144.7 99.5021 144.98 99.9021 145.18 100.242C146.36 99.5821 147.84 98.5221 148.98 97.5021C149.12 97.8021 149.24 98.1021 149.34 98.4021C147.88 100.122 145.3 101.902 143.06 102.742C143.56 103.142 144.14 103.862 144.48 104.382C146.24 103.542 148.24 102.122 149.78 100.662C149.84 101.882 149.6 102.862 149.24 103.262C149 103.702 148.68 103.782 148.26 103.782C147.82 103.782 147.32 103.742 146.68 103.682C147.1 104.342 147.26 105.242 147.28 105.862C147.8 105.902 148.26 105.922 148.68 105.902C149.66 105.882 150.3 105.682 150.92 105.002C152.02 104.002 152.48 101.222 151.66 98.4221C152.48 100.702 153.56 102.622 155.04 103.982C155.42 103.402 156.12 102.582 156.66 102.182C155.3 101.082 154.28 99.3821 153.5 97.3821C154.42 96.7221 155.52 95.8221 156.46 95.0021L154.94 93.4221Z" stroke="#284273" stroke-width="4" stroke-linecap="round" mask="url(#path-3-outside-1)"/>
<path d="M174.5 100.662V101.442H167.52V100.662H174.5ZM167.52 103.822V103.022H174.5V103.822H167.52ZM165.18 105.922H167.52V105.382H174.5V105.862H176.94V99.1021H165.18V105.922ZM164.56 93.0221C165.58 92.5821 166.58 92.0821 167.5 91.5421V92.3021H174.52V91.6221C175.46 92.1421 176.46 92.6221 177.42 93.0221H164.56ZM175.9 97.0021H174.2C174.52 96.4421 174.9 95.6621 175.3 94.8621L173.74 94.4821H175.9V97.0021ZM166.06 97.0021V94.4821H168.3L166.76 94.9221C167.08 95.5621 167.34 96.3821 167.44 97.0021H166.06ZM169.94 97.0021H167.92L169.2 96.6221C169.08 96.0221 168.76 95.1621 168.4 94.4821H169.94V97.0021ZM173.32 94.4821C173.14 95.1421 172.8 96.0621 172.52 96.6821L173.7 97.0021H171.86V94.4821H173.32ZM168.76 90.7621C169.6 90.2021 170.32 89.6421 170.88 89.0821C171.48 89.6421 172.24 90.2221 173.1 90.7621H168.76ZM169.68 87.2421C168.04 89.0221 164.76 90.9021 161.5 91.8621C161.94 92.3421 162.46 93.2021 162.74 93.7221C163.18 93.5621 163.64 93.4021 164.08 93.2221V98.4621H177.98V93.2421C178.36 93.4021 178.76 93.5421 179.12 93.6621C179.48 93.0621 179.98 92.2221 180.48 91.6821C177.4 90.9221 174.18 89.3421 171.92 87.2421H169.68Z" stroke="#284273" stroke-width="4" stroke-linecap="round" mask="url(#path-3-outside-1)"/>
<path d="M199.08 91.0221H191V89.7221H199.08V91.0221ZM201.62 87.8621H188.6V92.8621H201.62V87.8621ZM190.06 99.9621H199.86V100.842H190.06V99.9621ZM190.06 97.6021H199.86V98.4421H190.06V97.6021ZM190.06 95.2221H199.86V96.0821H190.06V95.2221ZM202.32 102.442V93.6021H187.7V102.442H190.84C189.48 103.122 187.42 103.842 185.68 104.222C186.22 104.682 187.04 105.422 187.48 105.922C189.5 105.422 192.06 104.462 193.68 103.522L192.14 102.442H197.6L195.92 103.642C198.04 104.262 200.8 105.242 202.34 105.962L204.44 104.282C203.06 103.722 200.96 103.002 199.08 102.442H202.32Z" stroke="#284273" stroke-width="4" stroke-linecap="round" mask="url(#path-3-outside-1)"/>
<path d="M228.12 98.0821V96.0621H220.22V94.9221H226.28V92.9621H220.22V92.1621C220.64 91.7221 221.02 91.2021 221.4 90.6221H222.18C222.7 91.3421 223.2 92.1821 223.42 92.7421L225.46 91.8821C225.3 91.5421 225.02 91.0821 224.7 90.6221H228.02V88.6821H222.5C222.66 88.3421 222.82 87.9821 222.92 87.6621L220.64 87.0821C220.24 88.2221 219.58 89.3821 218.78 90.3021V88.6821H214.4C214.58 88.3421 214.74 88.0221 214.88 87.6821L212.6 87.0821C211.9 88.7821 210.72 90.5021 209.42 91.5821C209.96 91.8621 210.94 92.5221 211.4 92.9021C212 92.2821 212.66 91.5021 213.26 90.6221H213.46C213.84 91.3421 214.24 92.1621 214.38 92.7221L216.42 91.8821C216.3 91.5421 216.08 91.0821 215.82 90.6221H218.5C218.28 90.8621 218.04 91.1021 217.78 91.3021C218.08 91.4621 218.52 91.7421 218.94 92.0021H217.74V92.9621H211.94V94.9221H217.74V96.0621H209.92V98.0821H221.68V99.2821H210.68V101.282H214.36L213.3 102.082C214.46 102.942 215.76 104.182 216.32 105.082L218.16 103.602C217.66 102.902 216.7 102.002 215.74 101.282H221.68V103.402C221.68 103.642 221.58 103.722 221.26 103.722C220.94 103.722 219.74 103.722 218.72 103.682C219.04 104.302 219.44 105.222 219.58 105.902C221.06 105.902 222.2 105.882 223.04 105.542C223.9 105.182 224.14 104.622 224.14 103.442V101.282H227.52V99.2821H224.14V98.0821H228.12Z" stroke="#284273" stroke-width="4" stroke-linecap="round" mask="url(#path-3-outside-1)"/>
<path d="M234.42 98.9421C234.26 100.622 233.94 102.402 233.36 103.582C233.88 103.762 234.76 104.182 235.18 104.442C235.76 103.162 236.18 101.162 236.38 99.2821L234.42 98.9421ZM239.98 97.6621C240.1 98.0421 240.18 98.4021 240.24 98.7021L241.94 97.9421C241.72 96.8021 240.94 95.0621 240.16 93.7021L238.6 94.3621C238.84 94.8021 239.08 95.2821 239.28 95.7821L237.12 95.8821C238.38 94.2621 239.76 92.2421 240.86 90.5021L238.92 89.6021C238.46 90.5821 237.82 91.7221 237.14 92.8421C236.94 92.6021 236.72 92.3221 236.46 92.0421C237.18 90.9221 237.98 89.3821 238.7 88.0221L236.64 87.2621C236.3 88.3221 235.74 89.6421 235.18 90.7421C235.02 90.6021 234.86 90.4621 234.72 90.3421L233.58 91.9621C234.4 92.7621 235.36 93.8221 235.94 94.6821C235.62 95.1421 235.32 95.5621 235.02 95.9621L233.56 96.0221L233.76 98.0821C234.62 98.0221 235.62 97.9621 236.66 97.9021V105.942H238.72V97.7621L239.98 97.6621ZM244.68 90.5821H247.04C246.76 92.2621 246.38 94.3421 246 96.0221L248.12 96.2621L248.28 95.4821H249.58C249.12 97.2421 248.44 98.7821 247.58 100.062C246.04 97.7621 245.18 94.7621 244.68 91.3821V90.5821ZM250.76 93.2821L250.36 93.3621H248.72C249.04 91.7021 249.34 89.9821 249.54 88.5221L247.96 88.3021L247.6 88.4021H240.96V90.5821H242.62V93.5621C242.62 95.7021 242.48 98.5821 241.44 101.222C241.2 100.422 240.86 99.4821 240.52 98.7421L238.84 99.2821C239.28 100.382 239.74 101.802 239.92 102.742L240.92 102.382C240.52 103.162 240.02 103.902 239.4 104.582C239.94 104.842 240.74 105.462 241.14 105.842C243.12 103.642 244.02 100.762 244.4 98.0421C244.88 99.4221 245.46 100.682 246.2 101.802C245.26 102.762 244.18 103.542 242.98 104.122C243.48 104.482 244.26 105.362 244.58 105.882C245.68 105.282 246.7 104.522 247.62 103.562C248.6 104.542 249.76 105.342 251.14 105.942C251.44 105.342 252.1 104.442 252.58 104.022C251.18 103.522 250.02 102.782 249.04 101.842C250.5 99.7621 251.58 97.1021 252.18 93.8221L250.76 93.2821Z" stroke="#284273" stroke-width="4" stroke-linecap="round" mask="url(#path-3-outside-1)"/>
<path d="M257.82 95.1021V97.6821H276.22V95.1021H257.82Z" stroke="#284273" stroke-width="4" stroke-linecap="round" mask="url(#path-3-outside-1)"/>
<path d="M287.44 91.2821C286.68 90.4421 285.06 89.2421 283.88 88.4821L282.16 90.2221C283.4 91.1021 284.96 92.3821 285.66 93.2421L287.44 91.2821ZM286.14 96.3421C284.5 98.1621 282.72 100.002 281.62 101.082L283.14 103.102C284.5 101.762 286.12 100.022 287.52 98.4021L286.14 96.3421ZM294.42 93.0621H297.24C296.88 94.2021 296.38 95.3421 295.98 96.1021C296.54 96.3221 297.52 96.8021 298 97.0821C298.78 95.6421 299.74 93.5821 300.3 91.5821L298.54 90.5621L298.08 90.6821H291.2C291.52 89.7421 291.78 88.7621 292 87.7621L289.52 87.3021C288.9 90.5021 287.7 93.5821 286 95.4221C286.6 95.7021 287.76 96.3421 288.24 96.7221C289 95.7421 289.72 94.4821 290.32 93.0621H291.92V95.1221C291.92 97.3421 290.58 101.762 285.18 103.922C285.6 104.362 286.34 105.362 286.62 105.922C290.66 104.162 292.7 100.762 293.18 98.9821C293.56 100.762 295.42 104.282 299 105.922C299.38 105.302 300.06 104.322 300.52 103.742C295.62 101.602 294.42 97.2421 294.42 95.1021V93.0621Z" stroke="#284273" stroke-width="4" stroke-linecap="round" mask="url(#path-3-outside-1)"/>
<path d="M319.6 98.7021H312.36V97.8421H319.6V98.7021ZM312.36 103.462V102.542H319.6V103.462H312.36ZM319.6 101.062H312.36V100.182H319.6V101.062ZM323.88 95.2221V93.3421H313.98C314.1 93.0621 314.22 92.7621 314.32 92.4821H322.8V90.6821H314.96C315.06 90.3621 315.16 90.0421 315.24 89.7221C317.98 89.5821 320.6 89.3621 322.72 89.0021L321.32 87.3021C317.96 87.8621 312.18 88.1021 307.3 88.1021C307.5 88.5821 307.72 89.3621 307.74 89.8821C309.3 89.9021 310.96 89.8821 312.62 89.8221C312.56 90.1221 312.48 90.4021 312.4 90.6821H307.52V92.4821H311.76C311.64 92.7621 311.52 93.0621 311.38 93.3421H306.12V95.2221H310.38C309.18 97.1021 307.58 98.7621 305.5 99.8821C305.96 100.362 306.66 101.242 307 101.802C308.16 101.122 309.18 100.302 310.08 99.4021V105.982H312.36V105.262H319.6V105.982H322V96.0421H312.64C312.8 95.7621 312.96 95.5021 313.1 95.2221H323.88Z" stroke="#284273" stroke-width="4" stroke-linecap="round" mask="url(#path-3-outside-1)"/>
<path d="M51.2073 11.0008C52.1157 9.06552 55.0185 9.7135 55.0177 11.8514L55.0167 14.7306C55.0164 15.4432 55.3953 16.1021 56.0114 16.4603L57.7619 17.4781C59.4857 18.4804 58.8418 21.1118 56.85 21.2049L54.882 21.2969C54.1411 21.3316 53.4802 21.7734 53.165 22.4449L52.0148 24.8953C51.1064 26.8305 48.2035 26.1826 48.2043 24.0447L48.2054 21.1655C48.2057 20.4529 47.8267 19.794 47.2107 19.4358L45.4601 18.4179C43.7364 17.4156 44.3803 14.7842 46.372 14.6911L48.34 14.5991C49.081 14.5645 49.7419 14.1226 50.0571 13.4511L51.2073 11.0008Z" fill="white"/>
<path d="M15.0885 30.7163C15.7783 28.896 18.398 29.0339 18.8929 30.9165L20.0238 35.2178C20.1936 35.8634 20.6743 36.3818 21.3053 36.5997L25.8954 38.1846C27.7802 38.8354 27.6562 41.5416 25.7198 42.0173L21.0628 43.1615C20.3824 43.3286 19.8391 43.8396 19.6306 44.5085L18.0737 49.5024C17.4657 51.4527 14.6695 51.3441 14.2146 49.3526L13.0341 44.1845C12.8803 43.5112 12.3899 42.9648 11.737 42.7394L7.18685 41.1683C5.30207 40.5175 5.42606 37.8113 7.36244 37.3355L12.0951 36.1728C12.7341 36.0158 13.2549 35.5546 13.4881 34.9393L15.0885 30.7163Z" fill="#DEECFF"/>
<path d="M292.065 11.157C292.669 9.10617 295.637 9.30549 295.961 11.4186L297.313 20.2326C297.421 20.937 297.895 21.5307 298.559 21.7911L304.747 24.2209C306.604 24.9496 306.367 27.6483 304.412 28.043L297.949 29.3483C297.222 29.4951 296.636 30.0323 296.426 30.7439L293.972 39.0803C293.368 41.1311 290.401 40.9318 290.077 38.8186L288.725 30.0046C288.617 29.3003 288.142 28.7066 287.479 28.4462L281.29 26.0164C279.434 25.2877 279.67 22.589 281.625 22.1943L288.088 20.889C288.815 20.7421 289.402 20.205 289.611 19.4934L292.065 11.157Z" fill="#D2E5FF"/>
<path d="M341.375 53.3077C342.14 51.5177 344.752 51.7645 345.168 53.6661L345.924 57.121C346.067 57.7731 346.525 58.3111 347.147 58.555L350.751 59.9702C352.607 60.6989 352.371 63.3975 350.416 63.7922L346.68 64.5468C345.993 64.6855 345.429 65.1734 345.193 65.833L343.789 69.7538C343.1 71.6771 340.311 71.4522 339.939 69.4434L339.17 65.2833C339.044 64.6041 338.577 64.0379 337.934 63.7855L334.369 62.3857C332.513 61.6571 332.749 58.9584 334.704 58.5637L338.516 57.7937C339.161 57.6634 339.701 57.2243 339.96 56.6192L341.375 53.3077Z" fill="#E9F2FF"/>
</svg>
