<svg width="1920" height="1438" viewBox="0 0 1920 1438" fill="none" xmlns="http://www.w3.org/2000/svg">
<g opacity="0.16">
<circle r="196.38" transform="matrix(-0.762999 0.646399 0.646399 0.762999 1979.26 462.792)" fill="white" fill-opacity="0.7"/>
<circle r="180.397" transform="matrix(-0.762999 0.646399 0.646399 0.762999 1995.61 473.462)" fill="white"/>
<circle r="196.38" transform="matrix(-0.762999 0.646399 0.646399 0.762999 1700.23 562.78)" fill="white"/>
<circle r="196.38" transform="matrix(-0.762999 0.646399 0.646399 0.762999 1688.14 390.181)" fill="white"/>
<circle r="196.38" transform="matrix(-0.762999 0.646399 0.646399 0.762999 1528.68 543.137)" fill="white"/>
<circle r="196.38" transform="matrix(-0.762999 0.646399 0.646399 0.762999 1407.67 645.65)" fill="white"/>
<path fill-rule="evenodd" clip-rule="evenodd" d="M1987.85 429.259C1989.04 419.493 1987.74 409.35 1983.58 399.742C1970.8 370.204 1935.83 356.908 1905.48 370.043C1893.41 375.265 1883.89 383.878 1877.6 394.217C1880.06 373.962 1893.21 355.332 1913.69 346.469C1944.04 333.334 1979.01 346.631 1991.79 376.168C1999.49 393.962 1997.38 413.592 1987.85 429.259Z" fill="#E4F8FB"/>
<path fill-rule="evenodd" clip-rule="evenodd" d="M1724.11 402.887C1719.23 413.174 1711.88 423.523 1702.33 432.849C1674.14 460.392 1637.47 468.577 1620.42 451.131C1614.16 444.719 1611.42 435.738 1611.85 425.575C1602.31 445.672 1602.17 465.535 1613.45 477.075C1630.49 494.522 1667.17 486.337 1695.36 458.793C1713.19 441.372 1723.36 420.379 1724.11 402.887Z" fill="#E4F8FB"/>
</g>
<g opacity="0.16">
<circle cx="143.539" cy="555.632" r="196.38" transform="rotate(40.2707 143.539 555.632)" fill="white" fill-opacity="0.7"/>
<circle cx="127.192" cy="566.303" r="180.397" transform="rotate(40.2707 127.192 566.303)" fill="white"/>
<circle cx="422.571" cy="655.621" r="196.38" transform="rotate(40.2707 422.571 655.621)" fill="white"/>
<circle cx="434.665" cy="483.021" r="196.38" transform="rotate(40.2707 434.665 483.021)" fill="white"/>
<circle cx="594.127" cy="635.978" r="196.38" transform="rotate(40.2707 594.127 635.978)" fill="white"/>
<circle cx="715.131" cy="738.491" r="196.38" transform="rotate(40.2707 715.131 738.491)" fill="white"/>
<path fill-rule="evenodd" clip-rule="evenodd" d="M134.951 522.1C133.765 512.334 135.063 502.191 139.221 492.582C152.003 463.045 186.971 449.749 217.324 462.884C229.391 468.106 238.912 476.719 245.201 487.058C242.742 466.803 229.595 448.172 209.116 439.31C178.763 426.175 143.795 439.471 131.013 469.009C123.312 486.803 125.421 506.432 134.951 522.1Z" fill="#E4F8FB"/>
<path fill-rule="evenodd" clip-rule="evenodd" d="M398.692 495.728C403.577 506.015 410.926 516.364 420.471 525.689C448.664 553.233 485.336 561.418 502.381 543.972C508.645 537.56 511.387 528.579 510.949 518.415C520.492 538.513 520.629 558.376 509.355 569.916C492.31 587.363 455.638 579.177 427.445 551.634C409.613 534.213 399.444 513.22 398.692 495.728Z" fill="#E4F8FB"/>
</g>
<circle r="196.38" transform="matrix(-0.874476 0.485069 0.485069 0.874476 2018.73 622.837)" fill="white" fill-opacity="0.7"/>
<circle r="180.397" transform="matrix(-0.874476 0.485069 0.485069 0.874476 2032.68 636.493)" fill="white"/>
<circle r="196.38" transform="matrix(-0.874476 0.485069 0.485069 0.874476 1725.55 666.449)" fill="white"/>
<circle r="179.529" transform="matrix(-0.874476 0.485069 0.485069 0.874476 1780.43 448.138)" fill="#E4F8FB"/>
<circle r="196.38" transform="matrix(-0.874476 0.485069 0.485069 0.874476 1747.37 494.808)" fill="white"/>
<circle r="196.38" transform="matrix(-0.874476 0.485069 0.485069 0.874476 1561.13 613.704)" fill="white"/>
<circle r="196.38" transform="matrix(-0.874476 0.485069 0.485069 0.874476 1422.44 690.632)" fill="white"/>
<path fill-rule="evenodd" clip-rule="evenodd" d="M1780.18 514.291C1773.38 523.427 1764.15 532.143 1752.97 539.426C1719.94 560.938 1682.38 561.809 1669.07 541.372C1664.17 533.861 1663.24 524.517 1665.65 514.635C1652.37 532.484 1648.36 551.938 1657.16 565.456C1670.47 585.894 1708.04 585.023 1741.07 563.511C1761.95 549.905 1776.02 531.3 1780.18 514.291Z" fill="#E4F8FB"/>
<circle cx="27.3093" cy="656.93" r="196.38" transform="rotate(29.017 27.3093 656.93)" fill="white" fill-opacity="0.7"/>
<circle cx="13.3587" cy="670.586" r="180.397" transform="rotate(29.017 13.3587 670.586)" fill="white"/>
<circle cx="320.489" cy="700.542" r="196.38" transform="rotate(29.017 320.489 700.542)" fill="white"/>
<circle cx="265.615" cy="482.231" r="179.529" transform="rotate(29.017 265.615 482.231)" fill="#E4F8FB"/>
<circle cx="298.667" cy="528.901" r="196.38" transform="rotate(29.017 298.667 528.901)" fill="white"/>
<circle cx="484.913" cy="647.797" r="196.38" transform="rotate(29.017 484.913 647.797)" fill="white"/>
<circle cx="623.596" cy="724.724" r="196.38" transform="rotate(29.017 623.596 724.724)" fill="white"/>
<path fill-rule="evenodd" clip-rule="evenodd" d="M12.3421 625.718C9.27317 616.372 8.56683 606.171 10.7697 595.936C17.5417 564.472 49.2424 544.607 81.5753 551.566C94.4294 554.333 105.448 560.922 113.634 569.835C107.269 550.449 90.7395 534.743 68.9243 530.047C36.5915 523.088 4.89073 542.953 -1.88124 574.417C-5.96097 593.372 -0.0623649 612.212 12.3421 625.718Z" fill="#E4F8FB"/>
<path fill-rule="evenodd" clip-rule="evenodd" d="M265.865 548.384C272.664 557.52 281.891 566.236 293.073 573.519C326.099 595.031 363.664 595.902 376.976 575.465C381.868 567.954 382.804 558.61 380.392 548.728C393.674 566.577 397.684 586.031 388.879 599.549C375.566 619.987 338.002 619.116 304.976 597.604C284.087 583.997 270.017 565.392 265.865 548.384Z" fill="#E4F8FB"/>
<path d="M967.5 679C396.714 679 -66 747.416 -66 831.812L-22.3801 1282.09C-22.3801 1282.09 566.742 1435 945.981 1435C1325.22 1435 1914.34 1282.09 1914.34 1282.09L2001 831.812C2001 747.416 1538.29 679 967.5 679Z" fill="#A3D1BE"/>
<mask id="mask0" mask-type="alpha" maskUnits="userSpaceOnUse" x="-70" y="682" width="2095" height="756">
<path d="M966.5 682C381.907 682 -70 750.416 -70 834.812L-25.325 1285.09C-25.325 1285.09 556.048 1438 944.46 1438C1332.87 1438 1936.25 1285.09 1936.25 1285.09L2025 834.812C2025 750.416 1551.09 682 966.5 682Z" fill="#A3D1BE"/>
</mask>
<g mask="url(#mask0)">
<path d="M386 910C38.6694 922.841 -99.8351 1030.88 -96.7171 1115.22L-53.5385 1564.21C-53.5385 1564.21 310.599 1703.76 541.37 1695.23C772.142 1686.69 1124.98 1520.64 1124.98 1520.64L980 1268C976.882 1183.66 733.331 897.159 386 910Z" fill="#95CCB5"/>
<path d="M1258.38 854.722C1673.21 866.685 2007.53 944.771 2005.1 1029.13L1960.42 1478.31C1960.42 1478.31 1527.85 1618.81 1252.23 1610.86C976.608 1602.91 552.858 1437.72 552.858 1437.72L516.957 1106.11C519.389 1021.75 843.55 842.759 1258.38 854.722Z" fill="#94D0B7"/>
<path d="M-30.5244 1377.89C-30.5244 1377.89 -97.5937 1190.18 11.0389 1167.3C119.726 1144.33 169.373 1320.05 169.373 1320.05C169.373 1320.05 178.767 1278.59 200.231 1278.59C221.695 1278.59 248.512 1318.98 248.512 1318.98C248.512 1318.98 228.359 1141.31 354.468 1165.21C480.578 1189.12 449.72 1287.3 449.72 1287.3C449.72 1287.3 469.819 1270.95 483.255 1273.13C496.69 1275.31 483.255 1346.22 483.255 1346.22C483.255 1346.22 516.789 1332.04 531.536 1340.8C546.282 1349.55 553 1391 553 1391L-30.5244 1377.89Z" fill="#87C1A9"/>
<path d="M1933.68 1378.58C1933.68 1378.58 1996.97 1200.75 1894.45 1179.07C1791.88 1157.31 1745.03 1323.78 1745.03 1323.78C1745.03 1323.78 1736.17 1284.51 1715.91 1284.51C1695.66 1284.51 1670.35 1322.77 1670.35 1322.77C1670.35 1322.77 1689.37 1154.45 1570.36 1177.1C1451.35 1199.74 1480.47 1292.76 1480.47 1292.76C1480.47 1292.76 1461.5 1277.27 1448.82 1279.33C1436.14 1281.4 1448.82 1348.57 1448.82 1348.57C1448.82 1348.57 1417.17 1335.15 1403.26 1343.44C1389.34 1351.73 1383 1391 1383 1391L1933.68 1378.58Z" fill="#87C1A9"/>
</g>
</svg>
