<svg width="394" height="111" viewBox="0 0 394 111" fill="none" xmlns="http://www.w3.org/2000/svg">
<path d="M52.7618 85.9291L51.7894 72.8521L71.2422 71.4057L70.6858 63.9238L51.2331 65.3703L50.3816 53.9199L72.3066 52.2895L71.7455 44.7427L49.8205 46.373L48.9497 34.6623L40.8172 35.267L41.688 46.9777L31.6689 47.7227C32.5524 44.6478 33.3659 41.5126 34.0446 38.322L25.9116 37.1604C24.3576 46.173 20.7963 55.4656 16.1281 61.308C18.1573 62.2038 21.7796 64.2895 23.4329 65.4095C25.3912 62.7126 27.1613 59.2446 28.7819 55.526L42.2492 54.5246L43.1007 65.975L25.4696 67.2861L26.0259 74.7679L43.657 73.4569L44.6294 86.5338L19.5165 88.4012L20.0825 96.0131L78.5709 91.664L78.0049 84.052L52.7618 85.9291Z" fill="#284273"/>
<path d="M99.8474 38.2045C96.9144 36.5909 91.0414 34.1492 87.2626 32.5984L83.3197 38.5176C87.2528 40.384 93.0102 43.0306 95.6926 44.7937L99.8474 38.2045ZM98.0308 56.0028C95.0375 54.459 89.0392 52.092 85.3303 50.6015L81.5923 56.6363C85.5856 58.4328 91.4081 61.0745 94.2158 62.7629L98.0308 56.0028ZM91.665 91.8024C95.1643 85.1965 98.7116 77.475 101.652 70.3874L95.6046 65.6035C92.2622 73.4407 87.8525 81.8805 84.7672 87.0164L91.665 91.8024ZM133.221 79.6845L113.703 81.1358L112.992 71.5721L132.51 70.1208L133.221 79.6845ZM141.982 54.1083L141.431 46.6916L124.906 47.9204L124.243 39.0072C129.245 37.654 134.028 35.99 138.075 34.1189L131.7 28.4436C124.757 31.8384 112.685 34.8948 101.707 36.8233C102.749 38.5121 104.012 41.4275 104.478 43.29C108.482 42.5997 112.808 41.8201 116.988 40.8551L117.554 48.467L100.248 49.7539L100.8 57.1706L118.106 55.8838L118.715 64.0813L105.443 65.0682L107.397 91.3522L114.424 90.8297L114.226 88.1622L133.743 86.7109L133.918 89.053L141.269 88.5064L139.339 62.5477L126.067 63.5346L125.457 55.3371L141.982 54.1083Z" fill="#284273"/>
<path d="M189.283 33.9092L161.698 35.9604L161.499 33.293L189.085 31.2418L189.283 33.9092ZM189.834 41.326L162.249 43.3772L162.046 40.6447L189.631 38.5935L189.834 41.326ZM196.459 25.7216L153.715 28.9L155.2 48.8732L197.944 45.6948L196.459 25.7216ZM195.489 62.8209C194.492 65.2501 193.155 67.5084 191.539 69.5257C189.642 67.7696 187.986 65.7339 186.706 63.474L195.489 62.8209ZM161.583 73.127L170.041 72.4981L170.229 75.0354C167.386 75.5085 164.538 75.9165 161.82 76.3149L161.583 73.127ZM160.983 65.0596L169.441 64.4307L169.644 67.1632L161.186 67.7921L160.983 65.0596ZM168.846 56.4284L169.039 59.0308L160.582 59.6597L160.388 57.0573L168.846 56.4284ZM199.583 56.3016L198.302 56.6586L178.068 58.1632L178.508 64.0836L184.494 63.6385L180.287 65.1289C182.114 68.591 184.373 71.694 186.923 74.3174C184.341 76.5374 181.269 78.3359 178.033 79.6886L176.263 55.8769L206.06 53.6612L205.605 47.5456L147.767 51.8464L148.222 57.962L153.297 57.5847L154.767 77.3627C152.765 77.7078 150.818 77.918 149.136 78.1739L150.215 84.7665C155.902 83.8203 163.27 82.6182 170.699 81.3462L171.091 86.616L178.507 86.0645L178.115 80.7946C179.533 82.2593 181.124 84.2998 181.951 85.743C185.873 83.9467 189.431 81.6541 192.561 78.87C196.207 81.2811 200.391 82.998 205.112 84.0207C206.017 82.1217 207.826 79.1742 209.216 77.6316C204.845 76.9099 200.82 75.5737 197.408 73.6686C200.746 69.299 203.166 64.0163 204.468 57.7701L199.583 56.3016Z" fill="#284273"/>
<path d="M257.053 53.2058L228.297 55.3441L227.663 46.8213L256.419 44.683L257.053 53.2058ZM229.472 71.1535L228.819 62.3705L257.575 60.2322L258.228 69.0152L229.472 71.1535ZM269.388 29.0647L268.827 21.5179L211.64 25.7703L212.201 33.3172L235.753 31.5659C235.616 34.1274 235.414 36.6937 235.133 39.0697L219.258 40.2501L222.422 82.7989L230.295 82.2136L230.004 78.31L258.761 76.1717L259.051 80.0753L267.313 79.4609L264.149 36.9121L243.33 38.4602C243.872 36.0648 244.404 33.5393 244.861 30.8886L269.388 29.0647Z" fill="#284273"/>
<path d="M326.084 60.4368L326.539 66.5524L310.404 67.7522L309.95 61.6366L326.084 60.4368ZM304.072 76.7275L311.033 76.2099L310.859 73.8677L326.994 72.668L327.149 74.7499L334.435 74.208L332.916 53.7794L302.533 56.0387L304.072 76.7275ZM309.726 45.4293C312.33 42.6189 314.534 39.7074 315.972 37.0492C317.987 39.5161 320.792 42.0551 323.844 44.3795L309.726 45.4293ZM311.705 30.6937C311.473 31.1034 311.247 31.5782 311.021 32.0529L310.697 27.694L320.586 26.9586L320.973 32.1634L328.259 31.6215L327.872 26.4168L335.484 25.8508L334.996 19.2798L327.384 19.8458L326.948 13.9905L319.662 14.5323L320.097 20.3876L310.208 21.123L309.773 15.2676L302.616 15.7998L303.051 21.6551L295.83 22.1921L296.318 28.7631L303.54 28.2261L303.913 33.2357L310.614 32.7374C307.829 37.5238 303.118 42.7806 297.899 46.505L297.009 42.4498L292.357 44.1041L291.757 36.0368L296.766 35.6642L296.239 28.5728L291.229 28.9453L290.32 16.7141L282.903 17.2656L283.813 29.4968L276.266 30.058L276.793 37.1494L284.34 36.5883L285.09 46.6725C281.839 47.83 278.84 48.8381 276.406 49.5424L278.589 56.9033C280.753 56.0882 283.172 55.1887 285.656 54.2844L286.764 69.183C286.836 70.1589 286.53 70.4433 285.749 70.5014C284.909 70.6293 282.241 70.8277 279.694 70.8862C280.83 72.9606 282.052 76.2061 282.402 78.2735C286.891 77.9396 289.93 77.452 291.98 75.9912C293.975 74.6653 294.471 72.535 294.185 68.6965L292.903 51.4558L296.144 50.1681C297.226 51.5269 298.203 53.2206 298.815 54.418C301.696 52.6991 304.419 50.5995 306.926 48.2542L307.188 51.7674L327.356 50.2677L327.085 46.6244C329.703 48.3923 332.426 49.8253 335.06 50.9378C335.936 48.6484 337.225 45.7396 338.59 43.8717C331.361 41.6617 323.904 36.3939 318.731 30.1712L311.705 30.6937Z" fill="#284273"/>
<path fill-rule="evenodd" clip-rule="evenodd" d="M20.0825 96.0131L19.5165 88.4012L44.6294 86.5338L43.657 73.4569L26.0259 74.7679L25.4696 67.2861L43.1007 65.9751L42.2492 54.5246L28.7819 55.526C28.7042 55.7044 28.6261 55.8821 28.5477 56.0593C28.2882 56.6455 28.0249 57.2247 27.7576 57.7949C27.6637 57.9952 27.5693 58.1944 27.4744 58.3924C27.3676 58.6154 27.2601 58.8368 27.152 59.0565C26.5038 60.3744 25.8325 61.6327 25.1363 62.8038C24.9387 63.1361 24.7392 63.4613 24.5376 63.7788C24.1761 64.3482 23.8079 64.893 23.4329 65.4095C23.3769 65.3716 23.3187 65.3326 23.2583 65.2926C21.757 64.2963 18.9446 62.6668 16.9491 61.6918C16.6555 61.5483 16.3795 61.419 16.1281 61.308C16.3719 61.0028 16.6128 60.6882 16.8505 60.3647C16.9885 60.1767 17.1256 59.9858 17.2615 59.792C18.3961 58.1742 19.4549 56.3549 20.4232 54.3946C20.4372 54.3662 20.4512 54.3379 20.4652 54.3095C20.786 53.6569 21.0968 52.9888 21.3971 52.3075C21.6619 51.7067 21.9185 51.0957 22.1666 50.4758C22.715 49.1054 23.2215 47.6921 23.6822 46.2523C23.7627 46.0011 23.8417 45.749 23.9193 45.4962C24.4303 43.8312 24.8799 42.135 25.262 40.4328C25.5068 39.3423 25.7239 38.2493 25.9116 37.1604L34.0446 38.322C33.9637 38.7022 33.8809 39.0815 33.7963 39.4601C33.6094 40.2967 33.4137 41.1295 33.2103 41.9583C33.1815 42.0759 33.1525 42.1934 33.1233 42.3108C32.7982 43.6199 32.4545 44.9191 32.0968 46.208C32.0052 46.5379 31.9128 46.8671 31.8195 47.1957C31.7695 47.3716 31.7193 47.5473 31.6689 47.7227L41.688 46.9777L40.8172 35.267L48.9496 34.6623L49.8204 46.373L71.7454 44.7427L72.3066 52.2896L50.3816 53.9199L51.2331 65.3703L70.6858 63.9238L71.2422 71.4057L51.7894 72.8522L52.7618 85.9291L78.0048 84.052L78.5709 91.664L20.0825 96.0131ZM87.186 98.5318L87.2301 99.1245L12.622 104.672L10.8573 80.9406L18.3391 80.3843L17.6649 71.3177C16.1231 70.382 14.0015 69.2039 12.864 68.7017L3.26196 64.4627L9.81401 56.2628C13.359 51.8262 16.5371 43.9637 17.947 35.7871L19.2813 28.0493L32.3145 29.9108L32.158 27.8065L56.4102 26.0031L57.281 37.7138L75.0228 36.3945L84.2064 22.6079L90.331 25.1214C92.7101 26.0977 96.2976 27.5779 99.4482 29.0142L100.309 28.863C111.154 26.9578 122.283 24.0516 128.15 21.1828L133.023 18.8005L145.699 30.0846L145.056 21.4394L203.92 17.0624L204.007 18.2334L274.481 12.993L274.244 9.80509L334.409 5.33124L334.844 11.1866L342.456 10.6206L344.143 33.3113L336.531 33.8774L336.566 34.3362C338.043 35.0929 339.521 35.7047 340.953 36.1426L351.824 39.4658L345.115 48.642C344.893 48.9447 344.642 49.3613 344.375 49.8605L343.806 50.9996C343.406 51.8493 342.993 52.8219 342.608 53.8274L341.282 57.2913L343.094 81.6686L319.688 83.4091L319.533 81.3272L319.518 81.3283L319.692 83.6704L296.611 85.3867L296.415 82.7508C292.292 85.5583 287.087 86.0296 283.002 86.3333L275.968 86.8564L275.973 86.9214L251.59 88.7345L251.3 84.8309L238.664 85.7706L238.954 89.6741L214.962 91.4582L214.415 84.1006C213.718 85.1102 212.89 86.4872 212.407 87.4992L209.653 93.2743L203.4 91.9196C199.844 91.149 196.474 90.0296 193.318 88.5412C191.333 89.9201 189.247 91.1555 187.072 92.2485L187.167 93.525L183.826 93.7734L178.607 96.1637L177.506 94.2433L163.63 95.2752L163.297 90.7908C160.915 91.1876 158.614 91.5681 156.456 91.9248C154.713 92.2131 153.063 92.4858 151.542 92.739L149.711 93.0436L149.928 95.9669L126.457 97.7123L126.283 95.3701L122.885 95.6228L123.083 98.2902L99.9369 100.011L99.5084 94.2485C99.2746 94.6984 99.0408 95.1443 98.8069 95.5857L94.5424 103.636L87.186 98.5318ZM107.397 91.3522L114.424 90.8297L114.226 88.1622L133.743 86.7109L133.918 89.053L141.269 88.5064L139.339 62.5477L126.067 63.5346L125.457 55.3371L141.982 54.1083L141.431 46.6916L124.906 47.9204L124.243 39.0072C124.476 38.9442 124.709 38.8804 124.941 38.816C126.528 38.3756 128.091 37.9041 129.612 37.4049C131.518 36.7792 133.36 36.11 135.103 35.4038C136.13 34.9879 137.123 34.5591 138.075 34.1189L131.7 28.4436C129.654 29.444 127.162 30.4151 124.385 31.3365C123.72 31.5569 123.039 31.7745 122.344 31.989C120.256 32.6335 118.039 33.2498 115.754 33.8305C115.632 33.8615 115.51 33.8923 115.388 33.923C113.884 34.3014 112.351 34.6644 110.807 35.0097C110.538 35.0699 110.268 35.1296 109.998 35.1887C107.772 35.6767 105.527 36.1274 103.313 36.5345C102.776 36.6333 102.24 36.7296 101.707 36.8233C102.307 37.7966 102.981 39.1773 103.534 40.529C103.651 40.8155 103.763 41.1006 103.867 41.3803C104.124 42.071 104.337 42.7283 104.478 43.29C105.113 43.1804 105.757 43.0686 106.407 42.9541C107.264 42.8033 108.131 42.6479 109.005 42.487C111.413 42.0438 113.87 41.5592 116.288 41.0147C116.522 40.9621 116.755 40.9089 116.988 40.8551L117.554 48.467L100.248 49.7539L100.8 57.1706L118.106 55.8838L118.715 64.0813L105.443 65.0682L107.397 91.3522ZM113.703 81.1358L133.221 79.6845L132.51 70.1208L112.992 71.5721L113.703 81.1358ZM99.8474 38.2045C99.7816 38.1683 99.7143 38.1317 99.6455 38.0946C97.8723 37.1393 95.1511 35.9192 92.4595 34.7681C91.769 34.4728 91.0804 34.1821 90.4103 33.9015C89.2826 33.4294 88.2072 32.9861 87.2626 32.5984L83.3197 38.5176C83.7247 38.7098 84.149 38.9103 84.5874 39.1172C84.6794 39.1607 84.7721 39.2044 84.8653 39.2484C86.7097 40.1189 88.7764 41.0943 90.6816 42.0443C90.9943 42.2002 91.3028 42.3555 91.6051 42.5095C92.9281 43.1833 94.1352 43.833 95.0845 44.4103C95.3012 44.5421 95.5045 44.67 95.6926 44.7937L99.8474 38.2045ZM78.8145 64.2493L79.6751 75.8234L81.8482 75.6618C83.1837 73.1188 84.5717 70.3391 85.8895 67.5234C83.6911 66.4614 81.1213 65.289 78.8145 64.2493ZM87.1663 82.8344C86.8209 83.4604 86.4825 84.0643 86.1532 84.6426C85.6691 85.4929 85.2048 86.2879 84.7672 87.0164L91.665 91.8024C92.5554 90.1215 93.449 88.3683 94.3348 86.5717C94.6703 85.8913 95.0047 85.2047 95.3374 84.5134C96.3491 82.4112 97.3452 80.266 98.3092 78.1216C99.4806 75.5158 100.605 72.9114 101.652 70.3874L95.6045 65.6035C95.596 65.6234 95.5875 65.6434 95.579 65.6633C95.3145 66.2829 95.0433 66.9062 94.7666 67.5312C94.1897 68.8349 93.589 70.1463 92.9753 71.4479C92.7026 72.0264 92.4272 72.6031 92.1503 73.1762C90.4793 76.6343 88.7491 79.9662 87.1663 82.8344ZM89.1543 60.1256C90.4812 60.7647 91.7327 61.3901 92.7866 61.9564C92.8801 62.0066 92.972 62.0564 93.0623 62.1057C93.4858 62.3368 93.8732 62.5569 94.2158 62.7629L98.0308 56.0028C97.0553 55.4997 95.7607 54.9092 94.3302 54.29C93.7141 54.0234 93.0727 53.7514 92.4208 53.4788C92.2989 53.4279 92.1767 53.3769 92.0542 53.3259C91.5716 53.1252 91.0848 52.9246 90.5996 52.726C89.1595 52.1366 87.7335 51.5651 86.4744 51.0604C86.0746 50.9002 85.6916 50.7467 85.3303 50.6015L81.5923 56.6363C81.9493 56.797 82.3209 56.9643 82.7038 57.1372C84.6609 58.0209 86.9097 59.0475 88.9876 60.0454C89.0433 60.0722 89.0989 60.0989 89.1543 60.1256ZM147.767 51.8464L148.222 57.962L153.297 57.5847L154.767 77.3627C154.445 77.4183 154.124 77.4704 153.805 77.5197C152.914 77.6577 152.041 77.7742 151.205 77.8857C150.483 77.982 149.79 78.0745 149.136 78.1739L150.215 84.7665C151.496 84.5534 152.861 84.3274 154.294 84.0905C154.58 84.0432 154.868 83.9956 155.159 83.9475C155.398 83.9079 155.639 83.868 155.882 83.8279C156.636 83.7032 157.406 83.5759 158.189 83.4462C159.65 83.2042 161.158 82.954 162.695 82.6974C162.715 82.6941 162.734 82.6908 162.754 82.6875C162.923 82.6594 163.092 82.6311 163.261 82.6028C165.486 82.2311 167.768 81.8468 170.06 81.4553C170.273 81.419 170.486 81.3826 170.699 81.3462L171.091 86.616L178.507 86.0645L178.115 80.7946C178.343 81.0295 178.574 81.2791 178.807 81.5386C178.811 81.543 178.815 81.5474 178.818 81.5519C180.031 82.9088 181.259 84.5351 181.951 85.743C183.496 85.0353 184.985 84.2507 186.413 83.3893C187.283 82.8644 188.131 82.311 188.956 81.7291C188.958 81.7275 188.96 81.7258 188.963 81.7241C189.689 81.2115 190.397 80.6769 191.086 80.1203C191.248 79.9891 191.41 79.8567 191.57 79.723C191.584 79.7117 191.597 79.7003 191.611 79.689C191.932 79.4209 192.248 79.1479 192.561 78.8701C192.838 79.0531 193.118 79.2321 193.401 79.4072C193.529 79.4868 193.659 79.5656 193.789 79.6435C193.859 79.6859 193.93 79.7281 194.001 79.77C197.298 81.7133 201.001 83.1302 205.112 84.0207C206.017 82.1217 207.826 79.1742 209.216 77.6316C208.331 77.4855 207.461 77.3144 206.607 77.1184C206.115 77.0054 205.628 76.8843 205.148 76.7549C203.652 76.3526 202.213 75.8714 200.844 75.3134C199.937 74.9441 199.061 74.5411 198.219 74.1052C198.06 74.0224 197.901 73.9385 197.744 73.8534C197.631 73.7924 197.519 73.7308 197.408 73.6686C197.431 73.6386 197.453 73.6085 197.476 73.5783C197.675 73.3163 197.871 73.0509 198.063 72.7823C199.394 70.9232 200.565 68.907 201.563 66.7302C201.744 66.3352 201.919 65.9349 202.088 65.5292C202.093 65.5188 202.097 65.5084 202.101 65.498C202.156 65.3661 202.211 65.2335 202.264 65.1004C202.674 64.0878 203.047 63.0427 203.383 61.9647C203.804 60.618 204.166 59.22 204.468 57.7701L199.583 56.3016L198.302 56.6586L178.068 58.1632L178.508 64.0836L184.494 63.6385L180.287 65.1289C180.453 65.4438 180.623 65.7558 180.796 66.0648C180.904 66.2565 181.013 66.4471 181.123 66.6365C181.975 68.0998 182.904 69.4913 183.901 70.801C184.14 71.1163 184.384 71.427 184.632 71.7327C184.722 71.8448 184.814 71.9563 184.905 72.0671C185.145 72.3567 185.388 72.6419 185.635 72.9224C185.843 73.1592 186.053 73.3926 186.265 73.6227C186.449 73.8217 186.634 74.0182 186.821 74.212C186.855 74.2472 186.889 74.2824 186.923 74.3174C186.756 74.4613 186.586 74.6035 186.415 74.7439C186.215 74.9079 186.012 75.0695 185.806 75.2286L185.805 75.2293C185.451 75.5033 185.09 75.77 184.722 76.0295C183.35 76.9961 181.883 77.8617 180.359 78.6235C180.251 78.6776 180.142 78.7312 180.033 78.7843C179.688 78.9529 179.339 79.1162 178.988 79.2742C178.879 79.3234 178.77 79.372 178.66 79.4201C178.452 79.5115 178.243 79.601 178.033 79.6886L176.263 55.8769L206.06 53.6612L205.605 47.5456L147.767 51.8464ZM168.846 56.4284L160.388 57.0573L160.582 59.6597L169.039 59.0308L168.846 56.4284ZM169.441 64.4307L160.983 65.0596L161.186 67.7921L169.644 67.1632L169.441 64.4307ZM170.041 72.4981L161.583 73.127L161.82 76.3149C162.139 76.2681 162.461 76.2212 162.783 76.174C162.802 76.1712 162.821 76.1685 162.84 76.1657C164.545 75.9166 166.293 75.6611 168.053 75.386C168.565 75.306 169.078 75.2243 169.591 75.1406C169.605 75.1382 169.62 75.1358 169.635 75.1334C169.701 75.1225 169.768 75.1117 169.834 75.1007C169.966 75.0791 170.098 75.0573 170.229 75.0354L170.041 72.4981ZM155.2 48.8732L197.944 45.6948L196.459 25.7216L153.715 28.9L155.2 48.8732ZM162.249 43.3772L189.834 41.326L189.631 38.5935L162.046 40.6447L162.249 43.3772ZM189.283 33.9092L189.085 31.2418L161.499 33.293L161.698 35.9604L189.283 33.9092ZM211.947 61.3279L212.717 61.2706L213.376 70.1267L210.532 69.6574C210.086 69.5837 209.647 69.5027 209.216 69.4147C210.333 66.8693 211.246 64.1719 211.947 61.3279ZM222.422 82.7989L230.295 82.2136L230.004 78.31L258.761 76.1717L259.051 80.0753L267.313 79.4609L264.149 36.9121L243.331 38.4601L243.331 38.4561C243.4 38.1517 243.469 37.8451 243.537 37.5364C243.971 35.5781 244.393 33.5355 244.769 31.4112C244.8 31.2376 244.831 31.0633 244.861 30.8886L269.388 29.0647L268.827 21.5179L211.64 25.7703L212.201 33.3172L235.753 31.5659C235.743 31.7385 235.734 31.9112 235.724 32.0838C235.627 33.7985 235.5 35.5093 235.339 37.1579C235.306 37.4926 235.272 37.8247 235.237 38.1537C235.203 38.4618 235.169 38.7673 235.133 39.0697L219.258 40.2501L222.422 82.7989ZM228.297 55.3441L257.053 53.2058L256.419 44.683L227.663 46.8213L228.297 55.3441ZM257.575 60.2322L228.819 62.3705L229.472 71.1535L258.228 69.0152L257.575 60.2322ZM276.266 30.058L276.793 37.1494L284.34 36.5883L285.09 46.6725C284.879 46.7476 284.669 46.8222 284.46 46.8961C284.013 47.0542 283.571 47.2092 283.135 47.3607C281.048 48.0866 279.1 48.7323 277.385 49.2522C277.049 49.3538 276.723 49.4507 276.406 49.5424L278.589 56.9033C280.569 56.1572 282.764 55.3405 285.026 54.514C285.235 54.4375 285.445 54.361 285.656 54.2844L286.764 69.183C286.765 69.205 286.767 69.2267 286.768 69.2481C286.775 69.3634 286.776 69.4686 286.771 69.5645C286.746 70.0725 286.557 70.3195 286.177 70.4312C286.055 70.4673 285.912 70.4892 285.749 70.5014C285.147 70.593 283.608 70.7208 281.847 70.8074C281.149 70.8417 280.417 70.8696 279.694 70.8862C280.83 72.9606 282.052 76.2061 282.402 78.2735C283.846 78.1661 285.139 78.0429 286.298 77.8765C286.488 77.8492 286.675 77.8207 286.859 77.7908C288.105 77.5882 289.187 77.3259 290.124 76.9662C290.205 76.9354 290.284 76.9039 290.362 76.8717C290.96 76.625 291.497 76.335 291.98 75.9912C292.367 75.734 292.698 75.4464 292.977 75.1221C293.168 74.9003 293.335 74.6614 293.48 74.4031C294.215 73.0915 294.377 71.2813 294.185 68.6965L292.903 51.4558L296.144 50.1681C296.378 50.4622 296.607 50.7719 296.829 51.0889L296.83 51.0912C296.846 51.1142 296.863 51.1371 296.879 51.1602C297.641 52.2595 298.31 53.4379 298.779 54.3478C298.791 54.3714 298.803 54.3948 298.815 54.418C298.861 54.3904 298.908 54.3626 298.954 54.3348C299.056 54.2732 299.158 54.2111 299.26 54.1485C299.887 53.7637 300.507 53.3609 301.118 52.9416C301.425 52.7308 301.73 52.5159 302.033 52.297C302.104 52.2462 302.174 52.1951 302.244 52.1439C302.248 52.1406 302.253 52.1373 302.257 52.1341C302.947 51.629 303.626 51.1033 304.292 50.5591C304.67 50.2507 305.044 49.9364 305.413 49.6165C305.926 49.1727 306.43 48.7183 306.926 48.2542L307.188 51.7674L327.356 50.2677L327.085 46.6244C327.345 46.7998 327.606 46.9719 327.867 47.1408C329.435 48.1528 331.034 49.0469 332.622 49.826C332.652 49.8405 332.681 49.8551 332.711 49.8695C333.498 50.2537 334.283 50.6097 335.06 50.9378C335.179 50.627 335.305 50.3049 335.439 49.9754C335.74 49.2305 336.076 48.4484 336.437 47.6773C336.819 46.8612 337.229 46.0574 337.655 45.3226C337.733 45.1866 337.813 45.0529 337.893 44.922C338.122 44.5466 338.355 44.1937 338.59 43.8717C338.43 43.8226 338.269 43.772 338.108 43.7199C336.879 43.3218 335.645 42.8368 334.418 42.2753C333.323 41.7738 332.233 41.2112 331.158 40.5949C331.135 40.5821 331.113 40.5692 331.091 40.5564C330.575 40.2595 330.063 39.9504 329.555 39.6297C329.309 39.4742 329.063 39.3161 328.819 39.1553C328.599 39.01 328.379 38.8624 328.16 38.7129C325.669 37.0093 323.31 35.0373 321.202 32.8976C321.18 32.8752 321.158 32.8528 321.136 32.8303C321.095 32.7883 321.054 32.7462 321.013 32.7041C320.849 32.5359 320.687 32.3667 320.526 32.1965C320.475 32.1422 320.424 32.0878 320.373 32.0333C320.305 31.9601 320.237 31.8867 320.169 31.8132C319.772 31.3821 319.385 30.9451 319.01 30.5031C318.916 30.3928 318.823 30.2822 318.731 30.1712L311.705 30.6937C311.473 31.1034 311.247 31.5782 311.021 32.0529L310.697 27.694L320.586 26.9586L320.973 32.1634L328.259 31.6215L327.872 26.4168L335.484 25.8508L334.996 19.2798L327.384 19.8458L326.948 13.9905L319.662 14.5323L320.097 20.3876L310.208 21.123L309.773 15.2676L302.616 15.7998L303.051 21.6551L295.83 22.1921L296.318 28.7631L303.54 28.2261L303.912 33.2357L310.614 32.7374C310.409 33.0899 310.193 33.445 309.968 33.8018C309.668 34.2766 309.35 34.7544 309.017 35.2335C307.905 36.8301 306.614 38.4402 305.193 39.994C305.073 40.1249 304.952 40.2555 304.83 40.3856C304.746 40.4762 304.661 40.5667 304.575 40.6569C304.541 40.6929 304.507 40.7288 304.472 40.7648C304.454 40.7844 304.435 40.804 304.416 40.8235C304.25 40.9966 304.083 41.1688 303.914 41.34C303.82 41.4364 303.724 41.5324 303.628 41.6281C303.13 42.1256 302.619 42.6142 302.098 43.0914C301.986 43.1939 301.874 43.2959 301.761 43.3973C301.629 43.5156 301.497 43.6331 301.364 43.7499C300.385 44.6105 299.372 45.4283 298.338 46.1874C298.192 46.2944 298.046 46.4003 297.899 46.505L297.009 42.4498L292.356 44.1041L291.757 36.0368L296.766 35.6642L296.239 28.5728L291.229 28.9453L290.32 16.7141L282.903 17.2656L283.812 29.4968L276.266 30.058ZM319.131 40.4048C318.907 40.1931 318.687 39.981 318.471 39.7686C318.006 39.3109 317.561 38.8521 317.14 38.394C317.098 38.3487 317.057 38.3034 317.016 38.2581C316.956 38.1921 316.896 38.1261 316.837 38.0601C316.535 37.7223 316.246 37.385 315.971 37.0492C315.741 37.4746 315.492 37.9065 315.224 38.3434C315.183 38.4108 315.141 38.4782 315.099 38.5458C314.874 38.9058 314.638 39.269 314.39 39.6347C314.124 40.0271 313.845 40.4224 313.554 40.8194C312.944 41.6536 312.28 42.4958 311.574 43.3368C311.436 43.5004 311.297 43.664 311.157 43.8274C310.696 44.3634 310.218 44.8982 309.726 45.4293L323.844 44.3795C323.193 43.8837 322.553 43.3781 321.93 42.8655C321.819 42.7743 321.709 42.683 321.599 42.5914C320.737 41.8726 319.91 41.1412 319.131 40.4048ZM304.072 76.7275L311.033 76.2099L310.859 73.8678L326.994 72.668L327.149 74.7499L334.435 74.208L332.916 53.7794L302.533 56.0387L304.072 76.7275ZM310.404 67.7522L326.539 66.5524L326.084 60.4368L309.95 61.6366L310.404 67.7522ZM191.231 69.2358C191.333 69.3333 191.435 69.4299 191.539 69.5257C191.595 69.4552 191.651 69.3845 191.707 69.3134C191.827 69.1607 191.945 69.0066 192.062 68.8512C192.182 68.6917 192.3 68.5307 192.416 68.3684C193.171 67.316 193.853 66.2067 194.455 65.0491C194.832 64.3246 195.177 63.5811 195.489 62.8209L186.706 63.474C187.106 64.1812 187.544 64.8665 188.014 65.5281C188.87 66.7329 189.834 67.8592 190.882 68.8969C190.997 69.011 191.113 69.1239 191.231 69.2358Z" fill="#284273"/>
<path d="M49.8225 87.3467L48.8501 74.2698L68.3028 72.8233L67.7465 65.3415L48.2937 66.788L47.4423 55.3375L69.3673 53.7072L68.8061 46.1603L46.8811 47.7906L46.0103 36.08L37.8779 36.6847L38.7487 48.3954L28.7295 49.1404C29.613 46.0654 30.4266 42.9302 31.1052 39.7396L22.9723 38.5781C21.4182 47.5906 17.857 56.8833 13.1887 62.7256C15.2179 63.6214 18.8402 65.7072 20.4935 66.8272C22.4518 64.1302 24.2219 60.6622 25.8426 56.9437L39.3099 55.9423L40.1613 67.3927L22.5302 68.7037L23.0866 76.1856L40.7177 74.8745L41.6901 87.9514L16.5772 89.8188L17.1432 97.4308L75.6315 93.0816L75.0655 85.4697L49.8225 87.3467Z" fill="white"/>
<path d="M96.908 39.6222C93.975 38.0085 88.102 35.5668 84.3232 34.0161L80.3803 39.9353C84.3134 41.8017 90.0708 44.4482 92.7533 46.2113L96.908 39.6222ZM95.0914 57.4204C92.0982 55.8767 86.0999 53.5097 82.391 52.0191L78.6529 58.054C82.6462 59.8505 88.4687 62.4922 91.2764 64.1806L95.0914 57.4204ZM88.7256 93.2201C92.225 86.6142 95.7722 78.8927 98.7124 71.805L92.6652 67.0212C89.3228 74.8583 84.9131 83.2982 81.8278 88.434L88.7256 93.2201ZM130.282 81.1021L110.764 82.5535L110.053 72.9898L129.57 71.5384L130.282 81.1021ZM139.043 55.526L138.491 48.1092L121.966 49.338L121.304 40.4249C126.306 39.0716 131.088 37.4076 135.136 35.5366L128.761 29.8612C121.817 33.256 109.746 36.3125 98.7679 38.2409C99.8094 39.9298 101.073 42.8451 101.538 44.7076C105.543 44.0173 109.868 43.2378 114.049 42.2727L114.615 49.8847L97.3089 51.1715L97.8604 58.5883L115.166 57.3014L115.776 65.4989L102.504 66.4858L104.458 92.7698L111.485 92.2473L111.286 89.5799L130.804 88.1286L130.978 90.4707L138.33 89.924L136.4 63.9653L123.127 64.9523L122.518 56.7548L139.043 55.526Z" fill="white"/>
<path d="M186.344 35.3269L158.758 37.3781L158.56 34.7106L186.145 32.6594L186.344 35.3269ZM186.895 42.7436L159.31 44.7948L159.107 42.0624L186.692 40.0111L186.895 42.7436ZM193.52 27.1392L150.776 30.3176L152.261 50.2909L195.005 47.1124L193.52 27.1392ZM192.549 64.2386C191.553 66.6678 190.216 68.926 188.6 70.9433C186.703 69.1872 185.047 67.1516 183.766 64.8917L192.549 64.2386ZM158.644 74.5446L167.101 73.9157L167.29 76.453C164.447 76.9261 161.599 77.3342 158.881 77.7326L158.644 74.5446ZM158.044 66.4773L166.502 65.8484L166.705 68.5809L158.247 69.2098L158.044 66.4773ZM165.906 57.8461L166.1 60.4485L157.642 61.0774L157.449 58.475L165.906 57.8461ZM196.644 57.7193L195.362 58.0763L175.129 59.5808L175.569 65.5012L181.554 65.0561L177.348 66.5465C179.175 70.0087 181.434 73.1117 183.984 75.735C181.401 77.9551 178.33 79.7536 175.094 81.1063L173.323 57.2946L203.12 55.0789L202.666 48.9633L144.828 53.2641L145.283 59.3797L150.357 59.0023L151.828 78.7803C149.826 79.1255 147.879 79.3357 146.197 79.5916L147.276 86.1841C152.962 85.2379 160.331 84.0358 167.759 82.7638L168.151 88.0336L175.568 87.4821L175.176 82.2123C176.593 83.677 178.184 85.7175 179.011 87.1606C182.934 85.3643 186.492 83.0717 189.621 80.2877C193.268 82.6987 197.452 84.4156 202.172 85.4384C203.078 83.5393 204.887 80.5918 206.277 79.0492C201.905 78.3276 197.881 76.9914 194.468 75.0863C197.807 70.7166 200.227 65.434 201.529 59.1878L196.644 57.7193Z" fill="white"/>
<path d="M254.113 54.6234L225.357 56.7617L224.723 48.2389L253.48 46.1006L254.113 54.6234ZM226.533 72.5711L225.88 63.7881L254.636 61.6498L255.289 70.4328L226.533 72.5711ZM266.449 30.4824L265.888 22.9355L208.701 27.1879L209.262 34.7348L232.813 32.9835C232.677 35.545 232.475 38.1114 232.194 40.4874L216.319 41.6678L219.483 84.2166L227.355 83.6312L227.065 79.7277L255.821 77.5894L256.111 81.4929L264.374 80.8785L261.21 38.3297L240.391 39.8778C240.933 37.4825 241.464 34.957 241.921 32.3062L266.449 30.4824Z" fill="white"/>
<path d="M324.029 61.143L324.484 67.2586L308.349 68.4584L307.895 62.3428L324.029 61.143ZM302.017 77.4337L308.978 76.9161L308.804 74.5739L324.939 73.3742L325.094 75.4561L332.38 74.9142L330.861 54.4856L300.478 56.7448L302.017 77.4337ZM307.671 46.1355C310.275 43.3251 312.479 40.4136 313.917 37.7553C315.932 40.2223 318.737 42.7612 321.789 45.0857L307.671 46.1355ZM309.65 31.3999C309.418 31.8096 309.192 32.2844 308.966 32.7591L308.642 28.4001L318.531 27.6648L318.918 32.8695L326.204 32.3277L325.817 27.123L333.429 26.5569L332.941 19.986L325.329 20.552L324.893 14.6966L317.607 15.2385L318.042 21.0938L308.153 21.8292L307.718 15.9738L300.561 16.506L300.996 22.3613L293.775 22.8983L294.263 29.4693L301.485 28.9323L301.858 33.9419L308.559 33.4436C305.774 38.2299 301.063 43.4867 295.844 47.2111L294.954 43.1559L290.302 44.8103L289.702 36.7429L294.711 36.3704L294.184 29.279L289.174 29.6515L288.265 17.4203L280.848 17.9718L281.758 30.203L274.211 30.7642L274.738 37.8556L282.285 37.2944L283.035 47.3786C279.784 48.5362 276.785 49.5443 274.351 50.2486L276.534 57.6095C278.698 56.7944 281.117 55.8949 283.601 54.9906L284.709 69.8892C284.781 70.8651 284.475 71.1495 283.695 71.2075C282.854 71.3355 280.186 71.5338 277.639 71.5924C278.775 73.6668 279.997 76.9122 280.347 78.9796C284.836 78.6458 287.875 78.1582 289.925 76.6974C291.92 75.3715 292.416 73.2412 292.13 69.4027L290.848 52.162L294.089 50.8743C295.171 52.2331 296.148 53.9268 296.76 55.1242C299.641 53.4053 302.364 51.3057 304.871 48.9604L305.133 52.4736L325.301 50.9739L325.03 47.3306C327.648 49.0985 330.371 50.5315 333.005 51.644C333.881 49.3546 335.17 46.4458 336.536 44.5779C329.306 42.3679 321.849 37.1001 316.676 30.8774L309.65 31.3999Z" fill="#F04928"/>
<path d="M378.268 55.2894L366.498 52.9867L373.037 9.72645L388.515 12.7546L378.268 55.2894ZM361.598 65.9047C362.015 63.7778 363.116 62.1879 364.904 61.135C366.726 60.0591 368.787 59.746 371.086 60.1959C373.386 60.6458 375.162 61.7095 376.415 63.3872C377.703 65.0417 378.139 66.9324 377.723 69.0593C377.307 71.1862 376.188 72.7877 374.366 73.8636C372.578 74.9165 370.534 75.218 368.235 74.7681C365.936 74.3182 364.142 73.266 362.854 71.6115C361.601 69.9339 361.182 68.0316 361.598 65.9047Z" fill="#284273"/>
</svg>
