<svg width="209" height="45" viewBox="0 0 209 45" fill="none" xmlns="http://www.w3.org/2000/svg">
<path d="M0 22.5C0 10.0736 10.0736 0 22.5 0H186.5C198.926 0 209 10.0736 209 22.5C209 34.9264 198.926 45 186.5 45H22.5C10.0736 45 0 34.9264 0 22.5Z" fill="#FFC232"/>
<path fill-rule="evenodd" clip-rule="evenodd" d="M186.5 4H22.5C12.2827 4 4 12.2827 4 22.5C4 32.7173 12.2827 41 22.5 41H186.5C196.717 41 205 32.7173 205 22.5C205 12.2827 196.717 4 186.5 4ZM22.5 0C10.0736 0 0 10.0736 0 22.5C0 34.9264 10.0736 45 22.5 45H186.5C198.926 45 209 34.9264 209 22.5C209 10.0736 198.926 0 186.5 0H22.5Z" fill="#FD8A20"/>
<path d="M63.1 19.26C62.84 21.38 62.38 23.22 61.72 24.76C61.08 24.32 60.44 23.92 59.82 23.54C60.16 22.18 60.5 20.74 60.84 19.26H63.1ZM64.08 16.96L63.66 17.02H61.34C61.62 15.72 61.88 14.46 62.12 13.28L59.82 13.06C59.62 14.28 59.36 15.64 59.08 17.02H56.84V19.26H58.6C58.08 21.6 57.52 23.86 57.04 25.52L59.04 26.48L59.24 25.74C59.7 26.06 60.18 26.4 60.64 26.74C59.68 28.12 58.44 29.14 56.94 29.78C57.42 30.26 58.04 31.14 58.34 31.74C60.04 30.88 61.4 29.72 62.48 28.2C63.34 28.94 64.08 29.64 64.58 30.28L65.96 28.24C65.42 27.6 64.6 26.88 63.66 26.14C64.68 23.86 65.3 20.96 65.54 17.2L64.08 16.96ZM68.76 27.46V17.34H72.28V27.46H68.76ZM66.5 15.1V31.2H68.76V29.72H72.28V30.9H74.64V15.1H66.5Z" fill="white"/>
<path d="M86.98 13.04C86 15.86 84.28 18.66 82.52 20.42C82.94 21.02 83.58 22.32 83.8 22.9C84.26 22.4 84.74 21.84 85.2 21.22V31.68H87.58V17.42C88.22 16.2 88.76 14.98 89.22 13.76L86.98 13.04ZM93.72 21.28V24.4H91.5V21.28H93.72ZM95.94 26.46V19.22H89.28V27.76H91.5V26.46H95.94ZM101.36 14.78H89.04V17.06H97.76V28.88C97.76 29.26 97.64 29.38 97.24 29.38C96.84 29.38 95.44 29.38 94.14 29.32C94.48 30.02 94.86 31.06 94.94 31.76C96.8 31.76 98.16 31.68 99 31.32C99.86 30.94 100.16 30.3 100.16 28.92V17.06H101.36V14.78Z" fill="white"/>
<path d="M115.08 16.16H117.62V16.58L116.88 16.38C116.3 17.82 115.28 19.24 114.14 20.18C113.98 19.16 113.72 18.16 113.3 17.18C113.96 16.32 114.56 15.42 115.08 14.5V16.16ZM122.28 16.16V16.78L121 16.56C120.94 16.92 120.76 17.42 120.58 17.88H118.3C118.46 17.58 118.6 17.28 118.72 16.98H119.76V16.16H122.28ZM120.52 19.94H118.22V19.28H120.52V19.94ZM120.52 21.76H118.22V21.04H120.52V21.76ZM120.52 23.58H118.22V22.86H120.52V23.58ZM116.16 24.98H127.02V23.58H122.6V22.86H125.96V21.76H122.6V21.04H125.96V19.94H122.6V19.28H126.5V17.88H122.74C122.9 17.6 123.08 17.3 123.26 16.98H124.44V16.16H127.14V14.4H124.44V13.02H122.28V14.4H119.76V13.02H117.62V14.4H115.14L115.2 14.28L113.12 13.24C112.82 13.84 112.48 14.44 112.08 15.04C111.6 14.4 111.02 13.76 110.34 13.14L108.7 14.4C109.56 15.2 110.2 16.02 110.7 16.86C109.98 17.68 109.22 18.42 108.44 19C108.94 19.36 109.68 20.06 110.04 20.54C110.58 20.1 111.12 19.62 111.64 19.08C111.82 19.72 111.94 20.38 112.02 21.06C111.14 22.6 109.7 24.22 108.4 25.08C108.94 25.52 109.58 26.3 109.94 26.88C110.66 26.24 111.44 25.38 112.16 24.44C112.14 26.68 111.98 28.64 111.6 29.12C111.44 29.32 111.26 29.42 111 29.46C110.64 29.5 110.02 29.5 109.18 29.44C109.58 30.12 109.76 30.96 109.76 31.72C110.6 31.76 111.38 31.74 112.1 31.56C112.6 31.46 113.02 31.18 113.3 30.78C114.2 29.54 114.38 26.74 114.38 23.92C114.38 22.7 114.34 21.54 114.18 20.38C114.58 20.78 115.14 21.42 115.4 21.76C115.66 21.54 115.92 21.28 116.16 21.02V24.98ZM123.22 27.32C122.64 27.8 121.94 28.2 121.16 28.54C120.36 28.2 119.7 27.8 119.18 27.32H123.22ZM125.22 25.58L124.86 25.64H115.48V27.32H118.26L117.02 27.76C117.52 28.34 118.1 28.86 118.76 29.3C117.4 29.62 115.9 29.84 114.32 29.96C114.66 30.38 115.14 31.28 115.3 31.78C117.34 31.52 119.3 31.12 121.04 30.5C122.58 31.12 124.36 31.54 126.32 31.76C126.6 31.18 127.14 30.32 127.62 29.88C126.16 29.78 124.8 29.58 123.56 29.3C124.78 28.54 125.8 27.56 126.5 26.34L125.22 25.58Z" fill="white"/>
<path d="M149.6 16.3H144.4V15.3H149.6V16.3ZM149.6 18.9H144.4V17.86H149.6V18.9ZM152 13.64H142.1V20.56H152V13.64ZM138.66 13.08C137.82 14.42 136.06 16.04 134.5 17C134.86 17.5 135.44 18.48 135.68 19.02C137.56 17.8 139.6 15.84 140.92 14L138.66 13.08ZM139.18 17.44C138.02 19.4 136.06 21.34 134.28 22.58C134.64 23.16 135.24 24.52 135.42 25.04C136.02 24.58 136.62 24.02 137.22 23.42V31.72H139.52V20.86C140.18 20.02 140.78 19.18 141.26 18.34L139.18 17.44ZM153.06 24.52H150.34V23.38H152.66V21.44H141.08V23.38H147.92V24.52H140.6V26.54H143.4L141.92 27.52C142.76 28.36 143.78 29.54 144.22 30.3L146 29.04C145.5 28.34 144.52 27.3 143.72 26.54H147.92V29.32C147.92 29.54 147.84 29.62 147.56 29.64C147.3 29.64 146.36 29.64 145.52 29.6C145.82 30.2 146.16 31.08 146.26 31.72C147.62 31.72 148.62 31.72 149.36 31.38C150.14 31.04 150.34 30.48 150.34 29.38V26.54H153.08L153.06 24.52Z" fill="white"/>
<path fill-rule="evenodd" clip-rule="evenodd" d="M66.5 31.2001H68.76V29.7201H72.28V30.9001H74.64V15.1001H66.5V31.2001ZM68.76 27.4601H72.28V17.3401H68.76V27.4601ZM65.1081 12.2681C65.5279 12.0614 66.0004 11.9452 66.5 11.9452H74.64C76.3824 11.9452 77.7948 13.3577 77.7948 15.1001V30.9001C77.7948 32.6424 76.3824 34.0549 74.64 34.0549H72.28C71.7214 34.0549 71.1967 33.9097 70.7416 33.6551C70.2 34.0928 69.5106 34.3549 68.76 34.3549H66.5C65.6224 34.3549 64.8286 33.9966 64.2567 33.4183C63.6374 33.3546 63.0522 33.1089 62.5744 32.7154C61.7246 33.4256 60.7882 34.0371 59.7641 34.5552C59.0152 34.9341 58.1462 34.9989 57.3494 34.7354C56.5525 34.4718 55.8936 33.9016 55.5182 33.151C55.3577 32.8299 54.9309 32.2326 54.7092 32.0109C53.9683 31.27 53.6436 30.2097 53.8426 29.181C53.9596 28.5757 54.249 28.0279 54.6637 27.5957C53.9759 26.8076 53.7033 25.702 54.0093 24.6437C54.2528 23.8015 54.5218 22.7828 54.7977 21.6647C54.117 21.086 53.6852 20.2235 53.6852 19.2601V17.0201C53.6852 15.4014 54.9041 14.0675 56.4742 13.8862C56.5586 13.4238 56.6367 12.9765 56.7067 12.5497C56.9753 10.9113 58.4677 9.76148 60.1204 9.91957L62.4204 10.1396C63.3107 10.2247 64.1231 10.6838 64.6554 11.4026C64.8524 11.6686 65.0041 11.9609 65.1081 12.2681ZM56.84 17.0201V19.2601H58.6C58.5318 19.5668 58.463 19.8721 58.3937 20.1749C58.2177 20.9444 58.039 21.6975 57.862 22.4149C57.8154 22.6039 57.7689 22.7904 57.7226 22.9741C57.7193 22.9871 57.716 23.0002 57.7127 23.0133C57.5157 23.7937 57.3225 24.5224 57.1393 25.1723C57.1372 25.1795 57.1352 25.1866 57.1332 25.1938C57.1018 25.3049 57.0707 25.4137 57.04 25.5201L59.04 26.4801L59.24 25.7401C59.2786 25.7669 59.3174 25.794 59.3563 25.8211C59.5645 25.9664 59.776 26.1154 59.9873 26.2663C60.0207 26.2902 60.0541 26.3141 60.0875 26.3381C60.2099 26.4259 60.332 26.5142 60.4531 26.6028C60.4857 26.6266 60.5182 26.6504 60.5507 26.6742C60.5805 26.6962 60.6103 26.7181 60.64 26.7401C60.6202 26.7685 60.6004 26.7967 60.5804 26.8248C60.5763 26.8305 60.5723 26.8361 60.5683 26.8418C60.558 26.8561 60.5477 26.8705 60.5374 26.8848C60.4642 26.9859 60.3896 27.085 60.3133 27.182C60.2393 27.2763 60.1637 27.3688 60.0868 27.4593C59.9264 27.6478 59.7598 27.828 59.5869 27.9998C59.2134 28.3711 58.8107 28.7034 58.3796 28.9959C58.1837 29.1288 57.982 29.2535 57.7744 29.3699C57.6107 29.4618 57.4434 29.5484 57.2725 29.6299C57.1631 29.6821 57.0523 29.7322 56.94 29.7801C57.4104 30.2505 58.0154 31.1052 58.3217 31.704C58.3279 31.7161 58.334 31.7281 58.34 31.7401C59.3206 31.244 60.1881 30.6481 60.9539 29.9409C61.0037 29.895 61.0529 29.8486 61.1018 29.8018C61.4148 29.5017 61.7103 29.1822 61.9892 28.8426C62.0445 28.7753 62.0991 28.7072 62.153 28.6383C62.2648 28.4957 62.3737 28.3496 62.48 28.2001C62.6913 28.3819 62.8954 28.5613 63.0905 28.7381C63.1772 28.8166 63.2621 28.8947 63.3452 28.9722C63.6384 29.2459 63.9075 29.5126 64.1454 29.7712C64.3049 29.9446 64.4505 30.1143 64.58 30.2801L65.96 28.2401C65.8601 28.1216 65.7505 28.0005 65.6324 27.8769C65.2533 27.4803 64.7858 27.0594 64.2634 26.6267C64.1807 26.5582 64.0966 26.4894 64.0113 26.4204C63.9255 26.3509 63.8384 26.2812 63.7502 26.2113C63.7203 26.1876 63.6902 26.1638 63.66 26.1401C63.6775 26.101 63.6949 26.0617 63.7121 26.0222C63.7618 25.9085 63.8106 25.7933 63.8583 25.6765C63.8936 25.5903 63.9284 25.5032 63.9626 25.4153C64.5998 23.7775 65.0533 21.842 65.3293 19.5335C65.4156 18.8115 65.4846 18.0531 65.5364 17.2558C65.5376 17.2373 65.5388 17.2187 65.54 17.2001L64.08 16.9601L63.66 17.0201H61.34C61.3856 16.8081 61.4307 16.5973 61.4753 16.3876C61.4954 16.2933 61.5154 16.1991 61.5352 16.1052C61.6976 15.3379 61.8527 14.5883 62.0006 13.8652C62.0304 13.7197 62.0599 13.5753 62.0891 13.4321C62.0994 13.3812 62.1097 13.3306 62.12 13.2801L59.82 13.0601C59.6611 14.0294 59.4643 15.087 59.2497 16.1728C59.2247 16.2994 59.1995 16.4263 59.174 16.5536C59.1719 16.564 59.1698 16.5744 59.1678 16.5848C59.1388 16.7296 59.1095 16.8747 59.08 17.0201H56.84ZM60.6465 20.0978C60.4413 20.9808 60.2362 21.8464 60.031 22.686C59.9744 22.9176 59.9178 23.1473 59.8612 23.3748C59.8475 23.43 59.8337 23.4851 59.82 23.5401C59.9811 23.6388 60.1435 23.7389 60.3069 23.8406C60.3659 23.8774 60.425 23.9143 60.4842 23.9515C60.5545 23.9956 60.6249 24.0401 60.6955 24.085C60.8018 24.1525 60.9084 24.2208 61.0151 24.29C61.2494 24.442 61.4847 24.5983 61.72 24.7601C61.8142 24.5404 61.9043 24.3145 61.9903 24.0826C62.0158 24.0139 62.0409 23.9446 62.0657 23.8748C62.2303 23.4114 62.3791 22.9246 62.5121 22.4149C62.5794 22.157 62.6426 21.8933 62.7018 21.6237C62.8042 21.158 62.8944 20.675 62.9727 20.1749C62.9939 20.0392 63.0142 19.9022 63.0337 19.764C63.0571 19.5978 63.0792 19.4299 63.1 19.2601H60.84C60.8059 19.4086 60.7717 19.5568 60.7376 19.7044C60.7354 19.7142 60.7331 19.7239 60.7309 19.7336C60.7027 19.8553 60.6746 19.9767 60.6465 20.0978ZM84 12.0045C84.5625 10.3859 86.3141 9.51222 87.9454 10.0366L90.1854 10.7566C90.7104 10.9253 91.1766 11.2268 91.5428 11.6252H101.36C103.102 11.6252 104.515 13.0377 104.515 14.7801V17.0601C104.515 18.0641 104.046 18.9587 103.315 19.5364V28.9201C103.315 29.7607 103.238 30.8372 102.746 31.8609C102.176 33.0479 101.248 33.7758 100.275 34.2058L100.243 34.2198C99.3818 34.5888 98.4551 34.7386 97.6538 34.8155C96.8225 34.8952 95.8964 34.9149 94.94 34.9149C93.3362 34.9149 91.9877 33.7117 91.8056 32.1183C91.8056 32.1188 91.8057 32.1192 91.8056 32.1183C91.8045 32.1112 91.7963 32.0577 91.77 31.9536C91.7421 31.8428 91.7019 31.7069 91.6497 31.5532C91.574 31.3297 91.4861 31.1069 91.4019 30.9149H90.7348V31.6801C90.7348 33.4224 89.3224 34.8349 87.58 34.8349H85.2C83.4576 34.8349 82.0452 33.4224 82.0452 31.6801V25.5218C81.5086 25.1626 81.0864 24.6416 80.8502 24.019C80.7978 23.8807 80.6397 23.5244 80.4222 23.0963C80.198 22.6548 80.0139 22.3413 79.9354 22.2293C79.0576 20.9751 79.2067 19.2717 80.2892 18.1893C81.6701 16.8084 83.1554 14.4348 84 12.0045ZM85.2 31.6801H87.58V17.4201C87.6429 17.3001 87.7049 17.1801 87.766 17.0601C87.8322 16.9298 87.8973 16.7996 87.9614 16.6693C88.0264 16.537 88.0903 16.4047 88.1532 16.2724C88.3893 15.775 88.6099 15.2775 88.8163 14.7801C88.8928 14.5957 88.9673 14.4114 89.04 14.227C89.0823 14.1197 89.1239 14.0125 89.1649 13.9052C89.1768 13.8741 89.1887 13.8429 89.2005 13.8117C89.207 13.7945 89.2135 13.7773 89.22 13.7601L86.98 13.0401C86.7771 13.6239 86.5424 14.207 86.2823 14.7801C86.1557 15.0589 86.0231 15.3355 85.8852 15.6086C85.7621 15.8523 85.6348 16.0933 85.5037 16.3309C85.2982 16.7033 85.0836 17.0674 84.8617 17.4201C84.719 17.647 84.5733 17.8692 84.4251 18.086C84.4039 18.117 84.3827 18.1479 84.3614 18.1787C83.9783 18.7325 83.5795 19.2495 83.1738 19.7167C82.9574 19.966 82.739 20.2011 82.52 20.4201C82.663 20.6243 82.8314 20.9096 83.0001 21.2201C83.327 21.8217 83.6549 22.5175 83.8 22.9001C83.9858 22.6981 84.1749 22.4863 84.3646 22.2647C84.3848 22.2412 84.405 22.2175 84.4251 22.1937C84.685 21.8875 84.9456 21.563 85.2 21.2201V31.6801ZM89.04 14.7801V17.0601H97.76V28.8801C97.76 28.8937 97.7598 28.9071 97.7595 28.9201C97.7584 28.9654 97.7553 29.0068 97.7499 29.0444C97.7286 29.1936 97.6711 29.2839 97.5578 29.3327C97.4801 29.3661 97.3763 29.3801 97.24 29.3801C97.2107 29.3801 97.1762 29.3801 97.1366 29.3801C96.8921 29.3799 96.4592 29.3789 95.94 29.3714C95.6302 29.3669 95.2896 29.3601 94.94 29.3498C94.7086 29.3431 94.4733 29.3348 94.2402 29.3246C94.2067 29.3231 94.1733 29.3216 94.14 29.3201C94.1552 29.3514 94.1705 29.3834 94.1858 29.416C94.216 29.4801 94.2463 29.5465 94.2766 29.6149C94.5755 30.2899 94.8706 31.1529 94.94 31.7601C95.819 31.7601 96.5864 31.7422 97.24 31.6854C97.9693 31.6219 98.557 31.5099 99 31.3201C99.86 30.9401 100.16 30.3001 100.16 28.9201V17.0601H101.36V14.7801H89.04ZM89.28 19.2201V27.7601H91.5V26.4601H95.94V19.2201H89.28ZM91.5 24.4001H93.72V21.2801H91.5V24.4001ZM110.581 16.6651C110.511 16.5525 110.438 16.4403 110.362 16.3284C110.339 16.2946 110.316 16.2609 110.293 16.2272C110.293 16.2271 110.293 16.2274 110.293 16.2272C109.923 15.6938 109.486 15.1681 108.962 14.6512C108.877 14.5673 108.79 14.4836 108.7 14.4001L110.34 13.1401C110.76 13.5232 111.142 13.914 111.486 14.3078C111.64 14.4841 111.786 14.661 111.925 14.8381C111.964 14.8878 112.003 14.9376 112.04 14.9874C112.054 15.005 112.067 15.0225 112.08 15.0401C112.2 14.8601 112.315 14.6801 112.424 14.5001C112.504 14.3695 112.581 14.2389 112.656 14.1083C112.798 13.8588 112.933 13.6093 113.06 13.3599C113.06 13.3594 113.06 13.3589 113.06 13.3585C113.08 13.319 113.1 13.2795 113.12 13.2401L115.2 14.2801L115.14 14.4001H117.62V13.0201H119.76V14.4001H122.28V13.0201H124.44V14.4001H127.14V16.1601H124.44V16.9801H123.26C123.207 17.0743 123.154 17.1669 123.101 17.2577C123.079 17.2967 123.056 17.3354 123.034 17.3738C123.014 17.409 122.993 17.4439 122.973 17.4786C122.965 17.4925 122.957 17.5063 122.949 17.5202C122.906 17.5926 122.865 17.6638 122.824 17.7338C122.796 17.7831 122.768 17.8319 122.74 17.8801H126.5V19.2801H122.6V19.9401H125.96V21.0401H122.6V21.7601H125.96V22.8601H122.6V23.5801H127.02V24.9801H116.16V21.0201C116.154 21.0267 116.148 21.0334 116.141 21.0401C115.954 21.2423 115.755 21.444 115.553 21.6261C115.51 21.6646 115.468 21.7021 115.425 21.7387C115.417 21.7458 115.408 21.753 115.4 21.7601C115.373 21.7243 115.342 21.6851 115.308 21.6433C115.261 21.5839 115.208 21.5192 115.151 21.4508C115.123 21.4179 115.094 21.3841 115.065 21.3496C114.975 21.2439 114.878 21.1321 114.778 21.0201C114.751 20.9894 114.724 20.9588 114.696 20.9283C114.646 20.8726 114.596 20.8172 114.546 20.7629C114.418 20.6243 114.293 20.4927 114.18 20.3801C114.199 20.5199 114.217 20.6598 114.233 20.7997C114.241 20.8732 114.249 20.9466 114.257 21.0201C114.295 21.3985 114.323 21.7782 114.342 22.161C114.346 22.2381 114.349 22.3154 114.352 22.3928C114.354 22.4473 114.357 22.5019 114.358 22.5566C114.36 22.6006 114.361 22.6446 114.363 22.6888C114.369 22.8774 114.373 23.067 114.376 23.2578C114.376 23.2806 114.376 23.3033 114.376 23.3261C114.379 23.5226 114.38 23.7205 114.38 23.9201C114.38 24.1002 114.379 24.2803 114.378 24.4599C114.377 24.5546 114.376 24.6492 114.374 24.7436C114.373 24.8225 114.372 24.9014 114.37 24.9801C114.366 25.2017 114.36 25.4219 114.353 25.6401C114.347 25.7961 114.341 25.9511 114.333 26.1047C114.333 26.1053 114.333 26.106 114.333 26.1066C114.322 26.3404 114.308 26.5711 114.291 26.7976C114.29 26.8108 114.289 26.824 114.289 26.8372C114.276 27.0005 114.263 27.1616 114.247 27.3201C114.242 27.3728 114.237 27.4252 114.232 27.4773C114.214 27.6531 114.193 27.8256 114.171 27.9941C114.133 28.2727 114.09 28.5405 114.04 28.7952C113.956 29.2181 113.854 29.6047 113.728 29.9441C113.642 30.1772 113.545 30.3881 113.435 30.573C113.433 30.5765 113.431 30.58 113.429 30.5834C113.388 30.6527 113.345 30.7183 113.3 30.7801C113.297 30.7845 113.294 30.789 113.291 30.7934C113.18 30.9488 113.048 31.0858 112.898 31.2007C112.775 31.2949 112.64 31.3743 112.496 31.4368C112.371 31.4909 112.238 31.5324 112.1 31.5601C111.954 31.5964 111.807 31.6263 111.656 31.6504C111.553 31.667 111.449 31.6808 111.343 31.6923C111.312 31.6957 111.281 31.6989 111.249 31.7018C111.172 31.7091 111.095 31.7152 111.016 31.7201C110.614 31.7454 110.195 31.7408 109.76 31.7201C109.76 31.1568 109.661 30.5496 109.447 29.9962C109.372 29.8029 109.284 29.6161 109.18 29.4401C109.429 29.4578 109.658 29.4703 109.867 29.4781C110.364 29.4966 110.746 29.4882 111 29.4601C111.078 29.4481 111.149 29.4307 111.214 29.4068C111.241 29.397 111.266 29.3862 111.291 29.3741C111.306 29.3673 111.319 29.3601 111.333 29.3525C111.398 29.3163 111.458 29.2713 111.514 29.216C111.543 29.1869 111.572 29.155 111.6 29.1201C111.603 29.116 111.606 29.1119 111.61 29.1077C111.651 29.0521 111.69 28.9788 111.726 28.8892C111.817 28.6641 111.892 28.3367 111.952 27.9323C111.956 27.9097 111.959 27.8868 111.962 27.8637C112.034 27.3611 112.084 26.7465 112.117 26.0658C112.125 25.8867 112.132 25.703 112.138 25.5155C112.149 25.1994 112.155 24.8725 112.159 24.5391C112.159 24.5062 112.16 24.4731 112.16 24.4401C112.147 24.4565 112.135 24.473 112.122 24.4894C111.821 24.8804 111.509 25.257 111.197 25.6092C110.971 25.8639 110.744 26.1059 110.519 26.3311C110.515 26.3355 110.511 26.3398 110.506 26.3441C110.315 26.5358 110.125 26.7152 109.94 26.8801C109.887 26.7954 109.829 26.7064 109.766 26.6148C109.695 26.5131 109.619 26.4082 109.538 26.3023C109.366 26.0758 109.173 25.8451 108.978 25.6331C108.783 25.4232 108.586 25.2315 108.4 25.0801C108.598 24.9488 108.8 24.7997 109.003 24.636C109.091 24.5648 109.179 24.4908 109.267 24.4142C109.521 24.1936 109.775 23.9518 110.023 23.6949C110.186 23.5263 110.347 23.3512 110.503 23.1713C110.576 23.0876 110.648 23.0029 110.72 22.9174C110.882 22.7218 111.04 22.5216 111.191 22.3188C111.239 22.2547 111.286 22.1903 111.332 22.1257C111.387 22.0496 111.44 21.9732 111.493 21.8966C111.63 21.6975 111.759 21.4972 111.88 21.2975C111.928 21.2182 111.975 21.1391 112.02 21.0601C112.005 20.9343 111.989 20.8091 111.971 20.6847C111.964 20.631 111.956 20.5774 111.948 20.524C111.93 20.4107 111.912 20.298 111.892 20.1859C111.838 19.8853 111.774 19.5887 111.698 19.2963C111.68 19.224 111.66 19.1519 111.64 19.0801C111.47 19.2562 111.299 19.4259 111.126 19.5899C111.038 19.6732 110.949 19.755 110.861 19.8354C110.733 19.952 110.604 20.0657 110.474 20.1768C110.33 20.3011 110.185 20.422 110.04 20.5401C109.982 20.4622 109.913 20.3786 109.838 20.2916C109.683 20.1141 109.498 19.9224 109.305 19.7369C109.269 19.703 109.234 19.6693 109.198 19.6359C108.934 19.3894 108.663 19.1608 108.44 19.0001C108.511 18.9472 108.582 18.893 108.653 18.8376C109.131 18.4625 109.601 18.0294 110.058 17.5571C110.076 17.5394 110.093 17.5217 110.11 17.504C110.125 17.4875 110.141 17.471 110.157 17.4544C110.34 17.262 110.521 17.0635 110.7 16.8601C110.698 16.8559 110.695 16.8518 110.693 16.8476C110.656 16.7867 110.619 16.7259 110.581 16.6651ZM106.418 16.5784C105.824 15.9564 105.508 15.1161 105.549 14.2516C105.592 13.3245 106.042 12.4638 106.778 11.8983L108.418 10.6383C109.42 9.86827 110.76 9.78398 111.832 10.36C111.927 10.3178 112.023 10.2801 112.122 10.2471C112.916 9.98254 113.782 10.0441 114.531 10.4183L115.351 10.8283C115.925 10.2345 116.729 9.86523 117.62 9.86523H119.76C120.208 9.86523 120.634 9.95859 121.02 10.1269C121.406 9.95859 121.832 9.86523 122.28 9.86523H124.44C125.524 9.86523 126.481 10.4122 127.049 11.2452H127.14C128.882 11.2452 130.295 12.6577 130.295 14.4001V16.1601C130.295 16.8758 130.056 17.5359 129.655 18.0652V19.2801C129.655 19.9342 129.456 20.5419 129.115 21.0458C129.115 21.1031 129.113 21.1601 129.11 21.2168C129.763 21.7948 130.175 22.6393 130.175 23.5801V24.9801C130.175 25.6385 129.973 26.2498 129.628 26.7556C129.602 26.9525 129.557 27.1485 129.492 27.341C129.993 27.7098 130.383 28.2258 130.598 28.8376C131.013 30.0228 130.685 31.3407 129.765 32.1937C129.759 32.1995 129.74 32.2206 129.707 32.261C129.654 32.327 129.588 32.4166 129.514 32.5264C129.361 32.7543 129.232 32.9853 129.161 33.1316C128.579 34.3376 127.299 35.0446 125.968 34.8952C124.215 34.6984 122.537 34.3525 120.982 33.8369C119.277 34.3472 117.48 34.6826 115.699 34.9096C114.925 35.0083 114.171 34.8163 113.558 34.4103C113.314 34.5043 113.061 34.5802 112.8 34.6367C111.658 34.9121 110.541 34.9157 109.61 34.8713C107.928 34.7912 106.605 33.4041 106.605 31.7201C106.605 31.5823 106.588 31.4334 106.555 31.2967C106.521 31.1584 106.481 31.0743 106.461 31.0396C105.866 30.0295 105.881 28.7731 106.499 27.7771C106.521 27.7422 106.543 27.7079 106.566 27.674C106.506 27.6129 106.452 27.562 106.407 27.5258C105.629 26.8919 105.199 25.9258 105.249 24.9236C105.299 23.9213 105.822 23.0025 106.659 22.4489C106.819 22.3433 106.99 22.2117 107.168 22.0592C107.149 22.041 107.13 22.0226 107.111 22.004C106.886 21.7888 106.691 21.6283 106.597 21.5603C105.78 20.9725 105.293 20.0304 105.285 19.0243C105.278 18.0777 105.696 17.1812 106.418 16.5784ZM126.386 26.5318C126.425 26.4686 126.463 26.4048 126.5 26.3402C126.5 26.3403 126.5 26.3402 126.5 26.3402L125.22 25.5801L124.86 25.6401H115.48V27.3201H118.26L117.02 27.7601C117.122 27.8784 117.227 27.9942 117.336 28.1074C117.345 28.1166 117.354 28.1258 117.363 28.1349C117.392 28.1657 117.422 28.1962 117.453 28.2265C117.606 28.3804 117.766 28.5289 117.932 28.6719C117.98 28.7134 118.029 28.7544 118.079 28.7949C118.138 28.844 118.199 28.8923 118.26 28.9399C118.421 29.0652 118.588 29.1853 118.76 29.3001C118.595 29.3388 118.429 29.3761 118.26 29.4119C118.09 29.4479 117.919 29.4824 117.745 29.5155C117.713 29.5216 117.681 29.5276 117.649 29.5336C117.465 29.5681 117.278 29.6009 117.089 29.632C117.073 29.6346 117.058 29.6372 117.042 29.6398C116.534 29.7227 116.013 29.7935 115.48 29.8523C115.341 29.8677 115.201 29.8823 115.06 29.896C114.948 29.9069 114.836 29.9172 114.724 29.9271C114.718 29.9276 114.712 29.9281 114.706 29.9286C114.578 29.9398 114.449 29.9503 114.32 29.9601C114.393 30.0507 114.473 30.1638 114.555 30.2903C114.567 30.3093 114.58 30.3287 114.592 30.3483C114.879 30.8024 115.18 31.4042 115.3 31.7801C115.685 31.731 116.067 31.677 116.445 31.6174C116.48 31.612 116.514 31.6065 116.549 31.601C116.805 31.5598 117.061 31.516 117.314 31.4694C117.935 31.3552 118.543 31.2244 119.135 31.0746C119.148 31.0711 119.162 31.0677 119.175 31.0643C119.527 30.9746 119.872 30.8781 120.21 30.7744C120.373 30.7245 120.535 30.6728 120.694 30.6195C120.81 30.5806 120.926 30.5408 121.04 30.5001C121.218 30.5718 121.399 30.6408 121.584 30.7072C121.784 30.7791 121.987 30.8479 122.195 30.9135C122.464 30.9991 122.74 31.0792 123.022 31.1541C123.059 31.164 123.097 31.1739 123.135 31.1837C123.724 31.3366 124.339 31.4664 124.976 31.573C125.209 31.6121 125.445 31.648 125.684 31.6808C125.894 31.7096 126.106 31.736 126.32 31.7601C126.467 31.4555 126.686 31.0737 126.93 30.7161C127.151 30.3927 127.392 30.089 127.62 29.8801C127.254 29.855 126.895 29.8237 126.542 29.7864C126.14 29.7439 125.746 29.6937 125.362 29.6362C125.276 29.6233 125.189 29.61 125.104 29.5963C124.735 29.5375 124.375 29.4719 124.024 29.4C123.868 29.3679 123.713 29.3346 123.56 29.3001C123.815 29.1413 124.061 28.973 124.297 28.7949C124.32 28.7775 124.343 28.7599 124.366 28.7422C124.373 28.7375 124.379 28.7327 124.385 28.7278C124.455 28.674 124.524 28.6193 124.591 28.5637C124.68 28.4915 124.767 28.4177 124.852 28.3425C124.854 28.34 124.857 28.3376 124.86 28.3351C124.934 28.2695 125.007 28.2028 125.078 28.1349C125.136 28.0805 125.192 28.0253 125.248 27.9694C125.356 27.8611 125.461 27.75 125.563 27.6362C125.563 27.6362 125.563 27.6361 125.563 27.6362C125.815 27.3532 126.048 27.0528 126.257 26.7349C126.273 26.7103 126.289 26.6855 126.305 26.6606C126.321 26.6366 126.336 26.6125 126.351 26.5883C126.363 26.5695 126.375 26.5507 126.386 26.5318ZM121.741 28.2676C121.826 28.2248 121.909 28.1812 121.991 28.1367C121.993 28.1361 121.994 28.1355 121.995 28.1349C122.208 28.0196 122.412 27.8983 122.607 27.7705C122.623 27.7601 122.638 27.7498 122.654 27.7394C122.853 27.6068 123.042 27.4672 123.22 27.3201H119.18C119.308 27.4386 119.445 27.5523 119.591 27.6615C119.649 27.7046 119.707 27.747 119.768 27.7887C119.894 27.8763 120.026 27.9607 120.164 28.0423C120.217 28.0736 120.271 28.1045 120.326 28.1349C120.408 28.1807 120.492 28.2255 120.578 28.2694C120.763 28.3637 120.957 28.4538 121.16 28.5401C121.164 28.5384 121.168 28.5367 121.172 28.535C121.367 28.4497 121.557 28.3607 121.741 28.2676ZM120.52 23.5801V22.8601H118.22V23.5801H120.52ZM120.52 21.7601V21.0401H118.22V21.7601H120.52ZM122.28 16.1601H119.76V16.9801H118.72C118.704 17.0205 118.687 17.0608 118.67 17.1012C118.667 17.1103 118.663 17.1193 118.659 17.1284C118.631 17.1937 118.603 17.2589 118.574 17.3242C118.559 17.3568 118.544 17.3895 118.529 17.4221C118.458 17.5747 118.381 17.7274 118.3 17.8801H120.58C120.597 17.8354 120.615 17.7903 120.632 17.745C120.657 17.6819 120.681 17.6184 120.704 17.5549C120.777 17.3586 120.844 17.1625 120.899 16.9801C120.912 16.9355 120.924 16.8917 120.936 16.849C120.942 16.8257 120.948 16.8027 120.953 16.7801C120.971 16.7105 120.985 16.644 120.996 16.5815C120.998 16.5745 120.999 16.5675 121 16.5605C121 16.5604 121 16.5607 121 16.5605L122.28 16.7801V16.1601ZM115.08 16.1601V14.5001C114.903 14.8128 114.717 15.1233 114.523 15.4306C114.368 15.6759 114.207 15.9192 114.041 16.1601C114.012 16.2029 113.982 16.2457 113.953 16.2884C113.912 16.3467 113.871 16.4048 113.83 16.4628C113.78 16.533 113.73 16.6029 113.679 16.6727C113.612 16.7642 113.545 16.8553 113.477 16.946C113.455 16.9765 113.432 17.007 113.409 17.0374C113.373 17.0851 113.336 17.1326 113.3 17.1801C113.322 17.2308 113.343 17.2816 113.364 17.3324C113.432 17.4974 113.495 17.663 113.554 17.8292C113.579 17.8988 113.603 17.9686 113.627 18.0384C113.676 18.1859 113.722 18.3338 113.766 18.4822C113.802 18.6054 113.836 18.7289 113.868 18.8527C113.873 18.875 113.879 18.8974 113.885 18.9198C113.9 18.9791 113.914 19.0386 113.928 19.0981C114.013 19.4562 114.083 19.8169 114.14 20.1801C114.33 20.0232 114.517 19.853 114.699 19.6716C114.786 19.5854 114.871 19.4966 114.955 19.4055C114.983 19.3755 115.011 19.3452 115.038 19.3146C115.047 19.3046 115.056 19.2946 115.065 19.2845C115.066 19.283 115.068 19.2816 115.069 19.2801C115.073 19.276 115.076 19.2719 115.08 19.2679C115.167 19.1694 115.253 19.0686 115.338 18.9655C115.375 18.9202 115.411 18.8745 115.448 18.8284C115.685 18.5286 115.907 18.2119 116.111 17.8848C116.115 17.8783 116.119 17.8718 116.123 17.8653C116.186 17.7628 116.248 17.6593 116.308 17.5549C116.413 17.3709 116.512 17.1843 116.605 16.9962C116.607 16.9908 116.61 16.9855 116.613 16.9801C116.613 16.9801 116.613 16.9801 116.613 16.9801C116.677 16.8474 116.739 16.7139 116.797 16.5801C116.818 16.5312 116.838 16.4823 116.858 16.4334C116.866 16.4156 116.873 16.3979 116.88 16.3801L117.62 16.5801V16.1601H115.08ZM118.22 19.9401H120.52V19.2801H118.22V19.9401ZM152 13.6401H142.1V20.5601H152V13.6401ZM141.08 21.4401V23.3801H147.92V24.5201H140.6V26.5401H143.4L141.92 27.5201C141.97 27.5705 142.022 27.6222 142.073 27.6749C142.167 27.771 142.263 27.8706 142.359 27.9728C142.456 28.0758 142.553 28.1813 142.651 28.2884C142.659 28.2972 142.667 28.3061 142.675 28.315C142.926 28.5921 143.173 28.879 143.4 29.1581C143.432 29.1981 143.465 29.2379 143.496 29.2775C143.574 29.375 143.649 29.4713 143.72 29.5654C143.753 29.6091 143.785 29.6522 143.816 29.6949C143.877 29.777 143.934 29.8572 143.987 29.935C144.066 30.0497 144.137 30.1591 144.197 30.2614C144.205 30.2744 144.213 30.2873 144.22 30.3001L146 29.0402C145.919 28.9268 145.825 28.8045 145.722 28.676C145.674 28.6165 145.624 28.5556 145.573 28.4937C145.434 28.3275 145.282 28.1536 145.122 27.9769C145.032 27.8768 144.939 27.7759 144.845 27.6749C144.818 27.6467 144.792 27.6184 144.765 27.5902C144.518 27.3284 144.263 27.0685 144.016 26.8265C143.967 26.778 143.918 26.7301 143.869 26.6831C143.819 26.6345 143.769 26.5867 143.72 26.5401H147.92V29.3201C147.92 29.3414 147.919 29.3613 147.918 29.3801C147.903 29.555 147.813 29.622 147.56 29.6401C147.484 29.6401 147.35 29.6401 147.177 29.6391C147.178 29.6391 147.177 29.6391 147.177 29.6391C146.969 29.6379 146.703 29.6352 146.417 29.6293C146.365 29.6283 146.313 29.6271 146.26 29.6258C146.018 29.62 145.765 29.6117 145.52 29.6001C145.535 29.631 145.551 29.6626 145.567 29.6949C145.854 30.2901 146.165 31.113 146.26 31.7201C146.736 31.7201 147.168 31.7201 147.56 31.7055C147.608 31.7037 147.656 31.7017 147.704 31.6994C147.705 31.6993 147.706 31.6993 147.707 31.6992C148.368 31.6672 148.912 31.586 149.36 31.3801C150.14 31.0401 150.34 30.4801 150.34 29.3801V26.5401H153.08L153.06 24.5201H150.34V23.3801H152.66V21.4401H141.08ZM155.155 19.5088V13.6401C155.155 11.8977 153.742 10.4852 152 10.4852H142.1C141.74 10.4852 141.395 10.5454 141.073 10.6562L139.849 10.1581C138.43 9.58028 136.801 10.106 135.987 11.4044C135.467 12.2339 134.107 13.5377 132.847 14.3132C132.1 14.7725 131.579 15.5216 131.407 16.3809C131.235 17.2401 131.428 18.1323 131.94 18.8435C132.118 19.0917 132.396 19.5488 132.595 19.9082C132.555 19.9364 132.516 19.9641 132.477 19.9914C131.1 20.9503 130.715 22.8186 131.6 24.2438C131.665 24.35 131.836 24.6773 132.046 25.1403C132.25 25.5879 132.397 25.9523 132.439 26.0721C132.717 26.8774 133.307 27.5289 134.065 27.8892V31.7201C134.065 33.4624 135.478 34.8749 137.22 34.8749H139.52C140.842 34.8749 141.975 34.0613 142.444 32.9074C142.774 33.1325 143.148 33.2951 143.547 33.3823C143.559 33.3849 143.571 33.3874 143.583 33.3899C144.145 34.2896 145.142 34.8749 146.26 34.8749L146.332 34.8749C146.955 34.875 147.658 34.8751 148.303 34.8216C148.975 34.7659 149.812 34.6385 150.649 34.2596C151.591 33.8425 152.48 33.1299 153.008 31.9857C153.392 31.152 153.476 30.3022 153.492 29.668C154.182 29.5772 154.827 29.2599 155.322 28.7598C155.914 28.1614 156.243 27.3509 156.235 26.5088L156.215 24.4888C156.209 23.9415 156.065 23.4279 155.815 22.9814V21.4401C155.815 20.7125 155.569 20.0425 155.155 19.5088ZM139.52 20.8601C139.599 20.7601 139.676 20.6601 139.753 20.5601C140.243 19.922 140.694 19.284 141.08 18.646C141.082 18.642 141.085 18.6381 141.087 18.6342C141.097 18.6181 141.106 18.602 141.116 18.5859C141.16 18.5126 141.203 18.4393 141.245 18.366C141.25 18.3573 141.255 18.3487 141.26 18.3401L139.18 17.4401C139.105 17.5668 139.027 17.6935 138.945 17.8199C138.589 18.3727 138.174 18.9203 137.722 19.4475C137.48 19.7301 137.227 20.0069 136.967 20.2754C136.873 20.3726 136.778 20.4688 136.682 20.5639C136.581 20.664 136.479 20.7628 136.376 20.8601C136.373 20.8636 136.369 20.8671 136.365 20.8705C136.07 21.1498 135.77 21.4169 135.469 21.6688C135.295 21.814 135.121 21.9542 134.947 22.0887C134.723 22.2624 134.5 22.4266 134.28 22.5801C134.408 22.7859 134.566 23.0901 134.725 23.4201C135.013 24.0197 135.304 24.7046 135.42 25.0401C135.543 24.9459 135.666 24.8475 135.788 24.7455C135.981 24.5858 136.173 24.4171 136.365 24.2414C136.65 23.9809 136.935 23.705 137.22 23.4201V31.7201H139.52V20.8601ZM140.669 14.3396C140.755 14.2261 140.839 14.1129 140.92 14.0001L138.66 13.0801C138.093 13.984 137.108 15.0154 136.048 15.8856C135.536 16.3054 135.008 16.6877 134.5 17.0001C134.643 17.1986 134.821 17.4729 134.998 17.7652C135.136 17.9937 135.275 18.2333 135.396 18.4563C135.511 18.6665 135.61 18.8621 135.68 19.0201C135.695 19.0103 135.71 19.0006 135.725 18.9907C136.548 18.4521 137.401 17.7732 138.209 17.026C138.244 16.9934 138.279 16.9607 138.314 16.9278C138.458 16.7935 138.6 16.657 138.74 16.5189C138.809 16.451 138.877 16.3827 138.945 16.314C139.444 15.809 139.916 15.2847 140.339 14.7607C140.391 14.6971 140.441 14.6335 140.491 14.57C140.552 14.4931 140.611 14.4163 140.669 14.3396ZM149.6 18.9001V17.8601H144.4V18.9001H149.6ZM149.6 16.3001V15.3001H144.4V16.3001H149.6Z" fill="#FF922E"/>
</svg>
