<svg width="147" height="45" viewBox="0 0 147 45" fill="none" xmlns="http://www.w3.org/2000/svg">
<path d="M0 10.5161C0 4.70823 4.70823 0 10.5161 0H136.484C142.292 0 147 4.70823 147 10.5161V34.4839C147 40.2918 142.292 45 136.484 45H10.5161C4.70823 45 0 40.2918 0 34.4839V10.5161Z" fill="#F04928"/>
<path fill-rule="evenodd" clip-rule="evenodd" d="M136.484 3.15484H10.5161C6.4506 3.15484 3.15484 6.4506 3.15484 10.5161V34.4839C3.15484 38.5494 6.4506 41.8452 10.5161 41.8452H136.484C140.549 41.8452 143.845 38.5494 143.845 34.4839V10.5161C143.845 6.4506 140.549 3.15484 136.484 3.15484ZM10.5161 0C4.70823 0 0 4.70823 0 10.5161V34.4839C0 40.2918 4.70823 45 10.5161 45H136.484C142.292 45 147 40.2918 147 34.4839V10.5161C147 4.70823 142.292 0 136.484 0H10.5161Z" fill="#FD6C4F"/>
<path d="M43.5 16.56H36.2V13.08H33.72V16.56H26.62V18.9H43.5V16.56ZM33.34 27.32C33.14 25.2 32.4 22.1 31.46 19.64L29.18 20.24C30.06 22.68 30.76 25.88 30.9 27.96L33.34 27.32ZM38.46 28.58C39.32 26.24 40.26 23 40.96 20.06L38.22 19.56C37.8 22.44 36.84 26.16 35.94 28.58H25.98V30.96H44.08V28.58H38.46Z" fill="white"/>
<path d="M58.56 16.24V17.9H55.28V16.24H58.56ZM55.28 21.62V19.98H58.56V21.62H55.28ZM56.56 25.14C56.94 25.7 57.32 26.32 57.68 26.94L55.28 27.54V23.82H60.76V14.04H53V28.06C52.52 28.18 52.06 28.28 51.66 28.36L52.34 30.8C54.16 30.3 56.5 29.66 58.76 29.02C59.06 29.66 59.3 30.26 59.44 30.78L61.54 29.72C61.04 28.18 59.72 25.92 58.48 24.24L56.56 25.14ZM69.6 14H61.88V31.72H64.3V16.4H67.14V26C67.14 26.26 67.06 26.36 66.8 26.36C66.52 26.36 65.7 26.38 64.92 26.32C65.28 26.98 65.66 28.2 65.74 28.92C67.02 28.92 67.96 28.86 68.7 28.42C69.42 27.98 69.6 27.2 69.6 26.08V14Z" fill="white"/>
<path d="M84 21.66L82.48 22.06V19.02H84.02V16.84H82.48V13.08H80.2V16.84H77.88V19.02H80.2V22.62C79.18 22.86 78.24 23.08 77.48 23.24L77.98 25.54L80.2 24.94V29.04C80.2 29.34 80.1 29.42 79.86 29.42C79.6 29.44 78.78 29.44 78 29.4C78.3 30.06 78.6 31.08 78.66 31.72C80.04 31.72 80.98 31.64 81.64 31.24C82.28 30.88 82.48 30.24 82.48 29.06V24.3C83.08 24.12 83.68 23.96 84.26 23.78L84 21.66ZM87.76 26.6H90.08V28.58H87.76V26.6ZM90.08 20.66H87.76V18.8H90.08V20.66ZM90.08 24.6H87.76V22.66H90.08V24.6ZM96.28 28.58H92.28V26.6H95.4V24.6H92.28V22.66H95.4V20.66H92.28V18.8H95.92V16.7H92.52C92.98 15.74 93.44 14.66 93.88 13.62L91.36 13.1C91.08 14.18 90.62 15.54 90.16 16.7H87.96C88.4 15.68 88.78 14.64 89.08 13.58L86.8 13.04C86.06 15.76 84.74 18.44 83.1 20.1C83.56 20.6 84.3 21.68 84.6 22.2C84.9 21.88 85.2 21.52 85.48 21.14V31.72H87.76V30.74H96.28V28.58Z" fill="white"/>
<path d="M107.6 31.78C108.56 31.04 109.18 29.92 109.62 28.86L107.88 28.14C107.52 29.08 106.82 30.12 105.96 30.72L107.6 31.78ZM110.14 28.64C110.34 29.54 110.48 30.76 110.44 31.54L112.3 31.26C112.28 30.5 112.12 29.3 111.9 28.4L110.14 28.64ZM112.68 28.64C113.06 29.44 113.44 30.52 113.56 31.22L115.3 30.68C115.14 29.98 114.74 28.92 114.32 28.16L112.68 28.64ZM107.38 21.8V21.14H109.74V22.1H107.38V21.8ZM109.74 19V19.82H107.38V19H109.74ZM114.06 19.82H111.74V19H114.06V19.82ZM118.58 21.14V22.1H116.08V21.14H118.58ZM111.74 22.1V21.14H114.06V22.1H111.74ZM110.98 23.4H120.9V19.82H116.08V19H121.72V17.4H114.02V16.44H111.8V17.4H105.16V21.8C105.16 24.32 105.02 27.9 103.44 30.4C103.98 30.62 104.96 31.2 105.38 31.56C106.78 29.32 107.24 26.08 107.34 23.4H108.76C108.46 24.94 108.02 26.76 107.62 27.96L109.78 28.16L109.86 27.86H116.4L115.2 28.36C115.64 28.92 116.14 29.7 116.36 30.22L117.94 29.48C117.72 29.02 117.26 28.36 116.8 27.86H119.26C119.14 29.12 118.98 29.68 118.8 29.88C118.66 30.02 118.52 30.04 118.26 30.04C118 30.04 117.5 30.04 116.9 29.98C117.18 30.46 117.36 31.18 117.4 31.7C118.2 31.74 118.96 31.72 119.38 31.66C119.88 31.62 120.28 31.48 120.64 31.1C121.08 30.64 121.32 29.5 121.5 27.04C121.54 26.8 121.56 26.32 121.56 26.32H110.28L110.46 25.62H121.8V24.12H110.82L110.98 23.4ZM117.74 14.1V13.06H115.36V14.1H110.7V13.06H108.34V14.1H104.16V15.98H108.34V17.02H110.7V15.98H115.36V17.02H117.74V15.98H121.88V14.1H117.74Z" fill="white"/>
<path fill-rule="evenodd" clip-rule="evenodd" d="M43.5 13.4049C45.2424 13.4049 46.6548 14.8174 46.6548 16.5598V18.8998C46.6548 20.5681 45.3599 21.9339 43.7203 22.047C43.4361 23.1694 43.1242 24.3148 42.7996 25.4249H44.08C45.8224 25.4249 47.2348 26.8374 47.2348 28.5798V30.9598C47.2348 32.7021 45.8224 34.1146 44.08 34.1146H25.98C24.2376 34.1146 22.8252 32.7021 22.8252 30.9598V28.5798C22.8252 26.8374 24.2376 25.4249 25.98 25.4249H27.3457C27.1185 24.3169 26.8139 23.131 26.4649 22.0509C24.7946 21.97 23.4652 20.5901 23.4652 18.8998V16.5598C23.4652 14.8174 24.8776 13.4049 26.62 13.4049H30.5652V13.0798C30.5652 11.3374 31.9776 9.92492 33.72 9.92492H36.2C37.9424 9.92492 39.3548 11.3374 39.3548 13.0798V13.4049H43.5ZM36.2 13.0798H33.72V16.5598H26.62V18.8998H43.5V16.5598H36.2V13.0798ZM25.98 28.5798V30.9598H44.08V28.5798H38.46C38.5514 28.3312 38.6436 28.0724 38.7364 27.8049C38.9921 27.0678 39.2518 26.2644 39.5074 25.4249C39.7344 24.6791 39.9583 23.9048 40.1732 23.1231C40.271 22.7678 40.3668 22.411 40.4604 22.0546C40.6364 21.3836 40.8042 20.7142 40.96 20.0598L38.22 19.5598C38.2125 19.6111 38.2049 19.6627 38.197 19.7146C38.0854 20.4545 37.9395 21.2462 37.7692 22.0546C37.7587 22.1047 37.748 22.1548 37.7373 22.205C37.3875 23.8411 36.9409 25.5361 36.4787 27.0005C36.4762 27.0085 36.4737 27.0164 36.4712 27.0244C36.3913 27.2771 36.3109 27.523 36.2304 27.7603C36.2254 27.7752 36.2203 27.7901 36.2153 27.8049C36.1233 28.0751 36.0314 28.3341 35.94 28.5798H25.98ZM31.4885 19.7146C31.479 19.6896 31.4695 19.6646 31.46 19.6398L29.18 20.2398C29.2084 20.3186 29.2367 20.3982 29.2647 20.4786C29.4399 20.9806 29.6073 21.5111 29.7637 22.0546C29.8782 22.4524 29.9868 22.8573 30.0883 23.263C30.2187 23.7842 30.3374 24.307 30.4418 24.8184C30.4835 25.0226 30.5229 25.2251 30.5598 25.4249C30.7009 26.1878 30.8064 26.9124 30.8669 27.5531C30.875 27.6385 30.8823 27.7225 30.8887 27.8049C30.8928 27.8572 30.8966 27.9088 30.9 27.9598L33.34 27.3198C33.3206 27.1139 33.2961 26.8988 33.2668 26.676C33.2148 26.2806 33.1478 25.8608 33.0675 25.4249C32.8708 24.3577 32.5944 23.1937 32.2637 22.0546C32.0295 21.2477 31.7681 20.4533 31.4885 19.7146ZM61.88 31.7198H64.3V16.3998H67.14V25.9998C67.14 26.0283 67.139 26.055 67.137 26.0798C67.1202 26.2805 67.0314 26.3598 66.8 26.3598C66.755 26.3598 66.696 26.3603 66.6254 26.3609C66.5825 26.3613 66.5353 26.3617 66.4844 26.362C66.4692 26.3621 66.4538 26.3622 66.438 26.3623C66.2442 26.3635 66.0027 26.3635 65.74 26.3579C65.515 26.3531 65.2744 26.344 65.0348 26.328C64.9965 26.3254 64.9582 26.3227 64.92 26.3198C64.9582 26.3898 64.9966 26.4661 65.0348 26.5474C65.3572 27.2329 65.6685 28.2761 65.74 28.9198C66.1224 28.9198 66.4745 28.9144 66.8 28.8952C67.0313 28.8815 67.2491 28.8608 67.4548 28.83C67.7313 28.7887 67.9858 28.7291 68.2218 28.644C68.3903 28.5832 68.5493 28.5094 68.7 28.4198C68.7503 28.389 68.7979 28.3567 68.843 28.3226C69.4443 27.8692 69.6 27.1216 69.6 26.0798V13.9998H61.88V31.7198ZM61.2085 10.9165C61.062 10.8957 60.9122 10.8849 60.76 10.8849H53C51.2576 10.8849 49.8452 12.2974 49.8452 14.0398V25.7792C49.4974 26.0237 49.199 26.3386 48.9718 26.7086C48.5125 27.4563 48.3854 28.3615 48.621 29.2067L49.301 31.6467C49.7675 33.3207 51.5 34.3023 53.1758 33.8419C53.379 33.786 53.589 33.7284 53.8049 33.6691C54.7786 33.4018 55.8722 33.1015 57.0061 32.787C57.3122 33.1582 57.7029 33.4591 58.1531 33.6602C58.6217 33.8696 59.1278 33.9588 59.6278 33.929C60.2004 34.5126 60.9979 34.8746 61.88 34.8746H64.3C65.9443 34.8746 67.2948 33.6167 67.4416 32.0107C68.3576 31.9179 69.3727 31.6902 70.3124 31.1315L70.3451 31.1117C72.6153 29.7244 72.7548 27.3097 72.7548 26.0798V13.9998C72.7548 12.2574 71.3424 10.8449 69.6 10.8449H61.88C61.6495 10.8449 61.4249 10.8696 61.2085 10.9165ZM53 14.0398V28.0598C52.7261 28.1282 52.4586 28.1902 52.2051 28.2457C52.0179 28.2866 51.8382 28.3241 51.6692 28.3579C51.6661 28.3585 51.6631 28.3591 51.66 28.3598L52.34 30.7998C52.3399 30.7998 52.3401 30.7997 52.34 30.7998C52.5437 30.7438 52.7542 30.686 52.9701 30.6267C53.1747 30.5705 53.3845 30.513 53.5986 30.4541C53.6958 30.4274 53.7939 30.4005 53.8928 30.3733C54.4247 30.2271 54.9808 30.074 55.5506 29.9165C55.6511 29.8887 55.752 29.8608 55.8533 29.8328C56.5273 29.6461 57.2177 29.4539 57.9076 29.2601C58.0174 29.2293 58.1272 29.1984 58.2369 29.1675C58.3506 29.1355 58.4642 29.1034 58.5777 29.0713C58.6269 29.0574 58.676 29.0435 58.7252 29.0296C58.7368 29.0263 58.7484 29.023 58.76 29.0198C58.8795 29.2748 58.9896 29.5235 59.0875 29.7633C59.1828 29.9964 59.2666 30.2211 59.3367 30.4351C59.3755 30.5534 59.41 30.6684 59.44 30.7798L61.54 29.7198C61.4392 29.4094 61.3052 29.0698 61.1452 28.7116C61.0492 28.4967 60.9438 28.2751 60.8308 28.0491C60.7918 27.9713 60.752 27.893 60.7113 27.8142C60.5686 27.5382 60.4156 27.257 60.2548 26.9746C60.0695 26.6492 59.8741 26.3222 59.6727 25.9997C59.6396 25.9466 59.6062 25.8936 59.5727 25.8407C59.338 25.4702 59.0964 25.1072 58.8543 24.761C58.8113 24.6995 58.7682 24.6384 58.7252 24.578C58.67 24.5006 58.615 24.4242 58.56 24.3488C58.5333 24.3122 58.5066 24.2758 58.48 24.2398L56.56 25.1398C56.6369 25.2531 56.7138 25.3689 56.7906 25.4867C56.9363 25.7102 57.0813 25.9408 57.2246 26.175C57.3789 26.4271 57.5312 26.6834 57.68 26.9398L55.28 27.5398V23.8198H60.76V14.0398H53ZM55.28 16.2398V17.8998H58.56V16.2398H55.28ZM58.56 19.9798H55.28V21.6198H58.56V19.9798ZM87.76 22.6598V24.5998H90.08V22.6598H87.76ZM90.08 20.6598V18.7998H87.76V20.6598H90.08ZM84.939 17.6092C85.0819 17.3594 85.2198 17.1025 85.3526 16.8398C85.3828 16.7798 85.4128 16.7196 85.4426 16.659C85.508 16.5258 85.5721 16.3912 85.6348 16.2553C85.7062 16.1007 85.7758 15.9444 85.8436 15.7868C86.0034 15.4149 86.153 15.0351 86.2916 14.6505C86.4827 14.1203 86.6528 13.5808 86.8 13.0398L89.08 13.5798C89.073 13.6046 89.0659 13.6294 89.0588 13.6543C88.8662 14.3259 88.6416 14.9894 88.3901 15.6449C88.3509 15.747 88.3111 15.8489 88.2707 15.9505C88.1882 16.1578 88.1032 16.3642 88.0157 16.5698C87.9972 16.6132 87.9787 16.6565 87.96 16.6998H90.16C90.2062 16.5833 90.2524 16.4648 90.2984 16.3448C90.374 16.1475 90.4491 15.9462 90.5229 15.7428C90.5306 15.7216 90.5383 15.7004 90.546 15.6791C90.7312 15.1659 90.9076 14.6417 91.0623 14.1408C91.1746 13.7771 91.2755 13.4257 91.36 13.0998L93.88 13.6198C93.8631 13.6598 93.8461 13.6998 93.8291 13.7399C93.5605 14.3744 93.2848 15.0214 93.0064 15.6449C92.8649 15.9619 92.7227 16.2728 92.5805 16.5729C92.5603 16.6154 92.5402 16.6577 92.52 16.6998H95.92V18.7998H92.28V20.6598H95.4V22.6598H92.28V24.5998H95.4V26.5998H92.28V28.5798H96.28V30.7398H87.76V31.7198H85.48V21.1398C85.3864 21.2668 85.2906 21.3916 85.1932 21.5134C85.0949 21.6365 84.9951 21.7565 84.8945 21.8727C84.8838 21.885 84.8731 21.8973 84.8624 21.9096C84.818 21.9604 84.7735 22.0105 84.7289 22.0598C84.7157 22.0744 84.7024 22.089 84.6891 22.1035C84.6748 22.1192 84.6604 22.1348 84.6461 22.1503C84.6307 22.1669 84.6154 22.1834 84.6 22.1998C84.587 22.1771 84.5731 22.1535 84.5584 22.1288C84.5452 22.1066 84.5313 22.0835 84.5169 22.0598C84.44 21.9334 84.3465 21.7866 84.243 21.63C84.1726 21.5235 84.0976 21.4124 84.02 21.3C83.9833 21.2468 83.9459 21.1932 83.9082 21.1398C83.8845 21.106 83.8606 21.0723 83.8366 21.0387C83.6743 20.8116 83.5081 20.5893 83.3548 20.3988C83.2642 20.2861 83.1781 20.1846 83.1 20.0998C83.1342 20.0651 83.1683 20.0301 83.2022 19.9946C83.2534 19.941 83.3043 19.8864 83.3548 19.8309C83.3973 19.7843 83.4394 19.737 83.4814 19.6891C83.4853 19.6846 83.4892 19.6802 83.4931 19.6757C83.6732 19.4691 83.849 19.2503 84.02 19.0209C84.0203 19.0205 84.0206 19.0201 84.0208 19.0198C84.1396 18.8604 84.256 18.6959 84.37 18.5267C84.4645 18.3864 84.5573 18.2429 84.6484 18.0965C84.668 18.0649 84.6876 18.0332 84.7071 18.0014C84.7857 17.8728 84.8631 17.742 84.939 17.6092ZM89.6229 10.4662L87.5271 9.96985C86.4495 9.71463 85.3666 10.0455 84.6184 10.7602C84.0563 10.2417 83.3051 9.92492 82.48 9.92492H80.2C78.4576 9.92492 77.0452 11.3374 77.0452 13.0798V13.7966C75.7079 14.1626 74.7252 15.3864 74.7252 16.8398V19.0198C74.7252 19.7285 74.9589 20.3827 75.3534 20.9094C75.1556 21.0899 74.9799 21.2964 74.8318 21.5251C74.3751 22.2304 74.2187 23.0888 74.3972 23.9099L74.8972 26.2099C74.999 26.6785 75.2051 27.1125 75.4944 27.4827C75.4592 27.5288 75.425 27.576 75.3921 27.6244C74.7723 28.5348 74.6722 29.7026 75.1279 30.7052C75.2 30.8638 75.3001 31.133 75.3879 31.4388C75.4298 31.5846 75.4631 31.7183 75.4866 31.83C75.4982 31.8851 75.5064 31.9299 75.5118 31.9639C75.5175 31.9988 75.519 32.015 75.5189 32.0142C75.6709 33.6354 77.0317 34.8746 78.66 34.8746C79.9032 34.8746 81.7151 34.8625 83.232 33.9637C83.2384 33.96 83.2448 33.9562 83.2512 33.9525C83.8219 34.5223 84.6098 34.8746 85.48 34.8746H87.76C88.6593 34.8746 89.4707 34.4983 90.0454 33.8946H96.28C98.0224 33.8946 99.4348 32.4821 99.4348 30.7398V28.5798C99.4348 27.7312 99.0998 26.9609 98.5548 26.3939V24.5998C98.5548 24.2613 98.5015 23.9354 98.4029 23.6298C98.5015 23.3242 98.5548 22.9982 98.5548 22.6598V20.6598C98.5548 20.6193 98.5541 20.579 98.5526 20.5389C98.8826 20.0403 99.0748 19.4425 99.0748 18.7998V16.6998C99.0748 15.3489 98.2258 14.1963 97.0323 13.7466C97.0543 13.1995 96.9338 12.6494 96.6732 12.153C96.2339 11.3165 95.4429 10.721 94.5176 10.53L91.9976 10.01C91.1454 9.83417 90.2993 10.0202 89.6229 10.4662ZM83.2355 24.0803C83.2457 24.0774 83.2558 24.0745 83.2659 24.0716C83.6012 23.9759 83.9338 23.881 84.26 23.7798L84 21.6598L82.48 22.0598V19.0203L84.0208 19.0198L84.02 16.8398H82.4805L82.48 13.0798H80.2V16.8392L77.88 16.8398V19.0198H80.1995L80.2 22.6198C80.0465 22.6559 79.8948 22.6915 79.7453 22.7266C79.7001 22.7372 79.6552 22.7477 79.6104 22.7582C79.5445 22.7737 79.4791 22.7889 79.4142 22.8041C78.962 22.9097 78.5329 23.0086 78.137 23.0969C77.906 23.1484 77.6864 23.1963 77.48 23.2398L77.98 25.5398L80.2 24.9398V29.0398C80.2 29.0465 80.2 29.0532 80.1999 29.0598C80.1954 29.3433 80.0946 29.4198 79.86 29.4198C79.756 29.4278 79.5624 29.4326 79.3176 29.4329C79.3154 29.4329 79.3131 29.4329 79.3109 29.4329C79.1189 29.4331 78.8958 29.4305 78.66 29.4246C78.4459 29.4192 78.2214 29.4111 78 29.3998C78.3 30.0598 78.6 31.0798 78.66 31.7198C79.1037 31.7198 79.5019 31.7115 79.86 31.687C79.9189 31.6829 79.9767 31.6785 80.0334 31.6735C80.4191 31.6399 80.7557 31.5843 81.0506 31.4956C81.2689 31.43 81.4644 31.3462 81.64 31.2398C81.6857 31.2141 81.7291 31.187 81.7703 31.1583C82.0378 30.9728 82.2148 30.7235 82.3252 30.3847C82.4365 30.0429 82.48 29.6101 82.48 29.0598V24.2998C82.6377 24.2524 82.7954 24.2065 82.9527 24.1612C82.9776 24.1541 83.0025 24.1469 83.0274 24.1398C83.0969 24.1199 83.1663 24.1001 83.2355 24.0803ZM77.0452 28.9898C77.0447 29.015 77.045 29.0313 77.0451 29.0373C77.0452 29.0386 77.0452 29.0394 77.0452 29.0398V28.9898ZM87.76 26.5998V28.5798H90.08V26.5998H87.76ZM105.96 30.7198C105.98 30.7061 105.999 30.6921 106.019 30.678C106.16 30.5755 106.296 30.4613 106.427 30.3378C106.439 30.3267 106.451 30.3155 106.463 30.3043C106.697 30.0794 106.914 29.8253 107.108 29.5562C107.126 29.5312 107.144 29.5061 107.162 29.4808C107.211 29.4114 107.258 29.3411 107.303 29.2701C107.334 29.2234 107.363 29.1764 107.392 29.1292C107.423 29.077 107.454 29.0246 107.484 28.972C107.501 28.9418 107.518 28.9117 107.535 28.8815C107.62 28.726 107.697 28.5695 107.766 28.4142C107.784 28.3738 107.802 28.3334 107.819 28.2932C107.833 28.2591 107.847 28.2252 107.86 28.1913C107.867 28.1741 107.873 28.157 107.88 28.1399C107.88 28.1398 107.88 28.1399 107.88 28.1399L109.619 28.8593L109.62 28.8598C109.62 28.8607 109.619 28.8617 109.619 28.8627C109.604 28.8978 109.589 28.933 109.574 28.9682C109.566 28.988 109.558 29.0077 109.549 29.0274C109.503 29.1349 109.454 29.2428 109.404 29.3506C109.287 29.6007 109.159 29.8503 109.018 30.094C108.794 30.4805 108.536 30.8517 108.237 31.1852C108.166 31.2642 108.092 31.341 108.017 31.4155C107.97 31.4617 107.922 31.5069 107.873 31.5512C107.785 31.6308 107.694 31.7071 107.6 31.7798L105.96 30.7198ZM106.199 34.6065C106.087 34.6366 105.973 34.6606 105.857 34.6783C104.949 34.8173 104.025 34.5532 103.327 33.9551C103.331 33.9584 103.332 33.9598 103.331 33.9591C103.328 33.9567 103.288 33.9254 103.201 33.8659C103.102 33.7983 102.977 33.7191 102.84 33.6374C102.703 33.556 102.569 33.4812 102.453 33.4205C102.395 33.3905 102.347 33.3665 102.309 33.3484C102.295 33.3416 102.283 33.3361 102.273 33.3318C102.27 33.3304 102.267 33.3291 102.265 33.328C102.255 33.3237 102.25 33.3217 102.25 33.3214C101.385 32.9691 100.721 32.2518 100.436 31.3626C100.151 30.4734 100.274 29.5036 100.773 28.7143C101.799 27.0912 102.005 24.4201 102.005 21.7998V18.284C101.39 17.7083 101.005 16.889 101.005 15.9798V14.0998C101.005 12.3574 102.418 10.9449 104.16 10.9449H105.999C106.576 10.3062 107.411 9.90492 108.34 9.90492H110.7C111.623 9.90492 112.453 10.3011 113.03 10.9327C113.607 10.3011 114.437 9.90492 115.36 9.90492H117.74C118.669 9.90492 119.504 10.3062 120.081 10.9449H121.88C123.622 10.9449 125.035 12.3574 125.035 14.0998V15.9798C125.035 16.3499 124.971 16.7051 124.854 17.0351C124.868 17.1548 124.875 17.2764 124.875 17.3998V18.9998C124.875 19.8167 124.564 20.5612 124.055 21.1215V21.9132C124.612 22.4821 124.955 23.2609 124.955 24.1198V25.6198C124.955 26.0739 124.859 26.5056 124.686 26.8957C124.677 27.021 124.662 27.1981 124.638 27.3795C124.547 28.5944 124.432 29.6313 124.254 30.4727C124.092 31.2365 123.781 32.3754 122.927 33.2726C121.927 34.3268 120.757 34.6977 119.729 34.796C119.029 34.8849 118.09 34.893 117.242 34.8507C116.47 34.8121 115.771 34.497 115.242 34.001L114.495 34.2328C114.015 34.3818 113.513 34.4123 113.028 34.3295C112.944 34.3496 112.857 34.3663 112.77 34.3794L110.91 34.6594C110.345 34.7445 109.775 34.6737 109.257 34.4644C108.331 35.0366 107.173 35.0897 106.199 34.6065ZM120.9 19.8198H116.08V18.9998H121.72V17.3998H114.02V16.4398H111.8V17.3998H105.16V21.7998C105.16 21.8856 105.16 21.9726 105.159 22.0608C105.159 22.0738 105.159 22.0867 105.159 22.0998C105.157 22.4864 105.151 22.8947 105.137 23.3175C105.126 23.6277 105.111 23.9456 105.089 24.2687C105.05 24.8553 104.99 25.4587 104.899 26.062C104.852 26.3745 104.797 26.687 104.732 26.9972C104.696 27.1726 104.656 27.3472 104.613 27.5207C104.6 27.5733 104.587 27.6258 104.573 27.6782C104.539 27.8063 104.504 27.9336 104.467 28.06C104.431 28.1804 104.394 28.3001 104.355 28.4188C104.127 29.1078 103.836 29.7651 103.464 30.3621C103.456 30.3746 103.448 30.3872 103.44 30.3998C103.532 30.4373 103.637 30.4853 103.75 30.5409C104.298 30.8113 105.032 31.2612 105.38 31.5598C105.566 31.2624 105.735 30.9474 105.889 30.6184C105.892 30.613 105.894 30.6077 105.897 30.6024C105.997 30.3863 106.092 30.1642 106.18 29.9372C106.351 29.4963 106.499 29.0366 106.626 28.5658C106.7 28.2927 106.767 28.0159 106.828 27.7368C106.83 27.7257 106.833 27.7147 106.835 27.7037C106.835 27.7019 106.836 27.7002 106.836 27.6984C106.858 27.5964 106.879 27.4941 106.899 27.3916C106.92 27.2899 106.939 27.1879 106.958 27.0858C107 26.8507 107.039 26.6148 107.074 26.379C107.13 26.0014 107.176 25.624 107.214 25.2503C107.221 25.1841 107.227 25.1179 107.233 25.0519C107.286 24.4872 107.32 23.9324 107.34 23.3998H108.76C108.757 23.4173 108.753 23.4348 108.75 23.4524C108.737 23.5181 108.724 23.5843 108.71 23.6509C108.668 23.862 108.623 24.0773 108.577 24.2946C108.536 24.4848 108.493 24.6765 108.45 24.8683C108.438 24.9223 108.425 24.9763 108.413 25.0303C108.411 25.0401 108.408 25.0499 108.406 25.0597C108.404 25.0698 108.402 25.0798 108.399 25.0898C108.387 25.1448 108.374 25.1997 108.361 25.2546C108.318 25.4353 108.275 25.6151 108.231 25.7929C108.223 25.8247 108.215 25.8565 108.207 25.8882C108.18 25.9971 108.153 26.1052 108.125 26.2121C108.095 26.3277 108.065 26.442 108.035 26.5546C108.02 26.6127 108.004 26.6704 107.988 26.7275C107.933 26.9309 107.877 27.1279 107.821 27.3161C107.791 27.4179 107.761 27.5171 107.731 27.6134C107.694 27.7337 107.657 27.8493 107.62 27.9598L109.78 28.1598L109.86 27.8598H116.4L115.2 28.3598C115.301 28.4884 115.405 28.6286 115.509 28.7746C115.547 28.8295 115.586 28.8852 115.624 28.9414C115.744 29.1173 115.861 29.2982 115.967 29.4746C116.069 29.6439 116.162 29.809 116.239 29.9617C116.285 30.0528 116.326 30.1394 116.36 30.2198L117.94 29.4798C117.94 29.48 117.94 29.4797 117.94 29.4798C117.939 29.4783 117.938 29.4762 117.938 29.4746C117.925 29.4493 117.913 29.4234 117.899 29.397C117.808 29.2189 117.685 29.0164 117.545 28.8077C117.537 28.7967 117.53 28.7856 117.522 28.7746C117.495 28.7348 117.467 28.6948 117.439 28.6547C117.326 28.4959 117.205 28.3361 117.08 28.1829C117.04 28.134 116.999 28.0857 116.959 28.0383C116.906 27.9771 116.853 27.9173 116.8 27.8598H119.26C119.231 28.1654 119.199 28.4299 119.166 28.658C119.162 28.6861 119.158 28.7136 119.153 28.7406C119.152 28.7504 119.15 28.7602 119.149 28.7699C119.149 28.7715 119.148 28.773 119.148 28.7746C119.14 28.8225 119.133 28.8686 119.125 28.913C119.116 28.9649 119.107 29.0144 119.097 29.0617C119.08 29.1501 119.062 29.2307 119.043 29.3041C119.028 29.3659 119.012 29.4227 118.996 29.4746C118.992 29.4884 118.988 29.502 118.983 29.5151C118.982 29.519 118.981 29.5229 118.98 29.5267C118.923 29.6973 118.863 29.8103 118.8 29.8798C118.685 29.9947 118.57 30.0288 118.389 30.0373C118.349 30.0391 118.307 30.0398 118.26 30.0398C118.242 30.0398 118.223 30.0398 118.202 30.0397C118.171 30.0397 118.138 30.0396 118.101 30.0394C117.939 30.0385 117.729 30.0353 117.484 30.0231C117.424 30.0201 117.361 30.0166 117.297 30.0124C117.178 30.0047 117.052 29.9947 116.922 29.9819C116.915 29.9812 116.907 29.9805 116.9 29.9798C116.902 29.9828 116.904 29.9859 116.905 29.989C116.957 30.0787 117.005 30.1766 117.05 30.2798C117.136 30.479 117.208 30.6982 117.265 30.9172C117.273 30.9497 117.281 30.9822 117.289 31.0146C117.346 31.2561 117.384 31.4937 117.4 31.6998C117.697 31.7146 117.989 31.7212 118.26 31.7205C118.266 31.7205 118.272 31.7205 118.279 31.7205C118.536 31.7195 118.774 31.7119 118.979 31.6987C119.133 31.6888 119.269 31.6757 119.38 31.6598C119.644 31.6386 119.88 31.5897 120.097 31.4923C120.167 31.4608 120.235 31.4241 120.302 31.3817C120.334 31.3614 120.365 31.3398 120.397 31.3167C120.439 31.2853 120.481 31.2512 120.522 31.2144C120.562 31.1788 120.601 31.1407 120.64 31.0998C120.647 31.0928 120.653 31.0857 120.66 31.0785C120.906 30.8054 121.089 30.3099 121.233 29.4746C121.27 29.2636 121.304 29.0309 121.336 28.7746C121.363 28.5556 121.389 28.3195 121.414 28.0649C121.438 27.819 121.461 27.5559 121.482 27.2746C121.488 27.1977 121.494 27.1194 121.5 27.0398C121.525 26.8907 121.542 26.649 121.551 26.4873C121.557 26.3886 121.56 26.3198 121.56 26.3198H110.28L110.46 25.6198H121.8V24.1198H110.82L110.98 23.3998H120.9V19.8198ZM118.58 22.0998V21.1398H116.08V22.0998H118.58ZM114.06 22.0998V21.1398H111.74V22.0998H114.06ZM114.06 19.8198V18.9998H111.74V19.8198H114.06ZM109.74 19.8198V18.9998H107.38V19.8198H109.74ZM107.38 21.1398V22.0998H109.74V21.1398H107.38ZM115.3 30.6798C115.299 30.6763 115.298 30.6728 115.298 30.6692C115.225 30.3531 115.103 29.9648 114.954 29.5645C114.953 29.5629 114.953 29.5614 114.952 29.5598C114.942 29.5315 114.931 29.503 114.92 29.4746C114.834 29.2488 114.739 29.0205 114.639 28.8005C114.635 28.7918 114.631 28.7832 114.627 28.7746C114.529 28.5587 114.426 28.3512 114.321 28.1622C114.321 28.1614 114.32 28.1606 114.32 28.1598L112.68 28.6398C112.701 28.6839 112.722 28.7289 112.743 28.7746C112.754 28.7979 112.764 28.8214 112.775 28.8451C112.793 28.8858 112.811 28.9269 112.829 28.9686C112.831 28.9726 112.833 28.9766 112.835 28.9806C112.874 29.0711 112.913 29.1637 112.951 29.2576C112.98 29.3293 113.009 29.4017 113.037 29.4746C113.095 29.6249 113.151 29.777 113.204 29.9281C113.338 30.3139 113.45 30.6925 113.52 31.0146C113.525 31.0378 113.53 31.0607 113.534 31.0833C113.544 31.1302 113.552 31.1757 113.56 31.2198L115.3 30.6798ZM111.985 28.7746C111.983 28.7651 111.981 28.7556 111.979 28.7461C111.954 28.6285 111.928 28.514 111.901 28.404C111.901 28.4026 111.9 28.4012 111.9 28.3998L110.14 28.6398C110.152 28.696 110.165 28.7535 110.177 28.812C110.177 28.8149 110.178 28.8177 110.179 28.8206C110.193 28.891 110.207 28.9629 110.22 29.0361C110.225 29.0622 110.23 29.0885 110.235 29.115C110.251 29.2028 110.266 29.2921 110.28 29.3824C110.285 29.413 110.29 29.4438 110.294 29.4746C110.308 29.5671 110.322 29.6604 110.334 29.754C110.355 29.9132 110.374 30.0733 110.39 30.2313C110.409 30.4232 110.424 30.6122 110.434 30.7933C110.438 30.8685 110.441 30.9424 110.443 31.0146C110.445 31.0932 110.447 31.1697 110.447 31.2438C110.447 31.2656 110.447 31.2872 110.447 31.3085C110.446 31.3891 110.444 31.4664 110.44 31.5398L112.3 31.2598C112.298 31.1823 112.294 31.1004 112.29 31.0146C112.284 30.9084 112.275 30.7963 112.265 30.68C112.251 30.517 112.233 30.3455 112.212 30.1696C112.202 30.0881 112.192 30.0056 112.181 29.9226C112.16 29.7742 112.138 29.6241 112.114 29.4746C112.109 29.4453 112.104 29.4161 112.099 29.3869C112.075 29.2404 112.049 29.095 112.021 28.9529C112.009 28.8928 111.997 28.8333 111.985 28.7746ZM110.7 17.0198V15.9798H115.36V17.0198H117.74V15.9798H121.88V14.0998H117.74V13.0598H115.36V14.0998H110.7V13.0598H108.34V14.0998H104.16V15.9798H108.34V17.0198H110.7Z" fill="#E83410"/>
</svg>
