<svg width="152" height="48" viewBox="0 0 152 48" fill="none" xmlns="http://www.w3.org/2000/svg">
<path d="M1.99997 24C1.99997 11.8497 11.8497 2 24 2H128C140.15 2 150 11.8497 150 24C150 36.1503 140.15 46 128 46H24C11.8497 46 1.99997 36.1503 1.99997 24Z" fill="#698FC8"/>
<path fill-rule="evenodd" clip-rule="evenodd" d="M-3.05176e-05 24C-3.05176e-05 10.7452 10.7451 0 24 0H128C141.255 0 152 10.7452 152 24C152 37.2548 141.255 48 128 48H24C10.7451 48 -3.05176e-05 37.2548 -3.05176e-05 24ZM24 4C12.9543 4 3.99997 12.9543 3.99997 24C3.99997 35.0457 12.9543 44 24 44H128C139.046 44 148 35.0457 148 24C148 12.9543 139.046 4 128 4H24Z" fill="#4974B5"/>
<path d="M46.272 16.992L45.072 18.144C46.288 19.008 47.216 19.808 47.872 20.56L49.056 19.36C48.288 18.576 47.36 17.792 46.272 16.992ZM45.888 20.736L44.704 21.888C45.84 22.768 46.72 23.584 47.344 24.32L48.528 23.136C47.808 22.336 46.928 21.536 45.888 20.736ZM47.488 25.264C46.752 27.152 45.904 29.008 44.928 30.8L46.608 31.536C47.488 29.776 48.288 27.888 48.992 25.888L47.488 25.264ZM49.424 19.376V21.008H53.408V24.256H49.872V25.856H53.408V29.504H49.04V31.136H59.328V29.504H55.088V25.856H58.56V24.256H55.088V21.008H58.992V19.376H55.104C54.864 18.592 54.512 17.728 54.064 16.768L52.512 17.216C52.864 17.904 53.184 18.624 53.456 19.376H49.424Z" fill="white"/>
<path d="M64.192 19.104L64.528 19.936H60.992V21.376H75.008V19.936H71.344L71.76 19.104H74.256V17.696H68.768C68.64 17.344 68.528 17.024 68.4 16.736L66.592 17.024C66.704 17.232 66.816 17.456 66.928 17.696H61.744V19.104H64.192ZM66.272 19.936L65.936 19.104H70.016L69.6 19.936H66.272ZM62.592 21.936V27.024H68.448L67.056 27.888C67.664 28.528 68.144 29.104 68.496 29.616L69.888 28.64C69.568 28.176 69.104 27.632 68.496 27.024H73.408V21.936H62.592ZM71.776 25.776H64.224V25.072H71.776V25.776ZM64.224 23.888V23.2H71.776V23.888H64.224ZM61.984 27.6C61.728 28.56 61.28 29.456 60.64 30.304L62.08 31.216C62.736 30.288 63.248 29.2 63.616 27.936L61.984 27.6ZM70.256 31.408C70.896 31.408 71.376 31.296 71.68 31.104C72.032 30.88 72.272 30.208 72.4 29.088L70.816 28.56C70.768 29.216 70.672 29.616 70.512 29.744C70.4 29.872 70.208 29.936 69.936 29.936H66.832C66.352 29.936 66.112 29.728 66.112 29.344V27.68H64.416V29.712C64.416 30.832 65.056 31.408 66.352 31.408H70.256ZM73.44 27.328L72.096 28.176C72.912 29.216 73.568 30.16 74.048 31.008L75.44 30.032C74.976 29.264 74.304 28.368 73.44 27.328Z" fill="white"/>
<path d="M78.432 19.728V23.088H83.168V23.824H78.112V25.104H83.168V25.904H76.656V27.232H83.168V28.016H78.096V29.328H83.168V29.664C83.168 29.984 82.976 30.144 82.608 30.144C82.048 30.144 81.456 30.096 80.848 30.032L81.2 31.6H83.168C84.272 31.6 84.832 31.088 84.832 30.064V29.328H89.776V27.232H91.344V25.904H89.776V23.824H84.832V23.088H89.568V19.728H84.832V19.008H90.912V17.6H84.832V16.816H83.168V17.6H77.088V19.008H83.168V19.728H78.432ZM87.904 21.872H84.832V20.96H87.904V21.872ZM83.168 21.872H80.096V20.96H83.168V21.872ZM84.832 25.104H88.192V25.904H84.832V25.104ZM88.192 27.232V28.016H84.832V27.232H88.192Z" fill="white"/>
<path d="M92.8 18.24V19.872H94.592V27.536C93.984 27.728 93.36 27.888 92.72 28.016L93.104 29.584C94.848 29.072 96.496 28.432 98.032 27.696V26.112C97.456 26.4 96.864 26.672 96.256 26.928V19.872H97.872V18.24H92.8ZM99.024 19.76V28.656H100.864C100.032 29.392 98.992 30.032 97.744 30.592L98.64 31.76C100.016 31.088 101.168 30.32 102.112 29.456L101.184 28.656H104.176L103.312 29.488C104.592 30.272 105.6 31.008 106.304 31.712L107.376 30.624C106.576 29.984 105.616 29.328 104.48 28.656H106.448V19.76H103.264C103.376 19.44 103.472 19.12 103.568 18.784H107.168V17.312H98.384V18.784H101.92C101.824 19.104 101.728 19.44 101.6 19.76H99.024ZM104.864 27.312H100.608V26.048H104.864V27.312ZM100.608 24.768V23.536H104.864V24.768H100.608ZM100.608 22.256V21.104H104.864V22.256H100.608Z" fill="white"/>
</svg>
