<svg width="152" height="48" viewBox="0 0 152 48" fill="none" xmlns="http://www.w3.org/2000/svg">
<path d="M2 24C2 11.8497 11.8497 2 24 2H128C140.15 2 150 11.8497 150 24C150 36.1503 140.15 46 128 46H24C11.8497 46 2 36.1503 2 24Z" fill="#CADFFF"/>
<path fill-rule="evenodd" clip-rule="evenodd" d="M0 24C0 10.7452 10.7452 0 24 0H128C141.255 0 152 10.7452 152 24C152 37.2548 141.255 48 128 48H24C10.7452 48 0 37.2548 0 24ZM24 4C12.9543 4 4 12.9543 4 24C4 35.0457 12.9543 44 24 44H128C139.046 44 148 35.0457 148 24C148 12.9543 139.046 4 128 4H24Z" fill="#5C99F5"/>
<path d="M46.272 16.9918L45.072 18.1438C46.288 19.0078 47.216 19.8078 47.872 20.5598L49.056 19.3598C48.288 18.5758 47.36 17.7918 46.272 16.9918ZM45.888 20.7358L44.704 21.8878C45.84 22.7678 46.72 23.5838 47.344 24.3198L48.528 23.1358C47.808 22.3358 46.928 21.5358 45.888 20.7358ZM47.488 25.2638C46.752 27.1518 45.904 29.0078 44.928 30.7998L46.608 31.5358C47.488 29.7758 48.288 27.8878 48.992 25.8878L47.488 25.2638ZM49.424 19.3758V21.0078H53.408V24.2558H49.872V25.8558H53.408V29.5038H49.04V31.1358H59.328V29.5038H55.088V25.8558H58.56V24.2558H55.088V21.0078H58.992V19.3758H55.104C54.864 18.5918 54.512 17.7278 54.064 16.7678L52.512 17.2158C52.864 17.9038 53.184 18.6238 53.456 19.3758H49.424Z" fill="#284273"/>
<path d="M64.192 19.1038L64.528 19.9358H60.992V21.3758H75.008V19.9358H71.344L71.76 19.1038H74.256V17.6958H68.768C68.64 17.3438 68.528 17.0238 68.4 16.7358L66.592 17.0238C66.704 17.2318 66.816 17.4558 66.928 17.6958H61.744V19.1038H64.192ZM66.272 19.9358L65.936 19.1038H70.016L69.6 19.9358H66.272ZM62.592 21.9358V27.0238H68.448L67.056 27.8878C67.664 28.5278 68.144 29.1038 68.496 29.6158L69.888 28.6398C69.568 28.1758 69.104 27.6318 68.496 27.0238H73.408V21.9358H62.592ZM71.776 25.7758H64.224V25.0718H71.776V25.7758ZM64.224 23.8878V23.1998H71.776V23.8878H64.224ZM61.984 27.5998C61.728 28.5598 61.28 29.4558 60.64 30.3038L62.08 31.2158C62.736 30.2878 63.248 29.1998 63.616 27.9358L61.984 27.5998ZM70.256 31.4078C70.896 31.4078 71.376 31.2958 71.68 31.1038C72.032 30.8798 72.272 30.2078 72.4 29.0878L70.816 28.5598C70.768 29.2158 70.672 29.6158 70.512 29.7438C70.4 29.8718 70.208 29.9358 69.936 29.9358H66.832C66.352 29.9358 66.112 29.7278 66.112 29.3438V27.6798H64.416V29.7118C64.416 30.8318 65.056 31.4078 66.352 31.4078H70.256ZM73.44 27.3278L72.096 28.1758C72.912 29.2158 73.568 30.1598 74.048 31.0078L75.44 30.0318C74.976 29.2638 74.304 28.3678 73.44 27.3278Z" fill="#284273"/>
<path d="M78.432 19.7278V23.0878H83.168V23.8238H78.112V25.1038H83.168V25.9038H76.656V27.2318H83.168V28.0158H78.096V29.3278H83.168V29.6638C83.168 29.9838 82.976 30.1438 82.608 30.1438C82.048 30.1438 81.456 30.0958 80.848 30.0318L81.2 31.5998H83.168C84.272 31.5998 84.832 31.0878 84.832 30.0638V29.3278H89.776V27.2318H91.344V25.9038H89.776V23.8238H84.832V23.0878H89.568V19.7278H84.832V19.0078H90.912V17.5998H84.832V16.8158H83.168V17.5998H77.088V19.0078H83.168V19.7278H78.432ZM87.904 21.8718H84.832V20.9598H87.904V21.8718ZM83.168 21.8718H80.096V20.9598H83.168V21.8718ZM84.832 25.1038H88.192V25.9038H84.832V25.1038ZM88.192 27.2318V28.0158H84.832V27.2318H88.192Z" fill="#284273"/>
<path d="M92.8 18.2398V19.8718H94.592V27.5358C93.984 27.7278 93.36 27.8878 92.72 28.0158L93.104 29.5838C94.848 29.0718 96.496 28.4318 98.032 27.6958V26.1118C97.456 26.3998 96.864 26.6718 96.256 26.9278V19.8718H97.872V18.2398H92.8ZM99.024 19.7598V28.6558H100.864C100.032 29.3918 98.992 30.0318 97.744 30.5918L98.64 31.7598C100.016 31.0878 101.168 30.3198 102.112 29.4558L101.184 28.6558H104.176L103.312 29.4878C104.592 30.2718 105.6 31.0078 106.304 31.7118L107.376 30.6238C106.576 29.9838 105.616 29.3278 104.48 28.6558H106.448V19.7598H103.264C103.376 19.4398 103.472 19.1198 103.568 18.7838H107.168V17.3118H98.384V18.7838H101.92C101.824 19.1038 101.728 19.4398 101.6 19.7598H99.024ZM104.864 27.3118H100.608V26.0478H104.864V27.3118ZM100.608 24.7678V23.5358H104.864V24.7678H100.608ZM100.608 22.2558V21.1038H104.864V22.2558H100.608Z" fill="#284273"/>
</svg>
