<svg width="286" height="48" viewBox="0 0 286 48" fill="none" xmlns="http://www.w3.org/2000/svg">
<rect x="2" y="2" width="282" height="44" rx="22" fill="#609EFF" stroke="#3D7FE3" stroke-width="4"/>
<path d="M58.512 18.112H52.672V30.96H54.304V30H56.896V30.96H58.512V18.112ZM54.304 28.384V19.744H56.896V28.384H54.304ZM47.264 16.752C47.12 17.712 46.96 18.64 46.784 19.552H44.784V21.184H46.432C46.064 22.768 45.648 24.24 45.184 25.6C46.144 26.288 47.04 26.944 47.84 27.568C47.04 28.576 46.048 29.456 44.864 30.208L45.984 31.6C47.232 30.752 48.272 29.744 49.12 28.592C49.856 29.2 50.48 29.76 51.008 30.272L52.16 28.88C51.6 28.368 50.896 27.792 50.032 27.168C51.056 25.28 51.632 23.056 51.744 20.48V19.552H48.496C48.656 18.736 48.8 17.856 48.96 16.912L47.264 16.752ZM48.736 26.224C48.224 25.856 47.664 25.472 47.056 25.088C47.44 24.032 47.808 22.736 48.16 21.184H50.176C50.032 23.072 49.552 24.752 48.736 26.224ZM65.408 17.712V19.328H72.56V29.424C72.56 29.872 72.352 30.096 71.968 30.096C71.184 30.096 70.352 30.048 69.472 29.984L69.84 31.616H72.544C73.68 31.616 74.256 31.024 74.256 29.856V19.328H75.36V17.712H65.408ZM65.632 21.248V27.536H71.056V21.248H65.632ZM69.44 26.032H67.248V22.752H69.44V26.032ZM63.856 16.72C63.12 19.184 61.984 21.312 60.448 23.12L61.008 24.912C61.472 24.4 61.904 23.872 62.32 23.344V31.696H63.968V20.784C64.544 19.728 65.008 18.608 65.36 17.424L63.856 16.72ZM81.68 24.128V25.76H85.12V29.504H81.104V31.136H91.168V29.504H86.816V25.76H90.48V24.128H86.816V21.376H85.12V24.128H81.68ZM78.88 25.728V31.712H80.528V23.888C81.36 22.832 82.08 21.696 82.688 20.48H91.168V18.848H83.424C83.664 18.208 83.888 17.568 84.08 16.896L82.352 16.688C82.128 17.424 81.872 18.144 81.568 18.848H77.04V20.48H80.768C79.696 22.368 78.256 24.064 76.464 25.552L77.536 26.944C78 26.544 78.448 26.144 78.88 25.728ZM96.368 18.576L92 30H94L95.04 27.136H99.824L100.864 30H102.864L98.496 18.576H96.368ZM95.6 25.6L97.408 20.592H97.472L99.264 25.6H95.6ZM103.979 18.576V30H105.851V25.616H108.683C111.467 25.616 112.859 24.432 112.859 22.08C112.859 19.744 111.467 18.576 108.715 18.576H103.979ZM105.851 20.176H108.571C109.387 20.176 109.995 20.32 110.379 20.624C110.763 20.912 110.971 21.392 110.971 22.08C110.971 22.768 110.779 23.264 110.395 23.568C110.011 23.856 109.403 24.016 108.571 24.016H105.851V20.176ZM114.464 18.576V30H116.336V25.616H119.168C121.952 25.616 123.344 24.432 123.344 22.08C123.344 19.744 121.952 18.576 119.2 18.576H114.464ZM116.336 20.176H119.056C119.872 20.176 120.48 20.32 120.864 20.624C121.248 20.912 121.456 21.392 121.456 22.08C121.456 22.768 121.264 23.264 120.88 23.568C120.496 23.856 119.888 24.016 119.056 24.016H116.336V20.176ZM130.212 16.864V29.488H124.66V31.12H139.044V29.488H131.94V23.232H137.86V21.616H131.94V16.864H130.212ZM142.916 22.768V28.896H152.804V22.768H148.676V21.088C150.516 21.68 152.324 22.368 154.1 23.136L155.188 21.92C153.236 21.2 151.076 20.544 148.676 19.936V19.664H154.5V18.128H148.676V16.832H147.044V18.128H141.22V19.664H145.62C144.42 20.528 142.692 21.248 140.42 21.856L141.332 23.328C143.892 22.384 145.796 21.2 147.044 19.792V22.768H142.916ZM151.172 27.424H144.548V26.56H151.172V27.424ZM144.548 25.152V24.24H151.172V25.152H144.548ZM140.9 29.728V31.248H154.772V29.728H140.9ZM157.684 19.632V21.04H161.924C161.764 21.264 161.604 21.504 161.444 21.728H156.82V23.2H160.244C159.188 24.32 157.908 25.376 156.404 26.4L157.3 27.84C158.068 27.296 158.804 26.736 159.508 26.144V31.696H161.092V31.104H167.892V31.696H169.476V23.872H161.764C161.94 23.664 162.116 23.44 162.308 23.2H170.964V21.728H163.3C163.428 21.504 163.556 21.264 163.684 21.04H170.036V19.632H164.34C164.436 19.376 164.532 19.12 164.628 18.848C166.66 18.688 168.436 18.448 169.972 18.128L169.204 16.816C166.084 17.408 162.276 17.712 157.78 17.712L158.228 19.072C159.924 19.072 161.524 19.024 163.012 18.96L162.708 19.632H157.684ZM161.092 27.136H167.892V27.792H161.092V27.136ZM167.892 25.888H161.092V25.216H167.892V25.888ZM161.092 29.04H167.892V29.76H161.092V29.04ZM182.132 22.576C181.924 23.136 181.684 23.6 181.428 23.984L182.5 24.368C182.788 23.936 183.044 23.44 183.252 22.864L182.132 22.576ZM177.476 22.56L176.372 22.896C176.676 23.376 176.932 23.856 177.14 24.368L178.228 24.08C178.004 23.504 177.764 23.008 177.476 22.56ZM174.036 21.456V25.664H185.62V21.44C185.86 21.568 186.116 21.68 186.404 21.808L187.3 20.416C184.724 19.392 182.404 18.208 180.324 16.864H179.332C177.252 18.208 174.932 19.392 172.356 20.416L173.252 21.824C173.508 21.696 173.78 21.584 174.036 21.456ZM185.284 21.28H174.404C175.156 20.928 175.892 20.56 176.596 20.192V20.72H183.044V20.16C183.748 20.528 184.484 20.896 185.284 21.28ZM184.1 24.448H180.58V22.528H184.1V24.448ZM179.076 24.448H175.556V22.528H179.076V24.448ZM185.012 26.224H174.66V31.712H176.244V31.216H183.428V31.696H185.012V26.224ZM176.244 29.92V29.216H183.428V29.92H176.244ZM176.244 28.096V27.456H183.428V28.096H176.244ZM181.844 19.504H177.828C178.532 19.088 179.204 18.688 179.828 18.272C180.436 18.672 181.108 19.088 181.844 19.504ZM191.044 17.328V20.752H200.628V17.328H191.044ZM199.028 19.52H192.644V18.576H199.028V19.52ZM190.26 21.408V28.864H193.028C191.844 29.472 190.452 30.032 188.82 30.528L189.796 31.776C191.748 31.12 193.38 30.368 194.692 29.504L193.94 28.864H197.7L197.028 29.488C198.996 30.304 200.5 31.072 201.556 31.792L202.724 30.64C201.636 30.048 200.34 29.456 198.82 28.864H201.444V21.408H190.26ZM199.844 27.456H191.86V26.672H199.844V27.456ZM191.86 25.424V24.688H199.844V25.424H191.86ZM191.86 23.44V22.72H199.844V23.44H191.86ZM206.228 23.984V25.424H214.436V26.56H204.788V28.016H214.436V29.68C214.436 30.032 214.212 30.208 213.78 30.208C213.14 30.208 212.468 30.16 211.748 30.096L212.116 31.664H214.34C215.508 31.664 216.1 31.136 216.1 30.08V28.016H218.868V26.56H216.1V25.424H217.492V23.984H212.66V22.848H218.148V21.408H212.66V20.56H210.996V21.408H205.524V22.848H210.996V23.984H206.228ZM208.58 28.176L207.236 29.024C208.036 29.824 208.66 30.544 209.124 31.216L210.436 30.304C209.988 29.696 209.38 28.976 208.58 28.176ZM207.284 19.28H207.476C207.876 19.856 208.228 20.448 208.532 21.072L210.036 20.512C209.812 20.128 209.54 19.712 209.22 19.28H211.604V17.888H207.892C207.988 17.632 208.068 17.376 208.164 17.088L206.58 16.736C206.196 17.984 205.556 19.184 204.628 20.304L206.052 21.216C206.5 20.64 206.916 19.984 207.284 19.28ZM213.748 19.232H214.436C214.836 19.808 215.188 20.416 215.508 21.056L216.964 20.496C216.756 20.096 216.484 19.68 216.164 19.232H218.596V17.84H214.324C214.42 17.584 214.5 17.328 214.58 17.056L213.012 16.72C212.724 17.792 212.244 18.8 211.572 19.76L212.932 20.592C213.22 20.176 213.492 19.712 213.748 19.232ZM221.108 27.504C221.028 28.784 220.82 29.904 220.5 30.896L221.924 31.344C222.212 30.288 222.388 29.056 222.468 27.68L221.108 27.504ZM224.132 27.264L222.884 27.52C223.044 28.48 223.172 29.568 223.284 30.816L224.692 30.48C224.532 29.328 224.34 28.256 224.132 27.264ZM225.844 23.104L224.58 23.52C224.708 23.92 224.852 24.336 224.98 24.768C224.292 24.944 223.62 25.088 222.948 25.216C223.924 24.112 225.14 22.336 226.612 19.904L225.156 19.36C224.772 20.032 224.404 20.64 224.068 21.216C223.508 21.312 222.948 21.408 222.404 21.472C223.156 20.432 223.892 19.12 224.612 17.552L223.044 16.96C222.5 18.432 221.876 19.792 221.156 21.04C220.964 21.312 220.74 21.504 220.5 21.616L220.884 23.04C221.652 22.912 222.404 22.8 223.14 22.688C222.404 23.808 221.78 24.592 221.284 25.04C221.092 25.2 220.868 25.344 220.596 25.472L220.996 26.88C222.356 26.72 223.796 26.416 225.3 25.968L225.444 26.608L226.772 26.272C226.484 25.088 226.18 24.032 225.844 23.104ZM225.78 26.832L224.628 27.232C224.884 27.872 225.14 28.608 225.364 29.456L226.356 29.024C226.132 29.552 225.892 30.032 225.636 30.48L226.82 31.52C227.828 29.952 228.516 27.792 228.868 25.024C229.38 26.112 229.988 27.152 230.708 28.128C229.892 29.008 228.884 29.776 227.668 30.448L228.724 31.744C229.892 31.104 230.9 30.32 231.764 29.408C232.468 30.192 233.284 30.928 234.18 31.616L235.3 30.288C234.356 29.664 233.508 28.96 232.756 28.176C233.684 26.832 234.308 25.232 234.66 23.408V21.92H232.9C233.22 20.896 233.492 19.664 233.716 18.224V17.376H226.452V18.88H227.636V20.24C227.604 23.744 227.22 26.544 226.484 28.656C226.276 28.016 226.036 27.408 225.78 26.832ZM229.7 23.44H233.076C232.82 24.72 232.34 25.872 231.668 26.912C230.868 25.872 230.212 24.72 229.7 23.44ZM229.124 21.92C229.156 21.376 229.172 20.816 229.172 20.24V18.88H232.036C231.828 20.032 231.588 21.04 231.316 21.92H229.124ZM244.116 18.352C242.932 18.352 242.004 18.688 241.316 19.36C240.612 20.032 240.276 20.96 240.276 22.144H242.1C242.1 21.456 242.228 20.928 242.5 20.56C242.82 20.128 243.316 19.92 244.004 19.92C244.548 19.92 244.98 20.064 245.284 20.368C245.572 20.672 245.732 21.088 245.732 21.616C245.732 22.016 245.588 22.4 245.3 22.752C245.172 22.896 244.852 23.2 244.34 23.664C243.812 24.128 243.444 24.576 243.236 25.008C243.012 25.44 242.916 25.968 242.916 26.576V26.8H244.756V26.576C244.756 26.192 244.836 25.84 244.996 25.52C245.14 25.232 245.348 24.96 245.636 24.736C246.404 24.064 246.868 23.632 247.012 23.472C247.396 22.96 247.604 22.304 247.604 21.504C247.604 20.528 247.284 19.76 246.644 19.2C246.004 18.624 245.156 18.352 244.116 18.352ZM243.828 27.584C243.476 27.584 243.188 27.696 242.964 27.92C242.708 28.144 242.596 28.432 242.596 28.784C242.596 29.136 242.708 29.424 242.964 29.648C243.188 29.872 243.476 30 243.828 30C244.18 30 244.468 29.888 244.724 29.664C244.948 29.44 245.076 29.136 245.076 28.784C245.076 28.432 244.948 28.144 244.724 27.92C244.484 27.696 244.18 27.584 243.828 27.584Z" fill="#E9F2FF"/>
</svg>
