<svg width="138" height="45" viewBox="0 0 138 45" fill="none" xmlns="http://www.w3.org/2000/svg">
<path d="M116.758 19.3677C116.758 19.3677 125.471 19.1952 126.564 13.2795C127.817 6.57041 122.825 2 122.825 2C122.825 2 134.36 4.74223 135.754 15.1077C136.865 23.2655 130.621 29.8884 122.508 32.0097C119.245 32.6134 115.082 31.9407 113.159 27.1288C111.466 22.8688 113.794 19.6781 116.758 19.3677Z" fill="white" stroke="#4C6E87" stroke-width="2.58823" stroke-miterlimit="10" stroke-linecap="round" stroke-linejoin="round"/>
<rect x="17.9999" y="7.99995" width="103" height="35" rx="17.5" fill="#EF442A" stroke="#4C6E87" stroke-width="2.58823" stroke-miterlimit="10" stroke-linecap="round" stroke-linejoin="round"/>
<path d="M52.7999 21.248H46.9599V18.464H44.9759V21.248H39.2959V23.12H52.7999V21.248ZM44.6719 29.856C44.5119 28.16 43.9199 25.68 43.1679 23.712L41.3439 24.192C42.0479 26.144 42.6079 28.704 42.7199 30.368L44.6719 29.856ZM48.7679 30.864C49.4559 28.992 50.2079 26.4 50.7679 24.048L48.5759 23.648C48.2399 25.952 47.4719 28.928 46.7519 30.864H38.7839V32.768H53.2639V30.864H48.7679ZM60.0479 20.992V22.32H57.4239V20.992H60.0479ZM57.4239 25.296V23.984H60.0479V25.296H57.4239ZM58.4479 28.112C58.7519 28.56 59.0559 29.056 59.3439 29.552L57.4239 30.032V27.056H61.8079V19.232H55.5999V30.448C55.2159 30.544 54.8479 30.624 54.5279 30.688L55.0719 32.64C56.5279 32.24 58.3999 31.728 60.2079 31.216C60.4479 31.728 60.6399 32.208 60.7519 32.624L62.4319 31.776C62.0319 30.544 60.9759 28.736 59.9839 27.392L58.4479 28.112ZM68.8799 19.2H62.7039V33.376H64.6399V21.12H66.9119V28.8C66.9119 29.008 66.8479 29.088 66.6399 29.088C66.4159 29.088 65.7599 29.104 65.1359 29.056C65.4239 29.584 65.7279 30.56 65.7919 31.136C66.8159 31.136 67.5679 31.088 68.1599 30.736C68.7359 30.384 68.8799 29.76 68.8799 28.864V19.2ZM78.9599 27.456V25.76H82.5119V27.456H78.9599ZM73.4879 27.456V25.76H76.9599V27.456H73.4879ZM76.9599 22.4V24.016H73.4879V22.4H76.9599ZM82.5119 22.4V24.016H78.9599V22.4H82.5119ZM78.9599 20.576V18.432H76.9599V20.576H71.5839V30.128H73.4879V29.28H76.9599V33.376H78.9599V29.28H82.5119V30.048H84.4959V20.576H78.9599ZM91.5519 27.456C91.0399 27.536 90.5279 27.616 90.0319 27.696V26.384H91.6159V24.816H90.6239C90.8639 24.176 91.1359 23.184 91.4079 22.272L90.0479 21.984H91.4879V20.432H90.0319V18.464H88.2879V20.432H86.7519V21.984H89.9039C89.8079 22.768 89.5839 23.872 89.3759 24.592L90.3199 24.816H87.7599L88.8639 24.512C88.8319 23.824 88.6559 22.784 88.3839 22L87.0719 22.352C87.3119 23.136 87.4879 24.144 87.4719 24.816H86.5759V26.384H88.2879V27.952C87.5999 28.048 86.9759 28.144 86.4479 28.208L86.7839 29.84C87.2159 29.76 87.6799 29.68 88.1759 29.6C88.0159 30.544 87.5839 31.52 86.5599 32.16C86.9279 32.464 87.4559 33.024 87.7119 33.392C89.1999 32.352 89.7919 30.784 89.9679 29.296C90.5279 29.2 91.1039 29.104 91.6639 28.992L91.5519 27.456ZM93.8399 21.968C93.8559 20.848 93.8719 19.664 93.8719 18.448H92.4159C92.4319 19.664 92.4319 20.832 92.4159 21.968H91.6639V23.616H92.3679C92.2399 27.232 91.7599 30.272 90.3839 32.32C90.7199 32.56 91.4079 33.136 91.6159 33.392C93.1039 30.944 93.6159 27.648 93.7759 23.616H94.3999C94.3359 29.12 94.2559 30.992 94.0159 31.392C93.9039 31.616 93.7919 31.664 93.5999 31.664C93.3919 31.664 93.0719 31.664 92.6719 31.632C92.9119 32.064 93.0559 32.736 93.0879 33.168C93.5999 33.184 94.0799 33.184 94.4319 33.104C94.8319 33.024 95.1039 32.864 95.3759 32.416C95.7599 31.776 95.8239 29.472 95.9199 22.72C95.9199 22.528 95.9359 21.968 95.9359 21.968H93.8399ZM99.5359 21.984C99.4399 22.768 99.1999 23.84 98.9919 24.544L100.064 24.8H97.3279L98.3679 24.512C98.3359 23.824 98.1279 22.784 97.8399 21.984H99.5359ZM101.472 26.384V24.8H100.272C100.528 24.144 100.8 23.168 101.104 22.24L99.9199 21.984H101.248V20.416H99.6479V18.464H97.8879V20.416H96.1919V21.984H97.7759L96.5439 22.336C96.7999 23.136 96.9599 24.128 96.9759 24.8H96.1279V26.384H97.8879V28.064H96.2559V29.616H97.8879V33.392H99.6479V29.616H101.264V28.064H99.6479V26.384H101.472Z" fill="white"/>
<path d="M21.2812 21.0932C21.2812 21.0932 12.5681 20.9207 11.4745 15.005C10.2222 8.2959 15.2138 3.72549 15.2138 3.72549C15.2138 3.72549 3.67852 6.46771 2.28512 16.8331C1.17392 24.991 7.41776 31.6138 15.5312 33.7352C18.7943 34.3389 22.9568 33.6662 24.8794 28.8543C26.5726 24.5943 24.2444 21.4036 21.2812 21.0932Z" fill="white" stroke="#4C6E87" stroke-width="2.58823" stroke-miterlimit="10" stroke-linecap="round" stroke-linejoin="round"/>
</svg>
