<svg width="223" height="162" viewBox="0 0 223 162" fill="none" xmlns="http://www.w3.org/2000/svg">
<path d="M71.0779 131.637L75.2904 132.769L71.6579 156.304C71.3242 158.466 69.4636 160.061 67.2761 160.061C64.2144 160.061 62.0741 157.032 63.0973 154.146L71.0779 131.637Z" fill="#284273"/>
<path d="M150.259 131.637L146.046 132.769L149.679 156.304C150.012 158.466 151.873 160.061 154.061 160.061C157.122 160.061 159.263 157.032 158.239 154.146L150.259 131.637Z" fill="#284273"/>
<path d="M0.444764 115.336C-0.866229 129.098 9.95572 141 23.78 141H199.22C213.044 141 223.866 129.098 222.555 115.336L214.6 31.8269C212.881 13.7812 197.724 0 179.597 0H43.4028C25.2755 0 10.1191 13.7812 8.40003 31.8269L0.444764 115.336Z" fill="#698FC8"/>
<path fill-rule="evenodd" clip-rule="evenodd" d="M199.22 136.312H23.78C12.7206 136.312 4.06301 126.79 5.11181 115.781L13.0671 32.2714C14.5569 16.6319 27.6925 4.68817 43.4028 4.68817H179.597C195.307 4.68817 208.443 16.6319 209.933 32.2714L217.888 115.781C218.937 126.79 210.279 136.312 199.22 136.312ZM23.78 141C9.95572 141 -0.866229 129.098 0.444764 115.336L8.40003 31.8269C10.1191 13.7812 25.2755 0 43.4028 0H179.597C197.724 0 212.881 13.7812 214.6 31.8269L222.555 115.336C223.866 129.098 213.044 141 199.22 141H23.78Z" fill="#5F83BA"/>
<path fill-rule="evenodd" clip-rule="evenodd" d="M195.867 30.8057C194.071 20.5123 185.135 13 174.686 13H173.5C172.672 13 172 13.6716 172 14.5C172 15.3284 172.672 16 173.5 16H174.686C183.677 16 191.366 22.4641 192.911 31.3212L197.522 57.7577C197.665 58.5738 198.442 59.12 199.258 58.9777C200.074 58.8353 200.62 58.0584 200.478 57.2423L195.867 30.8057Z" fill="#80A4DA"/>
<path d="M125.857 44.6484L105.67 92H92.459L112.684 47.6172H86.9297V37.9688H125.857V44.6484Z" fill="#FFC232"/>
<path d="M132.318 74.7734C132.318 73.4551 132.748 72.3906 133.607 71.5801C134.467 70.7695 135.619 70.3643 137.064 70.3643C138.529 70.3643 139.686 70.7695 140.536 71.5801C141.386 72.3809 141.811 73.4697 141.811 74.8467V75.9014C141.811 77.2197 141.386 78.2793 140.536 79.0801C139.686 79.8809 138.539 80.2812 137.094 80.2812C135.658 80.2812 134.501 79.8857 133.622 79.0947C132.753 78.2939 132.318 77.2002 132.318 75.8135V74.7734ZM135.497 75.9014C135.497 76.4092 135.639 76.8242 135.922 77.1465C136.205 77.459 136.596 77.6152 137.094 77.6152C138.119 77.6152 138.632 76.9609 138.632 75.6523V74.7734C138.632 74.2656 138.495 73.8506 138.222 73.5283C137.948 73.1963 137.562 73.0303 137.064 73.0303C136.586 73.0303 136.205 73.1914 135.922 73.5137C135.639 73.8262 135.497 74.2559 135.497 74.8027V75.9014ZM142.455 86.7705C142.455 85.4424 142.885 84.3779 143.744 83.5771C144.613 82.7764 145.766 82.376 147.201 82.376C148.656 82.376 149.813 82.7715 150.673 83.5625C151.532 84.3535 151.962 85.457 151.962 86.873V87.8984C151.962 89.2266 151.537 90.291 150.687 91.0918C149.838 91.8926 148.686 92.293 147.23 92.293C145.795 92.293 144.638 91.8975 143.759 91.1064C142.89 90.3057 142.455 89.2119 142.455 87.8252V86.7705ZM145.619 87.8984C145.619 88.3574 145.775 88.7627 146.088 89.1143C146.4 89.4561 146.781 89.627 147.23 89.627C148.178 89.627 148.69 89.1777 148.769 88.2793L148.783 86.7705C148.783 86.2529 148.642 85.8379 148.358 85.5254C148.075 85.2031 147.689 85.042 147.201 85.042C146.732 85.042 146.356 85.1934 146.073 85.4961C145.79 85.7891 145.639 86.1895 145.619 86.6973V87.8984ZM138.031 90.4033L135.731 89.2461L146.146 72.5762L148.446 73.7334L138.031 90.4033Z" fill="#FFC232"/>
<path d="M165 48.7639C165 56.9178 158.39 63.5278 150.236 63.5278C142.082 63.5278 135.472 56.9178 135.472 48.7639C135.472 40.61 142.082 34 150.236 34C158.39 34 165 40.61 165 48.7639Z" fill="#FFC232"/>
<path fill-rule="evenodd" clip-rule="evenodd" d="M150.236 62.3443C157.736 62.3443 163.816 56.2641 163.816 48.7639C163.816 41.2637 157.736 35.1835 150.236 35.1835C142.736 35.1835 136.656 41.2637 136.656 48.7639C136.656 56.2641 142.736 62.3443 150.236 62.3443ZM150.236 63.5278C158.39 63.5278 165 56.9178 165 48.7639C165 40.61 158.39 34 150.236 34C142.082 34 135.472 40.61 135.472 48.7639C135.472 56.9178 142.082 63.5278 150.236 63.5278Z" fill="black"/>
<path fill-rule="evenodd" clip-rule="evenodd" d="M156.719 36.7107H146.215V35.5272H156.719V36.7107Z" fill="black"/>
<path fill-rule="evenodd" clip-rule="evenodd" d="M161.124 39.7604H146.893V38.5769H161.124V39.7604Z" fill="black"/>
<path fill-rule="evenodd" clip-rule="evenodd" d="M163.157 43.1489H146.893V41.9654H163.157V43.1489Z" fill="black"/>
<path fill-rule="evenodd" clip-rule="evenodd" d="M164.174 46.5374H146.554V45.3539H164.174V46.5374Z" fill="black"/>
<path fill-rule="evenodd" clip-rule="evenodd" d="M164.513 49.9259H146.554V48.7424H164.513V49.9259Z" fill="black"/>
<path fill-rule="evenodd" clip-rule="evenodd" d="M164.174 53.3144H146.215V52.1309H164.174V53.3144Z" fill="black"/>
<path fill-rule="evenodd" clip-rule="evenodd" d="M162.48 56.7029H145.876V55.5193H162.48V56.7029Z" fill="black"/>
<path d="M162.528 50.1192C162.528 58.2731 155.918 64.8831 147.764 64.8831C139.61 64.8831 133 58.2731 133 50.1192C133 41.9654 139.61 35.3553 147.764 35.3553C155.918 35.3553 162.528 41.9654 162.528 50.1192Z" fill="#FFC232"/>
<path fill-rule="evenodd" clip-rule="evenodd" d="M147.764 63.6996C155.264 63.6996 161.344 57.6195 161.344 50.1192C161.344 42.619 155.264 36.5389 147.764 36.5389C140.264 36.5389 134.183 42.619 134.183 50.1192C134.183 57.6195 140.264 63.6996 147.764 63.6996ZM147.764 64.8831C155.918 64.8831 162.528 58.2731 162.528 50.1192C162.528 41.9654 155.918 35.3553 147.764 35.3553C139.61 35.3553 133 41.9654 133 50.1192C133 58.2731 139.61 64.8831 147.764 64.8831Z" fill="black"/>
<path d="M152.927 44.4002V46.9187H148.97V57.523H146.015V46.9187H142.058V44.4002H152.927Z" fill="white"/>
<path fill-rule="evenodd" clip-rule="evenodd" d="M154.505 42.8222V48.4968H150.548V59.1011H144.437V48.4968H140.48V42.8222H154.505ZM146.015 46.9187V57.523H148.97V46.9187H152.927V44.4002H142.058V46.9187H146.015Z" fill="black"/>
<path d="M38.624 124.552C39.68 124.552 40.208 123.944 40.208 122.744V118.344C40.544 118.184 40.896 118.008 41.248 117.816L41.712 118.536C42.368 118.216 42.992 117.848 43.6 117.432V118.008H48.912V117.48C49.424 117.832 50 118.184 50.64 118.52L51.552 117.128C49.376 116.088 47.84 114.888 46.944 113.512H45.632C44.592 114.824 43.152 115.928 41.312 116.824V116.184L40.208 116.76V114.328H41.36V112.744H40.208V109.96H38.576V112.744H36.848V114.328H38.576V117.432C37.904 117.656 37.232 117.848 36.544 118.008L36.96 119.608C37.504 119.432 38.032 119.24 38.576 119.048V122.344C38.576 122.84 38.4 123.096 38.064 123.096C37.696 123.096 37.312 123.048 36.912 122.984L37.264 124.552H38.624ZM47.744 116.536H44.72C45.28 116.024 45.808 115.464 46.288 114.824C46.672 115.416 47.168 115.992 47.744 116.536ZM50.112 119.048H42.56V124.584H44.16V123.912H48.512V124.584H50.112V119.048ZM44.16 122.376V120.584H48.512V122.376H44.16ZM41.264 111.144V112.584H43.168V113.784H44.704V112.584H45.808V111.144H44.704V109.848H43.168V111.144H41.264ZM47.744 109.848V111.144H46.624V112.584H47.744V113.784H49.28V112.584H51.168V111.144H49.28V109.848H47.744Z" fill="white"/>
<path d="M57.408 113.512V120.12H62.416V121.096H56.048V122.696H62.416V124.68H64.112V122.696H70.352V121.096H64.112V120.12H69.024V113.512H64.112V112.568H70.128V111H64.112V109.832H62.416V111H56.272V112.568H62.416V113.512H57.408ZM67.408 118.584H64.112V117.56H67.408V118.584ZM62.416 118.584H59.024V117.56H62.416V118.584ZM59.024 116.072V115.032H62.416V116.072H59.024ZM64.112 115.032H67.408V116.072H64.112V115.032Z" fill="white"/>
<path d="M89.088 112.216H86.32C86.768 111.672 87.136 111.112 87.44 110.536L86.096 109.88C85.792 110.488 85.376 111.112 84.864 111.752L85.744 112.216H83.216V109.816H81.584V112.216H79.024L79.856 111.8C79.472 111.096 79.072 110.44 78.656 109.864L77.344 110.52C77.728 111.016 78.08 111.576 78.416 112.216H75.712V115.496H77.312V113.672H87.488V115.496H89.088V112.216ZM78.272 114.424V117.864H86.528V114.424H78.272ZM84.992 116.68H79.808V115.688H84.992V116.68ZM88.064 118.504H76.752V124.712H78.384V124.12H86.448V124.712H88.064V118.504ZM78.384 122.776V121.848H81.632V122.776H78.384ZM83.232 122.776V121.848H86.448V122.776H83.232ZM78.384 120.696V119.832H81.632V120.696H78.384ZM83.232 119.832H86.448V120.696H83.232V119.832Z" fill="white"/>
<path d="M106.96 110.36H96.544V124.616H98.224V123.496H105.28V124.6H106.96V110.36ZM98.224 121.864V117.56H105.28V121.864H98.224ZM98.224 115.928V111.992H105.28V115.928H98.224Z" fill="white"/>
<path d="M113.52 116.296V117.96H128.064V116.296H113.52Z" fill="white"/>
<path d="M136.688 113.384L135.44 113.8C135.744 114.536 136 115.288 136.208 116.072L137.456 115.752C137.232 114.856 136.976 114.072 136.688 113.384ZM136.688 118.776L135.424 119.192C135.744 120.12 136.016 121.08 136.24 122.088L137.568 121.736C137.312 120.616 137.008 119.64 136.688 118.776ZM135.76 109.752C135.664 110.296 135.536 110.84 135.376 111.352H133.664V116.792L132.624 116.856L132.832 118.344L133.648 118.296C133.552 120.376 133.184 122.136 132.544 123.544L133.792 124.68C134.624 123 135.072 120.84 135.168 118.184C136.064 118.12 136.928 118.04 137.776 117.96V122.6C137.776 122.968 137.648 123.16 137.408 123.16C136.992 123.16 136.544 123.128 136.064 123.096L136.464 124.616H137.888C138.816 124.616 139.296 124.12 139.296 123.144V117.784L139.856 117.72V116.264L139.296 116.328V111.352H137.056C137.232 110.936 137.376 110.472 137.472 109.992L135.76 109.752ZM135.184 116.696V112.888H137.776V116.488C136.96 116.552 136.096 116.632 135.184 116.696ZM141.2 110.472C141.2 111.72 141.12 112.632 140.976 113.208C140.816 113.784 140.448 114.392 139.904 115.032L141.2 116.2C141.904 115.464 142.352 114.808 142.528 114.264C142.704 113.752 142.8 112.984 142.8 111.976H144.336V114.04C144.336 115.224 144.928 115.816 146.144 115.816H147.392V114.264H146.624C146.176 114.264 145.952 114.056 145.952 113.672V110.472H141.2ZM140.32 116.68V118.184H140.624C140.976 119.528 141.648 120.76 142.64 121.848C141.904 122.456 141.024 122.984 139.984 123.4L140.88 124.792C142.032 124.328 143.024 123.736 143.872 123.016C144.624 123.624 145.504 124.184 146.512 124.696L147.36 123.208C146.48 122.776 145.696 122.312 145.024 121.8C145.824 120.776 146.4 119.544 146.736 118.104V116.68H140.32ZM142.16 118.184H145.104C144.8 119.112 144.352 119.944 143.776 120.696C143.056 119.928 142.512 119.096 142.16 118.184Z" fill="white"/>
<path d="M154.656 118.136C153.92 120.056 153.056 121.96 152.064 123.816L153.6 124.504C154.528 122.696 155.36 120.76 156.128 118.712L154.656 118.136ZM153.536 109.992L152.352 111.144C153.568 112.008 154.496 112.808 155.152 113.56L156.336 112.36C155.568 111.576 154.64 110.792 153.536 109.992ZM153.088 113.736L151.904 114.888C153.04 115.768 153.92 116.584 154.544 117.32L155.728 116.136C155.008 115.336 154.128 114.536 153.088 113.736ZM160.624 109.88V113.992H157.136V118.024C157.104 120.232 156.656 122.072 155.776 123.512L157.056 124.68C157.84 123.416 158.352 121.848 158.576 119.992L158.928 121.496C160.768 121.272 162.528 121 164.192 120.696V122.456C164.192 122.872 163.936 123.08 163.456 123.08C162.928 123.08 162.352 123.048 161.744 123L162.192 124.584H163.952C165.168 124.584 165.792 124.056 165.792 123.032V113.992H162.208V109.88H160.624ZM157.648 110.264L156.288 110.92C156.912 111.72 157.488 112.6 158.032 113.592L159.344 112.952C158.8 111.976 158.24 111.08 157.648 110.264ZM165.184 110.28C164.736 111.176 164.112 112.088 163.328 113.016L164.608 113.672C165.376 112.776 166.016 111.864 166.512 110.904L165.184 110.28ZM163.36 117.368C162.464 117.192 161.712 117.064 161.12 116.968C160.592 116.904 159.792 116.808 158.704 116.696V115.496H164.192V119.24C162.368 119.56 160.496 119.784 158.576 119.944C158.64 119.336 158.688 118.712 158.704 118.04C159.264 118.072 159.808 118.136 160.32 118.216C161.184 118.344 162.016 118.488 162.816 118.648L163.36 117.368Z" fill="white"/>
<path d="M173.744 113.368H175.856V113.592C175.84 113.72 175.808 113.848 175.776 113.992H173.568L173.744 113.368ZM177.408 113.368H179.312V113.992H177.36L177.408 113.592V113.368ZM180.864 113.368H184.4V110.456H180.864V109.88H179.312V110.456H177.408V109.88H175.856V110.456H172.112V111.672H175.856V112.296H172.512L171.92 115.096H175.024C174.976 115.128 174.928 115.176 174.864 115.224C174.272 115.608 173.12 115.928 171.408 116.2L172.112 117.288L173.12 117.096V122.632H175.536C174.432 122.984 172.944 123.288 171.072 123.544L171.776 124.76C174.016 124.408 175.744 123.928 176.944 123.352L176.4 122.632H179.888L179.472 123.4C181.456 123.72 183.344 124.168 185.168 124.776L185.68 123.512C184.336 123.16 182.928 122.856 181.488 122.632H183.776V116.824H174.224C174.976 116.6 175.584 116.328 176.048 116.008C176.4 115.752 176.688 115.448 176.928 115.096H179.312V116.504H180.864V115.096H183.68C183.68 115.256 183.632 115.384 183.552 115.48C183.456 115.544 183.2 115.592 182.784 115.592C182.48 115.592 182.16 115.576 181.808 115.56L182.064 116.504C182.352 116.52 182.656 116.536 182.96 116.536C183.856 116.52 184.416 116.36 184.656 116.072C184.896 115.768 185.024 115.08 185.024 113.992H180.864V113.368ZM177.408 111.672H179.312V112.296H177.408V111.672ZM180.864 111.672H183.024V112.296H180.864V111.672ZM182.208 121.48H174.704V120.92H182.208V121.48ZM174.704 119.928V119.432H182.208V119.928H174.704ZM174.704 118.408V117.896H182.208V118.408H174.704Z" fill="white"/>
<path d="M70.78 43.436H63.148V42.698H70.78V43.436ZM70.78 45.488H63.148V44.732H70.78V45.488ZM72.922 41.33H61.096V46.856H72.922V41.33ZM71.896 51.518C71.572 52.166 71.158 52.76 70.672 53.282C70.186 52.76 69.772 52.166 69.466 51.518H71.896ZM62.356 53.66H64.696V54.362C63.904 54.434 63.112 54.488 62.356 54.542V53.66ZM62.356 51.428H64.696V52.184H62.356V51.428ZM64.696 49.214V49.934H62.356V49.214H64.696ZM73.156 49.808L72.796 49.88H67.198V51.518H68.854L67.666 51.842C68.098 52.832 68.656 53.732 69.304 54.506C68.548 55.064 67.666 55.496 66.748 55.802V49.214H74.992V47.522H58.99V49.214H60.394V54.686C59.836 54.74 59.296 54.758 58.828 54.794L58.99 56.63C60.574 56.486 62.626 56.306 64.696 56.108V57.566H66.748V56.108C67.108 56.54 67.504 57.134 67.702 57.548C68.818 57.134 69.844 56.576 70.762 55.874C71.716 56.612 72.832 57.17 74.11 57.548C74.398 57.044 74.956 56.27 75.37 55.874C74.182 55.586 73.102 55.136 72.202 54.542C73.21 53.408 73.984 52.004 74.47 50.312L73.156 49.808Z" fill="#FFC232"/>
<path d="M68.53 85.65H65.416V84.48H68.53V85.65ZM74.29 80.466H59.854V88.566H61.942V82.248H72.13V86.262C72.13 86.478 72.058 86.532 71.788 86.55C71.59 86.568 71.032 86.568 70.42 86.55V83.058H63.544V87.9H65.416V87.09H70.06C70.258 87.558 70.42 88.116 70.474 88.53C71.77 88.53 72.724 88.512 73.39 88.188C74.092 87.864 74.29 87.288 74.29 86.298V80.466ZM69.736 78.27H64.12V77.172H69.736V78.27ZM62.086 75.75V79.71H71.914V75.75H62.086ZM67.972 73.248V71.736H65.794V73.248H59.134V75.066H74.866V73.248H67.972Z" fill="#FFC232"/>
</svg>
