<svg width="224" height="162" viewBox="0 0 224 162" fill="none" xmlns="http://www.w3.org/2000/svg">
<path d="M74.078 131.637L78.2904 132.769L74.6579 156.304C74.3242 158.466 72.4636 160.061 70.2761 160.061C67.2144 160.061 65.0742 157.032 66.0973 154.146L74.078 131.637Z" fill="#284273"/>
<path d="M153.259 131.637L149.046 132.769L152.679 156.304C153.013 158.466 154.873 160.061 157.061 160.061C160.122 160.061 162.263 157.032 161.239 154.146L153.259 131.637Z" fill="#284273"/>
<path d="M0.710803 112.669C-0.742633 127.859 11.2011 141 26.4607 141H197.539C212.799 141 224.743 127.859 223.289 112.669L215.868 35.1056C213.963 15.1987 197.241 0 177.243 0H46.7571C26.7593 0 10.0369 15.1987 8.13217 35.1056L0.710803 112.669Z" fill="#698FC8"/>
<path fill-rule="evenodd" clip-rule="evenodd" d="M197.539 135.826H26.4607C14.253 135.826 4.69804 125.314 5.86079 113.161L13.2822 35.5984C14.9329 18.3457 29.4257 5.17351 46.7571 5.17351H177.243C194.574 5.17351 209.067 18.3457 210.718 35.5984L218.139 113.161C219.302 125.314 209.747 135.826 197.539 135.826ZM26.4607 141C11.2011 141 -0.742633 127.859 0.710803 112.669L8.13217 35.1056C10.0369 15.1987 26.7593 0 46.7571 0H177.243C197.241 0 213.963 15.1987 215.868 35.1056L223.289 112.669C224.743 127.859 212.799 141 197.539 141H26.4607Z" fill="#5F83BA"/>
<path d="M93.7498 92H81.2068V52.0703L68.8865 55.6699V46.1699L92.5994 37.9688H93.7498V92Z" fill="#FFC232"/>
<path d="M110.783 65.5781L114.086 37.9688H145.666V47.6914H124.254L123.029 58.416C123.92 57.8965 125.082 57.4388 126.517 57.043C127.977 56.6471 129.399 56.4492 130.785 56.4492C136.153 56.4492 140.273 58.0449 143.142 61.2363C146.037 64.403 147.484 68.8561 147.484 74.5957C147.484 78.0592 146.705 81.2012 145.146 84.0215C143.612 86.8171 141.448 88.9694 138.652 90.4785C135.857 91.9876 132.554 92.7422 128.744 92.7422C125.355 92.7422 122.176 92.0495 119.207 90.6641C116.238 89.2539 113.913 87.3366 112.23 84.9121C110.548 82.4629 109.719 79.7044 109.744 76.6367H122.287C122.411 78.6159 123.041 80.1868 124.179 81.3496C125.317 82.5124 126.814 83.0938 128.67 83.0938C132.875 83.0938 134.978 79.9766 134.978 73.7422C134.978 67.9779 132.405 65.0957 127.26 65.0957C124.34 65.0957 122.163 66.0358 120.728 67.916L110.783 65.5781Z" fill="#FFC232"/>
<path d="M153.318 74.7734C153.318 73.4551 153.748 72.3906 154.607 71.5801C155.467 70.7695 156.619 70.3643 158.064 70.3643C159.529 70.3643 160.687 70.7695 161.536 71.5801C162.386 72.3809 162.811 73.4697 162.811 74.8467V75.9014C162.811 77.2197 162.386 78.2793 161.536 79.0801C160.687 79.8809 159.539 80.2812 158.094 80.2812C156.658 80.2812 155.501 79.8857 154.622 79.0947C153.753 78.2939 153.318 77.2002 153.318 75.8135V74.7734ZM156.497 75.9014C156.497 76.4092 156.639 76.8242 156.922 77.1465C157.205 77.459 157.596 77.6152 158.094 77.6152C159.119 77.6152 159.632 76.9609 159.632 75.6523V74.7734C159.632 74.2656 159.495 73.8506 159.222 73.5283C158.948 73.1963 158.562 73.0303 158.064 73.0303C157.586 73.0303 157.205 73.1914 156.922 73.5137C156.639 73.8262 156.497 74.2559 156.497 74.8027V75.9014ZM163.455 86.7705C163.455 85.4424 163.885 84.3779 164.744 83.5771C165.613 82.7764 166.766 82.376 168.201 82.376C169.656 82.376 170.813 82.7715 171.673 83.5625C172.532 84.3535 172.962 85.457 172.962 86.873V87.8984C172.962 89.2266 172.537 90.291 171.688 91.0918C170.838 91.8926 169.686 92.293 168.23 92.293C166.795 92.293 165.638 91.8975 164.759 91.1064C163.89 90.3057 163.455 89.2119 163.455 87.8252V86.7705ZM166.619 87.8984C166.619 88.3574 166.775 88.7627 167.088 89.1143C167.4 89.4561 167.781 89.627 168.23 89.627C169.178 89.627 169.69 89.1777 169.769 88.2793L169.783 86.7705C169.783 86.2529 169.642 85.8379 169.358 85.5254C169.075 85.2031 168.689 85.042 168.201 85.042C167.732 85.042 167.356 85.1934 167.073 85.4961C166.79 85.7891 166.639 86.1895 166.619 86.6973V87.8984ZM159.031 90.4033L156.731 89.2461L167.146 72.5762L169.446 73.7334L159.031 90.4033Z" fill="#FFC232"/>
<path d="M186 48.7639C186 56.9178 179.39 63.5278 171.236 63.5278C163.082 63.5278 156.472 56.9178 156.472 48.7639C156.472 40.61 163.082 34 171.236 34C179.39 34 186 40.61 186 48.7639Z" fill="#FFC232"/>
<path fill-rule="evenodd" clip-rule="evenodd" d="M171.236 62.3443C178.736 62.3443 184.817 56.2641 184.817 48.7639C184.817 41.2637 178.736 35.1835 171.236 35.1835C163.736 35.1835 157.656 41.2637 157.656 48.7639C157.656 56.2641 163.736 62.3443 171.236 62.3443ZM171.236 63.5278C179.39 63.5278 186 56.9178 186 48.7639C186 40.61 179.39 34 171.236 34C163.082 34 156.472 40.61 156.472 48.7639C156.472 56.9178 163.082 63.5278 171.236 63.5278Z" fill="black"/>
<path fill-rule="evenodd" clip-rule="evenodd" d="M177.719 36.7107H167.215V35.5272H177.719V36.7107Z" fill="black"/>
<path fill-rule="evenodd" clip-rule="evenodd" d="M182.124 39.7604H167.893V38.5769H182.124V39.7604Z" fill="black"/>
<path fill-rule="evenodd" clip-rule="evenodd" d="M184.157 43.1489H167.893V41.9654H184.157V43.1489Z" fill="black"/>
<path fill-rule="evenodd" clip-rule="evenodd" d="M185.174 46.5374H167.554V45.3539H185.174V46.5374Z" fill="black"/>
<path fill-rule="evenodd" clip-rule="evenodd" d="M185.513 49.9259H167.554V48.7424H185.513V49.9259Z" fill="black"/>
<path fill-rule="evenodd" clip-rule="evenodd" d="M185.174 53.3144H167.215V52.1309H185.174V53.3144Z" fill="black"/>
<path fill-rule="evenodd" clip-rule="evenodd" d="M183.48 56.7029H166.876V55.5193H183.48V56.7029Z" fill="black"/>
<path d="M183.528 50.1192C183.528 58.2731 176.918 64.8831 168.764 64.8831C160.61 64.8831 154 58.2731 154 50.1192C154 41.9654 160.61 35.3553 168.764 35.3553C176.918 35.3553 183.528 41.9654 183.528 50.1192Z" fill="#FFC232"/>
<path fill-rule="evenodd" clip-rule="evenodd" d="M168.764 63.6996C176.264 63.6996 182.344 57.6195 182.344 50.1192C182.344 42.619 176.264 36.5389 168.764 36.5389C161.264 36.5389 155.184 42.619 155.184 50.1192C155.184 57.6195 161.264 63.6996 168.764 63.6996ZM168.764 64.8831C176.918 64.8831 183.528 58.2731 183.528 50.1192C183.528 41.9654 176.918 35.3553 168.764 35.3553C160.61 35.3553 154 41.9654 154 50.1192C154 58.2731 160.61 64.8831 168.764 64.8831Z" fill="black"/>
<path d="M173.927 44.4002V46.9187H169.97V57.523H167.015V46.9187H163.058V44.4002H173.927Z" fill="white"/>
<path fill-rule="evenodd" clip-rule="evenodd" d="M175.505 42.8222V48.4968H171.548V59.1011H165.437V48.4968H161.48V42.8222H175.505ZM167.015 46.9187V57.523H169.97V46.9187H173.927V44.4002H163.058V46.9187H167.015Z" fill="black"/>
<path fill-rule="evenodd" clip-rule="evenodd" d="M200.576 34.9422C199.207 22.8549 188.982 13.7217 176.817 13.7217V17.2671C187.178 17.2671 195.887 25.0461 197.053 35.341L198.374 47.012C198.484 47.9848 199.362 48.6842 200.335 48.5741C201.308 48.4639 202.007 47.586 201.897 46.6132L200.576 34.9422Z" fill="#80A4DA"/>
<path d="M45.3373 117.832H34.2973V124.696H35.9933V124.088H43.6413V124.696H45.3373V117.832ZM35.9933 122.488V119.432H43.6413V122.488H35.9933ZM33.2893 116.408C37.3693 116.264 41.0813 116.04 44.4093 115.736C44.7773 116.344 45.1453 116.968 45.4973 117.624L47.1293 116.824C45.9773 114.888 44.7773 113.128 43.4973 111.528L41.9773 112.248C42.4733 112.872 42.9693 113.544 43.4493 114.248C40.9853 114.472 38.4573 114.648 35.8653 114.776C37.1773 113.56 38.4413 112.088 39.6733 110.392L37.9453 109.784C35.7693 112.968 34.1053 114.648 32.9853 114.824L33.2893 116.408Z" fill="white"/>
<path d="M57.9293 120.632H65.1293V117.576H56.4413V118.76H63.6413V119.432H56.6013L56.1533 122.568H64.1533C64.1533 122.824 64.1213 123.032 64.0573 123.176C63.9933 123.304 63.8013 123.384 63.4813 123.384C62.7453 123.384 61.9453 123.352 61.0813 123.32L61.4333 124.632C62.1693 124.664 62.9373 124.68 63.7373 124.68C64.5693 124.664 65.1133 124.456 65.3373 124.072C65.5613 123.656 65.6893 122.728 65.6893 121.288H57.8173L57.9293 120.632ZM52.9373 110.024L51.8653 111.048C52.8573 111.88 53.6253 112.648 54.1533 113.368L55.2413 112.28C54.6013 111.528 53.8333 110.776 52.9373 110.024ZM52.7133 113.784L51.6413 114.824C52.6973 115.672 53.5133 116.456 54.0893 117.192L55.1773 116.12C54.5053 115.336 53.6733 114.552 52.7133 113.784ZM54.0253 118.232C53.3533 120.136 52.5693 122.008 51.6733 123.832L53.1773 124.488C54.0093 122.712 54.7453 120.824 55.4173 118.808L54.0253 118.232ZM58.7293 110.76V111.816H62.5853V110.76H61.3053C61.2253 110.408 61.1293 110.088 61.0333 109.8L59.6573 110.024C59.7533 110.248 59.8493 110.488 59.9453 110.76H58.7293ZM59.2253 112.216V113.096H62.1053V112.216H59.2253ZM59.2253 113.448V114.328H62.0893V113.448H59.2253ZM59.0973 114.712V117.144H62.2333V114.712H59.0973ZM61.1613 116.28H60.1693V115.512H61.1613V116.28ZM55.4653 115.256C55.3853 115.896 55.2573 116.504 55.0813 117.08L56.0413 117.416C56.1853 116.792 56.2813 116.152 56.3293 115.48L55.4653 115.256ZM57.4173 115.352L56.6013 115.448C56.6333 115.88 56.6653 116.488 56.6813 117.288L57.6573 117.16C57.6093 116.392 57.5293 115.8 57.4173 115.352ZM58.5533 115.208L57.7533 115.432C57.8973 115.976 58.0253 116.52 58.1373 117.08L59.0013 116.76C58.8893 116.28 58.7453 115.768 58.5533 115.208ZM58.3613 112.824L57.5293 113.08C57.8493 112.632 58.2333 112.072 58.6813 111.4L57.6253 111.016C57.4493 111.304 57.2733 111.576 57.1133 111.864L56.4573 111.928C56.8413 111.48 57.1933 110.92 57.5133 110.216L56.4573 109.896C56.1213 110.824 55.7213 111.528 55.2733 112.008L55.4973 112.872C55.8493 112.84 56.1853 112.792 56.5213 112.76C55.9293 113.592 55.4813 114.056 55.1933 114.152L55.4013 115.08C56.3453 114.952 57.1933 114.824 57.9613 114.696C57.9933 114.824 58.0413 114.968 58.0733 115.128L59.0333 114.888C58.8253 114.104 58.6013 113.416 58.3613 112.824ZM57.4653 113.16C57.5293 113.352 57.6093 113.56 57.6893 113.8L56.8413 113.944C57.0173 113.736 57.2253 113.48 57.4653 113.16ZM65.6253 112.68L65.0173 112.872C65.3213 112.472 65.6733 111.992 66.0733 111.416L65.0333 111.032C64.8413 111.32 64.6653 111.592 64.4893 111.848C64.2653 111.88 64.0253 111.896 63.7853 111.928C64.1853 111.48 64.5373 110.92 64.8413 110.232L63.7853 109.928C63.4493 110.824 63.0493 111.528 62.6013 112.024L62.8253 112.888L63.8173 112.792C63.2093 113.576 62.7613 114.024 62.4573 114.12L62.6813 115.048C63.6573 114.936 64.5373 114.808 65.3053 114.68C65.3373 114.776 65.3693 114.904 65.4013 115.048L66.3453 114.808C66.1373 114.008 65.8973 113.288 65.6253 112.68ZM64.7933 113.16C64.8733 113.352 64.9533 113.56 65.0333 113.784C64.7453 113.848 64.4253 113.896 64.0893 113.96C64.2813 113.752 64.5213 113.48 64.7933 113.16ZM62.7933 115.224C62.7293 115.864 62.6173 116.472 62.4573 117.032L63.4173 117.368C63.5293 116.744 63.6093 116.104 63.6573 115.448L62.7933 115.224ZM64.7293 115.304L63.9133 115.4C63.9773 115.832 64.0253 116.44 64.0573 117.24L65.0333 117.112C64.9853 116.344 64.8893 115.752 64.7293 115.304ZM65.8653 115.112L65.0653 115.336C65.2573 115.88 65.4173 116.424 65.5453 116.984L66.4093 116.664C66.2813 116.184 66.1053 115.672 65.8653 115.112Z" fill="white"/>
<path d="M71.1293 113.88V115.512H76.9053C76.0413 119.176 73.9933 121.8 70.7613 123.368L71.8333 124.776C75.0333 123.096 77.1773 120.472 78.2653 116.904C79.4813 120.2 81.6093 122.776 84.6173 124.632L85.6733 123.256C82.5533 121.432 80.4253 118.856 79.2733 115.512H85.3053V113.88H78.8893C79.0013 112.952 79.0653 111.96 79.0653 110.92V109.864H77.3693V111.304C77.3533 112.2 77.2893 113.048 77.1933 113.88H71.1293Z" fill="white"/>
<path d="M91.6253 113.512V120.12H96.6333V121.096H90.2653V122.696H96.6333V124.68H98.3293V122.696H104.569V121.096H98.3293V120.12H103.241V113.512H98.3293V112.568H104.345V111H98.3293V109.832H96.6333V111H90.4893V112.568H96.6333V113.512H91.6253ZM101.625 118.584H98.3293V117.56H101.625V118.584ZM96.6333 118.584H93.2413V117.56H96.6333V118.584ZM93.2413 116.072V115.032H96.6333V116.072H93.2413ZM98.3293 115.032H101.625V116.072H98.3293V115.032Z" fill="white"/>
<path d="M114.649 111.784V113.384H117.785C116.889 114.216 115.625 114.904 113.961 115.48L114.825 116.904C115.801 116.488 116.681 116.024 117.449 115.512C117.609 115.672 117.753 115.864 117.897 116.072C117.049 116.968 115.929 117.704 114.553 118.312L115.369 119.736C116.649 119.112 117.721 118.328 118.569 117.384C118.681 117.656 118.777 117.96 118.873 118.28C117.689 119.592 116.041 120.728 113.945 121.688L114.905 123.112C116.521 122.312 117.945 121.304 119.161 120.088C119.177 120.392 119.193 120.712 119.193 121.064C119.193 122.024 119.081 122.6 118.889 122.824C118.665 123.016 118.345 123.128 117.897 123.128H116.681L117.177 124.632C117.465 124.632 117.721 124.616 117.961 124.616C118.985 124.568 119.721 124.376 120.169 124.04C120.585 123.688 120.809 122.696 120.809 121.064C120.809 120.728 120.793 120.392 120.777 120.072C121.465 121.144 122.313 122.104 123.305 122.952L124.153 121.496C122.729 120.456 121.577 119.208 120.697 117.736C121.241 117.352 121.689 116.984 122.041 116.632C122.521 116.168 123.001 115.56 123.481 114.824L122.089 113.976C121.705 114.616 121.289 115.176 120.873 115.624C120.585 115.912 120.281 116.184 119.961 116.408C119.641 115.688 119.225 115.064 118.713 114.52C119.097 114.168 119.433 113.784 119.753 113.384H123.577V111.784H121.561C121.817 111.352 122.073 110.888 122.297 110.376L120.729 109.816C120.473 110.504 120.201 111.16 119.881 111.784H118.201C117.961 111.032 117.689 110.376 117.401 109.8L115.833 110.392C116.105 110.824 116.345 111.288 116.553 111.784H114.649ZM109.705 110.36V124.52H111.369V120.072L111.801 121.432C112.873 121.416 113.625 121.176 114.073 120.712C114.361 120.36 114.505 119.768 114.505 118.904C114.441 117.912 114.041 116.744 113.321 115.4C113.753 114.088 114.137 112.824 114.457 111.608V110.36H109.705ZM111.369 119.784V111.864H112.841C112.553 112.984 112.169 114.248 111.689 115.64C112.489 116.856 112.889 117.944 112.889 118.904C112.889 119.24 112.841 119.48 112.745 119.608C112.633 119.736 112.441 119.832 112.153 119.864C111.945 119.864 111.689 119.832 111.369 119.784Z" fill="white"/>
<path d="M128.825 120.424C128.745 121.8 128.553 123.032 128.265 124.088L129.529 124.488C129.801 123.352 129.977 122.056 130.057 120.584L128.825 120.424ZM131.529 120.296L130.377 120.552C130.537 121.512 130.681 122.6 130.793 123.848L132.089 123.544C131.929 122.376 131.737 121.288 131.529 120.296ZM132.585 116.216L131.529 116.568C132.073 115.592 132.681 114.376 133.369 112.904L131.993 112.392C131.705 113.064 131.417 113.688 131.161 114.28C130.809 114.344 130.457 114.392 130.105 114.456C130.745 113.384 131.385 112.024 132.025 110.392L130.489 109.784C130.073 111.304 129.577 112.696 129.017 113.976C128.825 114.264 128.585 114.456 128.329 114.568L128.745 116.024C129.337 115.912 129.913 115.8 130.473 115.704C129.929 116.744 129.481 117.48 129.129 117.912C128.937 118.104 128.697 118.248 128.425 118.36L128.825 119.8C129.833 119.656 130.905 119.368 132.025 118.952C132.073 119.176 132.121 119.416 132.169 119.672L133.369 119.368C133.129 118.168 132.873 117.112 132.585 116.216ZM131.465 116.696C131.561 117.032 131.657 117.384 131.753 117.768C131.369 117.896 130.969 118.008 130.569 118.104C130.841 117.72 131.145 117.24 131.465 116.696ZM132.969 119.848L131.897 120.216C132.185 120.952 132.473 121.816 132.729 122.808L133.849 122.296C133.593 121.416 133.289 120.6 132.969 119.848ZM138.457 110.312V124.52H139.993V111.816H141.337C140.985 113.48 140.601 114.904 140.217 116.104C141.273 117.784 141.817 119.144 141.833 120.184C141.833 120.584 141.817 120.84 141.785 120.936C141.737 121.064 141.657 121.144 141.545 121.16C141.161 121.16 140.697 121.128 140.153 121.08L140.617 122.616C141.705 122.616 142.425 122.424 142.793 122.072C143.129 121.72 143.305 121.096 143.305 120.184C143.289 119.128 142.777 117.768 141.785 116.104C142.201 114.696 142.601 113.176 142.953 111.544V110.312H138.457ZM133.833 114.92V116.392H135.129V117.816C135.129 117.96 135.113 118.12 135.113 118.296H133.689V119.768H134.985C134.713 121.448 134.089 122.728 133.129 123.624L134.345 124.712C135.545 123.576 136.297 121.928 136.601 119.768H138.057V118.296H136.713C136.713 118.136 136.729 117.976 136.729 117.816V116.392H137.865V114.92H136.729V113.064C137.337 112.936 137.849 112.792 138.265 112.632L137.753 111.224C137.465 111.368 137.113 111.496 136.729 111.608V109.896H135.129V111.944C134.585 112.008 133.993 112.072 133.353 112.104L133.753 113.464L135.129 113.32V114.92H133.833Z" fill="white"/>
<path d="M153.385 109.896V115.176H147.833V116.808H153.385V124.664H155.081V119.784C156.329 120.376 157.881 121.224 159.721 122.344L160.681 120.92C158.777 119.864 156.905 118.936 155.081 118.136V116.808H162.185V115.176H155.081V113.256H160.121V111.656H155.081V109.896H153.385Z" fill="white"/>
<path d="M167.081 111.592V113.176H181.369V111.592H175.193C174.921 110.92 174.633 110.296 174.345 109.736L172.473 110.056C172.793 110.536 173.081 111.048 173.337 111.592H167.081ZM176.905 113.272L175.769 114.36C177.657 115.88 179.129 117.288 180.153 118.6L181.385 117.352C180.169 115.992 178.665 114.632 176.905 113.272ZM176.665 116.296C176.025 117.512 175.209 118.584 174.217 119.528C173.177 118.616 172.345 117.576 171.705 116.392L170.265 117.208C170.969 118.472 171.865 119.608 172.921 120.6C171.289 121.752 169.289 122.632 166.921 123.208L167.961 124.744C170.425 124.104 172.521 123.112 174.281 121.736C175.993 123.016 178.089 124.008 180.553 124.696L181.593 123.128C179.225 122.536 177.209 121.688 175.577 120.584C176.601 119.56 177.481 118.36 178.201 116.984L176.665 116.296ZM171.417 113.288C170.233 114.744 168.761 116.008 167.033 117.096L168.105 118.504C169.897 117.32 171.417 115.944 172.633 114.344L171.417 113.288Z" fill="white"/>
<path d="M190.281 116.376C189.417 117.336 188.121 118.152 186.409 118.792L187.321 120.264C188.265 119.816 189.113 119.32 189.881 118.776H191.801C190.809 119.864 189.289 120.776 187.241 121.496L188.297 122.792C190.729 121.816 192.505 120.472 193.625 118.776H195.177C193.961 120.952 192.057 122.44 189.465 123.24L190.409 124.648C193.353 123.688 195.529 121.72 196.905 118.776H198.041C197.977 120.536 197.833 121.688 197.609 122.232C197.385 122.744 196.937 123.016 196.249 123.016C195.641 123.016 195.001 122.984 194.345 122.936L194.761 124.504H197.049C197.817 124.472 198.361 124.248 198.697 123.832C199.033 123.4 199.289 122.648 199.449 121.576C199.593 120.488 199.689 119.064 199.737 117.304H191.513C191.769 117.016 192.009 116.696 192.233 116.376H198.521V110.344H188.393V116.376H190.281ZM196.873 114.968H190.041V114.008H196.873V114.968ZM190.041 112.696V111.752H196.873V112.696H190.041Z" fill="white"/>
<path d="M54.78 45.436H47.148V44.698H54.78V45.436ZM54.78 47.488H47.148V46.732H54.78V47.488ZM56.922 43.33H45.096V48.856H56.922V43.33ZM55.896 53.518C55.572 54.166 55.158 54.76 54.672 55.282C54.186 54.76 53.772 54.166 53.466 53.518H55.896ZM46.356 55.66H48.696V56.362C47.904 56.434 47.112 56.488 46.356 56.542V55.66ZM46.356 53.428H48.696V54.184H46.356V53.428ZM48.696 51.214V51.934H46.356V51.214H48.696ZM57.156 51.808L56.796 51.88H51.198V53.518H52.854L51.666 53.842C52.098 54.832 52.656 55.732 53.304 56.506C52.548 57.064 51.666 57.496 50.748 57.802V51.214H58.992V49.522H42.99V51.214H44.394V56.686C43.836 56.74 43.296 56.758 42.828 56.794L42.99 58.63C44.574 58.486 46.626 58.306 48.696 58.108V59.566H50.748V58.108C51.108 58.54 51.504 59.134 51.702 59.548C52.818 59.134 53.844 58.576 54.762 57.874C55.716 58.612 56.832 59.17 58.11 59.548C58.398 59.044 58.956 58.27 59.37 57.874C58.182 57.586 57.102 57.136 56.202 56.542C57.21 55.408 57.984 54.004 58.47 52.312L57.156 51.808Z" fill="#FFC232"/>
<path d="M52.53 87.65H49.416V86.48H52.53V87.65ZM58.29 82.466H43.854V90.566H45.942V84.248H56.13V88.262C56.13 88.478 56.058 88.532 55.788 88.55C55.59 88.568 55.032 88.568 54.42 88.55V85.058H47.544V89.9H49.416V89.09H54.06C54.258 89.558 54.42 90.116 54.474 90.53C55.77 90.53 56.724 90.512 57.39 90.188C58.092 89.864 58.29 89.288 58.29 88.298V82.466ZM53.736 80.27H48.12V79.172H53.736V80.27ZM46.086 77.75V81.71H55.914V77.75H46.086ZM51.972 75.248V73.736H49.794V75.248H43.134V77.066H58.866V75.248H51.972Z" fill="#FFC232"/>
</svg>
