<svg width="223" height="162" viewBox="0 0 223 162" fill="none" xmlns="http://www.w3.org/2000/svg">
<path d="M70.2651 131.637L74.4776 132.769L70.8451 156.304C70.5114 158.466 68.6508 160.061 66.4633 160.061C63.4015 160.061 61.2613 157.032 62.2845 154.146L70.2651 131.637Z" fill="#284273"/>
<path d="M149.446 131.637L145.233 132.769L148.866 156.304C149.2 158.466 151.06 160.061 153.248 160.061C156.31 160.061 158.45 157.032 157.427 154.146L149.446 131.637Z" fill="#284273"/>
<path d="M0.444794 115.336C-0.866198 129.098 9.95575 141 23.78 141H199.22C213.044 141 223.866 129.098 222.555 115.336L214.6 31.8269C212.881 13.7812 197.724 0 179.597 0H43.4029C25.2755 0 10.1191 13.7812 8.40007 31.8269L0.444794 115.336Z" fill="#698FC8"/>
<path fill-rule="evenodd" clip-rule="evenodd" d="M199.22 136.312H23.78C12.7206 136.312 4.06304 126.79 5.11184 115.781L13.0671 32.2714C14.557 16.6319 27.6925 4.68817 43.4029 4.68817H179.597C195.307 4.68817 208.443 16.6319 209.933 32.2714L217.888 115.781C218.937 126.79 210.279 136.312 199.22 136.312ZM23.78 141C9.95575 141 -0.866198 129.098 0.444794 115.336L8.40007 31.8269C10.1191 13.7812 25.2755 0 43.4029 0H179.597C197.724 0 212.881 13.7812 214.6 31.8269L222.555 115.336C223.866 129.098 213.044 141 199.22 141H23.78Z" fill="#5F83BA"/>
<path d="M114.006 92H76.3027V83.8359L93.6699 65.5781C97.9499 60.7044 100.09 56.8327 100.09 53.9629C100.09 51.6374 99.5827 49.8685 98.5684 48.6562C97.554 47.444 96.082 46.8379 94.1523 46.8379C92.2474 46.8379 90.7012 47.6543 89.5137 49.2871C88.3262 50.8952 87.7324 52.9115 87.7324 55.3359H75.1895C75.1895 52.0208 76.0182 48.9655 77.6758 46.1699C79.3333 43.3496 81.6341 41.1478 84.5781 39.5645C87.5221 37.9811 90.8125 37.1895 94.4492 37.1895C100.288 37.1895 104.778 38.5378 107.92 41.2344C111.087 43.931 112.67 47.8027 112.67 52.8496C112.67 54.9772 112.274 57.0553 111.482 59.084C110.691 61.0879 109.454 63.2031 107.771 65.4297C106.114 67.6315 103.43 70.5879 99.7188 74.2988L92.7422 82.3516H114.006V92Z" fill="#FFC232"/>
<path d="M126.318 74.7734C126.318 73.4551 126.748 72.3906 127.607 71.5801C128.467 70.7695 129.619 70.3643 131.064 70.3643C132.529 70.3643 133.687 70.7695 134.536 71.5801C135.386 72.3809 135.811 73.4697 135.811 74.8467V75.9014C135.811 77.2197 135.386 78.2793 134.536 79.0801C133.687 79.8809 132.539 80.2812 131.094 80.2812C129.658 80.2812 128.501 79.8857 127.622 79.0947C126.753 78.2939 126.318 77.2002 126.318 75.8135V74.7734ZM129.497 75.9014C129.497 76.4092 129.639 76.8242 129.922 77.1465C130.205 77.459 130.596 77.6152 131.094 77.6152C132.119 77.6152 132.632 76.9609 132.632 75.6523V74.7734C132.632 74.2656 132.495 73.8506 132.222 73.5283C131.948 73.1963 131.562 73.0303 131.064 73.0303C130.586 73.0303 130.205 73.1914 129.922 73.5137C129.639 73.8262 129.497 74.2559 129.497 74.8027V75.9014ZM136.455 86.7705C136.455 85.4424 136.885 84.3779 137.744 83.5771C138.613 82.7764 139.766 82.376 141.201 82.376C142.656 82.376 143.813 82.7715 144.673 83.5625C145.532 84.3535 145.962 85.457 145.962 86.873V87.8984C145.962 89.2266 145.537 90.291 144.688 91.0918C143.838 91.8926 142.686 92.293 141.23 92.293C139.795 92.293 138.638 91.8975 137.759 91.1064C136.89 90.3057 136.455 89.2119 136.455 87.8252V86.7705ZM139.619 87.8984C139.619 88.3574 139.775 88.7627 140.088 89.1143C140.4 89.4561 140.781 89.627 141.23 89.627C142.178 89.627 142.69 89.1777 142.769 88.2793L142.783 86.7705C142.783 86.2529 142.642 85.8379 142.358 85.5254C142.075 85.2031 141.689 85.042 141.201 85.042C140.732 85.042 140.356 85.1934 140.073 85.4961C139.79 85.7891 139.639 86.1895 139.619 86.6973V87.8984ZM132.031 90.4033L129.731 89.2461L140.146 72.5762L142.446 73.7334L132.031 90.4033Z" fill="#FFC232"/>
<path d="M154 48.7639C154 56.9178 147.39 63.5278 139.236 63.5278C131.082 63.5278 124.472 56.9178 124.472 48.7639C124.472 40.61 131.082 34 139.236 34C147.39 34 154 40.61 154 48.7639Z" fill="#FFC232"/>
<path fill-rule="evenodd" clip-rule="evenodd" d="M139.236 62.3443C146.736 62.3443 152.817 56.2641 152.817 48.7639C152.817 41.2637 146.736 35.1835 139.236 35.1835C131.736 35.1835 125.656 41.2637 125.656 48.7639C125.656 56.2641 131.736 62.3443 139.236 62.3443ZM139.236 63.5278C147.39 63.5278 154 56.9178 154 48.7639C154 40.61 147.39 34 139.236 34C131.082 34 124.472 40.61 124.472 48.7639C124.472 56.9178 131.082 63.5278 139.236 63.5278Z" fill="black"/>
<path fill-rule="evenodd" clip-rule="evenodd" d="M145.719 36.7107H135.215V35.5272H145.719V36.7107Z" fill="black"/>
<path fill-rule="evenodd" clip-rule="evenodd" d="M150.124 39.7604H135.893V38.5769H150.124V39.7604Z" fill="black"/>
<path fill-rule="evenodd" clip-rule="evenodd" d="M152.157 43.1489H135.893V41.9654H152.157V43.1489Z" fill="black"/>
<path fill-rule="evenodd" clip-rule="evenodd" d="M153.174 46.5374H135.554V45.3539H153.174V46.5374Z" fill="black"/>
<path fill-rule="evenodd" clip-rule="evenodd" d="M153.513 49.9259H135.554V48.7424H153.513V49.9259Z" fill="black"/>
<path fill-rule="evenodd" clip-rule="evenodd" d="M153.174 53.3144H135.215V52.1309H153.174V53.3144Z" fill="black"/>
<path fill-rule="evenodd" clip-rule="evenodd" d="M151.48 56.7029H134.876V55.5193H151.48V56.7029Z" fill="black"/>
<path d="M151.528 50.1192C151.528 58.2731 144.918 64.8831 136.764 64.8831C128.61 64.8831 122 58.2731 122 50.1192C122 41.9654 128.61 35.3553 136.764 35.3553C144.918 35.3553 151.528 41.9654 151.528 50.1192Z" fill="#FFC232"/>
<path fill-rule="evenodd" clip-rule="evenodd" d="M136.764 63.6996C144.264 63.6996 150.344 57.6195 150.344 50.1192C150.344 42.619 144.264 36.5389 136.764 36.5389C129.264 36.5389 123.184 42.619 123.184 50.1192C123.184 57.6195 129.264 63.6996 136.764 63.6996ZM136.764 64.8831C144.918 64.8831 151.528 58.2731 151.528 50.1192C151.528 41.9654 144.918 35.3553 136.764 35.3553C128.61 35.3553 122 41.9654 122 50.1192C122 58.2731 128.61 64.8831 136.764 64.8831Z" fill="black"/>
<path d="M141.927 44.4002V46.9187H137.97V57.523H135.016V46.9187H131.058V44.4002H141.927Z" fill="white"/>
<path fill-rule="evenodd" clip-rule="evenodd" d="M143.505 42.8222V48.4968H139.548V59.1011H133.437V48.4968H129.48V42.8222H143.505ZM135.016 46.9187V57.523H137.97V46.9187H141.927V44.4002H131.058V46.9187H135.016Z" fill="black"/>
<path fill-rule="evenodd" clip-rule="evenodd" d="M199.867 30.8057C198.071 20.5123 189.135 13 178.686 13H177.5C176.672 13 176 13.6716 176 14.5C176 15.3284 176.672 16 177.5 16H178.686C187.677 16 195.366 22.4641 196.911 31.3212L201.522 57.7577C201.665 58.5738 202.442 59.12 203.258 58.9777C204.074 58.8353 204.62 58.0584 204.478 57.2423L199.867 30.8057Z" fill="#80A4DA"/>
<path d="M75.72 116.296V117.96H90.264V116.296H75.72Z" fill="white"/>
<path d="M98.888 113.384L97.64 113.8C97.944 114.536 98.2 115.288 98.408 116.072L99.656 115.752C99.432 114.856 99.176 114.072 98.888 113.384ZM98.888 118.776L97.624 119.192C97.944 120.12 98.216 121.08 98.44 122.088L99.768 121.736C99.512 120.616 99.208 119.64 98.888 118.776ZM97.96 109.752C97.864 110.296 97.736 110.84 97.576 111.352H95.864V116.792L94.824 116.856L95.032 118.344L95.848 118.296C95.752 120.376 95.384 122.136 94.744 123.544L95.992 124.68C96.824 123 97.272 120.84 97.368 118.184C98.264 118.12 99.128 118.04 99.976 117.96V122.6C99.976 122.968 99.848 123.16 99.608 123.16C99.192 123.16 98.744 123.128 98.264 123.096L98.664 124.616H100.088C101.016 124.616 101.496 124.12 101.496 123.144V117.784L102.056 117.72V116.264L101.496 116.328V111.352H99.256C99.432 110.936 99.576 110.472 99.672 109.992L97.96 109.752ZM97.384 116.696V112.888H99.976V116.488C99.16 116.552 98.296 116.632 97.384 116.696ZM103.4 110.472C103.4 111.72 103.32 112.632 103.176 113.208C103.016 113.784 102.648 114.392 102.104 115.032L103.4 116.2C104.104 115.464 104.552 114.808 104.728 114.264C104.904 113.752 105 112.984 105 111.976H106.536V114.04C106.536 115.224 107.128 115.816 108.344 115.816H109.592V114.264H108.824C108.376 114.264 108.152 114.056 108.152 113.672V110.472H103.4ZM102.52 116.68V118.184H102.824C103.176 119.528 103.848 120.76 104.84 121.848C104.104 122.456 103.224 122.984 102.184 123.4L103.08 124.792C104.232 124.328 105.224 123.736 106.072 123.016C106.824 123.624 107.704 124.184 108.712 124.696L109.56 123.208C108.68 122.776 107.896 122.312 107.224 121.8C108.024 120.776 108.6 119.544 108.936 118.104V116.68H102.52ZM104.36 118.184H107.304C107 119.112 106.552 119.944 105.976 120.696C105.256 119.928 104.712 119.096 104.36 118.184Z" fill="white"/>
<path d="M116.856 118.136C116.12 120.056 115.256 121.96 114.264 123.816L115.8 124.504C116.728 122.696 117.56 120.76 118.328 118.712L116.856 118.136ZM115.736 109.992L114.552 111.144C115.768 112.008 116.696 112.808 117.352 113.56L118.536 112.36C117.768 111.576 116.84 110.792 115.736 109.992ZM115.288 113.736L114.104 114.888C115.24 115.768 116.12 116.584 116.744 117.32L117.928 116.136C117.208 115.336 116.328 114.536 115.288 113.736ZM122.824 109.88V113.992H119.336V118.024C119.304 120.232 118.856 122.072 117.976 123.512L119.256 124.68C120.04 123.416 120.552 121.848 120.776 119.992L121.128 121.496C122.968 121.272 124.728 121 126.392 120.696V122.456C126.392 122.872 126.136 123.08 125.656 123.08C125.128 123.08 124.552 123.048 123.944 123L124.392 124.584H126.152C127.368 124.584 127.992 124.056 127.992 123.032V113.992H124.408V109.88H122.824ZM119.848 110.264L118.488 110.92C119.112 111.72 119.688 112.6 120.232 113.592L121.544 112.952C121 111.976 120.44 111.08 119.848 110.264ZM127.384 110.28C126.936 111.176 126.312 112.088 125.528 113.016L126.808 113.672C127.576 112.776 128.216 111.864 128.712 110.904L127.384 110.28ZM125.56 117.368C124.664 117.192 123.912 117.064 123.32 116.968C122.792 116.904 121.992 116.808 120.904 116.696V115.496H126.392V119.24C124.568 119.56 122.696 119.784 120.776 119.944C120.84 119.336 120.888 118.712 120.904 118.04C121.464 118.072 122.008 118.136 122.52 118.216C123.384 118.344 124.216 118.488 125.016 118.648L125.56 117.368Z" fill="white"/>
<path d="M135.944 113.368H138.056V113.592C138.04 113.72 138.008 113.848 137.976 113.992H135.768L135.944 113.368ZM139.608 113.368H141.512V113.992H139.56L139.608 113.592V113.368ZM143.064 113.368H146.6V110.456H143.064V109.88H141.512V110.456H139.608V109.88H138.056V110.456H134.312V111.672H138.056V112.296H134.712L134.12 115.096H137.224C137.176 115.128 137.128 115.176 137.064 115.224C136.472 115.608 135.32 115.928 133.608 116.2L134.312 117.288L135.32 117.096V122.632H137.736C136.632 122.984 135.144 123.288 133.272 123.544L133.976 124.76C136.216 124.408 137.944 123.928 139.144 123.352L138.6 122.632H142.088L141.672 123.4C143.656 123.72 145.544 124.168 147.368 124.776L147.88 123.512C146.536 123.16 145.128 122.856 143.688 122.632H145.976V116.824H136.424C137.176 116.6 137.784 116.328 138.248 116.008C138.6 115.752 138.888 115.448 139.128 115.096H141.512V116.504H143.064V115.096H145.88C145.88 115.256 145.832 115.384 145.752 115.48C145.656 115.544 145.4 115.592 144.984 115.592C144.68 115.592 144.36 115.576 144.008 115.56L144.264 116.504C144.552 116.52 144.856 116.536 145.16 116.536C146.056 116.52 146.616 116.36 146.856 116.072C147.096 115.768 147.224 115.08 147.224 113.992H143.064V113.368ZM139.608 111.672H141.512V112.296H139.608V111.672ZM143.064 111.672H145.224V112.296H143.064V111.672ZM144.408 121.48H136.904V120.92H144.408V121.48ZM136.904 119.928V119.432H144.408V119.928H136.904ZM136.904 118.408V117.896H144.408V118.408H136.904Z" fill="white"/>
</svg>
