<svg width="155" height="79" viewBox="0 0 155 79" fill="none" xmlns="http://www.w3.org/2000/svg">
<g filter="url(#filter0_d)">
<path d="M70.9239 35.4619C70.9239 49.5242 59.5242 60.9239 45.4619 60.9239C31.3997 60.9239 20 49.5242 20 35.4619C20 21.3997 31.3997 10 45.4619 10C59.5242 10 70.9239 21.3997 70.9239 35.4619Z" fill="white"/>
<path d="M108.956 35.4619C108.956 49.5242 97.5559 60.9239 83.4937 60.9239C69.4315 60.9239 58.0318 49.5242 58.0318 35.4619C58.0318 21.3997 69.4315 10 83.4937 10C97.5559 10 108.956 21.3997 108.956 35.4619Z" fill="white"/>
<path d="M146.987 35.4619C146.987 49.5242 135.588 60.9239 121.525 60.9239C107.463 60.9239 96.0635 49.5242 96.0635 35.4619C96.0635 21.3997 107.463 10 121.525 10C135.588 10 146.987 21.3997 146.987 35.4619Z" fill="white"/>
</g>
<defs>
<filter id="filter0_d" x="0" y="0" width="154.987" height="78.9239" filterUnits="userSpaceOnUse" color-interpolation-filters="sRGB">
<feFlood flood-opacity="0" result="BackgroundImageFix"/>
<feColorMatrix in="SourceAlpha" type="matrix" values="0 0 0 0 0 0 0 0 0 0 0 0 0 0 0 0 0 0 127 0" result="hardAlpha"/>
<feOffset dx="-6" dy="4"/>
<feGaussianBlur stdDeviation="7"/>
<feComposite in2="hardAlpha" operator="out"/>
<feColorMatrix type="matrix" values="0 0 0 0 0.31901 0 0 0 0 0.387734 0 0 0 0 0.4375 0 0 0 0.15 0"/>
<feBlend mode="normal" in2="BackgroundImageFix" result="effect1_dropShadow"/>
<feBlend mode="normal" in="SourceGraphic" in2="effect1_dropShadow" result="shape"/>
</filter>
</defs>
</svg>
