<svg width="145" height="41" viewBox="0 0 145 41" fill="none" xmlns="http://www.w3.org/2000/svg">
<path d="M41.6119 25.142C41.3479 27.386 40.9299 29.366 40.2919 31.082C39.7419 30.686 39.1919 30.312 38.6639 29.982C39.0159 28.442 39.3679 26.814 39.7199 25.142H41.6119ZM42.6459 22.678L42.2059 22.744H40.2259C40.5119 21.314 40.7759 19.906 40.9959 18.608L38.5319 18.388C38.3339 19.73 38.0699 21.226 37.7839 22.744H35.6059V25.142H37.3219C36.7939 27.694 36.2439 30.158 35.7379 31.962L37.8939 33.084L38.0699 32.402C38.4659 32.688 38.8619 32.996 39.2579 33.304C38.3339 34.91 37.1459 36.142 35.6719 36.912C36.1999 37.396 36.8819 38.32 37.2339 38.98C38.8619 37.968 40.1819 36.67 41.2379 34.954C42.0299 35.702 42.7119 36.428 43.1739 37.044L44.7579 34.932C44.2079 34.228 43.3499 33.436 42.3819 32.644C43.3939 30.114 43.9879 26.924 44.2299 22.92L42.6459 22.678ZM56.0219 27.078H51.1819V25.824C52.7219 24.372 54.3499 22.326 55.5159 20.61L53.7999 19.334L53.2719 19.466H44.6699V21.886H51.5119C50.8959 22.81 50.1259 23.778 49.3999 24.526H48.5859V27.078H43.9439V29.542H48.5859V35.966C48.5859 36.274 48.4759 36.362 48.1019 36.362C47.7499 36.384 46.5839 36.362 45.4619 36.318C45.8359 37.044 46.2759 38.166 46.4079 38.892C48.0139 38.914 49.2019 38.826 50.0819 38.408C50.9399 38.012 51.1819 37.308 51.1819 35.988V29.542H56.0219V27.078ZM71.9279 28.97C71.3119 30.378 70.4319 31.632 69.3979 32.666C68.1879 31.632 67.2419 30.378 66.4939 28.97H71.9279ZM73.6439 26.33L73.1599 26.44H65.4599C65.6359 25.648 65.7679 24.9 65.8779 24.174H77.2739V21.622H66.1639C66.2959 20.28 66.3399 19.136 66.3839 18.344H63.6559C63.6119 19.026 63.5899 20.192 63.4799 21.622H58.1559V24.174H63.1719C62.5779 28.178 61.1259 33.15 57.3199 36.274C58.1779 36.758 59.0139 37.44 59.5639 38.122C61.9399 35.966 63.4579 33.084 64.4699 30.18C65.2619 31.786 66.2519 33.15 67.3959 34.338C65.8779 35.394 64.0959 36.186 62.1599 36.67C62.6659 37.198 63.3039 38.232 63.6339 38.892C65.7899 38.232 67.7699 37.286 69.4639 36.054C71.3339 37.33 73.5339 38.254 76.1739 38.826C76.5259 38.122 77.2959 37 77.8679 36.45C75.4039 36.01 73.3139 35.262 71.5539 34.25C73.2919 32.402 74.6119 30.07 75.4259 27.1L73.6439 26.33ZM86.4259 27.826L84.7539 28.266V24.922H86.4479V22.524H84.7539V18.388H82.2459V22.524H79.6939V24.922H82.2459V28.882C81.1239 29.146 80.0899 29.388 79.2539 29.564L79.8039 32.094L82.2459 31.434V35.944C82.2459 36.274 82.1359 36.362 81.8719 36.362C81.5859 36.384 80.6839 36.384 79.8259 36.34C80.1559 37.066 80.4859 38.188 80.5519 38.892C82.0699 38.892 83.1039 38.804 83.8299 38.364C84.5339 37.968 84.7539 37.264 84.7539 35.966V30.73C85.4139 30.532 86.0739 30.356 86.7119 30.158L86.4259 27.826ZM90.5619 33.26H93.1139V35.438H90.5619V33.26ZM93.1139 26.726H90.5619V24.68H93.1139V26.726ZM93.1139 31.06H90.5619V28.926H93.1139V31.06ZM99.9339 35.438H95.5339V33.26H98.9659V31.06H95.5339V28.926H98.9659V26.726H95.5339V24.68H99.5379V22.37H95.7979C96.3039 21.314 96.8099 20.126 97.2939 18.982L94.5219 18.41C94.2139 19.598 93.7079 21.094 93.2019 22.37H90.7819C91.2659 21.248 91.6839 20.104 92.0139 18.938L89.5059 18.344C88.6919 21.336 87.2399 24.284 85.4359 26.11C85.9419 26.66 86.7559 27.848 87.0859 28.42C87.4159 28.068 87.7459 27.672 88.0539 27.254V38.892H90.5619V37.814H99.9339V35.438ZM105.786 38.958C106.842 38.144 107.524 36.912 108.008 35.746L106.094 34.954C105.698 35.988 104.928 37.132 103.982 37.792L105.786 38.958ZM108.58 35.504C108.8 36.494 108.954 37.836 108.91 38.694L110.956 38.386C110.934 37.55 110.758 36.23 110.516 35.24L108.58 35.504ZM111.374 35.504C111.792 36.384 112.21 37.572 112.342 38.342L114.256 37.748C114.08 36.978 113.64 35.812 113.178 34.976L111.374 35.504ZM105.544 27.98V27.254H108.14V28.31H105.544V27.98ZM108.14 24.9V25.802H105.544V24.9H108.14ZM112.892 25.802H110.34V24.9H112.892V25.802ZM117.864 27.254V28.31H115.114V27.254H117.864ZM110.34 28.31V27.254H112.892V28.31H110.34ZM109.504 29.74H120.416V25.802H115.114V24.9H121.318V23.14H112.848V22.084H110.406V23.14H103.102V27.98C103.102 30.752 102.948 34.69 101.21 37.44C101.804 37.682 102.882 38.32 103.344 38.716C104.884 36.252 105.39 32.688 105.5 29.74H107.062C106.732 31.434 106.248 33.436 105.808 34.756L108.184 34.976L108.272 34.646H115.466L114.146 35.196C114.63 35.812 115.18 36.67 115.422 37.242L117.16 36.428C116.918 35.922 116.412 35.196 115.906 34.646H118.612C118.48 36.032 118.304 36.648 118.106 36.868C117.952 37.022 117.798 37.044 117.512 37.044C117.226 37.044 116.676 37.044 116.016 36.978C116.324 37.506 116.522 38.298 116.566 38.87C117.446 38.914 118.282 38.892 118.744 38.826C119.294 38.782 119.734 38.628 120.13 38.21C120.614 37.704 120.878 36.45 121.076 33.744C121.12 33.48 121.142 32.952 121.142 32.952H108.734L108.932 32.182H121.406V30.532H109.328L109.504 29.74ZM116.94 19.51V18.366H114.322V19.51H109.196V18.366H106.6V19.51H102.002V21.578H106.6V22.722H109.196V21.578H114.322V22.722H116.94V21.578H121.494V19.51H116.94ZM141.184 22.37H139.864V21.38H141.184V22.37ZM141.184 24.878H139.864V23.866H141.184V24.878ZM134.254 23.866H135.486V24.878H134.254V23.866ZM134.254 21.38H135.486V22.37H134.254V21.38ZM138.324 23.866V24.878H137.004V23.866H138.324ZM137.004 22.37V21.38H138.324V22.37H137.004ZM143.362 19.774H140.282V18.366H138.324V19.774H137.026V18.366H135.09V19.774H132.186V26.484H143.362V19.774ZM143.714 27.21H131.856V29.19H143.714V27.21ZM130.932 19.752H124.222V21.996H130.932V19.752ZM123.98 30.07C123.98 31.962 123.892 34.206 123.32 35.966C123.76 36.208 124.442 36.736 124.772 37.088C125.542 34.998 125.674 32.38 125.674 30.136V27.496H123.98V30.07ZM129.634 35.636H131.284V27.474H129.634V35.636ZM123.694 26.374H126.554V38.892H128.71V26.374H131.35V24.086H123.694V26.374ZM139.534 34.096C139.314 34.822 138.94 35.768 138.632 36.406L139.16 36.56H136.3L136.872 36.384C136.74 35.768 136.388 34.822 135.948 34.096H139.534ZM135.024 31.456H140.48V32.556H135.024V31.456ZM140.81 36.56C141.118 35.988 141.492 35.262 141.888 34.492L140.414 34.096H142.724V29.916H132.846V34.096H135.266L133.836 34.47C134.188 35.086 134.496 35.9 134.672 36.56H131.416V38.496H144.022V36.56H140.81Z" fill="#266DD7"/>
<path fill-rule="evenodd" clip-rule="evenodd" d="M25.8967 22.8201C25.5943 20.9643 23.9891 19.7347 21.7259 20.1048L18.0059 20.7131L18.026 20.624C18.0461 20.5357 18.1037 20.2927 18.1598 20.0566L18.1598 20.0562C18.2095 19.8471 18.2578 19.6435 18.2776 19.5576C18.416 18.957 18.5101 18.476 18.5728 18.0046C18.6675 17.2921 18.6793 16.6622 18.5859 16.0885C18.3213 14.4648 17.0576 13.636 15.3609 13.4704C14.5956 13.3957 13.9487 13.4493 13.2045 13.5711L12.6241 13.666L12.3278 14.1378C11.9932 14.6708 11.3237 15.6423 10.5517 16.7623L10.5517 16.7623L10.5517 16.7623C9.15071 18.7951 7.4125 21.3171 6.72735 22.5951C6.61043 22.6002 6.49209 22.6128 6.37299 22.6331L3.89333 23.0562C2.52386 23.2899 1.57094 24.4639 1.76493 25.6785L3.34556 35.5748C3.53955 36.7894 4.80699 37.5846 6.17647 37.3509L8.65613 36.9278C9.41781 36.7978 10.0506 36.377 10.4289 35.82C10.7587 35.9294 11.1104 36.0122 11.4808 36.0694C12.5546 36.2351 13.5825 36.1718 14.4198 36.0205L22.852 34.6424C26.1871 34.0971 26.965 29.3762 25.8967 22.8201ZM9.2039 24.4092L10.6327 33.3547C10.9535 33.6165 11.393 33.7778 11.9524 33.864C12.6848 33.9769 13.4421 33.9304 13.9712 33.835L14.0158 33.827L22.4998 32.4409C23.7301 32.2399 24.3462 28.5035 23.484 23.217C23.3687 22.5107 22.9297 22.1747 22.092 22.3115L17.244 23.1036C15.7962 23.3401 15.3271 22.3704 15.449 21.2175C15.4777 20.9463 15.5349 20.6437 15.6293 20.2299C15.6519 20.1306 15.7142 19.8684 15.7722 19.6239C15.8199 19.4233 15.8646 19.2347 15.8824 19.1578C16.0074 18.6159 16.09 18.1937 16.1426 17.7988C16.2129 17.2704 16.2211 16.832 16.1641 16.4827C16.083 15.985 15.7516 15.7679 15.0271 15.6973C14.7227 15.6676 14.4285 15.6719 14.1204 15.7009C13.5959 16.4991 12.8373 17.5969 12.0566 18.7269L12.0566 18.727L12.0565 18.727L12.0565 18.727C10.656 20.754 9.18413 22.8843 8.86363 23.574C9.03582 23.8186 9.15457 24.1003 9.2039 24.4092ZM5.74088 35.1759L4.18328 25.2785L6.80928 24.8092L8.36687 34.7066L5.74088 35.1759Z" fill="#4084EB"/>
<path d="M21.9772 -0.000976562L25.9999 2.87365L22.3547 9.79708L20.1216 8.93197L21.9772 -0.000976562Z" fill="#72A4EF"/>
<path d="M33.5775 10.3037L30.5722 7.14634L24.9776 11.1822L26.0081 13.025L33.5775 10.3037Z" fill="#72A4EF"/>
</svg>
