<svg width="145" height="33" viewBox="0 0 145 33" fill="none" xmlns="http://www.w3.org/2000/svg">
<path d="M42.4134 8.678C42.2374 9.426 41.8854 10.438 41.5994 11.098L43.0514 11.406H38.7394L39.8394 11.098C39.7514 10.438 39.4654 9.426 39.0914 8.678H42.4134ZM42.1274 17.456H45.7574V15.256H42.1274V13.562H45.9554V11.406H43.7334C44.0414 10.746 44.3934 9.866 44.7894 8.92L43.5134 8.678H45.7794V6.544H42.1274V4.542H39.5974V6.544H35.9014V8.678H38.3654L37.0234 8.986C37.3314 9.734 37.5954 10.68 37.6834 11.406H35.6594V13.562H39.5974V15.256H35.7254V17.456H39.0694C38.0574 19.106 36.5394 20.756 35.1094 21.702C35.6594 22.12 36.4074 22.978 36.8034 23.55C37.7494 22.78 38.7394 21.68 39.5974 20.448V24.87H42.1274V20.184C42.7654 20.8 43.3814 21.46 43.7334 21.9L45.2514 20.03C44.7454 19.634 42.9194 18.182 42.1274 17.632V17.456ZM55.9434 11.604H49.0794V8.524C51.3894 8.04 53.8974 7.358 55.8334 6.5L53.7434 4.586C52.4014 5.312 50.2234 6.016 48.1334 6.522L46.6154 6.104V13.716C46.6154 16.752 46.3514 20.492 43.8214 23.176C44.4154 23.484 45.3614 24.386 45.6914 24.958C48.5954 21.944 49.0574 17.302 49.0794 14.024H51.3234V24.782H53.8534V14.024H55.9434V11.604ZM62.9394 15.806C63.0494 14.64 63.0934 13.54 63.0934 12.594H72.7734V15.806H62.9394ZM63.0934 10.174V8.634C67.1634 8.15 71.6294 7.38 74.9734 6.346L72.8834 4.388C70.2874 5.29 66.0854 6.082 62.1694 6.566L60.4314 6.082V12.484C60.4314 15.674 60.1674 20.008 57.4614 23.132C58.1214 23.462 59.1554 24.342 59.5514 24.914C61.2234 23.044 62.1034 20.602 62.5874 18.226H72.7734V19.348H75.4354V10.174H63.0934ZM88.9434 22.714C89.8234 20.734 90.2854 18.468 90.5054 16.334C91.0994 17.852 91.8254 19.238 92.7054 20.426C91.6054 21.416 90.3294 22.186 88.9434 22.714ZM92.7274 9.844V12.902H90.6814V12.594V9.844H92.7274ZM96.1374 15.19C95.6974 16.422 95.1034 17.544 94.3994 18.534C93.6294 17.544 93.0134 16.4 92.5294 15.19H96.1374ZM97.5674 12.814L97.1274 12.902H95.2574V9.844H97.0394C96.8634 10.658 96.6874 11.45 96.5334 12.044L98.7554 12.484C99.1734 11.274 99.6354 9.404 99.9874 7.754L98.1174 7.402L97.7214 7.468H95.2574V4.41H92.7274V7.468H88.2174V12.572V13.408L86.7874 12.374C86.4794 12.968 85.9954 13.76 85.5334 14.442L85.0494 13.87C86.0394 12.374 86.8974 10.724 87.5134 9.052L86.1494 8.128L85.7094 8.238H84.6974V4.432H82.2114V8.238H79.7034V10.57H84.4114C83.1354 12.99 81.1334 15.344 79.1094 16.664C79.4834 17.148 80.0774 18.402 80.2754 19.084C80.9354 18.6 81.5954 18.006 82.2334 17.346V24.892H84.7194V16.532C85.2914 17.368 85.8414 18.204 86.1714 18.82L87.6674 17.082C87.4694 16.84 87.0514 16.312 86.5674 15.718C87.0734 15.124 87.6454 14.398 88.2174 13.672C88.1514 16.774 87.7334 20.734 85.5554 23.55C86.1494 23.792 87.2274 24.452 87.6674 24.87C88.1514 24.232 88.5694 23.528 88.8994 22.78C89.4494 23.308 90.0654 24.254 90.3954 24.892C91.8914 24.232 93.2554 23.418 94.4214 22.362C95.5874 23.44 96.9734 24.298 98.5794 24.914C98.9534 24.21 99.7234 23.176 100.317 22.648C98.7334 22.142 97.3694 21.394 96.2254 20.426C97.6334 18.578 98.6894 16.268 99.2834 13.386L97.5674 12.814ZM108.391 13.826L106.719 14.266V10.922H108.413V8.524H106.719V4.388H104.211V8.524H101.659V10.922H104.211V14.882C103.089 15.146 102.055 15.388 101.219 15.564L101.769 18.094L104.211 17.434V21.944C104.211 22.274 104.101 22.362 103.837 22.362C103.551 22.384 102.649 22.384 101.791 22.34C102.121 23.066 102.451 24.188 102.517 24.892C104.035 24.892 105.069 24.804 105.795 24.364C106.499 23.968 106.719 23.264 106.719 21.966V16.73C107.379 16.532 108.039 16.356 108.677 16.158L108.391 13.826ZM112.527 19.26H115.079V21.438H112.527V19.26ZM115.079 12.726H112.527V10.68H115.079V12.726ZM115.079 17.06H112.527V14.926H115.079V17.06ZM121.899 21.438H117.499V19.26H120.931V17.06H117.499V14.926H120.931V12.726H117.499V10.68H121.503V8.37H117.763C118.269 7.314 118.775 6.126 119.259 4.982L116.487 4.41C116.179 5.598 115.673 7.094 115.167 8.37H112.747C113.231 7.248 113.649 6.104 113.979 4.938L111.471 4.344C110.657 7.336 109.205 10.284 107.401 12.11C107.907 12.66 108.721 13.848 109.051 14.42C109.381 14.068 109.711 13.672 110.019 13.254V24.892H112.527V23.814H121.899V21.438ZM141.149 8.37H139.829V7.38H141.149V8.37ZM141.149 10.878H139.829V9.866H141.149V10.878ZM134.219 9.866H135.451V10.878H134.219V9.866ZM134.219 7.38H135.451V8.37H134.219V7.38ZM138.289 9.866V10.878H136.969V9.866H138.289ZM136.969 8.37V7.38H138.289V8.37H136.969ZM143.327 5.774H140.247V4.366H138.289V5.774H136.991V4.366H135.055V5.774H132.151V12.484H143.327V5.774ZM143.679 13.21H131.821V15.19H143.679V13.21ZM130.897 5.752H124.187V7.996H130.897V5.752ZM123.945 16.07C123.945 17.962 123.857 20.206 123.285 21.966C123.725 22.208 124.407 22.736 124.737 23.088C125.507 20.998 125.639 18.38 125.639 16.136V13.496H123.945V16.07ZM129.599 21.636H131.249V13.474H129.599V21.636ZM123.659 12.374H126.519V24.892H128.675V12.374H131.315V10.086H123.659V12.374ZM139.499 20.096C139.279 20.822 138.905 21.768 138.597 22.406L139.125 22.56H136.265L136.837 22.384C136.705 21.768 136.353 20.822 135.913 20.096H139.499ZM134.989 17.456H140.445V18.556H134.989V17.456ZM140.775 22.56C141.083 21.988 141.457 21.262 141.853 20.492L140.379 20.096H142.689V15.916H132.811V20.096H135.231L133.801 20.47C134.153 21.086 134.461 21.9 134.637 22.56H131.381V24.496H143.987V22.56H140.775Z" fill="#266DD7"/>
<path fill-rule="evenodd" clip-rule="evenodd" d="M27.5816 7.21381C29.2163 5.663 29.9773 4.22993 29.8633 2.94034C29.7257 1.38158 28.4959 0.320551 26.98 0.432731C26.2502 0.489454 25.8696 0.583252 25.424 0.821995C25.1562 0.965469 24.9251 1.14799 24.7293 1.37219L24.1176 2.07285L23.3859 1.48202C23.1589 1.29871 22.9021 1.1574 22.6149 1.05672C22.1173 0.882299 21.6974 0.843336 21.0025 0.897348C19.4659 1.01679 18.4563 2.23327 18.5961 3.81614C18.71 5.10572 19.712 6.40176 21.5965 7.67903C22.5969 8.35711 23.856 9.01659 24.7591 9.371C25.5876 8.882 26.7138 8.03711 27.5816 7.21381Z" fill="#72A4EF"/>
<path fill-rule="evenodd" clip-rule="evenodd" d="M13.9629 10.1395C12.6517 10.6531 11.8389 11.1199 11.0018 11.8975C10.7547 12.127 10.5285 12.37 10.3243 12.6257C10.021 12.5806 9.71033 12.5569 9.39321 12.5543C8.23656 12.5448 7.2782 12.758 6.01303 13.2536C2.54401 14.6124 0.894125 17.9617 2.05191 21.0081C2.91955 23.2911 5.28686 24.8551 8.91351 25.8141C10.7917 26.3108 13.0673 26.6362 14.6334 26.6744L15.6854 26.7001L16.4477 25.9637C17.5827 24.8675 19.0533 23.0747 20.1161 21.4259C22.1683 18.2423 22.8874 15.4693 22.0198 13.1864C20.8735 10.1702 17.4063 8.80391 13.9629 10.1395ZM19.4979 14.1704C20.0876 15.7234 19.543 17.8245 17.857 20.441C16.9619 21.8301 15.7247 23.3553 14.7698 24.3127C13.4292 24.2544 11.5041 23.9678 9.92251 23.5488C6.94323 22.7595 5.15066 21.5739 4.56096 20.0209C3.83715 18.1146 4.79106 16.1774 6.82825 15.3795C7.74944 15.0187 8.33027 14.8896 9.06193 14.8958C9.48428 14.8994 9.8791 14.9663 10.248 15.0979L11.8906 16.2051L12.0271 14.3936C12.216 14.0325 12.4669 13.7082 12.7804 13.4168C13.3022 12.932 13.785 12.6547 14.7525 12.2757C16.7641 11.4956 18.7852 12.2932 19.4979 14.1704Z" fill="#4084EB"/>
</svg>
