<svg width="375" height="46" viewBox="0 0 375 46" fill="none" xmlns="http://www.w3.org/2000/svg">
<path d="M39.689 0.546271C39.689 0.244574 39.9336 0 40.2353 0H371.366C372.367 0 372.725 1.32428 371.859 1.82799L352.896 12.8648C342.008 19.2015 335.311 30.8487 335.311 43.446C335.311 44.3145 334.607 45.0186 333.738 45.0186H3.79652C2.90765 45.0186 2.64381 43.8083 3.45203 43.4384L15.7714 37.7991C30.344 31.1284 39.689 16.5731 39.689 0.546271Z" fill="#469BFF"/>
<path d="M96.6182 17.5328H98.3869V16.6913H100.001V17.5328H101.804V16.6913H103.624V15.2145H101.804V14.2186H100.001V15.2145H98.3869V14.2186H96.6182V15.2145H94.8838V16.6913H96.6182V17.5328ZM100.894 28.1107V27.4582H102.766V26.2561H100.894V25.6036H102.766V24.4016H100.894V23.7319H103.229V22.3924H101.049L101.547 21.4995L100.156 21.2076H102.663C103.126 21.4823 103.933 22.1005 104.277 22.444C104.826 21.551 105.29 20.4177 105.668 19.1469H105.84V20.9672C105.857 22.5298 105.41 25.9471 103.006 28.1107H100.894ZM97.7859 27.4582H99.194V28.1107H97.7859V27.4582ZM97.7859 24.4016V23.7319H99.194V24.4016H97.7859ZM97.7859 25.6036H99.194V26.2561H97.7859V25.6036ZM100.757 19.0096H101.735V20.0055H100.757V19.0096ZM96.6182 19.0096H97.5111V20.0055H96.6182V19.0096ZM107.797 19.1469H108.742C108.656 20.0742 108.553 21.0015 108.415 21.6884L109.858 22.5126C110.27 21.2247 110.579 19.3186 110.768 17.653L109.411 17.1721L109.119 17.2923H106.131C106.338 16.3651 106.492 15.4206 106.612 14.4418L104.603 14.1842C104.38 16.4166 103.916 18.6318 103.144 20.2631V17.7903H99.4172V21.2076H99.7263C99.6405 21.551 99.5031 21.9975 99.3485 22.3924H98.0435C98.1465 22.0833 98.2495 21.7914 98.3526 21.4823L97.3222 21.2076H98.9021V17.7903H95.2788V21.2076H96.6354C96.1889 22.7359 95.399 24.2127 94.506 25.1743C94.8151 25.5521 95.3303 26.4107 95.5192 26.7885C95.7081 26.5824 95.897 26.3592 96.0687 26.1359V30.1714H97.7859V29.5017H103.178V29.4845C103.35 29.7592 103.521 30.034 103.624 30.2229C105.651 28.7117 106.629 25.9127 106.836 24.4187C107.024 25.8784 107.849 28.7633 109.686 30.2229C109.978 29.7249 110.545 28.9006 110.905 28.4713C108.33 26.3764 107.797 22.5985 107.797 20.9672V19.1469ZM128.678 26.7541C128.129 27.0976 127.459 27.3895 126.738 27.6299C125.982 27.3895 125.33 27.0976 124.797 26.7541H128.678ZM121.724 25.3975C122.531 24.848 123.063 24.0238 123.407 23.2339L122.05 22.65C121.741 23.3026 121.209 24.0066 120.573 24.4531C120.642 23.7834 120.693 23.1137 120.728 22.4783H125.261L125.072 22.6157C125.673 22.9076 126.446 23.4743 126.807 23.8692L127.923 23.0106C127.751 22.8561 127.494 22.6672 127.219 22.4783H131.529C131.409 22.8389 131.271 23.1824 131.134 23.4743C130.791 23.1308 130.413 22.7874 130.052 22.5126L128.799 23.1652C128.987 23.3197 129.176 23.5086 129.365 23.6975C128.953 23.5945 128.438 23.4399 128.163 23.2682C128.095 23.8864 128.009 23.9894 127.597 23.9894H125.793C125.244 23.9894 125.141 23.9379 125.141 23.5773V22.8217H123.527V23.5945C123.527 24.3844 123.698 24.7965 124.282 25.0026C123.338 25.6723 121.947 26.3248 120.178 26.8228C120.333 26.1016 120.453 25.346 120.539 24.6076L121.724 25.3975ZM123.012 16.7428V17.5499H120.779V16.7428H123.012ZM126.892 17.5499H124.78V16.7428H126.892V17.5499ZM130.842 18.6661V19.4732H128.713V18.6661H130.842ZM124.78 18.6661H126.892V19.4732H124.78V18.6661ZM123.012 19.4732H120.779V18.6661H123.012V19.4732ZM130.413 25.5864L130.104 25.6551H125.725C125.931 25.4834 126.137 25.3117 126.326 25.14H127.82C128.884 25.14 129.314 24.848 129.451 23.7834C129.949 24.2814 130.378 24.8137 130.619 25.2258L131.958 24.5046C131.804 24.2642 131.58 23.9723 131.323 23.6803L132.679 23.9723C133.04 23.3026 133.435 22.3066 133.761 21.4136L132.439 21.1217L132.147 21.1732H120.779V20.6237H132.714V17.5499H128.713V16.7428H133.315V15.2145H127.236V14.2186H125.107V15.2145H118.925V20.3146C118.925 22.8904 118.804 26.5309 117.414 29.0552C117.843 29.2613 118.65 29.8451 118.976 30.1885C119.526 29.2441 119.903 28.0936 120.178 26.8743C120.504 27.1319 120.985 27.6643 121.191 28.0077C121.878 27.7673 122.514 27.5097 123.097 27.235C123.527 27.6127 124.008 27.939 124.54 28.2309C123.115 28.5229 121.569 28.7289 120.058 28.832C120.333 29.1926 120.659 29.8108 120.814 30.2229C122.788 30.0168 124.815 29.6734 126.635 29.1239C128.386 29.7077 130.43 30.0512 132.628 30.2229C132.851 29.7592 133.28 29.0724 133.624 28.6946C131.993 28.6259 130.413 28.4713 129.005 28.1966C130.035 27.6986 130.911 27.0632 131.563 26.3077L130.413 25.5864ZM149.027 27.338V21.3965H155.089V19.3186H149.027V14.4074H146.829V27.338H140.682V29.3986H156.291V27.338H149.027ZM179.181 18.357V16.3651H172.364V14.1327H170.183V16.3651H163.52V18.357H170.2V20.1601H165.135V28.1794H167.195V22.152H170.2V30.2572H172.33V22.152H175.61V25.9299C175.61 26.1188 175.524 26.2046 175.249 26.2046C174.974 26.2046 173.961 26.2046 173.102 26.1703C173.394 26.7198 173.703 27.5956 173.789 28.1794C175.129 28.1794 176.108 28.1451 176.829 27.836C177.533 27.5269 177.739 26.943 177.739 25.9642V20.1601H172.33V18.357H179.181ZM201.011 14.8539L200.719 14.9398H196.666V30.2401H198.573V16.76H200.084C199.775 17.9621 199.38 19.5075 199.019 20.6066C200.032 21.7571 200.29 22.8217 200.29 23.6288C200.29 24.1096 200.187 24.4359 199.981 24.5905C199.826 24.6935 199.672 24.745 199.483 24.745C199.259 24.745 199.002 24.745 198.676 24.7278C198.968 25.243 199.122 26.0329 199.139 26.5481C199.569 26.5481 199.981 26.5652 200.324 26.5137C200.702 26.445 201.063 26.342 201.337 26.1188C201.887 25.741 202.144 25.0198 202.127 23.8864C202.127 22.8904 201.921 21.7056 200.805 20.3833C201.337 19.0439 201.921 17.155 202.402 15.661L201.011 14.8539ZM204.858 19.7479H208.841V21.1904H204.858V19.7479ZM208.841 16.7257V18.0823H204.858V16.7257H208.841ZM210.078 23.0622C209.683 23.5945 209.099 24.2127 208.532 24.7622C208.275 24.1955 208.052 23.5773 207.88 22.9419H210.868V14.957H202.9V27.7158C202.23 27.8188 201.629 27.9218 201.114 27.9905L201.784 29.9653C203.398 29.6047 205.51 29.1754 207.485 28.7117L207.33 26.9259C206.506 27.0804 205.665 27.235 204.858 27.3723V22.9419H206.094C206.867 26.2905 208.206 28.8491 210.73 30.1885C211.005 29.639 211.606 28.8663 212.053 28.4542C210.936 27.9562 210.043 27.1834 209.357 26.2046C210.095 25.638 210.936 24.8996 211.675 24.1955L210.078 23.0622ZM222.785 17.0691V20.0914H221.205V17.0691H222.785ZM221.205 25.1056V21.8773H222.785V25.1056H221.205ZM224.691 15.2489H219.316V28.437H221.205V26.9259H224.691V15.2489ZM225.704 25.4834C226.477 26.3592 227.353 27.5784 227.662 28.3683L229.414 27.3552C229.053 26.5137 228.126 25.3804 227.336 24.5389L225.704 25.4834ZM234.788 21.0874V19.3015H230.873V17.7903H234.308V16.0044H230.873V14.2014H228.864V16.0044H225.567V17.7903H228.864V19.3015H224.983V21.0874H231.045V22.5642H225.017V24.3329H231.045V28.0249C231.045 28.2653 230.959 28.334 230.684 28.334C230.427 28.334 229.465 28.334 228.641 28.2996C228.916 28.8491 229.225 29.6562 229.293 30.2229C230.564 30.2229 231.491 30.1714 232.161 29.8794C232.831 29.5704 233.02 29.0552 233.02 28.0764V24.3329H234.668V22.5642H233.02V21.0874H234.788ZM246.843 16.1418C246.105 15.661 244.611 14.9054 243.649 14.4246L242.499 15.9014C243.495 16.4681 244.954 17.2752 245.624 17.7903L246.843 16.1418ZM246.019 20.7783C245.263 20.3146 243.735 19.5762 242.791 19.1126L241.692 20.6237C242.705 21.1732 244.181 21.9803 244.886 22.4783L246.019 20.7783ZM243.649 30.0512C244.697 28.3855 245.778 26.4279 246.689 24.6248L245.195 23.251C244.164 25.243 242.842 27.3723 241.932 28.6602L243.649 30.0512ZM254.794 27.6814H249.642V25.1571H254.794V27.6814ZM257.593 21.1389V19.1813H253.231V16.8287C254.571 16.5711 255.858 16.2277 256.957 15.8156L255.395 14.2014C253.506 14.957 250.278 15.5236 247.358 15.8156C247.599 16.2792 247.873 17.0691 247.959 17.5671C249.024 17.4641 250.175 17.3439 251.291 17.1721V19.1813H246.723V21.1389H251.291V23.3026H247.788V30.2401H249.642V29.536H254.794V30.1542H256.734V23.3026H253.231V21.1389H257.593ZM269.785 26.6855H272.893V25.243H269.785V24.5733H272.824V19.2671H269.785V18.5974H273.082V19.9368H274.645C274.524 23.0106 274.112 25.4662 272.773 27.3208C271.777 27.4067 270.764 27.4925 269.785 27.5612V26.6855ZM266.591 23.3026V22.5298H267.93V23.3026H266.591ZM271.124 22.5298V23.3026H269.785V22.5298H271.124ZM269.785 21.3106V20.555H271.124V21.3106H269.785ZM266.591 20.555H267.93V21.3106H266.591V20.555ZM276.637 18.0651C276.671 16.9317 276.671 15.7297 276.671 14.4761H274.713C274.713 15.7469 274.713 16.9317 274.696 18.0651H273.082V17.1206H269.785V16.2792C270.901 16.159 271.966 16.0044 272.876 15.8156L271.983 14.2872C270.094 14.6994 267.123 14.9913 264.582 15.1287C264.771 15.5236 264.96 16.159 265.028 16.5711C265.956 16.554 266.934 16.5024 267.93 16.4337V17.1206H264.548V18.5974H267.93V19.2671H264.977V24.5733H267.93V25.243H264.908V26.6855H267.93V27.7158C266.608 27.8016 265.406 27.8875 264.444 27.9562L264.685 29.6734C266.539 29.5188 269.012 29.2613 271.485 29.0037C271.931 29.3815 272.429 29.9481 272.687 30.3603C275.572 28.0764 276.362 24.5389 276.585 19.9368H278.131C278.028 25.4834 277.856 27.5784 277.495 28.042C277.341 28.2653 277.169 28.334 276.911 28.334C276.585 28.334 275.933 28.3168 275.177 28.2481C275.52 28.8148 275.744 29.639 275.778 30.2057C276.602 30.2229 277.392 30.2401 277.907 30.137C278.474 30.0168 278.869 29.8451 279.264 29.2784C279.813 28.4885 279.951 25.9986 280.105 18.9752C280.105 18.7348 280.123 18.0651 280.123 18.0651H276.637Z" fill="white"/>
<path d="M96.6182 17.5328H93.8335C93.8335 19.0707 95.0803 20.3174 96.6182 20.3174V17.5328ZM98.3869 17.5328V20.3174C99.9248 20.3174 101.172 19.0707 101.172 17.5328H98.3869ZM98.3869 16.6913V13.9067C96.849 13.9067 95.6023 15.1534 95.6023 16.6913H98.3869ZM100.001 16.6913H102.786C102.786 15.1534 101.539 13.9067 100.001 13.9067V16.6913ZM100.001 17.5328H97.2164C97.2164 19.0707 98.4632 20.3174 100.001 20.3174V17.5328ZM101.804 17.5328V20.3174C103.342 20.3174 104.589 19.0707 104.589 17.5328H101.804ZM101.804 16.6913V13.9067C100.266 13.9067 99.0195 15.1534 99.0195 16.6913H101.804ZM103.624 16.6913V19.476C105.162 19.476 106.409 18.2292 106.409 16.6913H103.624ZM103.624 15.2145H106.409C106.409 13.6766 105.162 12.4299 103.624 12.4299V15.2145ZM101.804 15.2145H99.0195C99.0195 16.7525 100.266 17.9992 101.804 17.9992V15.2145ZM101.804 14.2186H104.589C104.589 12.6806 103.342 11.4339 101.804 11.4339V14.2186ZM100.001 14.2186V11.4339C98.4632 11.4339 97.2164 12.6806 97.2164 14.2186H100.001ZM100.001 15.2145V17.9992C101.539 17.9992 102.786 16.7525 102.786 15.2145H100.001ZM98.3869 15.2145H95.6023C95.6023 16.7525 96.849 17.9992 98.3869 17.9992V15.2145ZM98.3869 14.2186H101.172C101.172 12.6806 99.9248 11.4339 98.3869 11.4339V14.2186ZM96.6182 14.2186V11.4339C95.0803 11.4339 93.8335 12.6806 93.8335 14.2186H96.6182ZM96.6182 15.2145V17.9992C98.1561 17.9992 99.4028 16.7525 99.4028 15.2145H96.6182ZM94.8838 15.2145V12.4299C93.3459 12.4299 92.0992 13.6766 92.0992 15.2145H94.8838ZM94.8838 16.6913H92.0992C92.0992 18.2292 93.3459 19.476 94.8838 19.476V16.6913ZM96.6182 16.6913H99.4028C99.4028 15.1534 98.1561 13.9067 96.6182 13.9067V16.6913ZM100.894 28.1107H98.1094C98.1094 29.6487 99.3561 30.8954 100.894 30.8954V28.1107ZM100.894 27.4582V24.6735C99.3561 24.6735 98.1094 25.9203 98.1094 27.4582H100.894ZM102.766 27.4582V30.2428C104.304 30.2428 105.55 28.9961 105.55 27.4582H102.766ZM102.766 26.2561H105.55C105.55 24.7182 104.304 23.4715 102.766 23.4715V26.2561ZM100.894 26.2561H98.1094C98.1094 27.7941 99.3561 29.0408 100.894 29.0408V26.2561ZM100.894 25.6036V22.819C99.3561 22.819 98.1094 24.0657 98.1094 25.6036H100.894ZM102.766 25.6036V28.3883C104.304 28.3883 105.55 27.1415 105.55 25.6036H102.766ZM102.766 24.4016H105.55C105.55 22.8636 104.304 21.6169 102.766 21.6169V24.4016ZM100.894 24.4016H98.1094C98.1094 25.9395 99.3561 27.1862 100.894 27.1862V24.4016ZM100.894 23.7319V20.9472C99.3561 20.9472 98.1094 22.1939 98.1094 23.7319H100.894ZM103.229 23.7319V26.5165C104.767 26.5165 106.014 25.2698 106.014 23.7319H103.229ZM103.229 22.3924H106.014C106.014 20.8545 104.767 19.6078 103.229 19.6078V22.3924ZM101.049 22.3924L98.6166 21.0361C98.1356 21.8985 98.1473 22.9512 98.6474 23.8027C99.1475 24.6541 100.061 25.1771 101.049 25.1771V22.3924ZM101.547 21.4995L103.979 22.8558C104.41 22.0826 104.448 21.1504 104.081 20.3447C103.713 19.5391 102.985 18.9561 102.119 18.7742L101.547 21.4995ZM100.156 21.2076V18.4229C98.729 18.4229 97.5332 19.5011 97.3859 20.92C97.2386 22.339 98.1875 23.6398 99.5837 23.9329L100.156 21.2076ZM102.663 21.2076L104.082 18.812C103.653 18.5573 103.162 18.4229 102.663 18.4229V21.2076ZM104.277 22.444L102.308 24.413C102.91 25.0155 103.755 25.309 104.602 25.2096C105.448 25.1103 106.202 24.629 106.648 23.9034L104.277 22.444ZM105.668 19.1469V16.3623C104.436 16.3623 103.35 17.1722 102.999 18.3534L105.668 19.1469ZM105.84 19.1469H108.624C108.624 17.609 107.377 16.3623 105.84 16.3623V19.1469ZM105.84 20.9672H103.055C103.055 20.9774 103.055 20.9876 103.055 20.9978L105.84 20.9672ZM103.006 28.1107V30.8954C103.694 30.8954 104.358 30.6407 104.869 30.1805L103.006 28.1107ZM97.7859 27.4582V24.6735C96.248 24.6735 95.0012 25.9203 95.0012 27.4582H97.7859ZM99.194 27.4582H101.979C101.979 25.9203 100.732 24.6735 99.194 24.6735V27.4582ZM99.194 28.1107V30.8954C100.732 30.8954 101.979 29.6487 101.979 28.1107H99.194ZM97.7859 28.1107H95.0012C95.0012 29.6487 96.248 30.8954 97.7859 30.8954V28.1107ZM97.7859 24.4016H95.0012C95.0012 25.9395 96.248 27.1862 97.7859 27.1862V24.4016ZM97.7859 23.7319V20.9472C96.248 20.9472 95.0012 22.1939 95.0012 23.7319H97.7859ZM99.194 23.7319H101.979C101.979 22.1939 100.732 20.9472 99.194 20.9472V23.7319ZM99.194 24.4016V27.1862C100.732 27.1862 101.979 25.9395 101.979 24.4016H99.194ZM97.7859 25.6036V22.819C96.248 22.819 95.0012 24.0657 95.0012 25.6036H97.7859ZM99.194 25.6036H101.979C101.979 24.0657 100.732 22.819 99.194 22.819V25.6036ZM99.194 26.2561V29.0408C100.732 29.0408 101.979 27.7941 101.979 26.2561H99.194ZM97.7859 26.2561H95.0012C95.0012 27.7941 96.248 29.0408 97.7859 29.0408V26.2561ZM100.757 19.0096V16.2249C99.2187 16.2249 97.972 17.4716 97.972 19.0096H100.757ZM101.735 19.0096H104.52C104.52 17.4716 103.273 16.2249 101.735 16.2249V19.0096ZM101.735 20.0055V22.7902C103.273 22.7902 104.52 21.5435 104.52 20.0055H101.735ZM100.757 20.0055H97.972C97.972 21.5435 99.2187 22.7902 100.757 22.7902V20.0055ZM96.6182 19.0096V16.2249C95.0803 16.2249 93.8335 17.4716 93.8335 19.0096H96.6182ZM97.5111 19.0096H100.296C100.296 17.4716 99.0491 16.2249 97.5111 16.2249V19.0096ZM97.5111 20.0055V22.7902C99.0491 22.7902 100.296 21.5435 100.296 20.0055H97.5111ZM96.6182 20.0055H93.8335C93.8335 21.5435 95.0803 22.7902 96.6182 22.7902V20.0055ZM107.797 19.1469V16.3623C106.259 16.3623 105.013 17.609 105.013 19.1469H107.797ZM108.742 19.1469L111.514 19.4037C111.587 18.6238 111.327 17.8496 110.799 17.2708C110.272 16.6921 109.525 16.3623 108.742 16.3623V19.1469ZM108.415 21.6884L105.685 21.1423C105.45 22.3176 105.993 23.5115 107.034 24.1061L108.415 21.6884ZM109.858 22.5126L108.476 24.9304C109.206 25.3472 110.084 25.4124 110.867 25.1079C111.65 24.8033 112.254 24.1615 112.51 23.3613L109.858 22.5126ZM110.768 17.653L113.535 17.9667C113.681 16.6792 112.92 15.4612 111.698 15.0283L110.768 17.653ZM109.411 17.1721L110.342 14.5475C109.695 14.3182 108.986 14.3359 108.351 14.5972L109.411 17.1721ZM109.119 17.2923V20.077C109.483 20.077 109.843 20.0057 110.18 19.8673L109.119 17.2923ZM106.132 17.2923L103.413 16.6883C103.23 17.5128 103.431 18.3759 103.959 19.0348C104.488 19.6936 105.287 20.077 106.132 20.077V17.2923ZM106.612 14.4418L109.376 14.7812C109.563 13.2605 108.486 11.8746 106.966 11.6797L106.612 14.4418ZM104.603 14.1842L104.957 11.4222C104.211 11.3265 103.459 11.5366 102.87 12.0047C102.281 12.4727 101.907 13.1589 101.832 13.9071L104.603 14.1842ZM103.144 20.2631H100.359C100.359 21.5656 101.262 22.6942 102.533 22.9799C103.803 23.2657 105.103 22.6323 105.66 21.4552L103.144 20.2631ZM103.144 17.7903H105.928C105.928 16.2524 104.681 15.0057 103.144 15.0057V17.7903ZM99.4172 17.7903V15.0057C97.8793 15.0057 96.6326 16.2524 96.6326 17.7903H99.4172ZM99.4172 21.2076H96.6326C96.6326 22.7455 97.8793 23.9922 99.4172 23.9922V21.2076ZM99.7263 21.2076L102.428 21.883C102.636 21.0511 102.449 20.1697 101.921 19.4939C101.394 18.818 100.584 18.4229 99.7263 18.4229V21.2076ZM99.3485 22.3924V25.1771C100.495 25.1771 101.524 24.4747 101.942 23.4072L99.3485 22.3924ZM98.0435 22.3924L95.4017 21.5119C95.1187 22.361 95.2611 23.2945 95.7844 24.0207C96.3078 24.7468 97.1484 25.1771 98.0435 25.1771V22.3924ZM98.3526 21.4823L100.994 22.3629C101.237 21.6342 101.168 20.8376 100.804 20.1614C100.44 19.4853 99.8122 18.9896 99.0701 18.7917L98.3526 21.4823ZM97.3222 21.2076V18.4229C95.9242 18.4229 94.7429 19.4595 94.5612 20.8458C94.3795 22.232 95.2539 23.538 96.6047 23.8982L97.3222 21.2076ZM98.9021 21.2076V23.9922C100.44 23.9922 101.687 22.7455 101.687 21.2076H98.9021ZM98.9021 17.7903H101.687C101.687 16.2524 100.44 15.0057 98.9021 15.0057V17.7903ZM95.2788 17.7903V15.0057C93.7409 15.0057 92.4941 16.2524 92.4941 17.7903H95.2788ZM95.2788 21.2076H92.4941C92.4941 22.7455 93.7409 23.9922 95.2788 23.9922V21.2076ZM96.6354 21.2076L99.3083 21.9884C99.5541 21.1469 99.3893 20.2387 98.8635 19.5373C98.3376 18.8358 97.5121 18.4229 96.6354 18.4229V21.2076ZM94.506 25.1743L92.4655 23.2795C91.5188 24.299 91.4698 25.8609 92.3508 26.9377L94.506 25.1743ZM95.5192 26.7885L93.0285 28.0338C93.4384 28.8535 94.2253 29.4191 95.133 29.5462C96.0406 29.6733 96.9526 29.3457 97.5719 28.6701L95.5192 26.7885ZM96.0687 26.1359H98.8533C98.8533 24.9436 98.0942 23.8836 96.9654 23.4996C95.8365 23.1157 94.5885 23.493 93.8615 24.4381L96.0687 26.1359ZM96.0687 30.1714H93.284C93.284 31.7093 94.5308 32.956 96.0687 32.956V30.1714ZM97.7859 30.1714V32.956C99.3238 32.956 100.571 31.7093 100.571 30.1714H97.7859ZM97.7859 29.5017V26.717C96.248 26.717 95.0012 27.9637 95.0012 29.5017H97.7859ZM103.178 29.5017V32.2863C104.716 32.2863 105.963 31.0396 105.963 29.5017H103.178ZM103.178 29.4845L105.539 28.0086C104.881 26.9552 103.604 26.4653 102.41 26.8077C101.216 27.1502 100.393 28.2422 100.393 29.4845H103.178ZM103.624 30.2229L101.18 31.5563C101.566 32.2648 102.241 32.7708 103.029 32.9432C103.818 33.1157 104.642 32.9376 105.289 32.4551L103.624 30.2229ZM106.836 24.4187L109.597 24.0614C109.418 22.6776 108.243 21.64 106.847 21.6341C105.452 21.6283 104.268 22.656 104.077 24.0383L106.836 24.4187ZM109.686 30.2229L107.954 32.4033C108.586 32.9052 109.404 33.1083 110.197 32.9602C110.99 32.8121 111.68 32.3272 112.088 31.6311L109.686 30.2229ZM110.905 28.4713L113.038 30.2624C113.517 29.6911 113.748 28.951 113.678 28.2081C113.607 27.4653 113.241 26.7818 112.662 26.311L110.905 28.4713ZM96.6182 20.3174H98.3869V14.7481H96.6182V20.3174ZM101.172 17.5328V16.6913H95.6023V17.5328H101.172ZM98.3869 19.476H100.001V13.9067H98.3869V19.476ZM97.2164 16.6913V17.5328H102.786V16.6913H97.2164ZM100.001 20.3174H101.804V14.7481H100.001V20.3174ZM104.589 17.5328V16.6913H99.0195V17.5328H104.589ZM101.804 19.476H103.624V13.9067H101.804V19.476ZM106.409 16.6913V15.2145H100.84V16.6913H106.409ZM103.624 12.4299H101.804V17.9992H103.624V12.4299ZM104.589 15.2145V14.2186H99.0195V15.2145H104.589ZM101.804 11.4339H100.001V17.0032H101.804V11.4339ZM97.2164 14.2186V15.2145H102.786V14.2186H97.2164ZM100.001 12.4299H98.3869V17.9992H100.001V12.4299ZM101.172 15.2145V14.2186H95.6023V15.2145H101.172ZM98.3869 11.4339H96.6182V17.0032H98.3869V11.4339ZM93.8335 14.2186V15.2145H99.4028V14.2186H93.8335ZM96.6182 12.4299H94.8838V17.9992H96.6182V12.4299ZM92.0992 15.2145V16.6913H97.6685V15.2145H92.0992ZM94.8838 19.476H96.6182V13.9067H94.8838V19.476ZM93.8335 16.6913V17.5328H99.4028V16.6913H93.8335ZM103.679 28.1107V27.4582H98.1094V28.1107H103.679ZM100.894 30.2428H102.766V24.6735H100.894V30.2428ZM105.55 27.4582V26.2561H99.9811V27.4582H105.55ZM102.766 23.4715H100.894V29.0408H102.766V23.4715ZM103.679 26.2561V25.6036H98.1094V26.2561H103.679ZM100.894 28.3883H102.766V22.819H100.894V28.3883ZM105.55 25.6036V24.4016H99.9811V25.6036H105.55ZM102.766 21.6169H100.894V27.1862H102.766V21.6169ZM103.679 24.4016V23.7319H98.1094V24.4016H103.679ZM100.894 26.5165H103.229V20.9472H100.894V26.5165ZM106.014 23.7319V22.3924H100.445V23.7319H106.014ZM103.229 19.6078H101.049V25.1771H103.229V19.6078ZM103.481 23.7488L103.979 22.8558L99.1146 20.1432L98.6166 21.0361L103.481 23.7488ZM102.119 18.7742L100.728 18.4823L99.5837 23.9329L100.975 24.2248L102.119 18.7742ZM100.156 23.9922H102.663V18.4229H100.156V23.9922ZM101.243 23.6032C101.339 23.6601 101.558 23.8088 101.822 24.0107C101.944 24.1043 102.057 24.1953 102.151 24.2741C102.197 24.3132 102.235 24.3462 102.264 24.3724C102.278 24.3853 102.289 24.3954 102.297 24.4029C102.305 24.4104 102.309 24.4137 102.308 24.413L106.246 20.4749C105.721 19.95 104.725 19.1926 104.082 18.812L101.243 23.6032ZM106.648 23.9034C107.369 22.7332 107.917 21.3518 108.337 19.9405L102.999 18.3534C102.663 19.4835 102.284 20.3688 101.905 20.9845L106.648 23.9034ZM105.668 21.9316H105.84V16.3623H105.668V21.9316ZM103.055 19.1469V20.9672H108.624V19.1469H103.055ZM103.055 20.9978C103.069 22.2741 102.655 24.6801 101.143 26.0409L104.869 30.1805C108.165 27.214 108.644 22.7855 108.624 20.9366L103.055 20.9978ZM103.006 25.3261H100.894V30.8954H103.006V25.3261ZM97.7859 30.2428H99.194V24.6735H97.7859V30.2428ZM96.4093 27.4582V28.1107H101.979V27.4582H96.4093ZM99.194 25.3261H97.7859V30.8954H99.194V25.3261ZM100.571 28.1107V27.4582H95.0012V28.1107H100.571ZM100.571 24.4016V23.7319H95.0012V24.4016H100.571ZM97.7859 26.5165H99.194V20.9472H97.7859V26.5165ZM96.4093 23.7319V24.4016H101.979V23.7319H96.4093ZM99.194 21.6169H97.7859V27.1862H99.194V21.6169ZM97.7859 28.3883H99.194V22.819H97.7859V28.3883ZM96.4093 25.6036V26.2561H101.979V25.6036H96.4093ZM99.194 23.4715H97.7859V29.0408H99.194V23.4715ZM100.571 26.2561V25.6036H95.0012V26.2561H100.571ZM100.757 21.7942H101.735V16.2249H100.757V21.7942ZM98.9508 19.0096V20.0055H104.52V19.0096H98.9508ZM101.735 17.2209H100.757V22.7902H101.735V17.2209ZM103.541 20.0055V19.0096H97.972V20.0055H103.541ZM96.6182 21.7942H97.5111V16.2249H96.6182V21.7942ZM94.7265 19.0096V20.0055H100.296V19.0096H94.7265ZM97.5111 17.2209H96.6182V22.7902H97.5111V17.2209ZM99.4028 20.0055V19.0096H93.8335V20.0055H99.4028ZM107.797 21.9316H108.742V16.3623H107.797V21.9316ZM105.969 18.8902C105.883 19.8174 105.79 20.6139 105.685 21.1423L111.146 22.2345C111.315 21.3891 111.429 20.331 111.514 19.4037L105.969 18.8902ZM107.034 24.1061L108.476 24.9304L111.239 20.0949L109.797 19.2706L107.034 24.1061ZM112.51 23.3613C113.009 21.8016 113.342 19.6712 113.535 17.9667L108.001 17.3392C107.817 18.9661 107.531 20.6479 107.206 21.664L112.51 23.3613ZM111.698 15.0283L110.342 14.5475L108.481 19.7968L109.838 20.2776L111.698 15.0283ZM108.351 14.5972L108.059 14.7174L110.18 19.8673L110.472 19.7471L108.351 14.5972ZM109.119 14.5077H106.132V20.077H109.119V14.5077ZM108.85 17.8964C109.079 16.866 109.247 15.8313 109.376 14.7812L103.848 14.1024C103.737 15.0099 103.596 15.8641 103.413 16.6883L108.85 17.8964ZM106.966 11.6797L104.957 11.4222L104.249 16.9463L106.258 17.2038L106.966 11.6797ZM101.832 13.9071C101.623 16.0042 101.202 17.8565 100.627 19.071L105.66 21.4552C106.63 19.407 107.137 16.829 107.374 14.4613L101.832 13.9071ZM105.928 20.2631V17.7903H100.359V20.2631H105.928ZM103.144 15.0057H99.4172V20.575H103.144V15.0057ZM96.6326 17.7903V21.2076H102.202V17.7903H96.6326ZM99.4172 23.9922H99.7263V18.4229H99.4172V23.9922ZM97.0248 20.5322C96.9649 20.7718 96.8625 21.1039 96.7554 21.3777L101.942 23.4072C102.144 22.891 102.316 22.3302 102.428 21.883L97.0248 20.5322ZM99.3485 19.6078H98.0435V25.1771H99.3485V19.6078ZM100.685 23.273C100.732 23.1316 100.78 22.9924 100.832 22.8405C100.883 22.6919 100.938 22.5306 100.994 22.3629L95.7108 20.6017C95.6637 20.7432 95.616 20.8823 95.5639 21.0343C95.5129 21.1828 95.4576 21.3442 95.4017 21.5119L100.685 23.273ZM99.0701 18.7917L98.0398 18.5169L96.6047 23.8982L97.6351 24.173L99.0701 18.7917ZM97.3222 23.9922H98.9021V18.4229H97.3222V23.9922ZM101.687 21.2076V17.7903H96.1174V21.2076H101.687ZM98.9021 15.0057H95.2788V20.575H98.9021V15.0057ZM92.4941 17.7903V21.2076H98.0634V17.7903H92.4941ZM95.2788 23.9922H96.6354V18.4229H95.2788V23.9922ZM93.9624 20.4267C93.6103 21.6322 93.0047 22.6988 92.4655 23.2795L96.5466 27.0691C97.7933 25.7265 98.7675 23.8396 99.3083 21.9884L93.9624 20.4267ZM92.3508 26.9377C92.3482 26.9344 92.3579 26.9462 92.3808 26.9777C92.4028 27.0078 92.4307 27.0474 92.4642 27.0968C92.5318 27.1964 92.6093 27.3165 92.6889 27.4454C92.8586 27.7198 92.9866 27.95 93.0285 28.0338L98.0099 25.5431C97.7673 25.058 97.1462 24.0037 96.6612 23.411L92.3508 26.9377ZM97.5719 28.6701C97.8106 28.4097 98.0516 28.1253 98.2759 27.8338L93.8615 24.4381C93.7423 24.593 93.6055 24.7551 93.4665 24.9068L97.5719 28.6701ZM93.284 26.1359V30.1714H98.8533V26.1359H93.284ZM96.0687 32.956H97.7859V27.3867H96.0687V32.956ZM100.571 30.1714V29.5017H95.0012V30.1714H100.571ZM97.7859 32.2863H103.178V26.717H97.7859V32.2863ZM105.963 29.5017V29.4845H100.393V29.5017H105.963ZM100.817 30.9604C101.008 31.2669 101.126 31.4577 101.18 31.5563L106.069 28.8895C105.917 28.6103 105.691 28.2516 105.539 28.0086L100.817 30.9604ZM105.289 32.4551C106.772 31.3496 107.77 29.8596 108.416 28.5337C109.064 27.2038 109.449 25.8482 109.594 24.7992L104.077 24.0383C104.016 24.4832 103.809 25.2742 103.409 26.0951C103.007 26.92 102.504 27.585 101.96 27.9906L105.289 32.4551ZM104.074 24.7761C104.199 25.739 104.514 27.0716 105.078 28.4055C105.631 29.7137 106.528 31.2702 107.954 32.4033L111.418 28.0425C111.007 27.7159 110.573 27.1001 110.207 26.2361C109.853 25.3978 109.661 24.5581 109.597 24.0614L104.074 24.7761ZM112.088 31.6311C112.317 31.2405 112.796 30.5497 113.038 30.2624L108.773 26.6803C108.293 27.2516 107.639 28.2093 107.284 28.8146L112.088 31.6311ZM112.662 26.311C111.933 25.7178 111.392 24.7942 111.035 23.6903C110.682 22.5937 110.582 21.5346 110.582 20.9672H105.013C105.013 22.0311 105.179 23.6766 105.735 25.4005C106.289 27.1171 107.302 29.1299 109.148 30.6317L112.662 26.311ZM110.582 20.9672V19.1469H105.013V20.9672H110.582ZM128.678 26.7541L130.154 29.1155C131.208 28.4571 131.698 27.1806 131.355 25.9865C131.013 24.7923 129.921 23.9695 128.678 23.9695V26.7541ZM126.738 27.6299L125.894 30.2835C126.455 30.4622 127.059 30.4581 127.619 30.2717L126.738 27.6299ZM124.797 26.7541V23.9695C123.563 23.9695 122.475 24.7827 122.126 25.9672C121.777 27.1518 122.25 28.4246 123.288 29.0941L124.797 26.7541ZM121.724 25.3975L120.179 27.7145C121.123 28.3436 122.353 28.3376 123.291 27.6993L121.724 25.3975ZM123.407 23.2339L125.96 24.3442C126.255 23.6653 126.268 22.8967 125.996 22.2084C125.723 21.5201 125.187 20.9687 124.507 20.676L123.407 23.2339ZM122.05 22.65L123.151 20.0922C121.774 19.4996 120.175 20.1033 119.533 21.458L122.05 22.65ZM120.573 24.4531L117.803 24.169C117.692 25.2539 118.224 26.3038 119.165 26.8554C120.106 27.4069 121.282 27.3585 122.174 26.7315L120.573 24.4531ZM120.728 22.4783V19.6936C119.248 19.6936 118.027 20.8506 117.947 22.328L120.728 22.4783ZM125.261 22.4783L126.899 24.7304C127.874 24.0209 128.282 22.7642 127.909 21.6172C127.536 20.4701 126.467 19.6936 125.261 19.6936V22.4783ZM125.072 22.6157L123.434 20.3636C122.643 20.9389 122.212 21.887 122.298 22.8613C122.385 23.8356 122.976 24.6932 123.856 25.1205L125.072 22.6157ZM126.807 23.8692L124.75 25.7468C125.726 26.8155 127.357 26.9587 128.504 26.0764L126.807 23.8692ZM127.923 23.0106L129.621 25.2178C130.276 24.7136 130.674 23.9443 130.705 23.118C130.737 22.2917 130.4 21.494 129.786 20.9408L127.923 23.0106ZM127.219 22.4783V19.6936C125.999 19.6936 124.921 20.4875 124.559 21.6523C124.198 22.8172 124.636 24.0819 125.641 24.773L127.219 22.4783ZM131.529 22.4783L134.171 23.3589C134.454 22.5097 134.311 21.5762 133.788 20.8501C133.265 20.1239 132.424 19.6936 131.529 19.6936V22.4783ZM131.134 23.4743L129.165 25.4433C129.806 26.0845 130.719 26.3734 131.613 26.2175C132.506 26.0616 133.267 25.4805 133.654 24.66L131.134 23.4743ZM130.052 22.5126L131.74 20.2976C130.882 19.6439 129.723 19.5445 128.766 20.0426L130.052 22.5126ZM128.799 23.1652L127.513 20.6951C126.682 21.1274 126.125 21.948 126.029 22.8792C125.933 23.8104 126.311 24.7276 127.035 25.3204L128.799 23.1652ZM129.365 23.6975L128.69 26.399C129.904 26.7026 131.172 26.1587 131.788 25.0695C132.405 23.9803 132.219 22.6135 131.334 21.7285L129.365 23.6975ZM128.163 23.2682L129.639 20.9068C128.827 20.3995 127.812 20.3447 126.95 20.7617C126.088 21.1788 125.501 22.0092 125.396 22.9607L128.163 23.2682ZM125.141 22.8217H127.926C127.926 21.2838 126.679 20.0371 125.141 20.0371V22.8217ZM123.527 22.8217V20.0371C121.989 20.0371 120.742 21.2838 120.742 22.8217H123.527ZM124.282 25.0026L125.893 27.2741C126.742 26.6724 127.184 25.6478 127.04 24.6174C126.896 23.5871 126.19 22.7229 125.209 22.3767L124.282 25.0026ZM120.178 26.8228L117.455 26.2394C117.251 27.1937 117.561 28.1854 118.273 28.8533C118.984 29.5212 119.993 29.7678 120.933 29.5033L120.178 26.8228ZM120.539 24.6076L122.083 22.2907C121.277 21.753 120.249 21.6734 119.369 22.0806C118.489 22.4878 117.885 23.3231 117.773 24.286L120.539 24.6076ZM123.012 16.7428H125.796C125.796 15.2049 124.55 13.9582 123.012 13.9582V16.7428ZM123.012 17.5499V20.3346C124.55 20.3346 125.796 19.0879 125.796 17.5499H123.012ZM120.779 17.5499H117.995C117.995 19.0879 119.241 20.3346 120.779 20.3346V17.5499ZM120.779 16.7428V13.9582C119.241 13.9582 117.995 15.2049 117.995 16.7428H120.779ZM126.892 17.5499V20.3346C128.43 20.3346 129.677 19.0879 129.677 17.5499H126.892ZM124.78 17.5499H121.996C121.996 19.0879 123.242 20.3346 124.78 20.3346V17.5499ZM124.78 16.7428V13.9582C123.242 13.9582 121.996 15.2049 121.996 16.7428H124.78ZM126.892 16.7428H129.677C129.677 15.2049 128.43 13.9582 126.892 13.9582V16.7428ZM130.842 18.6661H133.627C133.627 17.1282 132.38 15.8815 130.842 15.8815V18.6661ZM130.842 19.4732V22.2579C132.38 22.2579 133.627 21.0111 133.627 19.4732H130.842ZM128.713 19.4732H125.928C125.928 21.0111 127.175 22.2579 128.713 22.2579V19.4732ZM128.713 18.6661V15.8815C127.175 15.8815 125.928 17.1282 125.928 18.6661H128.713ZM124.78 18.6661V15.8815C123.242 15.8815 121.996 17.1282 121.996 18.6661H124.78ZM126.892 18.6661H129.677C129.677 17.1282 128.43 15.8815 126.892 15.8815V18.6661ZM126.892 19.4732V22.2579C128.43 22.2579 129.677 21.0111 129.677 19.4732H126.892ZM124.78 19.4732H121.996C121.996 21.0111 123.242 22.2579 124.78 22.2579V19.4732ZM123.012 19.4732V22.2579C124.55 22.2579 125.796 21.0111 125.796 19.4732H123.012ZM120.779 19.4732H117.995C117.995 21.0111 119.241 22.2579 120.779 22.2579V19.4732ZM120.779 18.6661V15.8815C119.241 15.8815 117.995 17.1282 117.995 18.6661H120.779ZM123.012 18.6661H125.796C125.796 17.1282 124.55 15.8815 123.012 15.8815V18.6661ZM130.413 25.5864L131.892 23.227C131.272 22.8383 130.523 22.7093 129.809 22.8681L130.413 25.5864ZM130.104 25.6551V28.4398C130.307 28.4398 130.509 28.4175 130.708 28.3735L130.104 25.6551ZM125.725 25.6551L123.942 23.5159C123.041 24.2664 122.707 25.5007 123.106 26.6031C123.506 27.7055 124.552 28.4398 125.725 28.4398V25.6551ZM126.326 25.14V22.3553C125.633 22.3553 124.965 22.6135 124.453 23.0795L126.326 25.14ZM129.451 23.7834L131.42 21.8143C130.67 21.0637 129.557 20.8051 128.553 21.1477C127.548 21.4902 126.825 22.3742 126.689 23.427L129.451 23.7834ZM130.619 25.2258L128.213 26.6289C128.97 27.9254 130.617 28.3892 131.939 27.6776L130.619 25.2258ZM131.958 24.5046L133.278 26.9564C133.962 26.5885 134.46 25.9523 134.654 25.201C134.848 24.4497 134.72 23.6515 134.301 22.9988L131.958 24.5046ZM131.323 23.6803L131.909 20.958C130.733 20.705 129.528 21.2353 128.92 22.2729C128.312 23.3105 128.439 24.621 129.235 25.5227L131.323 23.6803ZM132.679 23.9723L132.094 26.6946C133.305 26.9554 134.544 26.3838 135.131 25.2925L132.679 23.9723ZM133.761 21.4136L136.377 22.3693C136.652 21.6151 136.589 20.7787 136.203 20.0747C135.817 19.3707 135.146 18.8676 134.362 18.6945L133.761 21.4136ZM132.439 21.1217L133.039 18.4025C132.683 18.3239 132.315 18.316 131.955 18.3794L132.439 21.1217ZM132.147 21.1732V23.9579C132.309 23.9579 132.471 23.9437 132.631 23.9155L132.147 21.1732ZM120.779 21.1732H117.995C117.995 22.7112 119.241 23.9579 120.779 23.9579V21.1732ZM120.779 20.6237V17.8391C119.241 17.8391 117.995 19.0858 117.995 20.6237H120.779ZM132.714 20.6237V23.4084C134.252 23.4084 135.498 22.1616 135.498 20.6237H132.714ZM132.714 17.5499H135.498C135.498 16.012 134.252 14.7653 132.714 14.7653V17.5499ZM128.713 17.5499H125.928C125.928 19.0879 127.175 20.3346 128.713 20.3346V17.5499ZM128.713 16.7428V13.9582C127.175 13.9582 125.928 15.2049 125.928 16.7428H128.713ZM133.315 16.7428V19.5275C134.853 19.5275 136.099 18.2808 136.099 16.7428H133.315ZM133.315 15.2145H136.099C136.099 13.6766 134.853 12.4299 133.315 12.4299V15.2145ZM127.236 15.2145H124.451C124.451 16.7525 125.698 17.9992 127.236 17.9992V15.2145ZM127.236 14.2186H130.021C130.021 12.6806 128.774 11.4339 127.236 11.4339V14.2186ZM125.107 14.2186V11.4339C123.569 11.4339 122.322 12.6806 122.322 14.2186H125.107ZM125.107 15.2145V17.9992C126.645 17.9992 127.891 16.7525 127.891 15.2145H125.107ZM118.925 15.2145V12.4299C117.387 12.4299 116.14 13.6766 116.14 15.2145H118.925ZM117.414 29.0552L114.975 27.7113C114.605 28.3819 114.528 29.175 114.761 29.9042C114.995 30.6334 115.518 31.2343 116.209 31.5656L117.414 29.0552ZM118.976 30.1885L116.957 32.1065C117.561 32.742 118.429 33.0562 119.3 32.9544C120.17 32.8525 120.942 32.3466 121.383 31.5889L118.976 30.1885ZM120.178 26.8743L121.904 24.6887C121.153 24.0959 120.15 23.9301 119.248 24.2495C118.347 24.5689 117.672 25.3289 117.462 26.2622L120.178 26.8743ZM121.191 28.0077L118.804 29.4404C119.483 30.5729 120.865 31.0723 122.111 30.636L121.191 28.0077ZM123.097 27.235L124.937 25.1445C124.104 24.4115 122.916 24.2429 121.912 24.7153L123.097 27.235ZM124.54 28.2309L125.099 30.959C126.243 30.7246 127.119 29.8013 127.293 28.6465C127.468 27.4917 126.903 26.3509 125.879 25.7893L124.54 28.2309ZM120.058 28.832L119.869 26.0538C118.846 26.1234 117.945 26.7487 117.522 27.6817C117.099 28.6147 117.222 29.7047 117.843 30.5196L120.058 28.832ZM120.814 30.2229L118.206 31.2006C118.651 32.3875 119.842 33.1241 121.103 32.9925L120.814 30.2229ZM126.635 29.1239L127.515 26.4821C126.97 26.3002 126.381 26.2918 125.83 26.4581L126.635 29.1239ZM132.628 30.2229L132.411 32.9991C133.556 33.0885 134.639 32.4658 135.137 31.4309L132.628 30.2229ZM133.624 28.6946L135.684 30.5677C136.412 29.7679 136.61 28.6194 136.194 27.6219C135.777 26.6243 134.821 25.9579 133.741 25.9124L133.624 28.6946ZM129.005 28.1966L127.793 25.6894C126.713 26.2111 126.089 27.3652 126.243 28.5542C126.397 29.7431 127.295 30.7001 128.471 30.9297L129.005 28.1966ZM131.563 26.3077L133.671 28.1278C134.202 27.513 134.438 26.6969 134.317 25.8936C134.196 25.0903 133.731 24.3797 133.042 23.9483L131.563 26.3077ZM127.203 24.3928C126.896 24.584 126.445 24.7924 125.857 24.9882L127.619 30.2717C128.474 29.9866 129.361 29.6111 130.154 29.1155L127.203 24.3928ZM127.582 24.9763C126.995 24.7896 126.581 24.5912 126.307 24.4142L123.288 29.0941C124.078 29.604 124.969 29.9894 125.894 30.2835L127.582 24.9763ZM124.797 29.5388H128.678V23.9695H124.797V29.5388ZM123.291 27.6993C124.688 26.7481 125.497 25.4089 125.96 24.3442L120.853 22.1236C120.629 22.6387 120.373 22.948 120.157 23.0958L123.291 27.6993ZM124.507 20.676L123.151 20.0922L120.949 25.2078L122.306 25.7917L124.507 20.676ZM119.533 21.458C119.473 21.5847 119.379 21.74 119.261 21.8875C119.141 22.0372 119.035 22.1303 118.972 22.1747L122.174 26.7315C123.278 25.9561 124.094 24.8399 124.567 23.8421L119.533 21.458ZM123.343 24.7372C123.417 24.0217 123.472 23.3074 123.508 22.6286L117.947 22.328C117.915 22.9199 117.867 23.545 117.803 24.169L123.343 24.7372ZM120.728 25.263H125.261V19.6936H120.728V25.263ZM123.623 20.2263L123.434 20.3636L126.71 24.8677L126.899 24.7304L123.623 20.2263ZM123.856 25.1205C123.969 25.1757 124.171 25.2954 124.394 25.4572C124.498 25.533 124.589 25.6048 124.659 25.6651C124.735 25.7301 124.761 25.7586 124.75 25.7468L128.863 21.9916C128.232 21.3 127.159 20.5337 126.289 20.1109L123.856 25.1205ZM128.504 26.0764L129.621 25.2178L126.225 20.8035L125.109 21.6621L128.504 26.0764ZM129.786 20.9408C129.47 20.6563 129.084 20.3812 128.796 20.1836L125.641 24.773C125.758 24.8535 125.858 24.9249 125.939 24.9851C125.978 25.0148 126.009 25.0386 126.031 25.0568C126.055 25.0756 126.063 25.0832 126.06 25.0805L129.786 20.9408ZM127.219 25.263H131.529V19.6936H127.219V25.263ZM128.887 21.5977C128.799 21.8633 128.701 22.1041 128.614 22.2886L133.654 24.66C133.842 24.2606 134.019 23.8145 134.171 23.3589L128.887 21.5977ZM133.103 21.5052C132.704 21.1059 132.23 20.6714 131.74 20.2976L128.365 24.7276C128.595 24.9034 128.877 25.1558 129.165 25.4433L133.103 21.5052ZM128.766 20.0426L127.513 20.6951L130.084 25.6352L131.338 24.9827L128.766 20.0426ZM127.035 25.3204C127.096 25.3704 127.184 25.4546 127.396 25.6666L131.334 21.7285C131.168 21.5626 130.879 21.269 130.562 21.01L127.035 25.3204ZM130.041 20.996C129.88 20.9558 129.727 20.9124 129.609 20.8722C129.551 20.8525 129.52 20.8398 129.511 20.836C129.495 20.8291 129.548 20.8501 129.639 20.9068L126.687 25.6296C127.39 26.0688 128.328 26.3085 128.69 26.399L130.041 20.996ZM125.396 22.9607C125.382 23.0867 125.379 23.0576 125.402 22.9663C125.423 22.8844 125.516 22.5224 125.825 22.1322C126.193 21.6673 126.667 21.4063 127.079 21.2878C127.254 21.2374 127.394 21.2192 127.47 21.2119C127.547 21.2045 127.596 21.2048 127.597 21.2048V26.7741C127.832 26.7741 129.225 26.8104 130.192 25.5891C130.582 25.0959 130.736 24.5922 130.805 24.3171C130.876 24.0327 130.91 23.7588 130.931 23.5757L125.396 22.9607ZM127.597 21.2048H125.793V26.7741H127.597V21.2048ZM125.793 21.2048C125.672 21.2048 125.703 21.2003 125.792 21.2111C125.857 21.2189 126.261 21.2648 126.718 21.5452C127.293 21.8982 127.647 22.4248 127.811 22.9248C127.879 23.1325 127.904 23.3025 127.915 23.3987C127.925 23.4957 127.926 23.5626 127.926 23.5773H122.356C122.356 23.7697 122.31 25.3749 123.805 26.292C124.356 26.6304 124.888 26.7117 125.127 26.7405C125.39 26.7721 125.641 26.7741 125.793 26.7741V21.2048ZM127.926 23.5773V22.8217H122.356V23.5773H127.926ZM125.141 20.0371H123.527V25.6064H125.141V20.0371ZM120.742 22.8217V23.5945H126.311V22.8217H120.742ZM120.742 23.5945C120.742 24.1122 120.783 24.9541 121.204 25.7815C121.707 26.7684 122.532 27.3379 123.356 27.6285L125.209 22.3767C125.296 22.4074 125.475 22.4836 125.676 22.6473C125.889 22.8202 126.055 23.0332 126.167 23.2535C126.271 23.4574 126.302 23.6152 126.31 23.6657C126.318 23.7124 126.311 23.7009 126.311 23.5945H120.742ZM122.672 22.7311C122.052 23.1701 120.974 23.706 119.424 24.1424L120.933 29.5033C122.92 28.9437 124.623 28.1745 125.893 27.2741L122.672 22.7311ZM122.901 27.4063C123.076 26.5881 123.21 25.7443 123.305 24.9293L117.773 24.286C117.696 24.9478 117.589 25.6151 117.455 26.2394L122.901 27.4063ZM118.994 26.9246L120.179 27.7145L123.268 23.0806L122.083 22.2907L118.994 26.9246ZM120.227 16.7428V17.5499H125.796V16.7428H120.227ZM123.012 14.7653H120.779V20.3346H123.012V14.7653ZM123.564 17.5499V16.7428H117.995V17.5499H123.564ZM120.779 19.5275H123.012V13.9582H120.779V19.5275ZM126.892 14.7653H124.78V20.3346H126.892V14.7653ZM127.565 17.5499V16.7428H121.996V17.5499H127.565ZM124.78 19.5275H126.892V13.9582H124.78V19.5275ZM124.108 16.7428V17.5499H129.677V16.7428H124.108ZM128.057 18.6661V19.4732H133.627V18.6661H128.057ZM130.842 16.6885H128.713V22.2579H130.842V16.6885ZM131.497 19.4732V18.6661H125.928V19.4732H131.497ZM128.713 21.4508H130.842V15.8815H128.713V21.4508ZM124.78 21.4508H126.892V15.8815H124.78V21.4508ZM124.108 18.6661V19.4732H129.677V18.6661H124.108ZM126.892 16.6885H124.78V22.2579H126.892V16.6885ZM127.565 19.4732V18.6661H121.996V19.4732H127.565ZM123.012 16.6885H120.779V22.2579H123.012V16.6885ZM123.564 19.4732V18.6661H117.995V19.4732H123.564ZM120.779 21.4508H123.012V15.8815H120.779V21.4508ZM120.227 18.6661V19.4732H125.796V18.6661H120.227ZM129.809 22.8681L129.5 22.9368L130.708 28.3735L131.017 28.3048L129.809 22.8681ZM130.104 22.8705H125.725V28.4398H130.104V22.8705ZM127.507 27.7944C127.704 27.6305 127.958 27.4197 128.199 27.2004L124.453 23.0795C124.316 23.2036 124.158 23.3363 123.942 23.5159L127.507 27.7944ZM126.326 27.9246H127.82V22.3553H126.326V27.9246ZM127.82 27.9246C128.473 27.9246 129.682 27.8676 130.723 27.0354C131.831 26.149 132.113 24.9131 132.213 24.1397L126.689 23.427C126.652 23.7183 126.651 23.1607 127.244 22.6865C127.517 22.4675 127.772 22.3887 127.883 22.3634C127.974 22.3424 127.978 22.3553 127.82 22.3553V27.9246ZM127.482 25.7524C127.878 26.1485 128.134 26.4919 128.213 26.6289L133.024 23.8227C132.623 23.1355 132.02 22.4143 131.42 21.8143L127.482 25.7524ZM131.939 27.6776L133.278 26.9564L130.638 22.0528L129.299 22.774L131.939 27.6776ZM134.301 22.9988C134.054 22.6147 133.739 22.2103 133.411 21.838L129.235 25.5227C129.421 25.7342 129.554 25.9137 129.616 26.0104L134.301 22.9988ZM130.737 26.4027L132.094 26.6946L133.265 21.2499L131.909 20.958L130.737 26.4027ZM135.131 25.2925C135.595 24.4307 136.048 23.2688 136.377 22.3693L131.146 20.458C130.822 21.3444 130.485 22.1744 130.228 22.6521L135.131 25.2925ZM134.362 18.6945L133.039 18.4025L131.839 23.8409L133.161 24.1328L134.362 18.6945ZM131.955 18.3794L131.663 18.4309L132.631 23.9155L132.923 23.864L131.955 18.3794ZM132.147 18.3886H120.779V23.9579H132.147V18.3886ZM123.564 21.1732V20.6237H117.995V21.1732H123.564ZM120.779 23.4084H132.714V17.8391H120.779V23.4084ZM135.498 20.6237V17.5499H129.929V20.6237H135.498ZM132.714 14.7653H128.713V20.3346H132.714V14.7653ZM131.497 17.5499V16.7428H125.928V17.5499H131.497ZM128.713 19.5275H133.315V13.9582H128.713V19.5275ZM136.099 16.7428V15.2145H130.53V16.7428H136.099ZM133.315 12.4299H127.236V17.9992H133.315V12.4299ZM130.021 15.2145V14.2186H124.451V15.2145H130.021ZM127.236 11.4339H125.107V17.0032H127.236V11.4339ZM122.322 14.2186V15.2145H127.891V14.2186H122.322ZM125.107 12.4299H118.925V17.9992H125.107V12.4299ZM116.14 15.2145V20.3146H121.709V15.2145H116.14ZM116.14 20.3146C116.14 21.5721 116.109 22.9788 115.93 24.3405C115.747 25.7259 115.433 26.8803 114.975 27.7113L119.852 30.3991C120.785 28.7058 121.226 26.7778 121.451 25.068C121.68 23.3344 121.709 21.633 121.709 20.3146H116.14ZM116.209 31.5656C116.181 31.5525 116.212 31.5658 116.307 31.6257C116.391 31.6791 116.493 31.7481 116.6 31.8252C116.706 31.9025 116.803 31.9773 116.878 32.0399C116.964 32.1109 116.982 32.1329 116.957 32.1065L120.995 28.2706C120.655 27.9123 120.208 27.5621 119.867 27.3155C119.525 27.0673 119.058 26.7555 118.619 26.5448L116.209 31.5656ZM121.383 31.5889C122.133 30.3004 122.589 28.8435 122.895 27.4865L117.462 26.2622C117.218 27.3436 116.919 28.1878 116.569 28.7882L121.383 31.5889ZM118.453 29.06C118.438 29.0483 118.456 29.0617 118.505 29.1091C118.55 29.1526 118.603 29.2076 118.657 29.2681C118.711 29.3289 118.757 29.3842 118.79 29.4268C118.828 29.4756 118.827 29.4793 118.804 29.4404L123.579 26.575C123.182 25.9122 122.465 25.132 121.904 24.6887L118.453 29.06ZM122.111 30.636C122.877 30.3679 123.603 30.0749 124.283 29.7546L121.912 24.7153C121.425 24.9446 120.879 25.1667 120.271 25.3794L122.111 30.636ZM121.258 29.3254C121.866 29.8604 122.521 30.2998 123.201 30.6726L125.879 25.7893C125.494 25.5782 125.188 25.3651 124.937 25.1445L121.258 29.3254ZM123.981 25.5029C122.685 25.7685 121.263 25.9587 119.869 26.0538L120.247 31.6102C121.875 31.4992 123.545 31.2773 125.099 30.959L123.981 25.5029ZM117.843 30.5196C117.842 30.5188 117.848 30.5265 117.86 30.5444C117.872 30.5619 117.888 30.5854 117.906 30.6149C117.943 30.6748 117.986 30.7477 118.029 30.8283C118.123 31.0024 118.185 31.143 118.206 31.2006L123.421 29.2451C123.186 28.6185 122.737 27.7527 122.273 27.1443L117.843 30.5196ZM121.103 32.9925C123.184 32.7753 125.397 32.4065 127.44 31.7897L125.83 26.4581C124.233 26.9403 122.392 27.2584 120.525 27.4533L121.103 32.9925ZM125.754 31.7656C127.793 32.4451 130.078 32.8168 132.411 32.9991L132.845 27.4467C130.782 27.2855 128.98 26.9704 127.515 26.4821L125.754 31.7656ZM135.137 31.4309C135.189 31.3228 135.292 31.1358 135.423 30.9333C135.485 30.8367 135.544 30.7507 135.596 30.6806C135.621 30.646 135.643 30.6186 135.659 30.598C135.676 30.5769 135.685 30.5675 135.684 30.5677L131.563 26.8214C130.989 27.4535 130.421 28.3872 130.119 29.0149L135.137 31.4309ZM133.741 25.9124C132.199 25.8475 130.767 25.7033 129.538 25.4635L128.471 30.9297C130.059 31.2394 131.786 31.4043 133.507 31.4768L133.741 25.9124ZM130.216 30.7037C131.516 30.0758 132.721 29.227 133.671 28.1278L129.456 24.4876C129.1 24.8995 128.554 25.3214 127.793 25.6894L130.216 30.7037ZM133.042 23.9483L131.892 23.227L128.934 27.9458L130.084 28.6671L133.042 23.9483ZM149.027 27.338H146.243C146.243 28.8759 147.489 30.1226 149.027 30.1226V27.338ZM149.027 21.3965V18.6118C147.489 18.6118 146.243 19.8585 146.243 21.3965H149.027ZM155.089 21.3965V24.1811C156.627 24.1811 157.874 22.9344 157.874 21.3965H155.089ZM155.089 19.3186H157.874C157.874 17.7807 156.627 16.534 155.089 16.534V19.3186ZM149.027 19.3186H146.243C146.243 20.8566 147.489 22.1033 149.027 22.1033V19.3186ZM149.027 14.4074H151.812C151.812 12.8695 150.565 11.6228 149.027 11.6228V14.4074ZM146.829 14.4074V11.6228C145.291 11.6228 144.045 12.8695 144.045 14.4074H146.829ZM146.829 27.338V30.1226C148.367 30.1226 149.614 28.8759 149.614 27.338H146.829ZM140.682 27.338V24.5533C139.144 24.5533 137.897 25.8001 137.897 27.338H140.682ZM140.682 29.3986H137.897C137.897 30.9366 139.144 32.1833 140.682 32.1833V29.3986ZM156.291 29.3986V32.1833C157.829 32.1833 159.076 30.9366 159.076 29.3986H156.291ZM156.291 27.338H159.076C159.076 25.8001 157.829 24.5533 156.291 24.5533V27.338ZM151.812 27.338V21.3965H146.243V27.338H151.812ZM149.027 24.1811H155.089V18.6118H149.027V24.1811ZM157.874 21.3965V19.3186H152.304V21.3965H157.874ZM155.089 16.534H149.027V22.1033H155.089V16.534ZM151.812 19.3186V14.4074H146.243V19.3186H151.812ZM149.027 11.6228H146.829V17.1921H149.027V11.6228ZM144.045 14.4074V27.338H149.614V14.4074H144.045ZM146.829 24.5533H140.682V30.1226H146.829V24.5533ZM137.897 27.338V29.3986H143.466V27.338H137.897ZM140.682 32.1833H156.291V26.614H140.682V32.1833ZM159.076 29.3986V27.338H153.506V29.3986H159.076ZM156.291 24.5533H149.027V30.1226H156.291V24.5533ZM179.181 18.357V21.1417C180.719 21.1417 181.966 19.8949 181.966 18.357H179.181ZM179.181 16.3651H181.966C181.966 14.8271 180.719 13.5804 179.181 13.5804V16.3651ZM172.364 16.3651H169.579C169.579 17.903 170.826 19.1497 172.364 19.1497V16.3651ZM172.364 14.1327H175.149C175.149 12.5948 173.902 11.348 172.364 11.348V14.1327ZM170.183 14.1327V11.348C168.645 11.348 167.399 12.5948 167.399 14.1327H170.183ZM170.183 16.3651V19.1497C171.721 19.1497 172.968 17.903 172.968 16.3651H170.183ZM163.52 16.3651V13.5804C161.982 13.5804 160.736 14.8271 160.736 16.3651H163.52ZM163.52 18.357H160.736C160.736 19.8949 161.982 21.1417 163.52 21.1417V18.357ZM170.2 18.357H172.985C172.985 16.8191 171.738 15.5724 170.2 15.5724V18.357ZM170.2 20.1601V22.9447C171.738 22.9447 172.985 21.698 172.985 20.1601H170.2ZM165.135 20.1601V17.3754C163.597 17.3754 162.35 18.6222 162.35 20.1601H165.135ZM165.135 28.1794H162.35C162.35 29.7173 163.597 30.9641 165.135 30.9641V28.1794ZM167.195 28.1794V30.9641C168.733 30.9641 169.98 29.7173 169.98 28.1794H167.195ZM167.195 22.152V19.3674C165.657 19.3674 164.411 20.6141 164.411 22.152H167.195ZM170.2 22.152H172.985C172.985 20.6141 171.738 19.3674 170.2 19.3674V22.152ZM170.2 30.2572H167.416C167.416 31.7952 168.662 33.0419 170.2 33.0419V30.2572ZM172.33 30.2572V33.0419C173.868 33.0419 175.114 31.7952 175.114 30.2572H172.33ZM172.33 22.152V19.3674C170.792 19.3674 169.545 20.6141 169.545 22.152H172.33ZM175.61 22.152H178.394C178.394 20.6141 177.147 19.3674 175.61 19.3674V22.152ZM173.102 26.1703L173.214 23.3879C172.217 23.348 171.276 23.844 170.745 24.6882C170.214 25.5325 170.175 26.5961 170.643 27.4767L173.102 26.1703ZM173.789 28.1794L171.034 28.5846C171.235 29.9513 172.408 30.9641 173.789 30.9641V28.1794ZM176.829 27.836L177.926 30.3955C177.933 30.3923 177.941 30.389 177.948 30.3857L176.829 27.836ZM177.739 20.1601H180.524C180.524 18.6222 179.277 17.3754 177.739 17.3754V20.1601ZM172.33 20.1601H169.545C169.545 21.698 170.792 22.9447 172.33 22.9447V20.1601ZM172.33 18.357V15.5724C170.792 15.5724 169.545 16.8191 169.545 18.357H172.33ZM181.966 18.357V16.3651H176.397V18.357H181.966ZM179.181 13.5804H172.364V19.1497H179.181V13.5804ZM175.149 16.3651V14.1327H169.579V16.3651H175.149ZM172.364 11.348H170.183V16.9174H172.364V11.348ZM167.399 14.1327V16.3651H172.968V14.1327H167.399ZM170.183 13.5804H163.52V19.1497H170.183V13.5804ZM160.736 16.3651V18.357H166.305V16.3651H160.736ZM163.52 21.1417H170.2V15.5724H163.52V21.1417ZM167.416 18.357V20.1601H172.985V18.357H167.416ZM170.2 17.3754H165.135V22.9447H170.2V17.3754ZM162.35 20.1601V28.1794H167.919V20.1601H162.35ZM165.135 30.9641H167.195V25.3948H165.135V30.9641ZM169.98 28.1794V22.152H164.411V28.1794H169.98ZM167.195 24.9367H170.2V19.3674H167.195V24.9367ZM167.416 22.152V30.2572H172.985V22.152H167.416ZM170.2 33.0419H172.33V27.4726H170.2V33.0419ZM175.114 30.2572V22.152H169.545V30.2572H175.114ZM172.33 24.9367H175.61V19.3674H172.33V24.9367ZM172.825 22.152V25.9299H178.394V22.152H172.825ZM172.825 25.9299C172.825 25.6525 172.89 24.6929 173.783 23.9718C174.502 23.3903 175.24 23.42 175.249 23.42V28.9893C175.532 28.9893 176.45 28.976 177.282 28.3044C178.286 27.4932 178.394 26.3962 178.394 25.9299H172.825ZM175.249 23.42C174.97 23.42 174.009 23.4197 173.214 23.3879L172.991 28.9527C173.913 28.9896 174.979 28.9893 175.249 28.9893V23.42ZM170.643 27.4767C170.814 27.7979 171.003 28.3702 171.034 28.5846L176.544 27.7743C176.404 26.8209 175.975 25.6417 175.562 24.8639L170.643 27.4767ZM173.789 30.9641C174.986 30.9641 176.58 30.9722 177.926 30.3955L175.732 25.2765C175.744 25.2714 175.638 25.3175 175.28 25.3512C174.921 25.3849 174.458 25.3948 173.789 25.3948V30.9641ZM177.948 30.3857C178.875 29.9789 179.636 29.2857 180.083 28.3035C180.469 27.4541 180.524 26.5881 180.524 25.9642H174.954C174.954 26.1188 174.946 26.1889 174.943 26.203C174.942 26.2149 174.952 26.1316 175.013 25.9989C175.078 25.8543 175.186 25.6896 175.34 25.5411C175.491 25.3965 175.632 25.3202 175.709 25.2862L177.948 30.3857ZM180.524 25.9642V20.1601H174.954V25.9642H180.524ZM177.739 17.3754H172.33V22.9447H177.739V17.3754ZM175.114 20.1601V18.357H169.545V20.1601H175.114ZM172.33 21.1417H179.181V15.5724H172.33V21.1417ZM201.011 14.8539L202.409 12.4454C201.748 12.0619 200.958 11.9668 200.225 12.1824L201.011 14.8539ZM200.719 14.9398V17.7244C200.985 17.7244 201.25 17.6863 201.505 17.6113L200.719 14.9398ZM196.666 14.9398V12.1551C195.129 12.1551 193.882 13.4019 193.882 14.9398H196.666ZM196.666 30.2401H193.882C193.882 31.778 195.129 33.0247 196.666 33.0247V30.2401ZM198.573 30.2401V33.0247C200.11 33.0247 201.357 31.778 201.357 30.2401H198.573ZM198.573 16.76V13.9754C197.035 13.9754 195.788 15.2221 195.788 16.76H198.573ZM200.084 16.76L202.781 17.4535C202.995 16.6199 202.812 15.7339 202.284 15.0537C201.757 14.3734 200.944 13.9754 200.084 13.9754V16.76ZM199.019 20.6066L196.373 19.7384C196.066 20.676 196.277 21.7063 196.929 22.4469L199.019 20.6066ZM199.981 24.5905L201.525 26.9074C201.568 26.8789 201.61 26.8491 201.651 26.8182L199.981 24.5905ZM198.676 24.7278L198.822 21.947C197.806 21.8936 196.842 22.3981 196.307 23.2631C195.772 24.128 195.751 25.2159 196.253 26.1007L198.676 24.7278ZM199.139 26.5481L196.356 26.6408C196.406 28.1418 197.637 29.3327 199.139 29.3327V26.5481ZM200.324 26.5137L200.737 29.2676C200.766 29.2633 200.794 29.2586 200.822 29.2535L200.324 26.5137ZM201.337 26.1188L199.76 23.8241C199.698 23.8662 199.639 23.9107 199.581 23.9576L201.337 26.1188ZM202.127 23.8864H199.343C199.343 23.9005 199.343 23.9145 199.343 23.9286L202.127 23.8864ZM200.805 20.3833L198.217 19.3548C197.838 20.3092 198.015 21.3948 198.677 22.1796L200.805 20.3833ZM202.402 15.661L205.053 16.5141C205.454 15.2675 204.932 13.9097 203.799 13.2525L202.402 15.661ZM204.858 19.7479V16.9633C203.32 16.9633 202.073 18.21 202.073 19.7479H204.858ZM208.841 19.7479H211.626C211.626 18.21 210.379 16.9633 208.841 16.9633V19.7479ZM208.841 21.1904V23.9751C210.379 23.9751 211.626 22.7283 211.626 21.1904H208.841ZM204.858 21.1904H202.073C202.073 22.7283 203.32 23.9751 204.858 23.9751V21.1904ZM208.841 16.7257H211.626C211.626 15.1878 210.379 13.941 208.841 13.941V16.7257ZM208.841 18.0823V20.8669C210.379 20.8669 211.626 19.6202 211.626 18.0823H208.841ZM204.858 18.0823H202.073C202.073 19.6202 203.32 20.8669 204.858 20.8669V18.0823ZM204.858 16.7257V13.941C203.32 13.941 202.073 15.1878 202.073 16.7257H204.858ZM210.078 23.0622L211.689 20.7912C210.454 19.9144 208.744 20.1862 207.841 21.4029L210.078 23.0622ZM208.532 24.7622L205.997 25.9145C206.372 26.739 207.124 27.3298 208.014 27.4982C208.904 27.6667 209.821 27.3918 210.471 26.7613L208.532 24.7622ZM207.88 22.9419V20.1573C207.013 20.1573 206.196 20.5609 205.669 21.2491C205.142 21.9374 204.965 22.8317 205.192 23.6685L207.88 22.9419ZM210.868 22.9419V25.7266C212.406 25.7266 213.652 24.4799 213.652 22.9419H210.868ZM210.868 14.957H213.652C213.652 13.419 212.406 12.1723 210.868 12.1723V14.957ZM202.9 14.957V12.1723C201.362 12.1723 200.115 13.419 200.115 14.957H202.9ZM202.9 27.7158L203.323 30.468C204.682 30.2591 205.685 29.0902 205.685 27.7158H202.9ZM201.114 27.9905L200.746 25.2303C199.92 25.3404 199.188 25.8141 198.748 26.5216C198.309 27.2292 198.209 28.0962 198.477 28.8849L201.114 27.9905ZM201.784 29.9653L199.147 30.8596C199.603 32.2069 201.002 32.9931 202.391 32.683L201.784 29.9653ZM207.485 28.7118L208.121 31.4227C209.468 31.1065 210.378 29.8498 210.259 28.4717L207.485 28.7118ZM207.33 26.9259L210.105 26.6858C210.037 25.9023 209.641 25.184 209.015 24.7083C208.388 24.2326 207.59 24.044 206.817 24.1889L207.33 26.9259ZM204.858 27.3723H202.073C202.073 28.1926 202.434 28.9711 203.061 29.5002C203.688 30.0293 204.516 30.2551 205.325 30.1175L204.858 27.3723ZM204.858 22.9419V20.1573C203.32 20.1573 202.073 21.404 202.073 22.9419H204.858ZM206.094 22.9419L208.807 22.3158C208.516 21.0523 207.391 20.1573 206.094 20.1573V22.9419ZM210.73 30.1885L209.425 32.6484C210.088 33 210.864 33.0694 211.579 32.8408C212.293 32.6121 212.886 32.1049 213.221 31.4339L210.73 30.1885ZM212.053 28.4542L213.941 30.5003C214.629 29.8652 214.952 28.9267 214.8 28.0026C214.649 27.0785 214.042 26.2927 213.187 25.9111L212.053 28.4542ZM209.357 26.2046L207.661 23.9955C206.478 24.9037 206.22 26.5831 207.077 27.8042L209.357 26.2046ZM211.675 24.1955L213.596 26.2109C214.198 25.637 214.512 24.8241 214.452 23.9946C214.392 23.1652 213.965 22.4059 213.286 21.9246L211.675 24.1955ZM200.225 12.1824L199.933 12.2683L201.505 17.6113L201.797 17.5254L200.225 12.1824ZM200.719 12.1551H196.666V17.7244H200.719V12.1551ZM193.882 14.9398V30.2401H199.451V14.9398H193.882ZM196.666 33.0247H198.573V27.4554H196.666V33.0247ZM201.357 30.2401V16.76H195.788V30.2401H201.357ZM198.573 19.5447H200.084V13.9754H198.573V19.5447ZM197.387 16.0665C197.069 17.3038 196.699 18.746 196.373 19.7384L201.665 21.4747C202.061 20.269 202.481 18.6203 202.781 17.4535L197.387 16.0665ZM196.929 22.4469C197.227 22.7853 197.362 23.0496 197.426 23.2218C197.49 23.3939 197.505 23.5284 197.505 23.6288H203.074C203.074 22.1567 202.578 20.4346 201.109 18.7662L196.929 22.4469ZM197.505 23.6288C197.505 23.6938 197.495 23.5865 197.56 23.3833C197.628 23.1732 197.82 22.7302 198.31 22.3627L201.651 26.8182C202.989 25.8147 203.074 24.2514 203.074 23.6288H197.505ZM198.436 22.2735C198.541 22.2037 198.699 22.1164 198.906 22.051C199.116 21.9846 199.315 21.9604 199.483 21.9604V27.5297C200.267 27.5297 200.952 27.2894 201.525 26.9074L198.436 22.2735ZM199.483 21.9604C199.263 21.9604 199.069 21.96 198.822 21.947L198.529 27.5086C198.935 27.53 199.256 27.5297 199.483 27.5297V21.9604ZM196.253 26.1007C196.231 26.0623 196.234 26.0587 196.25 26.1029C196.264 26.1437 196.283 26.2037 196.301 26.2797C196.319 26.3548 196.333 26.4315 196.342 26.5019C196.352 26.574 196.356 26.6223 196.356 26.6408L201.922 26.4553C201.896 25.6642 201.684 24.3889 201.098 23.355L196.253 26.1007ZM199.139 29.3327C199.369 29.3327 200.123 29.3597 200.737 29.2676L199.911 23.7599C199.928 23.7573 199.889 23.7641 199.734 23.7657C199.662 23.7665 199.581 23.7662 199.479 23.7654C199.383 23.7646 199.261 23.7634 199.139 23.7634V29.3327ZM200.822 29.2535C201.296 29.1672 202.247 28.9674 203.093 28.28L199.581 23.9576C199.745 23.8247 199.881 23.7704 199.92 23.7563C199.954 23.7441 199.938 23.7536 199.826 23.774L200.822 29.2535ZM202.915 28.4134C204.643 27.2255 204.933 25.2665 204.912 23.8442L199.343 23.9286C199.346 24.1049 199.337 24.2256 199.327 24.3007C199.317 24.3762 199.309 24.388 199.32 24.3552C199.333 24.3196 199.368 24.234 199.446 24.1272C199.527 24.0167 199.634 23.9108 199.76 23.8241L202.915 28.4134ZM204.912 23.8864C204.912 22.3796 204.559 20.5135 202.933 18.5871L198.677 22.1796C199.017 22.5818 199.164 22.895 199.237 23.1203C199.312 23.3509 199.343 23.5882 199.343 23.8864H204.912ZM203.393 21.4118C203.97 19.9596 204.594 17.9383 205.053 16.5141L199.751 14.8079C199.248 16.3716 198.705 18.1282 198.217 19.3548L203.393 21.4118ZM203.799 13.2525L202.409 12.4454L199.613 17.2625L201.004 18.0696L203.799 13.2525ZM204.858 22.5326H208.841V16.9633H204.858V22.5326ZM206.057 19.7479V21.1904H211.626V19.7479H206.057ZM208.841 18.4057H204.858V23.9751H208.841V18.4057ZM207.642 21.1904V19.7479H202.073V21.1904H207.642ZM206.057 16.7257V18.0823H211.626V16.7257H206.057ZM208.841 15.2976H204.858V20.8669H208.841V15.2976ZM207.642 18.0823V16.7257H202.073V18.0823H207.642ZM204.858 19.5103H208.841V13.941H204.858V19.5103ZM207.841 21.4029C207.581 21.7541 207.124 22.2492 206.594 22.7631L210.471 26.7613C211.074 26.1761 211.785 25.4348 212.314 24.7214L207.841 21.4029ZM211.067 23.6099C210.873 23.1824 210.701 22.7067 210.568 22.2154L205.192 23.6685C205.402 24.4479 205.676 25.2086 205.997 25.9145L211.067 23.6099ZM207.88 25.7266H210.868V20.1573H207.88V25.7266ZM213.652 22.9419V14.957H208.083V22.9419H213.652ZM210.868 12.1723H202.9V17.7416H210.868V12.1723ZM200.115 14.957V27.7158H205.685V14.957H200.115ZM202.476 24.9635C201.735 25.0776 201.228 25.1661 200.746 25.2303L201.482 30.7508C202.031 30.6776 202.726 30.56 203.323 30.468L202.476 24.9635ZM198.477 28.8849L199.147 30.8596L204.421 29.071L203.751 27.0962L198.477 28.8849ZM202.391 32.683C203.91 32.3435 206.147 31.8863 208.121 31.4227L206.848 26.0008C204.874 26.4645 202.885 26.8659 201.177 27.2476L202.391 32.683ZM210.259 28.4717L210.105 26.6858L204.556 27.1659L204.711 28.9518L210.259 28.4717ZM206.817 24.1889C205.998 24.3425 205.174 24.4937 204.39 24.6272L205.325 30.1175C206.155 29.9762 207.014 29.8183 207.843 29.6628L206.817 24.1889ZM207.642 27.3723V22.9419H202.073V27.3723H207.642ZM204.858 25.7266H206.094V20.1573H204.858V25.7266ZM203.381 23.5681C204.225 27.2259 205.847 30.7496 209.425 32.6484L212.036 27.7287C210.565 26.9487 209.509 25.3551 208.807 22.3158L203.381 23.5681ZM213.221 31.4339C213.329 31.2179 213.714 30.71 213.941 30.5003L210.164 26.408C209.498 27.0226 208.681 28.0602 208.24 28.9432L213.221 31.4339ZM213.187 25.9111C212.568 25.6347 212.058 25.2058 211.636 24.6051L207.077 27.8042C208.029 29.1611 209.305 30.2777 210.918 30.9972L213.187 25.9111ZM211.052 28.4137C211.89 27.7705 212.808 26.9624 213.596 26.2109L209.753 22.1801C209.065 22.8367 208.3 23.5055 207.661 23.9955L211.052 28.4137ZM213.286 21.9246L211.689 20.7912L208.466 25.3331L210.063 26.4664L213.286 21.9246ZM222.785 17.0691H225.57C225.57 15.5312 224.323 14.2845 222.785 14.2845V17.0691ZM222.785 20.0914V22.876C224.323 22.876 225.57 21.6293 225.57 20.0914H222.785ZM221.205 20.0914H218.421C218.421 21.6293 219.667 22.876 221.205 22.876V20.0914ZM221.205 17.0691V14.2845C219.667 14.2845 218.421 15.5312 218.421 17.0691H221.205ZM221.205 25.1056H218.421C218.421 26.6435 219.667 27.8903 221.205 27.8903V25.1056ZM221.205 21.8773V19.0926C219.667 19.0926 218.421 20.3394 218.421 21.8773H221.205ZM222.785 21.8773H225.57C225.57 20.3394 224.323 19.0926 222.785 19.0926V21.8773ZM222.785 25.1056V27.8903C224.323 27.8903 225.57 26.6435 225.57 25.1056H222.785ZM224.691 15.2489H227.476C227.476 13.711 226.229 12.4642 224.691 12.4642V15.2489ZM219.316 15.2489V12.4642C217.778 12.4642 216.532 13.711 216.532 15.2489H219.316ZM219.316 28.437H216.532C216.532 29.9749 217.778 31.2217 219.316 31.2217V28.437ZM221.205 28.437V31.2217C222.743 31.2217 223.99 29.9749 223.99 28.437H221.205ZM221.205 26.9259V24.1412C219.667 24.1412 218.421 25.3879 218.421 26.9259H221.205ZM224.691 26.9259V29.7105C226.229 29.7105 227.476 28.4638 227.476 26.9259H224.691ZM225.704 25.4834L224.309 23.0735C223.587 23.4917 223.09 24.2118 222.956 25.0356C222.822 25.8594 223.064 26.6999 223.616 27.3258L225.704 25.4834ZM227.662 28.3683L225.069 29.383C225.365 30.1391 225.976 30.7284 226.742 30.9966C227.508 31.2648 228.353 31.1853 229.056 30.7788L227.662 28.3683ZM229.414 27.3552L230.808 29.7656C232.028 29.0599 232.528 27.5538 231.973 26.2582L229.414 27.3552ZM227.336 24.5389L229.366 22.633C228.48 21.6893 227.061 21.4805 225.94 22.129L227.336 24.5389ZM234.788 21.0874V23.872C236.326 23.872 237.573 22.6253 237.573 21.0874H234.788ZM234.788 19.3015H237.573C237.573 17.7636 236.326 16.5168 234.788 16.5168V19.3015ZM230.873 19.3015H228.088C228.088 20.8394 229.335 22.0861 230.873 22.0861V19.3015ZM230.873 17.7903V15.0057C229.335 15.0057 228.088 16.2524 228.088 17.7903H230.873ZM234.308 17.7903V20.575C235.845 20.575 237.092 19.3283 237.092 17.7903H234.308ZM234.308 16.0044H237.092C237.092 14.4665 235.845 13.2198 234.308 13.2198V16.0044ZM230.873 16.0044H228.088C228.088 17.5424 229.335 18.7891 230.873 18.7891V16.0044ZM230.873 14.2014H233.658C233.658 12.6635 232.411 11.4167 230.873 11.4167V14.2014ZM228.864 14.2014V11.4167C227.326 11.4167 226.079 12.6635 226.079 14.2014H228.864ZM228.864 16.0044V18.7891C230.402 18.7891 231.649 17.5424 231.649 16.0044H228.864ZM225.567 16.0044V13.2198C224.029 13.2198 222.782 14.4665 222.782 16.0044H225.567ZM225.567 17.7903H222.782C222.782 19.3283 224.029 20.575 225.567 20.575V17.7903ZM228.864 17.7903H231.649C231.649 16.2524 230.402 15.0057 228.864 15.0057V17.7903ZM228.864 19.3015V22.0861C230.402 22.0861 231.649 20.8394 231.649 19.3015H228.864ZM224.983 19.3015V16.5168C223.445 16.5168 222.198 17.7636 222.198 19.3015H224.983ZM224.983 21.0874H222.198C222.198 22.6253 223.445 23.872 224.983 23.872V21.0874ZM231.045 21.0874H233.83C233.83 19.5494 232.583 18.3027 231.045 18.3027V21.0874ZM231.045 22.5642V25.3488C232.583 25.3488 233.83 24.1021 233.83 22.5642H231.045ZM225.017 22.5642V19.7795C223.48 19.7795 222.233 21.0262 222.233 22.5642H225.017ZM225.017 24.3329H222.233C222.233 25.8708 223.48 27.1175 225.017 27.1175V24.3329ZM231.045 24.3329H233.83C233.83 22.795 232.583 21.5482 231.045 21.5482V24.3329ZM228.641 28.2996L228.757 25.5174C227.772 25.4763 226.839 25.9591 226.303 26.7866C225.767 27.6142 225.709 28.6633 226.15 29.545L228.641 28.2996ZM229.293 30.2229L226.529 30.558C226.698 31.9561 227.885 33.0075 229.293 33.0075V30.2229ZM232.161 29.8794L233.274 32.4321C233.292 32.4242 233.31 32.4161 233.328 32.4078L232.161 29.8794ZM233.02 24.3329V21.5482C231.482 21.5482 230.235 22.795 230.235 24.3329H233.02ZM234.668 24.3329V27.1175C236.206 27.1175 237.453 25.8708 237.453 24.3329H234.668ZM234.668 22.5642H237.453C237.453 21.0262 236.206 19.7795 234.668 19.7795V22.5642ZM233.02 22.5642H230.235C230.235 24.1021 231.482 25.3488 233.02 25.3488V22.5642ZM233.02 21.0874V18.3027C231.482 18.3027 230.235 19.5494 230.235 21.0874H233.02ZM220 17.0691V20.0914H225.57V17.0691H220ZM222.785 17.3067H221.205V22.876H222.785V17.3067ZM223.99 20.0914V17.0691H218.421V20.0914H223.99ZM221.205 19.8538H222.785V14.2845H221.205V19.8538ZM223.99 25.1056V21.8773H218.421V25.1056H223.99ZM221.205 24.6619H222.785V19.0926H221.205V24.6619ZM220 21.8773V25.1056H225.57V21.8773H220ZM222.785 22.321H221.205V27.8903H222.785V22.321ZM224.691 12.4642H219.316V18.0335H224.691V12.4642ZM216.532 15.2489V28.437H222.101V15.2489H216.532ZM219.316 31.2217H221.205V25.6523H219.316V31.2217ZM223.99 28.437V26.9259H218.421V28.437H223.99ZM221.205 29.7105H224.691V24.1412H221.205V29.7105ZM227.476 26.9259V15.2489H221.907V26.9259H227.476ZM223.616 27.3258C224.336 28.1416 224.943 29.0624 225.069 29.383L230.255 27.3536C229.762 26.0944 228.618 24.5768 227.792 23.641L223.616 27.3258ZM229.056 30.7788L230.808 29.7656L228.019 24.9447L226.268 25.9579L229.056 30.7788ZM231.973 26.2582C231.4 24.9219 230.158 23.4767 229.366 22.633L225.305 26.4449C226.093 27.2841 226.706 28.1055 226.854 28.4521L231.973 26.2582ZM225.94 22.129L224.309 23.0735L227.1 27.8933L228.731 26.9489L225.94 22.129ZM237.573 21.0874V19.3015H232.004V21.0874H237.573ZM234.788 16.5168H230.873V22.0861H234.788V16.5168ZM233.658 19.3015V17.7903H228.088V19.3015H233.658ZM230.873 20.575H234.308V15.0057H230.873V20.575ZM237.092 17.7903V16.0044H231.523V17.7903H237.092ZM234.308 13.2198H230.873V18.7891H234.308V13.2198ZM233.658 16.0044V14.2014H228.088V16.0044H233.658ZM230.873 11.4167H228.864V16.986H230.873V11.4167ZM226.079 14.2014V16.0044H231.649V14.2014H226.079ZM228.864 13.2198H225.567V18.7891H228.864V13.2198ZM222.782 16.0044V17.7903H228.352V16.0044H222.782ZM225.567 20.575H228.864V15.0057H225.567V20.575ZM226.079 17.7903V19.3015H231.649V17.7903H226.079ZM228.864 16.5168H224.983V22.0861H228.864V16.5168ZM222.198 19.3015V21.0874H227.768V19.3015H222.198ZM224.983 23.872H231.045V18.3027H224.983V23.872ZM228.26 21.0874V22.5642H233.83V21.0874H228.26ZM231.045 19.7795H225.017V25.3488H231.045V19.7795ZM222.233 22.5642V24.3329H227.802V22.5642H222.233ZM225.017 27.1175H231.045V21.5482H225.017V27.1175ZM228.26 24.3329V28.0249H233.83V24.3329H228.26ZM228.26 28.0249C228.26 27.9661 228.236 26.9328 229.169 26.1438C229.591 25.787 230.018 25.6523 230.262 25.5989C230.494 25.5485 230.661 25.5493 230.684 25.5493V31.1186C230.844 31.1186 231.874 31.1501 232.766 30.3953C233.81 29.5119 233.83 28.3241 233.83 28.0249H228.26ZM230.684 25.5493C230.423 25.5493 229.515 25.549 228.757 25.5174L228.525 31.0819C229.415 31.1189 230.431 31.1186 230.684 31.1186V25.5493ZM226.15 29.545C226.236 29.717 226.337 29.9493 226.418 30.1799C226.458 30.2926 226.487 30.3896 226.507 30.466C226.529 30.5473 226.531 30.5758 226.529 30.558L232.058 29.8878C231.932 28.8537 231.46 27.7116 231.131 27.0543L226.15 29.545ZM229.293 33.0075C230.467 33.0075 231.986 32.9935 233.274 32.4321L231.048 27.3268C231.077 27.3143 230.99 27.357 230.664 27.3909C230.34 27.4247 229.91 27.4382 229.293 27.4382V33.0075ZM233.328 32.4078C234.174 32.0173 234.931 31.3667 235.379 30.3757C235.76 29.5333 235.804 28.6744 235.804 28.0764H230.235C230.235 28.2405 230.226 28.3103 230.225 28.3208C230.224 28.3281 230.237 28.2311 230.304 28.0824C230.378 27.9193 230.494 27.7451 230.653 27.593C230.804 27.448 230.939 27.3767 230.994 27.3511L233.328 32.4078ZM235.804 28.0764V24.3329H230.235V28.0764H235.804ZM233.02 27.1175H234.668V21.5482H233.02V27.1175ZM237.453 24.3329V22.5642H231.884V24.3329H237.453ZM234.668 19.7795H233.02V25.3488H234.668V19.7795ZM235.804 22.5642V21.0874H230.235V22.5642H235.804ZM233.02 23.872H234.788V18.3027H233.02V23.872ZM246.843 16.1418L249.082 17.7977C249.538 17.1807 249.72 16.4028 249.584 15.6477C249.447 14.8925 249.006 14.227 248.363 13.8083L246.843 16.1418ZM243.649 14.4246L244.894 11.934C243.708 11.3407 242.268 11.6668 241.452 12.7132L243.649 14.4246ZM242.499 15.9014L240.302 14.19C239.805 14.8279 239.61 15.6502 239.767 16.4433C239.925 17.2363 240.419 17.9219 241.122 18.3217L242.499 15.9014ZM245.624 17.7903L243.926 19.9975C244.519 20.4534 245.27 20.6518 246.01 20.5481C246.751 20.4444 247.418 20.0473 247.863 19.4462L245.624 17.7903ZM246.019 20.7783L248.336 22.3229C248.756 21.6933 248.901 20.92 248.739 20.1809C248.576 19.4418 248.12 18.8006 247.475 18.4048L246.019 20.7783ZM242.791 19.1126L244.018 16.6129C242.803 16.0164 241.335 16.3801 240.538 17.4747L242.791 19.1126ZM241.692 20.6237L239.439 18.9859C238.968 19.6348 238.798 20.4557 238.976 21.2383C239.153 22.0208 239.659 22.689 240.364 23.0715L241.692 20.6237ZM244.886 22.4783L243.277 24.7517C243.891 25.1859 244.655 25.3534 245.394 25.2162C246.133 25.0789 246.785 24.6485 247.202 24.023L244.886 22.4783ZM243.649 30.0512L241.896 32.215C242.515 32.7163 243.319 32.9286 244.105 32.7983C244.89 32.6681 245.582 32.2077 246.006 31.5336L243.649 30.0512ZM246.689 24.6248L249.174 25.8796C249.736 24.7676 249.49 23.4181 248.573 22.575L246.689 24.6248ZM245.195 23.251L247.079 21.2013C246.441 20.6138 245.564 20.3578 244.71 20.5089C243.855 20.66 243.12 21.2009 242.721 21.9717L245.195 23.251ZM241.932 28.6602L239.658 27.0532C238.811 28.2513 239.039 29.9007 240.179 30.8241L241.932 28.6602ZM254.794 27.6814V30.4661C256.332 30.4661 257.578 29.2193 257.578 27.6814H254.794ZM249.642 27.6814H246.858C246.858 29.2193 248.104 30.4661 249.642 30.4661V27.6814ZM249.642 25.1571V22.3725C248.104 22.3725 246.858 23.6192 246.858 25.1571H249.642ZM254.794 25.1571H257.578C257.578 23.6192 256.332 22.3725 254.794 22.3725V25.1571ZM257.593 21.1389V23.9235C259.131 23.9235 260.377 22.6768 260.377 21.1389H257.593ZM257.593 19.1813H260.377C260.377 17.6434 259.131 16.3966 257.593 16.3966V19.1813ZM253.231 19.1813H250.446C250.446 20.7192 251.693 21.9659 253.231 21.9659V19.1813ZM253.231 16.8287L252.705 14.0942C251.394 14.3463 250.446 15.4936 250.446 16.8287H253.231ZM256.957 15.8156L257.935 18.4229C258.814 18.0933 259.468 17.343 259.674 16.4271C259.88 15.5113 259.611 14.5532 258.958 13.8787L256.957 15.8156ZM255.395 14.2014L257.396 12.2645C256.609 11.4524 255.41 11.1961 254.361 11.6159L255.395 14.2014ZM247.358 15.8156L247.081 13.0447C246.163 13.1366 245.349 13.6777 244.91 14.4894C244.47 15.3011 244.461 16.2779 244.886 17.0974L247.358 15.8156ZM247.959 17.5671L245.215 18.0402C245.463 19.4768 246.777 20.4792 248.228 20.3388L247.959 17.5671ZM251.291 17.1721H254.075C254.075 16.3597 253.721 15.5877 253.104 15.0587C252.487 14.5297 251.67 14.2963 250.867 14.4199L251.291 17.1721ZM251.291 19.1813V21.9659C252.829 21.9659 254.075 20.7192 254.075 19.1813H251.291ZM246.723 19.1813V16.3966C245.185 16.3966 243.938 17.6434 243.938 19.1813H246.723ZM246.723 21.1389H243.938C243.938 22.6768 245.185 23.9235 246.723 23.9235V21.1389ZM251.291 21.1389H254.075C254.075 19.601 252.829 18.3542 251.291 18.3542V21.1389ZM251.291 23.3026V26.0872C252.829 26.0872 254.075 24.8405 254.075 23.3026H251.291ZM247.788 23.3026V20.5179C246.25 20.5179 245.003 21.7646 245.003 23.3026H247.788ZM247.788 30.2401H245.003C245.003 31.778 246.25 33.0247 247.788 33.0247V30.2401ZM249.642 30.2401V33.0247C251.18 33.0247 252.427 31.778 252.427 30.2401H249.642ZM249.642 29.536V26.7514C248.104 26.7514 246.858 27.9981 246.858 29.536H249.642ZM254.794 29.536H257.578C257.578 27.9981 256.332 26.7514 254.794 26.7514V29.536ZM254.794 30.1542H252.009C252.009 31.6921 253.256 32.9389 254.794 32.9389V30.1542ZM256.734 30.1542V32.9389C258.272 32.9389 259.519 31.6921 259.519 30.1542H256.734ZM256.734 23.3026H259.519C259.519 21.7646 258.272 20.5179 256.734 20.5179V23.3026ZM253.231 23.3026H250.446C250.446 24.8405 251.693 26.0872 253.231 26.0872V23.3026ZM253.231 21.1389V18.3542C251.693 18.3542 250.446 19.601 250.446 21.1389H253.231ZM248.363 13.8083C247.46 13.2208 245.798 12.3857 244.894 11.934L242.404 16.9153C243.424 17.4252 244.749 18.1012 245.324 18.4754L248.363 13.8083ZM241.452 12.7132L240.302 14.19L244.695 17.6128L245.846 16.136L241.452 12.7132ZM241.122 18.3217C242.254 18.966 243.456 19.6359 243.926 19.9975L247.322 15.5832C246.452 14.9144 244.735 13.9702 243.876 13.4811L241.122 18.3217ZM247.863 19.4462L249.082 17.7977L244.604 14.486L243.385 16.1345L247.863 19.4462ZM247.475 18.4048C246.575 17.8526 244.878 17.0352 244.018 16.6129L241.563 21.6123C242.592 22.1172 243.951 22.7766 244.562 23.1517L247.475 18.4048ZM240.538 17.4747L239.439 18.9859L243.944 22.2616L245.043 20.7504L240.538 17.4747ZM240.364 23.0715C241.446 23.6584 242.742 24.3731 243.277 24.7517L246.494 20.2049C245.621 19.5875 243.963 18.6881 243.019 18.1759L240.364 23.0715ZM247.202 24.023L248.336 22.3229L243.702 19.2336L242.569 20.9337L247.202 24.023ZM246.006 31.5336C247.11 29.7782 248.235 27.7418 249.174 25.8796L244.203 23.37C243.322 25.114 242.283 26.9927 241.292 28.5688L246.006 31.5336ZM248.573 22.575L247.079 21.2013L243.31 25.3008L244.804 26.6746L248.573 22.575ZM242.721 21.9717C241.75 23.8494 240.494 25.8693 239.658 27.0532L244.206 30.2673C245.19 28.8753 246.579 26.6366 247.668 24.5304L242.721 21.9717ZM240.179 30.8241L241.896 32.215L245.402 27.8873L243.685 26.4964L240.179 30.8241ZM254.794 24.8968H249.642V30.4661H254.794V24.8968ZM252.427 27.6814V25.1571H246.858V27.6814H252.427ZM249.642 27.9418H254.794V22.3725H249.642V27.9418ZM252.009 25.1571V27.6814H257.578V25.1571H252.009ZM260.377 21.1389V19.1813H254.808V21.1389H260.377ZM257.593 16.3966H253.231V21.9659H257.593V16.3966ZM256.016 19.1813V16.8287H250.446V19.1813H256.016ZM253.757 19.5633C255.211 19.2836 256.656 18.9026 257.935 18.4229L255.98 13.2082C255.061 13.5528 253.93 13.8586 252.705 14.0942L253.757 19.5633ZM258.958 13.8787L257.396 12.2645L253.394 16.1382L254.957 17.7524L258.958 13.8787ZM254.361 11.6159C252.855 12.2182 249.954 12.7574 247.081 13.0447L247.635 18.5864C250.601 18.2899 254.157 17.6957 256.429 16.7869L254.361 11.6159ZM244.886 17.0974C245.008 17.332 245.182 17.8506 245.215 18.0402L250.703 17.094C250.564 16.2876 250.19 15.2264 249.83 14.5337L244.886 17.0974ZM248.228 20.3388C249.3 20.235 250.516 20.1088 251.714 19.9244L250.867 14.4199C249.833 14.579 248.748 14.6931 247.691 14.7954L248.228 20.3388ZM248.506 17.1721V19.1813H254.075V17.1721H248.506ZM251.291 16.3966H246.723V21.9659H251.291V16.3966ZM243.938 19.1813V21.1389H249.508V19.1813H243.938ZM246.723 23.9235H251.291V18.3542H246.723V23.9235ZM248.506 21.1389V23.3026H254.075V21.1389H248.506ZM251.291 20.5179H247.788V26.0872H251.291V20.5179ZM245.003 23.3026V30.2401H250.572V23.3026H245.003ZM247.788 33.0247H249.642V27.4554H247.788V33.0247ZM252.427 30.2401V29.536H246.858V30.2401H252.427ZM249.642 32.3207H254.794V26.7514H249.642V32.3207ZM252.009 29.536V30.1542H257.578V29.536H252.009ZM254.794 32.9389H256.734V27.3695H254.794V32.9389ZM259.519 30.1542V23.3026H253.95V30.1542H259.519ZM256.734 20.5179H253.231V26.0872H256.734V20.5179ZM256.016 23.3026V21.1389H250.446V23.3026H256.016ZM253.231 23.9235H257.593V18.3542H253.231V23.9235ZM269.785 26.6854V23.9008C268.247 23.9008 267 25.1475 267 26.6854H269.785ZM272.893 26.6854V29.4701C274.431 29.4701 275.678 28.2234 275.678 26.6854H272.893ZM272.893 25.243H275.678C275.678 23.7051 274.431 22.4583 272.893 22.4583V25.243ZM269.785 25.243H267C267 26.7809 268.247 28.0277 269.785 28.0277V25.243ZM269.785 24.5733V21.7886C268.247 21.7886 267 23.0354 267 24.5733H269.785ZM272.824 24.5733V27.3579C274.362 27.3579 275.609 26.1112 275.609 24.5733H272.824ZM272.824 19.2671H275.609C275.609 17.7292 274.362 16.4825 272.824 16.4825V19.2671ZM269.785 19.2671H267C267 20.8051 268.247 22.0518 269.785 22.0518V19.2671ZM269.785 18.5974V15.8128C268.247 15.8128 267 17.0595 267 18.5974H269.785ZM273.082 18.5974H275.867C275.867 17.0595 274.62 15.8128 273.082 15.8128V18.5974ZM273.082 19.9368H270.297C270.297 21.4748 271.544 22.7215 273.082 22.7215V19.9368ZM274.645 19.9368L277.427 20.0457C277.457 19.2888 277.177 18.5526 276.652 18.0066C276.127 17.4607 275.402 17.1522 274.645 17.1522V19.9368ZM272.773 27.3208L273.012 30.0952C273.819 30.0256 274.556 29.608 275.03 28.9512L272.773 27.3208ZM269.785 27.5612H267C267 28.3336 267.321 29.0713 267.886 29.598C268.451 30.1247 269.209 30.3931 269.98 30.339L269.785 27.5612ZM266.591 23.3026H263.806C263.806 24.8405 265.053 26.0872 266.591 26.0872V23.3026ZM266.591 22.5298V19.7452C265.053 19.7452 263.806 20.9919 263.806 22.5298H266.591ZM267.93 22.5298H270.715C270.715 20.9919 269.468 19.7452 267.93 19.7452V22.5298ZM267.93 23.3026V26.0872C269.468 26.0872 270.715 24.8405 270.715 23.3026H267.93ZM271.124 22.5298H273.909C273.909 20.9919 272.662 19.7452 271.124 19.7452V22.5298ZM271.124 23.3026V26.0872C272.662 26.0872 273.909 24.8405 273.909 23.3026H271.124ZM269.785 23.3026H267C267 24.8405 268.247 26.0872 269.785 26.0872V23.3026ZM269.785 22.5298V19.7452C268.247 19.7452 267 20.9919 267 22.5298H269.785ZM269.785 21.3106H267C267 22.8485 268.247 24.0953 269.785 24.0953V21.3106ZM269.785 20.555V17.7704C268.247 17.7704 267 19.0171 267 20.555H269.785ZM271.124 20.555H273.909C273.909 19.0171 272.662 17.7704 271.124 17.7704V20.555ZM271.124 21.3106V24.0953C272.662 24.0953 273.909 22.8485 273.909 21.3106H271.124ZM266.591 20.555V17.7704C265.053 17.7704 263.806 19.0171 263.806 20.555H266.591ZM267.93 20.555H270.715C270.715 19.0171 269.468 17.7704 267.93 17.7704V20.555ZM267.93 21.3106V24.0953C269.468 24.0953 270.715 22.8485 270.715 21.3106H267.93ZM266.591 21.3106H263.806C263.806 22.8485 265.053 24.0953 266.591 24.0953V21.3106ZM276.637 18.0651L273.853 17.9807C273.83 18.7336 274.114 19.4635 274.638 20.0041C275.162 20.5447 275.883 20.8497 276.637 20.8497V18.0651ZM276.671 14.4761H279.456C279.456 12.9382 278.209 11.6915 276.671 11.6915V14.4761ZM274.713 14.4761V11.6915C273.175 11.6915 271.929 12.9382 271.929 14.4761H274.713ZM274.696 18.0651V20.8497C276.218 20.8497 277.457 19.6286 277.48 18.1073L274.696 18.0651ZM273.082 18.0651H270.297C270.297 19.603 271.544 20.8497 273.082 20.8497V18.0651ZM273.082 17.1206H275.867C275.867 15.5827 274.62 14.336 273.082 14.336V17.1206ZM269.785 17.1206H267C267 18.6586 268.247 19.9053 269.785 19.9053V17.1206ZM269.785 16.2792L269.487 13.5106C268.072 13.6629 267 14.8567 267 16.2792H269.785ZM272.876 15.8156L273.442 18.5421C274.319 18.36 275.056 17.7666 275.42 16.9477C275.784 16.1288 275.732 15.1846 275.28 14.4108L272.876 15.8156ZM271.983 14.2872L274.387 12.8825C273.779 11.8407 272.568 11.3094 271.389 11.5666L271.983 14.2872ZM264.582 15.1287L264.432 12.3481C263.503 12.3983 262.661 12.9085 262.187 13.7081C261.712 14.5078 261.669 15.4914 262.07 16.3301L264.582 15.1287ZM265.028 16.5711L262.282 17.0289C262.509 18.3909 263.699 19.3809 265.08 19.3553L265.028 16.5711ZM267.93 16.4337H270.715C270.715 15.6619 270.395 14.9247 269.83 14.3981C269.266 13.8714 268.509 13.6026 267.739 13.6557L267.93 16.4337ZM267.93 17.1206V19.9053C269.468 19.9053 270.715 18.6586 270.715 17.1206H267.93ZM264.548 17.1206V14.336C263.01 14.336 261.763 15.5827 261.763 17.1206H264.548ZM264.548 18.5974H261.763C261.763 20.1353 263.01 21.3821 264.548 21.3821V18.5974ZM267.93 18.5974H270.715C270.715 17.0595 269.468 15.8128 267.93 15.8128V18.5974ZM267.93 19.2671V22.0518C269.468 22.0518 270.715 20.8051 270.715 19.2671H267.93ZM264.977 19.2671V16.4825C263.439 16.4825 262.192 17.7292 262.192 19.2671H264.977ZM264.977 24.5733H262.192C262.192 26.1112 263.439 27.3579 264.977 27.3579V24.5733ZM267.93 24.5733H270.715C270.715 23.0354 269.468 21.7886 267.93 21.7886V24.5733ZM267.93 25.243V28.0277C269.468 28.0277 270.715 26.7809 270.715 25.243H267.93ZM264.908 25.243V22.4583C263.37 22.4583 262.123 23.7051 262.123 25.243H264.908ZM264.908 26.6854H262.123C262.123 28.2234 263.37 29.4701 264.908 29.4701V26.6854ZM267.93 26.6854H270.715C270.715 25.1475 269.468 23.9008 267.93 23.9008V26.6854ZM267.93 27.7158L268.111 30.4946C269.576 30.3995 270.715 29.1836 270.715 27.7158H267.93ZM264.444 27.9562L264.246 25.1786C263.477 25.2336 262.765 25.6051 262.28 26.2048C261.794 26.8044 261.58 27.5784 261.687 28.3423L264.444 27.9562ZM264.685 29.6734L261.927 30.0595C262.132 31.5226 263.444 32.5711 264.916 32.4484L264.685 29.6734ZM271.485 29.0037L273.284 26.8779C272.705 26.388 271.951 26.1554 271.196 26.234L271.485 29.0037ZM272.687 30.3603L270.326 31.8361C270.746 32.508 271.432 32.9691 272.212 33.1042C272.993 33.2392 273.794 33.0353 274.415 32.5436L272.687 30.3603ZM276.585 19.9368V17.1522C275.1 17.1522 273.876 18.3182 273.804 19.8019L276.585 19.9368ZM278.131 19.9368L280.915 19.9886C280.929 19.2412 280.641 18.5196 280.118 17.9862C279.594 17.4527 278.878 17.1522 278.131 17.1522V19.9368ZM277.495 28.042L275.297 26.3324C275.266 26.3731 275.235 26.4146 275.206 26.457L277.495 28.042ZM275.177 28.2481L275.429 25.4749C274.383 25.3798 273.372 25.8818 272.815 26.773C272.259 27.6642 272.251 28.7928 272.796 29.6914L275.177 28.2481ZM275.778 30.2057L272.998 30.3742C273.086 31.8217 274.27 32.9596 275.72 32.9898L275.778 30.2057ZM277.907 30.137L278.453 32.8676C278.464 32.8655 278.475 32.8633 278.485 32.8611L277.907 30.137ZM279.264 29.2784L281.548 30.8707L281.55 30.8686L279.264 29.2784ZM280.105 18.9752L282.889 19.0365C282.89 19.0161 282.89 18.9956 282.89 18.9752H280.105ZM280.123 18.0651L282.906 18.1365C282.926 17.3858 282.641 16.6592 282.117 16.1214C281.593 15.5837 280.873 15.2804 280.123 15.2804V18.0651ZM269.785 29.4701H272.893V23.9008H269.785V29.4701ZM275.678 26.6854V25.243H270.108V26.6854H275.678ZM272.893 22.4583H269.785V28.0277H272.893V22.4583ZM272.57 25.243V24.5733H267V25.243H272.57ZM269.785 27.3579H272.824V21.7886H269.785V27.3579ZM275.609 24.5733V19.2671H270.04V24.5733H275.609ZM272.824 16.4825H269.785V22.0518H272.824V16.4825ZM272.57 19.2671V18.5974H267V19.2671H272.57ZM269.785 21.3821H273.082V15.8128H269.785V21.3821ZM270.297 18.5974V19.9368H275.867V18.5974H270.297ZM273.082 22.7215H274.645V17.1522H273.082V22.7215ZM271.862 19.828C271.745 22.8268 271.338 24.5509 270.515 25.6904L275.03 28.9512C276.886 26.3816 277.304 23.1945 277.427 20.0457L271.862 19.828ZM272.534 24.5465C271.538 24.6323 270.544 24.7164 269.59 24.7834L269.98 30.339C270.983 30.2686 272.016 30.181 273.012 30.0952L272.534 24.5465ZM272.57 27.5612V26.6854H267V27.5612H272.57ZM269.376 23.3026V22.5298H263.806V23.3026H269.376ZM266.591 25.3145H267.93V19.7452H266.591V25.3145ZM265.146 22.5298V23.3026H270.715V22.5298H265.146ZM267.93 20.5179H266.591V26.0872H267.93V20.5179ZM268.34 22.5298V23.3026H273.909V22.5298H268.34ZM271.124 20.5179H269.785V26.0872H271.124V20.5179ZM272.57 23.3026V22.5298H267V23.3026H272.57ZM269.785 25.3145H271.124V19.7452H269.785V25.3145ZM272.57 21.3106V20.555H267V21.3106H272.57ZM269.785 23.3397H271.124V17.7704H269.785V23.3397ZM268.34 20.555V21.3106H273.909V20.555H268.34ZM271.124 18.526H269.785V24.0953H271.124V18.526ZM266.591 23.3397H267.93V17.7704H266.591V23.3397ZM265.146 20.555V21.3106H270.715V20.555H265.146ZM267.93 18.526H266.591V24.0953H267.93V18.526ZM269.376 21.3106V20.555H263.806V21.3106H269.376ZM279.42 18.1494C279.456 16.9662 279.456 15.7204 279.456 14.4761H273.886C273.886 15.739 273.886 16.8973 273.853 17.9807L279.42 18.1494ZM276.671 11.6915H274.713V17.2608H276.671V11.6915ZM271.929 14.4761C271.929 15.7515 271.929 16.9145 271.912 18.0229L277.48 18.1073C277.498 16.949 277.498 15.7423 277.498 14.4761H271.929ZM274.696 15.2804H273.082V20.8497H274.696V15.2804ZM275.867 18.0651V17.1206H270.297V18.0651H275.867ZM273.082 14.336H269.785V19.9053H273.082V14.336ZM272.57 17.1206V16.2792H267V17.1206H272.57ZM270.083 19.0478C271.256 18.9215 272.416 18.7551 273.442 18.5421L272.31 13.089C271.516 13.2538 270.546 13.3965 269.487 13.5106L270.083 19.0478ZM275.28 14.4108L274.387 12.8825L269.579 15.692L270.472 17.2203L275.28 14.4108ZM271.389 11.5666C269.725 11.9298 266.934 12.2128 264.432 12.3481L264.732 17.9093C267.313 17.7698 270.463 17.4689 272.577 17.0079L271.389 11.5666ZM262.07 16.3301C262.07 16.3301 262.07 16.3307 262.071 16.3321C262.071 16.3335 262.072 16.3355 262.073 16.3381C262.076 16.3434 262.079 16.3507 262.083 16.3602C262.091 16.3796 262.101 16.4049 262.113 16.4361C262.136 16.4994 262.162 16.5752 262.187 16.6577C262.242 16.8366 262.273 16.9755 262.282 17.0289L267.775 16.1133C267.669 15.4774 267.409 14.5869 267.094 13.9272L262.07 16.3301ZM265.08 19.3553C266.07 19.337 267.1 19.2823 268.122 19.2118L267.739 13.6557C266.769 13.7226 265.841 13.7709 264.977 13.7869L265.08 19.3553ZM265.146 16.4337V17.1206H270.715V16.4337H265.146ZM267.93 14.336H264.548V19.9053H267.93V14.336ZM261.763 17.1206V18.5974H267.332V17.1206H261.763ZM264.548 21.3821H267.93V15.8128H264.548V21.3821ZM265.146 18.5974V19.2671H270.715V18.5974H265.146ZM267.93 16.4825H264.977V22.0518H267.93V16.4825ZM262.192 19.2671V24.5733H267.761V19.2671H262.192ZM264.977 27.3579H267.93V21.7886H264.977V27.3579ZM265.146 24.5733V25.243H270.715V24.5733H265.146ZM267.93 22.4583H264.908V28.0277H267.93V22.4583ZM262.123 25.243V26.6854H267.693V25.243H262.123ZM264.908 29.4701H267.93V23.9008H264.908V29.4701ZM265.146 26.6854V27.7158H270.715V26.6854H265.146ZM267.75 24.937C266.418 25.0235 265.207 25.1099 264.246 25.1786L264.643 30.7338C265.605 30.665 266.799 30.5798 268.111 30.4946L267.75 24.937ZM261.687 28.3423L261.927 30.0595L267.443 29.2873L267.202 27.5701L261.687 28.3423ZM264.916 32.4484C266.806 32.2909 269.311 32.0298 271.774 31.7733L271.196 26.234C268.713 26.4927 266.273 26.7467 264.454 26.8983L264.916 32.4484ZM269.686 31.1294C269.787 31.215 269.928 31.3524 270.07 31.5133C270.219 31.6808 270.303 31.8005 270.326 31.8361L275.048 28.8844C274.618 28.1961 273.92 27.4161 273.284 26.8779L269.686 31.1294ZM274.415 32.5436C278.331 29.4437 279.139 24.7627 279.366 20.0718L273.804 19.8019C273.585 24.3152 272.813 26.709 270.959 28.177L274.415 32.5436ZM276.585 22.7215H278.131V17.1522H276.585V22.7215ZM275.346 19.8851C275.295 22.6556 275.227 24.4923 275.134 25.6759C275.086 26.273 275.038 26.6292 275 26.8232C274.936 27.1472 274.948 26.7808 275.297 26.3324L279.693 29.7516C280.222 29.0714 280.391 28.2693 280.465 27.8968C280.563 27.3943 280.632 26.7931 280.685 26.1152C280.794 24.7488 280.863 22.7647 280.915 19.9886L275.346 19.8851ZM275.206 26.457C275.336 26.2684 275.602 25.9689 276.042 25.7586C276.457 25.5608 276.805 25.5493 276.911 25.5493V31.1186C277.275 31.1186 277.838 31.0728 278.441 30.7848C279.071 30.4843 279.5 30.0389 279.785 29.6271L275.206 26.457ZM276.911 25.5493C276.661 25.5493 276.093 25.5352 275.429 25.4749L274.925 31.0213C275.772 31.0984 276.509 31.1186 276.911 31.1186V25.5493ZM272.796 29.6914C272.811 29.7164 272.868 29.8291 272.923 30.018C272.979 30.2053 272.996 30.3418 272.998 30.3742L278.558 30.0373C278.499 29.0772 278.164 27.8043 277.558 26.8048L272.796 29.6914ZM275.72 32.9898C276.398 33.0039 277.564 33.0454 278.453 32.8676L277.361 27.4065C277.373 27.4041 277.343 27.4106 277.254 27.4177C277.168 27.4244 277.055 27.4297 276.909 27.4322C276.609 27.4375 276.263 27.4306 275.836 27.4217L275.72 32.9898ZM278.485 32.8611C278.887 32.7758 279.465 32.6262 280.062 32.2753C280.688 31.9071 281.166 31.4191 281.548 30.8707L276.979 27.6862C276.967 27.7034 276.984 27.6765 277.033 27.6289C277.086 27.5781 277.156 27.5233 277.238 27.475C277.397 27.3817 277.494 27.3781 277.33 27.413L278.485 32.8611ZM281.55 30.8686C282.013 30.203 282.217 29.4544 282.334 28.879C282.461 28.2573 282.545 27.5192 282.609 26.6768C282.738 24.9885 282.812 22.5323 282.889 19.0365L277.321 18.9139C277.244 22.4415 277.172 24.7419 277.056 26.2519C276.998 27.0086 276.935 27.4801 276.877 27.7669C276.809 28.1001 276.79 27.9589 276.978 27.6882L281.55 30.8686ZM282.89 18.9752C282.89 18.891 282.893 18.6951 282.898 18.4905C282.9 18.3947 282.902 18.3058 282.904 18.2408C282.904 18.2084 282.905 18.1821 282.906 18.1639C282.906 18.1549 282.906 18.1479 282.906 18.1432C282.906 18.1409 282.906 18.1391 282.906 18.138C282.906 18.1374 282.906 18.137 282.906 18.1368C282.906 18.1366 282.906 18.1365 282.906 18.1365C282.906 18.1365 282.906 18.1365 282.906 18.1364C282.906 18.1364 282.906 18.1365 282.906 18.1364C282.906 18.1365 282.906 18.1365 280.123 18.0651C277.339 17.9937 277.339 17.9937 277.339 17.9937C277.339 17.9938 277.339 17.9938 277.339 17.9938C277.339 17.9938 277.339 17.9939 277.339 17.9939C277.339 17.9941 277.339 17.9942 277.339 17.9944C277.339 17.9948 277.339 17.9953 277.339 17.9961C277.339 17.9975 277.339 17.9995 277.339 18.0021C277.338 18.0074 277.338 18.015 277.338 18.0247C277.338 18.0442 277.337 18.072 277.336 18.1061C277.334 18.1742 277.332 18.2678 277.33 18.3695C277.326 18.5599 277.321 18.819 277.321 18.9752H282.89ZM280.123 15.2804H276.637V20.8497H280.123V15.2804Z" fill="#266DD7"/>
<line x1="26.4541" y1="40.8413" x2="97.4628" y2="40.8413" stroke="#7BB8FF" stroke-width="1.85644" stroke-linecap="round"/>
<line x1="280.786" y1="4.64112" x2="351.795" y2="4.64112" stroke="#7BB8FF" stroke-width="1.85644" stroke-linecap="round"/>
</svg>
