<svg width="171" height="44" viewBox="0 0 171 44" fill="none" xmlns="http://www.w3.org/2000/svg">
<rect width="171" height="44" rx="22" fill="#74ABFF"/>
<path d="M46.68 16.16H53.94V18.04H56.08V14.5H51.4V13.06H49.02V14.5H44.62V18.04H46.68V16.16ZM46.66 18.24C46.2 18.94 45.44 19.62 44.6 20.14C45.04 20.4 45.84 20.9 46.18 21.2C47.02 20.62 47.94 19.66 48.5 18.78L46.66 18.24ZM38.32 24.76C38.16 26.44 37.9 28.22 37.32 29.4C37.78 29.56 38.62 29.96 39.02 30.2C39.58 28.92 39.98 26.96 40.18 25.06L38.32 24.76ZM40.96 21.74C41.32 21.24 41.7 20.7 42.08 20.12C42.3 20.6 42.52 21.12 42.7 21.66L40.96 21.74ZM43.26 23.5C43.34 23.82 43.38 24.14 43.42 24.4L45.1 23.74C44.94 22.62 44.3 20.84 43.6 19.46L42.2 19.96C43.02 18.74 43.86 17.42 44.56 16.24L42.62 15.42C42.2 16.38 41.62 17.5 41 18.6C40.82 18.34 40.6 18.06 40.36 17.78C41.06 16.66 41.88 15.1 42.58 13.74L40.54 13.08C40.22 14.08 39.68 15.4 39.12 16.5L38.74 16.14L37.58 17.72C38.36 18.56 39.3 19.64 39.84 20.52C39.54 21 39.24 21.44 38.94 21.84L37.6 21.9L37.82 23.9C38.6 23.84 39.48 23.78 40.4 23.7V31.74H42.4V23.56L43.26 23.5ZM42.46 25.1C42.82 26.14 43.18 27.5 43.32 28.4L44.94 27.84C44.78 26.98 44.4 25.66 44.04 24.66L42.46 25.1ZM53.2 23.42H48.22V22.74H53.2V23.42ZM48.22 25.38V24.7H53.2V25.38H48.22ZM53.2 26.66V27.36H48.22V26.66H53.2ZM55.36 28.72V21.38H51.42C52.9 20.74 54.26 19.98 55.28 19.1L53.42 18.24C52.84 18.72 52.08 19.16 51.22 19.58V18.24H53.3V16.78H47.26V18.24H49.1V20.42C47.66 20.9 46.12 21.28 44.62 21.54C45.04 21.94 45.72 22.76 46.02 23.16L46.16 23.12V28.72H47.66C46.7 29.32 45.28 29.96 44.04 30.32C44.48 30.72 45.12 31.36 45.48 31.78C47 31.3 48.86 30.42 50.02 29.56L48.78 28.72H52.36L51.28 29.6C52.5 30.26 53.92 31.12 54.66 31.72L56.6 30.52C55.82 30.02 54.56 29.3 53.36 28.72H55.36ZM64.42 24.76C64.26 26.44 63.94 28.22 63.36 29.4C63.88 29.58 64.76 30 65.18 30.26C65.76 28.98 66.18 26.98 66.38 25.1L64.42 24.76ZM68.88 25.2C69.38 26.42 69.9 28.04 70.06 29.06L71.94 28.4C71.7 27.38 71.18 25.82 70.64 24.64L68.88 25.2ZM77.16 13.68C77.8 16.26 78.8 18.9 80 20.86H73.08C74.44 19.02 75.4 16.44 75.94 13.58L73.52 13.2C73.08 15.96 72.1 18.5 70.54 20.04C70.44 19.84 70.32 19.66 70.22 19.48L68.54 20.22C68.78 20.64 69.02 21.12 69.24 21.6L67.22 21.68C68.52 20.06 69.92 18.02 71.04 16.26L69.02 15.42C68.54 16.42 67.9 17.58 67.18 18.7C66.98 18.44 66.74 18.14 66.48 17.86C67.2 16.74 68.02 15.2 68.74 13.82L66.64 13.08C66.3 14.12 65.74 15.46 65.18 16.56C65.02 16.42 64.86 16.28 64.7 16.14L63.58 17.78C64.42 18.58 65.4 19.66 65.98 20.52C65.68 20.96 65.36 21.38 65.06 21.76L63.58 21.82L63.78 23.9L66.74 23.7V31.76H68.84V23.54L69.98 23.46C70.1 23.86 70.2 24.22 70.26 24.54L72.06 23.7C71.86 22.76 71.28 21.4 70.62 20.2C71.16 20.54 71.94 21.14 72.34 21.56V22.98H74.28C74.08 26.26 73.56 28.64 70.42 30.02C70.9 30.44 71.5 31.22 71.76 31.76C75.46 30.02 76.22 27 76.48 22.98H78.88C78.7 27.24 78.5 28.9 78.14 29.3C77.96 29.54 77.78 29.6 77.5 29.6C77.12 29.6 76.42 29.58 75.66 29.52C76.02 30.12 76.26 31.02 76.3 31.68C77.22 31.7 78.08 31.7 78.6 31.62C79.24 31.52 79.68 31.32 80.1 30.76C80.7 30 80.94 27.74 81.16 21.8L81.18 21.48C81.62 20.94 82.2 20.38 82.64 20.06C81.24 18.44 79.96 15.64 79.34 13.08L77.16 13.68ZM96.66 21.46C95.98 21.64 95.3 21.82 94.62 21.98V19.02H96.64V16.82H94.62V13.08H92.28V16.82H89.8V19.02H92.28V22.56C91.24 22.82 90.26 23.04 89.46 23.2L90.04 25.48L92.28 24.9V29.18C92.28 29.46 92.18 29.54 91.92 29.56C91.66 29.56 90.84 29.56 90.08 29.52C90.34 30.14 90.66 31.1 90.72 31.7C92.12 31.7 93.08 31.64 93.76 31.28C94.42 30.92 94.62 30.34 94.62 29.16V24.28C95.4 24.08 96.18 23.86 96.94 23.64L96.66 21.46ZM108.3 19.74H100.28V16.82C102.82 16.42 105.66 15.82 107.82 15.04L106.02 13.14C104.52 13.76 102.26 14.36 100.04 14.8L97.92 14.56V21.14C97.92 23.96 97.7 27.5 95.38 29.98C95.96 30.3 96.82 31.12 97.14 31.66C99.7 29.06 100.2 25.02 100.28 22H103.14V31.72H105.5V22H108.3V19.74ZM126.1 26.4V25.3C126.54 25.62 127.14 26.1 127.42 26.4C128.1 25.96 128.74 25.36 129.28 24.68C130.22 25.24 131.2 25.9 131.8 26.4H126.1ZM133.26 25.18C132.56 24.62 131.26 23.84 130.2 23.28C130.34 22.98 130.48 22.68 130.58 22.38L128.7 22C128.26 23.26 127.32 24.36 126.1 25.08V21.66C126.52 21.98 127.02 22.42 127.3 22.68C127.92 22.24 128.5 21.7 129 21.06C129.98 21.62 131.06 22.3 131.64 22.78L132.92 21.42C132.22 20.92 130.94 20.18 129.9 19.66C130.06 19.36 130.18 19.06 130.3 18.74C131.26 19.24 132.22 19.68 133.12 20.02C133.48 19.36 134 18.54 134.54 17.98C131.44 17.08 128.22 15.34 125.98 13.06H123.68C122.04 14.94 118.78 17.04 115.52 18.18C115.98 18.68 116.54 19.54 116.8 20.1C117.82 19.7 118.86 19.2 119.84 18.68C119.18 19.84 118.06 20.82 116.72 21.42C117.12 21.72 117.8 22.38 118.08 22.7C118.94 22.22 119.76 21.58 120.44 20.82C121.3 21.36 122.2 22.02 122.7 22.52L123.78 21.22C123.24 20.74 122.26 20.08 121.38 19.58C121.62 19.2 121.82 18.78 121.98 18.36L120.82 18.12C122.48 17.14 123.94 16.06 124.92 15.02C126.06 16.16 127.82 17.38 129.64 18.38L128.46 18.14C128.04 19.38 127.2 20.48 126.1 21.22V17.14H123.78V24.86C123.2 24.36 122.18 23.7 121.32 23.2C121.5 22.88 121.68 22.56 121.82 22.22L120.04 21.82C119.44 23.24 118.16 24.46 116.64 25.2C117.06 25.48 117.76 26.06 118.06 26.38C118.86 25.9 119.66 25.26 120.34 24.52C121.14 25.06 122.04 25.7 122.5 26.16L123.78 24.94V26.4H115.96V28.46H123.78V31.72H126.1V28.46H133.98V26.4H132.02L133.26 25.18Z" fill="white"/>
</svg>
