<svg width="171" height="44" viewBox="0 0 171 44" fill="none" xmlns="http://www.w3.org/2000/svg">
<rect width="171" height="44" rx="22" fill="#74ABFF"/>
<path d="M58.58 20.26H55V18.3H58.6C58.38 18.6 58.12 18.86 57.86 19.1C58.42 19.44 59.38 20.2 59.8 20.62C60.56 19.82 61.26 18.8 61.84 17.62H68.98V15.46H62.76C62.98 14.82 63.18 14.16 63.34 13.5L61 13.06C60.62 14.72 59.98 16.32 59.12 17.6V16.1H56.16V13.06H53.88V16.1H50.88V18.3H52.92V21.38C52.92 24.04 52.64 27.44 50.44 30.34C51.02 30.72 51.78 31.32 52.2 31.8C54.42 28.9 54.92 25.46 54.98 22.4H56.42C56.34 27.22 56.24 28.92 55.96 29.34C55.82 29.58 55.64 29.64 55.4 29.64C55.08 29.64 54.56 29.62 53.94 29.56C54.26 30.14 54.48 31.04 54.52 31.68C55.32 31.7 56.1 31.68 56.58 31.6C57.12 31.5 57.5 31.3 57.88 30.76C58.38 30.02 58.48 27.64 58.58 21.18V20.26ZM67.86 21.32C67.34 21.96 66.58 22.72 65.82 23.38C65.64 22.64 65.48 21.86 65.36 21.08C66.58 20.44 67.7 19.76 68.52 19.08L66.82 17.84C65.04 19.22 61.46 20.68 58.64 21.24C59.14 21.76 59.72 22.64 60.04 23.22L60.46 23.1V31.72H62.72V22.28C62.96 22.18 63.18 22.08 63.42 21.98C64.14 26.28 65.36 29.76 68 31.68C68.36 31.04 69.08 30.12 69.62 29.68C68.18 28.76 67.16 27.24 66.46 25.38C67.44 24.66 68.6 23.72 69.54 22.84L67.86 21.32ZM94.66 14.2H84.94V16.46H94.66V14.2ZM81.1 13.06C80.14 14.46 78.24 16.26 76.58 17.32C77 17.78 77.6 18.74 77.9 19.26C79.8 17.94 81.96 15.88 83.4 14L81.1 13.06ZM81.86 17.38C80.58 19.64 78.4 21.96 76.36 23.36C76.84 23.86 77.64 24.94 77.98 25.42C78.52 24.98 79.06 24.48 79.62 23.94V31.76H82V21.32C82.8 20.32 83.54 19.28 84.14 18.26L81.86 17.38ZM95.16 19.7H84.1V21.96H90V28.92C90 29.22 89.86 29.3 89.5 29.3C89.14 29.32 87.82 29.32 86.68 29.26C87 29.96 87.3 30.98 87.4 31.68C89.18 31.68 90.46 31.64 91.3 31.28C92.18 30.92 92.42 30.26 92.42 28.98V21.96H95.16V19.7ZM110.36 29.36C108.26 29.36 107.9 29.22 107.9 28.38V25.62H114.42V19.02H106.82C107.18 18.54 107.52 18.02 107.86 17.5H117.54C117.4 22.14 117.22 23.88 116.9 24.32C116.74 24.56 116.54 24.62 116.24 24.62C115.88 24.62 115.18 24.62 114.44 24.54C114.8 25.14 115.04 26.12 115.06 26.8C116.06 26.82 116.96 26.82 117.52 26.72C118.16 26.62 118.6 26.4 119.02 25.8C119.6 25.02 119.78 22.62 119.96 16.28C119.98 15.96 120 15.26 120 15.26H109.12C109.38 14.74 109.62 14.2 109.84 13.66L107.3 12.96C106.3 15.64 104.48 18.3 102.44 19.9C103.06 20.28 104.1 21.12 104.56 21.6C105.14 21.06 105.7 20.44 106.26 19.76V21.1H112.08V23.52H105.54V28.42C105.54 30.92 106.62 31.58 110.34 31.58H116.74C119.9 31.58 120.72 30.84 121.1 27.78C120.44 27.68 119.38 27.3 118.84 26.96C118.62 29.02 118.36 29.36 116.64 29.36H110.36Z" fill="white"/>
</svg>
