<svg width="171" height="44" viewBox="0 0 171 44" fill="none" xmlns="http://www.w3.org/2000/svg">
<rect width="171" height="44" rx="22" fill="#74ABFF"/>
<path d="M61.54 17.32V19.02H57.72C58.18 18.54 58.62 17.96 59.04 17.32H61.54ZM56.22 19.02V21H69.08V19.02H63.9V17.32H68.26V15.3H63.9V13.08H61.54V15.3H60.14C60.38 14.8 60.58 14.28 60.76 13.76L58.54 13.26C57.96 15.04 56.94 16.8 55.7 17.9C56.24 18.16 57.2 18.66 57.68 19.02H56.22ZM60.14 23.98H65.4V26.02H60.14V23.98ZM67.88 27.92V22.1H57.82V27.92H67.88ZM56.06 16.54C55.38 15.6 53.92 14.36 52.72 13.52L50.96 14.96C52.14 15.84 53.56 17.16 54.18 18.12L56.06 16.54ZM55.56 20.82H50.94V23H53.24V27.22C52.36 27.9 51.36 28.56 50.5 29.06L51.66 31.54C52.76 30.7 53.64 29.92 54.52 29.14C55.82 30.7 57.46 31.26 59.92 31.36C62.3 31.46 66.32 31.42 68.72 31.3C68.84 30.62 69.2 29.46 69.46 28.9C66.8 29.1 62.3 29.16 59.96 29.06C57.88 28.98 56.38 28.44 55.56 27.1V20.82ZM94.12 13.28H91.86V21.78C91.86 22.04 91.76 22.1 91.48 22.12C91.18 22.14 90.22 22.14 89.32 22.1C89.6 22.68 89.92 23.58 90.02 24.2C91.42 24.2 92.44 24.14 93.16 23.82C93.92 23.48 94.12 22.92 94.12 21.82V13.28ZM90.4 14.2H88.22V20.96H90.4V14.2ZM81.6 17.94V15.84H83.28V17.94H81.6ZM87.22 28.9V27.3H93V25.14H87.22V23.54H85.5V20.04H87.38V17.94H85.5V15.84H86.92V13.76H77.84V15.84H79.42V17.94H77.16V20.04H79.18C78.88 21.04 78.22 22 76.74 22.76C77.16 23.08 78 23.98 78.3 24.42C80.28 23.32 81.12 21.68 81.44 20.04H83.28V23.88H84.78V25.14H78.98V27.3H84.78V28.9H76.96V31.1H94.98V28.9H87.22ZM113.14 22.7H116.58V23.46H113.14V22.7ZM113.14 20.28H116.58V20.98H113.14V20.28ZM119.02 25.12V22.7H121.08V20.98H119.02V18.64H113.14V17.7H112.68C113.08 17.32 113.48 16.88 113.88 16.4H114.6C115.1 17.04 115.62 17.82 115.86 18.36L117.88 17.54C117.7 17.22 117.44 16.82 117.12 16.4H120.92V14.68H115.04C115.26 14.32 115.44 13.96 115.6 13.58L113.42 13.04C113.04 13.96 112.44 14.86 111.74 15.64V14.68H107.46C107.64 14.34 107.8 14.02 107.96 13.68L105.76 13.04C105.08 14.64 103.9 16.34 102.68 17.4C103.22 17.7 104.18 18.3 104.64 18.68C105.2 18.06 105.82 17.26 106.42 16.4H106.52C106.96 17.06 107.42 17.86 107.6 18.4L109.64 17.76C109.48 17.38 109.2 16.88 108.88 16.4H110.98C110.66 16.68 110.34 16.92 110.02 17.14C110.32 17.26 110.74 17.48 111.14 17.7H110.74V18.64H105.32V20.28H110.74V20.98H102.94V22.7H110.74V23.46H105.12V25.12H110.74V25.82H104.58V27.56H110.74V28.28H103.32V30.06H110.74V31.74H113.14V30.06H120.74V28.28H113.14V27.56H119.44V25.82H113.14V25.12H119.02Z" fill="white"/>
</svg>
