<svg width="171" height="16" viewBox="0 0 171 16" fill="none" xmlns="http://www.w3.org/2000/svg">
<path d="M21.7 5.5802C21.68 5.4902 21.66 5.3902 21.63 5.2602C21.61 5.1402 21.56 5.0202 21.49 4.9102C21.42 4.8002 21.33 4.7002 21.2 4.6302C21.08 4.5602 20.91 4.5202 20.69 4.5202C20.45 4.5202 20.22 4.6002 20.03 4.7602C19.83 4.9202 19.74 5.1202 19.74 5.3802C19.74 5.5502 19.76 5.6802 19.81 5.7902C19.86 5.9002 19.96 6.0102 20.13 6.1202C20.29 6.2302 20.52 6.3602 20.81 6.5002C21.1 6.6402 21.5 6.8202 21.99 7.0402C22.5 7.2702 22.92 7.5002 23.25 7.7302C23.58 7.97019 23.84 8.21019 24.03 8.47019C24.22 8.7302 24.35 8.9902 24.43 9.2702C24.5 9.5502 24.54 9.8502 24.54 10.1602C24.54 10.5602 24.48 10.9602 24.35 11.3602C24.22 11.7602 24.01 12.1102 23.72 12.4302C23.43 12.7402 23.04 13.0002 22.55 13.2002C22.06 13.4002 21.46 13.5002 20.75 13.5002C19.97 13.5002 19.32 13.3802 18.81 13.1502C18.3 12.9202 17.9 12.6302 17.6 12.2902C17.31 11.9502 17.1 11.5702 16.99 11.1702C16.88 10.7702 16.82 10.3902 16.82 10.0402V9.6802H19.58C19.58 9.9902 19.62 10.2502 19.7 10.4402C19.78 10.6402 19.89 10.7902 20.01 10.9002C20.13 11.0102 20.26 11.0802 20.38 11.1102C20.51 11.1402 20.62 11.1602 20.7 11.1602C21.03 11.1602 21.29 11.0502 21.48 10.8302C21.67 10.6102 21.76 10.3702 21.76 10.1202C21.76 9.9402 21.73 9.7902 21.66 9.6702C21.61 9.5402 21.5 9.4202 21.34 9.3102C21.18 9.2002 20.96 9.0902 20.69 8.9602C20.42 8.8402 20.07 8.6902 19.65 8.5102C19.45 8.4302 19.21 8.32019 18.91 8.18019C18.61 8.04019 18.32 7.85019 18.04 7.6102C17.76 7.3702 17.51 7.0702 17.3 6.7102C17.09 6.3502 16.99 5.9102 16.99 5.4002C16.99 4.8902 17.1 4.4402 17.33 4.0402C17.56 3.6402 17.85 3.3102 18.21 3.0302C18.57 2.7602 18.98 2.5502 19.43 2.4102C19.88 2.2702 20.34 2.2002 20.8 2.2002C21.34 2.2002 21.88 2.3002 22.41 2.5002C22.94 2.7002 23.39 3.0102 23.74 3.4302C23.9 3.6302 24.02 3.8202 24.11 4.0102C24.2 4.2002 24.27 4.3902 24.32 4.5702C24.37 4.7502 24.4 4.9302 24.42 5.0902C24.43 5.2602 24.45 5.4202 24.46 5.5802H21.7Z" fill="black"/>
<path d="M27.17 4.84039H25.02V2.40039H32.08V4.84039H29.95V13.2804H27.17V4.84039Z" fill="black"/>
<path d="M33.2 2.40039H35.98V13.2804H33.2V2.40039Z" fill="black"/>
<path d="M48.45 9.2102C48.29 9.8602 48.04 10.4402 47.69 10.9702C47.34 11.4902 46.93 11.9402 46.45 12.3202C45.97 12.6902 45.43 12.9802 44.83 13.1902C44.23 13.4002 43.6 13.5002 42.95 13.5002C42.1 13.5002 41.32 13.3402 40.61 13.0302C39.9 12.7202 39.3 12.3002 38.8 11.7702C38.3 11.2502 37.91 10.6402 37.63 9.9602C37.35 9.2802 37.21 8.5702 37.21 7.8302C37.21 7.1302 37.34 6.4502 37.6 5.7802C37.86 5.1102 38.23 4.5102 38.73 3.9802C39.22 3.4502 39.82 3.0202 40.52 2.6902C41.23 2.3602 42.02 2.2002 42.92 2.2002C43.77 2.2002 44.53 2.3502 45.19 2.6402C45.85 2.9302 46.4 3.3002 46.86 3.7302C47.32 4.1602 47.68 4.6302 47.94 5.1402C48.2 5.6502 48.38 6.1202 48.45 6.5402H45.54C45.46 6.3302 45.35 6.1202 45.21 5.9002C45.07 5.6802 44.89 5.4802 44.67 5.2902C44.45 5.1002 44.2 4.9502 43.91 4.8302C43.62 4.7102 43.28 4.6502 42.91 4.6502C42.44 4.6502 42.03 4.7402 41.67 4.9302C41.31 5.1202 41.01 5.3602 40.76 5.6602C40.51 5.9602 40.32 6.30019 40.19 6.68019C40.06 7.06019 40 7.4402 40 7.8302C40 8.2402 40.07 8.6402 40.21 9.0302C40.35 9.4202 40.54 9.7602 40.79 10.0702C41.04 10.3702 41.35 10.6202 41.71 10.8002C42.07 10.9802 42.48 11.0702 42.93 11.0702C43.36 11.0702 43.73 10.9902 44.05 10.8302C44.36 10.6702 44.62 10.4902 44.83 10.2902C45.04 10.0802 45.2 9.8802 45.31 9.6802C45.42 9.4802 45.5 9.33019 45.55 9.2302H48.45V9.2102Z" fill="black"/>
<path d="M49.6 2.40039H52.38V7.30039H52.41L55.48 2.40039H58.39L54.79 7.83039L58.63 13.2904H55.38L52.41 8.58039H52.38V13.2904H49.6V2.40039Z" fill="black"/>
<path d="M62.1 9.33039L58.85 2.40039H61.86L63.48 6.77039L65.11 2.40039H68.1L64.88 9.33039V13.2904H62.1V9.33039Z" fill="black"/>
<path d="M72 2.40039H75.57L77.73 9.56039H77.76L79.89 2.40039H83.48V13.2804H80.92L81.01 5.13039L80.98 5.10039L78.66 13.2804H76.82L74.5 5.10039L74.47 5.13039L74.56 13.2804H72V2.40039Z" fill="black"/>
<path d="M85.11 5.65043C85.26 5.30043 85.47 4.92043 85.76 4.52043C86.04 4.12043 86.4 3.74043 86.84 3.39043C87.28 3.04043 87.79 2.76043 88.38 2.53043C88.97 2.30043 89.65 2.19043 90.42 2.19043C91.25 2.19043 92.02 2.34043 92.73 2.65043C93.44 2.95043 94.04 3.36043 94.55 3.88043C95.06 4.39043 95.46 5.00043 95.74 5.68043C96.02 6.37043 96.17 7.09043 96.17 7.84043C96.17 8.59043 96.03 9.32043 95.74 10.0004C95.46 10.6904 95.06 11.2904 94.55 11.8004C94.04 12.3104 93.43 12.7204 92.73 13.0304C92.02 13.3304 91.25 13.4904 90.41 13.4904C89.56 13.4904 88.78 13.3304 88.07 13.0204C87.36 12.7104 86.76 12.2904 86.26 11.7804C85.76 11.2704 85.37 10.6804 85.1 10.0204C84.83 9.36043 84.69 8.68043 84.69 7.98043C84.69 7.62043 84.72 7.24043 84.78 6.85043C84.84 6.45043 84.95 6.05043 85.11 5.65043ZM87.47 7.81043C87.47 8.23043 87.54 8.64043 87.68 9.02043C87.82 9.41043 88.02 9.75043 88.28 10.0504C88.54 10.3504 88.85 10.5904 89.22 10.7704C89.59 10.9504 90.01 11.0404 90.48 11.0404C90.97 11.0404 91.4 10.9404 91.77 10.7404C92.14 10.5404 92.44 10.2804 92.68 9.97043C92.92 9.66043 93.1 9.31043 93.22 8.94043C93.34 8.57043 93.4 8.20043 93.4 7.85043C93.4 7.50043 93.34 7.13043 93.22 6.75043C93.1 6.37043 92.92 6.02043 92.68 5.71043C92.44 5.39043 92.13 5.13043 91.76 4.93043C91.39 4.73043 90.95 4.63043 90.45 4.63043C89.97 4.63043 89.54 4.72043 89.17 4.91043C88.8 5.10043 88.49 5.34043 88.24 5.65043C87.99 5.95043 87.8 6.30043 87.67 6.67043C87.53 7.05043 87.47 7.43043 87.47 7.81043Z" fill="black"/>
<path d="M97.38 2.40039H99.78L103.99 9.24039L104.02 9.21039L103.9 2.40039H106.56V13.2804H104.15L100 6.66039L99.97 6.68039L100.04 13.2804H97.38V2.40039Z" fill="black"/>
<path d="M112.51 5.57996C112.49 5.48996 112.47 5.38996 112.44 5.25996C112.42 5.13996 112.37 5.01996 112.3 4.90996C112.23 4.79996 112.14 4.69996 112.01 4.62996C111.89 4.55996 111.72 4.51996 111.5 4.51996C111.26 4.51996 111.03 4.59996 110.84 4.75996C110.64 4.91996 110.55 5.11996 110.55 5.37996C110.55 5.54996 110.57 5.67996 110.62 5.78996C110.67 5.89996 110.77 6.00996 110.94 6.11996C111.1 6.22996 111.33 6.35996 111.62 6.49996C111.91 6.63996 112.31 6.81996 112.8 7.03996C113.31 7.26996 113.73 7.49996 114.06 7.72996C114.39 7.96996 114.65 8.20996 114.84 8.46996C115.03 8.72996 115.16 8.98996 115.24 9.26996C115.31 9.54996 115.35 9.84996 115.35 10.16C115.35 10.56 115.29 10.96 115.16 11.36C115.03 11.76 114.82 12.11 114.53 12.43C114.24 12.74 113.85 13 113.36 13.2C112.87 13.4 112.27 13.5 111.56 13.5C110.78 13.5 110.13 13.38 109.62 13.15C109.11 12.92 108.71 12.63 108.41 12.29C108.12 11.95 107.91 11.57 107.8 11.17C107.69 10.77 107.63 10.39 107.63 10.04V9.67996H110.39C110.39 9.98996 110.43 10.25 110.51 10.44C110.59 10.64 110.7 10.79 110.82 10.9C110.94 11.01 111.07 11.08 111.19 11.11C111.32 11.14 111.43 11.16 111.51 11.16C111.84 11.16 112.1 11.05 112.29 10.83C112.48 10.61 112.57 10.37 112.57 10.12C112.57 9.93996 112.54 9.78996 112.47 9.66996C112.41 9.53996 112.29 9.41996 112.13 9.31996C111.97 9.20996 111.75 9.09996 111.48 8.96996C111.21 8.84996 110.86 8.69996 110.44 8.51996C110.24 8.43996 110 8.32996 109.7 8.18996C109.4 8.04996 109.11 7.85996 108.83 7.61996C108.55 7.37996 108.3 7.07996 108.09 6.71996C107.88 6.35996 107.78 5.91996 107.78 5.40996C107.78 4.89996 107.89 4.44996 108.12 4.04996C108.35 3.64996 108.64 3.31996 109 3.03996C109.36 2.76996 109.77 2.55996 110.22 2.41996C110.67 2.27996 111.13 2.20996 111.59 2.20996C112.13 2.20996 112.67 2.30996 113.2 2.50996C113.73 2.70996 114.18 3.01996 114.53 3.43996C114.69 3.63996 114.81 3.82996 114.9 4.01996C114.99 4.20996 115.06 4.39996 115.11 4.57996C115.16 4.75996 115.19 4.93996 115.21 5.09996C115.22 5.26996 115.24 5.42996 115.25 5.58996H112.51V5.57996Z" fill="black"/>
<path d="M117.98 4.84039H115.83V2.40039H122.89V4.84039H120.76V13.2804H117.98V4.84039Z" fill="black"/>
<path d="M124.01 2.40039H130.05V4.84039H126.67V6.53039H129.95V8.97039H126.67V10.8404H130.05V13.2804H124.01V2.40039Z" fill="black"/>
<path d="M131.78 2.40039H135.22C135.7 2.40039 136.11 2.41039 136.46 2.44039C136.8 2.47039 137.1 2.52039 137.36 2.58039C137.62 2.64039 137.84 2.72039 138.03 2.82039C138.22 2.92039 138.41 3.04039 138.58 3.17039C139.03 3.52039 139.37 3.97039 139.59 4.50039C139.81 5.03039 139.92 5.58039 139.92 6.14039C139.92 6.45039 139.88 6.79039 139.79 7.16039C139.7 7.52039 139.55 7.87039 139.34 8.20039C139.13 8.53039 138.85 8.82039 138.5 9.07039C138.15 9.32039 137.72 9.49039 137.21 9.58039L140.17 13.2904H136.99L134.48 9.78039H134.45V13.2904H131.79V2.40039H131.78ZM134.44 7.87039H135.43C135.84 7.87039 136.17 7.81039 136.41 7.70039C136.65 7.59039 136.83 7.45039 136.95 7.29039C137.07 7.13039 137.15 6.96039 137.19 6.78039C137.23 6.60039 137.25 6.45039 137.25 6.31039C137.25 5.81039 137.09 5.44039 136.76 5.20039C136.43 4.96039 136 4.84039 135.46 4.84039H134.45V7.87039H134.44Z" fill="black"/>
<path d="M144.82 2.40039H147.6V10.8404H150.82V13.2804H144.82V2.40039Z" fill="black"/>
<path d="M154.62 11.7104L154.05 13.2804H151.06L155.43 2.40039H157.62L161.94 13.2804H158.93L158.4 11.7104H154.62ZM155.38 9.50039H157.66L156.54 5.78039H156.53H156.5L155.38 9.50039Z" fill="black"/>
<path d="M162.77 2.40039H166.12C166.58 2.40039 166.98 2.41039 167.33 2.44039C167.67 2.47039 167.98 2.52039 168.26 2.59039C168.53 2.66039 168.78 2.77039 169 2.91039C169.22 3.05039 169.42 3.23039 169.62 3.45039C169.86 3.71039 170.03 3.99039 170.13 4.30039C170.22 4.61039 170.27 4.93039 170.27 5.24039C170.27 5.66039 170.17 6.07039 169.97 6.46039C169.77 6.85039 169.45 7.18039 169.01 7.43039C169.45 7.59039 169.79 7.79039 170.03 8.03039C170.27 8.27039 170.45 8.52039 170.56 8.77039C170.67 9.02039 170.74 9.25039 170.77 9.47039C170.79 9.69039 170.81 9.85039 170.81 9.97039C170.81 10.4104 170.73 10.8504 170.56 11.2804C170.39 11.7104 170.14 12.0604 169.81 12.3404C169.55 12.5504 169.31 12.7104 169.09 12.8404C168.86 12.9704 168.62 13.0604 168.35 13.1304C168.08 13.1904 167.78 13.2404 167.45 13.2504C167.12 13.2704 166.72 13.2804 166.26 13.2804H162.8V2.40039H162.77ZM165.43 6.53039H166.42C166.52 6.53039 166.63 6.53039 166.77 6.52039C166.9 6.51039 167.03 6.48039 167.15 6.42039C167.27 6.37039 167.38 6.28039 167.47 6.16039C167.56 6.04039 167.6 5.88039 167.6 5.66039C167.6 5.45039 167.56 5.29039 167.48 5.18039C167.4 5.07039 167.3 4.99039 167.18 4.94039C167.06 4.89039 166.94 4.86039 166.8 4.85039C166.66 4.84039 166.54 4.84039 166.43 4.84039H165.44V6.53039H165.43ZM165.43 10.8404H166.74C166.83 10.8404 166.95 10.8404 167.11 10.8304C167.27 10.8204 167.42 10.7804 167.57 10.7104C167.72 10.6404 167.85 10.5404 167.96 10.4004C168.07 10.2604 168.13 10.0604 168.13 9.80039C168.13 9.56039 168.08 9.38039 167.98 9.26039C167.88 9.13039 167.75 9.04039 167.6 8.98039C167.45 8.92039 167.3 8.89039 167.14 8.88039C166.98 8.87039 166.85 8.86039 166.74 8.86039H165.43V10.8404Z" fill="black"/>
<path d="M7.91 1C9.16 1 10.31 1.31 11.37 1.93C12.43 2.55 13.27 3.39 13.88 4.46C14.49 5.53 14.8 6.68 14.8 7.92C14.8 9.16 14.49 10.3 13.87 11.36C13.25 12.42 12.41 13.25 11.33 13.86C10.26 14.47 9.1 14.78 7.87 14.78C6.64 14.78 5.49 14.47 4.43 13.85C3.37 13.23 2.53 12.39 1.91 11.31C1.31 10.23 1 9.08 1 7.87C1 6.66 1.31 5.51 1.93 4.44C2.55 3.37 3.39 2.53 4.47 1.92C5.54 1.31 6.69 1 7.91 1ZM7.91 13.83C9.53 13.83 10.92 13.25 12.1 12.09C13.27 10.93 13.85 9.52 13.85 7.87C13.85 6.25 13.27 4.86 12.11 3.69C10.95 2.52 9.55 1.94 7.91 1.94C6.29 1.94 4.89 2.52 3.72 3.67C2.54 4.82 1.95 6.22 1.95 7.88C1.95 9.5 2.53 10.9 3.7 12.07C4.86 13.25 6.27 13.83 7.91 13.83ZM11.3 6.42H10.09C9.85 5.37 9.16 4.85 8.02 4.85C7.25 4.85 6.65 5.12 6.21 5.66C5.77 6.2 5.55 6.96 5.55 7.92C5.55 8.89 5.76 9.63 6.18 10.16C6.6 10.69 7.14 10.95 7.8 10.95C8.46 10.95 8.98 10.77 9.36 10.4C9.74 10.03 9.98 9.5 10.09 8.79H11.3C11.16 9.77 10.78 10.54 10.18 11.1C9.57 11.66 8.83 11.94 7.96 11.94C6.83 11.94 5.94 11.58 5.29 10.86C4.62 10.14 4.29 9.15 4.29 7.89C4.29 6.63 4.63 5.62 5.31 4.86C5.99 4.1 6.84 3.72 7.86 3.72C8.88 3.72 9.69 3.95 10.28 4.42C10.87 4.89 11.21 5.55 11.3 6.42Z" fill="#330000" stroke="black" stroke-miterlimit="10"/>
</svg>
