<svg width="34" height="39" viewBox="0 0 34 39" fill="none" xmlns="http://www.w3.org/2000/svg">
<path fill-rule="evenodd" clip-rule="evenodd" d="M25.8967 22.8201C25.5943 20.9643 23.9891 19.7347 21.7259 20.1048L18.0059 20.7131L18.026 20.624C18.0461 20.5357 18.1037 20.2927 18.1598 20.0566L18.1598 20.0562C18.2095 19.8471 18.2578 19.6435 18.2776 19.5576C18.416 18.957 18.5101 18.476 18.5728 18.0046C18.6675 17.2921 18.6793 16.6622 18.5859 16.0885C18.3213 14.4648 17.0576 13.636 15.3609 13.4704C14.5956 13.3957 13.9487 13.4493 13.2045 13.5711L12.6241 13.666L12.3278 14.1378C11.9932 14.6708 11.3237 15.6423 10.5517 16.7623L10.5517 16.7623L10.5517 16.7623C9.15071 18.7951 7.4125 21.3171 6.72735 22.5951C6.61043 22.6002 6.49209 22.6128 6.37299 22.6331L3.89333 23.0562C2.52386 23.2899 1.57094 24.4639 1.76493 25.6785L3.34556 35.5748C3.53955 36.7894 4.80699 37.5846 6.17647 37.3509L8.65613 36.9278C9.41781 36.7978 10.0506 36.377 10.4289 35.82C10.7587 35.9294 11.1104 36.0122 11.4808 36.0694C12.5546 36.2351 13.5825 36.1718 14.4198 36.0205L22.852 34.6424C26.1871 34.0971 26.965 29.3762 25.8967 22.8201ZM9.2039 24.4092L10.6327 33.3547C10.9535 33.6165 11.393 33.7778 11.9524 33.864C12.6848 33.9769 13.4421 33.9304 13.9712 33.835L14.0158 33.827L22.4998 32.4409C23.7301 32.2399 24.3462 28.5035 23.484 23.217C23.3687 22.5107 22.9297 22.1747 22.092 22.3115L17.244 23.1036C15.7962 23.3401 15.3271 22.3704 15.449 21.2175C15.4777 20.9463 15.5349 20.6437 15.6293 20.2299C15.6519 20.1306 15.7142 19.8684 15.7722 19.6239C15.8199 19.4233 15.8646 19.2347 15.8824 19.1578C16.0074 18.6159 16.09 18.1937 16.1426 17.7988C16.2129 17.2704 16.2211 16.832 16.1641 16.4827C16.083 15.985 15.7516 15.7679 15.0271 15.6973C14.7227 15.6676 14.4285 15.6719 14.1204 15.7009C13.5959 16.4991 12.8373 17.5969 12.0566 18.7269L12.0566 18.727L12.0565 18.727L12.0565 18.727C10.656 20.754 9.18413 22.8843 8.86363 23.574C9.03582 23.8186 9.15457 24.1003 9.2039 24.4092ZM5.74088 35.1759L4.18328 25.2785L6.80928 24.8092L8.36687 34.7066L5.74088 35.1759Z" fill="#4084EB"/>
<path d="M21.9772 -0.000976562L25.9999 2.87365L22.3547 9.79708L20.1216 8.93197L21.9772 -0.000976562Z" fill="#72A4EF"/>
<path d="M33.5775 10.3037L30.5722 7.14634L24.9776 11.1822L26.0081 13.025L33.5775 10.3037Z" fill="#72A4EF"/>
</svg>
