<svg width="31" height="33" viewBox="0 0 31 33" fill="none" xmlns="http://www.w3.org/2000/svg">
<path fill-rule="evenodd" clip-rule="evenodd" d="M27.5816 7.21381C29.2163 5.663 29.9773 4.22993 29.8633 2.94034C29.7257 1.38158 28.4959 0.320551 26.98 0.432731C26.2502 0.489454 25.8696 0.583252 25.424 0.821995C25.1562 0.965469 24.9251 1.14799 24.7293 1.37219L24.1176 2.07285L23.3859 1.48202C23.1589 1.29871 22.9021 1.1574 22.6149 1.05672C22.1173 0.882299 21.6974 0.843336 21.0025 0.897348C19.4659 1.01679 18.4563 2.23327 18.5961 3.81614C18.71 5.10572 19.712 6.40176 21.5965 7.67903C22.5969 8.35711 23.856 9.01659 24.7591 9.371C25.5876 8.882 26.7138 8.03711 27.5816 7.21381Z" fill="#72A4EF"/>
<path fill-rule="evenodd" clip-rule="evenodd" d="M13.9629 10.1395C12.6517 10.6531 11.8389 11.1199 11.0018 11.8975C10.7547 12.127 10.5285 12.37 10.3243 12.6257C10.021 12.5806 9.71033 12.5569 9.39321 12.5543C8.23656 12.5448 7.2782 12.758 6.01303 13.2536C2.54401 14.6124 0.894125 17.9617 2.05191 21.0081C2.91955 23.2911 5.28686 24.8551 8.91351 25.8141C10.7917 26.3108 13.0673 26.6362 14.6334 26.6744L15.6854 26.7001L16.4477 25.9637C17.5827 24.8675 19.0533 23.0747 20.1161 21.4259C22.1683 18.2423 22.8874 15.4693 22.0198 13.1864C20.8735 10.1702 17.4063 8.80391 13.9629 10.1395ZM19.4979 14.1704C20.0876 15.7234 19.543 17.8245 17.857 20.441C16.9619 21.8301 15.7247 23.3553 14.7698 24.3127C13.4292 24.2544 11.5041 23.9678 9.92251 23.5488C6.94323 22.7595 5.15066 21.5739 4.56096 20.0209C3.83715 18.1146 4.79106 16.1774 6.82825 15.3795C7.74944 15.0187 8.33027 14.8896 9.06193 14.8958C9.48428 14.8994 9.8791 14.9663 10.248 15.0979L11.8906 16.2051L12.0271 14.3936C12.216 14.0325 12.4669 13.7082 12.7804 13.4168C13.3022 12.932 13.785 12.6547 14.7525 12.2757C16.7641 11.4956 18.7852 12.2932 19.4979 14.1704Z" fill="#4084EB"/>
</svg>
