<svg width="153" height="153" viewBox="0 0 153 153" fill="none" xmlns="http://www.w3.org/2000/svg">
<path fill-rule="evenodd" clip-rule="evenodd" d="M26.7217 38.2062C24.2139 34.1058 22.9237 29.0586 22.9237 22.9237C22.9237 10.8283 32.0195 0 45.8475 0C59.6934 0 70.8593 9.27362 76.4125 23.7935C81.9656 9.27362 93.1316 0 106.977 0C120.805 0 129.901 10.8283 129.901 22.9237C129.901 29.0586 128.611 34.1058 126.103 38.2062H137.542C145.983 38.2062 152.825 45.0484 152.825 53.4887V68.7712C152.825 77.2115 145.983 84.0537 137.542 84.0537V137.542C137.542 145.983 130.7 152.825 122.26 152.825H30.565C22.1247 152.825 15.2825 145.983 15.2825 137.542V84.0537C6.84221 84.0537 0 77.2115 0 68.7712V53.4887C0 45.0484 6.84221 38.2062 15.2825 38.2062H26.7217ZM68.7712 53.4878H15.2825V68.7703H68.7712V53.4878ZM137.542 68.7703H84.0538V53.4878H137.542V68.7703ZM68.7711 137.543V84.0542H30.5649V137.543H68.7711ZM122.26 137.543H84.0538V84.0542H122.26V137.543ZM45.8475 15.2817C41.1072 15.2817 38.2062 18.7353 38.2062 22.923C38.2062 32.4992 45.9774 37.0526 64.4113 38.0105C62.3625 23.7757 54.728 15.2817 45.8475 15.2817ZM87.8743 38.0105C89.9231 23.7757 97.5576 15.2817 106.438 15.2817C111.178 15.2817 114.079 18.7353 114.079 22.923C114.079 32.4992 106.308 37.0526 87.8743 38.0105Z" fill="#469BFF"/>
</svg>
