<svg width="89" height="28" viewBox="0 0 89 28" fill="none" xmlns="http://www.w3.org/2000/svg">
<rect x="1" y="1" width="79" height="26" rx="13" fill="#EF442A" stroke="#4C6E87" stroke-width="2" stroke-miterlimit="10" stroke-linecap="round" stroke-linejoin="round"/>
<path d="M24.95 9.592H19.84V7.156H18.104V9.592H13.134V11.23H24.95V9.592ZM17.838 17.124C17.698 15.64 17.18 13.47 16.522 11.748L14.926 12.168C15.542 13.876 16.032 16.116 16.13 17.572L17.838 17.124ZM21.422 18.006C22.024 16.368 22.682 14.1 23.172 12.042L21.254 11.692C20.96 13.708 20.288 16.312 19.658 18.006H12.686V19.672H25.356V18.006H21.422ZM31.292 9.368V10.53H28.996V9.368H31.292ZM28.996 13.134V11.986H31.292V13.134H28.996ZM29.892 15.598C30.158 15.99 30.424 16.424 30.676 16.858L28.996 17.278V14.674H32.832V7.828H27.4V17.642C27.064 17.726 26.742 17.796 26.462 17.852L26.938 19.56C28.212 19.21 29.85 18.762 31.432 18.314C31.642 18.762 31.81 19.182 31.908 19.546L33.378 18.804C33.028 17.726 32.104 16.144 31.236 14.968L29.892 15.598ZM39.02 7.8H33.616V20.204H35.31V9.48H37.298V16.2C37.298 16.382 37.242 16.452 37.06 16.452C36.864 16.452 36.29 16.466 35.744 16.424C35.996 16.886 36.262 17.74 36.318 18.244C37.214 18.244 37.872 18.202 38.39 17.894C38.894 17.586 39.02 17.04 39.02 16.256V7.8ZM47.84 15.024V13.54H50.948V15.024H47.84ZM43.052 15.024V13.54H46.09V15.024H43.052ZM46.09 10.6V12.014H43.052V10.6H46.09ZM50.948 10.6V12.014H47.84V10.6H50.948ZM47.84 9.004V7.128H46.09V9.004H41.386V17.362H43.052V16.62H46.09V20.204H47.84V16.62H50.948V17.292H52.684V9.004H47.84ZM58.858 15.024C58.41 15.094 57.962 15.164 57.528 15.234V14.086H58.914V12.714H58.046C58.256 12.154 58.494 11.286 58.732 10.488L57.542 10.236H58.802V8.878H57.528V7.156H56.002V8.878H54.658V10.236H57.416C57.332 10.922 57.136 11.888 56.954 12.518L57.78 12.714H55.54L56.506 12.448C56.478 11.846 56.324 10.936 56.086 10.25L54.938 10.558C55.148 11.244 55.302 12.126 55.288 12.714H54.504V14.086H56.002V15.458C55.4 15.542 54.854 15.626 54.392 15.682L54.686 17.11C55.064 17.04 55.47 16.97 55.904 16.9C55.764 17.726 55.386 18.58 54.49 19.14C54.812 19.406 55.274 19.896 55.498 20.218C56.8 19.308 57.318 17.936 57.472 16.634C57.962 16.55 58.466 16.466 58.956 16.368L58.858 15.024ZM60.86 10.222C60.874 9.242 60.888 8.206 60.888 7.142H59.614C59.628 8.206 59.628 9.228 59.614 10.222H58.956V11.664H59.572C59.46 14.828 59.04 17.488 57.836 19.28C58.13 19.49 58.732 19.994 58.914 20.218C60.216 18.076 60.664 15.192 60.804 11.664H61.35C61.294 16.48 61.224 18.118 61.014 18.468C60.916 18.664 60.818 18.706 60.65 18.706C60.468 18.706 60.188 18.706 59.838 18.678C60.048 19.056 60.174 19.644 60.202 20.022C60.65 20.036 61.07 20.036 61.378 19.966C61.728 19.896 61.966 19.756 62.204 19.364C62.54 18.804 62.596 16.788 62.68 10.88C62.68 10.712 62.694 10.222 62.694 10.222H60.86ZM65.844 10.236C65.76 10.922 65.55 11.86 65.368 12.476L66.306 12.7H63.912L64.822 12.448C64.794 11.846 64.612 10.936 64.36 10.236H65.844ZM67.538 14.086V12.7H66.488C66.712 12.126 66.95 11.272 67.216 10.46L66.18 10.236H67.342V8.864H65.942V7.156H64.402V8.864H62.918V10.236H64.304L63.226 10.544C63.45 11.244 63.59 12.112 63.604 12.7H62.862V14.086H64.402V15.556H62.974V16.914H64.402V20.218H65.942V16.914H67.356V15.556H65.942V14.086H67.538Z" fill="white"/>
</svg>
