<svg width="45" height="54" viewBox="0 0 45 54" fill="none" xmlns="http://www.w3.org/2000/svg">
<path d="M1.85321 31.2663C1.05723 30.8155 0.668492 29.8822 0.909177 28.9997L2 25L39.2873 2.98704C40.7758 2.10827 42.5658 3.52244 42.0553 5.17391L41.5535 6.79738C37.3183 20.4998 38.0068 35.2517 43.5 48.5L42.6768 51.5185C42.3336 52.7769 40.8969 53.3753 39.7618 52.7326L1.85321 31.2663Z" fill="#4A7CCA"/>
<path d="M3 27.7322C1.66667 26.9624 1.66667 25.0379 3 24.2681L40.8171 2.43445C42.2115 1.62936 43.8434 3.02439 43.265 4.52711C37.9452 18.3483 37.9452 33.6521 43.265 47.4733C43.8434 48.976 42.2115 50.371 40.8171 49.5659L3 27.7322Z" fill="#7CA8EC"/>
<line x1="11.6176" y1="24.9706" x2="23.9706" y2="18.3824" stroke="#E8F4FF" stroke-width="3" stroke-linecap="round"/>
</svg>
