<svg width="393" height="299" viewBox="0 0 393 299" fill="none" xmlns="http://www.w3.org/2000/svg">
<ellipse cx="109.08" cy="252.382" rx="30.6427" ry="7.84752" fill="#7B9AA0" fill-opacity="0.7"/>
<ellipse cx="330.679" cy="252.382" rx="34.0059" ry="7.84752" fill="#7B9AA0" fill-opacity="0.7"/>
<ellipse cx="225.672" cy="253.503" rx="79.9699" ry="8.96859" fill="#7B9AA0" fill-opacity="0.7"/>
<path d="M201.216 210.189L207.576 204.041L218.259 210.346" fill="#1A75BC"/>
<path d="M201.216 210.189L207.576 204.041L218.259 210.346" stroke="black" stroke-width="2.6177" stroke-miterlimit="10" stroke-linecap="round" stroke-linejoin="round"/>
<path d="M206.302 211.674C206.334 215.801 203.071 219.124 198.996 219.114C194.922 219.104 191.607 215.765 191.576 211.638C191.544 207.511 194.807 204.188 198.882 204.198C202.932 204.208 206.271 207.572 206.302 211.674Z" fill="#6B6C6E" stroke="black" stroke-width="2.6177" stroke-miterlimit="10" stroke-linecap="round" stroke-linejoin="round"/>
<path d="M192.534 251.809L222.11 251.879L221.452 210.447L196.58 210.388" fill="white"/>
<path d="M192.534 251.809L222.11 251.879L221.452 210.447L196.58 210.388" stroke="black" stroke-width="2.6177" stroke-miterlimit="10" stroke-linecap="round" stroke-linejoin="round"/>
<path d="M180.778 251.847L210.354 251.917L209.696 210.485L184.849 210.426" fill="#B5B7BA"/>
<path d="M180.778 251.847L210.354 251.917L209.696 210.485L184.849 210.426" stroke="black" stroke-width="2.6177" stroke-miterlimit="10" stroke-linecap="round" stroke-linejoin="round"/>
<path d="M201.24 216.31L201.289 222.647C201.311 225.554 199.023 227.884 196.152 227.877C193.282 227.87 190.958 225.529 190.936 222.622L190.887 216.285" stroke="black" stroke-width="2.6177" stroke-miterlimit="10" stroke-linecap="round" stroke-linejoin="round"/>
<path d="M355.442 126.328L280.619 146.862L286.096 125.626L350.703 107.691L360.354 105.116L361.999 111.287L355.528 114.643L355.442 126.328Z" fill="#686EB3"/>
<path d="M353.399 120.223L348.717 121.73C347.099 122.299 346.253 124.065 346.83 125.685L346.855 125.735C347.433 127.355 349.184 128.231 350.802 127.662L353.843 126.798C356.589 125.958 357.585 124.441 356.805 122.074C356.126 120.08 353.914 120 353.914 120" fill="#686EB3"/>
<path d="M353.399 120.223L348.717 121.73C347.099 122.299 346.253 124.065 346.83 125.685L346.855 125.735C347.433 127.355 349.184 128.231 350.802 127.662L353.843 126.798C356.589 125.958 357.585 124.441 356.805 122.074C356.126 120.08 353.914 120 353.914 120" stroke="black" stroke-width="2.68735" stroke-miterlimit="10" stroke-linecap="round" stroke-linejoin="round"/>
<path d="M347.662 127.605L286.977 145.494" stroke="black" stroke-width="2.68735" stroke-miterlimit="10" stroke-linecap="round" stroke-linejoin="round"/>
<path d="M244.385 137.621L326.186 114.321C334.252 111.923 353.508 106.304 356.608 105.58C359.684 104.857 361.635 105.588 362.34 107.749C363.17 110.311 361.383 112.091 358.334 113.04C355.531 113.89 352.802 114.84 352.802 114.84" stroke="black" stroke-width="2.68735" stroke-miterlimit="10" stroke-linecap="round" stroke-linejoin="round"/>
<path d="M352.888 114.692L348.206 116.199C346.588 116.768 345.741 118.534 346.319 120.154L346.344 120.204C346.921 121.824 348.673 122.7 350.291 122.131L353.331 121.267C356.077 120.427 357.073 118.91 356.293 116.543C355.615 114.549 353.402 114.469 353.402 114.469" fill="#686EB3"/>
<path d="M352.888 114.692L348.206 116.199C346.588 116.768 345.741 118.534 346.319 120.154L346.344 120.204C346.921 121.824 348.673 122.7 350.291 122.131L353.331 121.267C356.077 120.427 357.073 118.91 356.293 116.543C355.615 114.549 353.402 114.469 353.402 114.469" stroke="black" stroke-width="2.68735" stroke-miterlimit="10" stroke-linecap="round" stroke-linejoin="round"/>
<path d="M252.119 218.336L252.292 244.154C252.324 248.308 255.733 254.111 262.682 254.128C268.698 254.143 273.388 254.154 277.342 254.164C282.941 254.178 291.213 250.666 291.148 242.159C291.083 233.678 283.473 230.824 277.875 230.81C275.959 230.805 275.959 230.805 275.959 230.805L275.864 218.394L252.119 218.336Z" fill="white"/>
<path d="M275.814 200.978L252.023 200.921L252.158 218.578L275.949 218.635L275.814 200.978Z" fill="#686EB3"/>
<path d="M275.964 221.408L252.081 221.407L252.093 223.859L275.976 223.86L275.964 221.408Z" fill="#65BC45"/>
<path d="M275.976 225.31L252.093 225.31L252.106 227.762L275.989 227.762L275.976 225.31Z" fill="#65BC45"/>
<path d="M252.119 218.336L252.292 244.154C252.324 248.308 255.733 254.111 262.682 254.128C268.698 254.143 273.388 254.154 277.342 254.164C282.941 254.178 291.213 250.666 291.148 242.159C291.083 233.678 283.473 230.824 277.875 230.81C275.959 230.805 275.959 230.805 275.959 230.805L275.864 218.394L252.119 218.336Z" stroke="black" stroke-width="2.68735" stroke-miterlimit="10" stroke-linecap="round" stroke-linejoin="round"/>
<path d="M275.814 200.978L252.023 200.921L252.158 218.578L275.949 218.635L275.814 200.978Z" stroke="black" stroke-width="2.68735" stroke-miterlimit="10" stroke-linecap="round" stroke-linejoin="round"/>
<path d="M252.153 209.765C252.153 209.765 266.824 211.596 275.547 215.448L275.505 209.354L263.278 208.204L252.153 209.765Z" fill="black"/>
<path d="M232.236 218.4L232.409 244.218C232.441 248.372 235.85 254.175 242.799 254.192C248.815 254.207 253.505 254.218 257.459 254.228C263.058 254.242 271.33 250.73 271.265 242.223C271.2 233.742 263.59 230.888 257.992 230.874C256.076 230.869 256.076 230.869 256.076 230.869L255.981 218.458L232.236 218.4Z" fill="white"/>
<path d="M255.932 201.043L232.142 200.986L232.276 218.643L256.067 218.7L255.932 201.043Z" fill="#686EB3"/>
<path d="M256.081 221.472L232.198 221.471L232.21 223.924L256.093 223.924L256.081 221.472Z" fill="#65BC45"/>
<path d="M256.093 225.374L232.21 225.374L232.223 227.826L256.106 227.826L256.093 225.374Z" fill="#65BC45"/>
<path d="M232.236 218.4L232.409 244.218C232.441 248.372 235.85 254.175 242.799 254.192C248.815 254.207 253.505 254.218 257.459 254.228C263.058 254.242 271.33 250.73 271.265 242.223C271.2 233.742 263.59 230.888 257.992 230.874C256.076 230.869 256.076 230.869 256.076 230.869L255.981 218.458L232.236 218.4Z" stroke="black" stroke-width="2.68735" stroke-miterlimit="10" stroke-linecap="round" stroke-linejoin="round"/>
<path d="M255.932 201.043L232.142 200.986L232.276 218.643L256.067 218.7L255.932 201.043Z" stroke="black" stroke-width="2.68735" stroke-miterlimit="10" stroke-linecap="round" stroke-linejoin="round"/>
<path d="M232.353 210.837C232.353 210.837 246.343 210.183 255.837 215.066L255.796 208.969L232.679 208.078L232.353 210.837Z" fill="black"/>
<path d="M297.952 67.8498C297.952 67.8498 310.058 67.6305 311.513 59.118C313.18 49.4639 306.193 42.8679 306.193 42.8679C306.193 42.8679 322.253 46.8538 324.303 61.7803C325.937 73.5278 317.333 83.0412 306.081 86.0681C301.554 86.9263 295.762 85.9441 293.038 79.0106C290.638 72.8724 293.838 68.2869 297.952 67.8498Z" fill="white"/>
<path d="M297.952 67.8498C297.952 67.8498 310.058 67.6305 311.513 59.118C313.18 49.4639 306.193 42.8679 306.193 42.8679C306.193 42.8679 322.253 46.8538 324.303 61.7803C325.937 73.5278 317.333 83.0412 306.081 86.0681C301.554 86.9263 295.762 85.9441 293.038 79.0106C290.638 72.8724 293.838 68.2869 297.952 67.8498Z" stroke="black" stroke-width="2.68735" stroke-miterlimit="10" stroke-linecap="round" stroke-linejoin="round"/>
<path d="M187.043 129.861C189.384 73.6496 209.487 50.2726 253.536 50.3794C297.56 50.4862 318.047 73.9616 321.249 130.186C324.424 186.088 309.352 209.974 254.757 209.842C200.162 209.709 184.724 185.749 187.043 129.861Z" fill="#686EB3"/>
<path d="M267.717 107.03C266.195 107.027 264.958 105.756 264.946 104.214C264.935 102.673 266.152 101.408 267.673 101.411C269.195 101.415 270.432 102.686 270.444 104.228C270.431 105.769 269.214 107.034 267.717 107.03Z" fill="black"/>
<path d="M242.31 120.463C242.331 123.683 244.911 126.277 248.042 126.281L287.481 126.333C290.636 126.337 293.158 123.724 293.137 120.529C293.116 117.309 290.561 114.715 287.406 114.711L247.967 114.659C244.836 114.655 242.289 117.268 242.31 120.463Z" fill="black"/>
<path d="M267.364 126.25L259.375 126.231L263.314 120.634L267.364 126.25Z" fill="white"/>
<path d="M283.442 120.823L279.362 114.808L275.377 120.818L271.298 114.803L267.288 120.813L263.233 114.797L259.223 120.807L255.143 114.792L251.133 120.802L247.054 114.787C247.325 114.736 247.621 114.711 247.917 114.711L255.069 114.716L255.168 114.716L263.134 114.722L263.232 114.722L271.199 114.727L271.297 114.727L279.263 114.732L279.362 114.732L287.353 114.738C287.378 114.738 287.402 114.738 287.402 114.738L283.442 120.823Z" fill="white"/>
<path d="M259.288 126.276L251.299 126.257L255.238 120.66L259.288 126.276Z" fill="white"/>
<path d="M275.416 126.224L267.428 126.205L271.392 120.609L275.416 126.224Z" fill="white"/>
<path d="M283.492 126.198L275.504 126.179L279.468 120.583L283.492 126.198Z" fill="white"/>
<path d="M248.978 98.4372C251.925 98.4444 254.289 96.037 254.266 93.0516L254.246 90.4393C254.24 89.6681 253.621 89.0446 252.86 89.0428C252.098 89.0409 251.489 89.6614 251.495 90.4326L251.515 93.0449C251.526 94.4878 250.381 95.6543 248.956 95.6508C247.532 95.6473 246.368 94.4752 246.357 93.0323L246.337 90.42C246.331 89.6488 245.713 89.0253 244.951 89.0235C244.19 89.0216 243.581 89.6421 243.587 90.4133L243.607 93.0256C243.605 95.9861 246.03 98.43 248.978 98.4372Z" fill="black"/>
<path d="M286.394 98.3162C289.341 98.3234 291.705 95.916 291.682 92.9306L291.662 90.3183C291.656 89.547 291.037 88.9236 290.276 88.9217C289.514 88.9199 288.905 89.5403 288.911 90.3116L288.931 92.9239C288.942 94.3668 287.797 95.5333 286.372 95.5298C284.948 95.5263 283.785 94.3542 283.774 92.9113L283.753 90.299C283.748 89.5277 283.129 88.9043 282.367 88.9024C281.606 88.9006 280.997 89.521 281.003 90.2923L281.023 92.9046C281.046 95.8651 283.471 98.309 286.394 98.3162Z" fill="black"/>
<path d="M242.31 120.463C242.331 123.683 244.911 126.277 248.042 126.281L287.481 126.333C290.636 126.337 293.158 123.724 293.137 120.529C293.116 117.309 290.561 114.715 287.406 114.711L247.967 114.659C244.836 114.655 242.289 117.268 242.31 120.463Z" stroke="black" stroke-width="2.17043" stroke-miterlimit="10" stroke-linecap="round" stroke-linejoin="round"/>
<path d="M187.043 129.861C189.384 73.6496 209.487 50.2726 253.536 50.3794C297.56 50.4862 318.047 73.9616 321.249 130.186C324.424 186.088 309.352 209.974 254.757 209.842C200.162 209.709 184.724 185.749 187.043 129.861Z" stroke="black" stroke-width="2.68735" stroke-miterlimit="10" stroke-linecap="round" stroke-linejoin="round"/>
<path d="M209.968 68.2512C209.968 68.2512 197.858 67.9739 196.274 59.4542C194.46 49.7918 201.346 43.2289 201.346 43.2289C201.346 43.2289 185.347 47.1383 183.524 62.0555C182.07 73.7956 190.819 83.3505 202.117 86.4313C206.657 87.3111 212.434 86.3566 215.053 79.4359C217.359 73.3089 214.089 68.7079 209.968 68.2512Z" fill="white"/>
<path d="M209.968 68.2512C209.968 68.2512 197.858 67.9739 196.274 59.4542C194.46 49.7918 201.346 43.2289 201.346 43.2289C201.346 43.2289 185.347 47.1383 183.524 62.0555C182.07 73.7956 190.819 83.3505 202.117 86.4313C206.657 87.3111 212.434 86.3566 215.053 79.4359C217.359 73.3089 214.089 68.7079 209.968 68.2512Z" stroke="black" stroke-width="2.68735" stroke-miterlimit="10" stroke-linecap="round" stroke-linejoin="round"/>
<path d="M274.734 148.656L278.241 138.848C279.108 136.788 280.557 136.94 282.324 136.945C284.066 136.949 288.777 136.96 290.814 136.965C292.85 136.97 294.428 137.993 293.448 141.321C292.802 143.481 288.454 155.623 287.733 157.56C287.011 159.471 285.277 160.511 283.658 160.507C282.038 160.503 278.701 160.495 278.701 160.495C277.45 160.492 276.542 160.49 275.193 160.486C273.819 160.483 271.727 159.633 272.342 156.677" fill="#00BAB9"/>
<path d="M274.734 148.656L278.241 138.848C279.108 136.788 280.557 136.94 282.324 136.945C284.066 136.949 288.777 136.96 290.814 136.965C292.85 136.97 294.428 137.993 293.448 141.321C292.802 143.481 288.454 155.623 287.733 157.56C287.011 159.471 285.277 160.511 283.658 160.507C282.038 160.503 278.701 160.495 278.701 160.495C277.45 160.492 276.542 160.49 275.193 160.486C273.819 160.483 271.727 159.633 272.342 156.677" stroke="black" stroke-width="2.36776" stroke-miterlimit="10" stroke-linecap="round" stroke-linejoin="round"/>
<path d="M281.314 140.58L280.646 142.684" stroke="black" stroke-width="2.68735" stroke-miterlimit="10" stroke-linecap="round" stroke-linejoin="round"/>
<path d="M222.693 140.541L265.495 144.545L271.065 139.223C272.379 137.974 274.468 138.063 275.734 139.43C276.976 140.796 276.924 142.934 275.611 144.208L274.03 145.732L281.721 146.135C283.639 146.299 285.105 147.993 284.977 149.955C284.85 151.916 283.219 153.389 281.302 153.226C283.219 153.389 284.686 155.084 284.558 157.045C284.431 159.006 282.8 160.48 280.883 160.316C282.8 160.48 282.228 162.212 282.125 164.173C281.998 166.134 280.784 167.585 278.867 167.447L270.559 166.839L268.224 166.648C263.358 166.339 231.937 163.19 218.44 159.479L222.693 140.541Z" fill="#686EB3"/>
<path d="M214.726 131.523C214.726 131.523 219.687 143.689 234.088 147.629C250.459 152.109 265.211 144.874 265.211 144.874L271.021 139.337C272.334 138.09 274.421 138.179 275.687 139.544C276.929 140.908 276.877 143.043 275.565 144.315L273.985 145.837L281.672 146.24C283.589 146.404 285.055 148.097 284.927 150.055C284.8 152.013 283.171 153.485 281.254 153.321L276.269 153.112L281.254 153.321C283.171 153.485 284.637 155.177 284.51 157.136C284.382 159.094 282.753 160.565 280.837 160.401C281.611 161.663 282.063 162.721 281.93 164.101C281.73 166.059 280.174 167.531 278.257 167.367L271.133 166.842C271.133 166.842 248.36 174.702 228.25 169.417C211.364 164.983 204.511 152.654 204.511 152.654" stroke="black" stroke-width="2.68735" stroke-miterlimit="10" stroke-linecap="round" stroke-linejoin="round"/>
<path d="M280.965 159.912L279.435 159.884L276.25 159.748" stroke="black" stroke-width="2.68735" stroke-miterlimit="10" stroke-linecap="round" stroke-linejoin="round"/>
<path d="M342.049 121.999L346.805 120.791C348.447 120.322 349.392 118.607 348.912 116.963L348.887 116.913C348.408 115.27 346.706 114.295 345.064 114.739L340.308 115.947" fill="#686EB3"/>
<path d="M342.049 121.999L346.805 120.791C348.447 120.322 349.392 118.607 348.912 116.963L348.887 116.913C348.408 115.27 346.706 114.295 345.064 114.739L340.308 115.947" stroke="black" stroke-width="2.68735" stroke-miterlimit="10" stroke-linecap="round" stroke-linejoin="round"/>
<path d="M116.134 227.397L118.091 245.694C118.319 247.912 116.895 251.122 113.272 251.41C110.133 251.655 107.84 253.458 105.763 253.621C102.84 253.846 98.9957 252.313 98.5131 247.776C98.0309 243.264 101 239.856 103.922 239.632C104.936 239.549 104.936 239.549 104.936 239.549L103.745 228.382L116.134 227.397Z" fill="white"/>
<path d="M104.054 228.627L116.479 227.641L114.569 209.824L102.145 210.81L104.054 228.627Z" fill="#FFC232"/>
<path d="M104.245 233.427L116.886 232.346L116.7 230.489L104.059 231.57L104.245 233.427Z" fill="#EF442A"/>
<path d="M104.67 236.794L117.31 235.714L117.124 233.857L104.484 234.937L104.67 236.794Z" fill="#EF442A"/>
<path d="M104.965 239.696L103.747 228.38L116.133 227.395L118.089 245.689C118.202 246.736 118.192 249.174 116.153 250.185C114.114 251.195 108.635 253.267 107.118 253.615C105.624 253.938 101.117 254.733 99.2473 249.626C97.5801 245.069 100.048 242.175 101.846 241.21C103.428 240.342 104.965 239.696 104.965 239.696Z" stroke="black" stroke-width="2.68735" stroke-miterlimit="10" stroke-linecap="round" stroke-linejoin="round"/>
<path d="M104.054 228.627L116.479 227.641L114.569 209.824L102.145 210.81L104.054 228.627Z" stroke="black" stroke-width="2.68735" stroke-miterlimit="10" stroke-linecap="round" stroke-linejoin="round"/>
<path d="M103.189 215.657C103.189 215.657 110.592 214.814 114.864 217.774L114.407 210.869L106.931 213.643L103.026 212.569L103.189 215.657Z" fill="black"/>
<path d="M34.2862 160.574L78.5682 173.267L75.1211 160.532L36.8683 149.439L30.3471 147.736L28.614 150.939L34.5578 153.744L34.2862 160.574Z" fill="#FFC232"/>
<path d="M40.9216 161.827L74.7625 172.299" stroke="black" stroke-width="2.68735" stroke-miterlimit="10" stroke-linecap="round" stroke-linejoin="round"/>
<path d="M99.8746 167.742L48.1213 152.423C43.0145 150.848 34.2572 148.24 32.3095 147.773C30.3618 147.305 29.136 147.754 28.7308 149.144C28.2296 150.787 29.3719 151.933 31.2964 152.552C33.0729 153.119 34.8007 153.737 34.8007 153.737C34.8007 153.737 31.6483 161.238 37.6595 162.185C39.5578 162.626 41.9599 161.704 41.6589 158.461" stroke="black" stroke-width="2.68735" stroke-miterlimit="10" stroke-linecap="round" stroke-linejoin="round"/>
<path d="M42.406 158.613L39.3882 157.791C38.3574 157.484 37.7337 156.38 38.0157 155.333L38.0152 155.283C38.2972 154.236 39.3668 153.619 40.3975 153.927L43.4154 154.748" stroke="black" stroke-width="2.68735" stroke-miterlimit="10" stroke-linecap="round" stroke-linejoin="round"/>
<path d="M126.992 228.095L128.911 246.405C129.135 248.625 127.697 251.847 124.06 252.153C120.908 252.415 118.602 254.232 116.517 254.407C113.583 254.646 109.727 253.131 109.254 248.591C108.781 244.075 111.77 240.647 114.704 240.408C115.722 240.32 115.722 240.32 115.722 240.32L114.554 229.144L126.992 228.095Z" fill="white"/>
<path d="M114.784 229.373L127.257 228.323L125.39 210.578L112.917 211.628L114.784 229.373Z" fill="#FFC232"/>
<path d="M115.132 234.135L127.781 233.006L127.601 231.197L114.952 232.326L115.132 234.135Z" fill="#EF442A"/>
<path d="M115.459 237.532L128.108 236.403L127.928 234.595L115.279 235.724L115.459 237.532Z" fill="#EF442A"/>
<path d="M115.751 240.443L114.557 229.118L126.992 228.069L128.91 246.377C129.021 247.425 129.005 249.866 126.956 250.888C124.907 251.91 119.402 254.013 117.877 254.369C116.377 254.7 111.85 255.518 109.986 250.414C108.324 245.886 110.809 242.95 112.616 241.975C114.231 241.122 115.751 240.443 115.751 240.443Z" stroke="black" stroke-width="2.68735" stroke-miterlimit="10" stroke-linecap="round" stroke-linejoin="round"/>
<path d="M114.784 229.373L127.257 228.323L125.39 210.578L112.917 211.628L114.784 229.373Z" stroke="black" stroke-width="2.68735" stroke-miterlimit="10" stroke-linecap="round" stroke-linejoin="round"/>
<path d="M160.722 163.777C161.031 191.873 138.976 214.514 111.441 214.311C83.9313 214.108 61.3746 191.162 61.0652 163.041C60.756 134.946 82.8112 112.305 110.321 112.508C137.856 112.736 160.413 135.682 160.722 163.777Z" fill="#FFC232"/>
<path d="M81.4157 151.436C80.585 151.43 79.9086 152.124 79.9179 152.972C79.9275 153.845 80.619 154.524 81.4497 154.53C82.2804 154.536 82.9569 153.843 82.9475 152.994C82.9382 152.146 82.2464 151.442 81.4157 151.436Z" fill="black"/>
<path d="M98.4814 151.381C97.6263 151.375 96.9743 152.068 96.9836 152.917C96.9932 153.79 97.6848 154.469 98.5155 154.475C99.3462 154.481 100.023 153.787 100.013 152.939C100.004 152.091 99.3121 151.387 98.4814 151.381Z" fill="black"/>
<path d="M89.4472 160.654C90.2778 160.66 90.9542 159.967 90.9446 159.094C90.9352 158.245 90.2435 157.542 89.4129 157.535C88.5823 157.529 87.9059 158.223 87.9152 159.071C87.9248 159.944 88.6166 160.648 89.4472 160.654Z" fill="black"/>
<path d="M160.722 163.777C161.031 191.873 138.976 214.514 111.441 214.311C83.9313 214.108 61.3746 191.162 61.0652 163.041C60.756 134.946 82.8112 112.305 110.321 112.508C137.856 112.736 160.413 135.682 160.722 163.777Z" stroke="black" stroke-width="2.68735" stroke-miterlimit="10" stroke-linecap="round" stroke-linejoin="round"/>
<path d="M89.022 184.411L85.3488 174.534C84.447 172.458 83.008 172.597 81.2499 172.584C79.4919 172.571 74.9746 172.538 72.948 172.523C70.8236 172.507 69.4236 173.968 70.2098 176.642C70.8441 178.816 75.4979 191.268 76.2518 193.218C77.0054 195.144 78.7506 196.204 80.3621 196.216C81.9737 196.228 85.2945 196.252 85.2945 196.252C86.5398 196.261 87.4432 196.268 88.7862 196.278C90.1536 196.288 92.2198 195.455 91.5523 192.483" fill="#EF442A"/>
<path d="M89.022 184.411L85.3488 174.534C84.447 172.458 83.008 172.597 81.2499 172.584C79.4919 172.571 74.9746 172.538 72.948 172.523C70.8236 172.507 69.4236 173.968 70.2098 176.642C70.8441 178.816 75.4979 191.268 76.2518 193.218C77.0054 195.144 78.7506 196.204 80.3621 196.216C81.9737 196.228 85.2945 196.252 85.2945 196.252C86.5398 196.261 87.4432 196.268 88.7862 196.278C90.1536 196.288 92.2198 195.455 91.5523 192.483" stroke="black" stroke-width="2.36776" stroke-miterlimit="10" stroke-linecap="round" stroke-linejoin="round"/>
<path d="M82.4239 176.238L83.1195 178.351" stroke="black" stroke-width="2.68735" stroke-miterlimit="10" stroke-linecap="round" stroke-linejoin="round"/>
<path d="M117.323 176.87L93.7383 180.534L90.4902 177.606C89.7216 176.918 88.5703 176.981 87.9182 177.753C87.2661 178.526 87.3545 179.709 88.1231 180.397L89.0406 181.237L84.7788 181.517C83.7259 181.606 82.9537 182.579 83.0654 183.662C83.1771 184.744 84.1434 185.56 85.1963 185.471C84.1434 185.56 83.3712 186.533 83.4828 187.615C83.5945 188.698 84.5608 189.514 85.6137 189.425C84.5608 189.514 83.7886 190.486 83.9003 191.569C84.012 192.652 84.9782 193.468 86.0312 193.379L91.5172 192.986L92.8149 192.875C95.5089 192.678 112.864 190.731 120.264 188.574L117.323 176.87Z" fill="#FFC232"/>
<path d="M135.027 171.891C135.027 171.891 132.544 173.477 129.082 175.255C113.601 183.228 93.9661 180.574 93.9661 180.574L90.5921 177.514C89.8231 176.825 88.6708 176.889 88.0179 177.663C87.3649 178.437 87.4531 179.622 88.222 180.311L89.1401 181.152L84.8747 181.434C83.8209 181.524 83.0477 182.498 83.1591 183.583C83.2705 184.668 84.2373 185.484 85.2912 185.395L88.0617 185.248L85.2912 185.395C84.2373 185.484 83.4642 186.459 83.5756 187.543C83.687 188.628 84.6538 189.445 85.7076 189.355C84.6538 189.445 83.8807 190.419 83.9921 191.504C84.1035 192.589 85.0703 193.405 86.1241 193.316L91.958 192.9L92.9137 192.809C99.1491 193.128 119.317 193.243 130.876 187.495C135.948 184.979 139.334 182.999 139.334 182.999" stroke="black" stroke-width="2.68735" stroke-miterlimit="10" stroke-linecap="round" stroke-linejoin="round"/>
<path d="M88.0932 189.422L85.4795 189.566" stroke="black" stroke-width="2.68735" stroke-miterlimit="10" stroke-linecap="round" stroke-linejoin="round"/>
<path d="M113.995 216.412C113.995 216.412 121.416 215.538 125.69 218.477L125.248 211.578L117.749 214.383L113.832 214.932L113.995 216.412Z" fill="black"/>
<path d="M87.7785 167.345C87.7952 168.911 88.5135 170.184 89.4128 170.191C90.2878 170.197 91.0035 168.934 90.9869 167.367C90.9702 165.801 90.2519 164.528 89.3526 164.522C88.4533 164.515 87.7619 165.778 87.7785 167.345Z" fill="black"/>
<path d="M177.27 225.211L177.422 248.359C177.441 250.892 179.504 254.399 183.721 254.409C187.375 254.418 190.219 254.425 192.622 254.43C196.006 254.439 201.041 252.315 201.001 247.149C200.962 241.983 196.339 240.258 192.955 240.25C191.778 240.247 191.778 240.247 191.778 240.247L191.663 225.245L177.27 225.211Z" fill="white"/>
<path d="M191.551 197.635L177.171 197.604L177.377 225.4L191.758 225.431L191.551 197.635Z" fill="#F04928"/>
<path d="M191.772 229.317L177.268 229.31L177.28 231.307L191.783 231.315L191.772 229.317Z" fill="#005E9F"/>
<path d="M191.785 233.219L177.281 233.212L177.292 235.21L191.796 235.217L191.785 233.219Z" fill="#005E9F"/>
<path d="M177.27 225.211L177.422 248.359C177.441 250.892 179.504 254.399 183.721 254.409C187.375 254.418 190.219 254.425 192.622 254.43C196.006 254.439 201.041 252.315 201.001 247.149C200.962 241.983 196.339 240.258 192.955 240.25C191.778 240.247 191.778 240.247 191.778 240.247L191.663 225.245L177.27 225.211Z" stroke="black" stroke-width="2.6177" stroke-miterlimit="10" stroke-linecap="round" stroke-linejoin="round"/>
<path d="M191.551 197.635L177.171 197.604L177.377 225.4L191.758 225.431L191.551 197.635Z" stroke="black" stroke-width="2.6177" stroke-miterlimit="10" stroke-linecap="round" stroke-linejoin="round"/>
<path d="M177.075 225.344L177.276 248.492C177.296 251.025 175.287 254.522 171.07 254.512C167.416 254.503 164.572 254.496 162.169 254.491C158.785 254.483 153.717 252.334 153.678 247.168C153.638 242.002 158.235 240.3 161.619 240.308C162.796 240.311 162.796 240.311 162.796 240.311L162.681 225.309L177.075 225.344Z" fill="white"/>
<path d="M162.851 225.418L177.231 225.449L177.025 197.653L162.645 197.622L162.851 225.418Z" fill="#F04928"/>
<path d="M162.753 231.358L177.257 231.366L177.245 229.368L162.742 229.36L162.753 231.358Z" fill="#005E9F"/>
<path d="M162.765 235.225L177.269 235.232L177.257 233.234L162.754 233.227L162.765 235.225Z" fill="#005E9F"/>
<path d="M177.075 225.344L177.276 248.492C177.296 251.025 175.287 254.522 171.07 254.512C167.416 254.503 164.572 254.496 162.169 254.491C158.785 254.483 153.717 252.334 153.678 247.168C153.638 242.002 158.235 240.3 161.619 240.308C162.796 240.311 162.796 240.311 162.796 240.311L162.681 225.309L177.075 225.344Z" stroke="black" stroke-width="2.6177" stroke-miterlimit="10" stroke-linecap="round" stroke-linejoin="round"/>
<path d="M162.851 225.418L177.231 225.449L177.025 197.653L162.645 197.622L162.851 225.418Z" stroke="black" stroke-width="2.6177" stroke-miterlimit="10" stroke-linecap="round" stroke-linejoin="round"/>
<path d="M177.034 204.594C177.034 204.594 186.43 204.19 191.878 208.945L191.821 201.157L184.133 202.987L177.034 204.594Z" fill="black"/>
<path d="M162.151 203.333C162.151 203.333 171.562 204.452 177.012 209.213L176.963 202.514L169.556 202.774L162.151 203.333Z" fill="black"/>
<path d="M195.255 201.332C211.039 196.257 221.576 183.898 221.309 164.862C220.989 142.029 206.588 129.189 206.399 104.272C206.269 87.1225 193.883 71.9795 175.856 72.0613C157.853 72.1431 145.868 87.3779 146.243 104.528C146.775 129.446 132.716 142.417 133.036 165.25C133.303 184.311 144.173 196.572 160.107 201.498C169.778 204.152 182.645 205.174 195.255 201.332Z" fill="#F04928"/>
<path d="M134.099 153.713C133.391 157.309 132.979 161.106 133.034 165.201C133.301 184.261 144.172 196.522 160.106 201.448C169.777 204.126 182.644 205.149 195.254 201.307C211.038 196.232 221.575 183.873 221.308 164.837C220.988 142.004 206.587 129.164 206.398 104.247C206.268 87.0976 193.882 71.9546 175.855 72.0364C157.852 72.1183 145.867 87.353 146.242 104.503C146.437 114.033 145.138 120.458 143.27 126.013" stroke="black" stroke-width="2.6177" stroke-miterlimit="10" stroke-linecap="round" stroke-linejoin="round"/>
<path d="M182.816 113.716L170.032 113.657C169.342 113.654 168.78 114.237 168.786 114.951C168.792 115.69 169.363 116.279 170.053 116.282L182.837 116.341C183.552 116.344 184.113 115.761 184.108 115.022C184.102 114.308 183.531 113.72 182.816 113.716Z" fill="black"/>
<path d="M166.352 98.1576C165.375 98.1504 164.602 98.9679 164.613 99.9409C164.624 100.939 165.414 101.768 166.392 101.775C167.369 101.782 168.142 100.99 168.131 99.9668C168.144 98.9691 167.329 98.1648 166.352 98.1576Z" fill="black"/>
<path d="M186.381 98.093C185.403 98.0858 184.631 98.9033 184.641 99.8763C184.652 100.874 185.443 101.703 186.42 101.711C187.398 101.718 188.171 100.925 188.159 99.9022C188.148 98.9043 187.358 98.1002 186.381 98.093Z" fill="black"/>
<path d="M176.441 108.856C177.419 108.863 178.191 108.045 178.181 107.048C178.17 106.05 177.379 105.221 176.402 105.213C175.424 105.206 174.652 106.024 174.662 107.022C174.649 108.019 175.464 108.849 176.441 108.856Z" fill="black"/>
<path d="M327.727 230.902L327.922 248.914C327.944 250.882 329.559 253.634 332.804 253.658C335.633 253.678 337.829 253.694 339.683 253.707C342.293 253.726 346.178 252.085 346.134 248.074C346.091 244.063 342.515 242.692 339.905 242.673C339.002 242.667 339.002 242.667 339.002 242.667L338.875 230.983L327.727 230.902Z" fill="white"/>
<path d="M338.746 209.587L327.648 209.511L327.873 231.132L338.971 231.207L338.746 209.587Z" fill="#65BC45" stroke="black" stroke-width="1.67327" stroke-miterlimit="10"/>
<path d="M338.983 234.187L327.721 234.142L327.732 235.7L338.994 235.745L338.983 234.187Z" fill="#5CC3B1"/>
<path d="M338.991 237.199L327.729 237.155L327.741 238.713L339.003 238.758L338.991 237.199Z" fill="#5CC3B1"/>
<path d="M327.727 230.902L327.922 248.914C327.944 250.882 329.559 253.634 332.804 253.658C335.633 253.678 337.829 253.694 339.683 253.707C342.293 253.726 346.178 252.085 346.134 248.074C346.091 244.063 342.515 242.692 339.905 242.673C339.002 242.667 339.002 242.667 339.002 242.667L338.875 230.983L327.727 230.902V230.902Z" stroke="black" stroke-width="2.6834" stroke-miterlimit="10" stroke-linecap="round" stroke-linejoin="round"/>
<path d="M338.746 209.587L327.648 209.511L327.873 231.132L338.971 231.207L338.746 209.587Z" stroke="#030000" stroke-width="2.6834" stroke-miterlimit="10" stroke-linecap="round" stroke-linejoin="round"/>
<path d="M318.516 230.932L318.712 248.944C318.733 250.912 320.348 253.664 323.593 253.688C326.422 253.708 328.618 253.724 330.472 253.737C333.082 253.756 336.967 252.115 336.923 248.104C336.88 244.093 333.304 242.722 330.693 242.703C329.791 242.697 329.791 242.697 329.791 242.697L329.664 231.013L318.516 230.932Z" fill="white"/>
<path d="M329.511 209.617L318.413 209.542L318.639 231.162L329.736 231.237L329.511 209.617Z" fill="#65BC45"/>
<path d="M329.745 234.216L318.484 234.171L318.495 235.73L329.757 235.775L329.745 234.216Z" fill="#5CC3B1"/>
<path d="M329.756 237.229L318.494 237.185L318.505 238.743L329.767 238.788L329.756 237.229Z" fill="#5CC3B1"/>
<path d="M318.516 230.932L318.712 248.944C318.733 250.912 320.348 253.664 323.593 253.688C326.422 253.708 328.618 253.724 330.472 253.737C333.082 253.756 336.967 252.115 336.923 248.104C336.88 244.093 333.304 242.722 330.693 242.703C329.791 242.697 329.791 242.697 329.791 242.697L329.664 231.013L318.516 230.932V230.932Z" stroke="black" stroke-width="2.6834" stroke-miterlimit="10" stroke-linecap="round" stroke-linejoin="round"/>
<path d="M329.511 209.617L318.413 209.542L318.639 231.162L329.736 231.237L329.511 209.617Z" stroke="black" stroke-width="2.6834" stroke-miterlimit="10" stroke-linecap="round" stroke-linejoin="round"/>
<path d="M304.455 157.965C304.342 143.116 316.132 130.258 330.79 130.293C345.448 130.328 357.434 143.218 357.548 158.092C357.662 173.015 357.592 163.877 357.748 184.387C357.905 204.897 350.856 222.311 321.049 222.24C291.218 222.168 288.067 194.599 288.067 194.599C288.067 194.599 304.802 203.504 304.591 175.793C304.47 159.976 304.455 157.965 304.455 157.965Z" fill="#65BC45"/>
<path d="M304.455 157.965C304.342 143.116 316.132 130.258 330.79 130.293C345.448 130.328 357.434 143.218 357.548 158.092C357.662 173.015 357.592 163.877 357.748 184.387C357.905 204.897 350.856 222.311 321.049 222.24C291.218 222.168 288.067 194.599 288.067 194.599C288.067 194.599 304.802 203.504 304.591 175.793C304.47 159.976 304.455 157.965 304.455 157.965Z" stroke="black" stroke-width="2.6834" stroke-miterlimit="10" stroke-linecap="round" stroke-linejoin="round"/>
<path d="M336.296 161.009L346.283 161.017C346.826 161.018 347.272 161.472 347.275 162.027C347.279 162.582 346.838 163.061 346.295 163.061L336.308 163.052C335.766 163.052 335.319 162.597 335.316 162.017C335.288 161.462 335.729 161.008 336.296 161.009Z" fill="black"/>
<path d="M342.381 158.081C341.2 158.079 340.207 156.828 340.195 155.281C340.184 153.733 341.134 152.487 342.339 152.49L350.454 155.304L342.381 158.081Z" fill="#FEBF3A"/>
<path d="M342.381 158.081C341.2 158.079 340.207 156.828 340.195 155.281C340.184 153.733 341.134 152.487 342.339 152.49L350.454 155.304L342.381 158.081Z" stroke="black" stroke-width="1.85949" stroke-miterlimit="10" stroke-linecap="round" stroke-linejoin="round"/>
<path d="M333.463 153.077C335.009 153.081 336.252 151.815 336.24 150.249L336.226 148.433C336.223 148.035 335.901 147.686 335.483 147.685C335.091 147.684 334.749 148.007 334.753 148.429L334.767 150.245C334.772 150.991 334.163 151.611 333.427 151.609C332.691 151.608 332.072 150.984 332.066 150.238L332.052 148.423C332.049 148.025 331.728 147.676 331.31 147.675C330.917 147.674 330.576 147.996 330.579 148.419L330.593 150.235C330.655 151.802 331.916 153.073 333.463 153.077Z" fill="black"/>
<path d="M349.07 153.026C350.617 153.03 351.859 151.765 351.847 150.198L351.833 148.382C351.83 147.984 351.508 147.635 351.091 147.634C350.698 147.633 350.357 147.956 350.36 148.379L350.374 150.194C350.38 150.94 349.771 151.561 349.035 151.559C348.298 151.557 347.68 150.934 347.674 150.188L347.66 148.372C347.657 147.974 347.335 147.625 346.918 147.624C346.525 147.623 346.184 147.946 346.187 148.369L346.201 150.184C346.262 151.751 347.548 153.023 349.07 153.026Z" fill="black"/>
<path d="M318.448 222.682C318.448 222.682 325.422 223.522 329.382 226.332L329.356 222.704L320.56 221.961L318.448 222.682Z" fill="#030000"/>
<path d="M328.997 222.292C328.997 222.292 335.937 222.207 338.937 225.187L338.903 220.539L331.446 220.573L328.997 222.292Z" fill="#030000"/>
<path d="M339.012 182.95L342.519 173.142C343.387 171.081 344.836 171.234 346.602 171.238C348.369 171.243 353.448 171.255 355.485 171.26C357.522 171.265 358.98 172.635 357.995 175.441C357.251 177.552 352.733 189.918 352.036 191.83C351.314 193.742 349.58 194.781 347.961 194.777C346.341 194.773 343.004 194.765 343.004 194.765C341.753 194.762 340.845 194.76 339.495 194.757C338.121 194.753 336.029 193.903 336.644 190.947" fill="#006FA9"/>
<path d="M339.012 182.95L342.519 173.142C343.387 171.081 344.836 171.234 346.602 171.238C348.369 171.243 353.448 171.255 355.485 171.26C357.522 171.265 358.98 172.635 357.995 175.441C357.251 177.552 352.733 189.918 352.036 191.83C351.314 193.742 349.58 194.781 347.961 194.777C346.341 194.773 343.004 194.765 343.004 194.765C341.753 194.762 340.845 194.76 339.495 194.757C338.121 194.753 336.029 193.903 336.644 190.947" stroke="black" stroke-width="2.36776" stroke-miterlimit="10" stroke-linecap="round" stroke-linejoin="round"/>
<path d="M345.86 174.849L345.047 177.152" stroke="black" stroke-width="2.68735" stroke-miterlimit="10" stroke-linecap="round" stroke-linejoin="round"/>
<path d="M358.303 193.692C355.042 189.567 353.388 184.355 353.057 182.593C352.573 180.136 353.985 179.147 356.338 179.549C358.371 179.876 360.379 180.03 361.823 180.033C365.396 180.041 364.937 184.133 364.714 187.009C364.423 190.63 363.385 199.16 356.81 200.187" fill="#65BC45"/>
<path d="M358.303 193.692C355.042 189.567 353.388 184.355 353.057 182.593C352.573 180.136 353.985 179.147 356.338 179.549C358.371 179.876 360.379 180.03 361.823 180.033C365.396 180.041 364.937 184.133 364.714 187.009C364.423 190.63 363.385 199.16 356.81 200.187" stroke="black" stroke-width="2.6834" stroke-miterlimit="10" stroke-linecap="round" stroke-linejoin="round"/>
<path d="M182.841 165.1L171.064 165.072C169.644 165.069 168.509 163.9 168.499 162.486L168.333 140.454C168.322 139.015 169.464 137.876 170.859 137.88L182.636 137.907C184.056 137.91 185.191 139.079 185.202 140.493L185.368 162.525C185.403 163.939 184.261 165.103 182.841 165.1Z" fill="#FFC232" stroke="black" stroke-width="2.36776" stroke-miterlimit="10" stroke-linecap="round" stroke-linejoin="round"/>
<path d="M126.619 161.763C126.619 161.763 122.616 153.961 124.47 146.546C127.372 135.088 138.396 128.959 147.411 125.977L137.195 161.192L126.619 161.763Z" fill="#F04928"/>
<path d="M141.017 155.459C141.017 155.459 133.982 155.566 131.921 148.906L125.914 158.427C125.914 158.427 128.356 166.752 135.649 168.358L141.017 155.459Z" fill="#F04928"/>
<path d="M173.062 147.765L165.57 147.748L165.661 159.806L173.153 159.824L173.062 147.765Z" fill="#F04928"/>
<path d="M188.078 147.717L180.586 147.7L180.677 159.758L188.169 159.775L188.078 147.717Z" fill="#F04928"/>
<path d="M142.978 126.069C118.008 140.165 120.124 163.111 134.824 167.825C148.539 172.213 165.812 160.187 165.812 160.187L171.657 160.077C172.713 160.079 173.591 159.186 173.558 158.116C173.55 157.046 172.658 156.148 171.602 156.17C172.659 156.173 173.536 155.279 173.503 154.209C173.495 153.139 172.604 152.241 171.548 152.264L168.798 152.381L171.548 152.264C172.604 152.266 173.481 151.373 173.449 150.303C173.44 149.233 172.549 148.335 171.493 148.357L167.22 148.471L168.049 147.578C168.731 146.833 168.673 145.663 167.93 144.965C167.188 144.266 166.034 144.313 165.352 145.058L162.356 148.36C160.399 149.375 149.975 154.55 143.89 155.282C137.632 156.013 135.525 153.545 135.134 150.533C134.976 149.214 135.674 147.3 137.019 146.581" stroke="black" stroke-width="2.68019" stroke-miterlimit="10" stroke-linecap="round" stroke-linejoin="round"/>
<path d="M169.074 156.083L171.715 155.976" stroke="black" stroke-width="2.68019" stroke-miterlimit="10" stroke-linecap="round" stroke-linejoin="round"/>
<path d="M227.45 161.54C227.45 161.54 231.334 153.757 229.368 146.333C226.293 134.86 215.175 128.68 206.115 125.656L216.864 160.92L227.45 161.54Z" fill="#F04928"/>
<path d="M212.826 155.141C212.826 155.141 219.863 155.282 221.823 148.632L227.976 158.182C227.976 158.182 225.661 166.495 218.392 168.067L212.826 155.141Z" fill="#F04928"/>
<path d="M210.514 125.913C235.701 140.132 233.936 163.069 219.308 167.711C205.66 172.032 188.202 159.922 188.202 159.922L182.355 159.783C181.299 159.78 180.408 158.883 180.424 157.813C180.416 156.743 181.293 155.849 182.35 155.877C181.294 155.874 180.402 154.976 180.419 153.906C180.411 152.836 181.263 151.943 182.344 151.97L185.096 152.101L182.344 151.97C181.288 151.968 180.397 151.07 180.413 150C180.405 148.93 181.258 148.036 182.339 148.064L186.614 148.199L185.772 147.301C185.078 146.553 185.118 145.383 185.85 144.688C186.582 143.994 187.736 144.046 188.43 144.794L191.476 148.111C193.449 149.136 203.953 154.362 210.05 155.123C216.319 155.885 218.388 153.426 218.733 150.417C218.871 149.098 218.144 147.181 216.787 146.456" stroke="black" stroke-width="2.68019" stroke-miterlimit="10" stroke-linecap="round" stroke-linejoin="round"/>
<path d="M184.804 156.038L182.187 155.937" stroke="black" stroke-width="2.68019" stroke-miterlimit="10" stroke-linecap="round" stroke-linejoin="round"/>
<path d="M172.163 141.774L172.171 144.367" stroke="black" stroke-width="2.68735" stroke-miterlimit="10" stroke-linecap="round" stroke-linejoin="round"/>
<path d="M354.649 204.095C354.649 204.095 357.046 198.553 357.549 193.676" stroke="black" stroke-width="2.6834" stroke-miterlimit="10" stroke-linecap="round" stroke-linejoin="round"/>
<path d="M322.686 205.139C322.588 205.139 322.466 205.138 322.367 205.113C321.189 204.937 320.371 203.792 320.534 202.576C320.533 202.501 321.697 194.358 322.379 187.381C322.925 181.894 320.822 179.306 318.856 178.779C316.89 178.228 314.031 179.463 311.912 184.549C309.24 190.975 306.405 198.667 306.381 198.742C305.973 199.883 304.727 200.451 303.596 200.002C302.465 199.552 301.916 198.284 302.324 197.142C302.348 197.068 305.206 189.301 307.927 182.776C311.105 175.135 316.389 173.558 319.927 174.51C323.563 175.488 327.493 179.595 326.674 187.888C325.967 194.939 324.805 203.182 324.805 203.256C324.642 204.349 323.716 205.141 322.686 205.139Z" fill="#FFC232" stroke="black" stroke-width="2.36776" stroke-miterlimit="10" stroke-linecap="round" stroke-linejoin="round"/>
<path d="M319.453 178.926C319.453 178.926 329.797 184.805 340.113 180.52C341.24 180.049 342.378 180.924 342.117 182.144C340.455 189.887 334.437 200.186 313.976 198.867" fill="#65BC45"/>
<path d="M319.453 178.926C319.453 178.926 329.797 184.805 340.113 180.52C341.24 180.049 342.378 180.924 342.117 182.144C340.455 189.887 334.437 200.186 313.976 198.867" stroke="black" stroke-width="2.6834" stroke-miterlimit="10" stroke-linecap="round" stroke-linejoin="round"/>
<path d="M311.886 196.429C309.401 195.776 298.894 192.915 298.894 192.915C298.894 192.915 294.996 203.252 297.259 213.38C299.421 223.185 314.994 227.053 322.022 221.474C329.027 215.895 330.067 201.124 330.067 201.124L311.886 196.429Z" fill="#FFC232" stroke="black" stroke-width="2.36776" stroke-miterlimit="10" stroke-linecap="round" stroke-linejoin="round"/>
<path d="M308.326 202.763L317.83 205.24" stroke="black" stroke-width="2.36776" stroke-miterlimit="10" stroke-linecap="round" stroke-linejoin="round"/>
<path d="M124.646 109.735L131.934 110.101C133.534 110.204 134.775 111.581 134.688 113.205C134.601 114.778 133.33 115.975 131.829 115.971C131.78 115.971 131.706 115.971 131.657 115.971L99.9931 114.079C99.9931 114.079 100.649 106.236 100.756 104.038C100.863 101.84 101.434 99.1432 105.2 99.2762C108.942 99.4092 118.743 100.155 120.54 100.284C122.362 100.412 125.021 100.543 124.929 104.715C124.809 108.512 124.646 109.735 124.646 109.735Z" fill="#E74626" stroke="black" stroke-width="2.6177" stroke-miterlimit="10" stroke-linecap="round" stroke-linejoin="round"/>
<path d="M105.819 109.046L112.608 109.609" stroke="black" stroke-width="2.6177" stroke-miterlimit="10" stroke-linecap="round" stroke-linejoin="round"/>
<path d="M265.48 168.882L260.671 169.963C259.915 170.134 259.129 169.637 258.952 168.868L254.303 148.478C254.126 147.709 254.609 146.917 255.366 146.745L260.174 145.665C260.931 145.493 261.717 145.99 261.894 146.759L266.543 167.149C266.72 167.943 266.237 168.71 265.48 168.882Z" fill="#D0722B" stroke="black" stroke-width="2.68735" stroke-miterlimit="10" stroke-linecap="round" stroke-linejoin="round"/>
<path d="M265.833 157.802C265.931 160.91 263.545 163.465 260.478 163.532C257.41 163.599 254.863 161.156 254.766 158.049C254.668 154.941 257.054 152.386 260.121 152.319C263.164 152.227 265.711 154.694 265.833 157.802Z" fill="white" stroke="black" stroke-width="2.68735" stroke-miterlimit="10" stroke-linecap="round" stroke-linejoin="round"/>
<path d="M258.897 159.918L260.456 157.851L262.581 159.028" fill="white"/>
<path d="M258.897 159.918L260.456 157.851L262.581 159.028" stroke="black" stroke-width="1.4542" stroke-miterlimit="10" stroke-linecap="round" stroke-linejoin="round"/>
</svg>
