<svg width="616" height="468" viewBox="0 0 616 468" fill="none" xmlns="http://www.w3.org/2000/svg">
<path d="M77.1025 205.046C84.1617 249.855 156.721 284.598 239.168 282.646C252.985 282.319 266.203 280.982 278.601 278.772C290.126 276.718 344.338 295.177 354.27 291.724C365.517 287.813 332.235 261.807 340.955 256.402C365.675 241.078 379.2 220.392 375.669 197.979C368.61 153.17 296.051 118.427 213.604 120.378C131.157 122.33 70.0433 160.237 77.1025 205.046Z" fill="#72A7F7"/>
<path d="M74.1411 191.903C81.2003 236.712 153.759 271.455 236.206 269.503C250.023 269.176 263.241 267.84 275.639 265.63C287.165 263.575 341.376 282.035 351.308 278.581C362.556 274.67 329.274 248.664 337.993 243.259C362.713 227.935 376.239 207.249 372.708 184.836C365.649 140.027 293.09 105.284 210.643 107.236C128.196 109.188 67.0819 147.094 74.1411 191.903Z" fill="white"/>
<path d="M133.606 163.761L138.182 163.761L138.182 164.593L133.606 164.593L133.606 163.761ZM138.982 165.649C138.598 165.969 138.198 166.289 137.83 166.529C137.414 166.273 137.046 165.969 136.742 165.649L138.982 165.649ZM136.646 169.361L136.646 167.457C137.638 168.257 138.854 168.849 140.262 169.185C140.486 168.737 140.95 168.081 141.302 167.761C140.518 167.633 139.766 167.425 139.094 167.169C139.702 166.801 140.374 166.353 141.03 165.905L140.07 165.249L140.07 162.705L131.846 162.705L131.846 165.649L134.294 165.649C133.302 166.433 131.974 167.073 130.662 167.505C130.998 167.841 131.542 168.529 131.75 168.897C132.79 168.465 133.878 167.889 134.838 167.185L134.838 169.361L136.646 169.361ZM130.582 162.209L141.286 162.209L141.286 160.897L130.582 160.897L130.582 162.209ZM138.87 159.345L137.846 159.345L137.846 158.241L138.87 158.241L138.87 159.345ZM136.422 159.345L135.398 159.345L135.398 158.241L136.422 158.241L136.422 159.345ZM133.958 159.345L132.982 159.345L132.982 158.241L133.958 158.241L133.958 159.345ZM140.566 157.169L131.382 157.169L131.382 160.401L140.566 160.401L140.566 157.169ZM130.742 159.697C130.23 158.929 129.126 157.873 128.23 157.153L126.774 158.241C127.67 159.009 128.726 160.113 129.174 160.897L130.742 159.697ZM130.31 162.961L126.71 162.961L126.71 164.705L128.502 164.705L128.502 168.193C127.862 168.737 127.142 169.265 126.518 169.665L127.414 171.553C128.23 170.865 128.886 170.257 129.526 169.633C130.486 170.865 131.766 171.329 133.67 171.409C135.622 171.489 139.014 171.457 140.998 171.361C141.094 170.833 141.366 169.953 141.59 169.505C139.382 169.681 135.606 169.729 133.686 169.649C132.054 169.585 130.934 169.137 130.31 168.065L130.31 162.961Z" fill="#266DD7"/>
<path d="M157.862 159.857C157.766 161.073 157.622 161.649 157.43 161.841C157.27 161.969 157.126 162.001 156.87 162.001C156.55 162.001 155.83 161.985 155.11 161.905C155.43 162.401 155.638 163.121 155.67 163.665C156.518 163.681 157.286 163.681 157.75 163.633C158.294 163.569 158.694 163.441 159.03 163.057C159.462 162.577 159.67 161.425 159.83 158.849C159.862 158.593 159.878 158.145 159.878 158.145L154.662 158.145C154.742 157.761 154.806 157.377 154.87 156.977L152.902 156.753C152.582 159.393 151.75 161.601 150.118 162.881C150.582 163.137 151.43 163.761 151.766 164.081C152.87 163.057 153.686 161.601 154.23 159.857L157.862 159.857ZM150.742 158.465C150.086 157.905 148.758 157.201 147.734 156.817L146.694 158.225C147.718 158.673 149.03 159.441 149.622 160.017L150.742 158.465ZM149.782 162.705C149.126 162.161 147.766 161.489 146.758 161.105L145.766 162.529C146.79 162.977 148.102 163.713 148.726 164.273L149.782 162.705ZM149.19 165.217C148.262 167.057 147.11 169.041 146.294 170.241L147.926 171.489C148.854 169.953 149.814 168.129 150.614 166.449L149.19 165.217ZM157.302 165.857C156.87 166.577 156.326 167.201 155.654 167.729C154.966 167.169 154.374 166.545 153.942 165.857L157.302 165.857ZM158.662 164.097L158.326 164.161L151.222 164.161L151.222 165.857L153.382 165.857L152.15 166.273C152.678 167.201 153.318 168.017 154.07 168.737C152.902 169.329 151.526 169.729 150.038 169.969C150.39 170.385 150.806 171.169 150.982 171.681C152.726 171.313 154.294 170.785 155.654 169.985C156.806 170.737 158.134 171.297 159.654 171.665C159.926 171.137 160.47 170.353 160.902 169.953C159.574 169.697 158.374 169.297 157.318 168.769C158.47 167.713 159.366 166.353 159.926 164.609L158.662 164.097Z" fill="#266DD7"/>
<path d="M170.822 163.681C171.206 164.033 171.638 164.465 171.83 164.705C172.182 164.305 172.502 163.857 172.822 163.361C173.238 164.865 173.766 166.225 174.438 167.409C173.494 168.481 172.31 169.329 170.822 169.969L170.822 163.681ZM177.126 161.409C176.79 163.057 176.31 164.465 175.638 165.681C174.966 164.417 174.486 162.961 174.134 161.409L177.126 161.409ZM179.99 161.409L179.99 159.601L174.534 159.601C174.806 158.801 175.03 157.969 175.222 157.121L173.27 156.753C172.822 159.009 171.99 161.201 170.822 162.721L170.822 156.849L168.966 156.849L168.966 165.793L167.686 166.097L167.686 158.609L165.862 158.609L165.862 166.529C165.494 166.609 165.174 166.673 164.87 166.737L165.526 168.673C166.55 168.369 167.75 167.985 168.966 167.601L168.966 171.681L170.822 171.681L170.822 170.081C171.174 170.529 171.686 171.329 171.83 171.745C173.318 171.025 174.55 170.129 175.542 169.041C176.438 170.145 177.526 171.041 178.854 171.697C179.142 171.185 179.734 170.417 180.166 170.033C178.79 169.441 177.686 168.561 176.79 167.441C177.846 165.793 178.582 163.793 179.078 161.409L179.99 161.409Z" fill="#266DD7"/>
<path d="M189.366 168.865L189.366 167.025L191.974 167.025L191.974 165.329L189.366 165.329L189.366 163.777L187.478 163.777L187.478 165.329L184.822 165.329L184.822 167.025L187.478 167.025L187.478 169.089C186.246 169.233 185.11 169.345 184.182 169.441L184.486 171.329C186.646 171.041 189.702 170.673 192.55 170.273L192.486 168.497L189.366 168.865ZM189.222 160.481C189.51 160.849 189.814 161.265 190.102 161.697C189.254 161.729 188.406 161.761 187.606 161.777C187.942 161.041 188.278 160.225 188.582 159.441L192.47 159.441L192.47 157.761L184.358 157.761L184.358 159.441L186.454 159.441C186.262 160.209 185.99 161.073 185.718 161.825L184.326 161.857L184.438 163.633C186.214 163.553 188.678 163.441 191.046 163.313C191.206 163.617 191.334 163.889 191.43 164.145L192.934 163.281C192.534 162.289 191.51 160.817 190.63 159.745L189.222 160.481ZM194.886 158.689L193.062 158.689L193.062 167.697L194.886 167.697L194.886 158.689ZM196.694 157.201L196.694 169.425C196.694 169.697 196.598 169.777 196.31 169.793C195.99 169.793 195.014 169.793 194.054 169.745C194.326 170.305 194.598 171.153 194.678 171.697C196.038 171.697 197.078 171.633 197.702 171.329C198.342 171.041 198.566 170.497 198.566 169.425L198.566 157.201L196.694 157.201Z" fill="#266DD7"/>
<path d="M205.766 159.217L215.894 159.217L215.894 160.529L217.67 160.529L217.67 157.729L211.798 157.729L211.798 156.753L209.894 156.753L209.894 157.729L204.054 157.729L204.054 160.529L205.766 160.529L205.766 159.217ZM207.446 167.937L214.278 167.937L214.278 168.417L207.446 168.417L207.446 167.937ZM207.446 166.497L214.278 166.497L214.278 166.977L207.446 166.977L207.446 166.497ZM207.446 165.089L214.278 165.089L214.278 165.553L207.446 165.553L207.446 165.089ZM216.214 169.425L216.214 164.097L205.606 164.097L205.606 169.425L207.91 169.425C206.774 169.857 205.078 170.257 203.638 170.465C204.006 170.785 204.518 171.345 204.774 171.697C206.662 171.409 208.886 170.801 210.182 170.065L209.238 169.425L212.358 169.425L211.526 170.113C213.35 170.641 215.206 171.265 216.278 171.697L217.926 170.641C216.934 170.305 215.462 169.841 213.99 169.425L216.214 169.425ZM211.35 162.673L211.414 162.177L213.574 162.177L213.526 162.673L211.35 162.673ZM207.814 162.177L209.83 162.177L209.766 162.673L207.75 162.673L207.814 162.177ZM210.006 160.689L209.958 161.185L207.942 161.185L208.006 160.689L210.006 160.689ZM213.654 161.185L211.526 161.185L211.574 160.689L213.702 160.689L213.654 161.185ZM215.414 161.009L215.542 159.729L206.454 159.729L206.294 161.009L203.782 161.009L203.782 162.353L206.118 162.353L205.958 163.633L215.174 163.633L215.302 162.353L217.958 162.353L217.958 161.009L215.414 161.009Z" fill="#266DD7"/>
<path d="M235.606 159.985L234.902 159.985L234.902 159.297L235.606 159.297L235.606 159.985ZM235.606 161.841L234.902 161.841L234.902 161.137L235.606 161.137L235.606 161.841ZM231.478 161.137L232.166 161.137L232.166 161.841L231.478 161.841L231.478 161.137ZM231.478 159.297L232.166 159.297L232.166 159.985L231.478 159.985L231.478 159.297ZM233.878 161.137L233.878 161.841L233.19 161.841L233.19 161.137L233.878 161.137ZM233.19 159.985L233.19 159.297L233.878 159.297L233.878 159.985L233.19 159.985ZM237.078 158.097L235.222 158.097L235.222 156.769L233.878 156.769L233.878 158.097L233.19 158.097L233.19 156.769L231.862 156.769L231.862 158.097L230.086 158.097L230.086 163.057L237.078 163.057L237.078 158.097ZM228.342 163.729L224.23 163.729L224.23 163.089L228.342 163.089L228.342 163.729ZM225.414 167.697L225.414 166.961L227.126 166.961L227.126 167.697L225.414 167.697ZM227.126 165.713L225.414 165.713L225.414 165.009L227.126 165.009L227.126 165.713ZM225.142 158.593L227.382 158.593L227.382 159.249L225.702 159.249L225.702 161.793L225.142 161.793L225.142 158.593ZM226.71 161.793L226.71 160.321L227.382 160.321L227.382 161.793L226.71 161.793ZM229.75 164.289L229.75 164.865L237.382 164.865L237.382 163.601L229.766 163.601L229.766 161.793L228.806 161.793L228.806 157.249L223.782 157.249L223.782 161.793L222.87 161.793L222.87 164.289L223.814 164.289L223.814 171.697L225.414 171.697L225.414 168.977L227.126 168.977L227.126 170.081C227.126 170.209 227.094 170.257 226.95 170.273C226.806 170.273 226.438 170.273 226.07 170.257C226.246 170.657 226.438 171.265 226.502 171.697C227.254 171.697 227.798 171.681 228.214 171.425C228.646 171.185 228.742 170.785 228.742 170.097L228.742 164.289L229.75 164.289ZM234.694 168.497C234.55 169.009 234.278 169.665 234.054 170.161L232.966 170.161C232.854 169.681 232.566 169.009 232.246 168.497L234.694 168.497ZM231.846 166.497L235.254 166.497L235.254 167.377L231.846 167.377L231.846 166.497ZM235.478 170.161C235.734 169.729 236.022 169.233 236.31 168.721L235.35 168.497L236.854 168.497L236.854 165.377L230.31 165.377L230.31 168.497L231.846 168.497L230.87 168.849C231.11 169.233 231.318 169.729 231.462 170.161L229.414 170.161L229.414 171.505L237.558 171.505L237.558 170.161L235.478 170.161Z" fill="#266DD7"/>
<path d="M256.518 164.273L256.518 162.385L249.926 162.385L249.926 160.529L254.806 160.529L254.806 158.689L249.926 158.689L249.926 156.753L247.894 156.753L247.894 162.385L242.038 162.385L242.038 164.273L247.894 164.273L247.894 171.681L249.926 171.681L249.926 166.833C251.526 167.393 253.51 168.161 254.55 168.721L255.558 166.993C254.326 166.385 251.894 165.569 250.294 165.089L249.926 165.681L249.926 164.273L256.518 164.273Z" fill="#266DD7"/>
<path d="M263.558 172.513C265.542 171.921 266.71 170.449 266.71 168.625C266.71 167.281 266.118 166.433 264.982 166.433C264.134 166.433 263.414 166.977 263.414 167.873C263.414 168.785 264.134 169.297 264.934 169.297C264.998 169.297 265.062 169.297 265.11 169.281C265.014 170.129 264.294 170.817 263.046 171.217L263.558 172.513Z" fill="#266DD7"/>
<path d="M132.87 196.665C131.302 196.665 131.078 196.489 131.078 195.289L131.078 190.489L133.542 189.705L133.542 195.097L135.43 195.097L135.43 189.113L138.294 188.201C138.262 190.121 138.198 191.305 138.038 191.849C137.846 192.409 137.638 192.537 137.302 192.537C137.014 192.537 136.406 192.537 135.958 192.489C136.166 192.921 136.358 193.785 136.39 194.233C136.998 194.265 137.846 194.217 138.406 194.073C138.982 193.913 139.43 193.529 139.718 192.665C140.038 191.753 140.134 189.865 140.182 186.873L140.262 186.521L138.918 185.945L138.55 186.201L138.342 186.345L135.43 187.241L135.43 183.785L133.542 183.785L133.542 187.849L131.078 188.617L131.078 184.873L129.206 184.873L129.206 189.209L126.47 190.073L126.966 191.785L129.206 191.081L129.206 195.289C129.206 197.753 130.038 198.377 132.854 198.377L137.846 198.377C140.438 198.377 141.078 197.529 141.398 194.873C140.886 194.761 140.086 194.441 139.622 194.153C139.398 196.249 139.158 196.665 137.718 196.665L132.87 196.665Z" fill="#266DD7"/>
<path d="M158.55 190.937C160.022 190.937 160.518 190.345 160.726 188.297C160.214 188.185 159.43 187.881 159.046 187.593C158.982 188.985 158.87 189.225 158.358 189.225L156.614 189.225C156.006 189.225 155.91 189.161 155.91 188.585L155.91 187.641C157.302 187.225 158.79 186.713 160.006 186.137L158.79 184.761C158.038 185.177 156.982 185.673 155.91 186.089L155.91 183.801L154.022 183.801L154.022 188.617C154.022 190.377 154.47 190.937 156.342 190.937L158.55 190.937ZM148.486 194.249L148.486 193.305L150.886 193.305L150.886 194.249L148.486 194.249ZM150.886 191.065L150.886 191.897L148.486 191.897L148.486 191.065L150.886 191.065ZM152.758 189.497L146.726 189.497L146.726 198.681L148.486 198.681L148.486 195.657L150.886 195.657L150.886 196.729C150.886 196.921 150.822 196.969 150.63 196.969C150.422 196.985 149.782 197.001 149.222 196.969C149.446 197.417 149.734 198.153 149.83 198.649C150.79 198.649 151.526 198.633 152.07 198.329C152.598 198.057 152.758 197.593 152.758 196.761L152.758 189.497ZM150.358 185.417C150.614 185.833 150.87 186.281 151.11 186.729L148.982 186.825C149.382 185.977 149.814 185.017 150.182 184.089L148.198 183.689C147.926 184.665 147.478 185.897 147.03 186.905C146.582 186.921 146.166 186.937 145.782 186.937L145.942 188.745C147.574 188.649 149.75 188.521 151.862 188.377C151.99 188.681 152.086 188.969 152.15 189.225L153.894 188.521C153.59 187.481 152.742 185.961 151.958 184.825L150.358 185.417ZM156.63 196.921C156.006 196.921 155.894 196.841 155.894 196.281L155.894 195.001C157.35 194.553 158.934 193.977 160.166 193.305L158.902 191.913C158.134 192.425 157.03 192.953 155.894 193.417L155.894 191.257L154.022 191.257L154.022 196.281C154.022 198.041 154.486 198.585 156.358 198.585L158.63 198.585C160.166 198.585 160.646 197.961 160.854 195.705C160.358 195.577 159.59 195.289 159.19 195.001C159.11 196.617 158.998 196.921 158.454 196.921L156.63 196.921Z" fill="#266DD7"/>
<path d="M179.254 186.553L173.414 186.553L173.414 183.769L171.43 183.769L171.43 186.553L165.75 186.553L165.75 188.425L179.254 188.425L179.254 186.553ZM171.126 195.161C170.966 193.465 170.374 190.985 169.622 189.017L167.798 189.497C168.502 191.449 169.062 194.009 169.174 195.673L171.126 195.161ZM175.222 196.169C175.91 194.297 176.662 191.705 177.222 189.353L175.03 188.953C174.694 191.257 173.926 194.233 173.206 196.169L165.238 196.169L165.238 198.073L179.718 198.073L179.718 196.169L175.222 196.169Z" fill="#266DD7"/>
<path d="M184.262 189.817C185.11 190.393 186.15 191.209 186.87 191.881C186.054 192.537 185.19 193.081 184.31 193.513C184.742 193.897 185.27 194.489 185.542 194.905C187.974 193.513 190.246 191.417 191.702 188.889L190.054 188.249C189.574 189.097 188.934 189.929 188.198 190.681C187.926 190.425 187.574 190.137 187.19 189.849C187.878 189.113 188.63 188.185 189.286 187.289L192.614 187.289L192.614 185.577L189.462 185.577L189.462 183.849L187.622 183.849L187.622 185.577L184.406 185.577L184.406 187.289L187.062 187.289C186.71 187.833 186.31 188.425 185.91 188.937C185.702 188.809 185.51 188.665 185.318 188.553L184.262 189.817ZM190.934 191.529C189.494 193.993 186.806 196.009 184.038 197.145C184.502 197.561 184.998 198.201 185.27 198.681C186.63 198.025 187.926 197.209 189.11 196.233C189.99 197.049 190.95 198.009 191.414 198.649L192.918 197.337C192.39 196.665 191.382 195.753 190.454 194.985C191.27 194.153 192.006 193.225 192.598 192.233L190.934 191.529ZM195.046 185.481L193.238 185.481L193.238 194.457L195.046 194.457L195.046 185.481ZM196.582 184.105L196.582 196.441C196.582 196.713 196.486 196.793 196.214 196.809C195.926 196.809 195.046 196.809 194.134 196.761C194.39 197.321 194.678 198.169 194.742 198.713C196.086 198.713 197.03 198.649 197.622 198.329C198.23 198.025 198.438 197.497 198.438 196.457L198.438 184.105L196.582 184.105Z" fill="#266DD7"/>
<path d="M213.622 186.313L212.134 187.321C212.614 187.705 213.126 188.137 213.638 188.585C212.086 188.633 210.518 188.665 209.062 188.681C209.494 187.945 209.942 187.129 210.342 186.313L213.622 186.313ZM204.294 190.665C207.11 190.585 211.382 190.441 215.382 190.249C215.75 190.633 216.07 191.001 216.294 191.321L217.974 190.105C217.078 188.969 215.158 187.385 213.718 186.313L217.814 186.313L217.814 184.553L204.038 184.553L204.038 186.313L207.91 186.313C207.606 187.113 207.206 187.977 206.822 188.713C205.862 188.729 204.982 188.745 204.23 188.745L204.294 190.665ZM211.766 196.361L211.766 194.233L216.614 194.233L216.614 192.489L211.766 192.489L211.766 190.889L209.798 190.889L209.798 192.489L205.11 192.489L205.11 194.233L209.798 194.233L209.798 196.361L203.638 196.361L203.638 198.121L218.102 198.121L218.102 196.361L211.766 196.361Z" fill="#266DD7"/>
<path d="M233.334 193.449L233.334 196.217L226.678 196.217L226.678 193.449L233.334 193.449ZM224.726 198.681L226.678 198.681L226.678 198.041L233.334 198.041L233.334 198.665L235.382 198.665L235.382 191.641L224.726 191.641L224.726 198.681ZM231.686 186.473C232.182 186.905 232.71 187.385 233.222 187.897C231.382 187.977 229.526 188.057 227.798 188.121C228.566 186.953 229.366 185.609 230.038 184.345L227.846 183.641C227.302 185.049 226.39 186.809 225.494 188.201C224.598 188.217 223.766 188.249 223.03 188.265L223.142 190.185C226.118 190.073 230.582 189.897 234.806 189.673C235.238 190.201 235.59 190.697 235.83 191.129L237.478 189.865C236.662 188.489 234.758 186.649 233.174 185.353L231.686 186.473Z" fill="#266DD7"/>
<path d="M252.182 184.025L249.398 184.025L249.398 184.937L252.182 184.937L252.182 184.025ZM245.398 185.561C244.918 185.049 243.878 184.377 243.094 183.945L242.006 185.241C242.806 185.721 243.798 186.457 244.246 186.985L245.398 185.561ZM245.094 189.641C244.566 189.145 243.526 188.521 242.71 188.137L241.67 189.465C242.47 189.897 243.51 190.601 243.974 191.097L245.094 189.641ZM243.718 198.505C244.358 196.953 245.014 195.097 245.526 193.385L244.022 192.425C243.43 194.297 242.614 196.313 242.038 197.561L243.718 198.505ZM251.174 190.825L250.374 190.825L250.374 190.121L251.174 190.121L251.174 190.825ZM246.63 191.817L247.83 191.817L247.83 188.633L248.326 188.585C248.358 188.745 248.374 188.889 248.39 189.017L249.254 188.697C249.19 188.201 248.966 187.433 248.694 186.857L247.894 187.145C247.942 187.273 247.99 187.417 248.038 187.561L247.35 187.577C247.846 187.017 248.358 186.361 248.822 185.753L248.822 186.329L252.646 186.329L252.646 186.153C253.014 186.473 253.366 186.857 253.606 187.177C253.462 187.337 253.318 187.513 253.19 187.657L252.438 187.673L252.55 188.825L253.926 188.745L253.926 189.337L252.886 189.097C252.758 189.689 252.582 190.329 252.326 190.857L252.326 189.273L249.27 189.273L249.27 191.673L252.326 191.673L252.326 191.145C252.614 191.273 252.998 191.481 253.19 191.625C253.462 191.113 253.75 190.345 253.926 189.625L253.926 191.817L255.142 191.817L255.142 188.681L255.766 188.633C255.798 188.777 255.83 188.905 255.846 189.017L256.806 188.601C256.694 188.073 256.39 187.289 256.07 186.713L255.158 187.081C255.238 187.241 255.318 187.417 255.398 187.593L254.518 187.609C255.094 186.985 255.702 186.249 256.23 185.593L255.174 185.001C254.966 185.369 254.678 185.785 254.358 186.217C254.262 186.105 254.15 185.977 254.022 185.865C254.358 185.401 254.726 184.809 255.094 184.265L254.006 183.737C253.83 184.137 253.542 184.713 253.27 185.209L253.062 185.049L252.646 185.609L252.646 185.337L248.822 185.337L248.822 185.609L247.862 185.065C247.686 185.385 247.446 185.737 247.19 186.121C247.094 186.009 246.966 185.913 246.854 185.801C247.158 185.337 247.51 184.777 247.846 184.233L246.774 183.689C246.598 184.121 246.326 184.697 246.054 185.177C245.974 185.129 245.878 185.065 245.798 185.017L245.206 185.945C245.638 186.265 246.118 186.697 246.47 187.081C246.326 187.273 246.166 187.465 246.022 187.641L245.046 187.673L245.174 188.825C245.622 188.793 246.118 188.761 246.63 188.713L246.63 189.337L245.574 189.097C245.43 189.817 245.206 190.585 244.838 191.161C245.126 191.273 245.606 191.513 245.846 191.657C246.15 191.129 246.438 190.345 246.63 189.625L246.63 191.817ZM255.19 189.385C255.462 190.041 255.75 190.889 255.846 191.449L256.854 191.113C256.726 190.569 256.422 189.737 256.15 189.097L255.19 189.385ZM249.286 188.841L252.326 188.841L252.326 187.977L249.286 187.977L249.286 188.841ZM252.326 186.745L249.286 186.745L249.286 187.609L252.326 187.609L252.326 186.745ZM249.222 190.841C249.142 190.393 248.966 189.689 248.79 189.161L247.878 189.369C248.038 189.929 248.198 190.649 248.262 191.113L249.222 190.841ZM248.102 195.241L248.23 194.745L255.318 194.745L255.318 192.089L246.246 192.089L246.246 193.161L253.558 193.161L253.558 193.657L246.726 193.657C246.534 194.649 246.23 195.833 245.942 196.649L247.654 196.873C247.702 196.729 247.75 196.569 247.798 196.409L254.102 196.409C253.958 196.857 253.814 197.113 253.638 197.241C253.478 197.353 253.286 197.369 252.966 197.369C252.566 197.369 251.51 197.353 250.55 197.257C250.822 197.657 251.03 198.233 251.062 198.649C252.054 198.681 253.03 198.697 253.542 198.681C254.182 198.649 254.63 198.569 255.03 198.265C255.462 197.913 255.75 197.209 256.006 195.929C256.07 195.705 256.102 195.241 256.102 195.241L248.102 195.241Z" fill="#266DD7"/>
<path d="M275.558 190.009L275.558 188.041L269.27 188.041C269.43 186.553 269.446 185.081 269.462 183.769L267.382 183.769C267.366 185.081 267.382 186.537 267.222 188.041L261.398 188.041L261.398 190.009L266.902 190.009C266.278 192.761 264.758 195.417 261.094 197.049C261.654 197.449 262.214 198.137 262.518 198.665C265.91 197.033 267.638 194.537 268.502 191.865C269.75 194.953 271.606 197.289 274.502 198.649C274.806 198.105 275.43 197.257 275.91 196.857C272.918 195.641 270.982 193.129 269.926 190.009L275.558 190.009Z" fill="#266DD7"/>
<path d="M283.83 192.457L283.83 191.481L286.614 191.481L286.614 192.457L283.83 192.457ZM283.83 189.081L286.614 189.081L286.614 190.057L283.83 190.057L283.83 189.081ZM291.366 189.081L291.366 190.057L288.566 190.057L288.566 189.081L291.366 189.081ZM291.366 192.457L288.566 192.457L288.566 191.481L291.366 191.481L291.366 192.457ZM294.95 194.841L288.566 194.841L288.566 193.977L293.286 193.977L293.286 187.561L288.566 187.561L288.566 186.793L294.486 186.793L294.486 185.065L288.566 185.065L288.566 183.769L286.614 183.769L286.614 185.065L280.806 185.065L280.806 186.793L286.614 186.793L286.614 187.561L282.006 187.561L282.006 193.977L286.614 193.977L286.614 194.841L280.422 194.841L280.422 196.553L286.614 196.553L286.614 198.713L288.566 198.713L288.566 196.553L294.95 196.553L294.95 194.841Z" fill="#266DD7"/>
<path d="M308.454 189.193C308.822 188.889 309.158 188.569 309.478 188.233C309.718 189.609 310.006 190.921 310.39 192.105C309.99 191.065 309.366 190.057 308.454 189.193ZM313.206 188.697C312.774 189.209 312.134 189.833 311.542 190.361C311.318 189.577 311.126 188.761 310.966 187.913L314.134 187.913L314.134 186.265L312.102 186.265C312.422 185.705 312.774 185.001 313.142 184.297L311.334 183.769C311.11 184.505 310.694 185.481 310.342 186.137L310.742 186.265L308.07 186.265L308.438 186.121C308.262 185.481 307.83 184.537 307.366 183.849L305.83 184.377C306.166 184.937 306.486 185.657 306.694 186.265L304.838 186.265L304.838 187.913L307.606 187.913C306.646 188.745 305.414 189.481 304.214 189.977C304.534 190.281 305.094 190.969 305.318 191.321C305.926 191.001 306.582 190.601 307.206 190.169C307.382 190.345 307.542 190.537 307.686 190.745C306.934 191.433 305.798 192.169 304.806 192.649C304.806 191.721 304.598 190.649 303.638 189.433C304.086 188.185 304.614 186.441 305.03 185.081L303.782 184.361L303.51 184.441L300.038 184.441L300.038 198.697L301.686 198.697L301.686 186.137L302.934 186.137C302.678 187.225 302.342 188.617 302.022 189.625C302.918 190.697 303.126 191.689 303.126 192.425C303.126 192.873 303.062 193.193 302.886 193.321C302.758 193.417 302.614 193.449 302.438 193.465C302.23 193.465 302.022 193.465 301.734 193.449C301.99 193.897 302.134 194.617 302.15 195.065C302.518 195.081 302.902 195.065 303.174 195.033C303.542 194.969 303.846 194.873 304.102 194.697C304.486 194.425 304.694 193.945 304.774 193.273C305.014 193.561 305.238 193.881 305.398 194.153C306.342 193.625 307.526 192.777 308.438 191.961C308.55 192.201 308.646 192.441 308.726 192.681C307.558 194.057 305.494 195.481 303.702 196.153C304.102 196.473 304.566 197.049 304.838 197.465C306.246 196.793 307.846 195.657 309.078 194.489C309.126 195.465 308.934 196.249 308.646 196.569C308.454 196.921 308.198 196.985 307.862 196.985C307.51 196.985 307.11 196.953 306.598 196.905C306.934 197.433 307.062 198.153 307.078 198.649C307.494 198.681 307.862 198.697 308.198 198.681C308.982 198.665 309.494 198.505 309.99 197.961C310.87 197.161 311.238 194.937 310.582 192.697C311.238 194.521 312.102 196.057 313.286 197.145C313.59 196.681 314.15 196.025 314.582 195.705C313.494 194.825 312.678 193.465 312.054 191.865C312.79 191.337 313.67 190.617 314.422 189.961L313.206 188.697Z" fill="#266DD7"/>
<path d="M326.758 197.305C326.64 196.921 326.507 196.527 326.358 196.121C326.219 195.716 326.08 195.311 325.942 194.905L321.622 194.905C321.483 195.311 321.339 195.716 321.19 196.121C321.051 196.527 320.923 196.921 320.806 197.305L318.214 197.305C318.63 196.111 319.024 195.007 319.398 193.993C319.771 192.98 320.134 192.025 320.486 191.129C320.848 190.233 321.2 189.385 321.542 188.585C321.894 187.775 322.256 186.985 322.63 186.217L325.014 186.217C325.376 186.985 325.734 187.775 326.086 188.585C326.438 189.385 326.79 190.233 327.142 191.129C327.504 192.025 327.872 192.98 328.246 193.993C328.619 195.007 329.014 196.111 329.43 197.305L326.758 197.305ZM323.766 188.729C323.712 188.889 323.632 189.108 323.526 189.385C323.419 189.663 323.296 189.983 323.158 190.345C323.019 190.708 322.864 191.108 322.694 191.545C322.534 191.983 322.368 192.441 322.198 192.921L325.35 192.921C325.179 192.441 325.014 191.983 324.854 191.545C324.694 191.108 324.539 190.708 324.39 190.345C324.251 189.983 324.128 189.663 324.022 189.385C323.915 189.108 323.83 188.889 323.766 188.729Z" fill="#266DD7"/>
<path d="M337.393 186.089C339.046 186.089 340.316 186.383 341.201 186.969C342.086 187.545 342.529 188.495 342.529 189.817C342.529 191.151 342.081 192.116 341.185 192.713C340.289 193.3 339.009 193.593 337.345 193.593L336.561 193.593L336.561 197.305L334.065 197.305L334.065 186.377C334.609 186.271 335.185 186.196 335.793 186.153C336.401 186.111 336.934 186.089 337.393 186.089ZM337.553 188.217C337.372 188.217 337.19 188.223 337.009 188.233C336.838 188.244 336.689 188.255 336.561 188.265L336.561 191.465L337.345 191.465C338.209 191.465 338.86 191.348 339.297 191.113C339.734 190.879 339.953 190.441 339.953 189.801C339.953 189.492 339.894 189.236 339.777 189.033C339.67 188.831 339.51 188.671 339.297 188.553C339.094 188.425 338.844 188.34 338.545 188.297C338.246 188.244 337.916 188.217 337.553 188.217Z" fill="#266DD7"/>
<path d="M350.89 186.089C352.543 186.089 353.813 186.383 354.698 186.969C355.583 187.545 356.026 188.495 356.026 189.817C356.026 191.151 355.578 192.116 354.682 192.713C353.786 193.3 352.506 193.593 350.842 193.593L350.058 193.593L350.058 197.305L347.562 197.305L347.562 186.377C348.106 186.271 348.682 186.196 349.29 186.153C349.898 186.111 350.431 186.089 350.89 186.089ZM351.05 188.217C350.869 188.217 350.687 188.223 350.506 188.233C350.335 188.244 350.186 188.255 350.058 188.265L350.058 191.465L350.842 191.465C351.706 191.465 352.357 191.348 352.794 191.113C353.231 190.879 353.45 190.441 353.45 189.801C353.45 189.492 353.391 189.236 353.274 189.033C353.167 188.831 353.007 188.671 352.794 188.553C352.591 188.425 352.341 188.34 352.042 188.297C351.743 188.244 351.413 188.217 351.05 188.217Z" fill="#266DD7"/>
<path d="M139.478 211.121C139.158 212.081 138.55 213.361 138.07 214.177L139.718 214.785C140.214 214.033 140.822 212.897 141.334 211.777L139.478 211.121ZM128.662 225.617C129.526 224.001 130.406 222.161 131.142 220.449L129.734 219.297C128.87 221.169 127.782 223.185 126.982 224.401L128.662 225.617ZM130.55 216.929C129.91 216.337 128.614 215.569 127.622 215.105L126.55 216.449C127.558 216.977 128.822 217.809 129.414 218.417L130.55 216.929ZM127.286 212.225C128.262 212.753 129.51 213.585 130.07 214.193L131.254 212.721C130.63 212.113 129.382 211.345 128.39 210.897L127.286 212.225ZM134.726 214.113C134.486 213.281 133.798 212.113 133.158 211.233L131.558 211.937C132.182 212.865 132.806 214.113 132.998 214.897L134.726 214.113ZM133.926 220.945L133.926 219.745L138.774 219.745L138.774 220.945L133.926 220.945ZM138.774 216.977L138.774 218.145L133.926 218.145L133.926 216.977L138.774 216.977ZM140.63 215.201L137.366 215.201L137.366 210.753L135.446 210.753L135.446 215.201L132.054 215.201L132.054 225.665L133.926 225.665L133.926 222.545L138.774 222.545L138.774 223.601C138.774 223.809 138.694 223.889 138.454 223.905C138.198 223.905 137.366 223.905 136.63 223.857C136.886 224.353 137.142 225.137 137.206 225.649C138.406 225.649 139.27 225.633 139.862 225.329C140.47 225.041 140.63 224.545 140.63 223.617L140.63 215.201Z" fill="#266DD7"/>
<path d="M149.894 221.521L156.774 221.521L156.774 222.177L149.894 222.177L149.894 221.521ZM154.118 216.065L154.118 217.121L151.206 217.121C151.558 216.801 151.814 216.449 151.99 216.065L154.118 216.065ZM148.966 214.321L150.598 214.321C150.598 214.545 150.566 214.753 150.502 214.945L148.758 214.945L148.966 214.321ZM152.342 212.577L154.118 212.577L154.118 213.217L152.342 213.217L152.342 212.577ZM157.59 212.577L157.59 213.217L155.926 213.217L155.926 212.577L157.59 212.577ZM154.118 214.945L152.294 214.945C152.31 214.737 152.326 214.529 152.342 214.321L154.118 214.321L154.118 214.945ZM158.486 216.065C158.454 216.305 158.406 216.449 158.342 216.529C158.246 216.641 158.15 216.641 158.006 216.641C157.83 216.657 157.494 216.641 157.126 216.593C157.19 216.737 157.27 216.929 157.318 217.121L155.926 217.121L155.926 216.065L158.486 216.065ZM156.774 218.833L149.894 218.833L149.894 218.209L156.774 218.209L156.774 218.833ZM156.774 220.497L149.894 220.497L149.894 219.857L156.774 219.857L156.774 220.497ZM158.71 223.265L158.71 217.745C158.806 217.745 158.886 217.729 158.95 217.729C159.286 217.713 159.638 217.585 159.878 217.345C160.15 217.057 160.246 216.481 160.326 215.441C160.342 215.265 160.358 214.945 160.358 214.945L155.926 214.945L155.926 214.321L159.318 214.321L159.318 211.457L155.926 211.457L155.926 210.769L154.118 210.769L154.118 211.457L152.342 211.457L152.342 210.769L150.614 210.769L150.614 211.457L146.982 211.457L146.982 212.577L150.614 212.577L150.614 213.217L147.574 213.217C147.302 214.161 146.918 215.313 146.566 216.097L148.294 216.209L148.342 216.065L149.75 216.065C149.094 216.593 147.942 216.993 145.958 217.249C146.246 217.601 146.694 218.321 146.854 218.721C147.286 218.657 147.67 218.593 148.038 218.513L148.038 223.265L150.214 223.265C149.094 223.729 147.462 224.129 145.974 224.385C146.374 224.705 147.046 225.377 147.35 225.745C148.982 225.345 151.014 224.625 152.342 223.841L151.078 223.265L155.35 223.265L154.134 224.017C155.798 224.561 157.462 225.233 158.406 225.713L160.518 224.801C159.51 224.369 157.83 223.761 156.294 223.265L158.71 223.265Z" fill="#266DD7"/>
<path d="M168.902 214.321L167.318 214.321L167.318 212.849L168.902 212.849L168.902 214.321ZM168.902 217.233L167.318 217.233L167.318 215.745L168.902 215.745L168.902 217.233ZM168.902 220.145L167.318 220.145L167.318 218.641L168.902 218.641L168.902 220.145ZM170.566 211.345L165.702 211.345L165.702 221.665L170.566 221.665L170.566 211.345ZM166.47 221.777C166.15 222.897 165.542 224.049 164.822 224.801C165.222 225.009 165.91 225.457 166.23 225.729C166.982 224.865 167.718 223.489 168.134 222.145L166.47 221.777ZM174.246 219.745L174.246 218.929L175.126 218.929L175.126 219.745L174.246 219.745ZM174.246 216.913L175.126 216.913L175.126 217.665L174.246 217.665L174.246 216.913ZM174.246 214.913L175.126 214.913L175.126 215.537L174.246 215.537L174.246 214.913ZM177.638 216.913L177.638 217.665L176.726 217.665L176.726 216.913L177.638 216.913ZM176.726 219.745L176.726 218.929L177.638 218.929L177.638 219.745L176.726 219.745ZM179.19 221.089L179.19 219.009L179.974 219.009L179.974 217.537L179.19 217.537L179.19 215.537L176.726 215.537L176.726 214.913L179.622 214.913L179.622 213.473L176.726 213.473L176.726 212.961C177.654 212.593 178.566 212.161 179.302 211.681L177.798 210.769C177.158 211.313 175.99 211.921 174.87 212.337C174.95 212.449 175.046 212.609 175.126 212.769L175.126 213.473L174.246 213.473L174.246 212.273C174.71 212.097 175.158 211.921 175.542 211.713L174.166 210.769C173.446 211.233 172.102 211.697 170.902 212.017C171.078 212.305 171.302 212.785 171.382 213.073C171.798 212.993 172.246 212.881 172.678 212.769L172.678 213.473L170.982 213.473L170.982 214.913L172.678 214.913L172.678 215.537L171.35 215.537L171.35 216.913L172.678 216.913L172.678 217.665L170.806 217.665L170.806 218.929L172.678 218.929L172.678 219.745L171.286 219.745L171.286 221.089L172.358 221.089C171.91 221.969 171.302 222.785 170.614 223.409C170.374 222.865 170.054 222.225 169.75 221.729L168.342 222.337C168.726 223.073 169.19 224.065 169.398 224.705L170.182 224.321C170.454 224.609 170.742 224.961 170.918 225.217C171.574 224.721 172.166 224.017 172.678 223.185L172.678 225.697L174.246 225.697L174.246 221.089L175.126 221.089L175.126 225.697L176.726 225.697L176.726 222.577C177.382 223.569 178.166 224.481 178.918 225.089C179.19 224.689 179.718 224.097 180.086 223.809C179.142 223.201 178.134 222.161 177.398 221.089L179.19 221.089Z" fill="#266DD7"/>
<path d="M192.95 219.553L190.134 219.553L190.134 216.785L192.95 216.785L192.95 219.553ZM188.342 215.121L188.342 221.201L194.87 221.201L194.87 215.121L188.342 215.121ZM186.806 223.057L186.806 213.233L196.422 213.233L196.422 223.057L186.806 223.057ZM184.822 211.281L184.822 225.681L186.806 225.681L186.806 224.833L196.422 224.833L196.422 225.681L198.502 225.681L198.502 211.281L184.822 211.281Z" fill="#266DD7"/>
<path d="M211.942 213.553L211.942 212.849L213.126 212.849L213.126 213.553L211.942 213.553ZM216.102 212.849L216.102 213.553L214.822 213.553L214.822 212.849L216.102 212.849ZM213.126 215.217L209.702 215.217L209.702 216.481L218.31 216.481L218.31 215.217L214.822 215.217L214.822 214.641L217.75 214.641L217.75 211.761L214.822 211.761L214.822 210.753L213.126 210.753L213.126 211.761L210.374 211.761L210.374 214.641L213.126 214.641L213.126 215.217ZM212.134 221.361L215.862 221.361L215.862 221.985L212.134 221.985L212.134 221.361ZM212.134 219.729L215.862 219.729L215.862 220.337L212.134 220.337L212.134 219.729ZM212.134 218.097L215.862 218.097L215.862 218.689L212.134 218.689L212.134 218.097ZM207.814 216.673L207.814 217.281L205.814 217.281L205.814 216.673L207.814 216.673ZM205.814 219.025L205.814 218.401L207.814 218.401L207.814 219.025L205.814 219.025ZM206.038 213.569C206.374 213.089 206.678 212.625 206.918 212.193C207.318 212.593 207.734 213.089 208.102 213.569L206.038 213.569ZM217.638 223.073L217.638 217.025L210.438 217.025L210.438 223.073L211.846 223.073C211.286 223.553 210.39 224.001 209.478 224.337L209.478 222.913L205.814 222.913L205.814 222.241L209.318 222.241L209.318 220.865L205.814 220.865L205.814 220.241L209.35 220.241L209.35 215.473L204.374 215.473C204.806 215.073 205.19 214.641 205.526 214.225L205.526 214.849L208.454 214.849L208.454 214.049C208.662 214.353 208.854 214.641 208.998 214.881L210.134 213.617C209.622 212.769 208.486 211.601 207.574 210.769L205.798 210.769C205.302 211.921 204.406 213.361 203.11 214.449C203.478 214.657 203.99 215.153 204.262 215.505L204.262 225.649L205.814 225.649L205.814 224.337L209.478 224.337C209.318 224.401 209.158 224.449 208.998 224.497C209.382 224.817 210.006 225.489 210.246 225.809C211.446 225.313 212.806 224.449 213.622 223.537L212.23 223.073L215.35 223.073L214.438 223.777C215.382 224.385 216.486 225.233 217.094 225.809L218.582 224.929C217.942 224.401 216.854 223.665 215.878 223.073L217.638 223.073Z" fill="#266DD7"/>
<path d="M229.238 220.193L230.87 220.193L231.302 214.721L231.382 212.337L228.726 212.337L228.806 214.721L229.238 220.193ZM230.054 224.449C230.854 224.449 231.462 223.873 231.462 223.041C231.462 222.193 230.854 221.617 230.054 221.617C229.254 221.617 228.646 222.193 228.646 223.041C228.646 223.873 229.238 224.449 230.054 224.449Z" fill="#266DD7"/>
<path fill-rule="evenodd" clip-rule="evenodd" d="M519.426 442.233C528.962 439.439 542.282 437.704 557.021 437.704C586.016 437.704 609.521 444.419 609.521 452.704C609.521 460.988 586.016 467.704 557.021 467.704C537.792 467.704 520.978 464.75 511.832 460.344C502.31 462.11 490.191 463.167 476.995 463.167C446.357 463.167 421.521 457.467 421.521 450.435C421.521 443.404 446.357 437.704 476.995 437.704C494.018 437.704 509.25 439.463 519.426 442.233Z" fill="#7CA8EC"/>
<path d="M592.362 341.664C592.362 341.664 600.504 341.84 602.775 334.111L609.889 345.227C609.889 345.227 607.206 354.888 598.794 356.703L592.362 341.664Z" fill="#F04928"/>
<path d="M482.123 422.227L484.169 442.968C484.407 445.482 482.689 449.038 478.43 449.191C474.739 449.32 472.021 451.246 469.579 451.333C466.144 451.449 461.649 449.537 461.145 444.395C460.64 439.28 464.175 435.574 467.61 435.459C468.803 435.413 468.803 435.413 468.803 435.413L467.557 422.755L482.123 422.227Z" fill="white"/>
<path d="M467.707 422.839L482.286 422.311L480.281 401.047L465.703 401.576L467.707 422.839Z" fill="#FFC232"/>
<path d="M468.044 428.414L482.739 427.731L482.542 425.047L467.847 425.731L468.044 428.414Z" fill="#EF442A"/>
<path d="M468.525 432.326L483.219 431.645L483.022 428.961L468.328 429.642L468.525 432.326Z" fill="#EF442A"/>
<path d="M468.833 435.578L467.559 422.743L482.123 422.216L484.169 442.965C484.287 444.153 484.242 446.905 481.833 447.95C479.423 448.994 472.958 451.075 471.17 451.396C469.411 451.691 464.104 452.375 461.978 446.52C460.083 441.297 463.023 438.146 465.148 437.141C467.018 436.235 468.833 435.578 468.833 435.578Z" stroke="black" stroke-width="3.12045" stroke-miterlimit="10" stroke-linecap="round" stroke-linejoin="round"/>
<path d="M467.707 422.839L482.286 422.311L480.281 401.047L465.703 401.576L467.707 422.839Z" stroke="black" stroke-width="3.12045" stroke-miterlimit="10" stroke-linecap="round" stroke-linejoin="round"/>
<path d="M466.862 407.635C466.862 407.635 475.496 406.839 480.442 410.28L479.982 402.455L471.243 405.435L466.705 404.137L466.862 407.635Z" fill="black"/>
<path d="M387.066 343.478L438.466 358.46L434.542 343.748L390.141 330.657L382.571 328.642L380.535 332.322L387.427 335.603L387.066 343.478Z" fill="#FFC232"/>
<path d="M394.796 345.037L434.049 357.329" stroke="black" stroke-width="3.12045" stroke-miterlimit="10" stroke-linecap="round" stroke-linejoin="round"/>
<path d="M463.225 352.127L403.19 334.154C397.267 332.308 387.108 329.248 384.848 328.697C382.588 328.146 381.161 328.651 380.681 330.243C380.088 332.124 381.407 333.448 383.64 334.173C385.7 334.837 387.704 335.559 387.704 335.559C387.704 335.559 383.991 344.141 390.97 345.274C393.172 345.795 395.97 344.755 395.641 341.032" stroke="black" stroke-width="3.12045" stroke-miterlimit="10" stroke-linecap="round" stroke-linejoin="round"/>
<path d="M396.528 341.303L393.02 340.329C391.822 339.966 391.103 338.685 391.438 337.477L391.438 337.42C391.773 336.211 393.022 335.507 394.22 335.871L397.729 336.844" stroke="black" stroke-width="3.12045" stroke-miterlimit="10" stroke-linecap="round" stroke-linejoin="round"/>
<path d="M494.65 422.631L496.701 443.685C496.94 446.238 495.223 449.904 490.963 450.175C487.272 450.407 484.554 452.441 482.112 452.596C478.676 452.807 474.18 450.984 473.674 445.764C473.169 440.572 476.703 436.703 480.139 436.493C481.331 436.414 481.331 436.414 481.331 436.414L480.083 423.564L494.65 422.631Z" fill="white"/>
<path d="M480.203 423.746L494.795 422.8L492.797 401.963L478.205 402.909L480.203 423.746Z" fill="#FFC232"/>
<path d="M480.681 429.276L495.384 428.188L495.192 425.912L480.489 427L480.681 429.276Z" fill="#EF442A"/>
<path d="M481.049 433.222L495.752 432.135L495.56 429.859L480.857 430.947L481.049 433.222Z" fill="#EF442A"/>
<path d="M481.362 436.554L480.084 423.53L494.65 422.597L496.701 443.652C496.82 444.857 496.775 447.659 494.366 448.787C491.957 449.916 485.491 452.209 483.703 452.584C481.944 452.931 476.636 453.772 474.509 447.873C472.612 442.639 475.551 439.324 477.677 438.244C479.576 437.3 481.362 436.554 481.362 436.554Z" stroke="black" stroke-width="3.12045" stroke-miterlimit="10" stroke-linecap="round" stroke-linejoin="round"/>
<path d="M480.203 423.746L494.795 422.8L492.797 401.963L478.205 402.909L480.203 423.746Z" stroke="black" stroke-width="3.12045" stroke-miterlimit="10" stroke-linecap="round" stroke-linejoin="round"/>
<path d="M534.038 347.954C534.213 380.467 508.391 406.493 476.342 406.042C444.321 405.591 418.215 378.863 418.04 346.321C417.865 313.808 443.686 287.782 475.707 288.233C507.757 288.713 533.863 315.441 534.038 347.954Z" fill="#FFC232"/>
<path d="M441.857 333.13C440.89 333.116 440.098 333.913 440.103 334.895C440.109 335.906 440.909 336.696 441.876 336.71C442.843 336.724 443.635 335.926 443.63 334.945C443.625 333.963 442.824 333.143 441.857 333.13Z" fill="black"/>
<path d="M461.674 333.13C460.678 333.116 459.914 333.913 459.92 334.895C459.925 335.906 460.726 336.696 461.693 336.71C462.66 336.724 463.452 335.926 463.447 334.945C463.442 333.963 462.641 333.143 461.674 333.13Z" fill="black"/>
<path d="M451.138 343.851C452.105 343.864 452.897 343.067 452.891 342.057C452.886 341.075 452.086 340.256 451.119 340.242C450.152 340.228 449.36 341.026 449.365 342.007C449.37 343.018 450.171 343.837 451.138 343.851Z" fill="black"/>
<path d="M534.038 347.954C534.213 380.467 508.391 406.493 476.342 406.042C444.321 405.591 418.215 378.863 418.04 346.321C417.865 313.808 443.686 287.782 475.707 288.233C507.757 288.713 533.863 315.441 534.038 347.954Z" stroke="black" stroke-width="3.12045" stroke-miterlimit="10" stroke-linecap="round" stroke-linejoin="round"/>
<path d="M450.587 371.474L446.375 360.015C445.339 357.605 443.663 357.754 441.616 357.725C439.569 357.697 434.31 357.623 431.95 357.589C429.477 357.555 427.837 359.234 428.735 362.335C429.459 364.856 434.796 379.304 435.661 381.568C436.526 383.802 438.551 385.043 440.427 385.069C442.303 385.096 446.169 385.15 446.169 385.15C447.619 385.171 448.671 385.185 450.235 385.207C451.827 385.23 454.238 384.282 453.48 380.837" fill="#EF442A"/>
<path d="M450.587 371.474L446.375 360.015C445.339 357.605 443.663 357.754 441.616 357.725C439.569 357.697 434.31 357.623 431.95 357.589C429.477 357.555 427.837 359.234 428.735 362.335C429.459 364.856 434.796 379.304 435.661 381.568C436.526 383.802 438.551 385.043 440.427 385.069C442.303 385.096 446.169 385.15 446.169 385.15C447.619 385.171 448.671 385.185 450.235 385.207C451.827 385.23 454.238 384.282 453.48 380.837" stroke="black" stroke-width="2.74935" stroke-miterlimit="10" stroke-linecap="round" stroke-linejoin="round"/>
<path d="M442.928 361.926L443.73 364.382" stroke="black" stroke-width="3.12045" stroke-miterlimit="10" stroke-linecap="round" stroke-linejoin="round"/>
<path d="M483.564 363.364L456.064 366.992L452.313 363.632C451.426 362.843 450.084 362.89 449.317 363.745C448.549 364.6 448.64 365.931 449.527 366.72L450.587 367.684L445.622 367.91C444.395 367.988 443.485 369.065 443.604 370.285C443.722 371.504 444.839 372.441 446.066 372.363C444.839 372.441 443.929 373.518 444.048 374.737C444.166 375.957 445.283 376.894 446.51 376.816C445.283 376.894 444.373 377.971 444.492 379.19C444.611 380.41 445.727 381.347 446.954 381.269L453.346 380.942L454.858 380.844C457.997 380.679 478.226 378.851 486.866 376.581L483.564 363.364Z" fill="#FFC232"/>
<path d="M504.169 357.931C504.169 357.931 501.262 359.655 497.214 361.572C479.11 370.175 456.286 366.801 456.286 366.801L452.391 363.307C451.504 362.521 450.162 362.568 449.394 363.421C448.625 364.274 448.715 365.602 449.603 366.388L450.663 367.348L445.695 367.576C444.468 367.654 443.558 368.729 443.676 369.945C443.794 371.161 444.91 372.095 446.138 372.016L449.364 371.909L446.138 372.016C444.91 372.095 444 373.169 444.118 374.385C444.236 375.601 445.353 376.535 446.581 376.457C445.353 376.535 444.443 377.61 444.561 378.826C444.679 380.042 445.796 380.975 447.023 380.897L453.818 380.551L454.931 380.47C462.185 380.955 485.657 381.499 499.171 375.306C505.101 372.595 509.063 370.45 509.063 370.45" stroke="black" stroke-width="3.12045" stroke-miterlimit="10" stroke-linecap="round" stroke-linejoin="round"/>
<path d="M449.47 377.282L446.433 377.387" stroke="black" stroke-width="3.12045" stroke-miterlimit="10" stroke-linecap="round" stroke-linejoin="round"/>
<path d="M479.425 408.661C479.425 408.661 488.06 407.708 493.01 411.135L492.541 403.167L483.804 406.347L479.246 406.95L479.425 408.661Z" fill="black"/>
<path d="M449.173 351.613C449.183 353.428 450.012 354.909 451.06 354.924C452.08 354.938 452.923 353.48 452.914 351.665C452.905 349.85 452.076 348.369 451.027 348.355C449.979 348.34 449.164 349.798 449.173 351.613Z" fill="black"/>
<path d="M552.876 419.147L553.039 446.064C553.06 449.01 555.444 453.091 560.325 453.11C564.553 453.127 567.844 453.14 570.625 453.151C574.541 453.166 580.368 450.706 580.325 444.698C580.283 438.691 574.934 436.677 571.018 436.662C569.656 436.656 569.656 436.656 569.656 436.656L569.532 419.212L552.876 419.147Z" fill="white"/>
<path d="M569.475 387.153L552.866 387.091L553.088 419.397L569.697 419.458L569.475 387.153Z" fill="#F04928"/>
<path d="M569.694 423.941L552.86 423.907L552.872 426.253L569.706 426.287L569.694 423.941Z" fill="#005E9F"/>
<path d="M569.694 428.472L552.86 428.438L552.872 430.783L569.706 430.818L569.694 428.472Z" fill="#005E9F"/>
<path d="M552.876 419.147L553.039 446.064C553.06 449.01 555.444 453.091 560.325 453.11C564.553 453.127 567.844 453.14 570.625 453.151C574.541 453.166 580.368 450.706 580.325 444.698C580.283 438.691 574.934 436.677 571.018 436.662C569.656 436.656 569.656 436.656 569.656 436.656L569.532 419.212L552.876 419.147Z" stroke="black" stroke-width="3.03958" stroke-miterlimit="10" stroke-linecap="round" stroke-linejoin="round"/>
<path d="M569.475 387.153L552.866 387.091L553.088 419.397L569.697 419.458L569.475 387.153Z" stroke="black" stroke-width="3.03958" stroke-miterlimit="10" stroke-linecap="round" stroke-linejoin="round"/>
<path d="M552.556 419.254L552.776 446.171C552.797 449.117 550.471 453.18 545.59 453.161C541.362 453.144 538.071 453.131 535.29 453.12C531.374 453.105 525.511 450.598 525.469 444.591C525.426 438.584 530.746 436.612 534.662 436.627C536.024 436.633 536.024 436.633 536.024 436.633L535.9 419.188L552.556 419.254Z" fill="white"/>
<path d="M536.222 419.363L552.831 419.424L552.609 387.119L536 387.057L536.222 419.363Z" fill="#F04928"/>
<path d="M536.003 426.259L552.837 426.294L552.825 423.948L535.991 423.913L536.003 426.259Z" fill="#005E9F"/>
<path d="M536.003 430.749L552.837 430.784L552.825 428.438L535.991 428.403L536.003 430.749Z" fill="#005E9F"/>
<path d="M552.556 419.254L552.776 446.171C552.797 449.117 550.471 453.18 545.59 453.161C541.362 453.144 538.071 453.131 535.29 453.12C531.374 453.105 525.511 450.598 525.469 444.591C525.426 438.584 530.746 436.612 534.662 436.627C536.024 436.633 536.024 436.633 536.024 436.633L535.9 419.188L552.556 419.254Z" stroke="black" stroke-width="3.03958" stroke-miterlimit="10" stroke-linecap="round" stroke-linejoin="round"/>
<path d="M536.222 419.363L552.831 419.424L552.609 387.119L536 387.057L536.222 419.363Z" stroke="black" stroke-width="3.03958" stroke-miterlimit="10" stroke-linecap="round" stroke-linejoin="round"/>
<path d="M552.694 395.219C552.694 395.219 563.589 394.765 569.904 400.313L569.842 391.242L560.926 393.36L552.694 395.219Z" fill="black"/>
<path d="M535.406 393.69C535.406 393.69 546.321 395.011 552.639 400.568L552.586 392.763L543.995 393.052L535.406 393.69Z" fill="black"/>
<path d="M573.962 391.539C592.22 385.666 604.412 371.317 604.115 349.187C603.758 322.643 587.11 307.691 586.906 278.724C586.766 258.788 572.451 241.162 551.603 241.225C530.783 241.289 516.915 258.979 517.338 278.916C517.939 307.885 501.672 322.94 502.029 349.484C502.326 371.643 514.89 385.915 533.315 391.67C544.497 394.771 559.377 395.983 573.962 391.539Z" fill="#F04928"/>
<path d="M503.266 336.072C502.446 340.252 501.967 344.665 502.029 349.425C502.326 371.584 514.89 385.856 533.314 391.611C544.497 394.741 559.377 395.953 573.962 391.509C592.219 385.636 604.412 371.287 604.114 349.157C603.758 322.613 587.11 307.661 586.906 278.694C586.766 258.758 572.45 241.132 551.603 241.196C530.783 241.259 516.915 258.949 517.338 278.887C517.558 289.966 516.052 297.433 513.888 303.887" stroke="black" stroke-width="3.03958" stroke-miterlimit="10" stroke-linecap="round" stroke-linejoin="round"/>
<path d="M559.74 289.756L544.89 289.593C544.089 289.584 543.433 290.245 543.435 291.059C543.437 291.902 544.096 292.578 544.897 292.587L559.747 292.751C560.577 292.76 561.234 292.098 561.232 291.255C561.23 290.441 560.57 289.766 559.74 289.756Z" fill="black"/>
<path d="M540.682 271.585C539.544 271.569 538.638 272.509 538.644 273.635C538.651 274.789 539.566 275.755 540.704 275.771C541.843 275.787 542.748 274.876 542.742 273.692C542.764 272.538 541.82 271.601 540.682 271.585Z" fill="black"/>
<path d="M563.941 271.584C562.803 271.568 561.897 272.508 561.903 273.634C561.91 274.788 562.825 275.754 563.963 275.77C565.102 275.786 566.007 274.875 566.001 273.691C565.995 272.537 565.079 271.6 563.941 271.584Z" fill="black"/>
<path d="M552.346 284.027C553.484 284.043 554.39 283.104 554.383 281.95C554.377 280.795 553.462 279.83 552.323 279.814C551.185 279.798 550.28 280.738 550.286 281.892C550.264 283.046 551.208 284.011 552.346 284.027Z" fill="black"/>
<path d="M559.584 349.375L545.969 349.323C544.328 349.316 543.016 347.956 543.005 346.312L542.826 320.701C542.814 319.028 544.135 317.706 545.748 317.712L559.363 317.765C561.004 317.771 562.316 319.131 562.327 320.775L562.506 346.387C562.546 348.031 561.225 349.381 559.584 349.375Z" fill="#FFC232" stroke="black" stroke-width="2.74936" stroke-miterlimit="10" stroke-linecap="round" stroke-linejoin="round"/>
<path d="M494.401 345.326C494.401 345.326 489.777 336.25 491.925 327.632C495.287 314.318 508.039 307.213 518.466 303.762L506.631 344.681L494.401 345.326Z" fill="#F04928"/>
<path d="M511.007 337.998C511.007 337.998 502.866 338.11 500.485 330.363L493.529 341.423C493.529 341.423 496.349 351.106 504.787 352.987L511.007 337.998Z" fill="#F04928"/>
<path d="M548.245 329.191L539.582 329.158L539.68 343.173L548.343 343.206L548.245 329.191Z" fill="#F04928"/>
<path d="M565.682 329.191L557.019 329.158L557.117 343.173L565.78 343.206L565.682 329.191Z" fill="#F04928"/>
<path d="M513.379 303.861C484.447 320.219 486.885 346.921 503.91 352.431C519.794 357.56 539.81 343.599 539.81 343.599L546.581 343.48C547.804 343.485 548.821 342.447 548.784 341.202C548.775 339.957 547.743 338.911 546.52 338.935C547.744 338.94 548.761 337.902 548.723 336.657C548.714 335.412 547.683 334.365 546.459 334.39L543.274 334.522L546.459 334.39C547.683 334.394 548.7 333.356 548.662 332.111C548.653 330.866 547.622 329.82 546.398 329.844L541.449 329.969L542.409 328.931C543.199 328.065 543.132 326.704 542.273 325.89C541.414 325.076 540.077 325.129 539.286 325.994L535.814 329.831C533.546 331.009 521.469 337.012 514.419 337.853C507.169 338.693 504.73 335.817 504.279 332.312C504.097 330.777 504.906 328.551 506.465 327.718" stroke="black" stroke-width="3.11213" stroke-miterlimit="10" stroke-linecap="round" stroke-linejoin="round"/>
<path d="M543.618 338.849L546.684 338.73" stroke="black" stroke-width="3.11213" stroke-miterlimit="10" stroke-linecap="round" stroke-linejoin="round"/>
<path d="M611.398 345.409C611.398 345.409 615.894 336.368 613.625 327.733C610.075 314.392 597.223 307.188 586.747 303.657L599.157 344.669L611.398 345.409Z" fill="#F04928"/>
<path d="M591.768 303.911C620.935 320.5 618.878 347.184 601.931 352.56C586.119 357.563 565.903 343.443 565.903 343.443L559.13 343.271C557.906 343.266 556.875 342.22 556.894 340.975C556.885 339.73 557.902 338.692 559.126 338.726C557.902 338.721 556.871 337.675 556.89 336.43C556.881 335.185 557.87 334.147 559.122 334.18L562.31 334.338L559.122 334.18C557.898 334.176 556.867 333.129 556.886 331.885C556.877 330.64 557.866 329.601 559.118 329.635L564.07 329.799L563.095 328.753C562.292 327.882 562.339 326.521 563.187 325.714C564.035 324.907 565.372 324.97 566.175 325.842L569.702 329.706C571.987 330.902 584.151 337.001 591.214 337.897C598.475 338.794 600.873 335.938 601.275 332.436C601.435 330.903 600.594 328.67 599.023 327.824" stroke="black" stroke-width="3.11213" stroke-miterlimit="10" stroke-linecap="round" stroke-linejoin="round"/>
<path d="M561.883 338.85L558.845 338.73" stroke="black" stroke-width="3.11213" stroke-miterlimit="10" stroke-linecap="round" stroke-linejoin="round"/>
<path d="M547.258 322.245L547.258 325.255" stroke="black" stroke-width="3.12045" stroke-miterlimit="10" stroke-linecap="round" stroke-linejoin="round"/>
<path d="M492.198 284.86L500.649 285.298C502.504 285.422 503.942 287.028 503.841 288.92C503.739 290.754 502.265 292.146 500.524 292.14C500.467 292.139 500.381 292.139 500.324 292.139L463.608 289.879C463.608 289.879 464.374 280.74 464.499 278.178C464.624 275.617 465.287 272.475 469.655 272.636C473.994 272.798 485.358 273.684 487.443 273.837C489.555 273.991 492.639 274.147 492.529 279.009C492.388 283.434 492.198 284.86 492.198 284.86Z" fill="#E74626" stroke="black" stroke-width="3.03958" stroke-miterlimit="10" stroke-linecap="round" stroke-linejoin="round"/>
<path d="M470.348 283.997L478.229 284.667" stroke="black" stroke-width="3.03958" stroke-miterlimit="10" stroke-linecap="round" stroke-linejoin="round"/>
</svg>
