<svg width="469" height="469" viewBox="0 0 469 469" fill="none" xmlns="http://www.w3.org/2000/svg">
<path d="M468.262 234.869C468.262 364.176 363.438 469 234.131 469C104.824 469 0 364.176 0 234.869C0 105.562 104.824 0.737793 234.131 0.737793C363.438 0.737793 468.262 105.562 468.262 234.869Z" fill="#BCD7FF" fill-opacity="0.5"/>
<path fill-rule="evenodd" clip-rule="evenodd" d="M50.9735 149.272L46.7185 163.617L18.0054 121.725L39.5403 127.738L43.7953 113.394L72.5084 155.285L50.9735 149.272Z" fill="#BCD9FF"/>
<path fill-rule="evenodd" clip-rule="evenodd" d="M178.577 432.485H159.965L200.556 381.746V410.505H219.168L178.577 461.244V432.485Z" fill="#BCD9FF"/>
<path fill-rule="evenodd" clip-rule="evenodd" d="M384.784 201.279L382.255 207.683C379.575 214.469 371.941 217.86 365.204 215.259C358.466 212.657 355.177 205.046 357.857 198.261L360.386 191.857C360.622 191.257 360.67 190.521 360.512 189.467C360.41 188.79 360.232 188.02 359.932 186.934C359.924 186.904 359.886 186.771 359.83 186.573L359.83 186.571C359.626 185.854 359.183 184.29 359.026 183.696C357.431 177.678 357.356 172.827 359.624 167.083C364.313 155.208 377.673 149.273 389.463 153.827C401.253 158.38 407.01 171.698 402.32 183.572C400.003 189.442 396.537 193.109 391.273 196.468C390.715 196.824 389.329 197.667 388.508 198.166L388.506 198.167C388.186 198.362 387.952 198.504 387.888 198.544C386.832 199.203 386.144 199.693 385.641 200.155C385.185 200.573 384.922 200.93 384.784 201.279ZM379.566 197.238C380.027 196.552 380.588 195.917 381.244 195.316C382.113 194.52 383.095 193.821 384.47 192.964C384.564 192.905 384.866 192.722 385.256 192.485C386.089 191.978 387.325 191.227 387.797 190.926C391.973 188.263 394.491 185.602 396.223 181.219C399.573 172.744 395.46 163.239 387.038 159.989C378.615 156.739 369.071 160.975 365.721 169.451C364.049 173.682 364.103 177.162 365.369 181.937C365.505 182.449 365.904 183.857 366.12 184.618L366.12 184.618L366.122 184.626C366.195 184.88 366.246 185.061 366.259 185.109C366.622 186.425 366.853 187.421 367.002 188.408C367.219 189.859 367.231 191.199 366.985 192.481C368.41 194.402 370.228 195.778 372.485 196.65C374.799 197.545 377.137 197.741 379.566 197.238ZM376.154 205.312L376.575 204.247C374.343 204.226 372.143 203.8 369.99 202.968C367.876 202.151 365.996 201.015 364.362 199.571L363.954 200.605C362.614 203.995 364.259 207.797 367.628 209.097C370.997 210.397 374.815 208.702 376.154 205.312Z" fill="#BCD9FF"/>
<path fill-rule="evenodd" clip-rule="evenodd" d="M379.42 145.045L379.337 145.576L378.812 145.459C374.399 144.479 371.479 142.987 370.054 140.897C368.036 137.938 368.488 134.532 370.754 132.987C373.019 131.443 376.355 132.266 378.372 135.226C379.797 137.316 380.119 140.579 379.42 145.045Z" fill="#BCD9FF"/>
<path fill-rule="evenodd" clip-rule="evenodd" d="M406.284 156.978L406.016 157.444L406.498 157.682C410.551 159.684 413.761 160.352 416.181 159.616C419.609 158.575 421.391 155.638 420.594 153.014C419.797 150.39 416.681 148.942 413.254 149.983C410.834 150.719 408.538 153.06 406.284 156.978Z" fill="#BCD9FF"/>
<path fill-rule="evenodd" clip-rule="evenodd" d="M394.4 149.552L393.928 149.809L393.701 149.322C391.792 145.225 391.198 142 391.988 139.597C393.108 136.194 396.085 134.479 398.69 135.336C401.295 136.194 402.671 139.341 401.552 142.744C400.761 145.146 398.368 147.388 394.4 149.552Z" fill="#BCD9FF"/>
<path fill-rule="evenodd" clip-rule="evenodd" d="M353.047 325.456L358.791 337.982L349.672 354.608L358.452 373.804L372.34 367.522C374.173 371.231 378.648 372.848 382.447 371.134L389.745 367.841L391.359 371.308L398.195 368.276L396.561 364.766L403.463 361.652C407.332 359.907 409.036 355.368 407.269 351.515L407.152 351.259L421.13 344.939L412.345 325.738L393.549 321.594L388.073 309.654C383.025 298.644 370.173 288.259 359.363 293.136C348.552 298.013 347.998 314.446 353.047 325.456ZM393.315 357.791L400.296 354.649L400.186 354.409L400.129 354.435L385.078 321.54L381.075 312.831C377.563 305.19 368.165 297.613 362.544 300.143C356.924 302.673 356.519 314.661 360.031 322.303L363.387 329.603L363.5 329.397L379.359 364.072L386.496 360.86L376.723 339.862L383.559 336.83L393.315 357.791ZM358.286 354.91L362.899 346.513L369.291 360.465L362.281 363.631L358.286 354.91ZM403.98 344.262L397.556 330.285L406.942 332.386L410.957 341.122L403.98 344.262ZM375.408 328.171C371.604 329.874 367.049 328.081 365.235 324.166C363.422 320.251 365.036 315.697 368.84 313.993C372.645 312.29 377.2 314.083 379.013 317.998C380.827 321.913 379.213 326.468 375.408 328.171Z" fill="#BCD9FF"/>
<path fill-rule="evenodd" clip-rule="evenodd" d="M396.798 375.397L397.081 374.713L397.797 374.901C403.817 376.483 407.541 378.625 408.938 381.44C410.917 385.425 409.22 389.817 405.497 391.665C401.775 393.513 397.25 392.21 395.272 388.225C393.874 385.41 394.419 381.149 396.798 375.397Z" fill="#BCD9FF"/>
</svg>
