<svg width="367" height="250" viewBox="0 0 367 250" fill="none" xmlns="http://www.w3.org/2000/svg">
<path d="M47.2954 157.539L68.7812 51.1947C68.7812 51.1947 68.7812 40.8133 77.0191 39.3672H286.299C286.299 39.3672 296.577 46.5205 297.661 53.6996C298.746 60.8788 299.443 119.216 299.443 119.216L237.827 173.627L47.2954 157.539Z" fill="white"/>
<path d="M217.942 34.0479L215.231 14.0083H203.248C203.248 14.0083 201.131 2 188.167 2C175.203 2 173.086 14.0083 173.086 14.0083H161.103L158.392 34.0479" fill="white"/>
<path d="M62.0659 111.185L101.784 69.2207" stroke="black" stroke-width="3.38943" stroke-miterlimit="10" stroke-linecap="round" stroke-linejoin="round"/>
<path d="M62.0659 131.095L119.964 70.5635" stroke="black" stroke-width="3.38943" stroke-miterlimit="10" stroke-linecap="round" stroke-linejoin="round"/>
<path d="M135.098 72.474H98.6595C95.2765 72.474 92.5134 69.7366 92.5134 66.3278V62.6608C92.5134 59.2778 95.2507 56.5146 98.6595 56.5146H135.098C138.48 56.5146 141.244 59.252 141.244 62.6608V66.3278C141.244 69.7108 138.48 72.474 135.098 72.474Z" fill="#D1D3D4" stroke="black" stroke-width="3.38943" stroke-miterlimit="10" stroke-linecap="round" stroke-linejoin="round"/>
<path d="M111.081 48.5348V60.8789C111.081 63.0739 112.863 64.8558 115.058 64.8558C117.253 64.8558 119.035 63.0739 119.035 60.8789V58.064L116.349 56.2305V48.3799" fill="#939598"/>
<path d="M111.081 48.5348V60.8789C111.081 63.0739 112.863 64.8558 115.058 64.8558C117.253 64.8558 119.035 63.0739 119.035 60.8789V58.064L116.349 56.2305V48.3799" stroke="black" stroke-width="3.38943" stroke-miterlimit="10" stroke-linecap="round" stroke-linejoin="round"/>
<path d="M286.325 43.5251L286.48 47.6828C286.48 47.6828 293.194 49.4646 293.633 54.3712C294.072 59.2779 304.35 153.743 304.35 153.743H315.377L303.162 54.3712L301.38 44.8421L291.851 42.9053L286.325 43.5251Z" fill="#FFCC31"/>
<path d="M9.72034 209.756C9.72034 209.756 9.72034 195.475 9.72034 187.65C9.72034 179.825 12.0187 169.935 19.4044 165.312C26.7644 160.715 48.8957 149.43 48.8957 149.43L68.8579 49.5421C70.6914 38.4893 78.6969 32.9629 92.203 32.9629C105.709 32.9629 256.368 32.9629 256.368 32.9629C256.368 32.9629 272.844 32.9629 281.133 32.9629C289.397 32.9629 299.933 34.0476 302.206 50.2135C304.478 66.3795 314.808 148.32 314.808 148.32C317.623 150.954 320.928 154.001 323.898 156.764C326.687 159.373 329.502 161.929 330.044 168.05C330.664 174.816 332.575 226.696 332.575 229.537C332.575 232.352 331.155 235.27 327.488 235.27C320.722 235.27 326.067 235.27 326.067 235.27H321.393C321.393 235.27 323.691 189.587 305.46 187.185C288.183 184.913 285.678 205.908 284.619 212.958C283.561 224.321 283.302 235.063 283.302 235.063H206.863C206.863 235.063 209.264 188.554 190.929 187.185C173.059 185.842 171.432 211.589 171.432 211.589" stroke="black" stroke-width="3.38943" stroke-miterlimit="10" stroke-linecap="round" stroke-linejoin="round"/>
<path d="M317.959 114.284C317.959 142.846 294.795 165.984 266.233 165.984C237.672 165.984 214.507 142.82 214.507 114.284C214.507 85.7226 237.672 62.584 266.233 62.584C294.795 62.5582 317.959 85.7226 317.959 114.284Z" fill="#FFC232"/>
<path d="M317.959 114.284C317.959 142.846 294.795 165.984 266.233 165.984C237.672 165.984 214.507 142.82 214.507 114.284C214.507 85.7226 237.672 62.584 266.233 62.584C294.795 62.5582 317.959 85.7226 317.959 114.284Z" stroke="black" stroke-width="3.24585" stroke-miterlimit="10" stroke-linecap="round" stroke-linejoin="round"/>
<path d="M274.342 92.4621C273.516 92.2555 272.638 92.7462 272.431 93.5984C272.199 94.4506 272.715 95.3028 273.567 95.5352C274.42 95.7418 275.272 95.2511 275.478 94.3989C275.685 93.5467 275.169 92.6687 274.342 92.4621Z" fill="black"/>
<path d="M291.284 96.878C290.432 96.6456 289.58 97.1621 289.347 98.0143C289.115 98.8665 289.631 99.7187 290.483 99.9511C291.31 100.158 292.188 99.667 292.394 98.8148C292.627 97.9626 292.136 97.0846 291.284 96.878Z" fill="black"/>
<path d="M280.102 103.645C280.954 103.877 281.806 103.36 282.013 102.508C282.245 101.656 281.729 100.804 280.877 100.571C280.05 100.365 279.172 100.856 278.966 101.708C278.759 102.56 279.275 103.438 280.102 103.645Z" fill="black"/>
<path d="M276.254 110.229C275.737 111.753 276.047 113.225 276.925 113.509C277.803 113.793 278.914 112.811 279.43 111.288C279.947 109.764 279.637 108.292 278.759 108.008C277.881 107.698 276.744 108.705 276.254 110.229Z" fill="black"/>
<path d="M242.527 54.6299L242.966 72.7843C242.966 72.7843 248.182 81.7195 246.84 92.4365C246.84 92.4365 245.497 105.994 245.807 109.403C246.117 112.838 246.995 118.183 246.995 118.183C246.995 118.183 254.742 126.68 255.026 132.18C255.336 137.681 254.277 144.085 250.997 145.867L248.312 147.804L247.279 149.741H260.681L255.181 61.9123L242.527 54.6299Z" fill="#FFC232"/>
<path d="M205.055 34.0479L202.344 14.0083H190.361C190.361 14.0083 188.244 2 175.28 2C162.316 2 160.198 14.0083 160.198 14.0083H148.216L145.504 34.0479" fill="white"/>
<path d="M205.055 34.0479L202.344 14.0083H190.361C190.361 14.0083 188.244 2 175.28 2C162.316 2 160.198 14.0083 160.198 14.0083H148.216L145.504 34.0479" stroke="black" stroke-width="3.54257" stroke-miterlimit="10" stroke-linecap="round" stroke-linejoin="round"/>
<path d="M217.968 34.0479L215.257 14.0083H203.274C203.274 14.0083 201.157 2 188.193 2H175.281" stroke="black" stroke-width="3.54257" stroke-miterlimit="10" stroke-linecap="round" stroke-linejoin="round"/>
<path d="M152.865 129.055L166.733 137.68L170.296 128.616L171.2 118.338L152.865 129.055Z" fill="#EF442A"/>
<path d="M219.414 191.731C236.483 189.071 248.311 178.741 251.152 159.425C254.586 136.26 242.914 120.456 246.839 95.1739C249.55 77.7684 239.272 60.5177 220.756 57.7804C202.24 55.043 187.417 68.6007 184.964 86.0321C181.4 111.366 164.821 122.289 161.412 145.454C158.546 164.796 167.713 178.922 183.285 186.411C192.763 190.62 205.804 193.668 219.414 191.731Z" fill="#EF442A"/>
<path d="M219.414 191.731C236.483 189.071 242.294 179.155 245.16 159.812C246.374 151.626 252.598 143.492 251.229 136.493C248.724 123.684 244.308 111.521 246.839 95.1485C249.55 77.743 239.272 60.4923 220.756 57.755C202.24 55.0176 187.417 68.5753 184.964 86.0067C181.4 111.34 164.821 122.264 161.412 145.428C158.546 164.771 167.713 178.896 183.285 186.386C192.763 190.621 205.804 193.668 219.414 191.731Z" stroke="black" stroke-width="3.24585" stroke-miterlimit="10" stroke-linecap="round" stroke-linejoin="round"/>
<path d="M331.414 191.369L338.05 191.007L337.534 180.523C337.534 180.523 334.203 173.705 329.658 174.945L331.414 191.369Z" fill="#F7941C"/>
<path d="M330.381 191.886L331.156 202.629C331.156 202.629 335.34 201.312 336.915 199.22C338.49 197.128 338.232 192.144 338.232 192.144L330.381 191.886Z" fill="#F04928"/>
<path d="M331.594 174.687C331.594 174.687 337.12 174.274 337.663 182.718C338.36 193.564 338.128 195.785 338.128 195.785C338.128 195.785 338.076 201.415 332.627 201.983" stroke="black" stroke-width="3.38943" stroke-miterlimit="10" stroke-linecap="round" stroke-linejoin="round"/>
<path d="M330.535 191.886H337.895" stroke="black" stroke-width="3.38943" stroke-miterlimit="10" stroke-linecap="round" stroke-linejoin="round"/>
<path d="M130.398 141.064L137.396 145.428L150.334 146.177L154.079 145.428L156.739 142.587L152.581 131.276L137.913 130.398L130.398 141.064Z" fill="#EF442A"/>
<path d="M49.1035 142.794C44.5068 142.794 46.8309 142.794 42.2342 142.794C37.6375 142.794 33.015 140.832 33.015 133.575C33.015 126.344 33.015 136.777 33.015 129.546C33.015 122.316 37.6117 120.327 42.2342 120.327C46.8309 120.327 48.7419 120.327 53.3645 120.327" fill="#D1D3D4"/>
<path d="M49.1035 142.794C44.5068 142.794 46.8309 142.794 42.2342 142.794C37.6375 142.794 33.015 140.832 33.015 133.575C33.015 126.344 33.015 136.777 33.015 129.546C33.015 122.316 37.6117 120.327 42.2342 120.327C46.8309 120.327 48.7419 120.327 53.3645 120.327" stroke="black" stroke-width="3.38943" stroke-miterlimit="10" stroke-linecap="round" stroke-linejoin="round"/>
<path d="M12.2253 175.694C12.2253 175.694 15.0401 168.928 20.1275 165.545C25.2149 162.162 49.1798 148.914 49.1798 148.914H163.736C163.736 148.914 172.206 147.494 174.169 139.902L182.924 136.803C182.924 136.803 187.727 145.273 189.405 146.952C191.11 148.656 197.024 149.482 208.025 149.482H273.825C273.825 149.482 281.934 151.238 288.441 150.128C294.923 148.992 302.154 148.553 302.154 148.553L314.756 148.372C314.756 148.372 321.238 155.706 323.795 157.385C326.326 159.089 330.561 163.298 330.561 168.386C330.561 173.473 331.981 207.303 331.981 207.303L323.227 209.007L316.461 198.574C316.461 198.574 301.793 200.821 300.94 201.673C300.088 202.525 287.408 234.392 286.272 234.392C285.136 234.392 208.903 234.392 208.903 234.392L176.467 235.245C176.467 235.245 176.467 214.663 171.38 211.848C166.293 209.033 152.761 210.144 152.761 210.144L29.1918 209.575H10.0044L9.72034 194.907" fill="#FFC232"/>
<path d="M69.2202 47.9671C69.2202 47.9671 72.3191 33.583 86.9873 33.583C101.655 33.583 278.345 33.583 283.432 33.583C288.52 33.583 298.669 34.1511 301.483 48.2512H258.125C258.125 48.2512 254.173 49.3874 254.458 56.7215C254.742 64.0556 257.556 83.1914 257.556 83.1914C257.556 83.1914 248.544 63.7457 243.766 58.6583L242.914 56.7215C242.914 56.7215 242.062 47.4248 233.592 47.4248C225.121 47.4248 195.604 47.4248 195.604 47.4248C195.604 47.4248 185.739 45.5396 185.739 60.2078C185.739 74.876 185.739 121.85 185.739 121.85V139.901L173.318 142.432V92.798L173.886 58.4259C173.886 58.4259 175.022 47.7089 162.601 47.7089C150.179 47.7089 69.2202 47.9671 69.2202 47.9671Z" fill="#FFC232"/>
<path d="M45.6419 217.581C45.6419 217.581 53.4667 216.212 59.4579 216.212C65.4491 216.212 79.7299 196.199 79.7299 220.396C79.7299 244.593 70.0458 249.164 64.0804 249.164C58.115 249.164 46.5716 249.164 46.5716 249.164C39.2117 249.164 35.8287 249.164 31.5161 249.164C27.2034 249.164 21.9869 243.689 21.9869 238.757H35.8029C35.8029 238.757 41.3293 235.064 41.6392 230.158C41.949 225.251 39.1859 224.476 39.1859 224.476C39.1859 224.476 32.7298 222.798 33.6595 220.344C34.5891 217.891 45.6419 217.581 45.6419 217.581Z" fill="black"/>
<path d="M135.511 217.581C135.511 217.581 143.336 216.212 149.327 216.212C155.318 216.212 169.599 196.199 169.599 220.396C169.599 244.593 159.915 249.164 153.95 249.164C147.984 249.164 136.441 249.164 136.441 249.164C129.081 249.164 125.698 249.164 121.385 249.164C117.073 249.164 111.856 243.689 111.856 238.757H125.672C125.672 238.757 131.199 235.064 131.509 230.158C131.818 225.251 129.055 224.476 129.055 224.476C129.055 224.476 122.599 222.798 123.529 220.344C124.459 217.891 135.511 217.581 135.511 217.581Z" fill="black"/>
<path d="M111.107 237.388C111.107 237.388 157.901 237.388 165.132 237.388C172.363 237.388 174.351 232.791 174.351 228.168C174.351 223.572 174.351 223.727 174.351 219.104C174.351 214.507 172.388 209.885 165.132 209.885C157.901 209.885 111.107 209.885 111.107 209.885C111.107 209.885 18.45 209.885 11.2193 209.885C3.98847 209.885 2 214.482 2 219.104C2 223.701 2 223.546 2 228.168C2 232.765 3.96264 237.388 11.2193 237.388C18.45 237.388 111.107 237.388 111.107 237.388Z" fill="white" stroke="black" stroke-width="3.38943" stroke-miterlimit="10" stroke-linecap="round" stroke-linejoin="round"/>
<path d="M103.98 217.374H56.3342V237.543H103.98V217.374Z" fill="#B3B5B8" stroke="black" stroke-width="3.38943" stroke-miterlimit="10" stroke-linecap="round" stroke-linejoin="round"/>
<path d="M111.055 209.911H48.1727C44.7123 209.911 41.8974 207.096 41.8974 203.635V181.788C41.8974 178.328 44.7123 175.513 48.1727 175.513H111.055C114.515 175.513 117.33 178.328 117.33 181.788V203.635C117.304 207.122 114.489 209.911 111.055 209.911Z" fill="#6D6E71" stroke="black" stroke-width="3.38943" stroke-miterlimit="10" stroke-linecap="round" stroke-linejoin="round"/>
<path d="M79.2662 92.333C79.2662 63.7455 79.2662 58.1158 79.2662 54.707" stroke="black" stroke-width="3.38943" stroke-miterlimit="10" stroke-linecap="round" stroke-linejoin="round"/>
<path d="M49.8511 149.456C49.8511 149.456 62.6858 149.456 67.3083 149.456C71.9308 149.456 79.2908 147.158 79.2908 137.939V113.974" stroke="black" stroke-width="3.38943" stroke-miterlimit="10" stroke-linecap="round" stroke-linejoin="round"/>
<path d="M251.618 149.456C225.432 149.456 199.918 149.456 197.645 149.456C193.048 149.456 185.663 147.158 185.663 137.939C185.663 128.72 185.663 65.2178 185.663 59.2266C185.663 53.2354 187.496 47.709 196.251 47.709C205.005 47.709 232.017 47.709 232.017 47.709C236.149 47.709 241.908 48.3029 242.554 58.1162C242.889 63.0486 243.483 73.559 243.483 73.559" stroke="black" stroke-width="3.38943" stroke-miterlimit="10" stroke-linecap="round" stroke-linejoin="round"/>
<path d="M306.131 149.456C306.131 149.456 285.007 149.456 260.706 149.456" stroke="black" stroke-width="3.38943" stroke-miterlimit="10" stroke-linecap="round" stroke-linejoin="round"/>
<path d="M154.62 149.457C154.62 149.457 106.51 149.457 101.913 149.457C97.3163 149.457 89.9305 147.159 89.9305 137.939C89.9305 134.401 89.9305 113.484 89.9305 110.204" stroke="black" stroke-width="3.38943" stroke-miterlimit="10" stroke-linecap="round" stroke-linejoin="round"/>
<path d="M181.375 148.992L187.986 141.167" stroke="black" stroke-width="3.38943" stroke-miterlimit="10" stroke-linecap="round" stroke-linejoin="round"/>
<path d="M196.275 194.262C196.275 194.262 200.536 187.599 187.572 188.038C176.984 188.426 178.249 193.307 178.249 193.307L196.275 194.262Z" fill="black"/>
<path d="M312.484 194.261C312.484 194.261 314.343 187.418 303.781 188.038C293.219 188.658 294.459 193.306 294.459 193.306L312.484 194.261Z" fill="black"/>
<path d="M217.45 148.294L231.034 153.02L239.788 144.136L238.084 137.654L232.738 138.636L227.651 143.439L217.45 148.294Z" fill="#EF442A"/>
<path d="M236.923 130.708L241.235 136.545L249.241 121.592L242.191 116.092L238.808 119.81L236.923 130.708Z" fill="#EF442A"/>
<path d="M260.397 149.146C259.648 132.774 254.613 60.3886 254.458 57.0056C254.277 52.3056 256.059 48.5352 261.404 48.5352C263.367 48.5352 286.945 48.5352 286.945 48.5352C290.922 48.5352 293.143 49.4907 293.736 55.4303C295.286 70.6924 295.286 70.7957 295.286 70.7957" stroke="black" stroke-width="3.38943" stroke-miterlimit="10" stroke-linecap="round" stroke-linejoin="round"/>
<path d="M188.296 154.828C188.296 154.828 191.318 159.709 191.318 168.747C191.318 177.76 191.318 187.212 191.318 187.212" stroke="black" stroke-width="3.2004" stroke-miterlimit="10" stroke-linecap="round" stroke-linejoin="round"/>
<path d="M253.217 155.215C253.217 155.215 256.238 160.096 256.238 169.134C256.238 178.147 256.238 221.557 256.238 221.557" stroke="black" stroke-width="3.2004" stroke-miterlimit="10" stroke-linecap="round" stroke-linejoin="round"/>
<path d="M49.3606 182.253H116.065" stroke="black" stroke-width="3.38943" stroke-miterlimit="10" stroke-linecap="round" stroke-linejoin="round"/>
<path d="M49.3606 189.406H116.065" stroke="black" stroke-width="3.38943" stroke-miterlimit="10" stroke-linecap="round" stroke-linejoin="round"/>
<path d="M49.3606 196.56H116.065" stroke="black" stroke-width="3.38943" stroke-miterlimit="10" stroke-linecap="round" stroke-linejoin="round"/>
<path d="M49.3606 203.688H116.065" stroke="black" stroke-width="3.38943" stroke-miterlimit="10" stroke-linecap="round" stroke-linejoin="round"/>
<path d="M163.091 47.709H114.18" stroke="black" stroke-width="3.38943" stroke-miterlimit="10" stroke-linecap="round" stroke-linejoin="round"/>
<path d="M218.381 228.143H274.549" stroke="black" stroke-width="3.38943" stroke-miterlimit="10" stroke-linecap="round" stroke-linejoin="round"/>
<path d="M141.528 134.943V142.871C139.204 143.852 137.551 146.176 137.551 148.862H150.567C150.567 146.176 148.94 143.852 146.59 142.871V134.581" fill="#A7A9AC"/>
<path d="M141.528 134.943V142.871C139.204 143.852 137.551 146.176 137.551 148.862H150.567C150.567 146.176 148.94 143.852 146.59 142.871V134.581" stroke="black" stroke-width="3.38943" stroke-miterlimit="10" stroke-linecap="round" stroke-linejoin="round"/>
<path d="M129.055 148.475H119.887L121.85 137.19L140.34 124.355C140.34 124.355 153.175 124.485 157.281 127.868C161.361 131.251 165.88 136.338 165.88 136.338L168.411 144.653L167.998 148.604H158.96C158.96 148.604 156.713 141.425 154.724 139.592C152.762 137.758 145.97 132.955 139.204 135.796C132.438 138.61 129.055 148.475 129.055 148.475Z" fill="#6D6E71"/>
<path d="M119.138 148.862C119.138 135.227 130.216 124.148 143.852 124.148C156.79 124.148 167.429 134.091 168.488 146.77" stroke="black" stroke-width="3.38943" stroke-miterlimit="10" stroke-linecap="round" stroke-linejoin="round"/>
<path d="M128.487 119.552C129.468 119.655 133.084 124.175 133.084 124.175L139.41 122.16C139.41 122.16 141.657 119.939 140.96 118.467C140.263 116.995 139.075 115.42 136.647 116.608C134.22 117.77 128.487 119.552 128.487 119.552Z" fill="#EF442A"/>
<path d="M133.678 120.921L137.242 125.802C138.352 127.273 138.042 129.339 136.596 130.45C135.124 131.56 133.058 131.25 131.948 129.804L129.262 126.318L131.948 129.804C133.058 131.276 132.748 133.342 131.302 134.453C129.83 135.563 127.764 135.253 126.654 133.807C127.764 135.279 127.454 137.345 126.008 138.455C124.536 139.566 122.47 139.256 121.36 137.81L117.667 132.774C116.118 130.734 114.981 125.595 121.36 120.947C127.015 116.763 131.819 118.313 133.678 120.921Z" fill="#EF442A"/>
<path d="M135.046 122.341L137.758 125.956C138.868 127.428 138.558 129.494 137.112 130.605C135.64 131.715 133.574 131.405 132.464 129.959L129.778 126.473L132.464 129.959C133.574 131.431 133.264 133.497 131.818 134.607C130.346 135.718 128.28 135.408 127.17 133.962C128.28 135.434 127.97 137.5 126.524 138.61C125.052 139.721 122.986 139.411 121.876 137.964L118.183 132.929C116.633 130.889 114.851 124.717 121.592 120.611C124.536 118.829 128.073 118.08 128.073 118.08C129.855 117.615 131.844 117.615 133.342 117.512" stroke="black" stroke-width="3.19549" stroke-miterlimit="10" stroke-linecap="round" stroke-linejoin="round"/>
<path d="M124.639 130.656L127.143 133.936" stroke="black" stroke-width="3.19549" stroke-miterlimit="10" stroke-linecap="round" stroke-linejoin="round"/>
<path d="M136.673 123.736L139.075 122.78" stroke="black" stroke-width="3.19549" stroke-miterlimit="10" stroke-linecap="round" stroke-linejoin="round"/>
<path d="M132.775 117.667L136.648 116.608C138.353 115.937 140.289 116.763 140.961 118.468C141.632 120.172 140.806 122.109 139.076 122.78" stroke="black" stroke-width="3.19549" stroke-miterlimit="10" stroke-linecap="round" stroke-linejoin="round"/>
<path d="M129.055 148.863C129.055 140.521 135.821 133.781 144.136 133.781C152.477 133.781 159.217 140.521 159.217 148.863" stroke="black" stroke-width="3.38943" stroke-miterlimit="10" stroke-linecap="round" stroke-linejoin="round"/>
<path d="M132.671 141.941C132.671 141.941 134.943 144.395 138.094 145.428" stroke="black" stroke-width="3.19549" stroke-miterlimit="10" stroke-linecap="round" stroke-linejoin="round"/>
<path d="M150.644 147.21C150.644 147.21 155.293 146.694 157.049 143.182" stroke="black" stroke-width="3.19549" stroke-miterlimit="10" stroke-linecap="round" stroke-linejoin="round"/>
<path d="M142.949 97.5754C142.949 97.5754 149.637 97.5754 154.621 97.5754C159.605 97.5754 162.756 93.8309 163.014 89.105C163.324 83.2946 159.218 81.5127 155.68 81.5127C153.33 81.5127 146.28 81.5127 146.28 81.5127H138.533C138.533 81.5127 133.11 81.5127 128.125 81.5127C123.141 81.5127 119.991 85.2572 119.733 89.983C119.423 95.7935 123.529 97.5754 127.067 97.5754C129.417 97.5754 135.201 97.5754 135.201 97.5754H142.949Z" stroke="black" stroke-width="3.38943" stroke-miterlimit="10" stroke-linecap="round" stroke-linejoin="round"/>
<path d="M124.665 97.7305L123.503 106.511" stroke="black" stroke-width="3.38943" stroke-miterlimit="10" stroke-linecap="round" stroke-linejoin="round"/>
<path d="M129.469 97.9893L128.307 106.769" stroke="black" stroke-width="3.38943" stroke-miterlimit="10" stroke-linecap="round" stroke-linejoin="round"/>
<path d="M151.393 97.7305L150.231 106.511" stroke="black" stroke-width="3.38943" stroke-miterlimit="10" stroke-linecap="round" stroke-linejoin="round"/>
<path d="M156.196 97.9893L155.034 106.769" stroke="black" stroke-width="3.38943" stroke-miterlimit="10" stroke-linecap="round" stroke-linejoin="round"/>
<path d="M114.902 119.319L116.194 113.819C117.123 109.506 118.957 106.872 122.366 106.872C125.774 106.872 134.426 106.872 134.426 106.872C142.018 106.872 150.669 106.872 153.639 106.872C156.609 106.872 160.198 107.621 160.482 113.87C160.792 120.12 160.792 123.684 160.792 123.684" stroke="black" stroke-width="3.38943" stroke-miterlimit="10" stroke-linecap="round" stroke-linejoin="round"/>
<path d="M126.008 187.134C126.008 182.382 129.107 179.541 133.91 177.94C139.85 175.952 149.431 173.395 154.879 172.207C159.528 171.2 164.925 173.085 166.242 178.431C167.921 185.145 163.582 193.951 155.06 193.951C146.538 193.951 136.673 193.951 133.11 193.951C129.546 193.951 126.008 191.188 126.008 187.134Z" fill="white" stroke="black" stroke-width="3.38943" stroke-miterlimit="10" stroke-linecap="round" stroke-linejoin="round"/>
<path d="M9.85059 193.952C16.7715 193.952 23.5374 193.952 26.3523 193.952C29.916 193.952 33.4798 191.188 33.4798 187.134C33.4798 182.382 30.3809 179.542 25.5776 177.941C21.9363 176.727 16.9006 175.281 12.3039 174.093" fill="white"/>
<path d="M9.85059 193.952C16.7715 193.952 23.5374 193.952 26.3523 193.952C29.916 193.952 33.4798 191.188 33.4798 187.134C33.4798 182.382 30.3809 179.542 25.5776 177.941C21.9363 176.727 16.9006 175.281 12.3039 174.093" stroke="black" stroke-width="3.38943" stroke-miterlimit="10" stroke-linecap="round" stroke-linejoin="round"/>
<path d="M314.757 148.32C317.572 150.954 320.877 154.002 323.847 156.765C326.636 159.373 329.451 161.93 329.993 168.05C330.613 174.816 332.524 226.697 332.524 229.538C332.524 232.352 331.104 235.271 327.437 235.271C320.671 235.271 326.016 235.271 326.016 235.271H321.342C321.342 235.271 323.641 189.587 305.409 187.186C288.132 184.913 285.627 205.908 284.568 212.958C283.51 224.321 283.251 235.064 283.251 235.064H206.812C206.812 235.064 209.213 188.554 190.878 187.186C173.008 185.843 171.381 211.59 171.381 211.59" stroke="black" stroke-width="3.38943" stroke-miterlimit="10" stroke-linecap="round" stroke-linejoin="round"/>
<path d="M9.72034 209.756C9.72034 209.756 9.72034 195.475 9.72034 187.65C9.72034 179.825 12.0187 169.935 19.4044 165.312C26.7644 160.715 48.8957 149.43 48.8957 149.43L68.8579 49.5421C70.6914 38.4893 78.6969 32.9629 92.203 32.9629C105.709 32.9629 256.368 32.9629 256.368 32.9629C256.368 32.9629 272.844 32.9629 281.133 32.9629C289.397 32.9629 299.649 34.0734 302.206 50.2135C303.394 57.78 304.401 67.5158 305.976 80.4021" stroke="black" stroke-width="3.38943" stroke-miterlimit="10" stroke-linecap="round" stroke-linejoin="round"/>
<path d="M48.8706 149.456C48.8706 149.456 157.126 149.456 161.723 149.456C166.319 149.456 173.705 147.158 173.705 137.939C173.705 128.72 173.705 65.2178 173.705 59.2266C173.705 53.2354 171.872 47.709 163.117 47.709C154.363 47.709 71.002 47.709 71.002 47.709" stroke="black" stroke-width="3.38943" stroke-miterlimit="10" stroke-linecap="round" stroke-linejoin="round"/>
<path d="M156.61 126.964C156.61 126.964 168.98 118.932 173.447 115.937" stroke="black" stroke-width="3.24585" stroke-miterlimit="10" stroke-linecap="round" stroke-linejoin="round"/>
<path d="M245.754 118.105L233.151 143.491L229.381 152.323C229.381 152.323 245.547 155.137 253.088 145.557C260.628 135.976 250.273 120.171 245.754 118.105Z" fill="#EF442A"/>
<path d="M241.907 115.523C250.094 120.043 258.202 130.114 254.742 140.909C252.624 147.546 245.755 153.072 235.606 153.072C225.457 153.072 215.489 147.701 215.489 147.701C215.489 147.701 214.895 148.785 212.907 149.379" stroke="black" stroke-width="3.24585" stroke-miterlimit="10" stroke-linecap="round" stroke-linejoin="round"/>
<path d="M200.975 149.198C200.975 149.198 200.51 143.594 206.346 138.507C210.814 134.607 218.199 132.438 223.984 134.711C228.813 136.596 234.856 141.193 237.8 136.673C240.202 133.006 235.966 130.889 235.966 130.889" stroke="black" stroke-width="3.24585" stroke-miterlimit="10" stroke-linecap="round" stroke-linejoin="round"/>
<path d="M210.763 129.546C210.763 122.316 206.166 120.327 201.544 120.327C196.947 120.327 197.102 120.327 192.479 120.327C187.883 120.327 183.26 122.29 183.26 129.546C183.26 136.777 183.26 126.344 183.26 133.575C183.26 140.806 187.857 142.794 192.479 142.794C197.076 142.794 196.921 142.794 201.544 142.794C206.14 142.794 210.763 140.832 210.763 133.575C210.763 126.344 210.763 136.777 210.763 129.546Z" fill="#D1D3D4" stroke="black" stroke-width="3.38943" stroke-miterlimit="10" stroke-linecap="round" stroke-linejoin="round"/>
<path d="M156.791 178.482V188.606" stroke="black" stroke-width="3.38943" stroke-miterlimit="10" stroke-linecap="round" stroke-linejoin="round"/>
<path d="M219.491 81.6166L219.13 83.9924C218.923 85.361 217.632 86.3166 216.238 86.11C214.869 85.9034 213.913 84.6122 214.12 83.2177L214.482 80.8418" stroke="black" stroke-width="2.16407" stroke-miterlimit="10" stroke-linecap="round" stroke-linejoin="round"/>
<path d="M201.751 78.8782L201.389 81.2541C201.183 82.6228 199.891 83.5783 198.497 83.3717C197.128 83.1651 196.173 81.8739 196.379 80.4794L196.741 78.1035" stroke="black" stroke-width="2.16407" stroke-miterlimit="10" stroke-linecap="round" stroke-linejoin="round"/>
<path d="M206.166 90.2161C207.122 90.371 208 89.6996 208.155 88.7441C208.31 87.7886 207.664 86.8848 206.708 86.7557C205.779 86.6007 204.875 87.2722 204.72 88.2277C204.591 89.1573 205.236 90.0611 206.166 90.2161Z" fill="black"/>
<path d="M210.944 95.4059C210.944 95.4059 209.498 96.6971 205.185 95.9223C200.873 95.1218 199.995 93.3916 199.995 93.3916" stroke="black" stroke-width="2.67642" stroke-miterlimit="10" stroke-linecap="round" stroke-linejoin="round"/>
<path d="M233.643 159.812H245.16" stroke="black" stroke-width="3.38943" stroke-miterlimit="10" stroke-linecap="round" stroke-linejoin="round"/>
<path d="M319.87 235.657C319.87 235.657 322.607 234.909 322.607 230.105C322.607 225.302 322.607 217.426 322.607 214.585C322.607 211.77 323.459 209.239 327.41 209.239C329.864 209.239 330.613 209.239 333.608 209.239C337.172 209.239 337.559 212.596 337.559 214.585C337.559 218.252 337.559 223.882 337.559 227.549C337.559 230.802 336.63 235.632 329.089 235.632C324.208 235.657 325.68 235.657 319.87 235.657Z" fill="white" stroke="black" stroke-width="3.38943" stroke-miterlimit="10" stroke-linecap="round" stroke-linejoin="round"/>
<path d="M293.788 191.627C293.788 191.627 305.306 191.627 311.297 191.627C317.288 191.627 326.947 196.198 326.947 220.395C326.947 244.593 317.263 249.163 311.297 249.163C305.306 249.163 293.788 249.163 293.788 249.163C286.428 249.163 283.045 249.163 278.733 249.163C274.446 249.163 268.3 243.379 267.99 236.613L281.496 235.993C281.496 235.993 283.329 231.706 283.639 226.774C283.949 221.867 285.473 213.268 285.473 213.268C285.473 213.268 286.454 207.845 286.997 205.288C288.727 197.308 293.788 191.627 293.788 191.627Z" fill="black"/>
<path d="M320.49 220.396C320.49 228.272 317.933 234.677 314.808 234.677C311.683 234.677 309.127 228.298 309.127 220.396C309.127 212.494 311.683 206.115 314.808 206.115C317.933 206.115 320.49 212.52 320.49 220.396Z" fill="white"/>
<path d="M178.766 191.627C178.766 191.627 190.284 191.627 196.275 191.627C202.266 191.627 211.925 196.198 211.925 220.395C211.925 244.593 202.24 249.163 196.275 249.163C190.31 249.163 178.766 249.163 178.766 249.163C171.406 249.163 168.023 249.163 163.711 249.163C159.398 249.163 154.182 243.689 154.182 238.756H167.998C167.998 238.756 173.524 235.063 173.834 230.157C174.144 225.25 173.834 216.341 173.834 216.341C173.834 216.341 171.071 207.741 172 205.288C172.93 202.861 178.766 191.627 178.766 191.627Z" fill="black"/>
<path d="M205.469 220.396C205.469 228.272 202.938 234.677 199.788 234.677C196.663 234.677 194.106 228.298 194.106 220.396C194.106 212.494 196.663 206.115 199.788 206.115C202.938 206.115 205.469 212.52 205.469 220.396Z" fill="white"/>
<path d="M282.58 170.039C282.58 170.039 283.587 147.107 278.138 149.044C272.508 151.032 272.095 173.138 272.095 173.138" stroke="black" stroke-width="2.70509" stroke-miterlimit="10" stroke-linecap="round" stroke-linejoin="round"/>
<path d="M272.224 165.933L283.509 209.292L327.411 198.265L313.465 155.216L272.224 165.933Z" fill="#C6C8CA" stroke="black" stroke-width="3.24585" stroke-miterlimit="10" stroke-linecap="round" stroke-linejoin="round"/>
<path d="M256.653 170.323L267.912 213.708L286.919 208.776L272.999 165.727L256.653 170.323Z" fill="white" stroke="black" stroke-width="3.24585" stroke-miterlimit="10" stroke-linecap="round" stroke-linejoin="round"/>
<path d="M260.862 173.473L266.724 177.269L269.952 170.942" fill="white"/>
<path d="M260.862 173.473L266.724 177.269L269.952 170.942" stroke="black" stroke-width="2.70509" stroke-miterlimit="10" stroke-linecap="round" stroke-linejoin="round"/>
<path d="M266.724 177.27L274.084 201.854L281.599 205.728" fill="white"/>
<path d="M266.724 177.27L274.084 201.854L281.599 205.728" stroke="black" stroke-width="2.70509" stroke-miterlimit="10" stroke-linecap="round" stroke-linejoin="round"/>
<path d="M274.085 201.854L270.727 208.903" stroke="black" stroke-width="2.70509" stroke-miterlimit="10" stroke-linecap="round" stroke-linejoin="round"/>
<path d="M289.191 167.792C289.191 167.792 275.375 149.457 280.953 147.959C286.712 146.409 299.598 164.409 299.598 164.409" stroke="black" stroke-width="2.70509" stroke-miterlimit="10" stroke-linecap="round" stroke-linejoin="round"/>
<path d="M306.596 152.788L346.986 173.215L365.011 142.613L324.957 121.644L306.596 152.788Z" fill="#C6C8CA" stroke="black" stroke-width="3.24585" stroke-miterlimit="10" stroke-linecap="round" stroke-linejoin="round"/>
<path d="M299.908 164.822L338.516 187.573L346.986 173.215L306.933 152.22L299.908 164.822Z" fill="white" stroke="black" stroke-width="3.24585" stroke-miterlimit="10" stroke-linecap="round" stroke-linejoin="round"/>
<path d="M305.72 164.177L311.323 163.634L308.793 157.488" fill="white"/>
<path d="M305.72 164.177L311.323 163.634L308.793 157.488" stroke="black" stroke-width="2.70509" stroke-miterlimit="10" stroke-linecap="round" stroke-linejoin="round"/>
<path d="M311.323 163.634L333.842 175.978L341.408 174.248" fill="white"/>
<path d="M311.323 163.634L333.842 175.978L341.408 174.248" stroke="black" stroke-width="2.70509" stroke-miterlimit="10" stroke-linecap="round" stroke-linejoin="round"/>
<path d="M333.842 175.979L336.837 182.693" stroke="black" stroke-width="2.70509" stroke-miterlimit="10" stroke-linecap="round" stroke-linejoin="round"/>
<path d="M280.307 146.331C280.307 146.331 289.837 150.308 297.584 150.799C305.331 151.29 310.599 150.308 312.665 148.604C314.757 146.925 317.933 144.524 317.83 142.251C317.727 139.979 319.018 135.898 318.734 135.511C318.424 135.124 311.994 124.794 311.994 124.794L285.395 131.147L279.843 135.898L280.307 146.331Z" fill="#FFC232"/>
<path d="M296.086 139.876C296.086 139.876 291.154 135.925 282.709 136.855C274.936 137.707 271.992 142.846 272.018 147.313L272.379 150.903C272.457 152.117 273.516 153.046 274.729 152.969C275.943 152.891 276.873 151.833 276.795 150.619L276.563 147.572L276.795 150.619C276.873 151.833 277.931 152.762 279.145 152.685C280.359 152.607 281.289 151.549 281.211 150.335C281.289 151.549 282.347 152.478 283.561 152.401C284.775 152.323 285.705 151.264 285.627 150.051L285.55 146.306C285.55 146.306 287.667 145.686 287.641 143.13" fill="#FFC232"/>
<path d="M287.59 143.077C287.616 145.634 285.499 146.254 285.499 146.254L285.576 149.998C285.654 151.212 284.724 152.271 283.51 152.348C282.296 152.426 281.238 151.522 281.16 150.282C281.238 151.496 280.334 152.555 279.094 152.632C277.88 152.71 276.822 151.806 276.744 150.566L276.512 147.519L276.744 150.566C276.822 151.78 275.892 152.839 274.678 152.916C273.464 152.994 272.406 152.09 272.328 150.85L271.967 147.261C271.915 142.793 274.239 136.518 282.038 135.976C286.196 135.666 290.069 136.363 292.755 136.776C295.441 137.163 302.284 138.558 306.545 137.861" stroke="black" stroke-width="3.24585" stroke-miterlimit="10" stroke-linecap="round" stroke-linejoin="round"/>
<path d="M280.978 147.416L281.185 150.308" stroke="black" stroke-width="3.24585" stroke-miterlimit="10" stroke-linecap="round" stroke-linejoin="round"/>
<path d="M285.577 147.959C285.577 147.959 305.9 153.847 313.88 148.01C322.015 142.045 318.554 132.335 314.371 127.377" stroke="black" stroke-width="3.24585" stroke-miterlimit="10" stroke-linecap="round" stroke-linejoin="round"/>
<path d="M328.367 131.741C328.367 131.741 315.352 124.795 308.715 127.661C302.078 130.528 304.635 137.474 304.635 137.474" stroke="black" stroke-width="2.70509" stroke-miterlimit="10" stroke-linecap="round" stroke-linejoin="round"/>
<path d="M315.454 146.719L318.734 148.707" stroke="black" stroke-width="2.70509" stroke-miterlimit="10" stroke-linecap="round" stroke-linejoin="round"/>
<path d="M174.428 9.10235C175.084 9.10235 175.616 8.57052 175.616 7.91446C175.616 7.25839 175.084 6.72656 174.428 6.72656C173.772 6.72656 173.24 7.25839 173.24 7.91446C173.24 8.57052 173.772 9.10235 174.428 9.10235Z" fill="#F4763A"/>
<path d="M175.642 14.0857C175.642 13.6984 175.642 13.2852 175.616 12.8979C175.59 12.5621 175.564 12.2522 175.538 11.9165V11.8907C175.538 11.8133 175.461 11.7616 175.383 11.7357H175.358C175.048 11.7099 174.738 11.71 174.428 11.71C173.782 11.71 173.24 12.2264 173.24 12.8979C173.214 13.2852 173.214 13.6984 173.214 14.0857C173.214 14.4731 173.214 14.8864 173.24 15.2737C173.266 15.6094 173.292 15.9193 173.318 16.255V16.2808C173.318 16.3583 173.395 16.4099 173.472 16.4358H173.498C173.808 16.4616 174.118 16.4616 174.428 16.4616C175.074 16.4616 175.616 15.9451 175.616 15.2737C175.642 14.8864 175.642 14.4989 175.642 14.0857Z" fill="#F4763A"/>
<path d="M165.442 14.2662C165.442 14.5244 165.881 14.1887 165.958 14.1629C166.268 13.9821 166.604 13.8013 166.939 13.6206C167.585 13.2849 168.231 13.0008 168.902 12.7167C170.193 12.2002 171.562 11.8129 172.931 11.5547C174.325 11.2964 175.771 11.1673 177.192 11.2189C178.199 11.2706 179.955 11.8129 179.748 13.1299C179.697 13.3882 179.619 13.6464 179.516 13.9047C179.464 14.0596 179.258 14.3437 179.542 14.3437C179.774 14.3437 180.161 13.9821 180.316 13.853C180.575 13.6464 180.833 13.414 181.065 13.1558C181.866 12.2519 182.15 10.9607 181.117 10.0827C180.084 9.20465 178.612 9.15303 177.347 9.2305C175.9 9.30798 174.48 9.54037 173.086 9.92773C171.562 10.3409 170.09 10.909 168.696 11.6579C168.05 11.9936 167.353 12.381 166.759 12.82C166.475 13.0266 166.216 13.2849 165.984 13.5431C165.803 13.6722 165.442 14.0338 165.442 14.2662Z" fill="#518043"/>
<path d="M183.622 13.9819C183.622 13.7236 183.183 14.0593 183.105 14.0851C182.796 14.2659 182.46 14.4467 182.124 14.6275C181.479 14.9632 180.833 15.2472 180.162 15.5313C178.87 16.0477 177.502 16.4351 176.133 16.6934C174.738 16.9516 173.292 17.0808 171.872 17.0291C170.865 16.9775 169.109 16.4352 169.315 15.1181C169.367 14.8599 169.444 14.6016 169.548 14.3434C169.599 14.1884 169.806 13.9044 169.522 13.9044C169.289 13.9044 168.902 14.2659 168.747 14.3951C168.489 14.6017 168.231 14.8341 167.998 15.0923C167.198 15.9961 166.914 17.2874 167.947 18.1654C168.98 19.0434 170.452 19.095 171.717 19.0175C173.163 18.9401 174.583 18.7077 175.978 18.3203C177.502 17.9071 178.974 17.339 180.368 16.5901C181.014 16.2543 181.711 15.867 182.305 15.428C182.589 15.2214 182.847 14.9632 183.08 14.7049C183.26 14.55 183.622 14.2143 183.622 13.9819Z" fill="#31376B"/>
<path d="M154.028 26.3261L156.12 26.1711C156.171 26.5069 156.352 26.7909 156.636 26.9975C156.92 27.2041 157.256 27.3074 157.643 27.3074C158.082 27.3074 158.444 27.1782 158.754 26.92C159.064 26.6617 159.219 26.2744 159.219 25.7321C159.219 25.2414 159.064 24.8799 158.779 24.6217C158.47 24.3634 158.082 24.2601 157.617 24.2601C157.023 24.2601 156.481 24.4667 156.016 24.8541L154.312 24.6733L155.371 20.5156H160.897V21.9618H156.972L156.636 23.3305C157.101 23.1497 157.566 23.0722 158.056 23.0722C158.986 23.0722 159.761 23.3305 160.406 23.8211C161.052 24.3118 161.362 24.9574 161.362 25.7579C161.362 26.4294 161.104 26.9975 160.587 27.514C159.89 28.2112 158.909 28.5728 157.643 28.5728C156.636 28.5728 155.81 28.3662 155.19 27.9788C154.544 27.514 154.157 26.9975 154.028 26.3261Z" fill="#D92528"/>
<path d="M162.576 26.3261L164.667 26.1711C164.719 26.5069 164.9 26.7909 165.184 26.9975C165.468 27.2041 165.804 27.3074 166.191 27.3074C166.63 27.3074 166.992 27.1782 167.302 26.92C167.611 26.6617 167.766 26.2744 167.766 25.7321C167.766 25.2414 167.611 24.8799 167.327 24.6217C167.017 24.3634 166.63 24.2601 166.165 24.2601C165.571 24.2601 165.029 24.4667 164.564 24.8541L162.86 24.6733L163.919 20.5156H169.445V21.9618H165.52L165.184 23.3305C165.649 23.1497 166.114 23.0722 166.604 23.0722C167.534 23.0722 168.309 23.3305 168.954 23.8211C169.6 24.3118 169.91 24.9574 169.91 25.7579C169.91 26.4294 169.652 26.9975 169.135 27.514C168.438 28.2112 167.456 28.5728 166.191 28.5728C165.184 28.5728 164.358 28.3662 163.738 27.9788C163.066 27.514 162.679 26.9975 162.576 26.3261Z" fill="#D92528"/>
<path d="M178.147 22.3498L176.133 22.5047C176.081 22.1948 175.952 21.9624 175.746 21.8333C175.539 21.6783 175.255 21.6267 174.945 21.6267C174.506 21.6267 174.119 21.7816 173.835 22.0657C173.525 22.3497 173.344 22.9695 173.267 23.8734C173.783 23.4344 174.429 23.2019 175.203 23.2019C176.081 23.2019 176.83 23.4343 177.45 23.925C178.07 24.4157 178.38 25.0355 178.38 25.8102C178.38 26.6366 178.044 27.2822 177.399 27.7729C176.753 28.2635 175.901 28.5217 174.868 28.5217C173.757 28.5217 172.853 28.2119 172.156 27.5921C171.459 26.9723 171.097 25.9393 171.097 24.519C171.097 23.047 171.459 21.9882 172.208 21.3426C172.957 20.697 173.912 20.3613 175.074 20.3613C175.901 20.3613 176.598 20.5421 177.14 20.8778C177.657 21.1877 177.992 21.7042 178.147 22.3498ZM173.422 25.6811C173.422 26.1718 173.577 26.5591 173.886 26.8432C174.196 27.1014 174.558 27.2564 174.945 27.2564C175.333 27.2564 175.642 27.153 175.901 26.9206C176.159 26.6882 176.288 26.3267 176.288 25.8361C176.288 25.3196 176.159 24.9322 175.875 24.6998C175.591 24.4674 175.255 24.3382 174.842 24.3382C174.429 24.3382 174.093 24.4415 173.835 24.6739C173.551 24.8805 173.422 25.2421 173.422 25.6811Z" fill="#D92528"/>
<path d="M181.402 24.0537C180.859 23.8729 180.472 23.6662 180.214 23.3564C179.956 23.0465 179.852 22.7366 179.852 22.4009C179.852 21.8069 180.136 21.3163 180.705 20.9289C181.273 20.5416 182.073 20.335 183.132 20.335C184.165 20.335 184.965 20.5416 185.534 20.9289C186.102 21.3163 186.386 21.8069 186.386 22.4009C186.386 22.7624 186.257 23.0981 185.998 23.3822C185.74 23.6663 185.379 23.8987 184.888 24.0537C185.482 24.2344 185.947 24.4926 186.257 24.8284C186.567 25.1641 186.722 25.5773 186.722 26.0163C186.722 26.7652 186.412 27.3591 185.766 27.824C185.12 28.2888 184.268 28.5212 183.209 28.5212C182.228 28.5212 181.402 28.3405 180.73 27.9531C179.956 27.5141 179.568 26.8943 179.568 26.0938C179.568 25.6548 179.723 25.2674 180.007 24.9058C180.317 24.5443 180.782 24.2603 181.402 24.0537ZM181.634 25.9388C181.634 26.352 181.789 26.6877 182.073 26.9201C182.357 27.1525 182.745 27.2817 183.184 27.2817C183.623 27.2817 183.958 27.1784 184.242 26.946C184.526 26.7135 184.656 26.3778 184.656 25.9646C184.656 25.5773 184.501 25.2932 184.217 25.0608C183.933 24.8283 183.571 24.7251 183.132 24.7251C182.616 24.7251 182.254 24.8542 181.996 25.1125C181.763 25.3707 181.634 25.6547 181.634 25.9388ZM181.841 22.53C181.841 22.8399 181.97 23.0723 182.202 23.2531C182.435 23.4339 182.745 23.5114 183.132 23.5114C183.519 23.5114 183.855 23.4339 184.087 23.2531C184.32 23.0723 184.449 22.8399 184.449 22.53C184.449 22.246 184.32 22.0135 184.087 21.8327C183.855 21.652 183.545 21.5746 183.158 21.5746C182.745 21.5746 182.435 21.652 182.202 21.8327C181.944 22.0135 181.841 22.2201 181.841 22.53Z" fill="#D92528"/>
<path d="M189.95 24.0537C189.407 23.8729 189.02 23.6662 188.762 23.3564C188.503 23.0465 188.4 22.7366 188.4 22.4009C188.4 21.8069 188.684 21.3163 189.252 20.9289C189.82 20.5416 190.621 20.335 191.68 20.335C192.713 20.335 193.513 20.5416 194.082 20.9289C194.65 21.3163 194.934 21.8069 194.934 22.4009C194.934 22.7624 194.805 23.0981 194.546 23.3822C194.288 23.6663 193.927 23.8987 193.436 24.0537C194.03 24.2344 194.495 24.4926 194.805 24.8284C195.114 25.1641 195.269 25.5773 195.269 26.0163C195.269 26.7652 194.96 27.3591 194.314 27.824C193.668 28.2888 192.816 28.5212 191.757 28.5212C190.776 28.5212 189.95 28.3405 189.278 27.9531C188.503 27.5141 188.116 26.8943 188.116 26.0938C188.116 25.6548 188.271 25.2674 188.555 24.9058C188.865 24.5443 189.304 24.2603 189.95 24.0537ZM190.182 25.9388C190.182 26.352 190.337 26.6877 190.621 26.9201C190.905 27.1525 191.292 27.2817 191.732 27.2817C192.171 27.2817 192.506 27.1784 192.79 26.946C193.074 26.7135 193.203 26.3778 193.203 25.9646C193.203 25.5773 193.049 25.2932 192.764 25.0608C192.48 24.8283 192.119 24.7251 191.68 24.7251C191.163 24.7251 190.802 24.8542 190.544 25.1125C190.311 25.3707 190.182 25.6547 190.182 25.9388ZM190.363 22.53C190.363 22.8399 190.492 23.0723 190.724 23.2531C190.957 23.4339 191.267 23.5114 191.654 23.5114C192.041 23.5114 192.377 23.4339 192.61 23.2531C192.842 23.0723 192.971 22.8399 192.971 22.53C192.971 22.246 192.842 22.0135 192.61 21.8327C192.377 21.652 192.067 21.5746 191.68 21.5746C191.267 21.5746 190.957 21.652 190.724 21.8327C190.492 22.0135 190.363 22.2201 190.363 22.53Z" fill="#D92528"/>
</svg>
