<svg width="299" height="116" viewBox="0 0 299 116" fill="none" xmlns="http://www.w3.org/2000/svg">
<path fill-rule="evenodd" clip-rule="evenodd" d="M0 8C0 3.58172 3.58172 0 8 0H291C295.418 0 299 3.58172 299 8V40.7311C298.93 40.7302 298.86 40.7297 298.79 40.7297C288.919 40.7297 280.917 49.6378 280.917 60.6264C280.917 71.6151 288.919 80.5231 298.79 80.5231C298.86 80.5231 298.93 80.5227 299 80.5218V107.635C299 112.053 295.418 115.635 291 115.635H8C3.58173 115.635 0 112.053 0 107.635V80.5218C9.77395 80.3963 17.6625 71.5369 17.6625 60.6264C17.6625 49.7159 9.77395 40.8565 0 40.7311V8Z" fill="#F7FAFF"/>
<path fill-rule="evenodd" clip-rule="evenodd" d="M8 6C6.89543 6 6 6.89543 6 8V35.5986C16.4973 38.6174 23.6625 49.0975 23.6625 60.6264C23.6625 72.1553 16.4973 82.6354 6 85.6543V107.635C6 108.739 6.89543 109.635 8 109.635H291C292.105 109.635 293 108.739 293 107.635V85.7723C282.277 82.917 274.917 72.3055 274.917 60.6264C274.917 48.9474 282.277 38.3358 293 35.4806V8C293 6.89543 292.105 6 291 6H8ZM299 8C299 3.58172 295.418 0 291 0H8C3.58172 0 0 3.58172 0 8V40.7311C9.77395 40.8565 17.6625 49.7159 17.6625 60.6264C17.6625 71.5369 9.77395 80.3963 0 80.5218V107.635C0 112.053 3.58173 115.635 8 115.635H291C295.418 115.635 299 112.053 299 107.635V80.5218C298.93 80.5227 298.86 80.5231 298.79 80.5231C298.72 80.5231 298.649 80.5227 298.579 80.5218C288.805 80.3963 280.917 71.5369 280.917 60.6264C280.917 49.716 288.805 40.8566 298.579 40.7311C298.649 40.7302 298.72 40.7297 298.79 40.7297C298.86 40.7297 298.93 40.7302 299 40.7311V8Z" fill="#99C0FA"/>
<path fill-rule="evenodd" clip-rule="evenodd" d="M18.5 21C18.5 15.7533 22.7533 11.5 28 11.5H271C276.247 11.5 280.5 15.7533 280.5 21V28.5H277.5V21C277.5 17.4101 274.59 14.5 271 14.5H28C24.4101 14.5 21.5 17.4101 21.5 21V28.5H18.5V21ZM21.5 88.5V95C21.5 98.5899 24.4101 101.5 28 101.5H271C274.59 101.5 277.5 98.5899 277.5 95V88.5H280.5V95C280.5 100.247 276.247 104.5 271 104.5H28C22.7533 104.5 18.5 100.247 18.5 95V88.5H21.5Z" fill="#F7FAFF"/>
<path fill-rule="evenodd" clip-rule="evenodd" d="M21.5 28.5V21C21.5 17.4101 24.4101 14.5 28 14.5H271C274.59 14.5 277.5 17.4101 277.5 21V28.5H280.5V21C280.5 15.7533 276.247 11.5 271 11.5H28C22.7533 11.5 18.5 15.7533 18.5 21V28.5H21.5ZM277.5 88.5H280.5V95C280.5 100.247 276.247 104.5 271 104.5H28C22.7533 104.5 18.5 100.247 18.5 95V88.5H21.5V95C21.5 98.5899 24.4101 101.5 28 101.5H271C274.59 101.5 277.5 98.5899 277.5 95V88.5Z" fill="#7CB0FE"/>
<path d="M251.217 61.0686C251.217 73.809 240.889 84.1372 228.148 84.1372C215.408 84.1372 205.08 73.809 205.08 61.0686C205.08 48.3282 215.408 38 228.148 38C240.889 38 251.217 48.3282 251.217 61.0686Z" fill="#FFC232"/>
<path fill-rule="evenodd" clip-rule="evenodd" d="M228.148 81.674C239.528 81.674 248.754 72.4486 248.754 61.0686C248.754 49.6885 239.528 40.4632 228.148 40.4632C216.768 40.4632 207.543 49.6885 207.543 61.0686C207.543 72.4486 216.768 81.674 228.148 81.674ZM228.148 84.1372C240.889 84.1372 251.217 73.809 251.217 61.0686C251.217 48.3282 240.889 38 228.148 38C215.408 38 205.08 48.3282 205.08 61.0686C205.08 73.809 215.408 84.1372 228.148 84.1372Z" fill="black"/>
<path fill-rule="evenodd" clip-rule="evenodd" d="M236.278 42.2357H219.866V39.7725H236.278V42.2357Z" fill="black"/>
<path fill-rule="evenodd" clip-rule="evenodd" d="M243.161 47.0008H220.924V44.5376H243.161V47.0008Z" fill="black"/>
<path fill-rule="evenodd" clip-rule="evenodd" d="M248.338 52.2952H222.924V49.832H248.338V52.2952Z" fill="black"/>
<path fill-rule="evenodd" clip-rule="evenodd" d="M249.926 57.5897H222.395V55.1265H249.926V57.5897Z" fill="black"/>
<path fill-rule="evenodd" clip-rule="evenodd" d="M250.456 62.8841H222.395V60.4209H250.456V62.8841Z" fill="black"/>
<path fill-rule="evenodd" clip-rule="evenodd" d="M249.926 68.1785H221.866V65.7153H249.926V68.1785Z" fill="black"/>
<path fill-rule="evenodd" clip-rule="evenodd" d="M247.279 73.473H221.336V71.0098H247.279V73.473Z" fill="black"/>
<path d="M247.354 63.1863C247.354 75.9267 237.026 86.2549 224.286 86.2549C211.545 86.2549 201.217 75.9267 201.217 63.1863C201.217 50.4458 211.545 40.1177 224.286 40.1177C237.026 40.1177 247.354 50.4458 247.354 63.1863Z" fill="#FFC232"/>
<path fill-rule="evenodd" clip-rule="evenodd" d="M224.286 83.7917C235.666 83.7917 244.891 74.5663 244.891 63.1863C244.891 51.8062 235.666 42.5809 224.286 42.5809C212.906 42.5809 203.68 51.8062 203.68 63.1863C203.68 74.5663 212.906 83.7917 224.286 83.7917ZM224.286 86.2549C237.026 86.2549 247.354 75.9267 247.354 63.1863C247.354 50.4458 237.026 40.1177 224.286 40.1177C211.545 40.1177 201.217 50.4458 201.217 63.1863C201.217 75.9267 211.545 86.2549 224.286 86.2549Z" fill="black"/>
<path d="M233.502 55.4604V59.3784H227.345V75.8751H222.75V59.3784H216.593V55.4604H233.502Z" fill="white"/>
<path fill-rule="evenodd" clip-rule="evenodd" d="M235.418 53.5439V61.2951H229.262V77.7918H220.833V61.2951H214.676V53.5439H235.418ZM222.749 59.3785V75.8752H227.345V59.3785H233.502V55.4605H216.593V59.3785H222.749Z" fill="black"/>
<path d="M55.76 45.6681C57.0747 45.1241 58.4347 44.5121 59.84 43.8321C61.2907 43.1068 62.696 42.3361 64.056 41.5201C65.416 40.6588 66.708 39.7748 67.932 38.8681C69.2013 37.9161 70.3347 36.9188 71.332 35.8761H78.404V83.0001H68.272V49.0681C66.912 49.9748 65.3933 50.8134 63.716 51.5841C62.0387 52.3094 60.4067 52.9441 58.82 53.4881L55.76 45.6681Z" fill="#FFC232"/>
<path d="M123.648 69.1281C123.648 67.8134 123.354 66.6574 122.764 65.6601C122.175 64.6174 121.155 63.7561 119.704 63.0761C118.254 62.3961 116.304 61.8748 113.856 61.5121C111.408 61.1494 108.326 60.9681 104.608 60.9681C105.107 56.7521 105.515 52.4681 105.832 48.1161C106.15 43.7641 106.399 39.6841 106.58 35.8761H132.08V44.3761H115.08C114.99 46.0081 114.876 47.5948 114.74 49.1361C114.65 50.6321 114.536 51.9468 114.4 53.0801C121.019 53.5334 125.892 55.0974 129.02 57.7721C132.194 60.4014 133.78 64.0734 133.78 68.7881C133.78 70.9641 133.395 72.9814 132.624 74.8401C131.854 76.6988 130.698 78.3081 129.156 79.6681C127.615 81.0281 125.666 82.0934 123.308 82.8641C120.996 83.6348 118.276 84.0201 115.148 84.0201C113.924 84.0201 112.632 83.9294 111.272 83.7481C109.958 83.6121 108.666 83.4081 107.396 83.1361C106.172 82.9094 105.062 82.6601 104.064 82.3881C103.067 82.1161 102.296 81.8441 101.752 81.5721L103.588 73.2081C104.722 73.7068 106.218 74.2054 108.076 74.7041C109.935 75.1574 112.156 75.3841 114.74 75.3841C117.868 75.3841 120.135 74.7721 121.54 73.5481C122.946 72.2788 123.648 70.8054 123.648 69.1281Z" fill="#FFC232"/>
<path d="M183.649 59.3361C183.649 67.2694 182.13 73.3668 179.093 77.6281C176.101 81.8441 171.953 83.9521 166.649 83.9521C161.345 83.9521 157.174 81.8441 154.137 77.6281C151.145 73.3668 149.649 67.2694 149.649 59.3361C149.649 55.3921 150.034 51.9014 150.805 48.8641C151.621 45.8268 152.777 43.2654 154.273 41.1801C155.769 39.0948 157.56 37.5081 159.645 36.4201C161.73 35.3321 164.065 34.7881 166.649 34.7881C171.953 34.7881 176.101 36.9188 179.093 41.1801C182.13 45.3961 183.649 51.4481 183.649 59.3361ZM173.313 59.3361C173.313 56.9788 173.2 54.8481 172.973 52.9441C172.746 50.9948 172.384 49.3174 171.885 47.9121C171.386 46.5068 170.706 45.4188 169.845 44.6481C168.984 43.8774 167.918 43.4921 166.649 43.4921C165.38 43.4921 164.314 43.8774 163.453 44.6481C162.637 45.4188 161.957 46.5068 161.413 47.9121C160.914 49.3174 160.552 50.9948 160.325 52.9441C160.098 54.8481 159.985 56.9788 159.985 59.3361C159.985 61.6934 160.098 63.8468 160.325 65.7961C160.552 67.7454 160.914 69.4228 161.413 70.8281C161.957 72.2334 162.637 73.3214 163.453 74.0921C164.314 74.8628 165.38 75.2481 166.649 75.2481C167.918 75.2481 168.984 74.8628 169.845 74.0921C170.706 73.3214 171.386 72.2334 171.885 70.8281C172.384 69.4228 172.746 67.7454 172.973 65.7961C173.2 63.8468 173.313 61.6934 173.313 59.3361Z" fill="#FFC232"/>
<path fill-rule="evenodd" clip-rule="evenodd" d="M50.2733 43.3305L54.1321 41.7338C55.3557 41.2275 56.6317 40.6539 57.9606 40.0114C59.2915 39.3452 60.5783 38.6398 61.8214 37.8954C63.0788 37.0977 64.2671 36.2838 65.3873 35.4543C66.4843 34.6309 67.4365 33.7889 68.2552 32.9329L69.5127 31.6183H82.6617V87.2576H64.0143V56.078C62.7242 56.6067 61.453 57.0862 60.2009 57.5155L56.3417 58.8386L50.2733 43.3305ZM64.0143 51.4454C65.5739 50.713 66.9931 49.9206 68.272 49.0679V83H78.404V35.8759H71.332C70.3347 36.9186 69.2013 37.9159 67.932 38.8679C66.708 39.7746 65.416 40.6586 64.056 41.5199C62.696 42.3359 61.2907 43.1066 59.84 43.8319C58.4347 44.5119 57.0747 45.1239 55.76 45.6679L58.82 53.4879C60.4067 52.944 62.0387 52.3093 63.716 51.584C63.816 51.538 63.9154 51.4918 64.0143 51.4454ZM119.078 67.7907L119.058 67.755C119.029 67.7037 118.814 67.3608 117.897 66.9311C116.967 66.4951 115.468 66.0548 113.232 65.7237C111.066 65.4027 108.21 65.2256 104.608 65.2256H99.8175L100.38 60.4678C100.871 56.3169 101.273 52.0965 101.586 47.8063C101.901 43.485 102.148 39.441 102.328 35.6734L102.521 31.6183H136.338V48.6336H119.056C119.038 48.8587 119.019 49.083 118.999 49.3064C124.133 50.1091 128.507 51.742 131.762 54.5146C136.042 58.0733 138.038 63.0215 138.038 68.7879C138.038 71.4776 137.559 74.0542 136.557 76.4707C135.533 78.9414 133.99 81.0812 131.973 82.8605C129.92 84.6721 127.435 85.9928 124.643 86.907C121.797 87.854 118.606 88.2776 115.148 88.2776C113.735 88.2776 112.275 88.1744 110.772 87.9765C109.349 87.8272 107.946 87.6058 106.563 87.3117C105.268 87.0704 104.059 86.7996 102.944 86.4956C101.836 86.1933 100.757 85.8345 99.8483 85.3801L96.8829 83.8974L100.544 67.217L105.303 69.3108C106.153 69.685 107.405 70.1139 109.13 70.5785C110.561 70.9222 112.411 71.1263 114.74 71.1263C117.416 71.1263 118.439 70.5862 118.723 70.3547C119.328 69.7963 119.391 69.4327 119.391 69.1279C119.391 68.4704 119.251 68.0826 119.099 67.826L119.078 67.7907ZM121.54 73.548C120.135 74.7719 117.868 75.3839 114.74 75.3839C112.156 75.3839 109.935 75.1573 108.076 74.7039C107.93 74.6648 107.787 74.6256 107.645 74.5864C105.985 74.1269 104.633 73.6674 103.588 73.208L101.752 81.5719C102.296 81.844 103.067 82.116 104.064 82.388C105.062 82.66 106.172 82.9093 107.396 83.136C108.666 83.4079 109.958 83.6119 111.272 83.748C112.632 83.9293 113.924 84.0199 115.148 84.0199C118.276 84.0199 120.996 83.6346 123.308 82.8639C125.666 82.0933 127.615 81.028 129.156 79.6679C130.698 78.3079 131.854 76.6986 132.624 74.84C133.395 72.9813 133.78 70.964 133.78 68.7879C133.78 64.0733 132.194 60.4013 129.02 57.7719C126.601 55.7034 123.138 54.2992 118.631 53.5592C117.311 53.3424 115.9 53.1827 114.4 53.0799C114.536 51.9466 114.65 50.6319 114.74 49.1359C114.749 49.0366 114.758 48.9371 114.766 48.8374C114.891 47.3899 114.996 45.9028 115.08 44.3759H132.08V35.8759H106.58C106.399 39.6839 106.15 43.7639 105.832 48.1159C105.621 51.0111 105.37 53.8762 105.079 56.7112C104.932 58.1377 104.775 59.5567 104.608 60.9679C106.142 60.9679 107.567 60.9988 108.885 61.0605C110.761 61.1484 112.418 61.2989 113.856 61.5119C116.304 61.8746 118.254 62.396 119.704 63.076C121.155 63.7559 122.175 64.6173 122.764 65.66C123.354 66.6573 123.648 67.8133 123.648 69.1279C123.648 70.8053 122.946 72.2786 121.54 73.548ZM150.667 80.0957L150.652 80.0745C146.957 74.8108 145.391 67.715 145.391 59.3359C145.391 55.1253 145.801 51.2712 146.678 47.8168L146.685 47.788L146.693 47.7593C147.613 44.3352 148.96 41.2815 150.813 38.6981C152.662 36.1214 154.946 34.0689 157.675 32.6452C160.427 31.2095 163.448 30.5303 166.649 30.5303C173.3 30.5303 178.756 33.3043 182.562 38.7116C186.318 43.9381 187.907 51.0013 187.907 59.3359C187.907 67.725 186.315 74.8312 182.56 80.0992C178.745 85.4698 173.287 88.2096 166.649 88.2096C160.01 88.2096 154.539 85.4705 150.682 80.1167L150.667 80.0957ZM154.137 77.6279C151.145 73.3666 149.649 67.2693 149.649 59.3359C149.649 55.3919 150.034 51.9013 150.805 48.8639C151.621 45.8266 152.777 43.2653 154.273 41.1799C155.769 39.0946 157.56 37.5079 159.645 36.4199C161.73 35.3319 164.065 34.7879 166.649 34.7879C171.953 34.7879 176.101 36.9186 179.093 41.1799C182.13 45.3959 183.649 51.4479 183.649 59.3359C183.649 67.2693 182.13 73.3666 179.093 77.6279C176.101 81.844 171.953 83.952 166.649 83.952C161.345 83.952 157.174 81.844 154.137 77.6279ZM168.745 53.4473L168.744 53.4357C168.543 51.7107 168.237 50.3621 167.872 49.3358C167.545 48.4127 167.203 47.9977 167.006 47.8209C166.985 47.8026 166.974 47.7952 166.97 47.7931C166.967 47.7911 166.962 47.7885 166.952 47.7848C166.936 47.779 166.849 47.7496 166.649 47.7496C166.449 47.7496 166.362 47.779 166.346 47.7848C166.336 47.7885 166.331 47.7911 166.328 47.7931C166.327 47.7937 166.325 47.7947 166.323 47.7963C166.098 48.0279 165.758 48.4985 165.405 49.3932C165.05 50.4123 164.751 51.7427 164.554 53.4357L164.553 53.4473C164.35 55.1515 164.243 57.1103 164.243 59.3359C164.243 61.5604 164.35 63.5466 164.554 65.3042C164.751 66.9972 165.05 68.3276 165.405 69.3467C165.758 70.2414 166.098 70.712 166.323 70.9436C166.325 70.9452 166.327 70.9462 166.328 70.9468C166.331 70.9488 166.336 70.9514 166.346 70.9551C166.362 70.9609 166.449 70.9903 166.649 70.9903C166.849 70.9903 166.936 70.9609 166.952 70.9551C166.962 70.9514 166.967 70.9488 166.97 70.9468C166.972 70.9454 166.978 70.9418 166.988 70.9343C166.993 70.9303 166.999 70.9253 167.006 70.919C167.203 70.7422 167.545 70.3272 167.872 69.4041C168.237 68.3778 168.543 67.0292 168.744 65.3042C168.948 63.5466 169.055 61.5604 169.055 59.3359C169.055 57.1103 168.948 55.1515 168.745 53.4473ZM163.453 74.0919C162.637 73.3213 161.957 72.2333 161.413 70.8279C160.914 69.4226 160.552 67.7453 160.325 65.7959C160.098 63.8466 159.985 61.6933 159.985 59.3359C159.985 56.9786 160.098 54.8479 160.325 52.9439C160.552 50.9946 160.914 49.3173 161.413 47.9119C161.957 46.5066 162.637 45.4186 163.453 44.6479C164.314 43.8773 165.38 43.4919 166.649 43.4919C167.918 43.4919 168.984 43.8773 169.845 44.6479C170.706 45.4186 171.386 46.5066 171.885 47.9119C172.384 49.3173 172.746 50.9946 172.973 52.9439C173.2 54.8479 173.313 56.9786 173.313 59.3359C173.313 61.6933 173.2 63.8466 172.973 65.7959C172.746 67.7453 172.384 69.4226 171.885 70.8279C171.386 72.2333 170.706 73.3213 169.845 74.0919C168.984 74.8626 167.918 75.248 166.649 75.248C165.38 75.248 164.314 74.8626 163.453 74.0919Z" fill="black"/>
</svg>
