<svg width="994" height="230" viewBox="0 0 994 230" fill="none" xmlns="http://www.w3.org/2000/svg">
<path d="M276.799 167H341.066L185.528 221.515H111L276.799 167Z" fill="white"/>
<path d="M929.733 221.515H994L838.462 167H763.934L929.733 221.515Z" fill="white"/>
<path d="M407.494 167H476.082L412.894 225.888H320.814L407.494 167Z" fill="white"/>
<path d="M528.468 167H579.773L602.186 225.888H502.545L528.468 167Z" fill="white"/>
<path d="M635.13 167H699.127L783.107 225.888H689.946L635.13 167Z" fill="white"/>
<path opacity="0.8" fill-rule="evenodd" clip-rule="evenodd" d="M119.452 209.957C126.663 206.373 139.218 204 153.5 204C175.868 204 194 209.82 194 217C194 224.18 175.868 230 153.5 230C138.802 230 125.933 227.487 118.835 223.726C108.916 227.182 91.8559 229.464 72.4744 229.464C41.8367 229.464 17 223.763 17 216.732C17 209.7 41.8367 204 72.4744 204C92.2639 204 109.633 206.378 119.452 209.957Z" fill="#548CE0"/>
<path d="M178.406 87.8243L101.731 108.85L107.354 86.9939L173.56 68.6289L183.45 65.9922L185.132 72.3481L178.5 75.7938L178.406 87.8243Z" fill="#686EB3"/>
<path d="M176.368 81.5985L171.571 83.1412C169.914 83.7235 169.046 85.5377 169.637 87.204L169.662 87.2554C170.253 88.9217 172.047 89.8247 173.704 89.2424L176.819 88.3586C179.632 87.4993 180.653 85.9417 179.855 83.5066C179.161 81.4558 176.895 81.3702 176.895 81.3702" fill="#686EB3"/>
<path d="M176.368 81.5985L171.571 83.1412C169.914 83.7235 169.046 85.5377 169.637 87.204L169.662 87.2554C170.253 88.9217 172.047 89.8247 173.704 89.2424L176.819 88.3586C179.632 87.4993 180.653 85.9417 179.855 83.5066C179.161 81.4558 176.895 81.3702 176.895 81.3702" stroke="black" stroke-width="2.75744" stroke-miterlimit="10" stroke-linecap="round" stroke-linejoin="round"/>
<path d="M170.419 89.0601L108.192 107.427" stroke="black" stroke-width="2.75744" stroke-miterlimit="10" stroke-linecap="round" stroke-linejoin="round"/>
<path d="M64.5556 99.3058L148.439 75.3784C156.711 72.9153 176.457 67.1435 179.636 66.4016C182.79 65.6595 184.79 66.4174 185.512 68.649C186.362 71.2958 184.529 73.1306 181.402 74.1061C178.527 74.9786 175.729 75.955 175.729 75.955" stroke="black" stroke-width="2.75744" stroke-miterlimit="10" stroke-linecap="round" stroke-linejoin="round"/>
<path d="M175.861 75.9217L171.064 77.4646C169.407 78.0469 168.539 79.8611 169.13 81.5274L169.155 81.5787C169.746 83.2451 171.54 84.1482 173.197 83.5659L176.312 82.682C179.125 81.8227 180.146 80.2651 179.348 77.8299C178.654 75.7791 176.388 75.6934 176.388 75.6934" fill="#686EB3"/>
<path d="M175.861 75.9217L171.064 77.4646C169.407 78.0469 168.539 79.8611 169.13 81.5274L169.155 81.5787C169.746 83.2451 171.54 84.1482 173.197 83.5659L176.312 82.682C179.125 81.8227 180.146 80.2651 179.348 77.8299C178.654 75.7791 176.388 75.6934 176.388 75.6934" stroke="black" stroke-width="2.75744" stroke-miterlimit="10" stroke-linecap="round" stroke-linejoin="round"/>
<path d="M72.1335 181.946L72.2978 208.487C72.3283 212.757 75.8141 218.728 82.9269 218.757C89.0845 218.781 93.885 218.8 97.9315 218.816C103.662 218.839 112.131 215.242 112.069 206.497C112.006 197.778 104.219 194.832 98.4889 194.809C96.5285 194.801 96.5285 194.801 96.5285 194.801L96.4374 182.042L72.1335 181.946Z" fill="white"/>
<path d="M96.456 164.172L72.0936 164.077L72.2225 182.236L96.5848 182.331L96.456 164.172Z" fill="#686EB3"/>
<path d="M96.5832 185.145L72.0841 185.106L72.0957 187.645L96.5948 187.683L96.5832 185.145Z" fill="#65BC45"/>
<path d="M96.5832 189.149L72.0841 189.111L72.0957 191.649L96.5948 191.688L96.5832 189.149Z" fill="#65BC45"/>
<path d="M72.1335 181.946L72.2978 208.487C72.3283 212.757 75.8141 218.728 82.9269 218.757C89.0845 218.781 93.885 218.8 97.9315 218.816C103.662 218.839 112.131 215.242 112.069 206.497C112.006 197.778 104.219 194.832 98.4889 194.809C96.5285 194.801 96.5285 194.801 96.5285 194.801L96.4374 182.042L72.1335 181.946Z" stroke="black" stroke-width="2.75744" stroke-miterlimit="10" stroke-linecap="round" stroke-linejoin="round"/>
<path d="M96.456 164.172L72.0936 164.077L72.2225 182.236L96.5848 182.331L96.456 164.172Z" stroke="black" stroke-width="2.75744" stroke-miterlimit="10" stroke-linecap="round" stroke-linejoin="round"/>
<path d="M72.1995 173.161C72.1995 173.161 87.2396 175.072 96.1807 179.06L96.1408 172.773L83.6056 171.568L72.1995 173.161Z" fill="black"/>
<path d="M51.7315 181.945L51.8959 208.487C51.9264 212.757 55.4122 218.728 62.5248 218.756C68.6824 218.781 73.4828 218.8 77.5292 218.816C83.2596 218.838 91.7286 215.241 91.6662 206.496C91.6039 197.777 83.817 194.831 78.0866 194.809C76.1263 194.801 76.1263 194.801 76.1263 194.801L76.0352 182.042L51.7315 181.945Z" fill="white"/>
<path d="M76.0535 164.173L51.6917 164.077L51.8205 182.236L76.1823 182.332L76.0535 164.173Z" fill="#686EB3"/>
<path d="M76.1829 185.145L51.6843 185.106L51.6959 187.645L76.1945 187.683L76.1829 185.145Z" fill="#65BC45"/>
<path d="M76.1829 189.149L51.6843 189.111L51.6959 191.649L76.1945 191.688L76.1829 189.149Z" fill="#65BC45"/>
<path d="M51.7315 181.945L51.8959 208.487C51.9264 212.757 55.4122 218.728 62.5248 218.756C68.6824 218.781 73.4828 218.8 77.5292 218.816C83.2596 218.838 91.7286 215.241 91.6662 206.496C91.6039 197.777 83.817 194.831 78.0866 194.809C76.1263 194.801 76.1263 194.801 76.1263 194.801L76.0352 182.042L51.7315 181.945Z" stroke="black" stroke-width="2.75744" stroke-miterlimit="10" stroke-linecap="round" stroke-linejoin="round"/>
<path d="M76.0535 164.173L51.6917 164.077L51.8205 182.236L76.1823 182.332L76.0535 164.173Z" stroke="black" stroke-width="2.75744" stroke-miterlimit="10" stroke-linecap="round" stroke-linejoin="round"/>
<path d="M51.8849 174.203C51.8849 174.203 66.2285 173.549 75.9601 178.603L75.9206 172.311L52.2207 171.356L51.8849 174.203Z" fill="black"/>
<path d="M119.709 27.7113C119.709 27.7113 132.085 27.5047 133.576 18.7609C135.285 8.84464 128.146 2.0569 128.146 2.0569C128.146 2.0569 144.561 6.17698 146.649 21.516C148.313 33.5883 139.513 43.3493 128.01 46.4419C123.381 47.3166 117.46 46.2986 114.679 39.1707C112.229 32.8604 115.503 28.154 119.709 27.7113Z" fill="white"/>
<path d="M119.709 27.7113C119.709 27.7113 132.085 27.5047 133.576 18.7609C135.285 8.84464 128.146 2.0569 128.146 2.0569C128.146 2.0569 144.561 6.17698 146.649 21.516C148.313 33.5883 139.513 43.3493 128.01 46.4419C123.381 47.3166 117.46 46.2986 114.679 39.1707C112.229 32.8604 115.503 28.154 119.709 27.7113Z" stroke="black" stroke-width="2.75744" stroke-miterlimit="10" stroke-linecap="round" stroke-linejoin="round"/>
<path d="M5.87312 91.0662C8.29626 33.3082 28.8699 9.31743 73.9222 9.49523C118.949 9.67292 139.891 33.8275 143.137 91.6079C146.356 149.056 130.928 173.578 75.0892 173.358C19.2505 173.137 3.47271 148.492 5.87312 91.0662Z" fill="#686EB3"/>
<path d="M88.5149 67.793C86.9574 67.7868 85.6921 66.4789 85.6807 64.8951C85.6694 63.3112 86.9162 62.0133 88.4736 62.0195C90.0311 62.0256 91.2964 63.3335 91.3077 64.9174C91.2939 66.5012 90.0472 67.7991 88.5149 67.793Z" fill="black"/>
<path d="M62.4102 81.5325C62.4299 84.8609 65.0745 87.5466 68.2846 87.5557L108.727 87.6704C111.962 87.6796 114.55 84.9827 114.53 81.6803C114.51 78.3519 111.891 75.6663 108.656 75.6571L68.2135 75.5424C65.0034 75.5333 62.3907 78.2302 62.4102 81.5325Z" fill="black"/>
<path d="M88.0828 87.5077L79.8994 87.4758L83.9377 81.7273L88.0828 87.5077Z" fill="white"/>
<path d="M104.596 82.0029L100.415 75.7536L96.3244 81.9847L92.1434 75.7354L88.0276 81.9664L83.8718 75.7172L79.7561 81.9482L75.575 75.6989L71.4593 81.93L67.2782 75.6807C67.5562 75.6289 67.8596 75.6033 68.1631 75.604L75.4987 75.6201L75.5999 75.6203L83.7702 75.6383L83.8714 75.6385L92.0417 75.6565L92.1429 75.6567L100.313 75.6747L100.414 75.6749L108.61 75.6929C108.635 75.693 108.661 75.693 108.661 75.693L104.596 82.0029Z" fill="white"/>
<path d="M79.7973 87.5076L71.614 87.4756L75.6523 81.7273L79.7973 87.5076Z" fill="white"/>
<path d="M96.3457 87.5076L88.1628 87.4757L92.2261 81.7274L96.3457 87.5076Z" fill="white"/>
<path d="M104.632 87.5075L96.4487 87.4756L100.512 81.7274L104.632 87.5075Z" fill="white"/>
<path d="M69.3204 58.9184C72.3377 58.9304 74.759 56.4594 74.7371 53.3906L74.718 50.7053C74.7123 49.9125 74.0791 49.2707 73.2997 49.2676C72.5202 49.2645 71.8961 49.9014 71.9018 50.6942L71.9209 53.3794C71.9315 54.8627 70.7583 56.06 69.2999 56.0542C67.8415 56.0484 66.6512 54.8418 66.6406 53.3585L66.6214 50.6732C66.6158 49.8805 65.9826 49.2386 65.2031 49.2356C64.4236 49.2325 63.7996 49.8693 63.8052 50.6621L63.8244 53.3474C63.821 56.3905 66.303 58.9065 69.3204 58.9184Z" fill="black"/>
<path d="M107.713 58.9184C110.73 58.9304 113.152 56.4594 113.13 53.3906L113.111 50.7053C113.105 49.9125 112.472 49.2707 111.692 49.2676C110.913 49.2645 110.289 49.9014 110.294 50.6942L110.314 53.3794C110.324 54.8627 109.151 56.06 107.693 56.0542C106.234 56.0484 105.044 54.8418 105.033 53.3585L105.014 50.6732C105.008 49.8805 104.375 49.2386 103.596 49.2356C102.816 49.2325 102.192 49.8693 102.198 50.6621L102.217 53.3474C102.239 56.3906 104.721 58.9066 107.713 58.9184Z" fill="black"/>
<path d="M62.4102 81.5325C62.4299 84.8609 65.0745 87.5466 68.2846 87.5557L108.727 87.6704C111.962 87.6796 114.55 84.9827 114.53 81.6803C114.51 78.3519 111.891 75.6663 108.656 75.6571L68.2135 75.5424C65.0034 75.5333 62.3907 78.2302 62.4102 81.5325Z" stroke="black" stroke-width="2.22703" stroke-miterlimit="10" stroke-linecap="round" stroke-linejoin="round"/>
<path d="M5.87312 91.0662C8.29626 33.3082 28.8699 9.31743 73.9222 9.49523C118.949 9.67292 139.891 33.8275 143.137 91.6079C146.356 149.056 130.928 173.578 75.0892 173.358C19.2505 173.137 3.47271 148.492 5.87312 91.0662Z" stroke="black" stroke-width="2.75744" stroke-miterlimit="10" stroke-linecap="round" stroke-linejoin="round"/>
<path d="M29.3492 27.7944C29.3492 27.7944 16.9699 27.4909 15.3545 18.735C13.5053 8.80482 20.5481 2.07256 20.5481 2.07256C20.5481 2.07256 4.19049 6.06443 2.3197 21.388C0.826675 33.4479 9.76571 43.2783 21.3135 46.4611C25.9551 47.3721 31.8611 46.4003 34.5418 39.2938C36.9025 33.0023 33.5617 28.2701 29.3492 27.7944Z" fill="white"/>
<path d="M29.3492 27.7944C29.3492 27.7944 16.9699 27.4909 15.3545 18.735C13.5053 8.80482 20.5481 2.07256 20.5481 2.07256C20.5481 2.07256 4.19049 6.06443 2.3197 21.388C0.826675 33.4479 9.76571 43.2783 21.3135 46.4611C25.9551 47.3721 31.8611 46.4003 34.5418 39.2938C36.9025 33.0023 33.5617 28.2701 29.3492 27.7944Z" stroke="black" stroke-width="2.75744" stroke-miterlimit="10" stroke-linecap="round" stroke-linejoin="round"/>
<path d="M95.5925 110.54L99.1853 100.465C100.074 98.3489 101.556 98.508 103.363 98.5152C105.145 98.5222 109.965 98.5413 112.048 98.5495C114.132 98.5578 115.746 99.6114 114.741 103.03C114.079 105.249 109.625 117.721 108.886 119.71C108.147 121.674 106.372 122.74 104.716 122.733C103.059 122.727 99.6453 122.713 99.6453 122.713C98.3651 122.708 97.4364 122.704 96.0558 122.699C94.6501 122.693 92.5103 121.817 93.1413 118.78" fill="#00BAB9"/>
<path d="M95.5925 110.54L99.1853 100.465C100.074 98.3489 101.556 98.508 103.363 98.5152C105.145 98.5222 109.965 98.5413 112.048 98.5495C114.132 98.5578 115.746 99.6114 114.741 103.03C114.079 105.249 109.625 117.721 108.886 119.71C108.147 121.674 106.372 122.74 104.716 122.733C103.059 122.727 99.6453 122.713 99.6453 122.713C98.3651 122.708 97.4364 122.704 96.0558 122.699C94.6501 122.693 92.5103 121.817 93.1413 118.78" stroke="black" stroke-width="2.42951" stroke-miterlimit="10" stroke-linecap="round" stroke-linejoin="round"/>
<path d="M102.346 102.258L101.662 104.416" stroke="black" stroke-width="2.75744" stroke-miterlimit="10" stroke-linecap="round" stroke-linejoin="round"/>
<path d="M42.1974 102.02L86.1389 106.384L91.8914 101.004C93.2479 99.7407 95.3927 99.8455 96.6857 101.246C97.9536 102.645 97.8879 104.822 96.5315 106.11L94.8988 107.651L102.797 108.113C104.766 108.292 106.262 110.028 106.12 112.024C105.978 114.02 104.294 115.509 102.326 115.33C104.294 115.509 105.791 117.245 105.649 119.241C105.506 121.237 103.823 122.726 101.854 122.546C103.823 122.726 103.226 124.485 103.109 126.482C102.967 128.478 101.712 129.947 99.7435 129.793L91.2134 129.118L88.8158 128.908C83.8191 128.561 51.5624 125.143 37.7198 121.273L42.1974 102.02Z" fill="#686EB3"/>
<path d="M34.0662 92.7801C34.0662 92.7801 39.0934 105.212 53.8646 109.325C70.6559 114.002 85.8518 106.727 85.8518 106.727L91.8517 101.123C93.2073 99.8613 95.3512 99.9664 96.6439 101.366C97.9115 102.765 97.8462 104.941 96.4907 106.228L94.859 107.768L102.754 108.231C104.722 108.411 106.218 110.146 106.076 112.141C105.934 114.136 104.252 115.624 102.284 115.445L97.1641 115.198L102.284 115.445C104.252 115.624 105.748 117.359 105.606 119.354C105.464 121.349 103.782 122.838 101.814 122.658C102.602 123.948 103.061 125.03 102.917 126.436C102.699 128.43 101.093 129.919 99.1249 129.739L91.8093 129.156C91.8093 129.156 68.3705 137.013 47.7423 131.491C30.4216 126.858 23.452 114.247 23.452 114.247" stroke="black" stroke-width="2.75744" stroke-miterlimit="10" stroke-linecap="round" stroke-linejoin="round"/>
<path d="M101.926 122.086L100.356 122.054L97.0896 121.915" stroke="black" stroke-width="2.75744" stroke-miterlimit="10" stroke-linecap="round" stroke-linejoin="round"/>
<path d="M164.746 83.4042L169.617 82.1702C171.298 81.6909 172.267 79.9299 171.777 78.2399L171.751 78.1886C171.261 76.4986 169.519 75.4942 167.837 75.948L162.966 77.182" fill="#686EB3"/>
<path d="M164.746 83.4042L169.617 82.1702C171.298 81.6909 172.267 79.9299 171.777 78.2399L171.751 78.1886C171.261 76.4986 169.519 75.4942 167.837 75.948L162.966 77.182" stroke="black" stroke-width="2.75744" stroke-miterlimit="10" stroke-linecap="round" stroke-linejoin="round"/>
<path d="M149.671 195.091L149.768 213.522C149.779 215.536 151.425 218.363 154.764 218.409C157.676 218.45 159.936 218.481 161.844 218.508C164.53 218.545 168.537 216.893 168.516 212.788C168.494 208.684 164.822 207.256 162.136 207.219C161.207 207.206 161.207 207.206 161.207 207.206L161.144 195.25L149.671 195.091V195.091Z" fill="white"/>
<path d="M161.099 173.296L149.658 173.142L149.765 195.287L161.206 195.441L161.099 173.296Z" fill="#65BC45" stroke="black" stroke-width="1.7169" stroke-miterlimit="10"/>
<path d="M161.214 198.533L149.655 198.415L149.657 199.979L161.216 200.097L161.214 198.533Z" fill="#5CC3B1"/>
<path d="M161.214 201.625L149.655 201.507L149.657 203.07L161.216 203.188L161.214 201.625Z" fill="#5CC3B1"/>
<path d="M149.671 195.091L149.768 213.522C149.779 215.536 151.425 218.363 154.764 218.409C157.676 218.45 159.936 218.481 161.844 218.508C164.53 218.545 168.537 216.893 168.516 212.788C168.494 208.684 164.822 207.256 162.136 207.219C161.207 207.206 161.207 207.206 161.207 207.206L161.144 195.25L149.671 195.091V195.091Z" stroke="black" stroke-width="2.75338" stroke-miterlimit="10" stroke-linecap="round" stroke-linejoin="round"/>
<path d="M161.099 173.296L149.658 173.142L149.765 195.287L161.206 195.441L161.099 173.296Z" stroke="#030000" stroke-width="2.75338" stroke-miterlimit="10" stroke-linecap="round" stroke-linejoin="round"/>
<path d="M140.217 195.091L140.314 213.522C140.325 215.536 141.972 218.363 145.311 218.409C148.223 218.449 150.482 218.481 152.39 218.507C155.076 218.544 159.084 216.892 159.062 212.788C159.04 208.684 155.368 207.256 152.682 207.219C151.753 207.206 151.753 207.206 151.753 207.206L151.69 195.25L140.217 195.091V195.091Z" fill="white"/>
<path d="M151.626 173.297L140.186 173.143L140.293 195.287L151.733 195.441L151.626 173.297Z" fill="#65BC45"/>
<path d="M151.735 198.533L140.176 198.415L140.179 199.978L151.738 200.097L151.735 198.533Z" fill="#5CC3B1"/>
<path d="M151.735 201.625L140.176 201.506L140.179 203.07L151.738 203.188L151.735 201.625Z" fill="#5CC3B1"/>
<path d="M140.217 195.091L140.314 213.522C140.325 215.536 141.972 218.363 145.311 218.409C148.223 218.449 150.482 218.481 152.39 218.507C155.076 218.544 159.084 216.892 159.062 212.788C159.04 208.684 155.368 207.256 152.682 207.219C151.753 207.206 151.753 207.206 151.753 207.206L151.69 195.25L140.217 195.091V195.091Z" stroke="black" stroke-width="2.75338" stroke-miterlimit="10" stroke-linecap="round" stroke-linejoin="round"/>
<path d="M151.626 173.297L140.186 173.143L140.293 195.287L151.733 195.441L151.626 173.297Z" stroke="black" stroke-width="2.75338" stroke-miterlimit="10" stroke-linecap="round" stroke-linejoin="round"/>
<path d="M126.051 120.181C125.943 104.925 138.004 91.7326 152.991 91.7913C167.978 91.85 180.227 105.113 180.335 120.394C180.444 135.726 180.378 126.338 180.527 147.41C180.676 168.483 173.46 186.363 142.985 186.244C112.484 186.124 109.276 157.795 109.276 157.795C109.276 157.795 126.383 166.969 126.181 138.498C126.065 122.248 126.051 120.181 126.051 120.181Z" fill="#65BC45"/>
<path d="M126.051 120.181C125.943 104.925 138.004 91.7326 152.991 91.7913C167.978 91.85 180.227 105.113 180.335 120.394C180.444 135.726 180.378 126.338 180.527 147.41C180.676 168.483 173.46 186.363 142.985 186.244C112.484 186.124 109.276 157.795 109.276 157.795C109.276 157.795 126.383 166.969 126.181 138.498C126.065 122.248 126.051 120.181 126.051 120.181Z" stroke="black" stroke-width="2.75338" stroke-miterlimit="10" stroke-linecap="round" stroke-linejoin="round"/>
<path d="M158.693 123.401L168.936 123.426C169.493 123.427 169.951 123.898 169.954 124.472C169.957 125.046 169.504 125.54 168.948 125.539L158.704 125.514C158.148 125.513 157.69 125.042 157.687 124.442C157.658 123.868 158.111 123.4 158.693 123.401Z" fill="black"/>
<path d="M164.961 120.43C163.751 120.425 162.734 119.138 162.723 117.546C162.712 115.954 163.686 114.674 164.921 114.678L173.236 117.585L164.961 120.43Z" fill="#FEBF3A"/>
<path d="M164.961 120.43C163.751 120.425 162.734 119.138 162.723 117.546C162.712 115.954 163.686 114.674 164.921 114.678L173.236 117.585L164.961 120.43Z" stroke="black" stroke-width="1.90798" stroke-miterlimit="10" stroke-linecap="round" stroke-linejoin="round"/>
<path d="M155.821 115.259C157.404 115.265 158.676 113.967 158.665 112.357L158.652 110.491C158.649 110.082 158.319 109.723 157.892 109.721C157.49 109.72 157.141 110.05 157.144 110.485L157.157 112.351C157.163 113.118 156.539 113.754 155.785 113.751C155.031 113.748 154.398 113.107 154.393 112.34L154.379 110.474C154.376 110.065 154.047 109.706 153.62 109.704C153.218 109.703 152.868 110.033 152.871 110.468L152.885 112.334C152.946 113.944 154.237 115.253 155.821 115.259Z" fill="black"/>
<path d="M171.837 115.259C173.42 115.265 174.693 113.967 174.681 112.356L174.668 110.49C174.665 110.081 174.336 109.722 173.909 109.721C173.506 109.719 173.157 110.05 173.16 110.484L173.173 112.35C173.179 113.117 172.555 113.754 171.801 113.751C171.047 113.748 170.414 113.106 170.409 112.339L170.396 110.473C170.393 110.064 170.063 109.705 169.636 109.704C169.234 109.702 168.884 110.033 168.888 110.467L168.901 112.333C168.963 113.944 170.279 115.253 171.837 115.259Z" fill="black"/>
<path d="M140.179 186.628C140.179 186.628 147.328 187.503 151.386 190.403L151.361 186.667L142.345 185.888L140.179 186.628Z" fill="#030000"/>
<path d="M151.007 186.266C151.007 186.266 158.121 186.189 161.194 189.261L161.161 184.477L153.518 184.501L151.007 186.266Z" fill="#030000"/>
<path d="M161.432 145.941L165.025 135.866C165.913 133.749 167.396 133.908 169.203 133.915C171.011 133.923 176.207 133.943 178.291 133.951C180.374 133.96 181.865 135.371 180.857 138.253C180.094 140.421 175.465 153.123 174.751 155.087C174.012 157.051 172.237 158.117 170.581 158.11C168.924 158.104 165.51 158.09 165.51 158.09C164.23 158.085 163.301 158.081 161.92 158.076C160.514 158.07 158.374 157.193 159.005 154.156" fill="#006FA9"/>
<path d="M161.432 145.941L165.025 135.866C165.913 133.749 167.396 133.908 169.203 133.915C171.011 133.923 176.207 133.943 178.291 133.951C180.374 133.96 181.865 135.371 180.857 138.253C180.094 140.421 175.465 153.123 174.751 155.087C174.012 157.051 172.237 158.117 170.581 158.11C168.924 158.104 165.51 158.09 165.51 158.09C164.23 158.085 163.301 158.081 161.92 158.076C160.514 158.07 158.374 157.193 159.005 154.156" stroke="black" stroke-width="2.42951" stroke-miterlimit="10" stroke-linecap="round" stroke-linejoin="round"/>
<path d="M168.461 137.635L167.628 139.996" stroke="black" stroke-width="2.75744" stroke-miterlimit="10" stroke-linecap="round" stroke-linejoin="round"/>
<path d="M181.183 157.017C177.855 152.775 176.169 147.419 175.831 145.609C175.339 143.085 176.781 142.071 179.183 142.488C181.259 142.827 183.309 142.988 184.784 142.993C188.432 143.007 187.962 147.209 187.732 150.163C187.433 153.882 186.37 162.642 179.655 163.686" fill="#65BC45"/>
<path d="M181.183 157.017C177.855 152.775 176.169 147.419 175.831 145.609C175.339 143.085 176.781 142.071 179.183 142.488C181.259 142.827 183.309 142.988 184.784 142.993C188.432 143.007 187.962 147.209 187.732 150.163C187.433 153.882 186.37 162.642 179.655 163.686" stroke="black" stroke-width="2.75338" stroke-miterlimit="10" stroke-linecap="round" stroke-linejoin="round"/>
<path d="M177.412 167.678C177.412 167.678 179.853 161.993 180.367 156.987" stroke="black" stroke-width="2.75338" stroke-miterlimit="10" stroke-linecap="round" stroke-linejoin="round"/>
<path d="M144.6 168.646C144.5 168.645 144.374 168.645 144.274 168.619C143.069 168.436 142.233 167.259 142.4 166.009C142.399 165.932 143.594 157.567 144.295 150.399C144.857 144.762 142.706 142.099 140.697 141.556C138.687 140.986 135.762 142.251 133.593 147.474C130.857 154.072 127.954 161.971 127.93 162.048C127.512 163.22 126.237 163.802 125.081 163.338C123.924 162.874 123.363 161.57 123.781 160.398C123.805 160.322 126.732 152.346 129.518 145.646C132.772 137.799 138.176 136.187 141.794 137.171C145.512 138.181 149.528 142.407 148.686 150.927C147.961 158.171 146.767 166.638 146.768 166.715C146.6 167.837 145.653 168.65 144.6 168.646Z" fill="#FFC232" stroke="black" stroke-width="2.42951" stroke-miterlimit="10" stroke-linecap="round" stroke-linejoin="round"/>
<path d="M141.345 141.722C141.345 141.722 151.934 147.785 162.501 143.393C163.655 142.911 164.819 143.812 164.551 145.067C162.846 153.029 156.678 163.614 135.725 162.225" fill="#65BC45"/>
<path d="M141.345 141.722C141.345 141.722 151.934 147.785 162.501 143.393C163.655 142.911 164.819 143.812 164.551 145.067C162.846 153.029 156.678 163.614 135.725 162.225" stroke="black" stroke-width="2.75338" stroke-miterlimit="10" stroke-linecap="round" stroke-linejoin="round"/>
<path d="M133.503 159.645C130.96 158.971 120.207 156.013 120.207 156.013C120.207 156.013 116.212 166.634 118.523 177.049C120.731 187.131 136.668 191.132 143.865 185.407C151.036 179.683 152.109 164.5 152.109 164.5L133.503 159.645Z" fill="#FFC232" stroke="black" stroke-width="2.42951" stroke-miterlimit="10" stroke-linecap="round" stroke-linejoin="round"/>
<path d="M129.856 166.153L139.601 168.723" stroke="black" stroke-width="2.42951" stroke-miterlimit="10" stroke-linecap="round" stroke-linejoin="round"/>
<path d="M86.0076 131.248L81.1002 132.35C80.328 132.526 79.5262 132.014 79.3461 131.224L74.6123 110.276C74.4322 109.486 74.9257 108.673 75.6979 108.498L80.6053 107.396C81.3775 107.22 82.1793 107.733 82.3594 108.523L87.0932 129.47C87.2734 130.285 86.7798 131.073 86.0076 131.248Z" fill="#D0722B" stroke="black" stroke-width="2.75744" stroke-miterlimit="10" stroke-linecap="round" stroke-linejoin="round"/>
<path d="M86.3933 119.868C86.4914 123.062 84.0485 125.684 80.9091 125.748C77.7697 125.813 75.1645 123.299 75.0663 120.105C74.9682 116.911 77.4111 114.289 80.5505 114.225C83.6646 114.135 86.27 116.674 86.3933 119.868Z" fill="white" stroke="black" stroke-width="2.75744" stroke-miterlimit="10" stroke-linecap="round" stroke-linejoin="round"/>
<path d="M79.286 122.029L80.8858 119.908L83.0636 121.121" fill="white"/>
<path d="M79.286 122.029L80.8858 119.908L83.0636 121.121" stroke="black" stroke-width="1.49212" stroke-miterlimit="10" stroke-linecap="round" stroke-linejoin="round"/>
</svg>
