<svg width="299" height="116" viewBox="0 0 299 116" fill="none" xmlns="http://www.w3.org/2000/svg">
<path fill-rule="evenodd" clip-rule="evenodd" d="M0 8C0 3.58172 3.58172 0 8 0H291C295.418 0 299 3.58172 299 8V40.7311C298.93 40.7302 298.86 40.7297 298.79 40.7297C288.919 40.7297 280.917 49.6378 280.917 60.6264C280.917 71.6151 288.919 80.5231 298.79 80.5231C298.86 80.5231 298.93 80.5227 299 80.5218V107.635C299 112.053 295.418 115.635 291 115.635H8C3.58173 115.635 0 112.053 0 107.635V80.5218C9.77395 80.3963 17.6625 71.5369 17.6625 60.6264C17.6625 49.7159 9.77395 40.8565 0 40.7311V8Z" fill="#F7FAFF"/>
<path fill-rule="evenodd" clip-rule="evenodd" d="M8 6C6.89543 6 6 6.89543 6 8V35.5986C16.4973 38.6174 23.6625 49.0975 23.6625 60.6264C23.6625 72.1553 16.4973 82.6354 6 85.6543V107.635C6 108.739 6.89543 109.635 8 109.635H291C292.105 109.635 293 108.739 293 107.635V85.7723C282.277 82.917 274.917 72.3055 274.917 60.6264C274.917 48.9474 282.277 38.3358 293 35.4806V8C293 6.89543 292.105 6 291 6H8ZM299 8C299 3.58172 295.418 0 291 0H8C3.58172 0 0 3.58172 0 8V40.7311C9.77395 40.8565 17.6625 49.7159 17.6625 60.6264C17.6625 71.5369 9.77395 80.3963 0 80.5218V107.635C0 112.053 3.58173 115.635 8 115.635H291C295.418 115.635 299 112.053 299 107.635V80.5218C298.93 80.5227 298.86 80.5231 298.79 80.5231C298.72 80.5231 298.649 80.5227 298.579 80.5218C288.805 80.3963 280.917 71.5369 280.917 60.6264C280.917 49.716 288.805 40.8566 298.579 40.7311C298.649 40.7302 298.72 40.7297 298.79 40.7297C298.86 40.7297 298.93 40.7302 299 40.7311V8Z" fill="#99C0FA"/>
<path fill-rule="evenodd" clip-rule="evenodd" d="M18.5 21C18.5 15.7533 22.7533 11.5 28 11.5H271C276.247 11.5 280.5 15.7533 280.5 21V28.5H277.5V21C277.5 17.4101 274.59 14.5 271 14.5H28C24.4101 14.5 21.5 17.4101 21.5 21V28.5H18.5V21ZM21.5 88.5V95C21.5 98.5899 24.4101 101.5 28 101.5H271C274.59 101.5 277.5 98.5899 277.5 95V88.5H280.5V95C280.5 100.247 276.247 104.5 271 104.5H28C22.7533 104.5 18.5 100.247 18.5 95V88.5H21.5Z" fill="#F7FAFF"/>
<path fill-rule="evenodd" clip-rule="evenodd" d="M21.5 28.5V21C21.5 17.4101 24.4101 14.5 28 14.5H271C274.59 14.5 277.5 17.4101 277.5 21V28.5H280.5V21C280.5 15.7533 276.247 11.5 271 11.5H28C22.7533 11.5 18.5 15.7533 18.5 21V28.5H21.5ZM277.5 88.5H280.5V95C280.5 100.247 276.247 104.5 271 104.5H28C22.7533 104.5 18.5 100.247 18.5 95V88.5H21.5V95C21.5 98.5899 24.4101 101.5 28 101.5H271C274.59 101.5 277.5 98.5899 277.5 95V88.5Z" fill="#7CB0FE"/>
<path d="M228 61.0686C228 73.809 217.672 84.1372 204.931 84.1372C192.191 84.1372 181.863 73.809 181.863 61.0686C181.863 48.3282 192.191 38 204.931 38C217.672 38 228 48.3282 228 61.0686Z" fill="#FFC232"/>
<path fill-rule="evenodd" clip-rule="evenodd" d="M204.931 81.674C216.311 81.674 225.537 72.4486 225.537 61.0686C225.537 49.6885 216.311 40.4632 204.931 40.4632C193.551 40.4632 184.326 49.6885 184.326 61.0686C184.326 72.4486 193.551 81.674 204.931 81.674ZM204.931 84.1372C217.672 84.1372 228 73.809 228 61.0686C228 48.3282 217.672 38 204.931 38C192.191 38 181.863 48.3282 181.863 61.0686C181.863 73.809 192.191 84.1372 204.931 84.1372Z" fill="black"/>
<path fill-rule="evenodd" clip-rule="evenodd" d="M213.062 42.2357H196.649V39.7725H213.062V42.2357Z" fill="black"/>
<path fill-rule="evenodd" clip-rule="evenodd" d="M219.944 47.0008H197.707V44.5376H219.944V47.0008Z" fill="black"/>
<path fill-rule="evenodd" clip-rule="evenodd" d="M225.121 52.2952H199.707V49.832H225.121V52.2952Z" fill="black"/>
<path fill-rule="evenodd" clip-rule="evenodd" d="M226.709 57.5897H199.178V55.1265H226.709V57.5897Z" fill="black"/>
<path fill-rule="evenodd" clip-rule="evenodd" d="M227.239 62.8841H199.178V60.4209H227.239V62.8841Z" fill="black"/>
<path fill-rule="evenodd" clip-rule="evenodd" d="M226.709 68.1785H198.649V65.7153H226.709V68.1785Z" fill="black"/>
<path fill-rule="evenodd" clip-rule="evenodd" d="M224.062 73.473H198.119V71.0098H224.062V73.473Z" fill="black"/>
<path d="M224.137 63.1863C224.137 75.9267 213.809 86.2549 201.069 86.2549C188.328 86.2549 178 75.9267 178 63.1863C178 50.4458 188.328 40.1177 201.069 40.1177C213.809 40.1177 224.137 50.4458 224.137 63.1863Z" fill="#FFC232"/>
<path fill-rule="evenodd" clip-rule="evenodd" d="M201.069 83.7917C212.449 83.7917 221.674 74.5663 221.674 63.1863C221.674 51.8062 212.449 42.5809 201.069 42.5809C189.689 42.5809 180.463 51.8062 180.463 63.1863C180.463 74.5663 189.689 83.7917 201.069 83.7917ZM201.069 86.2549C213.809 86.2549 224.137 75.9267 224.137 63.1863C224.137 50.4458 213.809 40.1177 201.069 40.1177C188.328 40.1177 178 50.4458 178 63.1863C178 75.9267 188.328 86.2549 201.069 86.2549Z" fill="black"/>
<path d="M210.285 55.4604V59.3784H204.128V75.8751H199.533V59.3784H193.376V55.4604H210.285Z" fill="white"/>
<path fill-rule="evenodd" clip-rule="evenodd" d="M212.201 53.5439V61.2951H206.045V77.7918H197.616V61.2951H191.459V53.5439H212.201ZM199.533 59.3785V75.8752H204.128V59.3785H210.285V55.4605H193.376V59.3785H199.533Z" fill="black"/>
<path d="M98.48 69.1281C98.48 67.8134 98.1853 66.6574 97.596 65.6601C97.0067 64.6174 95.9867 63.7561 94.536 63.0761C93.0853 62.3961 91.136 61.8748 88.688 61.5121C86.24 61.1494 83.1573 60.9681 79.44 60.9681C79.9387 56.7521 80.3467 52.4681 80.664 48.1161C80.9813 43.7641 81.2307 39.6841 81.412 35.8761H106.912V44.3761H89.912C89.8213 46.0081 89.708 47.5948 89.572 49.1361C89.4813 50.6321 89.368 51.9468 89.232 53.0801C95.8507 53.5334 100.724 55.0974 103.852 57.7721C107.025 60.4014 108.612 64.0734 108.612 68.7881C108.612 70.9641 108.227 72.9814 107.456 74.8401C106.685 76.6988 105.529 78.3081 103.988 79.6681C102.447 81.0281 100.497 82.0934 98.14 82.8641C95.828 83.6348 93.108 84.0201 89.98 84.0201C88.756 84.0201 87.464 83.9294 86.104 83.7481C84.7893 83.6121 83.4973 83.4081 82.228 83.1361C81.004 82.9094 79.8933 82.6601 78.896 82.3881C77.8987 82.1161 77.128 81.8441 76.584 81.5721L78.42 73.2081C79.5533 73.7068 81.0493 74.2054 82.908 74.7041C84.7667 75.1574 86.988 75.3841 89.572 75.3841C92.7 75.3841 94.9667 74.7721 96.372 73.5481C97.7773 72.2788 98.48 70.8054 98.48 69.1281Z" fill="#FFC232"/>
<path d="M158.48 59.3361C158.48 67.2694 156.962 73.3668 153.924 77.6281C150.932 81.8441 146.784 83.9521 141.48 83.9521C136.176 83.9521 132.006 81.8441 128.968 77.6281C125.976 73.3668 124.48 67.2694 124.48 59.3361C124.48 55.3921 124.866 51.9014 125.636 48.8641C126.452 45.8268 127.608 43.2654 129.104 41.1801C130.6 39.0948 132.391 37.5081 134.476 36.4201C136.562 35.3321 138.896 34.7881 141.48 34.7881C146.784 34.7881 150.932 36.9188 153.924 41.1801C156.962 45.3961 158.48 51.4481 158.48 59.3361ZM148.144 59.3361C148.144 56.9788 148.031 54.8481 147.804 52.9441C147.578 50.9948 147.215 49.3174 146.716 47.9121C146.218 46.5068 145.538 45.4188 144.676 44.6481C143.815 43.8774 142.75 43.4921 141.48 43.4921C140.211 43.4921 139.146 43.8774 138.284 44.6481C137.468 45.4188 136.788 46.5068 136.244 47.9121C135.746 49.3174 135.383 50.9948 135.156 52.9441C134.93 54.8481 134.816 56.9788 134.816 59.3361C134.816 61.6934 134.93 63.8468 135.156 65.7961C135.383 67.7454 135.746 69.4228 136.244 70.8281C136.788 72.2334 137.468 73.3214 138.284 74.0921C139.146 74.8628 140.211 75.2481 141.48 75.2481C142.75 75.2481 143.815 74.8628 144.676 74.0921C145.538 73.3214 146.218 72.2334 146.716 70.8281C147.215 69.4228 147.578 67.7454 147.804 65.7961C148.031 63.8468 148.144 61.6934 148.144 59.3361Z" fill="#FFC232"/>
<path fill-rule="evenodd" clip-rule="evenodd" d="M93.9096 67.7907L93.8894 67.755C93.8605 67.7037 93.6455 67.3608 92.7289 66.9311L94.536 63.076C95.9867 63.7559 97.0067 64.6173 97.596 65.66C98.1853 66.6573 98.48 67.8133 98.48 69.1279C98.48 70.8053 97.7773 72.2786 96.372 73.548C94.9667 74.7719 92.7 75.3839 89.572 75.3839C86.988 75.3839 84.7667 75.1573 82.908 74.7039C82.7619 74.6648 82.6181 74.6256 82.4765 74.5864C80.8164 74.1269 79.4642 73.6674 78.42 73.208L76.584 81.5719C77.128 81.844 77.8987 82.116 78.896 82.388C79.8933 82.66 81.004 82.9093 82.228 83.136C83.4973 83.4079 84.7893 83.6119 86.104 83.748C87.464 83.9293 88.756 84.0199 89.98 84.0199C93.108 84.0199 95.828 83.6346 98.14 82.8639C100.497 82.0933 102.447 81.028 103.988 79.6679C105.529 78.3079 106.685 76.6986 107.456 74.84C108.227 72.9813 108.612 70.964 108.612 68.7879C108.612 64.0733 107.025 60.4013 103.852 57.7719C101.433 55.7034 97.9697 54.2992 93.4627 53.5592C92.1421 53.3424 90.7318 53.1827 89.232 53.0799C89.368 51.9466 89.4813 50.6319 89.572 49.1359C89.5808 49.0366 89.5894 48.9371 89.598 48.8374C89.7225 47.3899 89.8272 45.9028 89.912 44.3759H106.912V35.8759H81.412C81.2307 39.6839 80.9813 43.7639 80.664 48.1159C80.4529 51.0111 80.2017 53.8762 79.9103 56.7112C79.7637 58.1377 79.6069 59.5567 79.44 60.9679C80.9733 60.9679 82.3987 60.9988 83.7161 61.0605C85.5925 61.1484 87.2498 61.2989 88.688 61.5119C91.136 61.8746 93.0853 62.396 94.536 63.076L92.7289 66.9311C91.7987 66.4951 90.2995 66.0548 88.064 65.7237C85.8975 65.4027 83.0411 65.2256 79.44 65.2256H74.649L75.2118 60.4678C75.7028 56.3169 76.1048 52.0965 76.4176 47.8063C76.7327 43.485 76.9797 39.441 77.1591 35.6734L77.3522 31.6183H111.17V48.6336H93.8878C93.8693 48.8587 93.8504 49.083 93.831 49.3064C98.9641 50.1091 103.339 51.7419 106.594 54.5144C110.873 58.0732 112.87 63.0215 112.87 68.7879C112.87 71.4776 112.391 74.0542 111.389 76.4707C110.365 78.9414 108.821 81.0812 106.805 82.8605C104.752 84.6721 102.267 85.9928 99.4748 86.907C96.6285 87.854 93.4379 88.2776 89.98 88.2776C88.5664 88.2776 87.1062 88.1744 85.6036 87.9765C84.1807 87.8272 82.7775 87.6058 81.3947 87.3117C80.0991 87.0704 78.8904 86.7996 77.7757 86.4956C76.6674 86.1933 75.5886 85.8345 74.6799 85.3801L71.7145 83.8974L75.376 67.217L80.1347 69.3108C80.985 69.685 82.2368 70.1139 83.962 70.5785C85.3921 70.9222 87.2424 71.1263 89.572 71.1263C92.2465 71.1263 93.2699 70.5865 93.5547 70.3549C94.16 69.7964 94.2223 69.4328 94.2223 69.1279C94.2223 68.4704 94.0821 68.0826 93.9304 67.826L93.9096 67.7907ZM125.499 80.0957L125.484 80.0745C121.788 74.8108 120.223 67.715 120.223 59.3359C120.223 55.1253 120.633 51.2712 121.51 47.8168L121.517 47.788L121.525 47.7593C122.444 44.3352 123.792 41.2815 125.645 38.6981C127.493 36.1214 129.778 34.0689 132.507 32.6452L134.476 36.4199C132.391 37.5079 130.6 39.0946 129.104 41.1799C127.608 43.2653 126.452 45.8266 125.636 48.8639C124.866 51.9013 124.48 55.3919 124.48 59.3359C124.48 67.2693 125.976 73.3666 128.968 77.6279C132.006 81.844 136.176 83.952 141.48 83.952C146.784 83.952 150.932 81.844 153.924 77.6279C156.962 73.3666 158.48 67.2693 158.48 59.3359C158.48 51.4479 156.962 45.3959 153.924 41.1799C150.932 36.9186 146.784 34.7879 141.48 34.7879C138.896 34.7879 136.562 35.3319 134.476 36.4199L132.507 32.6452C135.259 31.2095 138.28 30.5303 141.48 30.5303C148.132 30.5303 153.588 33.3044 157.394 38.7121C161.15 43.9385 162.738 51.0016 162.738 59.3359C162.738 67.724 161.147 74.8296 157.393 80.0974C153.578 85.4692 148.119 88.2096 141.48 88.2096C134.841 88.2096 129.371 85.4705 125.514 80.1167L125.499 80.0957ZM143.577 53.4473L143.575 53.4357C143.375 51.7107 143.068 50.3621 142.704 49.3358C142.376 48.4127 142.035 47.9977 141.837 47.8209C141.817 47.8026 141.805 47.7952 141.802 47.7931C141.798 47.7911 141.794 47.7885 141.783 47.7848C141.767 47.779 141.68 47.7496 141.48 47.7496C141.281 47.7496 141.193 47.779 141.178 47.7848C141.167 47.7885 141.163 47.7911 141.159 47.7931C141.158 47.7937 141.157 47.7947 141.154 47.7963C140.93 48.0279 140.589 48.4985 140.237 49.3932C139.881 50.4123 139.582 51.7427 139.386 53.4357L139.384 53.4473C139.181 55.1515 139.074 57.1103 139.074 59.3359C139.074 61.5604 139.181 63.5466 139.386 65.3042C139.582 66.9972 139.881 68.3276 140.237 69.3467C140.589 70.2414 140.93 70.712 141.154 70.9436C141.157 70.9452 141.158 70.9462 141.159 70.9468C141.163 70.9488 141.167 70.9514 141.178 70.9551C141.193 70.9609 141.281 70.9903 141.48 70.9903C141.68 70.9903 141.767 70.9609 141.783 70.9551C141.794 70.9514 141.798 70.9488 141.802 70.9468C141.805 70.9447 141.817 70.9373 141.837 70.919C142.035 70.7422 142.376 70.3272 142.704 69.4041C143.068 68.3778 143.375 67.0292 143.575 65.3042C143.78 63.5466 143.887 61.5604 143.887 59.3359C143.887 57.1103 143.78 55.1515 143.577 53.4473ZM138.284 74.0919C137.468 73.3213 136.788 72.2333 136.244 70.8279C135.746 69.4226 135.383 67.7453 135.156 65.7959C134.93 63.8466 134.816 61.6933 134.816 59.3359C134.816 56.9786 134.93 54.8479 135.156 52.9439C135.383 50.9946 135.746 49.3173 136.244 47.9119C136.788 46.5066 137.468 45.4186 138.284 44.6479C139.146 43.8773 140.211 43.4919 141.48 43.4919C142.75 43.4919 143.815 43.8773 144.676 44.6479C145.538 45.4186 146.218 46.5066 146.716 47.9119C147.215 49.3173 147.578 50.9946 147.804 52.9439C148.031 54.8479 148.144 56.9786 148.144 59.3359C148.144 61.6933 148.031 63.8466 147.804 65.7959C147.578 67.7453 147.215 69.4226 146.716 70.8279C146.218 72.2333 145.538 73.3213 144.676 74.0919C143.815 74.8626 142.75 75.248 141.48 75.248C140.211 75.248 139.146 74.8626 138.284 74.0919Z" fill="black"/>
</svg>
