<svg width="1920" height="509" viewBox="0 0 1920 509" fill="none" xmlns="http://www.w3.org/2000/svg">
<path opacity="0.3" d="M141.5 497.529C206.647 478.521 250.258 431.873 249.419 359.813C248.412 273.379 189.211 224.592 188.774 130.27C188.473 65.3526 137.613 7.87223 63.2891 7.94978C-10.9337 8.02786 -60.5529 65.5418 -59.2419 130.464C-57.3906 224.794 -115.532 273.713 -114.526 360.147C-113.686 432.301 -69.0371 479.851 -3.41105 498.704C-0.191117 499.526 -6.79599 504.777 -3.41105 505.5C38 507 93.6656 510.748 141.5 497.529Z" fill="#6CBDC0"/>
<path d="M89.9998 280C89.9998 199.919 154.919 135 235 135C315.081 135 380 199.919 380 280V508H89.9998V280Z" fill="#6C9EEB"/>
<path opacity="0.8" d="M185 379.5C185 330.623 224.623 291 273.5 291C322.377 291 362 330.623 362 379.5V508H185V379.5Z" fill="#4786E6"/>
<path d="M319 327.259L502.144 288L690 327.259V508H319V327.259Z" fill="#92BCFC"/>
<path d="M643 381.481L734.325 354L828 381.481V508H643V381.481Z" fill="#E2EEFF"/>
<path opacity="0.8" d="M397 385.5L442.5 374L488 385.5V508.5H397V385.5Z" fill="#83B4FE"/>
<path opacity="0.8" d="M703 407.776C703 399.492 709.716 392.776 718 392.776C726.284 392.776 733 399.492 733 407.776V433.776H703V407.776Z" fill="#D1E4FF"/>
<path opacity="0.8" d="M703 460.776C703 452.492 709.716 445.776 718 445.776C726.284 445.776 733 452.492 733 460.776V485.776H703V460.776Z" fill="#D1E4FF"/>
<path opacity="0.8" d="M523 385.5L568.5 376L614 385.5V508.5H523V385.5Z" fill="#83B4FE"/>
<path opacity="0.8" d="M761 407.776C761 399.492 767.716 392.776 776 392.776C784.284 392.776 791 399.492 791 407.776V433.776H761V407.776Z" fill="#D1E4FF"/>
<path opacity="0.8" d="M761 460.776C761 452.492 767.716 445.776 776 445.776C784.284 445.776 791 452.492 791 460.776V485.776H761V460.776Z" fill="#D1E4FF"/>
<path opacity="0.4" d="M1798.44 9.90716C1733.25 29.6126 1689.79 77.3459 1691.02 150.715C1692.5 238.72 1752.1 288.08 1753.06 384.12C1753.71 450.22 1805 508.475 1879.5 507.997C1953.89 507.519 2003.32 448.689 2001.65 382.59C1999.28 286.549 2057.29 236.425 2055.81 148.42C2054.57 74.9546 2009.57 27.7951 1943.69 8.95057C1903.7 -1.18915 1850.52 -5.01544 1798.44 9.90716Z" fill="#6CBDC0"/>
<path d="M1414 202.384L1597.14 136L1785 202.384V508H1414V202.384Z" fill="#B3D0FD"/>
<path opacity="0.8" d="M2289.95 418.753V383.776H2261.23V220.838L2167.1 219.515V303.326H2143.59L2140.01 184.889L2097.63 174.477L2051.71 188.767L2055.24 253.629L2008.99 251.762V177.135L1904.2 157L1854.52 170.638V332.517L1813.68 329.074L1815.78 268.227L1720.05 242.23L1600.26 287.619L1597 508H2313C2312.26 478.251 2310.33 448.502 2306.63 418.744H2289.95V418.753Z" fill="#4786E6"/>
<path d="M1645 316H1677V372H1645V316Z" fill="#70A5F4"/>
<path d="M1645 392H1677V448H1645V392Z" fill="#70A5F4"/>
<path d="M1722 316H1754V372H1722V316Z" fill="#70A5F4"/>
<path d="M1722 392H1754V448H1722V392Z" fill="#70A5F4"/>
</svg>
