<svg width="455" height="254" viewBox="0 0 455 254" fill="none" xmlns="http://www.w3.org/2000/svg">
<path d="M0 0H455V221C455 239.225 440.225 254 422 254H33C14.7746 254 0 239.225 0 221V0Z" fill="#A1CCFF"/>
<mask id="mask0" mask-type="alpha" maskUnits="userSpaceOnUse" x="0" y="0" width="455" height="254">
<path d="M0 0H455V221C455 239.225 440.225 254 422 254H33C14.7746 254 0 239.225 0 221V0Z" fill="#8EC2FF"/>
</mask>
<g mask="url(#mask0)">
<path d="M229 127L274.033 255.25H183.967L229 127Z" fill="#E1EFFF" fill-opacity="0.29"/>
<path d="M229 128L274.033 -0.25H183.967L229 128Z" fill="#E1EFFF" fill-opacity="0.29"/>
<path d="M235.5 127.5L109.033 -0.25H-1.03333L235.5 127.5Z" fill="#E1EFFF" fill-opacity="0.29"/>
<path d="M219 127.5L345.467 -0.25H455.533L219 127.5Z" fill="#E1EFFF" fill-opacity="0.29"/>
<path d="M235.5 127.5L109.033 255.25H-1.03333L235.5 127.5Z" fill="#E1EFFF" fill-opacity="0.29"/>
<path d="M219 127.5L345.467 255.25H455.533L219 127.5Z" fill="#E1EFFF" fill-opacity="0.29"/>
<path d="M228 133L456 184.962L456 81.0386L228 133Z" fill="#E1EFFF" fill-opacity="0.29"/>
<path d="M229 132.5L0.999996 184.029L1 80.9717L229 132.5Z" fill="#E1EFFF" fill-opacity="0.29"/>
</g>
<path d="M140.263 43.1071C147.892 56.1053 142.958 72.7344 129.178 80.2231C115.436 87.6906 98.0702 83.2278 90.419 70.1928C82.7893 57.1945 87.7232 40.5654 101.504 33.0768C115.246 25.6092 132.612 30.0721 140.263 43.1071Z" fill="#50A0FF"/>
<path d="M118.84 46.8727C115.607 46.7436 113.513 50.2417 113.495 53.5191C110.587 51.8698 106.245 51.8712 104.674 54.5771C103.018 57.4744 104.131 60.7174 107.133 62.7512C110.151 64.8126 121.695 67.501 121.671 67.4049C121.745 67.4739 125.298 56.5382 125.04 53.0123C124.731 49.5135 122.247 47.0165 118.84 46.8727Z" fill="#FDFEFF"/>
<path d="M65 79.2302C65 76.3416 67.3416 74 70.2302 74H384.77C387.658 74 390 76.3416 390 79.2302V190.77C390 193.658 387.658 196 384.77 196H70.2302C67.3416 196 65 193.658 65 190.77V79.2302Z" fill="#F4FCFF"/>
<path fill-rule="evenodd" clip-rule="evenodd" d="M384.77 79.2302H70.2302V190.77H384.77V79.2302ZM70.2302 74C67.3416 74 65 76.3416 65 79.2302V190.77C65 193.658 67.3416 196 70.2302 196H384.77C387.658 196 390 193.658 390 190.77V79.2302C390 76.3416 387.658 74 384.77 74H70.2302Z" fill="#407CD9"/>
<path d="M84 136.5C84 151.688 76.165 164 66.5 164C56.835 164 49 151.688 49 136.5C49 121.312 56.835 109 66.5 109C76.165 109 84 121.312 84 136.5Z" fill="#B3D6FF"/>
<path d="M408 136.5C408 151.688 400.165 164 390.5 164C380.835 164 373 151.688 373 136.5C373 121.312 380.835 109 390.5 109C400.165 109 408 121.312 408 136.5Z" fill="#B3D6FF"/>
<path fill-rule="evenodd" clip-rule="evenodd" d="M86.0193 92.2304C86.0193 88.8002 88.8 86.0195 92.2302 86.0195H362.77C366.2 86.0195 368.981 88.8002 368.981 92.2304V103.361H367.019V92.2304C367.019 89.8834 365.117 87.9808 362.77 87.9808H92.2302C89.8832 87.9808 87.9807 89.8834 87.9807 92.2304V103.361H86.0193V92.2304ZM87.9807 166.695V176.77C87.9807 179.117 89.8832 181.02 92.2302 181.02H362.77C365.117 181.02 367.019 179.117 367.019 176.77V166.695H368.981V176.77C368.981 180.2 366.2 182.981 362.77 182.981H92.2302C88.8 182.981 86.0193 180.2 86.0193 176.77V166.695H87.9807Z" fill="#407CD9"/>
<mask id="path-18-outside-1" maskUnits="userSpaceOnUse" x="95.7979" y="117.902" width="119" height="41" fill="black">
<rect fill="white" x="95.7979" y="117.902" width="119" height="41"/>
<path d="M120.292 129.704C120.292 130.83 120.07 131.912 119.625 132.95C119.181 133.987 118.603 134.995 117.892 135.973C117.18 136.921 116.38 137.84 115.491 138.729C114.602 139.618 113.728 140.463 112.868 141.263C112.423 141.678 111.934 142.152 111.401 142.686C110.897 143.189 110.408 143.708 109.934 144.241C109.46 144.775 109.03 145.279 108.645 145.753C108.289 146.198 108.067 146.568 107.978 146.864H121.226V152.421H100.687C100.628 152.095 100.598 151.681 100.598 151.177C100.598 150.673 100.598 150.317 100.598 150.11C100.598 148.687 100.82 147.383 101.265 146.198C101.739 145.012 102.347 143.915 103.088 142.908C103.829 141.87 104.658 140.907 105.577 140.018C106.526 139.129 107.459 138.24 108.378 137.351C109.089 136.669 109.756 136.032 110.378 135.439C111.001 134.817 111.549 134.224 112.023 133.661C112.498 133.068 112.868 132.49 113.135 131.927C113.402 131.334 113.535 130.742 113.535 130.149C113.535 128.845 113.164 127.926 112.423 127.392C111.683 126.859 110.764 126.592 109.667 126.592C108.867 126.592 108.111 126.726 107.4 126.992C106.718 127.229 106.081 127.526 105.488 127.882C104.925 128.208 104.436 128.548 104.021 128.904C103.606 129.23 103.295 129.497 103.088 129.704L99.7979 125.081C101.102 123.866 102.613 122.873 104.332 122.102C106.081 121.302 107.948 120.902 109.934 120.902C111.742 120.902 113.298 121.109 114.602 121.524C115.906 121.939 116.973 122.532 117.803 123.303C118.662 124.043 119.285 124.962 119.67 126.059C120.085 127.126 120.292 128.341 120.292 129.704Z"/>
<path d="M153.473 136.951C153.473 142.137 152.48 146.123 150.494 148.909C148.538 151.666 145.826 153.044 142.359 153.044C138.891 153.044 136.164 151.666 134.179 148.909C132.223 146.123 131.245 142.137 131.245 136.951C131.245 134.372 131.496 132.09 132 130.104C132.534 128.119 133.29 126.444 134.268 125.081C135.246 123.717 136.416 122.68 137.78 121.969C139.143 121.258 140.669 120.902 142.359 120.902C145.826 120.902 148.538 122.295 150.494 125.081C152.48 127.837 153.473 131.794 153.473 136.951ZM146.715 136.951C146.715 135.409 146.641 134.017 146.493 132.772C146.345 131.497 146.108 130.401 145.782 129.482C145.456 128.563 145.011 127.852 144.448 127.348C143.885 126.844 143.189 126.592 142.359 126.592C141.529 126.592 140.832 126.844 140.269 127.348C139.736 127.852 139.291 128.563 138.936 129.482C138.609 130.401 138.372 131.497 138.224 132.772C138.076 134.017 138.002 135.409 138.002 136.951C138.002 138.492 138.076 139.9 138.224 141.174C138.372 142.448 138.609 143.545 138.936 144.464C139.291 145.383 139.736 146.094 140.269 146.598C140.832 147.102 141.529 147.353 142.359 147.353C143.189 147.353 143.885 147.102 144.448 146.598C145.011 146.094 145.456 145.383 145.782 144.464C146.108 143.545 146.345 142.448 146.493 141.174C146.641 139.9 146.715 138.492 146.715 136.951Z"/>
<path d="M184.964 136.951C184.964 142.137 183.971 146.123 181.985 148.909C180.029 151.666 177.317 153.044 173.85 153.044C170.382 153.044 167.656 151.666 165.67 148.909C163.714 146.123 162.736 142.137 162.736 136.951C162.736 134.372 162.988 132.09 163.491 130.104C164.025 128.119 164.781 126.444 165.759 125.081C166.737 123.717 167.907 122.68 169.271 121.969C170.634 121.258 172.16 120.902 173.85 120.902C177.317 120.902 180.029 122.295 181.985 125.081C183.971 127.837 184.964 131.794 184.964 136.951ZM178.207 136.951C178.207 135.409 178.132 134.017 177.984 132.772C177.836 131.497 177.599 130.401 177.273 129.482C176.947 128.563 176.502 127.852 175.939 127.348C175.376 126.844 174.68 126.592 173.85 126.592C173.02 126.592 172.323 126.844 171.76 127.348C171.227 127.852 170.782 128.563 170.427 129.482C170.101 130.401 169.864 131.497 169.715 132.772C169.567 134.017 169.493 135.409 169.493 136.951C169.493 138.492 169.567 139.9 169.715 141.174C169.864 142.448 170.101 143.545 170.427 144.464C170.782 145.383 171.227 146.094 171.76 146.598C172.323 147.102 173.02 147.353 173.85 147.353C174.68 147.353 175.376 147.102 175.939 146.598C176.502 146.094 176.947 145.383 177.273 144.464C177.599 143.545 177.836 142.448 177.984 141.174C178.132 139.9 178.207 138.492 178.207 136.951Z"/>
<path d="M209.354 137.301H195.537V139.539H209.354V137.301ZM206.765 151.624C206.123 151.624 206.007 151.507 206.007 150.767V144.813H211.144V142.555H193.786V144.813H198.184C197.95 148.043 197.405 150.67 193.357 152.188C193.883 152.636 194.525 153.492 194.798 154.076C199.448 152.188 200.344 148.86 200.694 144.813H203.613V150.767C203.613 153.044 204.177 153.784 206.376 153.784H208.711C210.696 153.784 211.28 152.772 211.514 149.288C210.871 149.133 209.879 148.724 209.373 148.315C209.276 151.118 209.159 151.624 208.517 151.624H206.765Z"/>
</mask>
<path d="M120.292 129.704C120.292 130.83 120.07 131.912 119.625 132.95C119.181 133.987 118.603 134.995 117.892 135.973C117.18 136.921 116.38 137.84 115.491 138.729C114.602 139.618 113.728 140.463 112.868 141.263C112.423 141.678 111.934 142.152 111.401 142.686C110.897 143.189 110.408 143.708 109.934 144.241C109.46 144.775 109.03 145.279 108.645 145.753C108.289 146.198 108.067 146.568 107.978 146.864H121.226V152.421H100.687C100.628 152.095 100.598 151.681 100.598 151.177C100.598 150.673 100.598 150.317 100.598 150.11C100.598 148.687 100.82 147.383 101.265 146.198C101.739 145.012 102.347 143.915 103.088 142.908C103.829 141.87 104.658 140.907 105.577 140.018C106.526 139.129 107.459 138.24 108.378 137.351C109.089 136.669 109.756 136.032 110.378 135.439C111.001 134.817 111.549 134.224 112.023 133.661C112.498 133.068 112.868 132.49 113.135 131.927C113.402 131.334 113.535 130.742 113.535 130.149C113.535 128.845 113.164 127.926 112.423 127.392C111.683 126.859 110.764 126.592 109.667 126.592C108.867 126.592 108.111 126.726 107.4 126.992C106.718 127.229 106.081 127.526 105.488 127.882C104.925 128.208 104.436 128.548 104.021 128.904C103.606 129.23 103.295 129.497 103.088 129.704L99.7979 125.081C101.102 123.866 102.613 122.873 104.332 122.102C106.081 121.302 107.948 120.902 109.934 120.902C111.742 120.902 113.298 121.109 114.602 121.524C115.906 121.939 116.973 122.532 117.803 123.303C118.662 124.043 119.285 124.962 119.67 126.059C120.085 127.126 120.292 128.341 120.292 129.704Z" fill="#70ECF5"/>
<path d="M153.473 136.951C153.473 142.137 152.48 146.123 150.494 148.909C148.538 151.666 145.826 153.044 142.359 153.044C138.891 153.044 136.164 151.666 134.179 148.909C132.223 146.123 131.245 142.137 131.245 136.951C131.245 134.372 131.496 132.09 132 130.104C132.534 128.119 133.29 126.444 134.268 125.081C135.246 123.717 136.416 122.68 137.78 121.969C139.143 121.258 140.669 120.902 142.359 120.902C145.826 120.902 148.538 122.295 150.494 125.081C152.48 127.837 153.473 131.794 153.473 136.951ZM146.715 136.951C146.715 135.409 146.641 134.017 146.493 132.772C146.345 131.497 146.108 130.401 145.782 129.482C145.456 128.563 145.011 127.852 144.448 127.348C143.885 126.844 143.189 126.592 142.359 126.592C141.529 126.592 140.832 126.844 140.269 127.348C139.736 127.852 139.291 128.563 138.936 129.482C138.609 130.401 138.372 131.497 138.224 132.772C138.076 134.017 138.002 135.409 138.002 136.951C138.002 138.492 138.076 139.9 138.224 141.174C138.372 142.448 138.609 143.545 138.936 144.464C139.291 145.383 139.736 146.094 140.269 146.598C140.832 147.102 141.529 147.353 142.359 147.353C143.189 147.353 143.885 147.102 144.448 146.598C145.011 146.094 145.456 145.383 145.782 144.464C146.108 143.545 146.345 142.448 146.493 141.174C146.641 139.9 146.715 138.492 146.715 136.951Z" fill="#70ECF5"/>
<path d="M184.964 136.951C184.964 142.137 183.971 146.123 181.985 148.909C180.029 151.666 177.317 153.044 173.85 153.044C170.382 153.044 167.656 151.666 165.67 148.909C163.714 146.123 162.736 142.137 162.736 136.951C162.736 134.372 162.988 132.09 163.491 130.104C164.025 128.119 164.781 126.444 165.759 125.081C166.737 123.717 167.907 122.68 169.271 121.969C170.634 121.258 172.16 120.902 173.85 120.902C177.317 120.902 180.029 122.295 181.985 125.081C183.971 127.837 184.964 131.794 184.964 136.951ZM178.207 136.951C178.207 135.409 178.132 134.017 177.984 132.772C177.836 131.497 177.599 130.401 177.273 129.482C176.947 128.563 176.502 127.852 175.939 127.348C175.376 126.844 174.68 126.592 173.85 126.592C173.02 126.592 172.323 126.844 171.76 127.348C171.227 127.852 170.782 128.563 170.427 129.482C170.101 130.401 169.864 131.497 169.715 132.772C169.567 134.017 169.493 135.409 169.493 136.951C169.493 138.492 169.567 139.9 169.715 141.174C169.864 142.448 170.101 143.545 170.427 144.464C170.782 145.383 171.227 146.094 171.76 146.598C172.323 147.102 173.02 147.353 173.85 147.353C174.68 147.353 175.376 147.102 175.939 146.598C176.502 146.094 176.947 145.383 177.273 144.464C177.599 143.545 177.836 142.448 177.984 141.174C178.132 139.9 178.207 138.492 178.207 136.951Z" fill="#70ECF5"/>
<path d="M209.354 137.301H195.537V139.539H209.354V137.301ZM206.765 151.624C206.123 151.624 206.007 151.507 206.007 150.767V144.813H211.144V142.555H193.786V144.813H198.184C197.95 148.043 197.405 150.67 193.357 152.188C193.883 152.636 194.525 153.492 194.798 154.076C199.448 152.188 200.344 148.86 200.694 144.813H203.613V150.767C203.613 153.044 204.177 153.784 206.376 153.784H208.711C210.696 153.784 211.28 152.772 211.514 149.288C210.871 149.133 209.879 148.724 209.373 148.315C209.276 151.118 209.159 151.624 208.517 151.624H206.765Z" fill="#70ECF5"/>
<path d="M120.292 129.704C120.292 130.83 120.07 131.912 119.625 132.95C119.181 133.987 118.603 134.995 117.892 135.973C117.18 136.921 116.38 137.84 115.491 138.729C114.602 139.618 113.728 140.463 112.868 141.263C112.423 141.678 111.934 142.152 111.401 142.686C110.897 143.189 110.408 143.708 109.934 144.241C109.46 144.775 109.03 145.279 108.645 145.753C108.289 146.198 108.067 146.568 107.978 146.864H121.226V152.421H100.687C100.628 152.095 100.598 151.681 100.598 151.177C100.598 150.673 100.598 150.317 100.598 150.11C100.598 148.687 100.82 147.383 101.265 146.198C101.739 145.012 102.347 143.915 103.088 142.908C103.829 141.87 104.658 140.907 105.577 140.018C106.526 139.129 107.459 138.24 108.378 137.351C109.089 136.669 109.756 136.032 110.378 135.439C111.001 134.817 111.549 134.224 112.023 133.661C112.498 133.068 112.868 132.49 113.135 131.927C113.402 131.334 113.535 130.742 113.535 130.149C113.535 128.845 113.164 127.926 112.423 127.392C111.683 126.859 110.764 126.592 109.667 126.592C108.867 126.592 108.111 126.726 107.4 126.992C106.718 127.229 106.081 127.526 105.488 127.882C104.925 128.208 104.436 128.548 104.021 128.904C103.606 129.23 103.295 129.497 103.088 129.704L99.7979 125.081C101.102 123.866 102.613 122.873 104.332 122.102C106.081 121.302 107.948 120.902 109.934 120.902C111.742 120.902 113.298 121.109 114.602 121.524C115.906 121.939 116.973 122.532 117.803 123.303C118.662 124.043 119.285 124.962 119.67 126.059C120.085 127.126 120.292 128.341 120.292 129.704Z" stroke="black" stroke-width="6" mask="url(#path-18-outside-1)"/>
<path d="M153.473 136.951C153.473 142.137 152.48 146.123 150.494 148.909C148.538 151.666 145.826 153.044 142.359 153.044C138.891 153.044 136.164 151.666 134.179 148.909C132.223 146.123 131.245 142.137 131.245 136.951C131.245 134.372 131.496 132.09 132 130.104C132.534 128.119 133.29 126.444 134.268 125.081C135.246 123.717 136.416 122.68 137.78 121.969C139.143 121.258 140.669 120.902 142.359 120.902C145.826 120.902 148.538 122.295 150.494 125.081C152.48 127.837 153.473 131.794 153.473 136.951ZM146.715 136.951C146.715 135.409 146.641 134.017 146.493 132.772C146.345 131.497 146.108 130.401 145.782 129.482C145.456 128.563 145.011 127.852 144.448 127.348C143.885 126.844 143.189 126.592 142.359 126.592C141.529 126.592 140.832 126.844 140.269 127.348C139.736 127.852 139.291 128.563 138.936 129.482C138.609 130.401 138.372 131.497 138.224 132.772C138.076 134.017 138.002 135.409 138.002 136.951C138.002 138.492 138.076 139.9 138.224 141.174C138.372 142.448 138.609 143.545 138.936 144.464C139.291 145.383 139.736 146.094 140.269 146.598C140.832 147.102 141.529 147.353 142.359 147.353C143.189 147.353 143.885 147.102 144.448 146.598C145.011 146.094 145.456 145.383 145.782 144.464C146.108 143.545 146.345 142.448 146.493 141.174C146.641 139.9 146.715 138.492 146.715 136.951Z" stroke="black" stroke-width="6" mask="url(#path-18-outside-1)"/>
<path d="M184.964 136.951C184.964 142.137 183.971 146.123 181.985 148.909C180.029 151.666 177.317 153.044 173.85 153.044C170.382 153.044 167.656 151.666 165.67 148.909C163.714 146.123 162.736 142.137 162.736 136.951C162.736 134.372 162.988 132.09 163.491 130.104C164.025 128.119 164.781 126.444 165.759 125.081C166.737 123.717 167.907 122.68 169.271 121.969C170.634 121.258 172.16 120.902 173.85 120.902C177.317 120.902 180.029 122.295 181.985 125.081C183.971 127.837 184.964 131.794 184.964 136.951ZM178.207 136.951C178.207 135.409 178.132 134.017 177.984 132.772C177.836 131.497 177.599 130.401 177.273 129.482C176.947 128.563 176.502 127.852 175.939 127.348C175.376 126.844 174.68 126.592 173.85 126.592C173.02 126.592 172.323 126.844 171.76 127.348C171.227 127.852 170.782 128.563 170.427 129.482C170.101 130.401 169.864 131.497 169.715 132.772C169.567 134.017 169.493 135.409 169.493 136.951C169.493 138.492 169.567 139.9 169.715 141.174C169.864 142.448 170.101 143.545 170.427 144.464C170.782 145.383 171.227 146.094 171.76 146.598C172.323 147.102 173.02 147.353 173.85 147.353C174.68 147.353 175.376 147.102 175.939 146.598C176.502 146.094 176.947 145.383 177.273 144.464C177.599 143.545 177.836 142.448 177.984 141.174C178.132 139.9 178.207 138.492 178.207 136.951Z" stroke="black" stroke-width="6" mask="url(#path-18-outside-1)"/>
<path d="M209.354 137.301H195.537V139.539H209.354V137.301ZM206.765 151.624C206.123 151.624 206.007 151.507 206.007 150.767V144.813H211.144V142.555H193.786V144.813H198.184C197.95 148.043 197.405 150.67 193.357 152.188C193.883 152.636 194.525 153.492 194.798 154.076C199.448 152.188 200.344 148.86 200.694 144.813H203.613V150.767C203.613 153.044 204.177 153.784 206.376 153.784H208.711C210.696 153.784 211.28 152.772 211.514 149.288C210.871 149.133 209.879 148.724 209.373 148.315C209.276 151.118 209.159 151.624 208.517 151.624H206.765Z" stroke="black" stroke-width="6" mask="url(#path-18-outside-1)"/>
<path d="M351.677 165H232.323C228.839 165 226 162.972 226 160.456V117.544C226 115.04 228.822 113 232.323 113H351.677C355.161 113 358 115.028 358 117.544V160.456C358 162.96 355.161 165 351.677 165Z" fill="#F04928"/>
<path fill-rule="evenodd" clip-rule="evenodd" d="M232.323 161.845H351.677C352.83 161.845 353.751 161.503 354.304 161.105C354.575 160.911 354.718 160.733 354.785 160.619C354.845 160.517 354.845 160.468 354.845 160.456V117.544C354.845 117.527 354.844 117.476 354.784 117.374C354.718 117.261 354.576 117.085 354.306 116.892C353.755 116.496 352.835 116.155 351.677 116.155H232.323C231.159 116.155 230.24 116.498 229.692 116.893C229.424 117.086 229.282 117.263 229.216 117.376C229.155 117.478 229.155 117.529 229.155 117.544V160.456C229.155 160.473 229.156 160.524 229.216 160.626C229.282 160.739 229.424 160.915 229.694 161.108C230.245 161.504 231.165 161.845 232.323 161.845ZM232.323 165H351.677C355.161 165 358 162.96 358 160.456V117.544C358 115.028 355.161 113 351.677 113H232.323C228.822 113 226 115.04 226 117.544V160.456C226 162.972 228.839 165 232.323 165Z" fill="#FD6C4F"/>
<path d="M259.5 132.56H252.2V129.08H249.72V132.56H242.62V134.9H259.5V132.56ZM249.34 143.32C249.14 141.2 248.4 138.1 247.46 135.64L245.18 136.24C246.06 138.68 246.76 141.88 246.9 143.96L249.34 143.32ZM254.46 144.58C255.32 142.24 256.26 139 256.96 136.06L254.22 135.56C253.8 138.44 252.84 142.16 251.94 144.58H241.98V146.96H260.08V144.58H254.46Z" fill="white"/>
<path d="M274.56 132.24V133.9H271.28V132.24H274.56ZM271.28 137.62V135.98H274.56V137.62H271.28ZM272.56 141.14C272.94 141.7 273.32 142.32 273.68 142.94L271.28 143.54V139.82H276.76V130.04H269V144.06C268.52 144.18 268.06 144.28 267.66 144.36L268.34 146.8C270.16 146.3 272.5 145.66 274.76 145.02C275.06 145.66 275.3 146.26 275.44 146.78L277.54 145.72C277.04 144.18 275.72 141.92 274.48 140.24L272.56 141.14ZM285.6 130H277.88V147.72H280.3V132.4H283.14V142C283.14 142.26 283.06 142.36 282.8 142.36C282.52 142.36 281.7 142.38 280.92 142.32C281.28 142.98 281.66 144.2 281.74 144.92C283.02 144.92 283.96 144.86 284.7 144.42C285.42 143.98 285.6 143.2 285.6 142.08V130Z" fill="white"/>
<path d="M305.36 143.04C305.08 143.76 304.66 144.66 304.32 145.26L304.86 145.38H300.92L301.68 145.16C301.52 144.56 301.16 143.72 300.72 143.04H305.36ZM299.52 139.38H306.34V141.16H299.52V139.38ZM307 143.04H308.8V137.5H297.22V143.04H299.4L298.36 143.3C298.74 143.92 299.08 144.72 299.28 145.38H294.44V147.34H311.64V145.38H306.62C306.96 144.8 307.36 144.02 307.78 143.2L307 143.04ZM310.26 131.56C309.7 132.2 308.84 132.98 308.02 133.62C307.7 133.3 307.38 132.96 307.08 132.6C307.96 132 308.96 131.24 309.82 130.52L308.02 129.24C307.5 129.84 306.76 130.54 306.02 131.14C305.6 130.5 305.26 129.82 304.96 129.12L302.92 129.76C303.64 131.46 304.56 133.02 305.66 134.38H300.52C301.46 133.24 302.24 131.94 302.78 130.48L301.24 129.68L300.84 129.78H295.6V131.7H299.7C299.28 132.38 298.78 133.06 298.2 133.68C297.64 133.12 296.7 132.5 295.94 132.06L294.64 133.36C295.36 133.82 296.22 134.48 296.78 135.04C295.72 135.9 294.56 136.62 293.4 137.1C293.88 137.5 294.5 138.32 294.82 138.84C296.42 138.06 297.98 137 299.34 135.68V136.36H306.7V135.54C307.94 136.8 309.38 137.84 310.98 138.56C311.34 137.94 312.02 137.02 312.56 136.58C311.44 136.14 310.38 135.54 309.42 134.84C310.28 134.24 311.2 133.5 312 132.8L310.26 131.56Z" fill="white"/>
<path d="M332.96 136.14V137.5C332.96 139.24 333.3 139.84 334.98 139.84H336.36C337.56 139.84 338.1 139.32 338.3 137.34C337.74 137.2 336.88 136.9 336.5 136.6C336.46 137.82 336.38 138 336.1 138H335.34C335.04 138 335.02 137.94 335.02 137.5V136.14H338.12V134.12H333.48V132.62H337.1V130.64H333.48V129.1H331.14V130.64H327.68V132.62H331.14V134.12H326.64V136.14H329.1C328.9 137.42 328.38 138.2 326.64 138.72C326.44 137.92 326.06 137.06 325.3 136.14C325.88 134.6 326.56 132.46 327.08 130.74L325.48 129.82L325.12 129.92H320.52V147.74H322.72V132.04H324.4C324.08 133.4 323.64 135.16 323.24 136.4C324.36 137.72 324.62 138.96 324.62 139.84C324.62 140.42 324.54 140.8 324.3 140.96C324.12 141.08 323.96 141.12 323.74 141.14C323.5 141.14 323.22 141.14 322.88 141.1C323.2 141.7 323.4 142.62 323.42 143.2C323.88 143.22 324.34 143.22 324.72 143.16C325.16 143.08 325.56 142.96 325.88 142.74C326.52 142.28 326.8 141.44 326.8 140.16C326.8 139.78 326.78 139.38 326.7 138.98C327.08 139.38 327.5 140.02 327.66 140.46C330.24 139.64 330.98 138.26 331.22 136.14H332.96ZM333.48 145.22V143.32H337.3V141.28H333.48V139.72H331.14V141.28H327.4V143.32H331.14V145.22H325.8V147.3H338.32V145.22H333.48Z" fill="white"/>
<path fill-rule="evenodd" clip-rule="evenodd" d="M259.5 129.405C261.242 129.405 262.655 130.818 262.655 132.56V134.9C262.655 136.568 261.36 137.934 259.72 138.047C259.436 139.17 259.124 140.315 258.8 141.425H260.08C261.822 141.425 263.235 142.838 263.235 144.58V146.96C263.235 148.703 261.822 150.115 260.08 150.115H241.98C240.238 150.115 238.825 148.703 238.825 146.96V144.58C238.825 142.838 240.238 141.425 241.98 141.425H243.346C243.119 140.317 242.814 139.131 242.465 138.051C240.795 137.97 239.465 136.591 239.465 134.9V132.56C239.465 130.818 240.878 129.405 242.62 129.405H246.565V129.08C246.565 127.338 247.978 125.925 249.72 125.925H252.2C253.942 125.925 255.355 127.338 255.355 129.08V129.405H259.5ZM252.2 129.08H249.72V132.56H242.62V134.9H259.5V132.56H252.2V129.08ZM241.98 144.58V146.96H260.08V144.58H254.46C254.551 144.332 254.644 144.073 254.736 143.805C254.992 143.068 255.252 142.265 255.507 141.425C255.734 140.679 255.958 139.905 256.173 139.123C256.271 138.768 256.367 138.411 256.46 138.055C256.636 137.384 256.804 136.715 256.96 136.06L254.22 135.56C254.213 135.611 254.205 135.663 254.197 135.715C254.085 136.455 253.94 137.247 253.769 138.055C253.759 138.105 253.748 138.155 253.737 138.205C253.388 139.841 252.941 141.537 252.479 143.001C252.476 143.009 252.474 143.017 252.471 143.025C252.391 143.278 252.311 143.523 252.23 143.761C252.225 143.776 252.22 143.79 252.215 143.805C252.123 144.075 252.031 144.334 251.94 144.58H241.98ZM247.488 135.715C247.479 135.69 247.47 135.665 247.46 135.64L245.18 136.24C245.208 136.319 245.237 136.399 245.265 136.479C245.44 136.981 245.607 137.511 245.764 138.055C245.878 138.453 245.987 138.858 246.088 139.263C246.219 139.785 246.337 140.307 246.442 140.819C246.483 141.023 246.523 141.225 246.56 141.425C246.701 142.188 246.806 142.913 246.867 143.553C246.875 143.639 246.882 143.723 246.889 143.805C246.893 143.858 246.897 143.909 246.9 143.96L249.34 143.32C249.321 143.114 249.296 142.899 249.267 142.676C249.215 142.281 249.148 141.861 249.068 141.425C248.871 140.358 248.594 139.194 248.264 138.055C248.03 137.248 247.768 136.454 247.488 135.715ZM277.88 147.72H280.3V132.4H283.14V142C283.14 142.029 283.139 142.055 283.137 142.08C283.12 142.281 283.031 142.36 282.8 142.36C282.755 142.36 282.696 142.361 282.625 142.361C282.583 142.362 282.535 142.362 282.484 142.362C282.469 142.363 282.454 142.363 282.438 142.363C282.244 142.364 282.003 142.364 281.74 142.358C281.515 142.353 281.274 142.344 281.035 142.328C280.997 142.326 280.958 142.323 280.92 142.32C280.958 142.39 280.997 142.466 281.035 142.548C281.357 143.233 281.669 144.276 281.74 144.92C282.122 144.92 282.475 144.915 282.8 144.896C283.031 144.882 283.249 144.861 283.455 144.83C283.731 144.789 283.986 144.73 284.222 144.644C284.39 144.584 284.549 144.51 284.7 144.42C284.75 144.389 284.798 144.357 284.843 144.323C285.444 143.87 285.6 143.122 285.6 142.08V130H277.88V147.72ZM277.208 126.917C277.062 126.896 276.912 126.885 276.76 126.885H269C267.258 126.885 265.845 128.298 265.845 130.04V141.78C265.497 142.024 265.199 142.339 264.972 142.709C264.513 143.457 264.385 144.362 264.621 145.207L265.301 147.647C265.768 149.321 267.5 150.303 269.176 149.842C269.379 149.786 269.589 149.729 269.805 149.669C270.779 149.402 271.872 149.102 273.006 148.787C273.312 149.159 273.703 149.459 274.153 149.661C274.622 149.87 275.128 149.959 275.628 149.929C276.2 150.513 276.998 150.875 277.88 150.875H280.3C281.944 150.875 283.295 149.617 283.442 148.011C284.358 147.918 285.373 147.691 286.312 147.132L286.345 147.112C288.615 145.725 288.755 143.31 288.755 142.08V130C288.755 128.258 287.342 126.845 285.6 126.845H277.88C277.65 126.845 277.425 126.87 277.208 126.917ZM269 130.04V144.06C268.726 144.129 268.459 144.191 268.205 144.246C268.018 144.287 267.838 144.324 267.669 144.358C267.666 144.359 267.663 144.36 267.66 144.36L268.34 146.8C268.34 146.8 268.34 146.8 268.34 146.8C268.544 146.744 268.754 146.686 268.97 146.627C269.175 146.571 269.384 146.513 269.599 146.455C269.696 146.428 269.794 146.401 269.893 146.374C270.425 146.227 270.981 146.074 271.551 145.917C271.651 145.889 271.752 145.861 271.853 145.833C272.527 145.646 273.218 145.454 273.908 145.261C274.017 145.23 274.127 145.199 274.237 145.168C274.351 145.136 274.464 145.104 274.578 145.072C274.627 145.058 274.676 145.044 274.725 145.03C274.737 145.027 274.748 145.023 274.76 145.02C274.88 145.275 274.99 145.524 275.088 145.764C275.183 145.997 275.267 146.221 275.337 146.435C275.375 146.554 275.41 146.669 275.44 146.78L277.54 145.72C277.439 145.41 277.305 145.07 277.145 144.712C277.049 144.497 276.944 144.275 276.831 144.049C276.792 143.972 276.752 143.893 276.711 143.815C276.569 143.539 276.416 143.257 276.255 142.975C276.07 142.65 275.874 142.323 275.673 142C275.64 141.947 275.606 141.894 275.573 141.841C275.338 141.471 275.096 141.108 274.854 140.761C274.811 140.7 274.768 140.639 274.725 140.578C274.67 140.501 274.615 140.425 274.56 140.349C274.533 140.313 274.507 140.276 274.48 140.24L272.56 141.14C272.637 141.253 272.714 141.369 272.791 141.487C272.936 141.711 273.081 141.941 273.225 142.175C273.379 142.427 273.531 142.684 273.68 142.94L271.28 143.54V139.82H276.76V130.04H269ZM271.28 132.24V133.9H274.56V132.24H271.28ZM274.56 135.98H271.28V137.62H274.56V135.98ZM308.8 143.04V137.5H297.22V143.04H299.4L298.36 143.3C298.386 143.343 298.413 143.387 298.439 143.432C298.575 143.667 298.706 143.923 298.825 144.185C298.834 144.205 298.843 144.224 298.852 144.244C298.852 144.245 298.853 144.247 298.853 144.248C299.026 144.633 299.173 145.027 299.28 145.38H294.44V147.34H311.64V145.38H306.62C306.74 145.176 306.867 144.947 307 144.7C307.088 144.535 307.179 144.363 307.272 144.185C307.274 144.181 307.276 144.177 307.279 144.173C307.334 144.068 307.389 143.96 307.446 143.851C307.472 143.799 307.499 143.747 307.527 143.694C307.61 143.532 307.695 143.367 307.78 143.2L307 143.04H308.8ZM306.34 139.38H299.52V141.16H306.34V139.38ZM304.86 145.38L304.32 145.26C304.375 145.164 304.431 145.06 304.489 144.95C304.574 144.788 304.662 144.613 304.75 144.432C304.768 144.394 304.787 144.355 304.805 144.316C304.806 144.316 304.806 144.315 304.806 144.315C304.824 144.277 304.842 144.239 304.86 144.2C304.862 144.195 304.865 144.19 304.867 144.185C305.048 143.798 305.221 143.397 305.36 143.04H300.72C300.789 143.146 300.856 143.257 300.92 143.369C301.072 143.635 301.21 143.913 301.329 144.185C301.334 144.196 301.338 144.206 301.343 144.216C301.357 144.249 301.371 144.282 301.385 144.315C301.44 144.445 301.489 144.574 301.534 144.697C301.567 144.789 301.597 144.878 301.623 144.964C301.644 145.032 301.663 145.097 301.68 145.16L300.92 145.38H304.86ZM311.955 142.241C313.549 142.399 314.795 143.744 314.795 145.38V147.34C314.795 149.083 313.382 150.495 311.64 150.495H294.44C292.698 150.495 291.285 149.083 291.285 147.34V145.38C291.285 143.765 292.5 142.433 294.065 142.247V141.903C293.286 141.711 292.583 141.224 292.133 140.494C292.048 140.355 291.889 140.125 291.703 139.891C291.613 139.779 291.531 139.683 291.463 139.61C291.404 139.546 291.375 139.519 291.375 139.519C291.375 139.519 291.377 139.521 291.38 139.524C290.532 138.817 290.115 137.717 290.281 136.625C290.418 135.726 290.934 134.94 291.681 134.455C291.592 134.214 291.532 133.962 291.504 133.702C291.4 132.751 291.733 131.805 292.409 131.129L292.445 131.093V129.78C292.445 128.038 293.858 126.625 295.6 126.625H300.452L300.475 126.619C301.05 126.476 301.65 126.498 302.207 126.677L304.016 126.11C304.911 125.829 305.846 125.968 306.598 126.424C307.615 125.911 308.868 125.972 309.848 126.669L311.648 127.949C312.193 128.337 312.594 128.882 312.805 129.5L313.831 130.231C314.617 130.791 315.103 131.679 315.151 132.643C315.18 133.235 315.043 133.815 314.763 134.322C315.244 134.791 315.57 135.409 315.677 136.094C315.85 137.202 315.422 138.318 314.553 139.026C314.556 139.023 314.558 139.022 314.558 139.022C314.558 139.022 314.524 139.052 314.457 139.125C314.381 139.207 314.29 139.315 314.191 139.442C313.986 139.705 313.808 139.972 313.708 140.144C313.304 140.84 312.671 141.328 311.955 141.561V142.241ZM311.838 132.941C311.84 132.939 311.841 132.938 311.843 132.937C311.896 132.891 311.948 132.845 312 132.8L310.26 131.56C309.85 132.029 309.278 132.574 308.679 133.083C308.644 133.113 308.609 133.142 308.574 133.171C308.507 133.228 308.44 133.283 308.372 133.339C308.255 133.435 308.137 133.529 308.02 133.62C308.013 133.613 308.005 133.605 307.998 133.598C307.797 133.397 307.597 133.188 307.402 132.971C307.312 132.871 307.222 132.769 307.135 132.665C307.116 132.644 307.098 132.622 307.08 132.6C307.106 132.582 307.133 132.564 307.16 132.546C307.164 132.542 307.169 132.539 307.174 132.536C307.18 132.532 307.186 132.527 307.193 132.523C307.23 132.497 307.268 132.471 307.306 132.444C307.484 132.321 307.665 132.191 307.848 132.058C308.378 131.673 308.923 131.254 309.435 130.838C309.492 130.792 309.548 130.745 309.604 130.699C309.621 130.685 309.638 130.671 309.655 130.657M305.348 129.962C305.211 129.686 305.082 129.405 304.96 129.12L302.92 129.76C302.948 129.826 302.976 129.892 303.005 129.958C303.012 129.974 303.019 129.99 303.026 130.006C303.127 130.236 303.231 130.463 303.339 130.687C303.426 130.868 303.516 131.048 303.608 131.225C303.733 131.466 303.862 131.703 303.996 131.937C304.07 132.066 304.145 132.194 304.221 132.321C304.278 132.416 304.336 132.51 304.395 132.604C304.498 132.768 304.603 132.931 304.711 133.091C304.736 133.129 304.762 133.167 304.788 133.205C304.834 133.273 304.881 133.341 304.928 133.408C305.074 133.616 305.223 133.82 305.376 134.02C305.439 134.101 305.502 134.182 305.565 134.262C305.587 134.29 305.61 134.318 305.632 134.345C305.641 134.357 305.651 134.369 305.66 134.38H300.52C300.53 134.369 300.539 134.357 300.549 134.345C300.785 134.057 301.011 133.758 301.226 133.449C301.271 133.385 301.315 133.32 301.358 133.255C301.369 133.239 301.38 133.222 301.391 133.205C301.464 133.097 301.534 132.987 301.603 132.876C301.612 132.862 301.62 132.849 301.629 132.835C301.725 132.679 301.819 132.52 301.91 132.359C302.111 132.002 302.297 131.632 302.466 131.251C302.47 131.243 302.474 131.234 302.478 131.225C302.553 131.054 302.625 130.881 302.694 130.706C302.723 130.631 302.752 130.556 302.78 130.48L301.24 129.68L300.84 129.78H295.6V131.7H299.7C299.528 131.979 299.343 132.257 299.144 132.531C299.087 132.61 299.028 132.689 298.969 132.767C298.926 132.823 298.883 132.879 298.839 132.935C298.83 132.947 298.82 132.959 298.811 132.971C298.756 133.04 298.7 133.109 298.643 133.177C298.501 133.348 298.353 133.516 298.2 133.68C298.19 133.67 298.18 133.66 298.17 133.65C298.107 133.589 298.04 133.526 297.969 133.464C297.857 133.365 297.735 133.265 297.608 133.166C297.58 133.144 297.552 133.122 297.523 133.101C297.45 133.045 297.376 132.99 297.3 132.935C296.856 132.615 296.369 132.309 295.94 132.06L294.64 133.36C294.768 133.442 294.901 133.53 295.035 133.623C295.222 133.752 295.412 133.89 295.6 134.032C295.749 134.145 295.897 134.261 296.04 134.378C296.095 134.423 296.149 134.468 296.202 134.513C296.338 134.628 296.468 134.743 296.588 134.855C296.655 134.918 296.719 134.979 296.78 135.04C296.695 135.109 296.61 135.177 296.524 135.244C296.425 135.32 296.326 135.396 296.226 135.47C296.089 135.572 295.95 135.671 295.81 135.768C295.271 136.141 294.715 136.474 294.154 136.755C294.114 136.775 294.074 136.794 294.035 136.814C293.98 136.841 293.925 136.867 293.871 136.892C293.714 136.966 293.557 137.035 293.4 137.1C293.607 137.273 293.841 137.524 294.065 137.796C294.36 138.153 294.638 138.545 294.82 138.84C295.41 138.552 295.995 138.227 296.566 137.864C296.668 137.799 296.77 137.733 296.871 137.665C296.953 137.611 297.035 137.556 297.116 137.5C297.151 137.476 297.185 137.452 297.22 137.428C297.493 137.237 297.761 137.038 298.025 136.83C298.067 136.797 298.109 136.764 298.151 136.73C298.198 136.692 298.246 136.653 298.293 136.615C298.393 136.532 298.492 136.449 298.591 136.364C298.592 136.363 298.594 136.362 298.596 136.36C298.85 136.142 299.098 135.915 299.34 135.68V136.36H306.7V135.54C306.98 135.825 307.271 136.099 307.572 136.36C307.673 136.449 307.776 136.536 307.88 136.621C307.887 136.627 307.893 136.632 307.899 136.637C307.943 136.673 307.987 136.709 308.032 136.744C308.044 136.754 308.057 136.765 308.07 136.775C308.138 136.829 308.206 136.882 308.275 136.935C308.381 137.016 308.487 137.096 308.595 137.174C308.599 137.176 308.602 137.179 308.606 137.182C308.67 137.228 308.735 137.274 308.8 137.319C308.888 137.381 308.976 137.441 309.065 137.5C309.213 137.598 309.363 137.694 309.515 137.786C309.986 138.074 310.475 138.333 310.98 138.56C311.16 138.249 311.421 137.863 311.704 137.5C311.782 137.4 311.862 137.302 311.942 137.208C312.152 136.961 312.365 136.739 312.56 136.58C312.519 136.564 312.478 136.548 312.437 136.531C312.284 136.469 312.132 136.404 311.981 136.336C311.877 136.29 311.774 136.242 311.672 136.192C311.299 136.013 310.935 135.817 310.58 135.606C310.445 135.526 310.31 135.443 310.177 135.358C310.071 135.29 309.966 135.221 309.862 135.15C309.796 135.106 309.731 135.061 309.667 135.016C309.584 134.958 309.502 134.9 309.42 134.84C309.421 134.839 309.422 134.839 309.423 134.838C309.567 134.738 309.712 134.634 309.857 134.527C309.936 134.47 310.014 134.411 310.093 134.352C310.632 133.947 311.177 133.506 311.685 133.072C311.737 133.028 311.788 132.985 311.838 132.941M308.45 129.546L309.82 130.52C309.766 130.566 309.711 130.611 309.655 130.657M308.45 129.546L308.078 129.281L308.45 129.546ZM308.078 129.281L308.02 129.24C307.684 129.628 307.256 130.058 306.795 130.475C306.556 130.692 306.309 130.904 306.062 131.106C306.048 131.118 306.034 131.129 306.02 131.14C305.979 131.078 305.939 131.015 305.9 130.952C305.782 130.764 305.67 130.572 305.564 130.377C305.49 130.24 305.418 130.102 305.348 129.962M335.02 136.14V137.5C335.02 137.94 335.04 138 335.34 138H336.1C336.108 138 336.117 138 336.125 138C336.129 137.999 336.133 137.999 336.136 137.999C336.137 137.999 336.136 137.999 336.136 137.999C336.236 137.992 336.307 137.954 336.36 137.839C336.394 137.763 336.421 137.655 336.441 137.5C336.45 137.434 336.458 137.359 336.465 137.275C336.468 137.237 336.471 137.197 336.474 137.156C336.485 137 336.493 136.816 336.5 136.6C336.829 136.86 337.516 137.119 338.058 137.275C338.079 137.281 338.1 137.287 338.12 137.292C338.129 137.295 338.138 137.298 338.148 137.3C338.157 137.303 338.166 137.305 338.175 137.308C338.218 137.319 338.26 137.33 338.3 137.34C338.265 137.684 338.22 137.984 338.163 138.245C338.15 138.308 338.135 138.368 338.12 138.427C338.049 138.7 337.963 138.925 337.858 139.109C337.819 139.176 337.778 139.238 337.735 139.295C337.612 139.456 337.467 139.575 337.3 139.66C337.11 139.756 336.889 139.809 336.635 139.83C336.547 139.837 336.456 139.84 336.36 139.84H334.98C334.721 139.84 334.494 139.826 334.295 139.795C334.172 139.777 334.061 139.752 333.959 139.72C333.798 139.67 333.661 139.604 333.546 139.52C333.523 139.503 333.501 139.486 333.48 139.467C333.071 139.117 332.96 138.495 332.96 137.5V136.14H331.22C331.214 136.194 331.207 136.248 331.201 136.301C331.194 136.356 331.186 136.411 331.178 136.465C331.173 136.499 331.168 136.532 331.163 136.565C331.156 136.613 331.148 136.66 331.14 136.707C331.106 136.903 331.066 137.093 331.019 137.275C330.999 137.351 330.978 137.426 330.955 137.5C330.888 137.719 330.809 137.927 330.716 138.125C330.612 138.345 330.491 138.552 330.348 138.747C330.229 138.91 330.095 139.064 329.944 139.21C329.935 139.218 329.926 139.227 329.917 139.236C329.736 139.408 329.53 139.57 329.298 139.72C329.052 139.879 328.777 140.025 328.467 140.16C328.463 140.162 328.459 140.164 328.455 140.165C328.424 140.179 328.392 140.192 328.36 140.206C328.24 140.256 328.115 140.304 327.985 140.35C327.91 140.377 327.833 140.404 327.754 140.43C327.723 140.44 327.692 140.45 327.66 140.46C327.627 140.369 327.583 140.27 327.53 140.165C327.529 140.164 327.528 140.162 327.527 140.16C327.489 140.085 327.446 140.006 327.4 139.928C327.383 139.898 327.366 139.869 327.348 139.84C327.234 139.654 327.104 139.466 326.97 139.295C326.889 139.192 326.807 139.095 326.726 139.008C326.717 138.998 326.709 138.989 326.7 138.98C326.721 139.085 326.738 139.19 326.751 139.295C326.775 139.478 326.788 139.661 326.795 139.84C326.799 139.948 326.8 140.055 326.8 140.16C326.8 140.38 326.792 140.588 326.775 140.782C326.759 140.958 326.737 141.124 326.707 141.28C326.665 141.498 326.608 141.695 326.536 141.873C326.513 141.932 326.487 141.99 326.46 142.045C326.456 142.051 326.453 142.058 326.449 142.065C326.307 142.345 326.118 142.569 325.88 142.74C325.878 142.741 325.877 142.742 325.875 142.744C325.85 142.76 325.825 142.777 325.8 142.792C325.748 142.824 325.693 142.854 325.637 142.882C325.623 142.889 325.609 142.895 325.595 142.902C325.343 143.02 325.057 143.097 324.752 143.154C324.742 143.156 324.731 143.158 324.72 143.16C324.572 143.183 324.412 143.198 324.245 143.205C324.142 143.21 324.036 143.212 323.928 143.212C323.866 143.212 323.803 143.212 323.74 143.21C323.718 143.21 323.697 143.209 323.675 143.209C323.59 143.207 323.505 143.204 323.42 143.2C323.419 143.184 323.419 143.168 323.418 143.152C323.389 142.57 323.191 141.684 322.88 141.1C323.117 141.128 323.324 141.136 323.51 141.139C323.567 141.14 323.622 141.14 323.675 141.14C323.697 141.14 323.719 141.14 323.74 141.14C323.943 141.122 324.095 141.086 324.259 140.987C324.272 140.978 324.286 140.969 324.3 140.96C324.306 140.956 324.312 140.952 324.318 140.948C324.334 140.936 324.35 140.923 324.364 140.908C324.365 140.908 324.365 140.907 324.366 140.907C324.404 140.87 324.438 140.825 324.466 140.773C324.476 140.757 324.484 140.74 324.492 140.722C324.556 140.583 324.592 140.401 324.609 140.178C324.609 140.172 324.61 140.166 324.61 140.16C324.617 140.061 324.62 139.955 324.62 139.84C324.62 139.823 324.62 139.805 324.62 139.788C324.618 139.665 324.612 139.536 324.599 139.4C324.593 139.346 324.587 139.291 324.579 139.235C324.541 138.953 324.474 138.647 324.364 138.324C324.265 138.036 324.133 137.733 323.957 137.422C323.935 137.383 323.913 137.344 323.89 137.305C323.824 137.194 323.752 137.082 323.675 136.969C323.636 136.912 323.596 136.855 323.554 136.797C323.458 136.666 323.353 136.533 323.24 136.4C323.321 136.15 323.403 135.88 323.485 135.595C323.497 135.554 323.509 135.512 323.521 135.47C323.547 135.38 323.573 135.288 323.599 135.195C323.624 135.104 323.65 135.013 323.675 134.921C323.747 134.658 323.818 134.39 323.888 134.12C323.979 133.77 324.067 133.418 324.151 133.075C324.179 132.963 324.206 132.852 324.233 132.742C324.291 132.5 324.347 132.265 324.4 132.04H322.72V147.74H320.52V129.92H325.12L325.48 129.82L327.08 130.74C327.058 130.814 327.035 130.89 327.012 130.965C326.894 131.352 326.769 131.757 326.64 132.17C326.602 132.293 326.563 132.416 326.523 132.54C326.515 132.567 326.507 132.593 326.498 132.62C326.339 133.122 326.175 133.628 326.01 134.12C325.965 134.256 325.92 134.39 325.875 134.523C325.866 134.55 325.856 134.577 325.847 134.604C325.794 134.761 325.741 134.915 325.688 135.067C325.556 135.446 325.426 135.807 325.3 136.14C325.303 136.143 325.305 136.146 325.308 136.149C325.527 136.415 325.714 136.677 325.875 136.933C325.957 137.064 326.033 137.194 326.101 137.323C326.258 137.616 326.381 137.902 326.479 138.181C326.487 138.205 326.496 138.23 326.504 138.254C326.557 138.412 326.602 138.567 326.64 138.72C326.64 138.72 326.64 138.72 326.64 138.72C326.79 138.675 326.93 138.629 327.062 138.58C327.096 138.568 327.128 138.556 327.16 138.543C327.244 138.511 327.323 138.477 327.4 138.443C327.479 138.408 327.554 138.371 327.626 138.334C327.753 138.268 327.87 138.198 327.977 138.125C328.33 137.884 328.578 137.603 328.753 137.275C328.823 137.145 328.881 137.007 328.931 136.861C328.94 136.833 328.949 136.805 328.958 136.777C329.01 136.607 329.051 136.426 329.085 136.234C329.09 136.203 329.095 136.172 329.1 136.14H326.64V134.12H331.14V132.62H327.68V130.64H331.14V129.1H333.48V130.64H337.1V132.62H333.48V134.12H338.12V136.14H335.02ZM337.3 141.28H333.48V139.72H331.14V141.28H327.4V143.32H331.14V145.22H325.8V147.3H338.32V145.22H333.48V143.32H337.3V141.28ZM340.455 142.897V141.28C340.455 141.164 340.449 141.049 340.436 140.936C341.141 139.862 341.343 138.61 341.439 137.657C341.487 137.178 341.425 136.71 341.272 136.28C341.274 136.234 341.275 136.187 341.275 136.14V134.12C341.275 133.201 340.882 132.374 340.255 131.797V130.64C340.255 128.898 338.842 127.485 337.1 127.485H336.191C335.64 126.563 334.632 125.945 333.48 125.945H331.14C329.988 125.945 328.98 126.563 328.429 127.485H327.748L327.053 127.085C326.337 126.674 325.49 126.56 324.692 126.765H320.52C318.778 126.765 317.365 128.178 317.365 129.92V147.74C317.365 149.483 318.778 150.895 320.52 150.895H322.72C323.446 150.895 324.114 150.65 324.648 150.238C325.005 150.378 325.393 150.455 325.8 150.455H338.32C340.062 150.455 341.475 149.043 341.475 147.3V145.22C341.475 144.301 341.082 143.474 340.455 142.897Z" fill="#E83410"/>
<path d="M416.822 190.073C420.81 202.83 414.041 217.274 401.695 222.353C389.348 227.433 376.12 221.216 372.132 208.459C368.144 195.702 374.913 181.258 387.26 176.179C399.606 171.099 412.834 177.316 416.822 190.073Z" fill="#4BC2CB"/>
<path d="M392.384 186.791L396.725 193.521L404.626 193.08L399.713 200.056L402.011 207.947L394.623 205.547L388.127 210.853L388.476 202.408L382.178 197.778L389.796 194.972L392.384 186.791Z" fill="white"/>
</svg>
