<svg width="1348" height="732" viewBox="0 0 1348 732" fill="none" xmlns="http://www.w3.org/2000/svg">
<path d="M377.626 714.562C374.944 717.558 371.056 719.033 367.035 719.049L4.34091 720.449C3.39327 716.706 2.90049 713.203 2.75483 709.915C2.6888 708.645 2.68785 707.414 2.77293 706.196C4.47149 667.524 59.8621 661.829 59.8621 661.829C59.8621 661.829 60.944 656.445 63.4177 648.575C63.7425 647.56 64.0665 646.503 64.4326 645.404C68.3203 633.9 74.8406 618.532 84.8783 606.667C84.983 606.527 85.0882 606.414 85.2144 606.274C91.1169 599.392 98.1786 593.733 106.598 590.787C141.491 578.567 161.813 610.797 161.813 610.797C161.813 610.797 160.592 594.395 172.311 579.402C172.856 578.701 173.465 577.985 174.074 577.282C182.039 568.22 195.103 559.991 216.581 556.752C274.704 547.952 266.034 589.005 266.034 589.005C266.034 589.005 297.53 585.75 318.458 605.318C318.828 605.63 319.155 605.942 319.483 606.267C319.898 606.675 320.313 607.096 320.707 607.517C330.378 617.903 334.029 632.284 335.21 644.152C335.391 645.836 335.506 647.465 335.578 649.026C336.096 658.667 335.13 665.666 335.13 665.666C335.13 665.666 349.089 660.656 373.269 671.483C374.588 672.068 375.951 672.734 377.337 673.414C377.878 673.681 378.42 673.975 379.004 674.268C400.182 685.28 385.66 705.589 377.626 714.562Z" fill="#6CBDC0"/>
<path d="M969.899 716.896C972.581 719.892 976.469 721.367 980.49 721.383L1343.18 722.783C1344.13 719.04 1344.62 715.537 1344.77 712.249C1344.84 710.979 1344.84 709.748 1344.75 708.53C1343.05 669.858 1287.66 664.163 1287.66 664.163C1284.53 648.564 1281.35 637.737 1271 625.5C1254.75 603.749 1204 596.5 1185.71 613.131C1185.71 613.131 1186.93 596.729 1175.21 581.736C1174.67 581.035 1174.06 580.319 1173.45 579.616C1165.49 570.554 1152.42 562.325 1130.94 559.086C1072.82 550.286 1081.49 591.339 1081.49 591.339C1081.49 591.339 1050 588.084 1029.07 607.652C1028.7 607.964 1028.37 608.276 1028.04 608.601C1027.63 609.009 1027.21 609.43 1026.82 609.851C1017.15 620.237 1013.5 634.618 1012.32 646.486C1012.13 648.17 1012.02 649.799 1011.95 651.36C1011.43 661.001 1012.4 668 1012.4 668C1012.4 668 998.436 662.99 974.256 673.817C972.937 674.402 971.574 675.068 970.188 675.748C969.647 676.015 969.106 676.309 968.521 676.602C947.343 687.614 961.865 707.923 969.899 716.896Z" fill="#6CBDC0"/>
<path d="M210.03 148H1098.03V661H210.03V148Z" fill="#6C9BE3"/>
<path d="M216.03 290C216.03 287.239 218.268 285 221.03 285H265.03C267.791 285 270.03 287.239 270.03 290V303C270.03 305.761 267.791 308 265.03 308H221.03C218.268 308 216.03 305.761 216.03 303V290Z" fill="#89B2F0"/>
<path d="M1025.03 330C1025.03 327.239 1027.27 325 1030.03 325H1059.03C1061.79 325 1064.03 327.239 1064.03 330V343C1064.03 345.761 1061.79 348 1059.03 348H1030.03C1027.27 348 1025.03 345.761 1025.03 343V330Z" fill="#89B2F0"/>
<path d="M1025.03 598C1025.03 595.239 1027.27 593 1030.03 593H1059.03C1061.79 593 1064.03 595.239 1064.03 598V611C1064.03 613.761 1061.79 616 1059.03 616H1030.03C1027.27 616 1025.03 613.761 1025.03 611V598Z" fill="#7EA7E5"/>
<path d="M247.03 321C247.03 318.239 249.268 316 252.03 316H296.03C298.791 316 301.03 318.239 301.03 321V334C301.03 336.761 298.791 339 296.03 339H252.03C249.268 339 247.03 336.761 247.03 334V321Z" fill="#89B2F0"/>
<path d="M1053.03 384C1053.03 381.239 1055.27 379 1058.03 379H1102.03C1104.79 379 1107.03 381.239 1107.03 384V397C1107.03 399.761 1104.79 402 1102.03 402H1058.03C1055.27 402 1053.03 399.761 1053.03 397V384Z" fill="#89B2F0"/>
<path d="M1037.03 281C1037.03 278.239 1039.27 276 1042.03 276H1086.03C1088.79 276 1091.03 278.239 1091.03 281V294C1091.03 296.761 1088.79 299 1086.03 299H1042.03C1039.27 299 1037.03 296.761 1037.03 294V281Z" fill="#89B2F0"/>
<path d="M201.03 570C201.03 567.239 203.268 565 206.03 565H250.03C252.791 565 255.03 567.239 255.03 570V583C255.03 585.761 252.791 588 250.03 588H206.03C203.268 588 201.03 585.761 201.03 583V570Z" fill="#89B2F0"/>
<path d="M194 674C194 651.909 211.909 634 234 634H1088C1110.09 634 1128 651.909 1128 674V676H194V674Z" fill="#2E4B82"/>
<path fill-rule="evenodd" clip-rule="evenodd" d="M479.03 185L479.03 219L468.03 219L468.03 185L479.03 185Z" fill="#82DAE1"/>
<path fill-rule="evenodd" clip-rule="evenodd" d="M843.03 185L843.03 219L832.03 219L832.03 185L843.03 185Z" fill="#82DAE1"/>
<path d="M343.284 126.682H254.642L320.815 44H393.997L343.284 126.682Z" fill="#FFFCEB"/>
<path d="M520.552 126.682H431.91L467.178 44H540.344L520.552 126.682Z" fill="#FFFCEB"/>
<path d="M697.835 126.682H609.193L613.525 44H686.707L697.835 126.682Z" fill="#FFFCEB"/>
<path d="M875.104 126.682H786.478L759.873 44H833.054L875.104 126.682Z" fill="#FFFCEB"/>
<path d="M1052.39 126.682H963.746L906.236 44H979.401L1052.39 126.682Z" fill="#FFFCEB"/>
<path d="M254.642 126.682H166L247.65 44H320.815L254.642 126.682Z" fill="#6BC4CB"/>
<path d="M431.91 126.682H343.284L393.997 44H467.179L431.91 126.682Z" fill="#6BC4CB"/>
<path d="M609.194 126.682H520.552L540.344 44H613.525L609.194 126.682Z" fill="#6BC4CB"/>
<path d="M786.478 126.682H697.836L686.707 44H759.872L786.478 126.682Z" fill="#6BC4CB"/>
<path d="M963.745 126.682H875.103L833.054 44H906.235L963.745 126.682Z" fill="#6BC4CB"/>
<path d="M1141.03 126.682H1052.39L979.401 44H1052.58L1141.03 126.682Z" fill="#6BC4CB"/>
<path d="M257.15 129.748H345.538V148.806C345.538 173.214 325.752 193 301.344 193C276.936 193 257.15 173.214 257.15 148.806V129.748Z" fill="#FFFCEB"/>
<path d="M433.926 129.748H522.314V148.806C522.314 173.214 502.528 193 478.12 193C453.712 193 433.926 173.214 433.926 148.806V129.748Z" fill="#FFFCEB"/>
<path d="M610.702 129.748H699.09V148.806C699.09 173.214 679.304 193 654.896 193C630.488 193 610.702 173.214 610.702 148.806V129.748Z" fill="#FFFCEB"/>
<path d="M787.478 129.748H875.866V148.806C875.866 173.214 856.08 193 831.672 193C807.264 193 787.478 173.214 787.478 148.806V129.748Z" fill="#FFFCEB"/>
<path d="M964.254 129.748H1052.64V148.806C1052.64 173.214 1032.86 193 1008.45 193C984.04 193 964.254 173.214 964.254 148.806V129.748Z" fill="#FFFCEB"/>
<path d="M168.762 129.748H257.15V148.806C257.15 173.214 237.364 193 212.956 193C188.548 193 168.762 173.214 168.762 148.806V129.748Z" fill="#6BC4CB"/>
<path d="M345.538 129.748H433.926V148.806C433.926 173.214 414.14 193 389.732 193C365.324 193 345.538 173.214 345.538 148.806V129.748Z" fill="#6BC4CB"/>
<path d="M522.314 129.748H610.702V148.806C610.702 173.214 590.916 193 566.508 193C542.1 193 522.314 173.214 522.314 148.806V129.748Z" fill="#6BC4CB"/>
<path d="M699.09 129.748H787.478V148.806C787.478 173.214 767.692 193 743.284 193C718.876 193 699.09 173.214 699.09 148.806V129.748Z" fill="#6BC4CB"/>
<path d="M875.866 129.748H964.254V148.806C964.254 173.214 944.468 193 920.06 193C895.652 193 875.866 173.214 875.866 148.806V129.748Z" fill="#6BC4CB"/>
<path d="M1052.64 129.748H1141.03V148.806C1141.03 173.214 1121.24 193 1096.84 193C1072.43 193 1052.64 173.214 1052.64 148.806V129.748Z" fill="#6BC4CB"/>
<path d="M406.053 5H893.348L879.325 90H392.03L406.053 5Z" fill="#F04928"/>
<path fill-rule="evenodd" clip-rule="evenodd" d="M408.116 7.43134L394.895 87.5687H877.262L890.482 7.43134H408.116ZM406.053 5L392.03 90H879.325L893.348 5H406.053Z" fill="#284273"/>
<path d="M417.023 0H904.318L890.295 85H403L417.023 0Z" fill="#FFC232"/>
<path fill-rule="evenodd" clip-rule="evenodd" d="M419.086 2.43134L405.865 82.5687H888.232L901.453 2.43134H419.086ZM417.023 0L403 85H890.295L904.318 0H417.023Z" fill="#284273"/>
<path d="M514.69 40.6801H518.75V37.6001H514.69V33.3161C516.174 32.9801 517.63 32.5881 518.862 32.1401L516.706 29.5361C514.158 30.5441 510.07 31.4401 506.43 31.9441C506.794 32.6721 507.186 33.7921 507.326 34.5481C508.614 34.3801 509.958 34.1841 511.33 33.9601V37.6001H506.346V40.6801H510.518C509.426 43.7601 507.634 46.9801 505.73 48.9961C506.29 49.8361 507.102 51.1521 507.41 52.1321C508.894 50.4801 510.21 48.0721 511.33 45.4401V55.4081H514.69V45.0761C515.614 46.3921 516.51 47.7921 517.042 48.7441L518.946 45.9721C518.33 45.2161 515.81 42.2761 514.69 41.1561V40.6801ZM522.754 48.6881V35.1081H527.234V48.6881H522.754ZM519.478 31.9161V54.0921H522.754V51.8801H527.234V53.8961H530.678V31.9161H519.478Z" fill="white"/>
<path d="M544.426 49.5841C542.718 50.3401 541.094 51.0681 539.918 51.4881L540.926 53.8681C542.27 53.1961 543.642 52.4401 544.986 51.6561L544.426 49.5841ZM548.29 50.2841V44.9361H545.378V52.6921C545.378 52.9721 545.294 53.0281 545.042 53.0561C544.79 53.0561 544.09 53.0561 543.418 53.0281C543.726 53.7001 544.118 54.6521 544.23 55.3801C545.574 55.4081 546.526 55.3521 547.31 54.9881C548.094 54.5961 548.29 54.0081 548.29 52.7761V51.7121C549.438 52.4121 550.698 53.3361 551.342 53.9801L552.938 51.9361C552.042 51.1801 550.306 50.0881 548.99 49.3881L548.29 50.2841ZM548.29 38.4961C549.662 39.3361 551.202 40.4001 552.042 41.0441L553.75 38.8041C552.994 38.3561 550.53 37.0681 549.018 36.3401H553.442V33.7921H548.29V32.3641C549.942 32.1961 551.51 31.9721 552.882 31.7201L551.258 29.3681C548.514 29.9281 544.174 30.3761 540.394 30.5721C540.674 31.2161 541.01 32.1961 541.094 32.8121C542.438 32.7841 543.866 32.7281 545.322 32.6441V33.7921H540.03V36.3401H543.586C542.382 37.7401 540.674 39.1121 539.19 39.8401C539.946 40.3721 540.814 41.2121 541.346 41.9121C542.634 41.0161 544.146 39.6441 545.322 38.3001V40.5961C544.09 42.2481 542.018 43.9841 539.218 45.2721C539.89 45.7481 540.814 46.7841 541.262 47.5121L541.346 47.4561C542.046 48.1841 542.802 49.1361 543.11 49.7801L545.014 48.4081C544.678 47.8201 543.922 46.9801 543.25 46.3361C544.93 45.2161 546.274 44.0121 547.366 42.9201C548.486 43.8161 549.662 44.9641 550.53 45.8881L550.306 45.7481C549.858 46.5321 549.018 47.6801 548.43 48.3801L550.278 49.5561C550.894 48.9121 551.678 48.0161 552.434 47.0641L551.37 46.4201L553.05 44.4321C551.958 43.2561 549.97 41.6321 548.29 40.4281V38.4961ZM561.842 51.2081H556.494V45.7481H561.842V51.2081ZM565.734 37.6841V34.6321H560.526V29.3121H557.278V42.6681H553.302V55.4361H556.494V54.2881H561.842V55.2961H565.174V42.6681H560.526V37.6841H565.734Z" fill="white"/>
<path d="M578.026 49.5841C576.318 50.3401 574.694 51.0681 573.518 51.4881L574.526 53.8681C575.87 53.1961 577.242 52.4401 578.586 51.6561L578.026 49.5841ZM581.89 50.2841V44.9361H578.978V52.6921C578.978 52.9721 578.894 53.0281 578.642 53.0561C578.39 53.0561 577.69 53.0561 577.018 53.0281C577.326 53.7001 577.718 54.6521 577.83 55.3801C579.174 55.4081 580.126 55.3521 580.91 54.9881C581.694 54.5961 581.89 54.0081 581.89 52.7761V51.7121C583.038 52.4121 584.298 53.3361 584.942 53.9801L586.538 51.9361C585.642 51.1801 583.906 50.0881 582.59 49.3881L581.89 50.2841ZM581.89 38.4961C583.262 39.3361 584.802 40.4001 585.642 41.0441L587.35 38.8041C586.594 38.3561 584.13 37.0681 582.618 36.3401H587.042V33.7921H581.89V32.3641C583.542 32.1961 585.11 31.9721 586.482 31.7201L584.858 29.3681C582.114 29.9281 577.774 30.3761 573.994 30.5721C574.274 31.2161 574.61 32.1961 574.694 32.8121C576.038 32.7841 577.466 32.7281 578.922 32.6441V33.7921H573.63V36.3401H577.186C575.982 37.7401 574.274 39.1121 572.79 39.8401C573.546 40.3721 574.414 41.2121 574.946 41.9121C576.234 41.0161 577.746 39.6441 578.922 38.3001V40.5961C577.69 42.2481 575.618 43.9841 572.818 45.2721C573.49 45.7481 574.414 46.7841 574.862 47.5121L574.946 47.4561C575.646 48.1841 576.402 49.1361 576.71 49.7801L578.614 48.4081C578.278 47.8201 577.522 46.9801 576.85 46.3361C578.53 45.2161 579.874 44.0121 580.966 42.9201C582.086 43.8161 583.262 44.9641 584.13 45.8881L583.906 45.7481C583.458 46.5321 582.618 47.6801 582.03 48.3801L583.878 49.5561C584.494 48.9121 585.278 48.0161 586.034 47.0641L584.97 46.4201L586.65 44.4321C585.558 43.2561 583.57 41.6321 581.89 40.4281V38.4961ZM595.442 51.2081H590.094V45.7481H595.442V51.2081ZM599.334 37.6841V34.6321H594.126V29.3121H590.878V42.6681H586.902V55.4361H590.094V54.2881H595.442V55.2961H598.774V42.6681H594.126V37.6841H599.334Z" fill="white"/>
<path d="M609.078 43.0881C609.834 40.9601 610.254 37.6561 610.282 35.1081L607.762 34.8001C607.65 37.1801 607.23 40.2881 606.53 42.1081L609.078 43.0881ZM617.366 38.8881C617.002 37.6281 616.078 35.4721 615.35 33.8481L613.67 34.5481V29.2561H610.45V55.4361H613.67V36.5921C614.174 37.8801 614.622 39.1681 614.846 40.1201L617.366 38.8881ZM625.99 48.4921H631.674V45.5241H625.99V42.9481H622.658V45.5241H616.862V48.4921H622.658V51.7961H615.602V54.7921H632.906V51.7961H625.99V48.4921ZM627.166 33.3721C626.41 34.6881 625.458 35.8081 624.338 36.8161C623.134 35.8081 622.126 34.6601 621.37 33.3721H627.166ZM629.406 30.3481L628.818 30.4601H616.862V33.3721H619.354L618.234 33.7361C619.186 35.5841 620.39 37.2361 621.79 38.6081C619.774 39.7561 617.478 40.5681 614.958 41.0161C615.546 41.6881 616.274 42.9761 616.61 43.8161C619.466 43.1161 622.07 42.1081 624.338 40.7081C626.298 41.9961 628.566 43.0041 631.17 43.6761C631.646 42.8081 632.57 41.4641 633.242 40.8201C630.918 40.3441 628.818 39.6161 627.026 38.6081C629.014 36.7321 630.554 34.3241 631.534 31.2441L629.406 30.3481Z" fill="white"/>
<path d="M650.882 41.6321L648.306 42.3601V37.8521H650.63V34.6881H648.306V29.3121H645.254V34.6881H643.938C644.106 33.5681 644.246 32.4761 644.358 31.3561L641.586 30.8801C641.334 34.1841 640.858 37.6841 639.99 39.8961C640.606 40.2601 641.838 41.0161 642.342 41.4361C642.734 40.4281 643.07 39.2241 643.378 37.8521H645.254V43.2001C643.35 43.7321 641.642 44.1801 640.242 44.4881L641.054 47.6521C642.342 47.3161 643.742 46.8681 645.254 46.4201V55.4641H648.306V45.4961C649.342 45.1881 650.322 44.8521 651.33 44.5721L650.882 41.6321ZM655.866 33.6241C656.258 32.3921 656.622 31.1321 656.902 29.8441L653.878 29.2841C653.038 33.4001 651.498 37.4041 649.286 39.8401C649.958 40.2601 651.274 41.1841 651.806 41.7161C652.898 40.3721 653.878 38.6361 654.69 36.7041H656.118C654.886 40.7641 652.702 44.9081 649.93 47.0921C650.798 47.5681 651.862 48.3241 652.478 48.9681C655.306 46.2801 657.658 41.2681 658.89 36.7041H660.206C658.806 43.2561 656.006 49.6121 651.526 52.8321C652.45 53.3081 653.598 54.1201 654.242 54.7641C658.75 51.0401 661.634 43.7601 663.006 36.7041H663.146C662.698 46.7561 662.194 50.5641 661.494 51.4601C661.158 51.8801 660.878 51.9921 660.458 51.9921C659.926 51.9921 659.002 51.9921 657.966 51.8801C658.47 52.8041 658.806 54.1761 658.89 55.1281C660.094 55.1841 661.27 55.1841 662.054 55.0441C662.978 54.8481 663.594 54.5401 664.238 53.5881C665.302 52.1881 665.806 47.6241 666.338 35.1361C666.366 34.7441 666.394 33.6241 666.394 33.6241H655.866Z" fill="white"/>
<path d="M674.178 40.2881V43.9001H699.938V40.2881H674.178Z" fill="white"/>
<path d="M728.918 37.5721H721.834V46.1681C721.834 49.3881 722.73 50.2841 725.838 50.2841H729.814C732.53 50.2841 733.342 49.1081 733.706 44.9361C732.866 44.7401 731.494 44.2081 730.794 43.6761C730.682 46.8121 730.514 47.3161 729.534 47.3161H726.286C725.194 47.3161 724.998 47.1761 724.998 46.1681V40.4281H728.918V41.1561H732.138V30.3481H721.582V33.2601H728.918V37.5721ZM716.542 46.3641H720.518V43.4801H716.542V40.4561H720.77V37.5721H715.926V34.9401H720.07V32.0841H715.926V29.3401H712.818V32.0841H708.646V34.9401H712.818V37.5721H707.89V40.4561H713.49V49.1641C712.762 48.3521 712.202 47.3161 711.754 45.9441C711.81 44.7681 711.866 43.5641 711.894 42.3321L708.842 42.1081C708.786 46.8961 708.506 51.5441 707.134 54.3721C707.862 54.6801 709.318 55.4081 709.906 55.8001C710.522 54.4281 710.942 52.7761 711.222 50.9001C713.406 54.0361 716.738 54.7081 721.946 54.7081H732.754C732.95 53.7281 733.51 52.1881 734.014 51.4321C731.494 51.5441 724.074 51.5441 721.946 51.5161C719.79 51.5161 718.026 51.4041 716.542 50.9841V46.3641Z" fill="white"/>
<path d="M756.022 51.3761V45.7481H764.394V42.5281H756.022V37.6001H765.458V34.3521H756.022V29.3121H752.522V34.3521H748.21C748.686 33.0641 749.134 31.7481 749.526 30.4041L746.082 29.6481C745.13 33.4561 743.31 37.3201 741.126 39.6721C741.966 40.1201 743.45 41.1281 744.122 41.6601C745.046 40.5681 745.914 39.1401 746.726 37.6001H752.522V42.5281H744.934V45.7481H752.522V51.3761H741.714V54.6521H766.886V51.3761H756.022Z" fill="white"/>
<path d="M783.294 32.4481C782.09 31.6641 779.654 30.4321 778.086 29.6481L776.21 32.0561C777.834 32.9801 780.214 34.2961 781.306 35.1361L783.294 32.4481ZM781.95 40.0081C780.718 39.2521 778.226 38.0481 776.686 37.2921L774.894 39.7561C776.546 40.6521 778.954 41.9681 780.102 42.7801L781.95 40.0081ZM778.086 55.1281C779.794 52.4121 781.558 49.2201 783.042 46.2801L780.606 44.0401C778.926 47.2881 776.77 50.7601 775.286 52.8601L778.086 55.1281ZM796.258 51.2641H787.858V47.1481H796.258V51.2641ZM800.822 40.5961V37.4041H793.71V33.5681C795.894 33.1481 797.994 32.5881 799.786 31.9161L797.238 29.2841C794.158 30.5161 788.894 31.4401 784.134 31.9161C784.526 32.6721 784.974 33.9601 785.114 34.7721C786.85 34.6041 788.726 34.4081 790.546 34.1281V37.4041H783.098V40.5961H790.546V44.1241H784.834V55.4361H787.858V54.2881H796.258V55.2961H799.422V44.1241H793.71V40.5961H800.822Z" fill="white"/>
<path fill-rule="evenodd" clip-rule="evenodd" d="M518.75 40.6801V37.6001H514.69V33.3161C514.859 33.2778 515.028 33.2388 515.196 33.199C515.377 33.1563 515.557 33.1127 515.735 33.0683C515.985 33.0062 516.233 32.9425 516.478 32.8772C517.324 32.6511 518.132 32.4055 518.862 32.1401L516.706 29.5361C516.631 29.5657 516.555 29.5951 516.478 29.6245C515.869 29.8555 515.182 30.0801 514.44 30.2949C514.306 30.3338 514.17 30.3724 514.032 30.4107C513.819 30.4697 513.602 30.5279 513.382 30.5853C512.836 30.7276 512.269 30.8643 511.69 30.9945C511.42 31.0549 511.148 31.1139 510.874 31.1714C510.418 31.2672 509.956 31.3587 509.492 31.4454C508.651 31.6026 507.805 31.7439 506.976 31.866C506.793 31.893 506.611 31.9191 506.43 31.9441C506.794 32.6721 507.186 33.7921 507.326 34.5481C507.657 34.5049 507.992 34.4599 508.33 34.413C509.307 34.2775 510.31 34.1265 511.33 33.9601V37.6001H506.346V40.6801H510.518C510.163 41.6807 509.734 42.6961 509.252 43.6801C509.144 43.9008 509.033 44.1199 508.92 44.3369C508.909 44.3581 508.898 44.3792 508.886 44.4004C508.336 45.4475 507.729 46.4445 507.089 47.3327C506.648 47.9454 506.192 48.5063 505.73 48.9961C505.781 49.0735 505.835 49.155 505.89 49.2398C506.435 50.0758 507.13 51.2424 507.41 52.1321C507.724 51.7822 508.031 51.3985 508.33 50.9858C508.706 50.4663 509.07 49.9011 509.421 49.3002C509.491 49.1814 509.56 49.0611 509.628 48.9396C510.236 47.8589 510.805 46.6741 511.33 45.4401V55.4081H514.69V45.0761C514.898 45.3726 515.105 45.6733 515.306 45.9723C515.643 46.4722 515.965 46.9671 516.255 47.4285C516.332 47.5506 516.406 47.6704 516.478 47.7873C516.692 48.1366 516.883 48.4603 517.042 48.7441L518.946 45.9721C518.879 45.8906 518.791 45.7836 518.684 45.6563C518.293 45.1892 517.66 44.4478 516.989 43.6801C516.95 43.6351 516.91 43.5901 516.871 43.5449C516.74 43.396 516.609 43.2467 516.478 43.0988C515.799 42.3314 515.134 41.6005 514.69 41.1561V40.6801H518.75ZM519.478 54.0921H522.754V51.8801H527.234V53.8961H530.678V31.9161H519.478V54.0921ZM520.087 28.9161L517.628 25.9453L515.602 26.7465C513.378 27.6263 509.561 28.4819 506.018 28.9725L501.877 29.5459L503.746 33.2858C503.925 33.6431 504.121 34.1661 504.251 34.6001H503.346V43.6801H505.863C505.133 44.9688 504.332 46.1068 503.549 46.9362L501.909 48.6728L503.234 50.6602C503.812 51.5274 504.385 52.5138 504.548 53.0316L506.125 58.0512L508.33 55.5972V58.4081H517.69V57.0921H525.754V56.8961H533.678V45.0243L537.484 47.7202C537.717 47.8851 538.193 48.3842 538.512 48.8045L535.916 49.7318L539.409 57.9804L541.438 56.9659L541.648 58.327L544.167 58.3795C544.524 58.3869 544.901 58.3916 545.29 58.3811V58.9971L545.788 58.3587C546.7 58.3001 547.659 58.1338 548.573 57.7091L548.613 57.6908L548.651 57.6714C549.102 57.4463 549.529 57.1551 549.903 56.7838L550.302 57.1828V58.4361H551.555L551.619 58.4999L551.669 58.4361H559.494V58.2961H568.174V45.659L571.084 47.7202C571.317 47.8851 571.793 48.3842 572.112 48.8045L569.516 49.7318L573.009 57.9804L575.038 56.9659L575.248 58.327L577.767 58.3795C578.124 58.3869 578.501 58.3916 578.89 58.3811V58.9971L579.388 58.3587C580.3 58.3001 581.259 58.1338 582.173 57.7091L582.213 57.6908L582.251 57.6714C582.702 57.4463 583.129 57.1551 583.503 56.7838L583.902 57.1828V58.4361H585.155L585.219 58.4999L585.269 58.4361H593.094V58.2961H601.774V40.6841H602.334V31.6321H597.126V26.3121H587.878V28.462L586.2 26.0323L584.258 26.4287C581.724 26.9459 577.551 27.3836 573.838 27.5761L569.517 27.8002L570.818 30.7921H570.63V37.5582L568.734 38.4883V31.6321H563.526V26.3121H554.278V28.462L552.6 26.0323L550.658 26.4287C548.124 26.9459 543.951 27.3836 540.238 27.5761L535.917 27.8002L537.218 30.7921H537.03V37.5582L533.678 39.2026V28.9161H520.087ZM533.678 39.6297V44.5183L537.854 42.5974C537.72 42.4842 537.587 42.3808 537.463 42.2935L533.678 39.6297ZM545.29 40.6388C545.15 40.8238 545 41.0099 544.84 41.1961C544.627 41.4429 544.397 41.6902 544.148 41.9361C543.638 42.4414 543.053 42.9412 542.395 43.4205C542.389 43.4246 542.384 43.4288 542.378 43.433C542.252 43.5248 542.123 43.6158 541.991 43.7059C541.973 43.7182 541.955 43.7306 541.937 43.7428C541.842 43.8073 541.746 43.8713 541.649 43.9348C541.147 44.2618 540.61 44.5758 540.038 44.8715C539.988 44.8976 539.937 44.9236 539.886 44.9494C539.834 44.9761 539.781 45.0025 539.728 45.0288C539.697 45.0438 539.667 45.0588 539.636 45.0737C539.499 45.141 539.359 45.2071 539.218 45.2721C539.252 45.2963 539.287 45.322 539.322 45.349C539.884 45.7775 540.586 46.5425 541.045 47.1867C541.125 47.2997 541.198 47.409 541.262 47.5121L541.346 47.4561C541.347 47.457 541.348 47.4579 541.348 47.4588C541.372 47.4837 541.396 47.5088 541.42 47.5342C541.442 47.557 541.463 47.58 541.485 47.6032C541.574 47.6988 541.664 47.7974 541.753 47.898C541.754 47.8992 541.755 47.9003 541.756 47.9015C541.972 48.1459 542.184 48.4017 542.378 48.6535C542.576 48.9114 542.755 49.1651 542.898 49.3979C542.933 49.4538 542.965 49.5084 542.995 49.5616C543.038 49.6376 543.077 49.7107 543.11 49.7801L545.014 48.4081C544.951 48.2983 544.874 48.1796 544.785 48.0551C544.678 47.906 544.556 47.7484 544.422 47.5874C544.171 47.2835 543.881 46.9674 543.591 46.6729C543.505 46.5855 543.419 46.5 543.334 46.4173C543.306 46.3899 543.278 46.3629 543.25 46.3361C543.311 46.2953 543.372 46.2543 543.432 46.2133C543.608 46.0937 543.78 45.9733 543.948 45.8523C544.369 45.5496 544.768 45.243 545.145 44.9361C545.223 44.8721 545.301 44.808 545.378 44.744C545.475 44.6634 545.57 44.5828 545.664 44.5023C546.153 44.0829 546.603 43.6663 547.019 43.2617C547.029 43.2527 547.038 43.2437 547.047 43.2347C547.156 43.1289 547.262 43.024 547.366 42.9201C547.612 43.1175 547.862 43.3271 548.11 43.5438C548.17 43.5961 548.23 43.6489 548.29 43.702C548.566 43.9473 548.839 44.1999 549.105 44.4528C549.25 44.5912 549.393 44.7298 549.532 44.8672C549.556 44.8902 549.579 44.9132 549.602 44.9361C549.733 45.0662 549.862 45.1951 549.986 45.3219C550.094 45.4323 550.2 45.5412 550.302 45.6477C550.315 45.6618 550.329 45.6759 550.342 45.6899C550.398 45.7481 550.452 45.8056 550.505 45.8622C550.514 45.8708 550.522 45.8795 550.53 45.8881L550.306 45.7481C550.304 45.7505 550.303 45.7528 550.302 45.7551C550.282 45.7902 550.261 45.8261 550.239 45.8626C550.223 45.8895 550.207 45.9168 550.19 45.9444C550.093 46.1056 549.982 46.2778 549.864 46.4552C549.862 46.4584 549.86 46.4615 549.858 46.4647C549.825 46.5139 549.792 46.5634 549.758 46.6133C549.424 47.1041 549.041 47.6213 548.701 48.0479C548.652 48.1089 548.605 48.1681 548.558 48.2251C548.533 48.2561 548.508 48.2866 548.483 48.3163C548.47 48.3323 548.457 48.3481 548.444 48.3636C548.439 48.3692 548.434 48.3746 548.43 48.3801L550.278 49.5561C550.286 49.5478 550.294 49.5394 550.302 49.531C550.321 49.5107 550.341 49.4902 550.36 49.4695C550.391 49.4374 550.421 49.4048 550.452 49.3716C550.712 49.0949 550.995 48.7806 551.29 48.4412C551.512 48.1853 551.741 47.9152 551.971 47.6364C552.084 47.4983 552.199 47.3582 552.312 47.2165C552.353 47.1659 552.393 47.1151 552.434 47.0641L551.37 46.4201L553.05 44.4321C552.958 44.3336 552.861 44.232 552.757 44.1277C552.707 44.0768 552.655 44.0253 552.602 43.9732C552.597 43.9678 552.591 43.9624 552.586 43.957C552.419 43.7937 552.24 43.625 552.052 43.4525C551.987 43.3929 551.921 43.3328 551.853 43.2723C551.734 43.1654 551.612 43.0573 551.487 42.9486C551.422 42.892 551.356 42.8352 551.29 42.7783C551.247 42.7417 551.204 42.7049 551.161 42.6681C551.088 42.6061 551.014 42.544 550.94 42.4818C550.731 42.3072 550.518 42.1323 550.302 41.9587C550.292 41.9511 550.283 41.9436 550.274 41.9361C549.84 41.588 549.398 41.2454 548.964 40.9219C548.747 40.7596 548.532 40.6021 548.322 40.4511C548.311 40.4434 548.3 40.4358 548.29 40.4281V38.4961C548.3 38.5026 548.311 38.5092 548.322 38.5157C548.551 38.6562 548.784 38.8027 549.018 38.9523C549.093 39.0004 549.168 39.0488 549.243 39.0975C549.368 39.1779 549.492 39.2589 549.615 39.3401C549.848 39.494 550.078 39.6484 550.302 39.8003C550.621 40.0176 550.926 40.2298 551.204 40.4281C551.489 40.6308 551.745 40.819 551.962 40.9831C551.989 41.0038 552.016 41.0242 552.042 41.0441L553.75 38.8041C553.667 38.7548 553.563 38.6954 553.442 38.6276C552.894 38.3206 551.994 37.8431 551.072 37.3686C550.689 37.1718 550.303 36.9755 549.936 36.7921C549.778 36.7128 549.623 36.6358 549.474 36.5623C549.315 36.484 549.162 36.4095 549.018 36.3401H553.442V33.7921H548.29V32.3641C548.3 32.363 548.311 32.3619 548.322 32.3609C548.748 32.3173 549.168 32.2701 549.581 32.2196C550.343 32.1264 551.079 32.0222 551.777 31.9101C552.157 31.849 552.526 31.7855 552.882 31.7201L551.258 29.3681C550.41 29.5411 549.41 29.7034 548.322 29.8509C548.228 29.8636 548.133 29.8762 548.038 29.8887C547.164 30.0035 546.237 30.1088 545.29 30.2025C545.254 30.2061 545.218 30.2096 545.182 30.2132C544.636 30.2666 544.083 30.3161 543.531 30.3614C542.697 30.4298 541.862 30.4884 541.046 30.5361C540.827 30.5489 540.61 30.5609 540.394 30.5721C540.424 30.6418 540.455 30.7154 540.486 30.7921C540.744 31.424 541.019 32.2628 541.094 32.8121C541.496 32.8037 541.906 32.7928 542.322 32.7794C543.285 32.7484 544.281 32.7039 545.29 32.646C545.3 32.6453 545.311 32.6447 545.322 32.6441V33.7921H540.03V36.3401H543.586C543.514 36.4232 543.441 36.5062 543.366 36.589C543.305 36.6569 543.242 36.7246 543.179 36.7921C542.758 37.2395 542.293 37.6771 541.808 38.0841C541.248 38.5541 540.662 38.9834 540.086 39.3401C539.961 39.418 539.836 39.4925 539.712 39.5631C539.535 39.6634 539.361 39.7561 539.19 39.8401C539.644 40.1595 540.138 40.5898 540.575 41.0343C540.867 41.3302 541.133 41.6323 541.346 41.9121C541.703 41.6633 542.078 41.3779 542.458 41.0665C542.643 40.9154 542.829 40.7582 543.014 40.5961C543.232 40.4058 543.45 40.2089 543.665 40.0071C543.793 39.8876 543.92 39.7664 544.045 39.644C544.482 39.2174 544.904 38.7758 545.29 38.3366C545.3 38.3244 545.311 38.3123 545.322 38.3001V40.5961C545.311 40.6103 545.301 40.6246 545.29 40.6388ZM553.302 42.6681V55.4361H556.494V54.2881H561.842V55.2961H565.174V42.6681H560.526V37.6841H565.734V34.6321H560.526V29.3121H557.278V42.6681H553.302ZM561.842 51.2081V45.7481H556.494V51.2081H561.842ZM568.174 40.6841H568.734V40.6542L571.063 42.2935C571.187 42.3808 571.32 42.4842 571.454 42.5974L568.174 44.1062V40.6841ZM578.89 40.6388C578.75 40.8238 578.6 41.0099 578.44 41.1961C578.227 41.4429 577.997 41.6902 577.748 41.9361C577.238 42.4414 576.653 42.9412 575.995 43.4205C575.989 43.4246 575.984 43.4288 575.978 43.433C575.852 43.5248 575.723 43.6158 575.591 43.7059C575.573 43.7182 575.555 43.7306 575.537 43.7428C575.442 43.8073 575.346 43.8713 575.249 43.9348C574.747 44.2618 574.21 44.5758 573.638 44.8714C573.588 44.8976 573.537 44.9236 573.486 44.9494C573.434 44.9761 573.381 45.0025 573.328 45.0288C573.297 45.0438 573.267 45.0588 573.236 45.0737C573.099 45.141 572.959 45.2071 572.818 45.2721C572.852 45.2963 572.887 45.322 572.922 45.349C573.484 45.7775 574.186 46.5425 574.645 47.1867C574.725 47.2997 574.798 47.409 574.862 47.5121L574.946 47.4561C574.947 47.457 574.948 47.4579 574.948 47.4588C574.972 47.4837 574.996 47.5088 575.02 47.5342C575.042 47.557 575.063 47.58 575.085 47.6032C575.174 47.6988 575.264 47.7974 575.353 47.898C575.354 47.8992 575.355 47.9003 575.356 47.9015C575.572 48.1459 575.784 48.4017 575.978 48.6535C576.176 48.9114 576.355 49.1651 576.498 49.3979C576.533 49.4538 576.565 49.5084 576.595 49.5616C576.638 49.6376 576.677 49.7107 576.71 49.7801L578.614 48.4081C578.551 48.2983 578.474 48.1796 578.385 48.0551C578.278 47.906 578.156 47.7484 578.022 47.5874C577.771 47.2835 577.481 46.9674 577.191 46.6729C577.105 46.5855 577.019 46.5 576.934 46.4173C576.906 46.3899 576.878 46.3629 576.85 46.3361C576.911 46.2953 576.972 46.2543 577.032 46.2133C577.208 46.0937 577.38 45.9733 577.548 45.8523C577.969 45.5496 578.368 45.243 578.745 44.9361C578.823 44.8721 578.901 44.808 578.978 44.744C579.075 44.6634 579.17 44.5828 579.264 44.5023C579.753 44.0829 580.203 43.6662 580.619 43.2617C580.629 43.2527 580.638 43.2437 580.647 43.2347C580.756 43.1289 580.862 43.024 580.966 42.9201C581.212 43.1175 581.462 43.3271 581.71 43.5438C581.77 43.5961 581.83 43.6489 581.89 43.702C582.166 43.9473 582.439 44.1999 582.705 44.4528C582.85 44.5912 582.993 44.7298 583.132 44.8672C583.156 44.8902 583.179 44.9132 583.202 44.9361C583.333 45.0662 583.462 45.1951 583.586 45.3219C583.694 45.4323 583.8 45.5412 583.902 45.6477C583.915 45.6618 583.929 45.6759 583.942 45.6899C583.998 45.7481 584.052 45.8056 584.105 45.8622C584.114 45.8708 584.122 45.8795 584.13 45.8881L583.906 45.7481C583.904 45.7504 583.903 45.7528 583.902 45.7551C583.882 45.7902 583.861 45.8261 583.839 45.8626C583.823 45.8895 583.807 45.9168 583.79 45.9444C583.693 46.1056 583.582 46.2778 583.464 46.4552C583.462 46.4584 583.46 46.4615 583.458 46.4646C583.425 46.5138 583.392 46.5634 583.358 46.6133C583.024 47.1041 582.641 47.6213 582.301 48.0479C582.252 48.1089 582.205 48.1681 582.158 48.2251C582.133 48.2561 582.108 48.2866 582.083 48.3163C582.07 48.3323 582.057 48.3481 582.044 48.3636C582.039 48.3692 582.034 48.3747 582.03 48.3801L583.878 49.5561C583.886 49.5478 583.894 49.5394 583.902 49.531C583.921 49.5107 583.941 49.4902 583.96 49.4695C583.991 49.4374 584.021 49.4048 584.052 49.3716C584.312 49.0949 584.595 48.7806 584.89 48.4412C585.112 48.1853 585.341 47.9152 585.571 47.6364C585.684 47.4983 585.799 47.3582 585.912 47.2165C585.953 47.1659 585.993 47.1151 586.034 47.0641L584.97 46.4201L586.65 44.4321C586.558 44.3336 586.461 44.232 586.357 44.1277C586.307 44.0768 586.255 44.0253 586.202 43.9732C586.197 43.9678 586.191 43.9624 586.186 43.957C586.019 43.7937 585.84 43.625 585.652 43.4525C585.587 43.3929 585.521 43.3328 585.453 43.2723C585.334 43.1654 585.212 43.0573 585.087 42.9486C585.022 42.892 584.956 42.8352 584.89 42.7783C584.847 42.7417 584.804 42.7049 584.761 42.6681C584.688 42.6061 584.614 42.544 584.54 42.4818C584.331 42.3072 584.118 42.1323 583.902 41.9587C583.892 41.9511 583.883 41.9436 583.874 41.9361C583.44 41.588 582.998 41.2454 582.564 40.9219C582.347 40.7596 582.132 40.6021 581.922 40.4511C581.911 40.4434 581.9 40.4358 581.89 40.4281V38.4961C581.9 38.5026 581.911 38.5092 581.922 38.5157C582.151 38.6562 582.384 38.8027 582.618 38.9523C582.693 39.0004 582.768 39.0488 582.843 39.0975C582.968 39.1779 583.092 39.2589 583.215 39.3401C583.448 39.494 583.678 39.6484 583.902 39.8003C584.221 40.0176 584.526 40.2298 584.804 40.4281C585.089 40.631 585.346 40.8192 585.562 40.9834C585.589 41.0041 585.616 41.0243 585.642 41.0441L587.35 38.8041C587.267 38.7548 587.163 38.6954 587.042 38.6276C586.494 38.3206 585.594 37.8431 584.672 37.3686C584.289 37.1718 583.903 36.9755 583.536 36.7921C583.378 36.7128 583.223 36.6358 583.074 36.5623C582.915 36.484 582.762 36.4095 582.618 36.3401H587.042V33.7921H581.89V32.3641C581.9 32.363 581.911 32.3619 581.922 32.3609C582.348 32.3173 582.768 32.2701 583.181 32.2196C583.943 32.1264 584.678 32.0222 585.377 31.9101C585.757 31.849 586.126 31.7855 586.482 31.7201L584.858 29.3681C584.01 29.5411 583.01 29.7034 581.922 29.8509C581.828 29.8636 581.733 29.8762 581.638 29.8887C580.764 30.0035 579.837 30.1088 578.89 30.2025C578.854 30.2061 578.818 30.2096 578.782 30.2132C578.236 30.2666 577.683 30.3161 577.131 30.3614C576.297 30.4298 575.462 30.4884 574.646 30.5361C574.427 30.5489 574.21 30.5609 573.994 30.5721C574.024 30.6418 574.055 30.7154 574.086 30.7921C574.344 31.424 574.619 32.2628 574.694 32.8121C575.096 32.8037 575.506 32.7928 575.922 32.7794C576.885 32.7484 577.881 32.7039 578.89 32.646C578.9 32.6453 578.911 32.6447 578.922 32.6441V33.7921H573.63V36.3401H577.186C577.114 36.4232 577.041 36.5062 576.966 36.589C576.905 36.6569 576.842 36.7246 576.779 36.7921C576.358 37.2395 575.893 37.6771 575.408 38.0841C574.848 38.5541 574.262 38.9834 573.686 39.3401C573.561 39.418 573.436 39.4925 573.312 39.5631C573.135 39.6634 572.961 39.7561 572.79 39.8401C573.244 40.1595 573.738 40.5898 574.175 41.0343C574.467 41.3302 574.733 41.6323 574.946 41.9121C575.303 41.6633 575.678 41.3779 576.058 41.0665C576.243 40.9154 576.429 40.7582 576.614 40.5961C576.832 40.4058 577.05 40.2089 577.265 40.0072C577.393 39.8876 577.52 39.7664 577.645 39.644C578.082 39.2174 578.504 38.7758 578.89 38.3366C578.9 38.3244 578.911 38.3123 578.922 38.3001V40.5961C578.911 40.6103 578.901 40.6246 578.89 40.6388ZM586.902 42.6681V55.4361H590.094V54.2881H595.442V55.2961H598.774V42.6681H594.126V37.6841H599.334V34.6321H594.126V29.3121H590.878V42.6681H586.902ZM595.442 51.2081V45.7481H590.094V51.2081H595.442ZM584.942 53.9801L586.538 51.9361C586.406 51.8247 586.255 51.706 586.091 51.5823C586.048 51.5504 586.005 51.5181 585.961 51.4855C585.875 51.4226 585.786 51.3585 585.694 51.2936C585.229 50.965 584.693 50.6159 584.151 50.2841C584.122 50.2663 584.092 50.2484 584.063 50.2307C584.009 50.198 583.956 50.1655 583.902 50.1332C583.807 50.0762 583.712 50.02 583.618 49.9647C583.452 49.8675 583.288 49.7731 583.127 49.6826C582.943 49.5788 582.763 49.4801 582.59 49.3881L581.89 50.2841V44.9361H578.978V52.6921C578.978 52.7227 578.977 52.7506 578.975 52.7761C578.966 52.8775 578.94 52.9407 578.89 52.9817C578.889 52.9825 578.888 52.9833 578.887 52.9841C578.834 53.0254 578.755 53.0436 578.642 53.0561C578.5 53.0561 578.218 53.0561 577.878 53.0512C577.793 53.0499 577.704 53.0484 577.613 53.0464C577.517 53.0444 577.419 53.0419 577.319 53.0389C577.219 53.0359 577.118 53.0323 577.018 53.0281C577.043 53.0836 577.069 53.1409 577.096 53.1999C577.104 53.2199 577.113 53.2402 577.123 53.2606C577.409 53.9079 577.73 54.7326 577.83 55.3801C577.918 55.382 578.005 55.3834 578.09 55.3845C578.282 55.3869 578.466 55.3871 578.642 55.3843C578.726 55.383 578.809 55.3811 578.89 55.3784C578.893 55.3783 578.896 55.3781 578.9 55.378C579.709 55.3502 580.352 55.2472 580.91 54.9881C581.01 54.9378 581.101 54.8842 581.183 54.8265C581.261 54.7723 581.33 54.7144 581.392 54.652C581.611 54.4327 581.741 54.1582 581.813 53.7943C581.848 53.6204 581.869 53.4261 581.88 53.2077C581.887 53.0732 581.89 52.9297 581.89 52.7761V51.7121C581.919 51.73 581.948 51.748 581.978 51.7661C582.095 51.8381 582.212 51.9122 582.33 51.988C582.457 52.0692 582.583 52.1523 582.709 52.2367C582.972 52.413 583.232 52.5948 583.481 52.7761C583.538 52.8181 583.595 52.86 583.652 52.9019C583.737 52.9653 583.82 53.0285 583.902 53.0912C583.986 53.1558 584.067 53.2198 584.146 53.283C584.408 53.4923 584.642 53.6931 584.834 53.8752C584.847 53.8872 584.859 53.8992 584.871 53.911C584.896 53.9344 584.919 53.9574 584.942 53.9801ZM577.186 52.456C577.53 52.2636 577.874 52.0682 578.216 51.8706C578.308 51.8174 578.4 51.7641 578.492 51.7106C578.523 51.6925 578.555 51.6743 578.586 51.6561L578.026 49.5841C577.893 49.6428 577.761 49.7013 577.63 49.7595C577.59 49.7772 577.55 49.7948 577.51 49.8124C577.348 49.8842 577.187 49.9555 577.028 50.0259C576.992 50.0417 576.957 50.0575 576.921 50.0732C576.709 50.1669 576.499 50.2591 576.293 50.3493C576.187 50.3957 576.082 50.4416 575.978 50.4869C575.815 50.5578 575.654 50.6272 575.496 50.6947C575.412 50.7306 575.329 50.766 575.247 50.8009C574.84 50.9735 574.454 51.1321 574.097 51.271C573.974 51.3192 573.853 51.365 573.737 51.4083C573.662 51.436 573.589 51.4626 573.518 51.4881L574.526 53.8681C574.743 53.7594 574.962 53.6484 575.18 53.5354C575.705 53.2645 576.233 52.9823 576.76 52.6921C576.853 52.6411 576.945 52.5898 577.038 52.5382C577.087 52.5109 577.137 52.4835 577.186 52.456ZM551.342 53.9801L552.938 51.9361C552.806 51.8247 552.655 51.706 552.491 51.5823C552.448 51.5504 552.405 51.5181 552.361 51.4855C552.275 51.4226 552.186 51.3585 552.094 51.2936C551.629 50.965 551.093 50.6159 550.551 50.2841C550.522 50.2663 550.492 50.2484 550.463 50.2307C550.409 50.198 550.356 50.1655 550.302 50.1332C550.207 50.0762 550.112 50.02 550.018 49.9647C549.852 49.8675 549.688 49.7731 549.527 49.6826C549.343 49.5788 549.163 49.4801 548.99 49.3881L548.29 50.2841V44.9361H545.378V52.6921C545.378 52.7227 545.377 52.7506 545.375 52.7761C545.366 52.8775 545.34 52.9407 545.29 52.9817C545.289 52.9825 545.288 52.9833 545.287 52.9841C545.234 53.0254 545.155 53.0436 545.042 53.0561C544.9 53.0561 544.618 53.0561 544.278 53.0512C544.193 53.0499 544.104 53.0484 544.013 53.0464C543.917 53.0444 543.819 53.0419 543.719 53.0389C543.619 53.0359 543.518 53.0323 543.418 53.0281C543.443 53.0836 543.469 53.1409 543.496 53.1999C543.504 53.2199 543.513 53.2402 543.523 53.2606C543.809 53.9079 544.13 54.7326 544.23 55.3801C544.318 55.382 544.405 55.3834 544.49 55.3845C544.682 55.3869 544.866 55.3871 545.042 55.3843C545.126 55.383 545.209 55.3811 545.29 55.3784C545.293 55.3783 545.296 55.3781 545.3 55.378C546.109 55.3502 546.752 55.2472 547.31 54.9881C547.41 54.9378 547.501 54.8842 547.583 54.8265C547.661 54.7723 547.73 54.7144 547.792 54.652C548.011 54.4327 548.141 54.1582 548.213 53.7943C548.248 53.6204 548.269 53.4261 548.28 53.2077C548.287 53.0732 548.29 52.9297 548.29 52.7761V51.7121C548.319 51.73 548.348 51.748 548.378 51.7661C548.495 51.8381 548.612 51.9122 548.73 51.988C548.857 52.0692 548.983 52.1523 549.109 52.2367C549.372 52.413 549.632 52.5948 549.881 52.7761C549.938 52.8181 549.995 52.86 550.052 52.9019C550.137 52.9653 550.22 53.0285 550.302 53.0912C550.386 53.1558 550.467 53.2198 550.546 53.2831C550.808 53.4923 551.042 53.6931 551.234 53.8752C551.247 53.8872 551.259 53.8992 551.271 53.911C551.296 53.9344 551.319 53.9574 551.342 53.9801ZM543.586 52.456C543.93 52.2636 544.274 52.0682 544.616 51.8706C544.708 51.8174 544.8 51.7641 544.892 51.7106C544.923 51.6924 544.955 51.6743 544.986 51.6561L544.426 49.5841C544.293 49.6428 544.161 49.7013 544.03 49.7595C543.99 49.7772 543.95 49.7948 543.91 49.8124C543.748 49.8842 543.587 49.9555 543.428 50.0259C543.392 50.0417 543.357 50.0575 543.321 50.0732C543.109 50.1669 542.899 50.2591 542.693 50.3493C542.587 50.3957 542.482 50.4416 542.378 50.4869C542.215 50.5578 542.054 50.6272 541.896 50.6947C541.812 50.7307 541.729 50.766 541.647 50.8009C541.24 50.9735 540.854 51.1321 540.497 51.271C540.374 51.3192 540.253 51.365 540.137 51.4083C540.062 51.436 539.989 51.4626 539.918 51.4881L540.926 53.8681C541.143 53.7593 541.362 53.6484 541.58 53.5354C542.105 53.2645 542.633 52.9823 543.16 52.6921C543.253 52.6411 543.345 52.5898 543.438 52.5382C543.487 52.5109 543.537 52.4835 543.586 52.456ZM609.078 43.0881C609.375 42.2528 609.62 41.2362 609.809 40.1553C609.832 40.0255 609.854 39.8948 609.875 39.7634C609.924 39.4616 609.968 39.1559 610.009 38.8489C610.176 37.5665 610.269 36.26 610.282 35.1081L607.762 34.8001C607.757 34.8924 607.753 34.9859 607.747 35.0803C607.7 35.9325 607.615 36.8645 607.493 37.7896C607.479 37.8952 607.465 38.0007 607.45 38.106C607.238 39.6098 606.929 41.0689 606.53 42.1081L609.078 43.0881ZM607.45 31.7397L604.917 31.4301L604.765 34.6591C604.657 36.9512 604.253 39.6699 603.73 41.0312L602.653 43.8312L607.45 45.6762V58.4361H616.67V57.7921H635.906V48.7961H634.674V43.7689C634.922 43.4292 635.158 43.1392 635.317 42.9861L636.845 41.5224L637.636 41.9897L636.564 42.2255L638.897 51.3152L641.811 50.555C641.957 50.517 642.104 50.4774 642.254 50.4366V58.4641H651.306V56.2197C651.64 56.4601 651.936 56.7009 652.12 56.8854L654.049 58.8143L656.057 57.1558L656.132 58.0031L658.75 58.1249C659.956 58.181 661.433 58.2024 662.581 57.9974L662.629 57.9889L662.676 57.9788C663.31 57.8443 664.08 57.6232 664.85 57.1379C665.612 56.6579 666.196 56.0342 666.68 55.3317C667.279 54.5133 667.617 53.5292 667.85 52.5988C668.102 51.5932 668.299 50.3523 668.468 48.8574C668.806 45.8702 669.068 41.5233 669.333 35.301C669.351 35.032 669.365 34.6246 669.375 34.3288C669.38 34.1588 669.385 34.002 669.388 33.8879L669.393 33.7031L669.393 33.7003L669.393 33.6991L669.47 30.6241H659.802C659.812 30.5766 659.823 30.529 659.833 30.4814L660.491 27.4577L651.527 25.7979L651.306 26.8839V26.3121H642.254V27.9509L638.845 27.3656L638.594 30.652C638.353 33.8226 637.921 36.8019 637.278 38.5846L633.844 37.8811C633.172 37.7436 632.531 37.5846 631.923 37.4049C632.941 35.8548 633.771 34.1086 634.393 32.1537L635.223 29.5426L629.735 27.2315L628.535 27.4601H616.67V26.2561H607.45V31.7397ZM613.67 29.2561H610.45V55.4361H613.67V36.5921C613.754 36.807 613.836 37.0218 613.917 37.2351C613.967 37.3687 614.016 37.5017 614.064 37.6337C614.121 37.7902 614.177 37.9453 614.231 38.0983C614.412 38.6144 614.571 39.1073 614.698 39.5525C614.707 39.5856 614.716 39.6184 614.725 39.651C614.77 39.8147 614.811 39.9715 614.846 40.1201L617.366 38.8881C617.251 38.4906 617.08 38.0039 616.878 37.4728C616.838 37.368 616.797 37.2614 616.754 37.1535C616.727 37.0828 616.698 37.0115 616.67 36.9396C616.624 36.8249 616.577 36.709 616.53 36.5921C616.5 36.5191 616.47 36.4457 616.44 36.3721C616.339 36.1262 616.235 35.8775 616.129 35.6297C616.12 35.6088 616.111 35.5879 616.103 35.567C616.017 35.3656 615.93 35.165 615.844 34.9671C615.783 34.8258 615.722 34.6859 615.661 34.5481C615.555 34.3071 615.45 34.0725 615.35 33.8481L613.67 34.5481V29.2561ZM616.862 33.3721H619.354L618.234 33.7361C618.429 34.1159 618.636 34.4874 618.852 34.8499C619.014 35.1205 619.181 35.3862 619.354 35.6465C619.378 35.6836 619.403 35.7205 619.428 35.7574C619.547 35.9343 619.669 36.1088 619.793 36.2806C619.813 36.3085 619.833 36.3363 619.854 36.3641C620.292 36.9634 620.76 37.5306 621.256 38.0613C621.431 38.2481 621.608 38.4305 621.79 38.6081C621.4 38.8301 620.999 39.0396 620.589 39.2363C620.048 39.4956 619.489 39.7328 618.914 39.9472C618.645 40.0474 618.373 40.1427 618.097 40.233C618.076 40.2399 618.055 40.2468 618.033 40.2536C617.588 40.3979 617.133 40.5291 616.67 40.6472C616.207 40.765 615.736 40.8697 615.257 40.961C615.158 40.98 615.058 40.9983 614.958 41.0161C615.284 41.3895 615.654 41.953 615.976 42.5241C616.033 42.6248 616.088 42.7258 616.142 42.826C616.316 43.1541 616.469 43.4742 616.583 43.7508C616.592 43.7729 616.601 43.7946 616.61 43.8161C616.63 43.8112 616.65 43.8063 616.67 43.8014C616.734 43.7855 616.798 43.7695 616.862 43.7534C617.824 43.5101 618.757 43.2312 619.658 42.9135C620.009 42.7896 620.355 42.6599 620.696 42.5241C621.37 42.2553 622.025 41.9626 622.658 41.6446C623.231 41.3565 623.787 41.0477 624.324 40.7169C624.328 40.7139 624.333 40.711 624.338 40.7081C624.369 40.7284 624.4 40.7486 624.431 40.7687C624.93 41.0933 625.45 41.3997 625.99 41.6872C626.553 41.9872 627.139 42.2665 627.747 42.5241C628.098 42.6728 628.457 42.8142 628.823 42.9481C628.878 42.9684 628.934 42.9886 628.99 43.0086C629.689 43.2584 630.415 43.4814 631.17 43.6761C631.209 43.6046 631.251 43.5299 631.296 43.4526C631.408 43.2605 631.536 43.0526 631.674 42.8389C631.741 42.735 631.811 42.6297 631.882 42.5241C632.322 41.8737 632.83 41.2152 633.242 40.8201C632.118 40.59 631.047 40.301 630.038 39.9499C630.008 39.9397 629.979 39.9295 629.95 39.9192C628.905 39.5505 627.926 39.1147 627.026 38.6081C627.765 37.9108 628.442 37.14 629.051 36.2885C629.811 35.227 630.465 34.0402 631.004 32.714C631.195 32.2419 631.372 31.7522 631.534 31.2441L629.406 30.3481L628.818 30.4601H616.862V33.3721ZM621.422 33.4601C621.404 33.4309 621.387 33.4015 621.37 33.3721H627.166C627.149 33.4015 627.132 33.4309 627.115 33.4601C626.478 34.5494 625.705 35.5038 624.812 36.3721C624.658 36.5226 624.5 36.6705 624.338 36.8161C624.164 36.671 623.995 36.523 623.83 36.3721C623.688 36.2417 623.548 36.1091 623.412 35.9744C622.636 35.2067 621.966 34.3686 621.422 33.4601ZM625.99 42.9481H622.658V45.5241H616.862V48.4921H622.658V51.7961H615.602V54.7921H632.906V51.7961H625.99V48.4921H631.674V45.5241H625.99V42.9481ZM645.254 29.3121V34.6881H643.938C644.089 33.679 644.218 32.6927 644.324 31.6881C644.335 31.5777 644.347 31.467 644.358 31.3561L641.586 30.8801C641.581 30.9458 641.576 31.0116 641.57 31.0774C641.497 32.0073 641.406 32.9504 641.293 33.8738C641.276 34.0109 641.259 34.1475 641.241 34.2837C641.217 34.4743 641.191 34.6639 641.164 34.8521C641.045 35.6907 640.906 36.5024 640.744 37.2608C640.713 37.4052 640.681 37.5477 640.649 37.6881C640.459 38.508 640.241 39.256 639.99 39.8961C640.436 40.16 641.207 40.63 641.789 41.0285C641.966 41.15 642.126 41.2648 642.254 41.3651C642.285 41.3897 642.314 41.4134 642.342 41.4361C642.409 41.2621 642.475 41.0823 642.54 40.8968C642.548 40.873 642.556 40.8491 642.565 40.8251C642.814 40.0987 643.04 39.2866 643.252 38.3973C643.294 38.2187 643.336 38.0369 643.378 37.8521H645.254V43.2001C645.111 43.24 644.969 43.2795 644.829 43.3184C644.25 43.4786 643.691 43.6304 643.155 43.7722C642.42 43.9666 641.727 44.1422 641.086 44.2946C640.794 44.364 640.512 44.4287 640.242 44.4881L641.053 47.6503L641.054 47.6521C641.444 47.5504 641.844 47.4385 642.254 47.3194C642.788 47.1643 643.34 46.997 643.91 46.8244C643.919 46.8217 643.928 46.819 643.936 46.8163C644.366 46.6862 644.805 46.5531 645.254 46.4201V55.4641H648.306V45.4961C648.405 45.4666 648.504 45.4369 648.602 45.4069C648.766 45.3568 648.93 45.3062 649.092 45.2554C649.102 45.2523 649.112 45.2493 649.121 45.2462C649.271 45.1995 649.419 45.1526 649.567 45.1058C649.921 44.9942 650.272 44.8835 650.624 44.7772C650.852 44.7086 651.079 44.6419 651.308 44.578C651.316 44.5761 651.323 44.5741 651.33 44.5721L650.882 41.6321L648.306 42.3601V37.8521H650.63V34.6881H648.306V29.3121H645.254ZM653.301 31.6881C653.066 32.5358 652.8 33.3657 652.503 34.1641C652.438 34.3404 652.371 34.5151 652.302 34.6881C652.186 34.9802 652.067 35.2676 651.942 35.5494C651.802 35.8678 651.657 36.1791 651.506 36.4824C651.351 36.7937 651.19 37.0965 651.024 37.3897C650.935 37.5467 650.844 37.7008 650.752 37.8521C650.711 37.9183 650.671 37.9839 650.63 38.0489C650.486 38.2767 650.339 38.4975 650.188 38.7107C650.157 38.755 650.125 38.799 650.093 38.8426C649.835 39.1983 649.566 39.5318 649.286 39.8401C649.625 40.0521 650.128 40.3924 650.612 40.7458C650.618 40.7503 650.624 40.7547 650.63 40.7591C650.632 40.7608 650.634 40.7624 650.636 40.764C650.676 40.7933 650.716 40.8227 650.756 40.8521C650.848 40.921 650.94 40.9899 651.028 41.058C651.125 41.1322 651.218 41.2055 651.306 41.2767C651.412 41.3623 651.51 41.445 651.598 41.5229C651.638 41.5582 651.676 41.5925 651.712 41.6257C651.745 41.6569 651.777 41.6871 651.806 41.7161C651.874 41.6324 651.941 41.5471 652.009 41.4604C652.16 41.265 652.309 41.062 652.456 40.8521C652.815 40.3376 653.16 39.7813 653.488 39.1913C653.503 39.1646 653.517 39.1378 653.532 39.1109C653.565 39.0515 653.597 38.9918 653.63 38.9318C653.829 38.5609 654.023 38.1776 654.209 37.7837C654.375 37.4318 654.535 37.0715 654.69 36.7041H656.118C656.064 36.8808 656.009 37.0576 655.952 37.2344C655.683 38.0637 655.376 38.8927 655.033 39.7041C654.708 40.4726 654.351 41.2254 653.964 41.9476C653.774 42.3028 653.577 42.6506 653.373 42.9893C653.076 43.4816 652.765 43.9546 652.44 44.4029C652.323 44.565 652.204 44.7238 652.083 44.8791C651.92 45.0887 651.753 45.292 651.584 45.4883C651.546 45.5329 651.507 45.5773 651.468 45.6212C651.462 45.6278 651.457 45.6343 651.451 45.6409C651.403 45.6952 651.354 45.7489 651.306 45.802C650.866 46.283 650.406 46.7166 649.93 47.0921C650.283 47.2859 650.669 47.526 651.044 47.7861C651.132 47.8473 651.219 47.9095 651.306 47.9726C651.508 48.12 651.703 48.2715 651.885 48.4228C652.084 48.5883 652.267 48.7536 652.424 48.9128C652.442 48.9309 652.46 48.949 652.477 48.9671C652.477 48.9674 652.477 48.9678 652.478 48.9681C652.495 48.9516 652.513 48.9349 652.53 48.9182C652.618 48.8339 652.705 48.7473 652.791 48.6586C652.894 48.5541 652.995 48.4465 653.096 48.3362C653.316 48.0954 653.532 47.8412 653.745 47.5749C653.927 47.3469 654.107 47.1101 654.283 46.8653C654.33 46.8007 654.376 46.7356 654.422 46.67C654.494 46.5677 654.566 46.4641 654.637 46.3593C656.344 43.8359 657.755 40.5908 658.671 37.4789C658.747 37.2196 658.82 36.9611 658.89 36.7041H660.206C660.182 36.816 660.158 36.9279 660.133 37.0397C660.131 37.0495 660.128 37.0594 660.126 37.0693C659.93 37.9546 659.708 38.8353 659.459 39.7041C658.619 42.639 657.478 45.4385 656.009 47.8219C655.846 48.0855 655.68 48.3441 655.509 48.5971C655.037 49.2983 654.533 49.9576 653.997 50.5668C653.963 50.6054 653.929 50.6439 653.895 50.6821C653.885 50.6934 653.875 50.7047 653.865 50.716C653.227 51.4246 652.544 52.0627 651.817 52.617C651.72 52.6902 651.623 52.7619 651.526 52.8321C652.387 53.276 653.444 54.0121 654.105 54.6317C654.153 54.6765 654.198 54.7207 654.242 54.7641C654.666 54.4134 655.077 54.031 655.472 53.6203C655.705 53.379 655.933 53.1278 656.156 52.8675C656.188 52.8297 656.22 52.7918 656.252 52.7537C656.286 52.7136 656.32 52.6733 656.353 52.6328C656.998 51.8538 657.6 50.9978 658.16 50.0807C658.305 49.8442 658.447 49.6036 658.586 49.3592C658.664 49.2222 658.741 49.0841 658.817 48.9447C658.995 48.6196 659.168 48.2884 659.336 47.9515C660.949 44.7239 662.128 40.9842 662.891 37.2779C662.93 37.0865 662.969 36.8952 663.006 36.7041H663.146C663.145 36.7131 663.145 36.7221 663.145 36.7311C663.136 36.932 663.127 37.1304 663.118 37.3263C663.116 37.3717 663.113 37.417 663.111 37.4622C663.077 38.2137 663.041 38.9285 663.006 39.6081C662.773 44.0451 662.523 46.9832 662.237 48.8489C662.014 50.3049 661.769 51.1077 661.494 51.4601C661.388 51.5925 661.288 51.6943 661.187 51.7716C660.979 51.9304 660.77 51.986 660.505 51.9916C660.489 51.992 660.474 51.9921 660.458 51.9921C659.926 51.9921 659.002 51.9921 657.966 51.8801C658.35 52.5854 658.637 53.5517 658.789 54.3931C658.824 54.5901 658.852 54.7803 658.873 54.9587C658.879 55.0165 658.885 55.073 658.89 55.1281C660.094 55.1841 661.27 55.1841 662.054 55.0441C662.978 54.8481 663.594 54.5401 664.238 53.5881C665.258 52.2452 665.764 47.991 666.273 36.6241C666.294 36.1411 666.316 35.6452 666.338 35.1361C666.366 34.7441 666.394 33.6241 666.394 33.6241H655.866C655.958 33.3354 656.048 33.0451 656.136 32.7533C656.348 32.0525 656.546 31.3427 656.722 30.6241C656.785 30.3653 656.845 30.1053 656.902 29.8441L653.878 29.2841C653.713 30.0935 653.52 30.8985 653.301 31.6881ZM671.178 37.2881H702.938V46.9001H671.178V37.2881ZM674.178 43.9001V40.2881H699.938V43.9001H674.178ZM724.998 40.4281V46.1681C724.998 46.9367 725.112 47.2006 725.65 47.2827C725.708 47.2915 725.77 47.2982 725.838 47.3032C725.967 47.3127 726.116 47.3161 726.286 47.3161H729.534C729.636 47.3161 729.729 47.3107 729.814 47.2974C729.839 47.2935 729.863 47.289 729.887 47.2837C730.103 47.2351 730.265 47.1248 730.387 46.9062C730.389 46.9027 730.391 46.8992 730.393 46.8957C730.594 46.5274 730.688 45.859 730.751 44.6783C730.759 44.5143 730.768 44.3404 730.775 44.1561C730.782 44.0034 730.788 43.8435 730.794 43.6761C731.009 43.8394 731.287 44.0026 731.593 44.1561C732.286 44.503 733.124 44.8003 733.706 44.9361C733.596 46.1896 733.447 47.1727 733.217 47.9346C733.16 48.1245 733.097 48.3007 733.03 48.4639C732.731 49.1815 732.325 49.6484 731.76 49.9294C731.619 49.9993 731.469 50.0576 731.307 50.1055C730.976 50.2039 730.601 50.258 730.173 50.2766C730.057 50.2817 729.937 50.2841 729.814 50.2841H725.838C725.699 50.2841 725.565 50.2823 725.435 50.2786C724.056 50.2394 723.159 49.9851 722.605 49.3641C722.401 49.1347 722.243 48.8552 722.125 48.5181C721.932 47.966 721.846 47.2592 721.835 46.3641C721.834 46.2998 721.834 46.2344 721.834 46.1681V37.5721H728.918V33.2601H721.582V30.3481H732.138V41.1561H728.918V40.4281H724.998ZM735.138 42.1897V27.3481H718.926V26.3401H709.818V29.0841H705.646V34.5721H704.89V43.4561H705.818C705.776 45.3074 705.686 47.0559 705.502 48.6249C705.267 50.6195 704.903 52.0971 704.435 53.0626L703.056 55.9044L705.965 57.135C706.613 57.4093 707.876 58.0527 708.242 58.2963L711.191 60.2624L712.643 57.0289C712.761 56.7662 712.872 56.498 712.976 56.2248C715.588 57.4697 718.671 57.7081 721.946 57.7081H735.213L735.696 55.2965C735.842 54.5653 736.289 53.4282 736.51 53.0962L738.714 49.7905V57.6521H769.886V48.3761H767.394V40.6001H768.458V31.3521H759.022V26.3121H749.522V27.3318L743.878 26.093L743.171 28.9205C742.296 32.423 740.657 35.7682 738.927 37.6308L736.276 40.4858L739.714 42.3192C740.258 42.6096 741.285 43.2907 741.934 43.7657V48.3761H739.657L739.793 48.1723L736.218 48.3312C736.475 47.3225 736.603 46.2479 736.694 45.1969L736.921 42.6056L735.138 42.1897ZM734.014 51.4321C733.245 51.4663 732.019 51.49 730.628 51.5058C730.362 51.5088 730.09 51.5115 729.814 51.5139C728.508 51.5254 727.112 51.5307 725.838 51.5315C724.171 51.5327 722.714 51.5262 721.946 51.5161C721.44 51.5161 720.955 51.5099 720.49 51.4951C718.977 51.4465 717.677 51.3055 716.542 50.9841V46.3641H720.518V43.4801H716.542V40.4561H720.77V37.5721H715.926V34.9401H720.07V32.0841H715.926V29.3401H712.818V32.0841H708.646V34.9401H712.818V37.5721H707.89V40.4561H713.49V49.1641C712.952 48.5646 712.506 47.8429 712.129 46.954C711.996 46.639 711.871 46.3031 711.754 45.9441C711.793 45.1283 711.831 44.2989 711.861 43.4561C711.874 43.0841 711.885 42.7094 711.894 42.3321L708.842 42.1081C708.837 42.5592 708.829 43.009 708.819 43.4561C708.807 44.0127 708.79 44.5651 708.768 45.1108C708.716 46.3952 708.632 47.6418 708.5 48.8154C708.436 49.3819 708.36 49.9313 708.271 50.4597C708.225 50.7319 708.176 50.9985 708.122 51.259C707.956 52.0707 707.753 52.8233 707.503 53.4999C707.39 53.8067 707.267 54.098 707.134 54.3721C707.167 54.386 707.201 54.4008 707.237 54.4164C707.706 54.6209 708.407 54.9615 709.005 55.2799C709.368 55.4734 709.694 55.6586 709.906 55.8001C710.089 55.392 710.255 54.9591 710.405 54.5029C710.574 53.9883 710.723 53.444 710.854 52.8722C710.931 52.5354 711.002 52.1889 711.067 51.8334C711.112 51.5913 711.153 51.345 711.192 51.0947C711.202 51.0301 711.212 50.9652 711.222 50.9001C711.226 50.9069 711.231 50.9136 711.236 50.9204C711.274 50.9748 711.312 51.0285 711.351 51.0814C711.983 51.9425 712.707 52.6088 713.542 53.1209C713.638 53.1799 713.735 53.2368 713.834 53.2918C713.891 53.3233 713.949 53.3542 714.006 53.3844C714.749 53.7731 715.574 54.0559 716.49 54.2577C718.033 54.5977 719.835 54.7081 721.946 54.7081H732.754C732.769 54.6322 732.786 54.5529 732.806 54.4709C732.954 53.8439 733.218 53.0568 733.511 52.3892C733.675 52.0169 733.847 51.6818 734.014 51.4321ZM743.675 41.3226C743.845 41.447 743.997 41.5617 744.122 41.6601C744.299 41.451 744.474 41.2295 744.646 40.9973C744.743 40.8678 744.839 40.735 744.934 40.5991C745.171 40.2598 745.405 39.9014 745.634 39.5281C745.702 39.4178 745.769 39.3061 745.837 39.1933C746.14 38.6832 746.436 38.1488 746.726 37.6001H752.522V42.5281H744.934V45.7481H752.522V51.3761H741.714V54.6521H766.886V51.3761H756.022V45.7481H764.394V42.5281H756.022V37.6001H765.458V34.3521H756.022V29.3121H752.522V34.3521H748.21C748.342 33.9943 748.472 33.6343 748.599 33.2722C748.822 32.6388 749.036 31.9988 749.239 31.3521C749.336 31.0422 749.43 30.7308 749.522 30.4178C749.523 30.4133 749.524 30.4087 749.526 30.4041L746.082 29.6481C746.082 29.648 746.082 29.6482 746.082 29.6481C745.409 32.3387 744.303 35.0575 742.941 37.2509C742.376 38.1618 741.767 38.982 741.126 39.6721C741.357 39.7952 741.636 39.9606 741.934 40.1467C742.519 40.5128 743.176 40.9592 743.675 41.3226ZM784.83 31.8436C785.633 31.7569 786.446 31.6578 787.256 31.5471C787.298 31.5414 787.34 31.5357 787.382 31.5299C787.515 31.5115 787.648 31.4928 787.781 31.4738C791.405 30.9555 794.933 30.2061 797.238 29.2841L799.786 31.9161C798.799 32.2862 797.718 32.6224 796.582 32.9199C795.655 33.1625 794.691 33.3794 793.71 33.5681V37.4041H800.822V40.5961H793.71V44.1241H799.422V55.2961H796.258V54.2881H787.858V55.4361H784.834V44.1241H790.546V40.5961H783.098V37.4041H790.546V34.1281C789.881 34.2304 789.208 34.3215 788.538 34.4041C788.417 34.419 788.296 34.4336 788.176 34.448C787.965 34.473 787.755 34.4973 787.546 34.5208C786.791 34.6057 786.045 34.6814 785.321 34.752C785.252 34.7587 785.183 34.7654 785.114 34.7721C785.094 34.6579 785.068 34.5343 785.037 34.4041C784.975 34.142 784.893 33.8532 784.798 33.5604C784.604 32.9642 784.36 32.3518 784.134 31.9161C784.365 31.893 784.597 31.8688 784.83 31.8436ZM783.317 28.9828C782 28.2555 780.455 27.4786 779.427 26.9648L777.229 25.8659L771.712 32.9484L774.726 34.6636C774.764 34.6852 774.802 34.7069 774.841 34.7287L770.454 40.7608L773.463 42.3932C774.603 43.0112 775.955 43.7513 777.02 44.3796C775.589 46.9614 773.985 49.5023 772.836 51.1288L771.214 53.4231L778.825 59.5877L780.625 56.7252C781.027 56.0859 781.431 55.4227 781.834 54.7441V58.4361H790.858V57.2881H793.258V58.2961H802.422V43.5961H803.822V34.4041H801.695L805.125 33.118L797.993 25.751L796.124 26.4987C793.456 27.5656 788.546 28.46 783.835 28.931L783.317 28.9828ZM780.111 30.6747C779.387 30.301 778.675 29.9429 778.086 29.6481L776.21 32.0561C776.412 32.1713 776.626 32.2925 776.848 32.4181C777.48 32.7758 778.175 33.1693 778.841 33.5596C779.334 33.848 779.811 34.1347 780.236 34.4041C780.541 34.5977 780.82 34.7824 781.057 34.9524C781.146 35.0158 781.229 35.0771 781.306 35.1361L783.294 32.4481C783.267 32.4305 783.239 32.4127 783.211 32.3947C782.574 31.9879 781.634 31.4715 780.662 30.9616C780.479 30.8655 780.294 30.7696 780.111 30.6747ZM779.296 38.5808C778.559 38.2095 777.807 37.8413 777.161 37.5249C776.995 37.4436 776.836 37.3657 776.686 37.2921L774.894 39.7561C775.678 40.1813 776.632 40.7011 777.541 41.2167C777.843 41.3882 778.141 41.5593 778.425 41.7262C778.821 41.9585 779.191 42.1828 779.516 42.3894C779.733 42.5276 779.929 42.658 780.098 42.7775M780.102 42.7801L780.284 42.5066L780.102 42.7801ZM780.284 42.5066L781.95 40.0081C781.477 39.7177 780.817 39.3613 780.098 38.9895C779.836 38.8544 779.567 38.7174 779.296 38.5808M779.126 46.7547C777.784 49.105 776.359 51.3414 775.286 52.8601L778.086 55.1281C778.606 54.3013 779.131 53.4304 779.652 52.5359C780.397 51.2558 781.134 49.9274 781.834 48.6109C782.251 47.8255 782.656 47.0443 783.042 46.2801L780.606 44.0401C780.262 44.7043 779.899 45.3778 779.525 46.047C779.393 46.2836 779.26 46.5197 779.126 46.7547ZM522.754 48.6881H527.234V35.1081H522.754V48.6881ZM796.258 51.2641V47.1481H787.858V51.2641H796.258Z" fill="#284273"/>
<path d="M417.03 233C417.03 221.954 425.984 213 437.03 213H869.03C880.075 213 889.03 221.954 889.03 233V285C889.03 296.046 880.075 305 869.03 305H437.03C425.984 305 417.03 296.046 417.03 285V233Z" fill="#4BC2CB"/>
<path d="M465.217 229.237C465.821 227.186 468.789 227.386 469.113 229.499L470.615 239.291C470.723 239.995 471.197 240.589 471.861 240.849L478.755 243.556C480.611 244.284 480.374 246.983 478.42 247.378L471.214 248.833C470.486 248.98 469.9 249.517 469.691 250.229L466.96 259.506C466.356 261.556 463.388 261.357 463.064 259.244L461.563 249.452C461.454 248.748 460.98 248.154 460.317 247.894L453.422 245.187C451.566 244.458 451.803 241.76 453.757 241.365L460.963 239.91C461.691 239.763 462.277 239.226 462.486 238.514L465.217 229.237Z" fill="#FFFCEB"/>
<path d="M495.084 265.726C495.849 263.936 498.461 264.183 498.877 266.085L499.754 270.09C499.896 270.743 500.355 271.28 500.977 271.524L505.148 273.162C507.004 273.891 506.767 276.59 504.813 276.984L500.48 277.859C499.793 277.998 499.229 278.486 498.993 279.146L497.366 283.688C496.677 285.611 493.888 285.386 493.517 283.378L492.626 278.566C492.501 277.887 492.034 277.32 491.391 277.068L487.259 275.446C485.402 274.717 485.639 272.018 487.593 271.624L492.003 270.733C492.648 270.603 493.188 270.164 493.446 269.559L495.084 265.726Z" fill="#E9F2FF"/>
<path d="M842.049 237.197C842.079 235.25 844.589 234.49 845.695 236.092L848.023 239.467C848.402 240.017 849.03 240.341 849.698 240.332L854.179 240.268C856.173 240.239 856.976 242.826 855.316 243.932L851.637 246.383C851.054 246.771 850.717 247.436 850.748 248.136L850.963 252.956C851.054 254.997 848.387 255.845 847.282 254.127L844.636 250.011C844.263 249.43 843.616 249.083 842.925 249.092L838.487 249.156C836.493 249.184 835.69 246.597 837.349 245.492L841.093 242.997C841.641 242.633 841.974 242.022 841.984 241.364L842.049 237.197Z" fill="#F2F8FF"/>
<path d="M811.78 264.599C812.47 262.779 815.089 262.917 815.584 264.799L816.83 269.536C816.999 270.181 817.48 270.7 818.111 270.918L823.161 272.661C825.045 273.312 824.921 276.018 822.985 276.494L817.856 277.754C817.176 277.921 816.632 278.432 816.424 279.101L814.71 284.598C814.102 286.548 811.306 286.44 810.851 284.448L809.553 278.764C809.399 278.091 808.909 277.545 808.256 277.319L803.246 275.59C801.361 274.939 801.485 272.233 803.422 271.757L808.626 270.478C809.265 270.321 809.786 269.86 810.019 269.245L811.78 264.599Z" fill="#FFFCEB"/>
<mask id="path-47-outside-1" maskUnits="userSpaceOnUse" x="506.59" y="239.06" width="308" height="40" fill="black">
<rect fill="white" x="506.59" y="239.06" width="308" height="40"/>
<path d="M533.842 265.884V260.144H529.446V258.828H526.926V260.144H523.37C523.902 259.64 524.434 259.052 524.938 258.408H535.522C535.354 265.856 535.13 268.516 534.71 269.132C534.57 269.328 534.458 269.44 534.29 269.524C534.01 268.432 533.45 267.032 532.862 265.884H533.842ZM529.446 267.48V265.884H532.246L530.594 266.388C530.734 266.696 530.902 267.004 531.042 267.34L529.446 267.48ZM529.446 262.216H531.266V263.868H529.446V262.216ZM525.106 263.868V262.216H526.926V263.868H525.106ZM525.022 249.756H526.786V251.884H525.022V249.756ZM529.11 249.756H530.902V251.884H529.11V249.756ZM533.198 249.756H535.046V251.884H533.198V249.756ZM526.674 255.776C526.926 255.328 527.178 254.852 527.374 254.376H538.014V247.32H522.222V254.376H524.07C523.258 255.86 522.138 257.26 520.878 258.352C520.71 256.168 520.318 254.068 519.45 252.052C520.458 250.764 521.354 249.392 522.11 247.992L519.198 246.536C518.778 247.376 518.302 248.216 517.742 249.056C517.07 248.16 516.258 247.264 515.306 246.396L513.01 248.16C514.214 249.28 515.11 250.428 515.81 251.604C514.802 252.752 513.738 253.788 512.646 254.6C513.346 255.104 514.382 256.084 514.886 256.756C515.642 256.14 516.398 255.468 517.126 254.712C517.378 255.608 517.546 256.532 517.658 257.484C516.426 259.64 514.41 261.908 512.59 263.112C513.346 263.728 514.242 264.82 514.746 265.632C515.754 264.736 516.846 263.532 517.854 262.216C517.826 265.352 517.602 268.096 517.07 268.768C516.846 269.048 516.594 269.188 516.23 269.244C515.726 269.3 514.858 269.3 513.682 269.216C514.242 270.168 514.494 271.344 514.494 272.408C515.67 272.464 516.762 272.436 517.77 272.184C518.47 272.044 519.058 271.652 519.45 271.092C520.71 269.356 520.962 265.436 520.962 261.488C520.962 260.76 520.962 260.032 520.906 259.304C521.55 259.752 522.25 260.34 522.642 260.732V265.884H526.926V267.676C524.91 267.844 523.034 268.012 521.578 268.096L521.886 270.812C524.602 270.504 528.27 270.084 531.854 269.692C531.966 270.056 532.05 270.42 532.106 270.728L532.526 270.588C532.694 271.204 532.834 271.848 532.862 272.38C533.954 272.408 534.934 272.408 535.606 272.268C536.362 272.128 536.894 271.848 537.454 271.064C538.182 270.028 538.406 266.584 538.602 257.12C538.602 256.728 538.63 255.776 538.63 255.776H526.674Z"/>
<path d="M551.09 251.52H568.142V254.74H571.558V248.496H561.31V246.312H557.894V248.496H547.814V254.74H551.09V251.52ZM568.954 256.308C567.946 257.26 566.462 258.408 565.062 259.36C564.614 258.324 564.222 257.232 563.914 256.112H567.106V253.312H552.07V256.112H556.158C553.694 257.372 550.586 258.352 547.59 258.94C548.122 259.584 548.962 260.9 549.298 261.544C551.51 260.956 553.806 260.144 555.934 259.164C556.186 259.388 556.41 259.612 556.634 259.836C554.534 261.264 550.81 262.804 547.982 263.476C548.598 264.12 549.298 265.268 549.662 265.996C552.322 265.072 555.766 263.392 558.146 261.796C558.342 262.104 558.51 262.44 558.678 262.776C555.906 265.128 551.034 267.424 547.002 268.432C547.618 269.16 548.346 270.364 548.738 271.204C552.238 270 556.382 267.9 559.434 265.66C559.546 267.144 559.154 268.292 558.51 268.796C558.062 269.3 557.53 269.384 556.83 269.384C556.102 269.384 555.206 269.328 554.142 269.244C554.758 270.168 555.038 271.512 555.094 272.436C555.906 272.492 556.774 272.52 557.474 272.492C558.93 272.492 559.854 272.212 560.89 271.316C563.662 269.3 563.858 262.328 558.594 257.736C559.434 257.232 560.218 256.7 560.918 256.112H560.974C562.57 262.636 565.342 267.788 570.326 270.448C570.858 269.524 571.922 268.208 572.65 267.564C570.018 266.388 567.946 264.4 566.406 261.936C568.03 261.012 569.962 259.752 571.558 258.548L568.954 256.308Z"/>
<path d="M587.07 257.288V259.892H599.922V257.288H594.966V255.496H599.362V252.976H594.966V251.128H591.802V252.976H587.63V255.496H591.802V257.288H587.07ZM595.778 264.008V266.584H591.102V264.008H595.778ZM598.858 269.076V261.488H588.078V270.588H591.102V269.076H598.858ZM604.43 247.628H582.842V257.316C582.842 261.404 582.618 266.78 579.958 270.448C580.686 270.812 582.086 271.932 582.646 272.548C585.698 268.488 586.146 261.908 586.146 257.316V250.708H601.098V268.712C601.098 269.188 600.902 269.356 600.426 269.356C599.95 269.356 598.298 269.384 596.87 269.3C597.318 270.14 597.766 271.512 597.878 272.408C600.286 272.408 601.91 272.352 602.974 271.848C604.066 271.288 604.43 270.476 604.43 268.74V247.628Z"/>
<path d="M621.566 249.784C620.642 248.776 618.766 247.376 617.198 246.48L615.014 248.496C616.554 249.448 618.374 250.96 619.214 251.968L621.566 249.784ZM620.642 255.272C619.718 254.236 617.73 252.92 616.162 252.08L614.034 254.152C615.574 255.048 617.506 256.532 618.374 257.512L620.642 255.272ZM630.526 257.764V258.324C630.526 258.968 630.582 259.472 630.75 259.808H628.65V261.404H624.142C627.25 260.732 628.426 259.668 628.902 257.764H630.526ZM636.378 258.548C635.874 258.436 635.342 258.24 635.034 258.016C634.978 258.8 634.866 258.912 634.502 258.912H633.354C632.962 258.912 632.906 258.856 632.906 258.324V257.764H636.378V258.548ZM626.55 253.144H633.998V254.012H626.55V253.144ZM626.55 251.016H633.998V251.856H626.55V251.016ZM626.55 248.916H633.998V249.728H626.55V248.916ZM633.606 265.716C633.438 266.276 633.298 266.584 633.102 266.752C632.878 266.92 632.682 266.92 632.234 266.92C631.814 266.948 630.778 266.92 629.686 266.808C629.966 267.312 630.218 268.096 630.246 268.6C631.534 268.684 632.766 268.684 633.438 268.628C634.138 268.6 634.782 268.488 635.314 268.096C635.902 267.62 636.238 266.696 636.546 264.876C636.602 264.568 636.63 263.952 636.63 263.952H629.238C629.294 263.7 629.378 263.448 629.434 263.196H639.458V261.404H631.674V260.508C632.01 260.592 632.43 260.62 632.99 260.62H634.838C636.042 260.62 636.63 260.256 636.854 259.108H639.346V256.168H631.646V255.328H637.246V247.572H631.562C631.786 247.264 632.01 246.9 632.234 246.508L628.818 246.284C628.734 246.62 628.594 247.096 628.454 247.572H623.47V255.328H628.566V256.168H621.426V259.108H624.282V257.764H626.606C626.186 258.94 625.094 259.5 622.07 259.836C622.462 260.172 622.938 260.872 623.19 261.404H621.37V263.196H626.606C626.13 264.82 624.926 265.856 621.538 266.472C621.958 266.864 622.462 267.592 622.77 268.208C621.706 267.76 620.866 267.088 620.25 266.136V258.94H613.95V262.02H617.086V266.36C615.938 267.312 614.65 268.236 613.558 268.908L615.126 272.212C616.554 271.008 617.73 269.944 618.878 268.824C620.642 271.008 622.994 271.82 626.466 271.96C629.826 272.072 635.622 272.016 639.01 271.848C639.15 270.952 639.654 269.412 640.018 268.656C636.266 268.964 629.798 269.048 626.466 268.908C625.402 268.852 624.45 268.712 623.61 268.488C626.046 267.844 627.502 266.948 628.37 265.716H633.606Z"/>
<path d="M673.198 261.46V258.632H662.138V257.036H670.622V254.292H662.138V253.172C662.726 252.556 663.258 251.828 663.79 251.016H664.882C665.61 252.024 666.31 253.2 666.618 253.984L669.474 252.78C669.25 252.304 668.858 251.66 668.41 251.016H673.058V248.3H665.33C665.554 247.824 665.778 247.32 665.918 246.872L662.726 246.06C662.166 247.656 661.242 249.28 660.122 250.568V248.3H653.99C654.242 247.824 654.466 247.376 654.662 246.9L651.47 246.06C650.49 248.44 648.838 250.848 647.018 252.36C647.774 252.752 649.146 253.676 649.79 254.208C650.63 253.34 651.554 252.248 652.394 251.016H652.674C653.206 252.024 653.766 253.172 653.962 253.956L656.818 252.78C656.65 252.304 656.342 251.66 655.978 251.016H659.73C659.422 251.352 659.086 251.688 658.722 251.968C659.142 252.192 659.758 252.584 660.346 252.948H658.666V254.292H650.546V257.036H658.666V258.632H647.718V261.46H664.182V263.14H648.782V265.94H653.934L652.45 267.06C654.074 268.264 655.894 270 656.678 271.26L659.254 269.188C658.554 268.208 657.21 266.948 655.866 265.94H664.182V268.908C664.182 269.244 664.042 269.356 663.594 269.356C663.146 269.356 661.466 269.356 660.038 269.3C660.486 270.168 661.046 271.456 661.242 272.408C663.314 272.408 664.91 272.38 666.086 271.904C667.29 271.4 667.626 270.616 667.626 268.964V265.94H672.358V263.14H667.626V261.46H673.198Z"/>
<path d="M686.722 246.396C685.322 250.372 682.886 254.348 680.366 256.868C680.926 257.68 681.85 259.5 682.158 260.34C682.774 259.668 683.418 258.912 684.034 258.072V272.38H687.226V253.116C688.262 251.268 689.158 249.308 689.886 247.376L686.722 246.396ZM691.902 258.744C691.258 261.852 690.082 265.016 688.486 266.976C689.298 267.396 690.698 268.236 691.342 268.768C692.91 266.5 694.338 262.972 695.15 259.416L691.902 258.744ZM703.55 254.376C703.41 255.608 703.242 256.784 703.102 257.652L705.93 258.128C706.322 256.504 706.798 253.9 707.134 251.632L704.782 251.184L704.25 251.296H694.618C695.122 249.924 695.57 248.552 695.934 247.124L692.686 246.396C691.734 250.232 690.054 254.096 687.926 256.476C688.682 256.98 690.026 258.072 690.614 258.66C691.538 257.484 692.462 256 693.246 254.376H696.494V268.656C696.494 269.02 696.354 269.132 695.99 269.132C695.598 269.132 694.422 269.132 693.246 269.104C693.75 270 694.254 271.484 694.394 272.464C696.186 272.464 697.53 272.324 698.51 271.792C699.518 271.232 699.798 270.308 699.798 268.712V254.376H703.55ZM700.806 259.472C702.15 262.356 703.326 266.192 703.634 268.684L706.826 267.592C706.434 265.072 705.23 261.348 703.774 258.464L700.806 259.472Z"/>
<path d="M720.126 253.2C719.342 256.616 717.634 259.556 715.17 261.32C715.898 261.824 717.214 262.916 717.746 263.504C718.978 262.496 720.042 261.18 720.966 259.668C721.722 260.396 722.422 261.096 722.842 261.628L725.082 259.304C724.438 258.66 723.374 257.708 722.366 256.84C722.758 255.888 723.094 254.852 723.374 253.816L720.126 253.2ZM740.118 260.452C739.082 259.5 737.15 258.016 735.554 256.784C735.918 255.832 736.226 254.824 736.478 253.788L733.23 253.2C732.67 255.86 731.494 258.352 729.702 259.948C729.562 259.724 729.422 259.528 729.282 259.304V253.032H739.838V249.756H729.282V246.312H725.782V249.756H715.59V253.032H725.782V259.5C723.346 263.28 718.978 266.752 714.442 268.516C715.17 269.216 716.262 270.56 716.794 271.372C720.126 269.832 723.262 267.396 725.782 264.456V272.436H729.282V264.288C731.802 267.284 734.966 269.804 738.354 271.372C738.914 270.448 740.006 269.02 740.818 268.32C736.618 266.78 732.614 263.812 730.122 260.508C730.906 260.928 731.83 261.544 732.306 261.936C733.006 261.264 733.622 260.452 734.182 259.528C735.582 260.676 737.01 261.908 737.794 262.776L740.118 260.452Z"/>
<path d="M754.678 252.052H757.926V250.512H764.338V252.052H767.586V250.512H773.662V247.712H767.586V246.312H764.338V247.712H757.926V246.312H754.678V247.712H748.854V250.512H754.678V252.052ZM754.51 259.164H759.634V260.788H754.51V259.164ZM754.51 255.356H759.634V256.98H754.51V255.356ZM767.95 256.98H762.742V255.356H767.95V256.98ZM767.95 260.788H762.742V259.164H767.95V260.788ZM768.79 265.016C768.986 265.324 769.154 265.688 769.35 266.052L767.838 266.164C768.146 265.352 768.454 264.484 768.762 263.644L766.298 263.224C766.186 264.12 765.906 265.268 765.654 266.304L764.45 266.36L765.122 268.46C766.634 268.292 768.342 268.068 770.106 267.844C770.218 268.124 770.302 268.404 770.358 268.656L771.45 268.236C771.282 269.216 771.002 269.412 770.162 269.412H765.99C764.59 269.412 764.366 269.3 764.366 268.46V263.112H771.338V253.032H762.35C762.658 252.556 762.966 252.024 763.246 251.464L759.774 251.016C759.634 251.604 759.41 252.332 759.13 253.032H751.262V263.112H755.658C755.182 266.164 754.034 268.32 748.126 269.468C748.798 270.14 749.638 271.512 749.974 272.38C756.89 270.7 758.514 267.536 759.13 263.112H761.202V268.488C761.202 271.288 762.07 272.128 765.626 272.128H770.47C773.102 272.128 773.97 271.372 774.362 268.46C773.746 268.348 772.962 268.096 772.29 267.816C772.038 266.836 771.338 265.408 770.666 264.344L768.79 265.016Z"/>
<path d="M788.586 258.576H793.878V259.78H788.586V258.576ZM793.878 253.032H788.586V251.884H793.878V253.032ZM793.878 256.392H788.586V255.216H793.878V256.392ZM807.402 266.052V263.392H796.398V262.3H806.674V259.78H797.07V258.576H804.518V256.392H797.07V255.216H804.49V253.032H797.07V251.884H805.862V249.308H797.49C797.994 248.524 798.526 247.628 799.002 246.732L795.25 246.284C794.97 247.18 794.494 248.3 794.018 249.308H790.042C790.602 248.496 791.106 247.712 791.554 246.9L788.11 246.256C786.85 248.692 784.582 251.632 781.474 253.872C782.202 254.348 783.294 255.356 783.826 256.112C784.386 255.664 784.918 255.216 785.422 254.74V262.3H793.122V263.392H782.258V266.052H790.602C787.998 267.536 784.526 268.824 781.334 269.496C782.034 270.196 782.958 271.428 783.462 272.24C786.738 271.344 790.35 269.636 793.122 267.62V272.408H796.398V267.508C799.17 269.524 802.726 271.204 806.002 272.1C806.45 271.316 807.374 270.084 808.074 269.44C804.994 268.768 801.634 267.508 799.114 266.052H807.402Z"/>
</mask>
<path d="M533.842 265.884V260.144H529.446V258.828H526.926V260.144H523.37C523.902 259.64 524.434 259.052 524.938 258.408H535.522C535.354 265.856 535.13 268.516 534.71 269.132C534.57 269.328 534.458 269.44 534.29 269.524C534.01 268.432 533.45 267.032 532.862 265.884H533.842ZM529.446 267.48V265.884H532.246L530.594 266.388C530.734 266.696 530.902 267.004 531.042 267.34L529.446 267.48ZM529.446 262.216H531.266V263.868H529.446V262.216ZM525.106 263.868V262.216H526.926V263.868H525.106ZM525.022 249.756H526.786V251.884H525.022V249.756ZM529.11 249.756H530.902V251.884H529.11V249.756ZM533.198 249.756H535.046V251.884H533.198V249.756ZM526.674 255.776C526.926 255.328 527.178 254.852 527.374 254.376H538.014V247.32H522.222V254.376H524.07C523.258 255.86 522.138 257.26 520.878 258.352C520.71 256.168 520.318 254.068 519.45 252.052C520.458 250.764 521.354 249.392 522.11 247.992L519.198 246.536C518.778 247.376 518.302 248.216 517.742 249.056C517.07 248.16 516.258 247.264 515.306 246.396L513.01 248.16C514.214 249.28 515.11 250.428 515.81 251.604C514.802 252.752 513.738 253.788 512.646 254.6C513.346 255.104 514.382 256.084 514.886 256.756C515.642 256.14 516.398 255.468 517.126 254.712C517.378 255.608 517.546 256.532 517.658 257.484C516.426 259.64 514.41 261.908 512.59 263.112C513.346 263.728 514.242 264.82 514.746 265.632C515.754 264.736 516.846 263.532 517.854 262.216C517.826 265.352 517.602 268.096 517.07 268.768C516.846 269.048 516.594 269.188 516.23 269.244C515.726 269.3 514.858 269.3 513.682 269.216C514.242 270.168 514.494 271.344 514.494 272.408C515.67 272.464 516.762 272.436 517.77 272.184C518.47 272.044 519.058 271.652 519.45 271.092C520.71 269.356 520.962 265.436 520.962 261.488C520.962 260.76 520.962 260.032 520.906 259.304C521.55 259.752 522.25 260.34 522.642 260.732V265.884H526.926V267.676C524.91 267.844 523.034 268.012 521.578 268.096L521.886 270.812C524.602 270.504 528.27 270.084 531.854 269.692C531.966 270.056 532.05 270.42 532.106 270.728L532.526 270.588C532.694 271.204 532.834 271.848 532.862 272.38C533.954 272.408 534.934 272.408 535.606 272.268C536.362 272.128 536.894 271.848 537.454 271.064C538.182 270.028 538.406 266.584 538.602 257.12C538.602 256.728 538.63 255.776 538.63 255.776H526.674Z" fill="white"/>
<path d="M551.09 251.52H568.142V254.74H571.558V248.496H561.31V246.312H557.894V248.496H547.814V254.74H551.09V251.52ZM568.954 256.308C567.946 257.26 566.462 258.408 565.062 259.36C564.614 258.324 564.222 257.232 563.914 256.112H567.106V253.312H552.07V256.112H556.158C553.694 257.372 550.586 258.352 547.59 258.94C548.122 259.584 548.962 260.9 549.298 261.544C551.51 260.956 553.806 260.144 555.934 259.164C556.186 259.388 556.41 259.612 556.634 259.836C554.534 261.264 550.81 262.804 547.982 263.476C548.598 264.12 549.298 265.268 549.662 265.996C552.322 265.072 555.766 263.392 558.146 261.796C558.342 262.104 558.51 262.44 558.678 262.776C555.906 265.128 551.034 267.424 547.002 268.432C547.618 269.16 548.346 270.364 548.738 271.204C552.238 270 556.382 267.9 559.434 265.66C559.546 267.144 559.154 268.292 558.51 268.796C558.062 269.3 557.53 269.384 556.83 269.384C556.102 269.384 555.206 269.328 554.142 269.244C554.758 270.168 555.038 271.512 555.094 272.436C555.906 272.492 556.774 272.52 557.474 272.492C558.93 272.492 559.854 272.212 560.89 271.316C563.662 269.3 563.858 262.328 558.594 257.736C559.434 257.232 560.218 256.7 560.918 256.112H560.974C562.57 262.636 565.342 267.788 570.326 270.448C570.858 269.524 571.922 268.208 572.65 267.564C570.018 266.388 567.946 264.4 566.406 261.936C568.03 261.012 569.962 259.752 571.558 258.548L568.954 256.308Z" fill="white"/>
<path d="M587.07 257.288V259.892H599.922V257.288H594.966V255.496H599.362V252.976H594.966V251.128H591.802V252.976H587.63V255.496H591.802V257.288H587.07ZM595.778 264.008V266.584H591.102V264.008H595.778ZM598.858 269.076V261.488H588.078V270.588H591.102V269.076H598.858ZM604.43 247.628H582.842V257.316C582.842 261.404 582.618 266.78 579.958 270.448C580.686 270.812 582.086 271.932 582.646 272.548C585.698 268.488 586.146 261.908 586.146 257.316V250.708H601.098V268.712C601.098 269.188 600.902 269.356 600.426 269.356C599.95 269.356 598.298 269.384 596.87 269.3C597.318 270.14 597.766 271.512 597.878 272.408C600.286 272.408 601.91 272.352 602.974 271.848C604.066 271.288 604.43 270.476 604.43 268.74V247.628Z" fill="white"/>
<path d="M621.566 249.784C620.642 248.776 618.766 247.376 617.198 246.48L615.014 248.496C616.554 249.448 618.374 250.96 619.214 251.968L621.566 249.784ZM620.642 255.272C619.718 254.236 617.73 252.92 616.162 252.08L614.034 254.152C615.574 255.048 617.506 256.532 618.374 257.512L620.642 255.272ZM630.526 257.764V258.324C630.526 258.968 630.582 259.472 630.75 259.808H628.65V261.404H624.142C627.25 260.732 628.426 259.668 628.902 257.764H630.526ZM636.378 258.548C635.874 258.436 635.342 258.24 635.034 258.016C634.978 258.8 634.866 258.912 634.502 258.912H633.354C632.962 258.912 632.906 258.856 632.906 258.324V257.764H636.378V258.548ZM626.55 253.144H633.998V254.012H626.55V253.144ZM626.55 251.016H633.998V251.856H626.55V251.016ZM626.55 248.916H633.998V249.728H626.55V248.916ZM633.606 265.716C633.438 266.276 633.298 266.584 633.102 266.752C632.878 266.92 632.682 266.92 632.234 266.92C631.814 266.948 630.778 266.92 629.686 266.808C629.966 267.312 630.218 268.096 630.246 268.6C631.534 268.684 632.766 268.684 633.438 268.628C634.138 268.6 634.782 268.488 635.314 268.096C635.902 267.62 636.238 266.696 636.546 264.876C636.602 264.568 636.63 263.952 636.63 263.952H629.238C629.294 263.7 629.378 263.448 629.434 263.196H639.458V261.404H631.674V260.508C632.01 260.592 632.43 260.62 632.99 260.62H634.838C636.042 260.62 636.63 260.256 636.854 259.108H639.346V256.168H631.646V255.328H637.246V247.572H631.562C631.786 247.264 632.01 246.9 632.234 246.508L628.818 246.284C628.734 246.62 628.594 247.096 628.454 247.572H623.47V255.328H628.566V256.168H621.426V259.108H624.282V257.764H626.606C626.186 258.94 625.094 259.5 622.07 259.836C622.462 260.172 622.938 260.872 623.19 261.404H621.37V263.196H626.606C626.13 264.82 624.926 265.856 621.538 266.472C621.958 266.864 622.462 267.592 622.77 268.208C621.706 267.76 620.866 267.088 620.25 266.136V258.94H613.95V262.02H617.086V266.36C615.938 267.312 614.65 268.236 613.558 268.908L615.126 272.212C616.554 271.008 617.73 269.944 618.878 268.824C620.642 271.008 622.994 271.82 626.466 271.96C629.826 272.072 635.622 272.016 639.01 271.848C639.15 270.952 639.654 269.412 640.018 268.656C636.266 268.964 629.798 269.048 626.466 268.908C625.402 268.852 624.45 268.712 623.61 268.488C626.046 267.844 627.502 266.948 628.37 265.716H633.606Z" fill="white"/>
<path d="M673.198 261.46V258.632H662.138V257.036H670.622V254.292H662.138V253.172C662.726 252.556 663.258 251.828 663.79 251.016H664.882C665.61 252.024 666.31 253.2 666.618 253.984L669.474 252.78C669.25 252.304 668.858 251.66 668.41 251.016H673.058V248.3H665.33C665.554 247.824 665.778 247.32 665.918 246.872L662.726 246.06C662.166 247.656 661.242 249.28 660.122 250.568V248.3H653.99C654.242 247.824 654.466 247.376 654.662 246.9L651.47 246.06C650.49 248.44 648.838 250.848 647.018 252.36C647.774 252.752 649.146 253.676 649.79 254.208C650.63 253.34 651.554 252.248 652.394 251.016H652.674C653.206 252.024 653.766 253.172 653.962 253.956L656.818 252.78C656.65 252.304 656.342 251.66 655.978 251.016H659.73C659.422 251.352 659.086 251.688 658.722 251.968C659.142 252.192 659.758 252.584 660.346 252.948H658.666V254.292H650.546V257.036H658.666V258.632H647.718V261.46H664.182V263.14H648.782V265.94H653.934L652.45 267.06C654.074 268.264 655.894 270 656.678 271.26L659.254 269.188C658.554 268.208 657.21 266.948 655.866 265.94H664.182V268.908C664.182 269.244 664.042 269.356 663.594 269.356C663.146 269.356 661.466 269.356 660.038 269.3C660.486 270.168 661.046 271.456 661.242 272.408C663.314 272.408 664.91 272.38 666.086 271.904C667.29 271.4 667.626 270.616 667.626 268.964V265.94H672.358V263.14H667.626V261.46H673.198Z" fill="white"/>
<path d="M686.722 246.396C685.322 250.372 682.886 254.348 680.366 256.868C680.926 257.68 681.85 259.5 682.158 260.34C682.774 259.668 683.418 258.912 684.034 258.072V272.38H687.226V253.116C688.262 251.268 689.158 249.308 689.886 247.376L686.722 246.396ZM691.902 258.744C691.258 261.852 690.082 265.016 688.486 266.976C689.298 267.396 690.698 268.236 691.342 268.768C692.91 266.5 694.338 262.972 695.15 259.416L691.902 258.744ZM703.55 254.376C703.41 255.608 703.242 256.784 703.102 257.652L705.93 258.128C706.322 256.504 706.798 253.9 707.134 251.632L704.782 251.184L704.25 251.296H694.618C695.122 249.924 695.57 248.552 695.934 247.124L692.686 246.396C691.734 250.232 690.054 254.096 687.926 256.476C688.682 256.98 690.026 258.072 690.614 258.66C691.538 257.484 692.462 256 693.246 254.376H696.494V268.656C696.494 269.02 696.354 269.132 695.99 269.132C695.598 269.132 694.422 269.132 693.246 269.104C693.75 270 694.254 271.484 694.394 272.464C696.186 272.464 697.53 272.324 698.51 271.792C699.518 271.232 699.798 270.308 699.798 268.712V254.376H703.55ZM700.806 259.472C702.15 262.356 703.326 266.192 703.634 268.684L706.826 267.592C706.434 265.072 705.23 261.348 703.774 258.464L700.806 259.472Z" fill="white"/>
<path d="M720.126 253.2C719.342 256.616 717.634 259.556 715.17 261.32C715.898 261.824 717.214 262.916 717.746 263.504C718.978 262.496 720.042 261.18 720.966 259.668C721.722 260.396 722.422 261.096 722.842 261.628L725.082 259.304C724.438 258.66 723.374 257.708 722.366 256.84C722.758 255.888 723.094 254.852 723.374 253.816L720.126 253.2ZM740.118 260.452C739.082 259.5 737.15 258.016 735.554 256.784C735.918 255.832 736.226 254.824 736.478 253.788L733.23 253.2C732.67 255.86 731.494 258.352 729.702 259.948C729.562 259.724 729.422 259.528 729.282 259.304V253.032H739.838V249.756H729.282V246.312H725.782V249.756H715.59V253.032H725.782V259.5C723.346 263.28 718.978 266.752 714.442 268.516C715.17 269.216 716.262 270.56 716.794 271.372C720.126 269.832 723.262 267.396 725.782 264.456V272.436H729.282V264.288C731.802 267.284 734.966 269.804 738.354 271.372C738.914 270.448 740.006 269.02 740.818 268.32C736.618 266.78 732.614 263.812 730.122 260.508C730.906 260.928 731.83 261.544 732.306 261.936C733.006 261.264 733.622 260.452 734.182 259.528C735.582 260.676 737.01 261.908 737.794 262.776L740.118 260.452Z" fill="white"/>
<path d="M754.678 252.052H757.926V250.512H764.338V252.052H767.586V250.512H773.662V247.712H767.586V246.312H764.338V247.712H757.926V246.312H754.678V247.712H748.854V250.512H754.678V252.052ZM754.51 259.164H759.634V260.788H754.51V259.164ZM754.51 255.356H759.634V256.98H754.51V255.356ZM767.95 256.98H762.742V255.356H767.95V256.98ZM767.95 260.788H762.742V259.164H767.95V260.788ZM768.79 265.016C768.986 265.324 769.154 265.688 769.35 266.052L767.838 266.164C768.146 265.352 768.454 264.484 768.762 263.644L766.298 263.224C766.186 264.12 765.906 265.268 765.654 266.304L764.45 266.36L765.122 268.46C766.634 268.292 768.342 268.068 770.106 267.844C770.218 268.124 770.302 268.404 770.358 268.656L771.45 268.236C771.282 269.216 771.002 269.412 770.162 269.412H765.99C764.59 269.412 764.366 269.3 764.366 268.46V263.112H771.338V253.032H762.35C762.658 252.556 762.966 252.024 763.246 251.464L759.774 251.016C759.634 251.604 759.41 252.332 759.13 253.032H751.262V263.112H755.658C755.182 266.164 754.034 268.32 748.126 269.468C748.798 270.14 749.638 271.512 749.974 272.38C756.89 270.7 758.514 267.536 759.13 263.112H761.202V268.488C761.202 271.288 762.07 272.128 765.626 272.128H770.47C773.102 272.128 773.97 271.372 774.362 268.46C773.746 268.348 772.962 268.096 772.29 267.816C772.038 266.836 771.338 265.408 770.666 264.344L768.79 265.016Z" fill="white"/>
<path d="M788.586 258.576H793.878V259.78H788.586V258.576ZM793.878 253.032H788.586V251.884H793.878V253.032ZM793.878 256.392H788.586V255.216H793.878V256.392ZM807.402 266.052V263.392H796.398V262.3H806.674V259.78H797.07V258.576H804.518V256.392H797.07V255.216H804.49V253.032H797.07V251.884H805.862V249.308H797.49C797.994 248.524 798.526 247.628 799.002 246.732L795.25 246.284C794.97 247.18 794.494 248.3 794.018 249.308H790.042C790.602 248.496 791.106 247.712 791.554 246.9L788.11 246.256C786.85 248.692 784.582 251.632 781.474 253.872C782.202 254.348 783.294 255.356 783.826 256.112C784.386 255.664 784.918 255.216 785.422 254.74V262.3H793.122V263.392H782.258V266.052H790.602C787.998 267.536 784.526 268.824 781.334 269.496C782.034 270.196 782.958 271.428 783.462 272.24C786.738 271.344 790.35 269.636 793.122 267.62V272.408H796.398V267.508C799.17 269.524 802.726 271.204 806.002 272.1C806.45 271.316 807.374 270.084 808.074 269.44C804.994 268.768 801.634 267.508 799.114 266.052H807.402Z" fill="white"/>
<path d="M533.842 265.884V260.144H529.446V258.828H526.926V260.144H523.37C523.902 259.64 524.434 259.052 524.938 258.408H535.522C535.354 265.856 535.13 268.516 534.71 269.132C534.57 269.328 534.458 269.44 534.29 269.524C534.01 268.432 533.45 267.032 532.862 265.884H533.842ZM529.446 267.48V265.884H532.246L530.594 266.388C530.734 266.696 530.902 267.004 531.042 267.34L529.446 267.48ZM529.446 262.216H531.266V263.868H529.446V262.216ZM525.106 263.868V262.216H526.926V263.868H525.106ZM525.022 249.756H526.786V251.884H525.022V249.756ZM529.11 249.756H530.902V251.884H529.11V249.756ZM533.198 249.756H535.046V251.884H533.198V249.756ZM526.674 255.776C526.926 255.328 527.178 254.852 527.374 254.376H538.014V247.32H522.222V254.376H524.07C523.258 255.86 522.138 257.26 520.878 258.352C520.71 256.168 520.318 254.068 519.45 252.052C520.458 250.764 521.354 249.392 522.11 247.992L519.198 246.536C518.778 247.376 518.302 248.216 517.742 249.056C517.07 248.16 516.258 247.264 515.306 246.396L513.01 248.16C514.214 249.28 515.11 250.428 515.81 251.604C514.802 252.752 513.738 253.788 512.646 254.6C513.346 255.104 514.382 256.084 514.886 256.756C515.642 256.14 516.398 255.468 517.126 254.712C517.378 255.608 517.546 256.532 517.658 257.484C516.426 259.64 514.41 261.908 512.59 263.112C513.346 263.728 514.242 264.82 514.746 265.632C515.754 264.736 516.846 263.532 517.854 262.216C517.826 265.352 517.602 268.096 517.07 268.768C516.846 269.048 516.594 269.188 516.23 269.244C515.726 269.3 514.858 269.3 513.682 269.216C514.242 270.168 514.494 271.344 514.494 272.408C515.67 272.464 516.762 272.436 517.77 272.184C518.47 272.044 519.058 271.652 519.45 271.092C520.71 269.356 520.962 265.436 520.962 261.488C520.962 260.76 520.962 260.032 520.906 259.304C521.55 259.752 522.25 260.34 522.642 260.732V265.884H526.926V267.676C524.91 267.844 523.034 268.012 521.578 268.096L521.886 270.812C524.602 270.504 528.27 270.084 531.854 269.692C531.966 270.056 532.05 270.42 532.106 270.728L532.526 270.588C532.694 271.204 532.834 271.848 532.862 272.38C533.954 272.408 534.934 272.408 535.606 272.268C536.362 272.128 536.894 271.848 537.454 271.064C538.182 270.028 538.406 266.584 538.602 257.12C538.602 256.728 538.63 255.776 538.63 255.776H526.674Z" stroke="#23B2BD" stroke-width="12" stroke-linecap="round" stroke-linejoin="round" mask="url(#path-47-outside-1)"/>
<path d="M551.09 251.52H568.142V254.74H571.558V248.496H561.31V246.312H557.894V248.496H547.814V254.74H551.09V251.52ZM568.954 256.308C567.946 257.26 566.462 258.408 565.062 259.36C564.614 258.324 564.222 257.232 563.914 256.112H567.106V253.312H552.07V256.112H556.158C553.694 257.372 550.586 258.352 547.59 258.94C548.122 259.584 548.962 260.9 549.298 261.544C551.51 260.956 553.806 260.144 555.934 259.164C556.186 259.388 556.41 259.612 556.634 259.836C554.534 261.264 550.81 262.804 547.982 263.476C548.598 264.12 549.298 265.268 549.662 265.996C552.322 265.072 555.766 263.392 558.146 261.796C558.342 262.104 558.51 262.44 558.678 262.776C555.906 265.128 551.034 267.424 547.002 268.432C547.618 269.16 548.346 270.364 548.738 271.204C552.238 270 556.382 267.9 559.434 265.66C559.546 267.144 559.154 268.292 558.51 268.796C558.062 269.3 557.53 269.384 556.83 269.384C556.102 269.384 555.206 269.328 554.142 269.244C554.758 270.168 555.038 271.512 555.094 272.436C555.906 272.492 556.774 272.52 557.474 272.492C558.93 272.492 559.854 272.212 560.89 271.316C563.662 269.3 563.858 262.328 558.594 257.736C559.434 257.232 560.218 256.7 560.918 256.112H560.974C562.57 262.636 565.342 267.788 570.326 270.448C570.858 269.524 571.922 268.208 572.65 267.564C570.018 266.388 567.946 264.4 566.406 261.936C568.03 261.012 569.962 259.752 571.558 258.548L568.954 256.308Z" stroke="#23B2BD" stroke-width="12" stroke-linecap="round" stroke-linejoin="round" mask="url(#path-47-outside-1)"/>
<path d="M587.07 257.288V259.892H599.922V257.288H594.966V255.496H599.362V252.976H594.966V251.128H591.802V252.976H587.63V255.496H591.802V257.288H587.07ZM595.778 264.008V266.584H591.102V264.008H595.778ZM598.858 269.076V261.488H588.078V270.588H591.102V269.076H598.858ZM604.43 247.628H582.842V257.316C582.842 261.404 582.618 266.78 579.958 270.448C580.686 270.812 582.086 271.932 582.646 272.548C585.698 268.488 586.146 261.908 586.146 257.316V250.708H601.098V268.712C601.098 269.188 600.902 269.356 600.426 269.356C599.95 269.356 598.298 269.384 596.87 269.3C597.318 270.14 597.766 271.512 597.878 272.408C600.286 272.408 601.91 272.352 602.974 271.848C604.066 271.288 604.43 270.476 604.43 268.74V247.628Z" stroke="#23B2BD" stroke-width="12" stroke-linecap="round" stroke-linejoin="round" mask="url(#path-47-outside-1)"/>
<path d="M621.566 249.784C620.642 248.776 618.766 247.376 617.198 246.48L615.014 248.496C616.554 249.448 618.374 250.96 619.214 251.968L621.566 249.784ZM620.642 255.272C619.718 254.236 617.73 252.92 616.162 252.08L614.034 254.152C615.574 255.048 617.506 256.532 618.374 257.512L620.642 255.272ZM630.526 257.764V258.324C630.526 258.968 630.582 259.472 630.75 259.808H628.65V261.404H624.142C627.25 260.732 628.426 259.668 628.902 257.764H630.526ZM636.378 258.548C635.874 258.436 635.342 258.24 635.034 258.016C634.978 258.8 634.866 258.912 634.502 258.912H633.354C632.962 258.912 632.906 258.856 632.906 258.324V257.764H636.378V258.548ZM626.55 253.144H633.998V254.012H626.55V253.144ZM626.55 251.016H633.998V251.856H626.55V251.016ZM626.55 248.916H633.998V249.728H626.55V248.916ZM633.606 265.716C633.438 266.276 633.298 266.584 633.102 266.752C632.878 266.92 632.682 266.92 632.234 266.92C631.814 266.948 630.778 266.92 629.686 266.808C629.966 267.312 630.218 268.096 630.246 268.6C631.534 268.684 632.766 268.684 633.438 268.628C634.138 268.6 634.782 268.488 635.314 268.096C635.902 267.62 636.238 266.696 636.546 264.876C636.602 264.568 636.63 263.952 636.63 263.952H629.238C629.294 263.7 629.378 263.448 629.434 263.196H639.458V261.404H631.674V260.508C632.01 260.592 632.43 260.62 632.99 260.62H634.838C636.042 260.62 636.63 260.256 636.854 259.108H639.346V256.168H631.646V255.328H637.246V247.572H631.562C631.786 247.264 632.01 246.9 632.234 246.508L628.818 246.284C628.734 246.62 628.594 247.096 628.454 247.572H623.47V255.328H628.566V256.168H621.426V259.108H624.282V257.764H626.606C626.186 258.94 625.094 259.5 622.07 259.836C622.462 260.172 622.938 260.872 623.19 261.404H621.37V263.196H626.606C626.13 264.82 624.926 265.856 621.538 266.472C621.958 266.864 622.462 267.592 622.77 268.208C621.706 267.76 620.866 267.088 620.25 266.136V258.94H613.95V262.02H617.086V266.36C615.938 267.312 614.65 268.236 613.558 268.908L615.126 272.212C616.554 271.008 617.73 269.944 618.878 268.824C620.642 271.008 622.994 271.82 626.466 271.96C629.826 272.072 635.622 272.016 639.01 271.848C639.15 270.952 639.654 269.412 640.018 268.656C636.266 268.964 629.798 269.048 626.466 268.908C625.402 268.852 624.45 268.712 623.61 268.488C626.046 267.844 627.502 266.948 628.37 265.716H633.606Z" stroke="#23B2BD" stroke-width="12" stroke-linecap="round" stroke-linejoin="round" mask="url(#path-47-outside-1)"/>
<path d="M673.198 261.46V258.632H662.138V257.036H670.622V254.292H662.138V253.172C662.726 252.556 663.258 251.828 663.79 251.016H664.882C665.61 252.024 666.31 253.2 666.618 253.984L669.474 252.78C669.25 252.304 668.858 251.66 668.41 251.016H673.058V248.3H665.33C665.554 247.824 665.778 247.32 665.918 246.872L662.726 246.06C662.166 247.656 661.242 249.28 660.122 250.568V248.3H653.99C654.242 247.824 654.466 247.376 654.662 246.9L651.47 246.06C650.49 248.44 648.838 250.848 647.018 252.36C647.774 252.752 649.146 253.676 649.79 254.208C650.63 253.34 651.554 252.248 652.394 251.016H652.674C653.206 252.024 653.766 253.172 653.962 253.956L656.818 252.78C656.65 252.304 656.342 251.66 655.978 251.016H659.73C659.422 251.352 659.086 251.688 658.722 251.968C659.142 252.192 659.758 252.584 660.346 252.948H658.666V254.292H650.546V257.036H658.666V258.632H647.718V261.46H664.182V263.14H648.782V265.94H653.934L652.45 267.06C654.074 268.264 655.894 270 656.678 271.26L659.254 269.188C658.554 268.208 657.21 266.948 655.866 265.94H664.182V268.908C664.182 269.244 664.042 269.356 663.594 269.356C663.146 269.356 661.466 269.356 660.038 269.3C660.486 270.168 661.046 271.456 661.242 272.408C663.314 272.408 664.91 272.38 666.086 271.904C667.29 271.4 667.626 270.616 667.626 268.964V265.94H672.358V263.14H667.626V261.46H673.198Z" stroke="#23B2BD" stroke-width="12" stroke-linecap="round" stroke-linejoin="round" mask="url(#path-47-outside-1)"/>
<path d="M686.722 246.396C685.322 250.372 682.886 254.348 680.366 256.868C680.926 257.68 681.85 259.5 682.158 260.34C682.774 259.668 683.418 258.912 684.034 258.072V272.38H687.226V253.116C688.262 251.268 689.158 249.308 689.886 247.376L686.722 246.396ZM691.902 258.744C691.258 261.852 690.082 265.016 688.486 266.976C689.298 267.396 690.698 268.236 691.342 268.768C692.91 266.5 694.338 262.972 695.15 259.416L691.902 258.744ZM703.55 254.376C703.41 255.608 703.242 256.784 703.102 257.652L705.93 258.128C706.322 256.504 706.798 253.9 707.134 251.632L704.782 251.184L704.25 251.296H694.618C695.122 249.924 695.57 248.552 695.934 247.124L692.686 246.396C691.734 250.232 690.054 254.096 687.926 256.476C688.682 256.98 690.026 258.072 690.614 258.66C691.538 257.484 692.462 256 693.246 254.376H696.494V268.656C696.494 269.02 696.354 269.132 695.99 269.132C695.598 269.132 694.422 269.132 693.246 269.104C693.75 270 694.254 271.484 694.394 272.464C696.186 272.464 697.53 272.324 698.51 271.792C699.518 271.232 699.798 270.308 699.798 268.712V254.376H703.55ZM700.806 259.472C702.15 262.356 703.326 266.192 703.634 268.684L706.826 267.592C706.434 265.072 705.23 261.348 703.774 258.464L700.806 259.472Z" stroke="#23B2BD" stroke-width="12" stroke-linecap="round" stroke-linejoin="round" mask="url(#path-47-outside-1)"/>
<path d="M720.126 253.2C719.342 256.616 717.634 259.556 715.17 261.32C715.898 261.824 717.214 262.916 717.746 263.504C718.978 262.496 720.042 261.18 720.966 259.668C721.722 260.396 722.422 261.096 722.842 261.628L725.082 259.304C724.438 258.66 723.374 257.708 722.366 256.84C722.758 255.888 723.094 254.852 723.374 253.816L720.126 253.2ZM740.118 260.452C739.082 259.5 737.15 258.016 735.554 256.784C735.918 255.832 736.226 254.824 736.478 253.788L733.23 253.2C732.67 255.86 731.494 258.352 729.702 259.948C729.562 259.724 729.422 259.528 729.282 259.304V253.032H739.838V249.756H729.282V246.312H725.782V249.756H715.59V253.032H725.782V259.5C723.346 263.28 718.978 266.752 714.442 268.516C715.17 269.216 716.262 270.56 716.794 271.372C720.126 269.832 723.262 267.396 725.782 264.456V272.436H729.282V264.288C731.802 267.284 734.966 269.804 738.354 271.372C738.914 270.448 740.006 269.02 740.818 268.32C736.618 266.78 732.614 263.812 730.122 260.508C730.906 260.928 731.83 261.544 732.306 261.936C733.006 261.264 733.622 260.452 734.182 259.528C735.582 260.676 737.01 261.908 737.794 262.776L740.118 260.452Z" stroke="#23B2BD" stroke-width="12" stroke-linecap="round" stroke-linejoin="round" mask="url(#path-47-outside-1)"/>
<path d="M754.678 252.052H757.926V250.512H764.338V252.052H767.586V250.512H773.662V247.712H767.586V246.312H764.338V247.712H757.926V246.312H754.678V247.712H748.854V250.512H754.678V252.052ZM754.51 259.164H759.634V260.788H754.51V259.164ZM754.51 255.356H759.634V256.98H754.51V255.356ZM767.95 256.98H762.742V255.356H767.95V256.98ZM767.95 260.788H762.742V259.164H767.95V260.788ZM768.79 265.016C768.986 265.324 769.154 265.688 769.35 266.052L767.838 266.164C768.146 265.352 768.454 264.484 768.762 263.644L766.298 263.224C766.186 264.12 765.906 265.268 765.654 266.304L764.45 266.36L765.122 268.46C766.634 268.292 768.342 268.068 770.106 267.844C770.218 268.124 770.302 268.404 770.358 268.656L771.45 268.236C771.282 269.216 771.002 269.412 770.162 269.412H765.99C764.59 269.412 764.366 269.3 764.366 268.46V263.112H771.338V253.032H762.35C762.658 252.556 762.966 252.024 763.246 251.464L759.774 251.016C759.634 251.604 759.41 252.332 759.13 253.032H751.262V263.112H755.658C755.182 266.164 754.034 268.32 748.126 269.468C748.798 270.14 749.638 271.512 749.974 272.38C756.89 270.7 758.514 267.536 759.13 263.112H761.202V268.488C761.202 271.288 762.07 272.128 765.626 272.128H770.47C773.102 272.128 773.97 271.372 774.362 268.46C773.746 268.348 772.962 268.096 772.29 267.816C772.038 266.836 771.338 265.408 770.666 264.344L768.79 265.016Z" stroke="#23B2BD" stroke-width="12" stroke-linecap="round" stroke-linejoin="round" mask="url(#path-47-outside-1)"/>
<path d="M788.586 258.576H793.878V259.78H788.586V258.576ZM793.878 253.032H788.586V251.884H793.878V253.032ZM793.878 256.392H788.586V255.216H793.878V256.392ZM807.402 266.052V263.392H796.398V262.3H806.674V259.78H797.07V258.576H804.518V256.392H797.07V255.216H804.49V253.032H797.07V251.884H805.862V249.308H797.49C797.994 248.524 798.526 247.628 799.002 246.732L795.25 246.284C794.97 247.18 794.494 248.3 794.018 249.308H790.042C790.602 248.496 791.106 247.712 791.554 246.9L788.11 246.256C786.85 248.692 784.582 251.632 781.474 253.872C782.202 254.348 783.294 255.356 783.826 256.112C784.386 255.664 784.918 255.216 785.422 254.74V262.3H793.122V263.392H782.258V266.052H790.602C787.998 267.536 784.526 268.824 781.334 269.496C782.034 270.196 782.958 271.428 783.462 272.24C786.738 271.344 790.35 269.636 793.122 267.62V272.408H796.398V267.508C799.17 269.524 802.726 271.204 806.002 272.1C806.45 271.316 807.374 270.084 808.074 269.44C804.994 268.768 801.634 267.508 799.114 266.052H807.402Z" stroke="#23B2BD" stroke-width="12" stroke-linecap="round" stroke-linejoin="round" mask="url(#path-47-outside-1)"/>
<path d="M165 720C165 692.386 187.386 670 215 670H1107C1134.61 670 1157 692.386 1157 720V732H165V720Z" fill="#284273"/>
</svg>
