<svg width="965" height="565" viewBox="0 0 965 565" fill="none" xmlns="http://www.w3.org/2000/svg">
<path d="M3 20C3 10.6112 10.6112 3 20 3H940C949.389 3 957 10.6112 957 20V490.704C957 495.957 954.571 500.915 950.421 504.135L930.318 519.732C929.432 520.419 928.597 521.171 927.821 521.98L899.239 551.77C896.033 555.111 891.603 557 886.972 557H20C10.6112 557 3 549.389 3 540V20Z" fill="#EDF4FF" stroke="#72A4EF" stroke-width="6"/>
<circle cx="911" cy="49" r="23.5" fill="#72A4EF" stroke="#418BF9" stroke-width="3"/>
<path fill-rule="evenodd" clip-rule="evenodd" d="M911 51.2302L904.23 58L902 55.7698L908.77 49L902 42.2302L904.23 40L911 46.7698L917.77 40L920 42.2302L913.23 49L920 55.7698L917.77 58L911 51.2302Z" fill="#EDF4FF"/>
<path d="M894.929 512.15C895.679 503.353 903.038 496.594 911.867 496.594L954.044 496.594C954.952 496.594 955.39 497.708 954.724 498.327L892.961 555.717C892.292 556.34 891.207 555.811 891.284 554.9L894.929 512.15Z" fill="#B3D1FF" stroke="#72A4EF" stroke-width="6"/>
</svg>
