<svg width="45" height="54" viewBox="0 0 45 54" fill="none" xmlns="http://www.w3.org/2000/svg">
<path d="M43.1468 31.2663C43.9428 30.8155 44.3315 29.8822 44.0908 28.9997L43 25L5.71274 2.98704C4.22422 2.10827 2.43421 3.52244 2.94467 5.17391L3.44646 6.79738C7.68175 20.4998 6.9932 35.2517 1.5 48.5L2.32322 51.5185C2.66644 52.7769 4.10314 53.3753 5.23824 52.7326L43.1468 31.2663Z" fill="#4A7CCA"/>
<path d="M42 27.7322C43.3333 26.9624 43.3333 25.0379 42 24.2681L4.18294 2.43445C2.78847 1.62936 1.1566 3.02439 1.735 4.52711C7.05477 18.3483 7.05477 33.6521 1.735 47.4733C1.1566 48.976 2.78847 50.371 4.18294 49.5659L42 27.7322Z" fill="#7CA8EC"/>
<line x1="1.5" y1="-1.5" x2="15.5" y2="-1.5" transform="matrix(-0.882353 -0.470588 -0.470588 0.882353 34 27)" stroke="#E8F4FF" stroke-width="3" stroke-linecap="round"/>
</svg>
