<svg width="46" height="57" viewBox="0 0 46 57" fill="none" xmlns="http://www.w3.org/2000/svg">
<path d="M22.8566 2.00138C23.4604 -0.0494483 26.428 0.149873 26.7521 2.26302L29.6798 21.3523C29.7878 22.0567 30.2624 22.6503 30.9257 22.9108L44.5251 28.2499C46.3811 28.9786 46.1446 31.6773 44.1901 32.072L29.9231 34.9532C29.196 35.1001 28.6099 35.6372 28.4004 36.3488L23.0368 54.5674C22.433 56.6182 19.4654 56.4189 19.1413 54.3057L16.2136 35.2165C16.1056 34.5121 15.631 33.9184 14.9676 33.658L1.36832 28.3188C-0.487733 27.5901 -0.251199 24.8915 1.70331 24.4968L15.9703 21.6155C16.6974 21.4687 17.2835 20.9315 17.493 20.22L22.8566 2.00138Z" fill="#D2E5FF"/>
</svg>
