<svg width="41" height="45" viewBox="0 0 41 45" fill="none" xmlns="http://www.w3.org/2000/svg">
<path d="M22.6157 5.00833C23.5241 3.07307 26.4269 3.72105 26.4261 5.8589L26.4217 17.817C26.4215 18.5296 26.8004 19.1885 27.4164 19.5467L35.1775 24.0594C36.9013 25.0617 36.2574 27.6931 34.2656 27.7862L25.3525 28.2029C24.6115 28.2375 23.9506 28.6794 23.6354 29.3509L18.6623 39.9455C17.7539 41.8807 14.8511 41.2327 14.8519 39.0949L14.8563 27.1368C14.8566 26.4242 14.4776 25.7653 13.8616 25.4071L6.10047 20.8944C4.37672 19.8921 5.0206 17.2607 7.01239 17.1676L15.9255 16.7509C16.6665 16.7163 17.3274 16.2744 17.6426 15.6029L22.6157 5.00833Z" fill="white"/>
</svg>
