<svg width="35" height="36" viewBox="0 0 35 36" fill="none" xmlns="http://www.w3.org/2000/svg">
<path d="M17.0403 1.72376C17.8052 -0.0662334 20.4169 0.180541 20.8331 2.08214L22.8561 11.3259C22.9989 11.978 23.4576 12.516 24.079 12.76L33.6409 16.514C35.4969 17.2427 35.2604 19.9414 33.3059 20.3361L23.296 22.3576C22.6093 22.4963 22.0452 22.9842 21.809 23.6438L18.0662 34.0967C17.3775 36.02 14.5883 35.7951 14.2166 33.7864L12.1801 22.778C12.0544 22.0989 11.5872 21.5326 10.9443 21.2802L1.42171 17.5415C-0.434333 16.8128 -0.197803 14.1142 1.75671 13.7195L11.8429 11.6826C12.4878 11.5523 13.0275 11.1132 13.2861 10.5081L17.0403 1.72376Z" fill="#E9F2FF"/>
</svg>
