<svg width="46" height="47" viewBox="0 0 46 47" fill="none" xmlns="http://www.w3.org/2000/svg">
<path d="M22.1673 3.07824C22.8571 1.25795 25.4768 1.3958 25.9718 3.27842L29.1913 15.5236C29.361 16.1692 29.8417 16.6876 30.4728 16.9055L43.4482 21.3858C45.333 22.0366 45.209 24.7428 43.2727 25.2185L30.0006 28.4792C29.3202 28.6464 28.7769 29.1574 28.5684 29.8262L24.1493 44.0015C23.5413 45.9518 20.7451 45.8432 20.2902 43.8516L16.9599 29.2726C16.8061 28.5993 16.3158 28.053 15.6629 27.8275L2.72733 23.361C0.842553 22.7102 0.96653 20.004 2.90291 19.5283L16.2506 16.249C16.8896 16.092 17.4104 15.6308 17.6436 15.0155L22.1673 3.07824Z" fill="#DEECFF"/>
</svg>
