<svg width="193" height="59" viewBox="0 0 193 59" fill="none" xmlns="http://www.w3.org/2000/svg">
<path d="M0 29.5C0 13.2076 13.2076 0 29.5 0H163.5C179.792 0 193 13.2076 193 29.5C193 45.7924 179.792 59 163.5 59H29.5C13.2076 59 0 45.7924 0 29.5Z" fill="#4BC2CB"/>
<path fill-rule="evenodd" clip-rule="evenodd" d="M30 7C18.402 7 9 16.402 9 28H6C6 14.7452 16.7452 4 30 4H36C36.8284 4 37.5 4.67157 37.5 5.5C37.5 6.32843 36.8284 7 36 7H30Z" fill="#87D9DB"/>
<path d="M41.01 29.992H32.364V23.326H39.734V20.73H22.222V23.326H29.636V29.992H21.078V32.632H29.636V39.914H32.364V32.632H41.01V29.992ZM23.564 24.734C24.268 26.208 24.95 28.122 25.17 29.31L27.722 28.518C27.48 27.286 26.688 25.438 25.962 24.03L23.564 24.734ZM36.412 29.266C37.16 28.144 38.04 26.362 38.832 24.668L36.038 23.964C35.62 25.394 34.828 27.33 34.124 28.606L36.412 29.266Z" fill="white"/>
<path d="M47.874 23.04V26.912H45.85V23.04H47.874ZM45.85 33.336V29.2H47.874V33.336H45.85ZM50.316 20.708H43.43V37.604H45.85V35.668H50.316V20.708ZM51.614 33.82C52.604 34.942 53.726 36.504 54.122 37.516L56.366 36.218C55.904 35.14 54.716 33.688 53.704 32.61L51.614 33.82ZM63.252 28.188V25.9H58.236V23.964H62.636V21.676H58.236V19.366H55.662V21.676H51.438V23.964H55.662V25.9H50.69V28.188H58.456V30.08H50.734V32.346H58.456V37.076C58.456 37.384 58.346 37.472 57.994 37.472C57.664 37.472 56.432 37.472 55.376 37.428C55.728 38.132 56.124 39.166 56.212 39.892C57.84 39.892 59.028 39.826 59.886 39.452C60.744 39.056 60.986 38.396 60.986 37.142V32.346H63.098V30.08H60.986V28.188H63.252Z" fill="white"/>
<path d="M76.782 31.466H72.91V27.66H76.782V31.466ZM70.446 25.372V33.732H79.422V25.372H70.446ZM68.334 36.284V22.776H81.556V36.284H68.334ZM65.606 20.092V39.892H68.334V38.726H81.556V39.892H84.416V20.092H65.606Z" fill="white"/>
<path d="M98.496 23.216V22.248H100.124V23.216H98.496ZM104.216 22.248V23.216H102.456V22.248H104.216ZM100.124 25.504H95.416V27.242H107.252V25.504H102.456V24.712H106.482V20.752H102.456V19.366H100.124V20.752H96.34V24.712H100.124V25.504ZM98.76 33.952H103.886V34.81H98.76V33.952ZM98.76 31.708H103.886V32.544H98.76V31.708ZM98.76 29.464H103.886V30.278H98.76V29.464ZM92.82 27.506V28.342H90.07V27.506H92.82ZM90.07 30.74V29.882H92.82V30.74H90.07ZM90.378 23.238C90.84 22.578 91.258 21.94 91.588 21.346C92.138 21.896 92.71 22.578 93.216 23.238H90.378ZM106.328 36.306V27.99H96.428V36.306H98.364C97.594 36.966 96.362 37.582 95.108 38.044V36.086H90.07V35.162H94.888V33.27H90.07V32.412H94.932V25.856H88.09C88.684 25.306 89.212 24.712 89.674 24.14V24.998H93.7V23.898C93.986 24.316 94.25 24.712 94.448 25.042L96.01 23.304C95.306 22.138 93.744 20.532 92.49 19.388H90.048C89.366 20.972 88.134 22.952 86.352 24.448C86.858 24.734 87.562 25.416 87.936 25.9V39.848H90.07V38.044H95.108C94.888 38.132 94.668 38.198 94.448 38.264C94.976 38.704 95.834 39.628 96.164 40.068C97.814 39.386 99.684 38.198 100.806 36.944L98.892 36.306H103.182L101.928 37.274C103.226 38.11 104.744 39.276 105.58 40.068L107.626 38.858C106.746 38.132 105.25 37.12 103.908 36.306H106.328Z" fill="white"/>
<path d="M121.948 23.964L123.444 23.612C123.378 23.106 123.158 22.358 122.916 21.764C123.796 21.676 124.676 21.588 125.512 21.456L124.918 21.764C125.534 22.402 126.15 23.216 126.634 23.964H121.948ZM120.936 22.072C121.134 22.666 121.332 23.436 121.376 23.964H118.296V25.57H121.332V26.384H116.58V27.99H128.746V26.384H123.752V25.57H126.678V24.03C126.942 24.426 127.14 24.8 127.294 25.13L129.098 24.074C128.702 23.26 127.866 22.116 126.964 21.214C127.36 21.148 127.712 21.082 128.064 20.994L126.436 19.454C124.654 19.872 121.75 20.202 119.066 20.4L117.46 20.026C117.02 21.566 116.272 23.128 115.348 24.14C115.854 24.426 116.822 25.02 117.262 25.372C117.944 24.536 118.626 23.326 119.154 22.05C120.056 22.006 121.002 21.94 121.97 21.852L120.936 22.072ZM117.108 39.716C117.878 38.726 118.34 37.164 118.692 35.866L116.778 35.162C116.47 36.416 115.876 37.868 115.172 38.792L117.108 39.716ZM129.472 38.66C128.988 37.582 127.998 36.064 126.942 34.964L125.072 35.844C125.49 36.328 125.908 36.878 126.282 37.45C125.666 37.318 124.852 37.01 124.456 36.746C124.39 37.78 124.302 37.956 123.796 37.956H121.948C121.332 37.956 121.222 37.89 121.222 37.384V35.294C121.926 35.822 122.652 36.438 123.07 36.9L124.456 35.536C124.126 35.206 123.664 34.81 123.136 34.436H127.514V32.28H129.098V30.564H127.514V28.606H117.438V30.102H125.248V30.762H116.316V30.916C115.766 30.212 114.446 28.628 113.94 28.122V27.946H115.964V25.57H113.94V22.402C114.776 22.182 115.59 21.918 116.294 21.632L114.644 19.74C113.214 20.422 110.838 20.994 108.726 21.324C108.99 21.852 109.32 22.688 109.408 23.238C110.09 23.15 110.794 23.04 111.498 22.93V25.57H108.902V27.946H111.19C110.552 30.08 109.496 32.456 108.418 33.886C108.814 34.546 109.386 35.624 109.606 36.394C110.288 35.404 110.926 34.062 111.498 32.588V39.914H113.94V30.894C114.402 31.686 114.864 32.544 115.106 33.116L116.316 31.4V32.148H125.248V32.94H117.372V34.436H120.892L120.474 34.81C120.672 34.92 120.848 35.052 121.046 35.184H118.956V37.406C118.956 39.254 119.44 39.848 121.618 39.848H124.082C125.534 39.848 126.15 39.364 126.392 37.626C126.876 38.374 127.25 39.1 127.47 39.694L129.472 38.66Z" fill="white"/>
<path d="M143.948 23.964L145.444 23.612C145.378 23.106 145.158 22.358 144.916 21.764C145.796 21.676 146.676 21.588 147.512 21.456L146.918 21.764C147.534 22.402 148.15 23.216 148.634 23.964H143.948ZM142.936 22.072C143.134 22.666 143.332 23.436 143.376 23.964H140.296V25.57H143.332V26.384H138.58V27.99H150.746V26.384H145.752V25.57H148.678V24.03C148.942 24.426 149.14 24.8 149.294 25.13L151.098 24.074C150.702 23.26 149.866 22.116 148.964 21.214C149.36 21.148 149.712 21.082 150.064 20.994L148.436 19.454C146.654 19.872 143.75 20.202 141.066 20.4L139.46 20.026C139.02 21.566 138.272 23.128 137.348 24.14C137.854 24.426 138.822 25.02 139.262 25.372C139.944 24.536 140.626 23.326 141.154 22.05C142.056 22.006 143.002 21.94 143.97 21.852L142.936 22.072ZM139.108 39.716C139.878 38.726 140.34 37.164 140.692 35.866L138.778 35.162C138.47 36.416 137.876 37.868 137.172 38.792L139.108 39.716ZM151.472 38.66C150.988 37.582 149.998 36.064 148.942 34.964L147.072 35.844C147.49 36.328 147.908 36.878 148.282 37.45C147.666 37.318 146.852 37.01 146.456 36.746C146.39 37.78 146.302 37.956 145.796 37.956H143.948C143.332 37.956 143.222 37.89 143.222 37.384V35.294C143.926 35.822 144.652 36.438 145.07 36.9L146.456 35.536C146.126 35.206 145.664 34.81 145.136 34.436H149.514V32.28H151.098V30.564H149.514V28.606H139.438V30.102H147.248V30.762H138.316V30.916C137.766 30.212 136.446 28.628 135.94 28.122V27.946H137.964V25.57H135.94V22.402C136.776 22.182 137.59 21.918 138.294 21.632L136.644 19.74C135.214 20.422 132.838 20.994 130.726 21.324C130.99 21.852 131.32 22.688 131.408 23.238C132.09 23.15 132.794 23.04 133.498 22.93V25.57H130.902V27.946H133.19C132.552 30.08 131.496 32.456 130.418 33.886C130.814 34.546 131.386 35.624 131.606 36.394C132.288 35.404 132.926 34.062 133.498 32.588V39.914H135.94V30.894C136.402 31.686 136.864 32.544 137.106 33.116L138.316 31.4V32.148H147.248V32.94H139.372V34.436H142.892L142.474 34.81C142.672 34.92 142.848 35.052 143.046 35.184H140.956V37.406C140.956 39.254 141.44 39.848 143.618 39.848H146.082C147.534 39.848 148.15 39.364 148.392 37.626C148.876 38.374 149.25 39.1 149.47 39.694L151.472 38.66Z" fill="white"/>
<path d="M159.656 23.172C160.91 22.556 162.032 21.874 162.868 21.214C163.748 21.896 164.914 22.578 166.168 23.172H159.656ZM158.05 24.712H168.082V24.008C169.38 24.514 170.722 24.954 171.888 25.24C172.262 24.58 172.812 23.7 173.318 23.106C169.996 22.512 166.498 21.28 163.968 19.388H161.592C159.7 20.994 156.136 22.534 152.638 23.304C153.078 23.81 153.628 24.756 153.892 25.35C155.278 24.976 156.708 24.47 158.05 23.898V24.712ZM158.732 26.934H167.092V27.924H158.732V26.934ZM156.29 29.464H169.688V25.416H156.29V29.464ZM164.298 34.304H171.536V32.522H164.298V31.598C166.586 31.466 168.742 31.246 170.524 30.938L168.83 29.53C165.728 30.058 159.92 30.278 155.08 30.256C155.278 30.63 155.454 31.378 155.498 31.818C157.478 31.84 159.612 31.818 161.724 31.73V32.522H154.618V34.304H161.724V35.074H153.012V36.856H161.724V37.538C161.724 37.846 161.592 37.934 161.24 37.956C160.932 37.956 159.634 37.956 158.556 37.912C158.886 38.462 159.26 39.298 159.414 39.914C161.086 39.936 162.274 39.914 163.154 39.606C164.034 39.298 164.298 38.792 164.298 37.604V36.856H173.01V35.074H164.298V34.304Z" fill="white"/>
<path fill-rule="evenodd" clip-rule="evenodd" d="M45.85 29.2V33.336H47.874V29.2H45.85ZM47.874 26.912V23.04H45.85V26.912H47.874ZM43.43 20.708H50.316V35.668H45.85V37.604H43.43V20.708ZM51.438 21.676V23.964H55.662V25.9H50.69V28.188H58.456V30.08H50.734V32.346H58.456V37.076C58.456 37.0993 58.4554 37.1212 58.4541 37.142C58.438 37.3968 58.3195 37.472 57.994 37.472C57.8443 37.472 57.5091 37.472 57.089 37.4679C56.8223 37.4653 56.5214 37.4611 56.212 37.4541C55.934 37.4478 55.6491 37.4394 55.376 37.428C55.728 38.132 56.124 39.166 56.212 39.892C56.8769 39.892 57.4684 39.881 57.994 39.8425C58.0308 39.8398 58.0673 39.837 58.1034 39.834C58.8153 39.7755 59.403 39.6626 59.886 39.452C59.8912 39.4496 59.8964 39.4472 59.9015 39.4448C59.9982 39.3994 60.0869 39.3506 60.1683 39.2979C60.7985 38.8895 60.986 38.2459 60.986 37.142V32.346H63.098V30.08H60.986V28.188H63.252V25.9H58.236V23.964H62.636V21.676H58.236V19.366H55.662V21.676H51.438ZM52.2831 17.2243C51.7022 16.8956 51.031 16.708 50.316 16.708H43.43C42.7548 16.708 42.1188 16.8753 41.5609 17.1707C41.0133 16.889 40.3922 16.73 39.734 16.73H22.222C20.0129 16.73 18.222 18.5209 18.222 20.73V23.326C18.222 24.505 18.7321 25.5648 19.5436 26.2969C18.0959 26.8988 17.078 28.3265 17.078 29.992V32.632C17.078 34.8412 18.8689 36.632 21.078 36.632H25.636V39.914C25.636 42.1232 27.4269 43.914 29.636 43.914H32.364C34.5731 43.914 36.364 42.1232 36.364 39.914V36.632H39.43V37.604C39.43 39.8132 41.2209 41.604 43.43 41.604H45.85C47.304 41.604 48.5768 40.8282 49.2771 39.668H50.316C50.458 39.668 50.5982 39.6606 50.7364 39.6462C51.1399 40.2876 51.7192 40.8036 52.4079 41.1302C52.9337 42.7493 54.4524 43.892 56.212 43.892C57.7008 43.892 59.7386 43.8798 61.4843 43.1188C61.5104 43.1074 61.5364 43.0958 61.5622 43.0839C61.9114 42.9227 62.2509 42.7286 62.5717 42.4985C63.3053 43.3517 64.3925 43.892 65.606 43.892H68.334C69.4357 43.892 70.4334 43.4466 71.1568 42.726H78.7332C79.4566 43.4466 80.4543 43.892 81.556 43.892H84.416C85.0654 43.892 85.6786 43.7373 86.2208 43.4627C86.7406 43.7098 87.3222 43.848 87.936 43.848H90.07C91.2397 43.848 92.2922 43.3459 93.0236 42.5455C94.1289 43.9473 96.0349 44.4496 97.692 43.7647C98.8542 43.2843 100.145 42.592 101.343 41.7472C101.952 42.2077 102.494 42.6547 102.829 42.9718C104.125 44.2 106.079 44.4201 107.616 43.511L108.763 42.8328C109.478 43.5034 110.44 43.914 111.498 43.914H113.94C114.593 43.914 115.209 43.7575 115.754 43.48C116.712 43.8254 117.746 43.7848 118.652 43.4063C119.792 43.8202 120.912 43.848 121.618 43.848H124.082C124.659 43.848 125.469 43.8039 126.331 43.5284C127.317 43.8215 128.384 43.7241 129.306 43.248L130.542 42.6092C131.274 43.411 132.327 43.914 133.498 43.914H135.94C136.593 43.914 137.209 43.7575 137.754 43.48C138.712 43.8254 139.746 43.7848 140.652 43.4063C141.792 43.8202 142.912 43.848 143.618 43.848H146.082C146.659 43.848 147.469 43.8039 148.331 43.5284C149.317 43.8215 150.384 43.7241 151.306 43.248L153.308 42.214C153.94 41.8873 154.45 41.414 154.816 40.856H155.525C155.531 40.8754 155.534 40.8847 155.533 40.8842C155.974 42.6458 157.546 43.8898 159.361 43.9137L159.426 43.9145C160.906 43.9341 162.824 43.9595 164.475 43.3815C165.465 43.035 166.729 42.3446 167.544 40.8932C167.551 40.8808 167.558 40.8684 167.565 40.856H173.01C175.219 40.856 177.01 39.0652 177.01 36.856V35.074C177.01 33.8034 176.417 32.6711 175.494 31.9384C175.362 31.0393 174.932 30.2374 174.306 29.6367C174.196 29.3156 174.045 29.0083 173.855 28.7231C174.472 28.3748 175.001 27.8607 175.368 27.2121C175.706 26.615 176.108 25.9997 176.363 25.6999C177.292 24.6093 177.567 23.1051 177.083 21.7565C176.6 20.4078 175.432 19.4207 174.022 19.1685C171.068 18.6403 168.227 17.5786 166.364 16.1847C165.672 15.6675 164.832 15.388 163.968 15.388H161.592C160.644 15.388 159.726 15.7249 159.003 16.3385C158.02 17.1732 155.94 18.2155 153.502 18.9486C153.315 18.6356 153.085 18.3455 152.813 18.0882L151.185 16.5482C150.208 15.624 148.832 15.2526 147.523 15.5597C146.176 15.8757 143.819 16.1675 141.373 16.3645L140.367 16.1303C139.706 15.9764 139.044 15.996 138.43 16.1604C137.352 15.6232 136.059 15.5874 134.922 16.1296C134.029 16.5555 132.119 17.0578 130.108 17.372C130.093 17.3743 130.078 17.3768 130.063 17.3793L129.185 16.5482C128.208 15.624 126.832 15.2526 125.523 15.5597C124.176 15.8757 121.819 16.1675 119.373 16.3645L118.367 16.1303C117.706 15.9764 117.044 15.996 116.43 16.1604C115.352 15.6232 114.059 15.5874 112.922 16.1296C112.089 16.5267 110.372 16.9904 108.514 17.3059C107.918 16.954 107.224 16.752 106.482 16.752H105.484C104.75 15.9032 103.666 15.366 102.456 15.366H100.124C98.9141 15.366 97.8297 15.9032 97.0962 16.752H96.34C96.0884 16.752 95.8422 16.7753 95.6034 16.8197C95.458 16.683 95.3182 16.5537 95.1858 16.433C94.449 15.7607 93.4875 15.388 92.49 15.388H90.048C88.7908 15.388 87.6285 15.9767 86.8823 16.9426C86.2028 16.4098 85.3465 16.092 84.416 16.092H65.606C64.3045 16.092 63.1483 16.7136 62.4178 17.676H61.8625C61.2256 16.3116 59.8412 15.366 58.236 15.366H55.662C54.2407 15.366 52.9926 16.1073 52.2831 17.2243ZM65.606 39.892H68.334V38.726H81.556V39.892H84.416V20.092H65.606V39.892ZM81.556 22.776H68.334V36.284H81.556V22.776ZM79.422 25.372H70.446V33.732H79.422V25.372ZM72.91 27.66V31.466H76.782V27.66H72.91ZM87.936 39.848H90.07V38.044H95.108C95.0347 38.0734 94.9613 38.1003 94.888 38.1255C94.7413 38.176 94.5947 38.22 94.448 38.264C94.5788 38.373 94.7298 38.5117 94.888 38.6653C94.9602 38.7355 95.034 38.8088 95.108 38.8838C95.1894 38.9662 95.271 39.0507 95.3514 39.1355C95.4416 39.2307 95.5301 39.3261 95.6147 39.4192C95.6411 39.4484 95.6671 39.4773 95.6927 39.5058C95.887 39.7229 96.0546 39.9221 96.164 40.068C96.2514 40.0319 96.3395 39.9943 96.428 39.9554C96.5724 39.892 96.718 39.8249 96.8642 39.7545C97.2193 39.5837 97.578 39.3932 97.9316 39.1873C98.056 39.1148 98.1799 39.0404 98.3027 38.9643C98.3231 38.9516 98.3436 38.9388 98.364 38.926C98.4277 38.8861 98.4912 38.8457 98.5543 38.8048C98.6233 38.7601 98.6919 38.7149 98.76 38.6692C98.8042 38.6395 98.8482 38.6096 98.892 38.5796C98.9581 38.5341 99.0237 38.4883 99.0887 38.442C99.3115 38.2832 99.5275 38.1195 99.7338 37.952C99.7418 37.9455 99.7499 37.9389 99.758 37.9323C99.8855 37.8283 100.009 37.7228 100.129 37.6162C100.375 37.396 100.603 37.1711 100.806 36.944L98.892 36.306H103.182L101.928 37.274C102.017 37.3312 102.106 37.3899 102.197 37.4499C102.433 37.6064 102.674 37.772 102.915 37.9425C102.92 37.9457 102.924 37.9489 102.929 37.952C103.013 38.0118 103.098 38.0723 103.182 38.1331C103.42 38.3053 103.657 38.4809 103.886 38.656C103.893 38.6616 103.901 38.6672 103.908 38.6728C103.966 38.7171 104.023 38.7613 104.08 38.8054C104.143 38.854 104.205 38.9025 104.266 38.9508C104.627 39.235 104.961 39.512 105.247 39.7647C105.367 39.8705 105.479 39.972 105.58 40.068L107.626 38.858C107.585 38.8239 107.542 38.7892 107.498 38.7539C107.378 38.6574 107.248 38.5566 107.111 38.4525C106.987 38.3593 106.858 38.2636 106.723 38.1659C106.616 38.0878 106.505 38.0085 106.391 37.9283C106.37 37.9134 106.349 37.8985 106.328 37.8836C106.145 37.7548 105.955 37.624 105.76 37.4928C105.761 37.4929 105.76 37.4926 105.76 37.4928C105.45 37.2829 105.128 37.0713 104.805 36.8652C104.625 36.7502 104.445 36.6369 104.267 36.5261C104.176 36.4695 104.085 36.4136 103.994 36.3586C103.966 36.341 103.937 36.3235 103.908 36.306H106.328V27.99H96.428V36.306H98.364C98.3307 36.3345 98.2966 36.363 98.2616 36.3913C98.219 36.4259 98.1751 36.4604 98.13 36.4947C98.0828 36.5306 98.0344 36.5663 97.9848 36.6018C97.5437 36.9177 97.0075 37.219 96.428 37.4928C96.2833 37.5612 96.1359 37.6278 95.9867 37.6925C95.7605 37.7906 95.53 37.8842 95.298 37.9728C95.286 37.9774 95.274 37.9819 95.262 37.9865C95.2107 38.0059 95.1594 38.0251 95.108 38.044V36.086H90.07V35.162H94.888V33.27H90.07V32.412H94.932V25.856H88.09C88.201 25.7533 88.3096 25.649 88.416 25.5436C88.4376 25.5222 88.4591 25.5008 88.4805 25.4793C88.6385 25.3207 88.7914 25.1598 88.939 24.998C89.0371 24.8906 89.1329 24.7828 89.2264 24.6751C89.3819 24.4959 89.5311 24.3169 89.674 24.14V24.998H93.7V23.898C93.8342 24.0941 93.9635 24.2854 94.0834 24.4672C94.1269 24.5331 94.1691 24.5977 94.2098 24.6609C94.216 24.6705 94.2222 24.6801 94.2283 24.6896C94.2331 24.6971 94.2379 24.7046 94.2427 24.712C94.3064 24.8115 94.3663 24.9071 94.4214 24.998C94.4304 25.0128 94.4393 25.0275 94.448 25.042L96.01 23.304C95.9976 23.2835 95.9849 23.2628 95.972 23.242C95.9667 23.2334 95.9612 23.2247 95.9558 23.216C95.8392 23.0305 95.7024 22.8348 95.5498 22.6324C95.5065 22.5748 95.4618 22.5167 95.416 22.4582C95.3617 22.3887 95.3057 22.3186 95.2482 22.248C95.1553 22.1339 95.0586 22.0183 94.9587 21.902C94.9498 21.8917 94.9409 21.8813 94.932 21.871C94.9277 21.866 94.9234 21.861 94.9191 21.856C94.838 21.7622 94.7549 21.6679 94.6703 21.5734C94.6379 21.5373 94.6054 21.5012 94.5726 21.4651C94.356 21.2263 94.13 20.9871 93.9008 20.752C93.6738 20.5192 93.4436 20.2904 93.216 20.0703C93.1726 20.0283 93.1292 19.9866 93.0861 19.9452C93.0695 19.9293 93.0529 19.9135 93.0363 19.8977C92.8736 19.7426 92.7131 19.5925 92.5569 19.4493C92.5345 19.4287 92.5122 19.4083 92.49 19.388H90.048C89.9436 19.6304 89.8264 19.8821 89.6963 20.1399C89.676 20.18 89.6554 20.2203 89.6345 20.2608C89.4435 20.6305 89.2263 21.0117 88.983 21.3952C88.8857 21.5486 88.7841 21.7024 88.6784 21.856C88.6488 21.8991 88.6188 21.9423 88.5884 21.9853C88.5321 22.0653 88.4746 22.1452 88.416 22.2249C88.311 22.3677 88.2023 22.5099 88.09 22.6511C88.0562 22.6935 88.0221 22.7358 87.9877 22.778C87.6013 23.2519 87.1734 23.712 86.7039 24.14C86.6673 24.1734 86.6304 24.2066 86.5933 24.2396C86.5697 24.2606 86.5459 24.2815 86.5221 24.3023C86.466 24.3514 86.4093 24.4 86.352 24.448C86.4387 24.497 86.5311 24.5576 86.6268 24.6268C86.7504 24.7164 86.8794 24.8203 87.0079 24.9323C87.0327 24.9539 87.0575 24.9759 87.0822 24.998C87.4087 25.2906 87.7249 25.6268 87.936 25.9V39.848ZM90.07 29.882V30.74H92.82V29.882H90.07ZM92.82 27.506V28.342H90.07V27.506H92.82ZM96.34 24.712H100.124V25.504H95.416V27.242H107.252V25.504H102.456V24.712H106.482V20.752H102.456V19.366H100.124V20.752H96.34V24.712ZM104.216 23.216V22.248H102.456V23.216H104.216ZM100.124 23.216V22.248H98.496V23.216H100.124ZM108.902 25.57H111.498V22.93C111.159 22.9831 110.819 23.0361 110.482 23.0867C110.469 23.0886 110.456 23.0905 110.444 23.0925C110.275 23.1177 110.107 23.1423 109.94 23.1659C109.761 23.1911 109.584 23.2153 109.408 23.238C109.393 23.1429 109.37 23.0392 109.342 22.93C109.259 22.6077 109.127 22.2375 108.987 21.8987C108.959 21.8312 108.93 21.7649 108.902 21.7006C108.883 21.6562 108.863 21.6128 108.844 21.5704C108.804 21.4831 108.764 21.4003 108.726 21.324C108.867 21.302 109.009 21.2789 109.152 21.2548C109.488 21.198 109.828 21.1356 110.169 21.0679C110.273 21.0471 110.378 21.0258 110.482 21.004C110.714 20.9557 110.945 20.905 111.173 20.8522C111.706 20.7291 112.226 20.5941 112.716 20.4493C112.841 20.4123 112.964 20.3747 113.084 20.3365C113.182 20.3056 113.278 20.2744 113.372 20.2427C113.653 20.1484 113.919 20.0506 114.166 19.95C114.335 19.8813 114.495 19.8113 114.644 19.74L116.294 21.632C116.186 21.6757 116.076 21.7189 115.964 21.7615C115.865 21.7991 115.764 21.8362 115.661 21.8729C115.569 21.9058 115.476 21.9383 115.381 21.9703C115.164 22.0442 114.94 22.1156 114.713 22.1841C114.675 22.1954 114.637 22.2067 114.6 22.2179C114.382 22.2821 114.162 22.3436 113.94 22.402V25.57H115.964V27.946H113.94V28.122C113.951 28.1331 113.963 28.1447 113.974 28.1568C114.054 28.2384 114.151 28.3426 114.26 28.4632C114.301 28.5086 114.344 28.5563 114.388 28.606C114.497 28.7292 114.616 28.8645 114.738 29.0068C114.813 29.0938 114.89 29.1833 114.967 29.2743C115.05 29.3717 115.133 29.4706 115.217 29.5697C115.217 29.5698 115.217 29.5697 115.217 29.5697C115.326 29.7004 115.436 29.8316 115.542 29.9596C115.582 30.0076 115.621 30.0551 115.659 30.102C115.766 30.232 115.869 30.3575 115.964 30.4748C116.047 30.5776 116.125 30.6742 116.195 30.762C116.232 30.8086 116.266 30.8527 116.299 30.894C116.305 30.9015 116.31 30.9088 116.316 30.916V30.762H125.248V30.102H117.438V28.606H127.514V30.564H129.098V32.28H127.514V34.436H123.136C123.288 34.5436 123.434 34.6529 123.574 34.762C123.578 34.7658 123.583 34.7696 123.588 34.7734C123.659 34.8293 123.729 34.8852 123.796 34.9408C123.942 35.0612 124.078 35.18 124.203 35.294C124.294 35.3775 124.379 35.4586 124.456 35.536C124.456 35.536 124.456 35.5359 124.456 35.536L123.07 36.9C123.034 36.8605 122.996 36.8197 122.956 36.7781C122.913 36.7336 122.868 36.6881 122.821 36.6417C122.816 36.6362 122.81 36.6308 122.804 36.6254C122.774 36.5954 122.742 36.565 122.71 36.5343C122.689 36.5142 122.668 36.494 122.646 36.4737C122.624 36.4535 122.602 36.4332 122.58 36.4128C122.486 36.3262 122.387 36.2376 122.284 36.148C122.21 36.0846 122.135 36.0207 122.059 35.9566C122.022 35.9259 121.985 35.8952 121.948 35.8645C121.941 35.859 121.935 35.8535 121.928 35.848C121.699 35.6595 121.459 35.4718 121.222 35.294V37.384C121.222 37.3915 121.222 37.3988 121.222 37.406C121.225 37.7864 121.296 37.9083 121.618 37.9433C121.635 37.9451 121.652 37.9467 121.67 37.948C121.737 37.9532 121.815 37.9554 121.903 37.9559C121.918 37.956 121.933 37.956 121.948 37.956H123.796C123.847 37.956 123.893 37.9543 123.936 37.9501C123.988 37.9449 124.034 37.9361 124.076 37.9224C124.078 37.9217 124.08 37.921 124.082 37.9204C124.119 37.9075 124.152 37.8906 124.182 37.8686C124.286 37.7919 124.347 37.6539 124.389 37.4149C124.391 37.4048 124.392 37.3945 124.394 37.384C124.395 37.3793 124.396 37.3745 124.396 37.3697C124.398 37.3627 124.399 37.3557 124.4 37.3486C124.417 37.2342 124.43 37.0992 124.443 36.94C124.447 36.879 124.452 36.8144 124.456 36.746C124.518 36.7876 124.591 36.8303 124.672 36.8733C124.714 36.8955 124.758 36.9178 124.804 36.94C124.821 36.9486 124.839 36.9571 124.857 36.9656C124.965 37.0164 125.082 37.0667 125.203 37.115C125.209 37.1175 125.216 37.12 125.222 37.1225C125.397 37.1914 125.581 37.2561 125.763 37.3124C125.942 37.3679 126.119 37.4151 126.282 37.45C126.243 37.3897 126.203 37.3295 126.162 37.2697C126.075 37.1409 125.986 37.0134 125.896 36.8879C125.883 36.8704 125.87 36.8529 125.858 36.8355C125.738 36.6715 125.617 36.5108 125.493 36.3547C125.412 36.2516 125.33 36.1505 125.248 36.0517C125.239 36.0413 125.231 36.0309 125.222 36.0206C125.172 35.9608 125.122 35.902 125.072 35.844L126.942 34.964C127.047 35.0733 127.151 35.1867 127.254 35.3034C127.342 35.4023 127.428 35.5035 127.514 35.6066C127.518 35.6114 127.522 35.6163 127.526 35.6212C127.628 35.7443 127.729 35.8701 127.827 35.9976C127.899 36.0909 127.97 36.1852 128.04 36.28C128.044 36.2846 128.047 36.2892 128.05 36.2937C128.094 36.3524 128.136 36.4112 128.178 36.4702C128.219 36.5276 128.26 36.5851 128.3 36.6427C128.436 36.8381 128.565 37.0341 128.688 37.2278C128.797 37.4018 128.901 37.5739 128.998 37.7421C129.05 37.8325 129.1 37.9219 129.148 38.0097C129.159 38.0309 129.17 38.0519 129.182 38.0729C129.292 38.2786 129.389 38.4757 129.472 38.66L127.47 39.694C127.456 39.6561 127.441 39.6176 127.426 39.5786C127.382 39.4655 127.332 39.348 127.277 39.2269C127.194 39.0422 127.1 38.849 126.994 38.65C126.957 38.5794 126.919 38.508 126.879 38.436C126.747 38.1978 126.601 37.9527 126.443 37.7047C126.426 37.6785 126.409 37.6523 126.392 37.626C126.354 37.896 126.308 38.1358 126.25 38.3481C126.242 38.378 126.234 38.4073 126.226 38.436C126.146 38.7051 126.048 38.9277 125.926 39.1101C125.831 39.2529 125.722 39.3711 125.597 39.468C125.546 39.5075 125.493 39.5434 125.437 39.5759C125.096 39.773 124.654 39.848 124.082 39.848H121.618C121.607 39.848 121.597 39.848 121.586 39.848C121.026 39.8465 120.579 39.8049 120.225 39.7117C119.915 39.6303 119.676 39.5096 119.493 39.3419C119.44 39.2933 119.392 39.2407 119.348 39.184C119.245 39.0507 119.166 38.8945 119.107 38.713C119.079 38.6265 119.056 38.5343 119.036 38.436C119.024 38.3763 119.014 38.3144 119.005 38.2502C119.005 38.2489 119.005 38.2477 119.004 38.2465C118.975 38.0363 118.961 37.8017 118.957 37.5408C118.956 37.4966 118.956 37.4517 118.956 37.406V35.184H121.046C120.993 35.149 120.942 35.1139 120.892 35.0792C120.887 35.0761 120.883 35.073 120.878 35.0698C120.865 35.0604 120.851 35.0509 120.837 35.0416C120.718 34.9592 120.6 34.8802 120.474 34.81L120.892 34.436H117.372V32.94H125.248V32.148H116.316V31.4L115.106 33.116C115.082 33.06 115.056 33.0012 115.029 32.94C114.979 32.8299 114.923 32.7119 114.862 32.588C114.801 32.4653 114.736 32.3368 114.667 32.2044C114.657 32.1857 114.647 32.1669 114.637 32.148C114.602 32.0815 114.567 32.0141 114.53 31.946C114.518 31.9236 114.506 31.901 114.494 31.8784C114.409 31.7211 114.32 31.5607 114.23 31.4C114.228 31.3972 114.227 31.3944 114.225 31.3916C114.169 31.2918 114.112 31.1918 114.055 31.0925C114.021 31.0334 113.987 30.9745 113.953 30.916C113.949 30.9087 113.944 30.9014 113.94 30.894V39.914H111.498V32.588C111.335 33.0089 111.166 33.4189 110.992 33.8131C110.778 34.3 110.556 34.7627 110.328 35.1915C110.311 35.2236 110.294 35.2555 110.277 35.2872C110.204 35.4213 110.131 35.552 110.057 35.679C110.018 35.7457 109.979 35.8114 109.94 35.876C109.849 36.0254 109.758 36.1689 109.666 36.306C109.646 36.3357 109.626 36.365 109.606 36.394C109.598 36.3651 109.589 36.3358 109.58 36.306C109.442 35.8621 109.2 35.3299 108.947 34.8374C108.765 34.4842 108.577 34.1513 108.418 33.886C108.701 33.5112 108.982 33.0714 109.254 32.588C109.37 32.3814 109.485 32.1669 109.598 31.946C109.611 31.9196 109.625 31.893 109.638 31.8664C109.741 31.6632 109.842 31.4549 109.94 31.2428C109.993 31.1276 110.046 31.0113 110.098 30.894C110.177 30.7176 110.253 30.5392 110.328 30.3593C110.368 30.2631 110.407 30.1666 110.446 30.0697C110.513 29.9038 110.578 29.7371 110.641 29.57C110.714 29.376 110.784 29.1816 110.852 28.9875C110.895 28.8653 110.936 28.7433 110.977 28.6216C111.007 28.5312 111.036 28.4409 111.065 28.351C111.089 28.2744 111.113 28.1981 111.137 28.122C111.148 28.0834 111.16 28.0449 111.172 28.0064C111.178 27.9863 111.184 27.9661 111.19 27.946H108.902V25.57ZM133.498 39.914H135.94V30.894C135.944 30.9014 135.949 30.9087 135.953 30.916C135.987 30.9745 136.021 31.0334 136.055 31.0925C136.112 31.1918 136.169 31.2918 136.225 31.3916C136.227 31.3944 136.228 31.3972 136.23 31.4C136.32 31.5607 136.409 31.7211 136.494 31.8784C136.506 31.901 136.518 31.9236 136.53 31.946C136.567 32.0141 136.602 32.0815 136.637 32.148C136.647 32.1669 136.657 32.1857 136.667 32.2044C136.736 32.3368 136.801 32.4653 136.862 32.588C136.923 32.7119 136.979 32.8299 137.029 32.94C137.056 33.0012 137.082 33.06 137.106 33.116L138.316 31.4V32.148H147.248V32.94H139.372V34.436H142.892L142.474 34.81C142.6 34.8802 142.718 34.9592 142.837 35.0416C142.851 35.0509 142.865 35.0604 142.878 35.0698C142.883 35.073 142.887 35.0761 142.892 35.0792C142.942 35.1139 142.993 35.149 143.046 35.184H140.956V37.406C140.956 37.4517 140.956 37.4966 140.957 37.5408C140.961 37.8017 140.975 38.0363 141.004 38.2465C141.005 38.2477 141.005 38.2489 141.005 38.2502C141.014 38.3144 141.024 38.3763 141.036 38.436C141.056 38.5343 141.079 38.6265 141.107 38.713C141.166 38.8945 141.245 39.0507 141.348 39.184C141.392 39.2407 141.44 39.2933 141.493 39.3419C141.676 39.5096 141.915 39.6303 142.225 39.7117C142.579 39.8049 143.026 39.8465 143.586 39.848C143.597 39.848 143.607 39.848 143.618 39.848H146.082C146.654 39.848 147.096 39.773 147.437 39.5759C147.493 39.5434 147.546 39.5075 147.597 39.468C147.722 39.3711 147.831 39.2529 147.926 39.1101C148.048 38.9276 148.146 38.7051 148.226 38.436C148.234 38.4073 148.242 38.378 148.25 38.3481C148.308 38.1358 148.354 37.896 148.392 37.626C148.409 37.6523 148.426 37.6785 148.443 37.7047C148.601 37.9527 148.747 38.1978 148.879 38.436C148.919 38.508 148.957 38.5794 148.994 38.65C149.1 38.849 149.194 39.0422 149.277 39.2269C149.332 39.348 149.382 39.4655 149.426 39.5786C149.441 39.6176 149.456 39.6561 149.47 39.694L151.472 38.66C151.389 38.4757 151.292 38.2786 151.182 38.0729C151.17 38.0519 151.159 38.0309 151.148 38.0097C151.1 37.9218 151.05 37.8325 150.998 37.742C150.833 37.4546 150.647 37.1558 150.446 36.856C150.398 36.7849 150.349 36.7138 150.3 36.6427C150.26 36.5851 150.219 36.5276 150.178 36.4702C150.136 36.4112 150.094 36.3524 150.05 36.2937C150.047 36.2892 150.044 36.2846 150.04 36.28C149.97 36.1852 149.899 36.0909 149.827 35.9976C149.725 35.8651 149.62 35.7344 149.514 35.6066C149.428 35.5035 149.342 35.4023 149.254 35.3034C149.185 35.2254 149.116 35.1489 149.046 35.074C149.035 35.0619 149.023 35.0498 149.012 35.0378C148.989 35.013 148.965 34.9884 148.942 34.964L147.072 35.844C147.122 35.902 147.172 35.9608 147.222 36.0206C147.231 36.0309 147.239 36.0413 147.248 36.0517C147.33 36.1505 147.412 36.2516 147.493 36.3547C147.617 36.5108 147.738 36.6715 147.858 36.8355C147.87 36.8529 147.883 36.8704 147.896 36.8879C147.986 37.0134 148.075 37.1409 148.162 37.2697C148.203 37.3295 148.243 37.3897 148.282 37.45C148.119 37.4151 147.942 37.3679 147.763 37.3124C147.581 37.2562 147.397 37.1914 147.222 37.1225C147.216 37.12 147.209 37.1175 147.203 37.115C147.082 37.0667 146.965 37.0164 146.857 36.9656C146.839 36.9571 146.821 36.9486 146.804 36.94C146.758 36.9178 146.714 36.8955 146.672 36.8733C146.591 36.8303 146.518 36.7876 146.456 36.746C146.452 36.8144 146.447 36.879 146.443 36.94C146.43 37.0992 146.417 37.2342 146.4 37.3486C146.399 37.3557 146.398 37.3627 146.396 37.3697C146.396 37.3745 146.395 37.3793 146.394 37.384C146.392 37.3945 146.391 37.4048 146.389 37.4149C146.347 37.6539 146.286 37.7919 146.182 37.8686C146.152 37.8906 146.119 37.9075 146.082 37.9204C146.08 37.921 146.078 37.9217 146.076 37.9224C146.034 37.9361 145.988 37.9449 145.936 37.9501C145.893 37.9543 145.847 37.956 145.796 37.956H143.948C143.933 37.956 143.918 37.956 143.903 37.9559C143.815 37.9554 143.737 37.9532 143.67 37.948C143.652 37.9467 143.635 37.9451 143.618 37.9433C143.296 37.9083 143.225 37.7864 143.222 37.406C143.222 37.3988 143.222 37.3915 143.222 37.384V35.294C143.459 35.4718 143.699 35.6595 143.928 35.848C143.935 35.8535 143.941 35.859 143.948 35.8645C143.985 35.8952 144.022 35.9259 144.059 35.9566C144.135 36.0207 144.21 36.0846 144.284 36.148C144.387 36.2376 144.486 36.3262 144.58 36.4128C144.602 36.4332 144.624 36.4535 144.646 36.4737C144.668 36.494 144.689 36.5142 144.71 36.5343C144.742 36.565 144.774 36.5954 144.804 36.6254C144.81 36.6308 144.816 36.6362 144.821 36.6417C144.868 36.6881 144.913 36.7336 144.956 36.7781C144.996 36.8197 145.034 36.8605 145.07 36.9L146.456 35.5362C146.378 35.4588 146.294 35.3776 146.203 35.294C146.078 35.18 145.942 35.0612 145.796 34.9408C145.729 34.8852 145.659 34.8293 145.588 34.7734C145.583 34.7696 145.578 34.7658 145.574 34.762C145.434 34.6529 145.288 34.5436 145.136 34.436H149.514V32.28H151.098V30.564H149.514V28.606H139.438V30.102H147.248V30.762H138.316V30.916C138.31 30.9088 138.305 30.9015 138.299 30.894C138.266 30.8527 138.232 30.8086 138.195 30.762C138.125 30.6742 138.047 30.5776 137.964 30.4748C137.869 30.3575 137.766 30.232 137.659 30.102C137.621 30.0551 137.582 30.0076 137.542 29.9596C137.436 29.8316 137.327 29.7006 137.217 29.57C137.217 29.5701 137.217 29.5699 137.217 29.57C137.134 29.4709 137.05 29.3717 136.967 29.2743C136.89 29.1833 136.813 29.0938 136.738 29.0068C136.616 28.8645 136.497 28.7292 136.388 28.606C136.344 28.5563 136.301 28.5086 136.26 28.4632C136.151 28.3426 136.054 28.2384 135.974 28.1568C135.963 28.1447 135.951 28.1331 135.94 28.122V27.946H137.964V25.57H135.94V22.402C136.162 22.3436 136.382 22.2821 136.6 22.2179C136.637 22.2067 136.675 22.1954 136.713 22.1841C136.94 22.1156 137.164 22.0442 137.381 21.9703C137.476 21.9383 137.569 21.9058 137.661 21.8729C137.764 21.8362 137.865 21.7991 137.964 21.7615C138.076 21.7189 138.186 21.6757 138.294 21.632L136.644 19.74C136.495 19.8113 136.335 19.8813 136.166 19.95C135.919 20.0506 135.653 20.1484 135.372 20.2427C135.278 20.2744 135.182 20.3056 135.084 20.3365C134.964 20.3747 134.841 20.4123 134.716 20.4493C134.226 20.5941 133.706 20.7291 133.173 20.8522C132.842 20.9288 132.505 21.0009 132.169 21.0679C132.133 21.0749 132.098 21.0818 132.063 21.0887C132.041 21.0931 132.018 21.0975 131.996 21.1018C131.713 21.1566 131.431 21.2076 131.152 21.2548C131.009 21.2789 130.867 21.302 130.726 21.324C130.764 21.4003 130.804 21.4831 130.844 21.5704C130.863 21.6128 130.883 21.6562 130.902 21.7006C131.072 22.0881 131.243 22.5435 131.342 22.93C131.346 22.9457 131.35 22.9612 131.354 22.9766C131.373 23.0542 131.389 23.1287 131.401 23.199C131.404 23.2122 131.406 23.2252 131.408 23.238C131.584 23.2153 131.761 23.1911 131.94 23.1659C132.276 23.1184 132.615 23.0671 132.956 23.0144C133.136 22.9866 133.317 22.9583 133.498 22.93V25.57H130.902V27.946H133.19C133.184 27.9661 133.178 27.9863 133.172 28.0064C133.16 28.0449 133.148 28.0834 133.137 28.122C133.113 28.1981 133.089 28.2744 133.065 28.351C133.036 28.4409 133.007 28.5312 132.977 28.6216C132.925 28.7766 132.872 28.9321 132.817 29.0878C132.76 29.2485 132.701 29.4094 132.641 29.57C132.578 29.7371 132.513 29.9038 132.446 30.0697C132.38 30.2355 132.312 30.4005 132.242 30.564C132.195 30.6747 132.147 30.7848 132.098 30.894C132.046 31.0113 131.993 31.1276 131.94 31.2428C131.842 31.4549 131.741 31.6632 131.638 31.8664C131.625 31.893 131.611 31.9196 131.598 31.946C131.54 32.0591 131.482 32.1705 131.423 32.28C131.367 32.3845 131.311 32.4872 131.254 32.588C131.109 32.8461 130.961 33.0917 130.811 33.3217C130.681 33.5225 130.55 33.7113 130.418 33.886C130.515 34.0478 130.623 34.2347 130.733 34.436C130.933 34.8011 131.143 35.2136 131.315 35.6098C131.32 35.6205 131.324 35.6311 131.329 35.6418C131.443 35.9071 131.54 36.1643 131.606 36.394C131.719 36.2306 131.83 36.0576 131.94 35.876C132.04 35.7112 132.139 35.5393 132.236 35.3611C132.25 35.3366 132.263 35.3119 132.277 35.2872C132.523 34.8318 132.762 34.3364 132.992 33.8131C133.166 33.4189 133.335 33.0089 133.498 32.588V39.914ZM139.452 20.0532C139.441 20.091 139.43 20.1288 139.419 20.1666C139.352 20.3929 139.278 20.6192 139.198 20.8439C139.19 20.8655 139.182 20.887 139.174 20.9086C139.141 21.002 139.106 21.095 139.07 21.1876C139.047 21.248 139.023 21.3081 138.998 21.368C138.957 21.4704 138.914 21.5722 138.87 21.6731C138.776 21.8905 138.675 22.1039 138.57 22.3116C138.558 22.3359 138.545 22.3601 138.533 22.3843C138.53 22.3902 138.527 22.3961 138.524 22.402C138.419 22.6044 138.309 22.8009 138.194 22.9899C138.119 23.1132 138.043 23.2332 137.964 23.3496C137.904 23.439 137.842 23.5262 137.78 23.611C137.694 23.7274 137.607 23.8392 137.517 23.946C137.517 23.9466 137.517 23.9471 137.516 23.9477C137.511 23.9532 137.507 23.9586 137.502 23.964C137.501 23.9657 137.499 23.9674 137.498 23.9691C137.449 24.0277 137.399 24.0847 137.348 24.14C137.394 24.1662 137.445 24.195 137.498 24.226C137.637 24.3065 137.797 24.4016 137.964 24.5038C138.094 24.5835 138.229 24.6674 138.363 24.7522C138.436 24.7988 138.509 24.8457 138.58 24.8922C138.848 25.067 139.094 25.2373 139.262 25.372C139.292 25.335 139.322 25.2972 139.353 25.2587C139.381 25.2225 139.41 25.1856 139.438 25.148C139.499 25.0675 139.56 24.9841 139.621 24.8981C139.688 24.8038 139.754 24.7063 139.82 24.606C139.86 24.5451 139.9 24.4831 139.94 24.4201C139.95 24.4047 139.959 24.3893 139.969 24.3739C139.991 24.3386 140.013 24.3029 140.035 24.267C140.041 24.2584 140.046 24.2498 140.051 24.2411C140.101 24.1588 140.151 24.0751 140.2 23.99C140.205 23.9814 140.21 23.9727 140.215 23.964C140.227 23.9439 140.239 23.9237 140.25 23.9035C140.265 23.8766 140.281 23.8496 140.296 23.8225C140.482 23.491 140.662 23.1413 140.831 22.7811C140.833 22.7781 140.834 22.7752 140.835 22.7722C140.884 22.6695 140.931 22.566 140.977 22.4618C140.989 22.4359 141 22.41 141.012 22.384C141.06 22.2733 141.108 22.1619 141.154 22.05C141.165 22.0495 141.176 22.0489 141.188 22.0484C141.284 22.0436 141.381 22.0386 141.479 22.0333C141.742 22.0191 142.009 22.0031 142.278 21.9852C142.487 21.9714 142.697 21.9565 142.908 21.9405C142.913 21.9401 142.917 21.9398 142.922 21.9395C142.966 21.9361 143.011 21.9327 143.055 21.9292C143.147 21.9221 143.239 21.9147 143.332 21.9071C143.347 21.9059 143.361 21.9047 143.376 21.9035C143.404 21.9012 143.433 21.8988 143.461 21.8964C143.462 21.8964 143.463 21.8963 143.463 21.8963C143.624 21.8828 143.786 21.8687 143.948 21.854C143.955 21.8534 143.963 21.8527 143.97 21.852L142.936 22.072C142.947 22.1058 142.958 22.1401 142.97 22.1748C142.992 22.2429 143.013 22.3128 143.035 22.384C143.048 22.4271 143.061 22.4707 143.074 22.5146C143.08 22.5369 143.087 22.5593 143.093 22.5818C143.121 22.6823 143.149 22.7843 143.175 22.8863C143.227 23.0915 143.274 23.2966 143.309 23.4897C143.317 23.5336 143.325 23.5769 143.332 23.6194C143.347 23.7113 143.359 23.7995 143.368 23.8828C143.371 23.9104 143.374 23.9375 143.376 23.964H140.296V25.57H143.332V26.384H138.58V27.99H150.746V26.384H145.752V25.57H148.678V24.03C148.691 24.0489 148.703 24.0677 148.715 24.0865C148.832 24.2651 148.936 24.4389 149.028 24.606C149.095 24.7271 149.156 24.8446 149.211 24.9577C149.216 24.9669 149.22 24.9761 149.225 24.9853C149.236 25.009 149.248 25.0326 149.259 25.0559C149.271 25.0809 149.283 25.1056 149.294 25.13L151.098 24.074C151.091 24.0595 151.084 24.0448 151.076 24.03C151.015 23.9065 150.943 23.7757 150.864 23.6397C150.826 23.576 150.787 23.5111 150.746 23.4452C150.709 23.3864 150.671 23.3268 150.632 23.2666C150.612 23.2364 150.592 23.2059 150.572 23.1753C150.511 23.0832 150.446 22.9899 150.379 22.8957C150.37 22.8818 150.36 22.8679 150.35 22.8539C150.238 22.6985 150.12 22.5411 149.997 22.384C149.812 22.148 149.615 21.9126 149.41 21.6852C149.318 21.5826 149.224 21.4816 149.129 21.3829C149.076 21.3278 149.023 21.2733 148.97 21.2198C148.968 21.2179 148.966 21.2159 148.964 21.214C148.965 21.2138 148.966 21.2136 148.968 21.2134C149.067 21.1968 149.164 21.1802 149.259 21.1632C149.3 21.1558 149.341 21.1484 149.381 21.1409C149.616 21.0971 149.84 21.05 150.064 20.994L148.436 19.454C148.103 19.5321 147.731 19.6071 147.329 19.6787C147.298 19.6843 147.266 19.6899 147.234 19.6955C147.045 19.7285 146.85 19.7607 146.649 19.7922C146.423 19.8278 146.189 19.8624 145.949 19.896C145.784 19.9192 145.617 19.9418 145.447 19.964C145.349 19.9767 145.251 19.9893 145.152 20.0017C145.018 20.0185 144.882 20.0351 144.745 20.0513C144.7 20.0567 144.655 20.0619 144.61 20.0672C144.392 20.0927 144.171 20.1173 143.948 20.1412C143.904 20.1459 143.86 20.1506 143.816 20.1552C143.748 20.1623 143.681 20.1693 143.613 20.1763C143.534 20.1844 143.455 20.1924 143.376 20.2003C143.327 20.2052 143.279 20.21 143.23 20.2147C143.177 20.22 143.123 20.2252 143.069 20.2303C142.898 20.2468 142.726 20.2628 142.554 20.2782C142.486 20.2844 142.418 20.2904 142.35 20.2964C142.258 20.3045 142.165 20.3125 142.073 20.3203C141.767 20.3462 141.461 20.3705 141.158 20.3932C141.13 20.3953 141.102 20.3974 141.073 20.3995C141.071 20.3997 141.068 20.3998 141.066 20.4L139.46 20.026C139.457 20.0351 139.455 20.0441 139.452 20.0532ZM143.948 23.964H148.634C148.572 23.8676 148.507 23.77 148.44 23.6718C148.414 23.6332 148.388 23.5945 148.361 23.5558C148.293 23.457 148.223 23.3579 148.151 23.2589C148.118 23.2131 148.085 23.1674 148.051 23.1217C147.984 23.03 147.915 22.9385 147.845 22.8479C147.798 22.7871 147.751 22.7267 147.703 22.6667C147.675 22.631 147.646 22.5955 147.618 22.5602C147.57 22.5009 147.521 22.4421 147.473 22.384C147.335 22.2187 147.194 22.0587 147.053 21.907C147.008 21.8585 146.963 21.8108 146.918 21.764L147.512 21.456C147.404 21.4731 147.296 21.4894 147.186 21.505C147.109 21.5161 147.032 21.5268 146.954 21.5372C146.906 21.5437 146.858 21.55 146.81 21.5562C146.774 21.5609 146.738 21.5655 146.702 21.57C146.602 21.5827 146.501 21.595 146.399 21.607C146.185 21.6322 145.969 21.656 145.752 21.6789C145.641 21.6907 145.529 21.7022 145.417 21.7136C145.28 21.7275 145.144 21.7412 145.007 21.7549C145.005 21.7551 145.003 21.7553 145.001 21.7555C144.973 21.7584 144.944 21.7612 144.916 21.764C144.937 21.8162 144.958 21.8696 144.979 21.9238C145.02 22.0291 145.059 22.1378 145.097 22.248C145.102 22.2643 145.108 22.2806 145.113 22.2969C145.14 22.3769 145.166 22.4574 145.191 22.5379C145.195 22.5506 145.199 22.5632 145.203 22.5759C145.274 22.808 145.335 23.0384 145.38 23.2491C145.408 23.3789 145.43 23.5013 145.444 23.612L143.948 23.964ZM153.012 35.074V36.856H161.724V37.538C161.724 37.5613 161.723 37.5832 161.722 37.604C161.709 37.7817 161.638 37.8729 161.486 37.9186C161.42 37.9385 161.339 37.9499 161.24 37.956C161.014 37.956 160.254 37.956 159.44 37.9386C159.145 37.9323 158.843 37.9237 158.556 37.912C158.627 38.031 158.701 38.1634 158.774 38.304C158.898 38.545 159.022 38.8103 159.129 39.074C159.249 39.3678 159.35 39.6597 159.414 39.914C160.1 39.9231 160.705 39.9247 161.24 39.9022C161.281 39.9004 161.321 39.8986 161.361 39.8966C161.486 39.8903 161.607 39.8827 161.724 39.8733C162.278 39.8292 162.748 39.748 163.154 39.606C163.532 39.4737 163.796 39.3049 163.975 39.0612C164.141 38.8347 164.233 38.5435 164.273 38.1568C164.29 37.9909 164.298 37.8075 164.298 37.604V36.856H173.01V35.074H164.298V34.304H171.536V32.522H164.298V31.5982C164.416 31.5914 164.533 31.5842 164.65 31.5769C165.01 31.5546 165.366 31.5301 165.718 31.5034C166.185 31.4679 166.643 31.4285 167.092 31.3852C167.163 31.3784 167.235 31.3714 167.305 31.3643C167.929 31.302 168.531 31.2321 169.107 31.1545C169.249 31.1352 169.391 31.1155 169.53 31.0953C169.579 31.0883 169.627 31.0812 169.675 31.074C169.679 31.0734 169.684 31.0728 169.688 31.0721C169.975 31.0295 170.254 30.9848 170.524 30.938L168.83 29.53C168.319 29.6171 167.734 29.6957 167.092 29.7663C166.533 29.8277 165.932 29.8831 165.297 29.9325C164.972 29.9578 164.639 29.9815 164.298 30.0038C164.268 30.0058 164.237 30.0078 164.206 30.0097C163.41 30.0609 162.577 30.1037 161.724 30.1386C161.702 30.1396 161.68 30.1405 161.658 30.1413C161.294 30.1561 160.926 30.1693 160.556 30.1812C160.13 30.1949 159.7 30.2067 159.27 30.2167C159.091 30.2208 158.911 30.2246 158.732 30.2282C157.911 30.2442 157.092 30.2536 156.29 30.2565C156.03 30.2575 155.771 30.2577 155.515 30.2573C155.504 30.2573 155.494 30.2573 155.483 30.2573C155.35 30.2571 155.218 30.2566 155.086 30.2561C155.084 30.256 155.082 30.256 155.08 30.256C155.082 30.2607 155.085 30.2654 155.087 30.2702C155.093 30.2812 155.099 30.2924 155.104 30.304C155.201 30.5036 155.292 30.7877 155.362 31.074C155.429 31.3429 155.478 31.6137 155.498 31.818C155.759 31.8209 156.024 31.8231 156.29 31.8244C156.762 31.8267 157.24 31.8265 157.724 31.8234C157.76 31.8232 157.797 31.823 157.833 31.8227C158.131 31.8205 158.431 31.8173 158.732 31.8129C159.251 31.8054 159.774 31.7944 160.298 31.7796C160.605 31.771 160.912 31.7611 161.22 31.7498C161.388 31.7436 161.556 31.737 161.724 31.73V32.522H154.618V34.304H161.724V35.074H153.012ZM156.29 29.464H169.688V25.416H156.29V29.464ZM167.092 26.934H158.732V27.924H167.092V26.934ZM155.262 24.9428C155.491 24.8687 155.72 24.7917 155.948 24.712C155.953 24.7104 155.957 24.7088 155.962 24.7072C156.071 24.6689 156.181 24.6301 156.29 24.5906C156.886 24.3753 157.476 24.1427 158.05 23.898V24.712H168.082V24.008C168.615 24.2158 169.155 24.4125 169.688 24.5919C169.753 24.6138 169.818 24.6354 169.883 24.6568C169.939 24.6754 169.995 24.6938 170.051 24.712C170.206 24.7621 170.359 24.8105 170.511 24.8572C170.987 25.0035 171.45 25.1326 171.888 25.24C171.947 25.1361 172.01 25.0266 172.077 24.9137C172.378 24.4042 172.751 23.8238 173.116 23.3543C173.184 23.2674 173.251 23.1842 173.318 23.106C173.178 23.081 173.037 23.0548 172.897 23.0275C172.749 22.9988 172.601 22.9688 172.453 22.9376C171.661 22.7706 170.864 22.5678 170.078 22.3288C169.948 22.2891 169.818 22.2484 169.688 22.2067C169.511 22.1498 169.335 22.0911 169.159 22.0305C169.069 21.9994 168.979 21.9679 168.89 21.9358C168.618 21.8385 168.349 21.7366 168.082 21.6302C167.908 21.5608 167.735 21.4894 167.564 21.416C167.407 21.3489 167.252 21.2802 167.097 21.2098C166.782 21.0656 166.471 20.9145 166.168 20.7567C166.14 20.7418 166.111 20.727 166.083 20.712C166.033 20.6859 165.984 20.6596 165.935 20.6332C165.311 20.2971 164.719 19.9312 164.169 19.5354C164.101 19.4868 164.034 19.4376 163.968 19.388H161.592C161.559 19.4158 161.526 19.4436 161.492 19.4714C161.088 19.804 160.613 20.1333 160.083 20.4529C159.944 20.5364 159.802 20.6193 159.656 20.7014C159.65 20.7049 159.643 20.7085 159.637 20.712C159.336 20.8811 159.02 21.047 158.691 21.2085C158.549 21.2785 158.405 21.3477 158.258 21.416C158.189 21.4481 158.12 21.4799 158.05 21.5115C157.77 21.6385 157.483 21.7621 157.191 21.882C157.019 21.9521 156.846 22.021 156.671 22.0884C156.545 22.137 156.418 22.1849 156.29 22.2319C156.103 22.3008 155.915 22.368 155.724 22.4334C155.439 22.5316 155.151 22.6257 154.861 22.7155C154.397 22.8587 153.929 22.9906 153.459 23.1096C153.405 23.1232 153.352 23.1366 153.298 23.1498C153.249 23.1621 153.199 23.1742 153.149 23.1862C153.078 23.2033 153.007 23.2202 152.935 23.2368C152.901 23.2446 152.868 23.2524 152.834 23.2601C152.795 23.269 152.756 23.2779 152.717 23.2866C152.69 23.2924 152.664 23.2983 152.638 23.304C152.642 23.3089 152.646 23.3138 152.651 23.3187C152.695 23.3701 152.74 23.4259 152.786 23.4851C152.789 23.4889 152.792 23.4926 152.795 23.4964C152.853 23.5724 152.913 23.6541 152.973 23.7398C153.329 24.2492 153.692 24.9005 153.892 25.35C153.959 25.332 154.025 25.3138 154.092 25.2952C154.246 25.2523 154.401 25.2079 154.556 25.1619C154.698 25.1199 154.84 25.0766 154.982 25.0321C155.075 25.0028 155.169 24.9731 155.262 24.9428ZM159.656 23.172C159.815 23.0937 159.973 23.0143 160.128 22.934C160.647 22.6646 161.139 22.3852 161.592 22.1027C161.6 22.0976 161.608 22.0924 161.617 22.0873C161.846 21.9433 162.066 21.7985 162.274 21.6538C162.387 21.5745 162.498 21.4952 162.604 21.416C162.695 21.3485 162.783 21.2812 162.868 21.214C162.955 21.2814 163.045 21.3488 163.137 21.416C163.276 21.5172 163.42 21.6182 163.57 21.7186C163.699 21.805 163.832 21.891 163.968 21.9765C164.132 22.0793 164.3 22.1813 164.473 22.2822C164.857 22.506 165.262 22.7245 165.68 22.934C165.841 23.0147 166.004 23.0941 166.168 23.172H159.656ZM140.03 37.9766C140.102 37.7889 140.17 37.598 140.235 37.406C140.237 37.3987 140.24 37.3914 140.242 37.384C140.258 37.3358 140.274 37.2875 140.29 37.2392C140.323 37.1395 140.354 37.0396 140.385 36.94C140.467 36.6724 140.543 36.4064 140.615 36.148C140.627 36.1051 140.638 36.0623 140.65 36.0198C140.664 35.9682 140.678 35.9169 140.692 35.866L138.778 35.162C138.776 35.1694 138.774 35.1767 138.773 35.184C138.76 35.2341 138.747 35.2844 138.734 35.3351C138.695 35.485 138.651 35.6372 138.605 35.7905C138.603 35.7956 138.601 35.8007 138.6 35.8058C138.565 35.9194 138.528 36.0337 138.489 36.148C138.396 36.4235 138.292 36.6995 138.179 36.9694C138.118 37.1171 138.053 37.2631 137.986 37.406C137.942 37.5006 137.896 37.5938 137.85 37.6854C137.787 37.8102 137.722 37.9319 137.655 38.0498C137.604 38.1407 137.551 38.2294 137.498 38.3154C137.477 38.349 137.456 38.3822 137.435 38.4149C137.349 38.5482 137.262 38.6744 137.172 38.792L139.108 39.716C139.142 39.6725 139.175 39.6278 139.208 39.5821C139.305 39.4464 139.397 39.3016 139.484 39.1494C139.492 39.1358 139.5 39.1222 139.508 39.1085C139.627 38.8963 139.738 38.6705 139.841 38.436C139.875 38.3593 139.908 38.2817 139.94 38.2032C139.971 38.1283 140.001 38.0528 140.03 37.9766ZM126.436 19.454C126.103 19.5321 125.731 19.6071 125.329 19.6787C125.298 19.6843 125.266 19.6899 125.234 19.6955C125.045 19.7285 124.85 19.7607 124.649 19.7922C124.423 19.8278 124.189 19.8624 123.949 19.896C123.784 19.9192 123.617 19.9418 123.447 19.964C123.349 19.9767 123.251 19.9893 123.152 20.0017C123.018 20.0185 122.882 20.0351 122.745 20.0513C122.7 20.0567 122.655 20.0619 122.61 20.0672C122.392 20.0927 122.171 20.1173 121.948 20.1412C121.904 20.1459 121.86 20.1506 121.816 20.1552C121.748 20.1623 121.681 20.1693 121.613 20.1763C121.534 20.1844 121.455 20.1924 121.376 20.2003C121.327 20.2052 121.279 20.21 121.23 20.2147C121.177 20.22 121.123 20.2252 121.069 20.2303C120.898 20.2468 120.726 20.2628 120.554 20.2782C120.486 20.2844 120.418 20.2904 120.35 20.2964C120.258 20.3045 120.165 20.3125 120.073 20.3203C119.767 20.3462 119.461 20.3705 119.158 20.3932C119.13 20.3953 119.102 20.3974 119.073 20.3995C119.071 20.3997 119.068 20.3998 119.066 20.4L117.46 20.026C117.457 20.0351 117.455 20.0441 117.452 20.0532C117.441 20.091 117.43 20.1288 117.419 20.1666C117.352 20.3929 117.278 20.6192 117.198 20.8439C117.19 20.8655 117.182 20.887 117.174 20.9086C117.141 21.002 117.106 21.095 117.07 21.1876C117.047 21.248 117.023 21.3081 116.998 21.368C116.957 21.4704 116.914 21.5722 116.87 21.6731C116.776 21.8905 116.675 22.1039 116.57 22.3116C116.558 22.3359 116.545 22.3601 116.533 22.3843C116.53 22.3902 116.527 22.3961 116.524 22.402C116.419 22.6044 116.309 22.8009 116.194 22.9899C116.119 23.1132 116.043 23.2332 115.964 23.3496C115.904 23.439 115.842 23.5262 115.78 23.611C115.694 23.7274 115.607 23.8392 115.517 23.946C115.517 23.9466 115.517 23.9471 115.516 23.9477C115.511 23.9532 115.507 23.9586 115.502 23.964C115.501 23.9657 115.499 23.9674 115.498 23.9691C115.449 24.0277 115.399 24.0847 115.348 24.14C115.394 24.1662 115.445 24.195 115.498 24.226C115.637 24.3065 115.797 24.4016 115.964 24.5038C116.094 24.5835 116.229 24.6674 116.363 24.7522C116.436 24.7988 116.509 24.8457 116.58 24.8922C116.848 25.067 117.094 25.2373 117.262 25.372C117.292 25.335 117.322 25.2972 117.353 25.2587C117.381 25.2225 117.41 25.1856 117.438 25.148C117.499 25.0675 117.56 24.9841 117.621 24.8981C117.688 24.8038 117.754 24.7063 117.82 24.606C117.86 24.5451 117.9 24.4831 117.94 24.4201C117.95 24.4047 117.959 24.3893 117.969 24.3739C117.991 24.3386 118.013 24.3029 118.035 24.267C118.041 24.2584 118.046 24.2498 118.051 24.2411C118.101 24.1588 118.151 24.0751 118.2 23.99C118.205 23.9814 118.21 23.9727 118.215 23.964C118.227 23.9439 118.239 23.9237 118.25 23.9035C118.265 23.8766 118.281 23.8496 118.296 23.8225C118.482 23.491 118.662 23.1413 118.831 22.7811C118.833 22.7781 118.834 22.7752 118.835 22.7722C118.884 22.6695 118.931 22.566 118.977 22.4618C118.989 22.4359 119 22.41 119.012 22.384C119.06 22.2733 119.108 22.1619 119.154 22.05C119.165 22.0495 119.176 22.0489 119.188 22.0484C119.284 22.0436 119.381 22.0386 119.479 22.0333C119.742 22.0191 120.009 22.0031 120.278 21.9852C120.487 21.9714 120.697 21.9565 120.908 21.9405C120.913 21.9401 120.917 21.9398 120.922 21.9395C120.966 21.9361 121.011 21.9327 121.055 21.9292C121.147 21.9221 121.239 21.9147 121.332 21.9071C121.347 21.9059 121.361 21.9047 121.376 21.9035C121.404 21.9012 121.433 21.8988 121.461 21.8964C121.462 21.8964 121.463 21.8963 121.463 21.8963C121.624 21.8828 121.786 21.8687 121.948 21.854C121.955 21.8534 121.963 21.8527 121.97 21.852L120.936 22.072C120.947 22.1058 120.958 22.1401 120.97 22.1748C120.992 22.2429 121.013 22.3128 121.035 22.384C121.048 22.4271 121.061 22.4707 121.074 22.5146C121.08 22.5369 121.087 22.5593 121.093 22.5818C121.121 22.6823 121.149 22.7843 121.175 22.8863C121.227 23.0915 121.274 23.2966 121.309 23.4897C121.317 23.5336 121.325 23.5769 121.332 23.6194C121.347 23.7113 121.359 23.7995 121.368 23.8828C121.371 23.9104 121.374 23.9375 121.376 23.964H118.296V25.57H121.332V26.384H116.58V27.99H128.746V26.384H123.752V25.57H126.678V24.03C126.808 24.2245 126.921 24.4136 127.022 24.5948C127.024 24.5985 127.026 24.6023 127.028 24.606C127.095 24.7271 127.156 24.8446 127.211 24.9577C127.216 24.9669 127.22 24.9761 127.225 24.9853C127.236 25.009 127.248 25.0326 127.259 25.0559C127.271 25.0809 127.283 25.1056 127.294 25.13L129.098 24.074C129.091 24.0595 129.084 24.0448 129.076 24.03C129.015 23.9079 128.945 23.7789 128.867 23.6447C128.866 23.643 128.865 23.6414 128.864 23.6397C128.826 23.576 128.787 23.5111 128.746 23.4452C128.709 23.3864 128.671 23.3268 128.632 23.2666C128.612 23.2363 128.592 23.2059 128.572 23.1753C128.511 23.0832 128.446 22.9899 128.379 22.8957C128.37 22.8818 128.36 22.8679 128.35 22.8539C128.297 22.7804 128.243 22.7064 128.187 22.6322C128.18 22.6228 128.173 22.6134 128.166 22.604C128.111 22.5307 128.055 22.4573 127.997 22.384C127.812 22.148 127.615 21.9126 127.41 21.6852C127.266 21.5252 127.119 21.3692 126.97 21.2198C126.968 21.2179 126.966 21.2159 126.964 21.214C126.965 21.2138 126.966 21.2136 126.968 21.2134C127.111 21.1896 127.248 21.1658 127.381 21.1409C127.616 21.0971 127.84 21.05 128.064 20.994L126.436 19.454ZM121.948 23.964H126.634C126.572 23.8676 126.507 23.77 126.44 23.6718C126.414 23.6332 126.388 23.5945 126.361 23.5558C126.293 23.457 126.223 23.3579 126.151 23.2589C126.118 23.2131 126.085 23.1674 126.051 23.1217C125.984 23.03 125.915 22.9385 125.845 22.8479C125.798 22.7871 125.751 22.7267 125.703 22.6667C125.675 22.631 125.646 22.5955 125.618 22.5602C125.57 22.5009 125.521 22.4421 125.473 22.384C125.335 22.2187 125.194 22.0587 125.053 21.907C125.008 21.8585 124.963 21.8108 124.918 21.764L125.512 21.456C125.404 21.4731 125.296 21.4894 125.186 21.505C125.109 21.5161 125.032 21.5268 124.954 21.5372C124.906 21.5437 124.858 21.55 124.81 21.5562C124.774 21.5609 124.738 21.5655 124.702 21.57C124.602 21.5827 124.501 21.595 124.399 21.607C124.185 21.6322 123.969 21.656 123.752 21.6789C123.641 21.6907 123.529 21.7022 123.417 21.7136C123.28 21.7275 123.144 21.7412 123.007 21.7549C123.005 21.7551 123.003 21.7553 123.001 21.7555C122.973 21.7584 122.944 21.7612 122.916 21.764C122.937 21.8162 122.958 21.8696 122.979 21.9238C123.02 22.0291 123.059 22.1378 123.097 22.248C123.102 22.2643 123.108 22.2806 123.113 22.2969C123.14 22.3769 123.166 22.4574 123.191 22.5379C123.195 22.5506 123.199 22.5632 123.203 22.5759C123.274 22.808 123.335 23.0384 123.38 23.2491C123.408 23.3789 123.43 23.5013 123.444 23.612L121.948 23.964ZM117.508 39.1085C117.627 38.8963 117.738 38.6705 117.841 38.436C117.875 38.3593 117.908 38.2817 117.94 38.2032C117.971 38.1283 118.001 38.0528 118.03 37.9766C118.102 37.7889 118.17 37.598 118.235 37.406C118.237 37.3987 118.24 37.3914 118.242 37.384C118.258 37.3358 118.274 37.2875 118.29 37.2392C118.323 37.1395 118.354 37.0396 118.385 36.94C118.467 36.6724 118.543 36.4064 118.615 36.148C118.627 36.1051 118.638 36.0623 118.65 36.0198C118.664 35.9682 118.678 35.9169 118.692 35.866L116.778 35.162C116.776 35.1694 116.774 35.1767 116.773 35.184C116.76 35.2341 116.747 35.2844 116.734 35.3351C116.695 35.485 116.651 35.6372 116.605 35.7905C116.603 35.7956 116.601 35.8007 116.6 35.8058C116.565 35.9194 116.528 36.0337 116.489 36.148C116.396 36.4235 116.292 36.6995 116.179 36.9694C116.118 37.1171 116.053 37.2631 115.986 37.406C115.942 37.5006 115.896 37.5938 115.85 37.6854C115.787 37.8102 115.722 37.9319 115.655 38.0498C115.604 38.1407 115.551 38.2294 115.498 38.3154C115.477 38.349 115.456 38.3822 115.435 38.4149C115.349 38.5482 115.262 38.6744 115.172 38.792L117.108 39.716C117.142 39.6725 117.175 39.6278 117.208 39.5821C117.305 39.4464 117.397 39.3016 117.484 39.1494C117.492 39.1358 117.5 39.1222 117.508 39.1085ZM93.216 23.238C93.092 23.0763 92.964 22.9132 92.8334 22.751C92.7862 22.6925 92.7387 22.6341 92.6909 22.5759C92.6244 22.495 92.5574 22.4146 92.49 22.3349C92.4402 22.276 92.3902 22.2175 92.34 22.1595C92.2509 22.0565 92.1613 21.9551 92.0717 21.856C92.0485 21.8304 92.0253 21.8049 92.002 21.7795C91.8636 21.6284 91.7251 21.4831 91.588 21.346C91.4954 21.5127 91.3959 21.6829 91.2904 21.856C91.0873 22.1892 90.8623 22.5334 90.6221 22.8852C90.5891 22.9334 90.5559 22.9818 90.5224 23.0304C90.4748 23.0993 90.4266 23.1686 90.378 23.238H93.216ZM103.886 34.81V33.952H98.76V34.81H103.886ZM98.76 32.544H103.886V31.708H98.76V32.544ZM103.886 30.278V29.464H98.76V30.278H103.886ZM54.0208 32.9536C53.914 32.8357 53.8081 32.7209 53.704 32.61L51.614 33.82C51.6792 33.8939 51.7449 33.9697 51.811 34.0471C51.8204 34.058 51.8297 34.069 51.8391 34.08C51.883 34.1317 51.927 34.184 51.971 34.2369C52.1122 34.4065 52.2539 34.5824 52.3939 34.762C52.6057 35.0335 52.8134 35.3132 53.009 35.5918C53.0268 35.6172 53.0446 35.6426 53.0622 35.668C53.2213 35.8971 53.3717 36.1249 53.5088 36.346C53.6719 36.6092 53.8163 36.863 53.9342 37.0988C53.9567 37.1438 53.9783 37.1881 53.9988 37.2317C53.9987 37.2315 53.9989 37.232 53.9988 37.2317C54.0452 37.3302 54.0866 37.4256 54.122 37.516L56.366 36.218C56.3212 36.1135 56.2696 36.0055 56.212 35.8947C56.0581 35.5986 55.8615 35.2824 55.6377 34.9589C55.5889 34.8884 55.5389 34.8176 55.4877 34.7466C55.4682 34.7195 55.4486 34.6924 55.4287 34.6653C55.2863 34.4705 55.136 34.2745 54.9809 34.08C54.8305 33.8913 54.6756 33.704 54.5193 33.5208C54.4982 33.496 54.4771 33.4714 54.456 33.4468C54.4094 33.3925 54.3627 33.3387 54.316 33.2853C54.2174 33.1725 54.1187 33.0617 54.0208 32.9536ZM41.01 32.632V29.992H32.364V23.326H39.734V20.73H22.222V23.326H29.636V29.992H21.078V32.632H29.636V39.914H32.364V32.632H41.01ZM26.3105 24.73C26.1943 24.4884 26.0773 24.2537 25.962 24.03L23.564 24.734C23.6307 24.8737 23.6972 25.0173 23.7631 25.1638C23.8838 25.432 24.0025 25.7101 24.117 25.992C24.152 26.0781 24.1866 26.1646 24.2207 26.2513C24.3622 26.6105 24.4958 26.9728 24.6169 27.326C24.756 27.7316 24.8785 28.1251 24.9775 28.4879C24.9908 28.5365 25.0036 28.5846 25.016 28.632C25.0522 28.7703 25.0846 28.9035 25.1128 29.0306C25.1343 29.1275 25.1535 29.2208 25.17 29.31L27.722 28.518C27.6523 28.1634 27.5371 27.7576 27.3909 27.326C27.3118 27.0922 27.2235 26.8507 27.1285 26.6057C27.0499 26.4028 26.9666 26.1975 26.8801 25.992C26.7053 25.5768 26.517 25.1609 26.3263 24.763C26.321 24.752 26.3158 24.741 26.3105 24.73ZM38.832 24.668C38.8223 24.6887 38.8127 24.7094 38.803 24.73C38.7972 24.7424 38.7914 24.7548 38.7856 24.7672C38.5946 25.1747 38.3988 25.5864 38.2012 25.992C37.9784 26.4494 37.7534 26.899 37.5304 27.326C37.3466 27.6781 37.1641 28.0148 36.9856 28.3278C36.9262 28.4319 36.8672 28.5335 36.8087 28.632C36.6733 28.8604 36.5407 29.073 36.412 29.266L34.124 28.606C34.234 28.4066 34.3462 28.1911 34.4588 27.9639C34.5599 27.7596 34.6615 27.5459 34.762 27.326C34.9582 26.897 35.1506 26.4443 35.3299 25.992C35.475 25.626 35.6115 25.2602 35.7342 24.9074C35.7549 24.8479 35.7752 24.7887 35.7952 24.73C35.8854 24.4639 35.9671 24.2067 36.038 23.964L38.832 24.668Z" fill="#23B2BD"/>
</svg>
