<svg width="193" height="59" viewBox="0 0 193 59" fill="none" xmlns="http://www.w3.org/2000/svg">
<path d="M0 29.5C0 13.2076 13.2076 0 29.5 0H163.5C179.792 0 193 13.2076 193 29.5C193 45.7924 179.792 59 163.5 59H29.5C13.2076 59 0 45.7924 0 29.5Z" fill="#4BC2CB"/>
<path fill-rule="evenodd" clip-rule="evenodd" d="M30 7C18.402 7 9 16.402 9 28H6C6 14.7452 16.7452 4 30 4H36C36.8284 4 37.5 4.67157 37.5 5.5C37.5 6.32843 36.8284 7 36 7H30Z" fill="#87D9DB"/>
<path d="M30.912 32.39C30.274 32.742 29.702 33.072 29.218 33.314L30.318 35.404C31.88 34.436 33.75 33.182 35.466 32.016L34.74 30.146L33.222 31.048V25.042H34.806C35.004 27.66 35.356 30.058 35.884 31.972C35.004 33.072 34.014 33.996 32.914 34.678C33.42 35.096 34.146 35.932 34.476 36.482C35.312 35.91 36.082 35.206 36.808 34.392C37.402 35.536 38.172 36.196 39.096 36.196C40.68 36.196 41.34 35.382 41.67 32.346C41.098 32.104 40.372 31.598 39.91 31.07C39.844 32.962 39.668 33.82 39.36 33.82C39.008 33.82 38.678 33.27 38.348 32.324C39.448 30.608 40.328 28.606 40.944 26.45L38.942 25.922C38.612 27.044 38.172 28.166 37.644 29.2C37.446 27.968 37.27 26.56 37.16 25.042H41.186V22.864H39.382L40.944 22.006C40.592 21.302 39.756 20.246 39.052 19.476L37.292 20.4C37.93 21.126 38.634 22.138 38.986 22.864H37.028C36.984 21.72 36.962 20.554 36.962 19.388H34.542C34.564 20.554 34.608 21.72 34.652 22.864H30.912V32.39ZM27.502 32.83H30.12V30.564H27.502V28.122H30.406V25.834H27.106V23.986H30.076V21.698H27.106V19.388H24.708V21.698H21.65V23.986H24.708V25.834H20.902V28.122H25.148V34.436C24.664 33.82 24.268 33.05 23.938 32.082C23.96 31.224 23.96 30.366 23.938 29.53L21.738 29.398C21.848 32.368 21.716 35.778 20.308 38.264C20.836 38.528 21.672 39.32 22.002 39.848C22.728 38.66 23.19 37.296 23.498 35.888C25.368 38.748 28.206 39.342 32.54 39.342H40.504C40.68 38.572 41.098 37.362 41.516 36.768C39.646 36.834 34.124 36.834 32.562 36.834C30.516 36.834 28.844 36.702 27.502 36.174V32.83Z" fill="white"/>
<path d="M58.962 34.986V37.054H53.506V34.986H58.962ZM51.152 39.914H53.506V39.122H58.962V39.826H61.426V32.918H51.152V39.914ZM53.836 29.53C54.782 28.65 55.596 27.726 56.146 26.868C56.762 27.748 57.642 28.672 58.61 29.53H53.836ZM54.87 24.624C54.782 24.756 54.694 24.91 54.606 25.064V23.59H57.95V25.35H60.414V23.59H62.988V21.368H60.414V19.388H57.95V21.368H54.606V19.388H52.186V21.368H49.744V23.59H52.186V25.284H54.452C53.396 26.824 51.68 28.474 49.832 29.596L49.634 28.21L48.028 28.65V25.922H49.722V23.524H48.028V19.388H45.52V23.524H42.968V25.922H45.52V29.332C44.398 29.64 43.364 29.904 42.528 30.08L43.078 32.61C43.826 32.39 44.662 32.148 45.52 31.906V36.944C45.52 37.274 45.41 37.362 45.146 37.362C44.86 37.384 43.958 37.384 43.1 37.34C43.43 38.066 43.76 39.188 43.826 39.892C45.344 39.892 46.378 39.804 47.104 39.364C47.808 38.968 48.028 38.264 48.028 36.966V31.136L49.15 30.784C49.48 31.268 49.766 31.862 49.942 32.28C50.954 31.774 51.922 31.136 52.824 30.41V31.598H59.644V30.366C60.48 31.026 61.36 31.576 62.218 32.016C62.57 31.268 63.076 30.322 63.582 29.728C61.206 28.804 58.83 26.846 57.246 24.624H54.87Z" fill="white"/>
<path d="M74.912 32.39C74.274 32.742 73.702 33.072 73.218 33.314L74.318 35.404C75.88 34.436 77.75 33.182 79.466 32.016L78.74 30.146L77.222 31.048V25.042H78.806C79.004 27.66 79.356 30.058 79.884 31.972C79.004 33.072 78.014 33.996 76.914 34.678C77.42 35.096 78.146 35.932 78.476 36.482C79.312 35.91 80.082 35.206 80.808 34.392C81.402 35.536 82.172 36.196 83.096 36.196C84.68 36.196 85.34 35.382 85.67 32.346C85.098 32.104 84.372 31.598 83.91 31.07C83.844 32.962 83.668 33.82 83.36 33.82C83.008 33.82 82.678 33.27 82.348 32.324C83.448 30.608 84.328 28.606 84.944 26.45L82.942 25.922C82.612 27.044 82.172 28.166 81.644 29.2C81.446 27.968 81.27 26.56 81.16 25.042H85.186V22.864H83.382L84.944 22.006C84.592 21.302 83.756 20.246 83.052 19.476L81.292 20.4C81.93 21.126 82.634 22.138 82.986 22.864H81.028C80.984 21.72 80.962 20.554 80.962 19.388H78.542C78.564 20.554 78.608 21.72 78.652 22.864H74.912V32.39ZM71.502 32.83H74.12V30.564H71.502V28.122H74.406V25.834H71.106V23.986H74.076V21.698H71.106V19.388H68.708V21.698H65.65V23.986H68.708V25.834H64.902V28.122H69.148V34.436C68.664 33.82 68.268 33.05 67.938 32.082C67.96 31.224 67.96 30.366 67.938 29.53L65.738 29.398C65.848 32.368 65.716 35.778 64.308 38.264C64.836 38.528 65.672 39.32 66.002 39.848C66.728 38.66 67.19 37.296 67.498 35.888C69.368 38.748 72.206 39.342 76.54 39.342H84.504C84.68 38.572 85.098 37.362 85.516 36.768C83.646 36.834 78.124 36.834 76.562 36.834C74.516 36.834 72.844 36.702 71.502 36.174V32.83Z" fill="white"/>
<path d="M91.478 20.334C90.466 21.896 88.684 23.436 86.902 24.36C87.474 24.8 88.464 25.724 88.948 26.186C90.752 25.02 92.776 23.128 94.008 21.148L91.478 20.334ZM101.818 31.51H93.7V30.476H101.818V31.51ZM93.7 37.252V36.174H101.818V37.252H93.7ZM93.7 33.27H101.818V34.392H93.7V33.27ZM100.85 23.392C100.058 24.316 98.98 25.108 97.726 25.768C98.166 25.416 98.32 24.888 98.32 24.008V19.366H95.68V23.92C95.68 24.206 95.57 24.272 95.196 24.272C94.822 24.294 93.436 24.294 92.292 24.228C92.688 24.822 93.172 25.79 93.348 26.472C94.932 26.472 96.12 26.45 97.066 26.098L97.11 26.076C94.228 27.484 90.466 28.342 86.616 28.804C87.1 29.354 87.892 30.476 88.222 31.07C89.212 30.916 90.18 30.718 91.17 30.498V39.936H93.7V39.188H101.818V39.826H104.48V28.518H97.44C99.794 27.506 101.862 26.186 103.358 24.514L100.85 23.392ZM100.388 21.412C102.082 22.666 104.084 24.47 104.942 25.702L107.208 24.272C106.218 23.018 104.172 21.302 102.5 20.136L100.388 21.412Z" fill="white"/>
<path d="M114.886 26.142C114.622 28.386 114.204 30.366 113.566 32.082C113.016 31.686 112.466 31.312 111.938 30.982C112.29 29.442 112.642 27.814 112.994 26.142H114.886ZM115.92 23.678L115.48 23.744H113.5C113.786 22.314 114.05 20.906 114.27 19.608L111.806 19.388C111.608 20.73 111.344 22.226 111.058 23.744H108.88V26.142H110.596C110.068 28.694 109.518 31.158 109.012 32.962L111.168 34.084L111.344 33.402C111.74 33.688 112.136 33.996 112.532 34.304C111.608 35.91 110.42 37.142 108.946 37.912C109.474 38.396 110.156 39.32 110.508 39.98C112.136 38.968 113.456 37.67 114.512 35.954C115.304 36.702 115.986 37.428 116.448 38.044L118.032 35.932C117.482 35.228 116.624 34.436 115.656 33.644C116.668 31.114 117.262 27.924 117.504 23.92L115.92 23.678ZM129.296 28.078H124.456V26.824C125.996 25.372 127.624 23.326 128.79 21.61L127.074 20.334L126.546 20.466H117.944V22.886H124.786C124.17 23.81 123.4 24.778 122.674 25.526H121.86V28.078H117.218V30.542H121.86V36.966C121.86 37.274 121.75 37.362 121.376 37.362C121.024 37.384 119.858 37.362 118.736 37.318C119.11 38.044 119.55 39.166 119.682 39.892C121.288 39.914 122.476 39.826 123.356 39.408C124.214 39.012 124.456 38.308 124.456 36.988V30.542H129.296V28.078Z" fill="white"/>
<path d="M141.396 22.49C140.758 21.61 139.372 20.378 138.25 19.52L136.534 20.95C137.59 21.852 138.954 23.194 139.548 24.052L141.396 22.49ZM139.504 27.506C138.888 28.958 138.096 30.344 137.194 31.62C136.886 30.322 136.622 28.892 136.424 27.33L142.914 26.604L142.672 24.14L136.16 24.866C136.028 23.106 135.962 21.236 135.984 19.388H133.3C133.322 21.324 133.388 23.26 133.564 25.152L130.616 25.46L130.858 27.946L133.806 27.616C134.114 29.97 134.554 32.17 135.104 34.04C133.784 35.36 132.244 36.482 130.616 37.362C131.166 37.846 132.09 38.858 132.442 39.408C133.74 38.638 134.95 37.67 136.116 36.57C137.106 38.528 138.338 39.738 139.878 39.738C141.858 39.738 142.694 38.792 143.112 34.964C142.408 34.722 141.506 34.106 140.956 33.534C140.824 36.108 140.582 37.12 140.076 37.12C139.394 37.12 138.69 36.152 138.052 34.524C139.636 32.676 140.956 30.564 141.968 28.254L139.504 27.506ZM146.148 21.698H143.64V33.798H146.148V21.698ZM147.82 19.586V36.856C147.82 37.23 147.666 37.34 147.27 37.362C146.918 37.362 145.642 37.362 144.432 37.318C144.784 38.044 145.158 39.188 145.246 39.914C147.116 39.914 148.414 39.826 149.25 39.408C150.086 38.99 150.372 38.308 150.372 36.856V19.586H147.82Z" fill="white"/>
<path d="M160.976 34.282V32.94H165.596V34.282H160.976ZM158.292 30.564H168.06V31.378H158.292V30.564ZM162.384 22.864C162.142 23.106 161.9 23.304 161.636 23.502C162.142 23.722 162.956 24.14 163.55 24.492H158.776L160.228 23.964C160.118 23.656 159.898 23.26 159.656 22.864H162.384ZM166.74 22.864C167.202 23.392 167.642 24.008 167.95 24.492H164.188C164.65 24.03 165.134 23.48 165.574 22.864H166.74ZM158.292 28.276H168.06V29.09H158.292V28.276ZM168.06 26.054V26.824H158.292V26.054H168.06ZM172.944 34.282H168.302V32.94H170.832V24.492H168.874L170.348 23.832C170.194 23.546 169.93 23.216 169.644 22.864H172.878V20.796H166.828C166.982 20.466 167.136 20.114 167.268 19.784L164.782 19.19C164.342 20.4 163.594 21.61 162.692 22.534V20.796H157.83C158.006 20.488 158.16 20.158 158.314 19.85L155.872 19.19C155.168 20.84 153.87 22.512 152.484 23.568C153.1 23.898 154.134 24.602 154.596 25.02C155.234 24.448 155.894 23.7 156.51 22.864H156.972C157.324 23.392 157.654 24.008 157.852 24.492H155.652V32.94H158.336V34.282H153.1V36.35H157.5C156.818 36.988 155.564 37.56 153.386 38C153.98 38.484 154.706 39.364 155.058 39.914C158.49 39.034 160.03 37.758 160.646 36.35H165.596V39.87H168.302V36.35H172.944V34.282Z" fill="white"/>
<path fill-rule="evenodd" clip-rule="evenodd" d="M31.1711 36.8083C31.1656 36.8081 31.1602 36.8079 31.1547 36.8076C31.0895 36.8049 31.0247 36.8019 30.9603 36.7987C30.8795 36.7946 30.7993 36.7902 30.7198 36.7853C30.5153 36.7728 30.3154 36.7576 30.12 36.7392C29.8866 36.7172 29.6597 36.6908 29.4391 36.6592C29.1391 36.6164 28.8509 36.564 28.574 36.5006C28.4958 36.4826 28.4184 36.4638 28.3419 36.4441C28.0487 36.3683 27.7688 36.279 27.502 36.174V32.83H30.12V30.564H27.502V28.122H30.406V25.834H27.106V23.986H30.076V21.698H27.106V19.388H24.708V21.698H21.65V23.986H24.708V25.834H20.902V28.122H25.148V34.436C24.8079 34.0032 24.5113 33.4944 24.2505 32.8944C24.2413 32.873 24.232 32.8516 24.2229 32.83C24.1278 32.6067 24.0375 32.371 23.9517 32.122C23.9471 32.1087 23.9426 32.0954 23.938 32.082C23.9394 32.0255 23.9408 31.969 23.9421 31.9126C23.949 31.6014 23.953 31.2905 23.9542 30.9808C23.9547 30.8416 23.9546 30.7026 23.9539 30.564C23.9528 30.3194 23.9498 30.0759 23.945 29.834C23.943 29.7324 23.9407 29.631 23.938 29.53L21.738 29.398C21.7403 29.4611 21.7426 29.5243 21.7447 29.5877C21.7474 29.6695 21.7499 29.7516 21.7522 29.834C21.7722 30.5496 21.7756 31.2863 21.7487 32.0259C21.7475 32.0579 21.7463 32.09 21.745 32.122C21.7427 32.18 21.7402 32.238 21.7374 32.2961C21.7289 32.4784 21.7184 32.6608 21.7058 32.843C21.6929 33.0292 21.6777 33.2151 21.6601 33.4005C21.627 33.7483 21.5852 34.0941 21.5332 34.436C21.4827 34.7677 21.4227 35.0958 21.3518 35.4185C21.3224 35.5524 21.2911 35.6853 21.2578 35.8171C21.1094 36.4051 20.9218 36.9721 20.6865 37.507C20.6398 37.6131 20.5912 37.7181 20.5407 37.8216C20.4673 37.972 20.3898 38.1196 20.308 38.264C20.3621 38.291 20.4193 38.3236 20.479 38.3609C21.0019 38.6874 21.7058 39.3741 22.002 39.848C22.0963 39.6936 22.1862 39.5363 22.2719 39.3763C22.5425 38.8707 22.7711 38.3383 22.9652 37.7882C23.1824 37.1726 23.3565 36.535 23.498 35.888C23.4993 35.89 23.5007 35.8921 23.502 35.8941C23.5648 35.9899 23.6286 36.0832 23.6936 36.174C24.0693 36.6991 24.4822 37.141 24.936 37.512C25.0541 37.6086 25.175 37.7004 25.2987 37.7876C25.5741 37.9816 25.8636 38.1529 26.1679 38.3039C26.3051 38.3719 26.4452 38.4358 26.5885 38.4958C26.6924 38.5393 26.7979 38.5807 26.9051 38.6202C27.4827 38.8329 28.1083 38.9882 28.7858 39.0989C29.511 39.2175 30.2959 39.285 31.1452 39.3175C31.3176 39.3241 31.4927 39.3293 31.6704 39.3331C31.9534 39.3392 32.2432 39.342 32.54 39.342H40.504C40.5668 39.0672 40.6605 38.7362 40.774 38.3973C40.8853 38.0647 41.0157 37.7245 41.1549 37.4218C41.2712 37.1687 41.3936 36.942 41.516 36.768C41.2468 36.7775 40.9019 36.7856 40.504 36.7926C40.2017 36.7979 39.8687 36.8025 39.5152 36.8065C39.4639 36.8071 39.4121 36.8077 39.36 36.8083C39.2858 36.809 39.2109 36.8098 39.1352 36.8106C39.1221 36.8107 39.1091 36.8108 39.096 36.811C38.4589 36.8172 37.7715 36.8217 37.0856 36.825C36.9687 36.8256 36.8518 36.8261 36.7352 36.8266C36.6841 36.8268 36.6331 36.827 36.5821 36.8272C36.2067 36.8287 35.8357 36.8299 35.4775 36.8308C35.2156 36.8315 34.9605 36.832 34.7158 36.8324C34.5559 36.8327 34.4004 36.8329 34.2502 36.8331C34.1264 36.8333 34.0062 36.8334 33.8902 36.8335C33.7893 36.8336 33.6915 36.8337 33.5971 36.8337C33.1701 36.834 32.8144 36.834 32.562 36.834C32.5547 36.834 32.5473 36.834 32.54 36.834C32.07 36.8338 31.6197 36.8265 31.1887 36.809C31.1828 36.8088 31.1769 36.8085 31.1711 36.8083ZM34.0189 35.8402C34.0719 35.9066 34.1231 35.9726 34.1718 36.0374C34.2909 36.1959 34.3953 36.3475 34.476 36.482C34.8391 36.2336 35.1897 35.9603 35.5296 35.6639C35.6494 35.5594 35.7679 35.4521 35.8852 35.342C36.2013 35.0451 36.5084 34.7279 36.808 34.392C36.9031 34.5752 37.0027 34.7459 37.1067 34.9036C37.2123 35.0635 37.3224 35.2099 37.437 35.342C37.4685 35.3784 37.5003 35.4136 37.5325 35.4478C37.5618 35.4789 37.5913 35.5091 37.6212 35.5383C37.7034 35.619 37.7878 35.6927 37.8742 35.7592C38.1621 35.9807 38.473 36.1219 38.8056 36.1737C38.9007 36.1885 38.9974 36.196 39.096 36.196C39.1546 36.196 39.2119 36.1949 39.268 36.1926C39.2991 36.1913 39.3297 36.1897 39.36 36.1877C39.6388 36.1692 39.8861 36.1189 40.1057 36.0274C40.1084 36.0263 40.1112 36.0251 40.1139 36.024C40.1836 35.9945 40.2506 35.9609 40.3148 35.9227C40.3806 35.8837 40.4436 35.8399 40.504 35.7911C40.5281 35.7716 40.5518 35.7513 40.575 35.7302C40.9094 35.4265 41.1579 34.9525 41.3466 34.2462C41.371 34.1548 41.3944 34.0596 41.4169 33.9603C41.4369 33.8718 41.4562 33.7801 41.4748 33.685C41.4904 33.6055 41.5054 33.5236 41.52 33.4394C41.5478 33.2789 41.5739 33.1098 41.5984 32.9317C41.6057 32.8784 41.6129 32.8243 41.62 32.7693C41.6374 32.6333 41.6541 32.4922 41.67 32.346C41.621 32.3253 41.5709 32.3026 41.52 32.2782C41.2579 32.1526 40.9729 31.9798 40.7007 31.7805C40.6169 31.7191 40.5342 31.6552 40.4539 31.5894C40.2531 31.4251 40.0664 31.2488 39.91 31.07C39.9014 31.3175 39.8908 31.5472 39.8784 31.7597C39.8778 31.7701 39.8772 31.7805 39.8766 31.7908C39.8759 31.8018 39.8752 31.8127 39.8746 31.8236C39.8676 31.9369 39.8601 32.0452 39.852 32.1484C39.8471 32.2106 39.842 32.2711 39.8367 32.3297C39.8294 32.41 39.8217 32.4869 39.8137 32.5605C39.8043 32.6459 39.7944 32.7268 39.7839 32.8032C39.7817 32.819 39.7795 32.8347 39.7773 32.8502C39.7722 32.8857 39.767 32.9201 39.7617 32.9535C39.7474 33.0432 39.7322 33.1256 39.7161 33.201C39.7049 33.2536 39.6932 33.3027 39.681 33.3485C39.6153 33.5962 39.5363 33.7437 39.4434 33.7971C39.4168 33.8124 39.389 33.82 39.36 33.82C39.3267 33.82 39.2937 33.8151 39.2608 33.8054C39.2054 33.7891 39.1505 33.7592 39.096 33.7163C39.0937 33.7146 39.0915 33.7128 39.0893 33.711C38.9923 33.6327 38.8966 33.5135 38.8017 33.3568C38.7507 33.2725 38.6998 33.1773 38.6492 33.0718C38.611 32.9923 38.5729 32.9069 38.5348 32.8159C38.484 32.6944 38.4333 32.5629 38.3826 32.4219C38.3812 32.418 38.3798 32.4141 38.3784 32.4101C38.3683 32.3818 38.3581 32.3531 38.348 32.324C38.4151 32.2192 38.4815 32.1134 38.547 32.0066C38.623 31.8826 38.6979 31.7572 38.7716 31.6305C38.8741 31.4544 38.9743 31.2758 39.0724 31.0947C39.0728 31.0938 39.0733 31.0929 39.0738 31.0921C39.0828 31.0753 39.0919 31.0586 39.1009 31.0418C39.1445 30.9606 39.1877 30.879 39.2304 30.7969C39.2397 30.779 39.2489 30.7612 39.2582 30.7433C39.2924 30.677 39.3263 30.6104 39.36 30.5435C39.4152 30.4338 39.4695 30.3233 39.5231 30.2121C39.5299 30.198 39.5366 30.184 39.5434 30.1699C39.5457 30.1651 39.5479 30.1604 39.5502 30.1556C39.6009 30.0496 39.6508 29.9429 39.7 29.8355C39.8194 29.575 39.9345 29.3104 40.0451 29.042C40.0785 28.9611 40.1115 28.8798 40.1441 28.7982C40.1482 28.7879 40.1523 28.7775 40.1564 28.7672C40.365 28.2427 40.5568 27.7046 40.7313 27.1552C40.7621 27.0585 40.7922 26.9614 40.8219 26.864C40.858 26.7452 40.8934 26.6259 40.9279 26.5061C40.9333 26.4874 40.9386 26.4687 40.944 26.45L38.942 25.922C38.9309 25.9598 38.9196 25.9976 38.9082 26.0355C38.8316 26.2904 38.7492 26.5453 38.6615 26.7989C38.654 26.8206 38.6465 26.8423 38.6389 26.864C38.5832 27.0232 38.5254 27.1819 38.4656 27.3399C38.3709 27.5896 38.2712 27.8374 38.1666 28.0823C38.0373 28.3849 37.9006 28.683 37.757 28.9747C37.7459 28.9972 37.7348 29.0196 37.7237 29.042C37.6973 29.0949 37.6708 29.1476 37.644 29.2C37.6356 29.1477 37.6272 29.095 37.6189 29.042C37.6182 29.0377 37.6175 29.0334 37.6168 29.0291C37.5606 28.6704 37.5062 28.2975 37.455 27.9118C37.4206 27.6535 37.3876 27.3895 37.3563 27.1203C37.3464 27.0354 37.3367 26.95 37.3272 26.864C37.305 26.6644 37.2839 26.462 37.2637 26.2572C37.2528 26.1458 37.2422 26.0337 37.2319 25.9208C37.2286 25.8842 37.2253 25.8475 37.222 25.8108C37.2101 25.6768 37.1987 25.5419 37.1878 25.4061C37.187 25.3961 37.1862 25.3861 37.1854 25.3761C37.1766 25.2654 37.1681 25.154 37.16 25.042H41.186V22.864H39.382L40.944 22.006C40.932 21.982 40.9195 21.9577 40.9064 21.9329C40.8718 21.8674 40.8334 21.7993 40.7918 21.7289C40.6657 21.5159 40.5093 21.2826 40.3352 21.042C40.261 20.9396 40.1836 20.8358 40.104 20.7316C39.8744 20.4316 39.6261 20.1288 39.382 19.847C39.2704 19.7182 39.1596 19.5937 39.052 19.476L37.292 20.4C37.3992 20.5221 37.5084 20.6522 37.6174 20.7877C37.6841 20.8706 37.7508 20.9556 37.817 21.042C38.043 21.3369 38.2632 21.6479 38.4593 21.9503C38.5187 22.0418 38.5759 22.1325 38.6304 22.2218C38.7521 22.4212 38.8603 22.6132 38.9494 22.7901C38.962 22.815 38.9742 22.8397 38.986 22.864H37.028C37.0268 22.8336 37.0257 22.8032 37.0245 22.7728C37.0201 22.6549 37.0159 22.5367 37.012 22.4184C37.004 22.1767 36.9969 21.9342 36.9908 21.6911C36.9881 21.5833 36.9855 21.4754 36.9832 21.3675C36.9809 21.2605 36.9788 21.1534 36.9769 21.0462C36.9747 20.9249 36.9727 20.8035 36.971 20.6821C36.9668 20.3794 36.9641 20.0763 36.9628 19.773C36.9627 19.7415 36.9625 19.71 36.9624 19.6785C36.9621 19.5817 36.962 19.4848 36.962 19.388H34.542C34.5524 19.9401 34.5678 20.4922 34.5857 21.042C34.5957 21.3468 34.6064 21.6509 34.6176 21.9539C34.627 22.2118 34.6368 22.4688 34.6466 22.7247C34.6484 22.7712 34.6502 22.8176 34.652 22.864H30.912V32.39C30.7358 32.4872 30.5646 32.5828 30.3989 32.6753C30.3626 32.6955 30.3265 32.7157 30.2907 32.7357C30.2335 32.7675 30.177 32.799 30.1213 32.83C30.1208 32.8302 30.1204 32.8298 30.12 32.83C30.003 32.895 29.8891 32.9587 29.7786 33.019C29.7691 33.0242 29.7596 33.0293 29.7501 33.0345C29.5628 33.1363 29.3852 33.2304 29.218 33.314L30.318 35.404C30.3856 35.3621 30.4538 35.3197 30.5225 35.2767C30.8375 35.0799 31.1638 34.8725 31.4979 34.6574C31.4992 34.6565 31.5006 34.6556 31.502 34.6547C31.6623 34.5515 31.8244 34.4465 31.9879 34.34C32.1564 34.2302 32.3265 34.1189 32.4976 34.0063C32.519 33.9922 32.5405 33.9781 32.562 33.9639C32.6058 33.9351 32.6497 33.9061 32.6937 33.8771C33.0227 33.66 33.3548 33.4391 33.687 33.2168C33.831 33.1204 33.975 33.0237 34.1188 32.9271C34.1654 32.8957 34.212 32.8644 34.2585 32.8331C34.2643 32.8292 34.27 32.8253 34.2758 32.8215C34.3077 32.8 34.3396 32.7785 34.3715 32.757C34.4692 32.6911 34.5668 32.6253 34.6641 32.5595C34.681 32.5481 34.6979 32.5366 34.7149 32.5252C34.7807 32.4807 34.8464 32.4362 34.912 32.3918C34.9698 32.3526 35.0275 32.3135 35.0851 32.2745C35.1533 32.2283 35.2214 32.1821 35.2892 32.1361C35.3483 32.096 35.4072 32.0559 35.466 32.016L34.74 30.146L33.222 31.048V25.042H34.806C34.8103 25.0987 34.8146 25.1552 34.8191 25.2116C34.8288 25.3359 34.8389 25.4596 34.8494 25.5828C34.8655 25.7729 34.8825 25.9617 34.9003 26.1492C34.9037 26.1856 34.9072 26.2219 34.9108 26.2582C34.9112 26.2624 34.9116 26.2666 34.912 26.2708C34.931 26.4659 34.9509 26.6594 34.9718 26.8512C35.0104 27.2066 35.0522 27.5564 35.0974 27.8996C35.1725 28.471 35.2567 29.0244 35.3503 29.5565C35.351 29.5604 35.3517 29.5644 35.3524 29.5683C35.3712 29.675 35.3904 29.7809 35.41 29.8859C35.4502 30.1015 35.492 30.3133 35.5354 30.5211C35.5406 30.5457 35.5457 30.5702 35.5509 30.5947C35.5834 30.748 35.6168 30.8992 35.6511 31.048C35.7157 31.3288 35.7836 31.6014 35.8548 31.8651C35.8566 31.8717 35.8584 31.8784 35.8602 31.885C35.8677 31.9125 35.8751 31.9399 35.8827 31.9672C35.8831 31.9688 35.8836 31.9704 35.884 31.972C35.8727 31.9861 35.8614 32.0002 35.8501 32.0142C35.8496 32.0148 35.8491 32.0154 35.8487 32.016C35.7794 32.1019 35.7095 32.1867 35.6389 32.2704C35.5664 32.3563 35.4933 32.441 35.4194 32.5245C35.3271 32.6288 35.2338 32.7311 35.1393 32.8316C35.127 32.8446 35.1147 32.8577 35.1023 32.8707C35.0163 32.9614 34.9294 33.0504 34.8416 33.1378C34.7624 33.2165 34.6824 33.294 34.6017 33.37C34.5716 33.3984 34.5414 33.4266 34.5111 33.4545C34.3337 33.6183 34.1527 33.7753 33.9682 33.9252C33.7003 34.1429 33.4248 34.3456 33.1419 34.5322C33.0665 34.582 32.9905 34.6306 32.914 34.678C33.037 34.7797 33.1731 34.906 33.3133 35.047C33.34 35.0738 33.3668 35.1012 33.3937 35.129C33.4601 35.1975 33.527 35.2689 33.5936 35.342C33.5963 35.345 33.5989 35.3479 33.6016 35.3509C33.7457 35.5095 33.8879 35.6762 34.0189 35.8402ZM38.1708 15.5739C37.7894 15.4531 37.3833 15.388 36.962 15.388H34.542C33.468 15.388 32.4392 15.8199 31.687 16.5864C31.3447 16.9352 31.0728 17.34 30.88 17.7788C30.8399 17.7707 30.7996 17.7631 30.759 17.7561C30.1346 16.3604 28.7339 15.388 27.106 15.388H24.708C23.086 15.388 21.6895 16.3534 21.0617 17.741C19.1315 18.0254 17.65 19.6887 17.65 21.698V23.5044C17.1792 24.1605 16.902 24.9649 16.902 25.834V28.122C16.902 29.06 17.2249 29.9227 17.7656 30.6048C17.7873 33.0829 17.5273 35.0571 16.8275 36.2927C16.287 37.247 16.162 38.3814 16.4818 39.4305C16.784 40.4217 17.4583 41.2547 18.3593 41.7572C18.3698 41.7657 18.3822 41.7759 18.3963 41.7879C18.4252 41.8125 18.4573 41.8412 18.4909 41.8728C18.5614 41.9389 18.6195 42.0002 18.657 42.0431C18.6587 42.045 18.6602 42.0469 18.6617 42.0486C19.4043 43.176 20.6678 43.8548 22.0221 43.848C23.2798 43.8416 24.4533 43.2449 25.1999 42.2508C27.5119 43.1741 30.068 43.342 32.54 43.342H40.504C40.8723 43.342 41.2309 43.2917 41.5726 43.1971C42.2164 43.6366 42.9937 43.892 43.826 43.892C45.0633 43.892 46.9703 43.8902 48.6776 43.0571C49.3584 43.5938 50.2178 43.914 51.152 43.914H53.506C54.4019 43.914 55.2289 43.6195 55.8957 43.122H56.695C57.3393 43.566 58.1203 43.826 58.962 43.826H61.426C62.2701 43.826 63.0531 43.5646 63.6985 43.1182C64.3682 43.5898 65.1774 43.8522 66.0221 43.848C67.2799 43.8416 68.4533 43.2449 69.1999 42.2508C71.5119 43.1741 74.068 43.342 76.54 43.342H84.504C85.7589 43.342 86.9018 42.7584 87.6421 41.8228C88.3162 43.0806 89.6432 43.936 91.17 43.936H93.7C94.5691 43.936 95.3735 43.6588 96.0296 43.188H99.6499C100.275 43.5917 101.019 43.826 101.818 43.826H104.48C105.646 43.826 106.696 43.327 107.427 42.5308C107.951 43.1645 108.664 43.6264 109.471 43.8432C110.54 44.1302 111.68 43.9615 112.62 43.3772C113.418 42.881 114.164 42.3286 114.857 41.7141C115.311 41.9109 115.803 42.0239 116.308 42.0416C117.015 43.1501 118.247 43.8727 119.627 43.8916C121.193 43.9131 123.243 43.8831 125.052 43.0305C126.242 42.4763 127.248 41.5593 127.847 40.2489C127.888 40.2884 127.93 40.327 127.973 40.3649C128.09 40.4676 128.345 40.7186 128.629 41.0349C128.762 41.183 128.879 41.3201 128.97 41.4326C129.048 41.5302 129.08 41.5764 129.081 41.5762C129.081 41.5764 129.081 41.5762 129.081 41.5762C130.246 43.3832 132.632 43.9461 134.483 42.8482C134.834 42.64 135.177 42.4221 135.511 42.1958C136.655 43.1009 138.092 43.738 139.878 43.738C140.796 43.738 141.859 43.6028 142.885 43.1429C143.55 43.6294 144.368 43.914 145.246 43.914C146.214 43.914 147.188 43.8929 148.081 43.7929C148.953 43.6952 150.017 43.4966 151.039 42.9857C151.354 42.8284 151.659 42.6441 151.949 42.4305C152.924 43.6362 154.524 44.1804 156.051 43.7887C158.336 43.203 160.3 42.3612 161.809 41.1598C162.345 42.7361 163.838 43.87 165.596 43.87H168.302C170.349 43.87 172.036 42.3328 172.273 40.35H172.944C175.153 40.35 176.944 38.5591 176.944 36.35V34.282C176.944 32.7557 176.089 31.429 174.832 30.7547V26.3551C176.053 25.6703 176.878 24.3635 176.878 22.864V20.796C176.878 18.5869 175.087 16.796 172.878 16.796H169.927C169.439 16.3619 168.847 16.0487 168.198 15.8935L165.712 15.2995C164.124 14.9202 162.51 15.5456 161.577 16.796H160.897C160.455 16.4217 159.931 16.1435 159.358 15.9886L156.916 15.3286C155.434 14.928 153.899 15.4149 152.913 16.497C152.222 15.9278 151.337 15.586 150.372 15.586H147.82C146.294 15.586 144.967 16.4409 144.293 17.698H143.64C143.245 17.698 142.864 17.7552 142.504 17.8616C141.858 17.2761 141.208 16.7465 140.68 16.3426C139.704 15.5967 138.475 15.3599 137.34 15.6247C136.909 15.4696 136.451 15.388 135.984 15.388H133.3C132.231 15.388 131.207 15.8157 130.456 16.5757C130.21 16.8239 130 17.1009 129.83 17.3986L129.461 17.1242C128.499 16.4089 127.267 16.1627 126.104 16.4534L126.054 16.466H117.944C117.586 16.466 117.239 16.5131 116.908 16.6014C116.275 16.046 115.478 15.6999 114.626 15.6239L112.162 15.4039C110.05 15.2153 108.158 16.7069 107.849 18.8042C107.83 18.9344 107.81 19.0664 107.789 19.2001C106.773 18.3154 105.697 17.4892 104.788 16.855C103.675 16.0786 102.258 15.9277 101.024 16.4182C100.312 15.7648 99.3625 15.366 98.32 15.366H95.68C94.5614 15.366 93.5501 15.8251 92.8242 16.5652L92.7031 16.5262C90.9822 15.9726 89.1039 16.6419 88.121 18.159C87.9904 18.3606 87.8277 18.5723 87.6396 18.7867C87.0888 18.0135 86.4681 17.2844 86.0041 16.7769C85.0178 15.6981 83.5462 15.2632 82.1708 15.5739C81.7894 15.4531 81.3833 15.388 80.962 15.388H78.542C77.468 15.388 76.4392 15.8199 75.687 16.5864C75.3447 16.9352 75.0728 17.34 74.88 17.7788C74.8399 17.7707 74.7996 17.7631 74.759 17.7561C74.1346 16.3604 72.7339 15.388 71.106 15.388H68.708C67.086 15.388 65.6895 16.3534 65.0617 17.741C64.9676 17.7548 64.8746 17.772 64.7827 17.7923C64.5145 17.6574 64.2289 17.5517 63.9303 17.4796C63.2526 16.2337 61.9321 15.388 60.414 15.388H57.95C57.3531 15.388 56.7867 15.5188 56.278 15.7532C55.7692 15.5188 55.2029 15.388 54.606 15.388H52.186C51.4246 15.388 50.7128 15.6008 50.107 15.9701C49.5011 15.6008 48.7894 15.388 48.028 15.388H45.52C44.177 15.388 42.9885 16.0499 42.2631 17.0653C42.1727 16.9629 42.086 16.8665 42.0041 16.7769C41.0178 15.6981 39.5462 15.2632 38.1708 15.5739ZM43.5112 38.4528C43.4739 38.3303 43.4345 38.2085 43.3936 38.0893C43.3007 37.8182 43.2003 37.5608 43.1 37.34C43.3435 37.3525 43.5905 37.3614 43.826 37.3673C44.0077 37.3719 44.1825 37.3746 44.3435 37.3758C44.7092 37.3784 45.0038 37.3729 45.146 37.362C45.3421 37.362 45.4532 37.3135 45.4974 37.1533C45.5114 37.1027 45.5187 37.0409 45.5198 36.966C45.5199 36.9588 45.52 36.9515 45.52 36.944V31.906C45.0103 32.0498 44.5083 32.1935 44.028 32.3327C43.9668 32.3504 43.906 32.368 43.8456 32.3856C43.6786 32.4341 43.5145 32.482 43.3539 32.529C43.2607 32.5563 43.1687 32.5833 43.078 32.61L42.528 30.08C42.5645 30.0723 42.6014 30.0645 42.6387 30.0564C42.7125 30.0406 42.7877 30.024 42.8644 30.0069C42.9842 29.9801 43.1075 29.9517 43.2338 29.922C43.5021 29.8589 43.7844 29.7894 44.0779 29.7147C44.1072 29.7073 44.1366 29.6998 44.1661 29.6922C44.2145 29.6798 44.2632 29.6673 44.3122 29.6547C44.3965 29.6329 44.4816 29.6107 44.5675 29.5881C44.6593 29.564 44.752 29.5395 44.8455 29.5146C45.066 29.4558 45.2912 29.3948 45.52 29.332V25.922H42.968V23.524H45.52V19.388H48.028V23.524H49.722V25.922H48.028V28.65L49.634 28.21L49.832 29.596C49.8334 29.5951 49.8349 29.5943 49.8363 29.5934C49.8868 29.5627 49.9372 29.5316 49.9875 29.5002C50.2357 29.3449 50.4813 29.1803 50.7229 29.008C50.7588 28.9824 50.7945 28.9567 50.8302 28.9308C50.9564 28.8392 51.0814 28.7455 51.2051 28.65C51.2467 28.6179 51.2881 28.5856 51.3294 28.5531C51.5375 28.3891 51.7417 28.22 51.9409 28.0471C51.9639 28.0271 51.9869 28.007 52.0098 27.9869C52.0158 27.9816 52.0219 27.9762 52.028 27.9709C52.0742 27.9302 52.12 27.8894 52.1656 27.8483C52.1724 27.8422 52.1792 27.8361 52.186 27.83C52.1984 27.8188 52.2108 27.8075 52.2232 27.7963C52.6178 27.4378 52.9903 27.0651 53.333 26.6876C53.3981 26.6158 53.4622 26.5439 53.5252 26.4718C53.5873 26.4008 53.6482 26.3296 53.708 26.2584C53.7513 26.2069 53.794 26.1554 53.836 26.1038C53.888 26.0401 53.9391 25.9763 53.9892 25.9125C54.0645 25.8168 54.1375 25.7212 54.2081 25.6258C54.2318 25.5938 54.2552 25.5619 54.2784 25.53C54.3189 25.4741 54.3587 25.4183 54.3975 25.3627C54.4005 25.3584 54.4034 25.3542 54.4064 25.35C54.4217 25.328 54.4369 25.306 54.452 25.284H52.186V23.59H49.744V21.368H52.186V19.388H54.606V21.368H57.95V19.388H60.414V21.368H62.988V23.59H60.414V25.35H57.95V23.59H54.606V25.064C54.694 24.91 54.782 24.756 54.87 24.624H57.246C57.3514 24.7719 57.4604 24.9187 57.5726 25.064C57.6467 25.16 57.7222 25.2553 57.7991 25.35C57.804 25.356 57.8089 25.362 57.8138 25.368C57.8579 25.4222 57.9026 25.4762 57.9476 25.53C57.9484 25.531 57.9492 25.5319 57.95 25.5328C57.9627 25.548 57.9755 25.5632 57.9883 25.5784C58.1164 25.7299 58.2478 25.8795 58.3824 26.027C58.4573 26.109 58.5332 26.1904 58.61 26.271C58.6698 26.3337 58.7301 26.396 58.7909 26.4579C59.2109 26.8848 59.6565 27.2897 60.12 27.6652C60.1477 27.6877 60.1755 27.71 60.2034 27.7323C60.2732 27.7881 60.3434 27.8432 60.414 27.8976C60.5756 28.0222 60.7392 28.1431 60.9043 28.2601C60.9906 28.3212 61.0773 28.3813 61.1644 28.4402C61.367 28.5772 61.5718 28.7082 61.7781 28.8326C61.8484 28.875 61.9189 28.9166 61.9896 28.9574C62.0127 28.9708 62.0358 28.984 62.0589 28.9972C62.2394 29.1 62.4208 29.1976 62.6029 29.2897C62.7472 29.3627 62.8919 29.4322 63.0369 29.4981C63.1657 29.5566 63.2946 29.6123 63.4237 29.6649C63.4764 29.6865 63.5292 29.7075 63.582 29.728C63.425 29.9123 63.2681 30.1304 63.1157 30.366C62.9943 30.5537 62.8759 30.7524 62.7627 30.9539C62.6878 31.0871 62.6153 31.2215 62.5457 31.3547C62.503 31.4364 62.4615 31.5177 62.4212 31.598C62.3491 31.7416 62.2811 31.882 62.218 32.016C62.1051 31.9581 61.9918 31.8983 61.8783 31.8366C61.8366 31.814 61.795 31.7911 61.7533 31.7679C61.6539 31.7127 61.5544 31.6561 61.4548 31.598C61.4452 31.5924 61.4356 31.5868 61.426 31.5811C60.8255 31.2291 60.2242 30.824 59.644 30.366V31.598H52.824V30.41C52.5092 30.6633 52.1864 30.906 51.8566 31.136C51.6266 31.2963 51.3933 31.4505 51.1568 31.598C51.1552 31.599 51.1536 31.6 51.152 31.601C51.1272 31.6165 51.1023 31.6319 51.0774 31.6472C50.9346 31.735 50.7907 31.8204 50.6458 31.9032C50.6388 31.9072 50.6317 31.9112 50.6247 31.9152C50.4096 32.0376 50.1922 32.1542 49.9727 32.2646C49.9624 32.2698 49.9522 32.2749 49.942 32.28C49.9411 32.2779 49.9402 32.2758 49.9394 32.2738C49.8564 32.077 49.7493 31.842 49.6249 31.598C49.5779 31.5057 49.5283 31.4122 49.4767 31.319C49.4428 31.2577 49.4079 31.1966 49.3723 31.136C49.3673 31.1276 49.3624 31.1192 49.3574 31.1108C49.3098 31.0307 49.2608 30.9517 49.2107 30.875C49.1906 30.8443 49.1704 30.8139 49.15 30.784L48.028 31.136V36.966C48.028 37.779 47.9417 38.3589 47.7042 38.7761C47.5713 39.0097 47.391 39.1922 47.152 39.3361C47.1362 39.3456 47.1202 39.3549 47.104 39.364C46.9108 39.4811 46.6958 39.5733 46.4556 39.6455C46.1312 39.743 45.761 39.8042 45.3367 39.8412C45.2743 39.8466 45.2107 39.8515 45.146 39.8559C44.942 39.8699 44.7262 39.8791 44.4977 39.8847C44.285 39.8899 44.0613 39.892 43.826 39.892C43.7889 39.4962 43.6683 38.9682 43.5112 38.4528ZM51.152 39.914H53.506V39.122H58.962V39.826H61.426V32.918H51.152V39.914ZM53.506 37.054H58.962V34.986H53.506V37.054ZM65.2578 35.8171C65.1094 36.4051 64.9218 36.9721 64.6865 37.507C64.6398 37.6132 64.5912 37.7181 64.5407 37.8216C64.4673 37.972 64.3898 38.1196 64.308 38.264C64.362 38.291 64.4193 38.3236 64.479 38.3608C64.7723 38.5441 65.1226 38.8406 65.426 39.1493C65.6634 39.3909 65.872 39.64 66.002 39.848C66.0963 39.6936 66.1862 39.5363 66.2719 39.3763C66.5425 38.8707 66.7711 38.3383 66.9652 37.7882C67.1824 37.1726 67.3565 36.535 67.498 35.888C67.4993 35.89 67.5007 35.8921 67.502 35.8941C67.5648 35.9899 67.6286 36.0832 67.6936 36.174C68.0693 36.6991 68.4822 37.141 68.936 37.512C69.0541 37.6086 69.175 37.7004 69.2987 37.7876C69.5741 37.9816 69.8636 38.1529 70.1679 38.3039C70.3051 38.3719 70.4452 38.4358 70.5885 38.4958C70.6924 38.5393 70.7979 38.5807 70.9051 38.6202C71.4827 38.8329 72.1083 38.9882 72.7858 39.0989C73.511 39.2175 74.2959 39.285 75.1452 39.3175C75.3176 39.3241 75.4927 39.3293 75.6704 39.3331C75.9534 39.3392 76.2432 39.342 76.54 39.342H84.504C84.6284 38.7975 84.8739 38.033 85.1548 37.4218C85.2712 37.1687 85.3936 36.942 85.516 36.768C85.2468 36.7775 84.9019 36.7856 84.504 36.7926C84.2017 36.7979 83.8687 36.8025 83.5152 36.8065C83.4639 36.8071 83.4121 36.8077 83.36 36.8083C83.2731 36.8092 83.185 36.8101 83.096 36.811C82.4589 36.8172 81.7715 36.8217 81.0856 36.825C80.9687 36.8256 80.8518 36.8261 80.7352 36.8266C80.6841 36.8268 80.633 36.827 80.5821 36.8272C80.2067 36.8287 79.8357 36.8299 79.4775 36.8308C79.2156 36.8315 78.9605 36.832 78.7158 36.8324C78.5559 36.8327 78.4004 36.8329 78.2502 36.8331C78.1264 36.8333 78.0062 36.8334 77.8902 36.8335C77.7893 36.8336 77.6915 36.8337 77.5971 36.8337C77.1701 36.834 76.8144 36.834 76.562 36.834C76.5547 36.834 76.5473 36.834 76.54 36.834C76.07 36.8338 75.6197 36.8265 75.1887 36.809C75.1828 36.8088 75.177 36.8085 75.1711 36.8083C75.1656 36.8081 75.1602 36.8079 75.1547 36.8076C75.0895 36.8049 75.0247 36.8019 74.9603 36.7987C74.8795 36.7946 74.7993 36.7902 74.7198 36.7853C74.5153 36.7728 74.3154 36.7576 74.12 36.7392C73.8866 36.7172 73.6597 36.6908 73.4391 36.6592C73.1391 36.6164 72.8508 36.564 72.574 36.5006C72.4958 36.4826 72.4184 36.4638 72.3419 36.4441C72.0487 36.3683 71.7688 36.279 71.502 36.174V32.83H74.12V30.564H71.502V28.122H74.406V25.834H71.106V23.986H74.076V21.698H71.106V19.388H68.708V21.698H65.65V23.986H68.708V25.834H64.902V28.122H69.148V34.436C68.8079 34.0032 68.5113 33.4944 68.2505 32.8944C68.2413 32.873 68.232 32.8516 68.2229 32.83C68.1278 32.6067 68.0375 32.371 67.9517 32.122C67.9471 32.1087 67.9426 32.0954 67.938 32.082C67.9394 32.0255 67.9408 31.969 67.9421 31.9126C67.949 31.6014 67.953 31.2905 67.9542 30.9808C67.9547 30.8416 67.9546 30.7026 67.9539 30.564C67.9528 30.3194 67.9498 30.0759 67.945 29.834C67.943 29.7324 67.9407 29.631 67.938 29.53L65.738 29.398C65.7403 29.4611 65.7426 29.5243 65.7447 29.5877C65.7474 29.6695 65.7499 29.7516 65.7522 29.834C65.7682 30.4071 65.7736 30.9937 65.7613 31.5844C65.7582 31.7314 65.754 31.8786 65.7487 32.0259C65.7475 32.0579 65.7463 32.09 65.745 32.122C65.7427 32.18 65.7402 32.238 65.7374 32.2961C65.7289 32.4784 65.7184 32.6608 65.7058 32.843C65.6929 33.0292 65.6777 33.2151 65.6601 33.4005C65.653 33.4755 65.6454 33.5504 65.6374 33.6252C65.6168 33.8188 65.5934 34.0116 65.5669 34.2034C65.5562 34.2812 65.5449 34.3587 65.5332 34.436C65.5014 34.6452 65.4658 34.853 65.426 35.0588C65.4027 35.1794 65.378 35.2993 65.3518 35.4185C65.3224 35.5524 65.2911 35.6853 65.2578 35.8171ZM74.912 32.39C74.7358 32.4872 74.5646 32.5828 74.399 32.6752C74.3626 32.6955 74.3265 32.7157 74.2907 32.7357C74.2335 32.7675 74.177 32.799 74.1213 32.83C74.1208 32.8302 74.1204 32.8298 74.12 32.83C74.003 32.895 73.8891 32.9587 73.7786 33.019C73.7691 33.0242 73.7596 33.0293 73.7501 33.0345C73.5628 33.1363 73.3852 33.2304 73.218 33.314L74.318 35.404C74.3856 35.3621 74.4538 35.3197 74.5225 35.2767C74.8375 35.0799 75.1638 34.8725 75.4979 34.6574C75.4992 34.6565 75.5006 34.6556 75.502 34.6547C75.6623 34.5515 75.8244 34.4465 75.9879 34.34C76.1564 34.2302 76.3265 34.1189 76.4976 34.0063C76.519 33.9922 76.5405 33.9781 76.562 33.9639C76.6058 33.9351 76.6497 33.9061 76.6937 33.8771C77.0227 33.66 77.3548 33.4391 77.687 33.2168C77.831 33.1204 77.975 33.0237 78.1188 32.9271C78.1654 32.8957 78.212 32.8644 78.2585 32.8331C78.2643 32.8292 78.27 32.8253 78.2758 32.8215C78.3077 32.8 78.3396 32.7785 78.3715 32.757C78.4692 32.6911 78.5668 32.6253 78.6641 32.5595C78.681 32.5481 78.6979 32.5366 78.7149 32.5252C78.7807 32.4807 78.8464 32.4362 78.912 32.3918C78.9698 32.3526 79.0275 32.3135 79.0851 32.2745C79.1533 32.2283 79.2214 32.1821 79.2892 32.1361C79.3483 32.096 79.4072 32.0559 79.466 32.016L78.74 30.146L77.222 31.048V25.042H78.806C78.8103 25.0987 78.8146 25.1552 78.8191 25.2116C78.8288 25.3359 78.8389 25.4596 78.8494 25.5828C78.8655 25.7729 78.8825 25.9617 78.9003 26.1492C78.9037 26.1856 78.9072 26.2219 78.9108 26.2582C78.9112 26.2624 78.9116 26.2666 78.912 26.2708C78.931 26.4659 78.9509 26.6594 78.9718 26.8512C79.0104 27.2066 79.0522 27.5564 79.0974 27.8996C79.1725 28.471 79.2567 29.0244 79.3503 29.5565C79.351 29.5604 79.3517 29.5644 79.3524 29.5683C79.3712 29.675 79.3904 29.7809 79.41 29.8859C79.4502 30.1015 79.492 30.3133 79.5354 30.5211C79.5406 30.5457 79.5457 30.5702 79.5509 30.5947C79.5834 30.748 79.6168 30.8992 79.6511 31.048C79.7157 31.3288 79.7836 31.6014 79.8548 31.8651C79.8566 31.8717 79.8584 31.8783 79.8602 31.885C79.8677 31.9125 79.8751 31.9399 79.8827 31.9672C79.8831 31.9688 79.8836 31.9704 79.884 31.972C79.8727 31.9861 79.8614 32.0002 79.8501 32.0142C79.8496 32.0148 79.8491 32.0154 79.8487 32.016C79.7794 32.1019 79.7095 32.1867 79.6389 32.2704C79.5664 32.3563 79.4933 32.441 79.4194 32.5245C79.3271 32.6288 79.2338 32.7311 79.1393 32.8316C79.127 32.8446 79.1147 32.8577 79.1023 32.8707C79.0163 32.9614 78.9294 33.0504 78.8416 33.1378C78.7624 33.2165 78.6824 33.294 78.6017 33.37C78.5716 33.3984 78.5414 33.4266 78.5111 33.4545C78.3337 33.6183 78.1527 33.7753 77.9682 33.9252C77.7003 34.1429 77.4248 34.3456 77.1419 34.5322C77.0665 34.582 76.9905 34.6306 76.914 34.678C77.037 34.7797 77.1731 34.906 77.3133 35.047C77.34 35.0738 77.3668 35.1012 77.3937 35.129C77.4601 35.1975 77.527 35.2689 77.5936 35.342C77.5963 35.345 77.5989 35.3479 77.6016 35.3509C77.7457 35.5095 77.8879 35.6762 78.0189 35.8402C78.0719 35.9066 78.1231 35.9726 78.1718 36.0374C78.2909 36.1959 78.3953 36.3475 78.476 36.482C78.8391 36.2336 79.1897 35.9603 79.5296 35.6639C79.6494 35.5594 79.7679 35.4521 79.8852 35.342C80.2013 35.0451 80.5084 34.7279 80.808 34.392C80.9031 34.5752 81.0027 34.7459 81.1068 34.9036C81.2123 35.0635 81.3224 35.2099 81.437 35.342C81.4685 35.3784 81.5003 35.4136 81.5325 35.4478C81.5618 35.4789 81.5913 35.5091 81.6212 35.5383C81.7034 35.619 81.7878 35.6927 81.8742 35.7592C82.1621 35.9807 82.473 36.1219 82.8056 36.1737C82.9007 36.1885 82.9975 36.196 83.096 36.196C83.187 36.196 83.275 36.1933 83.36 36.1877C83.6388 36.1692 83.886 36.1189 84.1057 36.0274C84.1084 36.0263 84.1112 36.0251 84.1139 36.024C84.1836 35.9945 84.2506 35.9609 84.3148 35.9227C84.3806 35.8837 84.4436 35.8399 84.504 35.7911C84.8745 35.4913 85.1447 35.0016 85.3466 34.2462C85.371 34.1548 85.3944 34.0596 85.4169 33.9603C85.4193 33.9499 85.4216 33.9394 85.424 33.9288C85.4993 33.5902 85.5639 33.2054 85.6199 32.7693C85.6313 32.6807 85.6424 32.59 85.6531 32.4972C85.6588 32.4474 85.6644 32.397 85.67 32.346C85.3692 32.2188 85.0259 32.0185 84.7007 31.7805C84.6169 31.7191 84.5342 31.6552 84.4539 31.5894C84.2773 31.4448 84.1116 31.2911 83.9678 31.1344C83.9481 31.113 83.9288 31.0915 83.91 31.07C83.9086 31.1102 83.9071 31.1499 83.9056 31.1891C83.8979 31.3916 83.8888 31.5817 83.8784 31.7597C83.8781 31.7648 83.8778 31.7699 83.8775 31.775C83.8772 31.7802 83.8769 31.7855 83.8766 31.7908C83.8759 31.8018 83.8752 31.8127 83.8746 31.8236C83.8676 31.9369 83.8601 32.0452 83.852 32.1484C83.8471 32.2106 83.842 32.2711 83.8367 32.3297C83.8294 32.41 83.8217 32.4869 83.8137 32.5605C83.8043 32.6459 83.7944 32.7268 83.7839 32.8032C83.7817 32.819 83.7795 32.8347 83.7773 32.8502C83.7722 32.8857 83.767 32.9201 83.7617 32.9535C83.7474 33.0432 83.7322 33.1256 83.7161 33.201C83.644 33.5385 83.5535 33.7338 83.4434 33.7971C83.4168 33.8124 83.389 33.82 83.36 33.82C83.2707 33.82 83.1828 33.7846 83.096 33.7163C83.0938 33.7146 83.0915 33.7128 83.0892 33.711C82.9923 33.6327 82.8966 33.5135 82.8017 33.3568C82.7507 33.2725 82.6998 33.1773 82.6492 33.0718C82.611 32.9923 82.5729 32.9069 82.5348 32.8159C82.484 32.6944 82.4333 32.5629 82.3826 32.4219C82.3812 32.418 82.3798 32.4141 82.3784 32.4101C82.3683 32.3818 82.3581 32.3531 82.348 32.324C82.4151 32.2192 82.4815 32.1134 82.547 32.0066C82.7286 31.7103 82.9038 31.4062 83.0724 31.0947C83.0728 31.0938 83.0733 31.0929 83.0738 31.0921C83.0828 31.0753 83.0919 31.0586 83.1009 31.0418C83.1313 30.9852 83.1615 30.9284 83.1915 30.8713C83.2138 30.8288 83.2361 30.7861 83.2582 30.7433C83.2924 30.677 83.3263 30.6104 83.36 30.5435C83.4152 30.4338 83.4695 30.3233 83.5231 30.2121C83.5299 30.198 83.5366 30.184 83.5434 30.1699C83.5456 30.1651 83.5479 30.1604 83.5502 30.1556C83.6009 30.0496 83.6508 29.9429 83.7 29.8355C83.8194 29.575 83.9345 29.3104 84.0451 29.042C84.0785 28.9611 84.1115 28.8798 84.1441 28.7982C84.2978 28.4132 84.4425 28.0208 84.578 27.622C84.6254 27.4823 84.6717 27.3419 84.7169 27.2007C84.7217 27.1855 84.7265 27.1704 84.7313 27.1552C84.7621 27.0585 84.7922 26.9614 84.8219 26.864C84.858 26.7452 84.8934 26.6259 84.9279 26.5061C84.9333 26.4874 84.9386 26.4687 84.944 26.45L82.942 25.922C82.9309 25.9598 82.9196 25.9976 82.9082 26.0355C82.8316 26.2904 82.7492 26.5453 82.6615 26.7989C82.654 26.8206 82.6465 26.8423 82.6389 26.864C82.5832 27.0232 82.5254 27.1819 82.4656 27.3399C82.3709 27.5896 82.2712 27.8374 82.1666 28.0823C82.0373 28.3849 81.9006 28.683 81.757 28.9747C81.7459 28.9972 81.7348 29.0196 81.7236 29.042C81.6973 29.0949 81.6708 29.1476 81.644 29.2C81.6356 29.1477 81.6272 29.095 81.6189 29.042C81.6182 29.0377 81.6175 29.0334 81.6168 29.0291C81.5605 28.6704 81.5062 28.2975 81.455 27.9118C81.4206 27.6535 81.3876 27.3895 81.3563 27.1203C81.3464 27.0354 81.3367 26.95 81.3272 26.864C81.305 26.6644 81.2839 26.462 81.2637 26.2572C81.2528 26.1458 81.2422 26.0337 81.2319 25.9208C81.2286 25.8842 81.2253 25.8475 81.222 25.8108C81.2101 25.6768 81.1987 25.5419 81.1878 25.4061C81.187 25.3961 81.1862 25.3861 81.1854 25.3761C81.1766 25.2654 81.1681 25.154 81.16 25.042H85.186V22.864H83.382L84.944 22.006C84.932 21.982 84.9195 21.9577 84.9064 21.9329C84.8718 21.8674 84.8334 21.7992 84.7918 21.7289C84.6936 21.5631 84.5772 21.3851 84.4483 21.2009C84.4116 21.1484 84.3738 21.0954 84.3352 21.042C84.0473 20.6443 83.7108 20.2265 83.382 19.847C83.2704 19.7182 83.1596 19.5937 83.052 19.476L81.292 20.4C81.3992 20.5221 81.5084 20.6522 81.6174 20.7877C81.6841 20.8706 81.7508 20.9556 81.817 21.042C82.043 21.3369 82.2632 21.6479 82.4593 21.9503C82.5187 22.0418 82.5759 22.1325 82.6304 22.2218C82.7521 22.4212 82.8603 22.6132 82.9494 22.7901C82.962 22.815 82.9742 22.8397 82.986 22.864H81.028C81.0268 22.8336 81.0257 22.8032 81.0245 22.7728C81.0201 22.6549 81.0159 22.5367 81.012 22.4184C81.004 22.1767 80.9969 21.9342 80.9908 21.6911C80.9881 21.5833 80.9855 21.4754 80.9832 21.3675C80.9809 21.2605 80.9788 21.1534 80.9769 21.0462C80.9747 20.9249 80.9727 20.8035 80.971 20.6821C80.9668 20.3794 80.9641 20.0763 80.9628 19.773C80.9627 19.7415 80.9625 19.71 80.9624 19.6785C80.9621 19.5817 80.962 19.4848 80.962 19.388H78.542C78.5524 19.9401 78.5678 20.4922 78.5857 21.042C78.5957 21.3468 78.6064 21.6509 78.6176 21.9539C78.627 22.2118 78.6368 22.4688 78.6466 22.7247C78.6484 22.7712 78.6502 22.8176 78.652 22.864H74.912V32.39ZM91.17 39.936H93.7V39.188H101.818V39.826H104.48V28.518H97.44C97.5919 28.4527 97.7427 28.3861 97.8921 28.3182C97.9694 28.2831 98.0464 28.2476 98.123 28.2118C98.1312 28.208 98.1395 28.2041 98.1478 28.2002C98.1544 28.1971 98.1609 28.194 98.1675 28.191C98.3915 28.0857 98.6125 27.9774 98.8303 27.8661C98.9664 27.7965 99.1012 27.7258 99.2346 27.6538C99.3226 27.6064 99.4099 27.5585 99.4967 27.51C99.6094 27.4471 99.7211 27.3832 99.8317 27.3185C100.099 27.1624 100.359 27.0012 100.613 26.8347C100.774 26.7294 100.932 26.622 101.087 26.5125C101.104 26.5003 101.121 26.4882 101.138 26.476C101.495 26.2215 101.837 25.9556 102.162 25.678C102.311 25.5506 102.457 25.4207 102.599 25.2883C102.673 25.2191 102.746 25.1493 102.818 25.0787C103.004 24.8964 103.183 24.7095 103.354 24.518C103.356 24.5167 103.357 24.5153 103.358 24.514L100.85 23.392C100.765 23.4907 100.678 23.5879 100.587 23.6836C100.535 23.7375 100.483 23.7909 100.43 23.8439C100.374 23.8991 100.318 23.9538 100.26 24.008C100.074 24.1835 99.8764 24.3535 99.6693 24.518C99.6591 24.5261 99.6488 24.5342 99.6385 24.5424C99.354 24.7666 99.0511 24.9807 98.7323 25.1846C98.4122 25.3894 98.0759 25.5838 97.726 25.768C98.0112 25.5399 98.1762 25.2378 98.257 24.8139C98.2747 24.7212 98.2884 24.6228 98.2983 24.518C98.3076 24.4208 98.3138 24.3181 98.3171 24.2096C98.319 24.1445 98.32 24.0774 98.32 24.008V19.366H95.68V23.92C95.68 23.952 95.6786 23.9813 95.6756 24.008C95.6521 24.22 95.5281 24.272 95.196 24.272C95.0065 24.2832 94.5574 24.2887 94.0115 24.2828C93.8373 24.2809 93.6533 24.2779 93.4647 24.2735C93.426 24.2726 93.3871 24.2717 93.348 24.2706C93.2351 24.2677 93.1209 24.2643 93.0066 24.2604C92.7654 24.252 92.5238 24.2414 92.292 24.228C92.4256 24.4284 92.5692 24.6714 92.7076 24.9316C92.7216 24.9578 92.7355 24.9842 92.7493 25.0108C93.005 25.5016 93.2374 26.0433 93.348 26.472C93.498 26.472 93.6445 26.4718 93.7876 26.4712C93.8607 26.4708 93.9329 26.4704 94.0042 26.4698C94.3082 26.4672 94.5963 26.4617 94.8698 26.4508C94.9809 26.4464 95.0896 26.441 95.196 26.4346C95.2386 26.432 95.2808 26.4293 95.3227 26.4263C95.7409 26.397 96.1227 26.349 96.4739 26.2708C96.6797 26.225 96.8749 26.1688 97.0609 26.0999C96.8807 26.1873 96.6971 26.2724 96.5103 26.3556C96.419 26.3962 96.3269 26.4364 96.234 26.476C95.9452 26.5993 95.6491 26.7178 95.3466 26.8317C95.2965 26.8505 95.2464 26.8692 95.196 26.8878C94.8153 27.0281 94.4246 27.1611 94.0251 27.2872C94.0176 27.2895 94.01 27.2919 94.0025 27.2943C93.9022 27.3258 93.8014 27.357 93.7 27.3876C93.6964 27.3887 93.6927 27.3898 93.6891 27.3909C93.6573 27.4006 93.6254 27.4101 93.5935 27.4197C93.512 27.444 93.4302 27.4681 93.348 27.4918C92.9344 27.6115 92.5127 27.7242 92.0842 27.8301C91.7463 27.9136 91.4041 27.993 91.0584 28.0682C90.9226 28.0978 90.7862 28.1267 90.6493 28.155C90.5688 28.1717 90.4881 28.1881 90.4072 28.2043C90.3616 28.2135 90.3159 28.2226 90.2701 28.2316C90.1143 28.2623 89.9578 28.2923 89.8008 28.3215C89.3662 28.4022 88.9275 28.4771 88.4858 28.5462C88.2726 28.5796 88.0588 28.6117 87.8444 28.6424C87.6771 28.6664 87.5095 28.6896 87.3416 28.712C87.2943 28.7184 87.2469 28.7246 87.1995 28.7308C87.0053 28.7563 86.8108 28.7806 86.616 28.804C86.7248 28.9276 86.8491 29.0801 86.9803 29.249C87.1362 29.4499 87.3018 29.674 87.4624 29.9003C87.583 30.0702 87.7007 30.2413 87.8093 30.4049C87.8301 30.4362 87.8506 30.4673 87.8708 30.498C88.0112 30.7126 88.1333 30.9104 88.222 31.07C88.6129 31.0092 89.0004 30.9415 89.3872 30.8684C89.4915 30.8486 89.5957 30.8285 89.7 30.808C90.0412 30.7408 90.3824 30.6697 90.7255 30.5955C90.8733 30.5636 91.0214 30.531 91.17 30.498V39.936ZM101.818 37.252V36.174H93.7V37.252H101.818ZM101.818 34.392V33.27H93.7V34.392H101.818ZM101.818 31.51V30.476H93.7V31.51H101.818ZM89.0368 26.1282C89.7444 25.6633 90.483 25.0893 91.1923 24.444C91.3792 24.2741 91.564 24.0992 91.7457 23.92C91.8073 23.8593 91.8685 23.7981 91.9293 23.7364C92.0704 23.5933 92.2093 23.4478 92.3455 23.3001C92.8108 22.7956 93.2445 22.2661 93.6252 21.7252C93.7597 21.534 93.8876 21.3414 94.008 21.148L91.478 20.334C91.1319 20.8682 90.6957 21.3998 90.2003 21.9051C89.8837 22.228 89.5429 22.5402 89.1859 22.8354C89.1744 22.845 89.1628 22.8545 89.1512 22.864C89.0268 22.9662 88.9006 23.0663 88.7727 23.164C88.6386 23.2666 88.5028 23.3665 88.3656 23.4636C88.2163 23.5693 88.0655 23.6715 87.9135 23.77C87.7889 23.8507 87.6637 23.9289 87.5379 24.0044C87.3268 24.131 87.1144 24.2499 86.902 24.36C87.0182 24.4494 87.1517 24.5588 87.2947 24.6803C87.4022 24.7715 87.515 24.8696 87.63 24.9711C87.6565 24.9946 87.6832 25.0182 87.7099 25.042C88.0446 25.3397 88.3904 25.6597 88.6675 25.9203C88.7664 26.0134 88.8566 26.0988 88.9344 26.173C88.939 26.1774 88.9435 26.1817 88.948 26.186C88.9775 26.1669 89.0071 26.1476 89.0368 26.1282ZM102.32 22.9719C102.749 23.3468 103.163 23.7302 103.541 24.1046C103.557 24.1203 103.573 24.136 103.589 24.1517C103.712 24.275 103.832 24.3974 103.947 24.518C104.14 24.7206 104.319 24.9184 104.48 25.1086C104.629 25.2846 104.764 25.4541 104.88 25.6147C104.901 25.6441 104.922 25.6732 104.942 25.702L107.208 24.272C107.183 24.2406 107.158 24.209 107.132 24.177C107.018 24.0375 106.892 23.8927 106.755 23.744C106.315 23.2648 105.768 22.7451 105.177 22.2293C104.988 22.0649 104.795 21.9009 104.6 21.7387C104.474 21.6343 104.347 21.5307 104.219 21.4282C103.64 20.962 103.05 20.5193 102.5 20.136L100.388 21.412C100.648 21.6043 100.915 21.8095 101.184 22.0236C101.252 22.0778 101.32 22.1327 101.389 22.1881C101.701 22.4409 102.014 22.7043 102.32 22.9719ZM108.88 23.744V26.142H110.596C110.576 26.2382 110.556 26.3343 110.536 26.4303C110.53 26.4595 110.524 26.4888 110.518 26.518C110.432 26.9306 110.345 27.34 110.259 27.744C110.115 28.4154 109.97 29.0716 109.826 29.7013C109.792 29.8497 109.758 29.9967 109.724 30.142C109.699 30.2486 109.675 30.3542 109.65 30.459C109.489 31.1411 109.329 31.7839 109.173 32.3715C109.133 32.5217 109.093 32.6683 109.054 32.811C109.04 32.8619 109.026 32.9122 109.012 32.962L111.168 34.084L111.344 33.402C111.362 33.4153 111.381 33.4286 111.399 33.442C111.424 33.4601 111.449 33.4782 111.474 33.4965C111.534 33.541 111.595 33.586 111.656 33.6313C111.707 33.6695 111.758 33.7079 111.809 33.7465C111.929 33.8374 112.049 33.9295 112.169 34.0223C112.29 34.1158 112.411 34.2099 112.532 34.304C112.51 34.3425 112.488 34.3807 112.465 34.4188C112.425 34.4865 112.385 34.5535 112.344 34.6198C112.223 34.8165 112.097 35.0071 111.967 35.1915C111.956 35.2072 111.945 35.2228 111.934 35.2385C111.846 35.3622 111.756 35.483 111.664 35.6009C111.363 35.987 111.04 36.3419 110.697 36.6637C110.442 36.9018 110.176 37.1218 109.898 37.3229C109.731 37.4436 109.56 37.5574 109.384 37.6643C109.308 37.7108 109.231 37.756 109.153 37.7999C109.084 37.8383 109.016 37.8757 108.946 37.912C109.282 38.22 109.68 38.7063 110.016 39.1893C110.208 39.4652 110.38 39.74 110.508 39.98C110.998 39.6755 111.46 39.3451 111.895 38.9853C112.502 38.4834 113.057 37.9243 113.564 37.298C113.571 37.289 113.578 37.28 113.585 37.271C113.608 37.2426 113.631 37.2142 113.653 37.1855C113.855 36.9298 114.049 36.6631 114.236 36.3847C114.326 36.2496 114.415 36.1118 114.501 35.9711C114.505 35.9654 114.508 35.9597 114.512 35.954C114.516 35.9579 114.52 35.9617 114.524 35.9656C114.562 36.0017 114.6 36.0377 114.638 36.0737C114.716 36.1483 114.793 36.2226 114.869 36.2966C115.116 36.5386 115.35 36.7768 115.566 37.0081C115.726 37.1788 115.876 37.3458 116.015 37.5078C116.175 37.6937 116.32 37.8731 116.448 38.044L118.032 35.932C118.031 35.9312 118.031 35.9304 118.03 35.9296C117.976 35.8608 117.92 35.7911 117.86 35.7207C117.545 35.3483 117.154 34.9548 116.712 34.5522C116.694 34.5359 116.676 34.5195 116.658 34.5031C116.616 34.4653 116.574 34.4273 116.531 34.3893C116.448 34.3146 116.362 34.2396 116.275 34.1644C116.262 34.1528 116.248 34.1413 116.235 34.1297C116.048 33.9683 115.854 33.8061 115.656 33.644C115.746 33.4197 115.832 33.1902 115.915 32.9555C115.973 32.7934 116.029 32.6288 116.083 32.4617C116.101 32.4075 116.118 32.353 116.135 32.2982C116.311 31.7412 116.471 31.1562 116.614 30.542C116.795 29.768 116.951 28.9475 117.081 28.078C117.13 27.7532 117.176 27.4216 117.218 27.0831C117.229 26.9978 117.239 26.9121 117.249 26.8259C117.26 26.7318 117.271 26.6372 117.282 26.542C117.286 26.5032 117.29 26.4644 117.295 26.4254C117.372 25.7166 117.436 24.9784 117.486 24.2098C117.489 24.166 117.491 24.122 117.494 24.078C117.498 24.0255 117.501 23.9728 117.504 23.92L115.92 23.678L115.48 23.744H113.5C113.504 23.7265 113.507 23.7089 113.511 23.6914C113.511 23.6872 113.512 23.683 113.513 23.6788C113.521 23.6387 113.529 23.5986 113.537 23.5585C113.544 23.5235 113.551 23.4885 113.558 23.4536C113.645 23.0129 113.73 22.5748 113.813 22.142C113.857 21.9071 113.901 21.6737 113.944 21.4422C114.005 21.1124 114.064 20.7866 114.121 20.466C114.164 20.2235 114.206 19.984 114.246 19.748C114.246 19.7467 114.247 19.7454 114.247 19.744C114.255 19.6985 114.262 19.6532 114.27 19.608L111.806 19.388C111.675 20.2747 111.516 21.2286 111.34 22.2117C111.321 22.3162 111.302 22.4209 111.283 22.526C111.238 22.7737 111.193 23.023 111.146 23.2732C111.137 23.3242 111.127 23.3753 111.118 23.4263C111.098 23.5321 111.078 23.638 111.058 23.744H108.88ZM112.672 27.6574C112.538 28.2843 112.403 28.9027 112.269 29.5104C112.226 29.7018 112.184 29.8922 112.142 30.0815C112.074 30.3847 112.006 30.685 111.938 30.982C112.053 31.0539 112.169 31.1279 112.286 31.2037C112.38 31.2648 112.475 31.327 112.57 31.3904C112.621 31.4243 112.672 31.4585 112.723 31.493C112.948 31.6451 113.175 31.8029 113.402 31.9648C113.438 31.9899 113.473 32.0151 113.508 32.0404C113.522 32.0506 113.537 32.0609 113.551 32.0712C113.556 32.0748 113.561 32.0784 113.566 32.082C113.568 32.0767 113.57 32.0714 113.572 32.066C113.652 31.8508 113.728 31.6314 113.801 31.4079C113.893 31.1258 113.98 30.8372 114.062 30.542C114.07 30.5127 114.078 30.4834 114.086 30.4539C114.114 30.3508 114.142 30.2468 114.168 30.142C114.337 29.4854 114.482 28.7974 114.607 28.078C114.614 28.0374 114.621 27.9967 114.628 27.9559C114.64 27.8856 114.652 27.8149 114.663 27.744C114.727 27.3487 114.786 26.9441 114.838 26.5303C114.855 26.4018 114.871 26.2723 114.886 26.142H112.994C112.961 26.3009 112.927 26.4594 112.894 26.6174C112.84 26.8719 112.786 27.1252 112.732 27.3772C112.712 27.4708 112.692 27.5642 112.672 27.6574ZM117.944 22.886H124.786C124.433 23.4148 124.031 23.9579 123.614 24.466C123.396 24.7327 123.174 24.9898 122.953 25.2301C122.86 25.3319 122.766 25.4307 122.674 25.526H121.86V28.078H117.218V30.542H121.86V36.966C121.86 36.9735 121.86 36.9808 121.86 36.988C121.855 37.2782 121.741 37.362 121.376 37.362C121.151 37.376 120.595 37.3722 119.931 37.3561C119.861 37.3544 119.789 37.3526 119.717 37.3506C119.401 37.342 119.066 37.331 118.736 37.318C119.11 38.044 119.55 39.166 119.682 39.892C119.811 39.8938 119.936 39.8948 120.06 39.8951C120.537 39.896 120.974 39.8847 121.376 39.8546C121.428 39.8506 121.48 39.8464 121.531 39.8418C122.253 39.7773 122.854 39.6462 123.356 39.408C124.214 39.012 124.456 38.308 124.456 36.988V30.542H129.296V28.078H124.456V26.824C124.553 26.7323 124.651 26.6382 124.749 26.542C124.761 26.5298 124.774 26.5175 124.786 26.5052C125.097 26.1976 125.41 25.8687 125.721 25.526C125.938 25.2871 126.153 25.0416 126.365 24.7918C126.458 24.6836 126.549 24.5745 126.64 24.4649C126.691 24.4033 126.742 24.3416 126.793 24.2797C126.803 24.2677 126.813 24.2557 126.822 24.2437C126.858 24.1999 126.894 24.1561 126.929 24.1122C126.939 24.1008 126.948 24.0894 126.957 24.078C127.083 23.9214 127.208 23.7642 127.331 23.6069C127.475 23.4228 127.616 23.2387 127.754 23.0553C127.999 22.73 128.234 22.4072 128.456 22.0922C128.519 22.0024 128.582 21.9133 128.643 21.8248C128.693 21.7527 128.742 21.6811 128.79 21.61L127.074 20.334L126.546 20.466H117.944V22.886ZM130.858 27.946L133.806 27.616C133.808 27.6302 133.81 27.6443 133.812 27.6585C133.812 27.6594 133.812 27.6602 133.812 27.6611C133.832 27.8128 133.852 27.9639 133.873 28.1143C133.875 28.1268 133.877 28.1393 133.879 28.1517C133.925 28.4798 133.974 28.8045 134.025 29.1254C134.027 29.138 134.029 29.1507 134.031 29.1634C134.044 29.2468 134.058 29.33 134.072 29.4129C134.234 30.3938 134.421 31.3372 134.629 32.2287C134.642 32.2833 134.655 32.3377 134.668 32.3919C134.701 32.5305 134.734 32.6679 134.768 32.8039C134.875 33.2297 134.987 33.6423 135.104 34.04C134.914 34.2296 134.72 34.4152 134.522 34.5965C134.474 34.6403 134.426 34.6839 134.377 34.7272C134.279 34.8154 134.179 34.9025 134.079 34.9886C134.05 35.0132 134.021 35.0378 133.993 35.0622C133.084 35.832 132.1 36.5168 131.076 37.1055C130.924 37.1931 130.77 37.2787 130.616 37.362C131.166 37.846 132.09 38.858 132.442 39.408C132.609 39.309 132.774 39.2067 132.938 39.1013C133.089 39.0048 133.238 38.9058 133.385 38.8042C133.949 38.4172 134.497 37.9937 135.033 37.5396C135.239 37.3656 135.443 37.1872 135.645 37.0046C135.803 36.8622 135.96 36.7173 136.116 36.57C136.356 37.0444 136.61 37.4748 136.879 37.8548C137.451 38.6616 138.091 39.2409 138.808 39.5297C139.147 39.6664 139.503 39.738 139.878 39.738C139.945 39.738 140.011 39.7369 140.076 39.7347C140.436 39.7221 140.756 39.6732 141.041 39.5751C141.6 39.3825 142.024 38.9998 142.349 38.3279C142.444 38.132 142.53 37.9116 142.61 37.664C142.827 36.9847 142.988 36.1016 143.112 34.964C143.025 34.934 142.934 34.8982 142.842 34.8575C142.516 34.7137 142.165 34.508 141.835 34.2757C141.62 34.1245 141.415 33.9621 141.231 33.798C141.132 33.71 141.04 33.6215 140.956 33.534C140.951 33.6239 140.947 33.7119 140.942 33.798C140.923 34.1335 140.902 34.4403 140.878 34.7201C140.845 35.1026 140.808 35.4343 140.766 35.7187C140.723 35.998 140.676 36.2317 140.622 36.4232C140.597 36.5108 140.571 36.5895 140.544 36.6597C140.517 36.7268 140.49 36.7862 140.461 36.838C140.353 37.0308 140.226 37.12 140.076 37.12C140.01 37.12 139.944 37.111 139.878 37.0932C139.57 37.0106 139.26 36.7388 138.954 36.3056C138.927 36.2666 138.899 36.2262 138.872 36.1846C138.804 36.0818 138.737 35.971 138.67 35.8528C138.655 35.827 138.641 35.8009 138.626 35.7744C138.564 35.6626 138.503 35.5444 138.443 35.4202C138.439 35.4131 138.436 35.406 138.432 35.3989C138.303 35.1339 138.176 34.8415 138.052 34.524C138.309 34.2246 138.558 33.9182 138.801 33.6051C138.846 33.5471 138.891 33.4889 138.935 33.4304C138.969 33.3866 139.002 33.3427 139.035 33.2986C139.043 33.2872 139.052 33.2758 139.06 33.2644C139.113 33.1936 139.166 33.1224 139.218 33.0509C139.361 32.8546 139.502 32.656 139.64 32.4549C139.777 32.2555 139.911 32.0537 140.042 31.8497C140.246 31.5332 140.443 31.2112 140.633 30.8841C140.651 30.8531 140.669 30.8221 140.687 30.7911C140.789 30.6153 140.888 30.438 140.985 30.2592C141.112 30.0266 141.235 29.7915 141.355 29.554C141.53 29.209 141.697 28.859 141.857 28.5042C141.894 28.4211 141.931 28.3377 141.968 28.254L139.504 27.506C139.428 27.6858 139.349 27.8645 139.267 28.0422C139.186 28.2201 139.101 28.3969 139.015 28.5725C138.775 29.0582 138.517 29.5348 138.242 30.0006C137.993 30.4228 137.731 30.8362 137.458 31.2393C137.371 31.3673 137.283 31.4942 137.194 31.62C137.167 31.5069 137.141 31.3928 137.115 31.2777C136.989 30.7254 136.872 30.1501 136.764 29.5516C136.721 29.317 136.681 29.0788 136.641 28.8371C136.59 28.5217 136.542 28.2003 136.496 27.8728C136.495 27.8612 136.493 27.8496 136.491 27.838C136.468 27.6703 136.446 27.5009 136.424 27.33L142.914 26.604L142.672 24.14L136.16 24.866C136.147 24.697 136.135 24.5269 136.124 24.356C136.101 24.0222 136.082 23.685 136.064 23.3453C136.056 23.1872 136.048 23.0284 136.041 22.8692C136.035 22.7236 136.029 22.5776 136.024 22.4313C136.013 22.1478 136.005 21.8632 135.998 21.5779C135.992 21.3392 135.988 21.1001 135.985 20.8608C135.984 20.8426 135.984 20.8245 135.984 20.8064C135.982 20.6328 135.981 20.4591 135.98 20.2854C135.979 19.986 135.98 19.6867 135.984 19.388H133.3C133.315 20.7262 133.351 22.0644 133.43 23.388C133.432 23.4188 133.434 23.4496 133.436 23.4804C133.439 23.5311 133.442 23.5817 133.446 23.6323C133.466 23.9508 133.489 24.2684 133.515 24.5849C133.528 24.744 133.541 24.9028 133.556 25.0613C133.558 25.0916 133.561 25.1218 133.564 25.152L130.616 25.46L130.858 27.946ZM139.548 24.052C139.515 24.0047 139.48 23.956 139.443 23.9059C139.417 23.8712 139.39 23.8358 139.362 23.7998C139.293 23.7106 139.218 23.6178 139.138 23.5221C139.01 23.3702 138.87 23.2111 138.72 23.0482C138.65 22.9721 138.578 22.8951 138.505 22.8176C138.145 22.439 137.747 22.0479 137.353 21.682C137.203 21.5422 137.054 21.4061 136.907 21.2758C136.78 21.1624 136.655 21.0533 136.534 20.95L138.25 19.52C138.329 19.5807 138.41 19.6432 138.492 19.7074C138.795 19.9461 139.112 20.2072 139.424 20.4773C139.534 20.572 139.642 20.6678 139.75 20.7642C139.83 20.836 139.909 20.9081 139.987 20.9803C140.248 21.2217 140.496 21.4639 140.72 21.698C140.741 21.7199 140.761 21.7418 140.782 21.7635C141.024 22.0205 141.234 22.2666 141.396 22.49L139.548 24.052ZM143.64 21.698V33.798H146.148V21.698H143.64ZM144.522 37.3212C144.492 37.3202 144.462 37.3191 144.432 37.318C144.451 37.3581 144.471 37.3995 144.49 37.442C144.542 37.5537 144.593 37.6732 144.644 37.798C144.922 38.4857 145.176 39.3335 145.246 39.914C145.517 39.914 145.777 39.9122 146.024 39.9077C146.478 39.8996 146.893 39.8827 147.27 39.8526C147.316 39.8489 147.362 39.8449 147.408 39.8408C148.146 39.7737 148.736 39.6509 149.193 39.4356C149.201 39.432 149.208 39.4284 149.216 39.4247C149.227 39.4192 149.239 39.4136 149.25 39.408C149.369 39.3486 149.477 39.2838 149.574 39.2122C149.726 39.1008 149.852 38.9731 149.956 38.8234C150.256 38.3926 150.372 37.7803 150.372 36.856V19.586H147.82V36.856C147.82 37.23 147.666 37.34 147.27 37.362C147.175 37.362 147.013 37.362 146.802 37.3611C146.617 37.3604 146.394 37.3589 146.148 37.3562C145.871 37.3532 145.564 37.3486 145.246 37.3415C145.008 37.3362 144.764 37.3296 144.522 37.3212ZM165.596 39.87H168.302V36.35H172.944V34.282H168.302V32.94H170.832V24.492H168.874L170.348 23.832C170.248 23.6472 170.103 23.4441 169.935 23.2285C169.844 23.1104 169.745 22.9886 169.644 22.864H172.878V20.796H166.828C166.875 20.6963 166.921 20.5945 166.967 20.492C167.032 20.3464 167.096 20.1991 167.157 20.0538C167.196 19.9628 167.233 19.8726 167.268 19.784L164.782 19.19C164.737 19.3133 164.689 19.4366 164.638 19.5596C164.613 19.6193 164.588 19.6789 164.562 19.7384C164.474 19.9378 164.378 20.1361 164.275 20.3319C164.247 20.3855 164.219 20.4389 164.19 20.492C164.189 20.4929 164.189 20.4939 164.188 20.4948C164.132 20.5961 164.075 20.6965 164.016 20.796C163.883 21.0189 163.741 21.2371 163.592 21.4483C163.578 21.468 163.564 21.4876 163.55 21.5072C163.539 21.523 163.527 21.5389 163.516 21.5547C163.391 21.7264 163.26 21.8932 163.126 22.054C163.103 22.0807 163.081 22.1072 163.058 22.1336C162.939 22.2721 162.817 22.4058 162.692 22.534V20.796H157.83C157.837 20.7831 157.845 20.7702 157.852 20.7572C157.895 20.6813 157.936 20.6041 157.977 20.5264C158.039 20.4067 158.099 20.2856 158.158 20.1655C158.172 20.1377 158.186 20.1099 158.199 20.0822C158.238 20.0039 158.276 19.9263 158.314 19.85L155.872 19.19C155.817 19.3189 155.758 19.4479 155.696 19.5768C155.544 19.8928 155.372 20.2078 155.183 20.5173C155.182 20.518 155.182 20.5187 155.181 20.5194C154.991 20.8301 154.784 21.1352 154.564 21.4302C154.501 21.5146 154.437 21.5982 154.372 21.6808C154.265 21.8171 154.155 21.9508 154.042 22.0815C153.697 22.4826 153.33 22.8552 152.952 23.1858C152.797 23.3205 152.641 23.4482 152.484 23.568C152.88 23.78 153.448 24.1463 153.926 24.492C154.026 24.5642 154.122 24.6355 154.212 24.7043C154.268 24.7474 154.321 24.7895 154.372 24.8302C154.403 24.8548 154.432 24.879 154.46 24.9025C154.51 24.9436 154.555 24.9829 154.596 25.02C154.661 24.9619 154.726 24.902 154.791 24.8403C154.908 24.7296 155.026 24.6133 155.143 24.492C155.274 24.3578 155.404 24.2174 155.534 24.0715C155.573 24.0274 155.613 23.9828 155.652 23.9377C155.691 23.8933 155.729 23.8484 155.768 23.8031C155.852 23.7036 155.937 23.602 156.02 23.4985C156.048 23.4645 156.075 23.4303 156.103 23.3959C156.18 23.2988 156.257 23.2001 156.333 23.0999C156.392 23.0221 156.451 22.9435 156.51 22.864H156.972C157.099 23.0542 157.223 23.2558 157.339 23.4586C157.344 23.4678 157.349 23.477 157.354 23.4862C157.454 23.6612 157.547 23.8367 157.631 24.006C157.643 24.0307 157.655 24.0552 157.667 24.0796C157.672 24.0907 157.678 24.1017 157.683 24.1128C157.715 24.1796 157.745 24.2453 157.774 24.3093C157.793 24.3533 157.812 24.3966 157.83 24.439C157.837 24.4568 157.845 24.4745 157.852 24.492L156.992 24.492L155.652 24.492V32.94H158.336V34.282H153.1V36.35H157.5C157.476 36.3727 157.451 36.3952 157.425 36.4177C157.219 36.5978 156.966 36.7724 156.658 36.94C156.121 37.2317 155.417 37.502 154.501 37.7429C154.448 37.7569 154.394 37.7709 154.339 37.7847C154.043 37.8595 153.726 37.9314 153.386 38C153.488 38.0835 153.595 38.1787 153.702 38.282C153.868 38.4411 154.037 38.6192 154.2 38.8028C154.544 39.1915 154.86 39.6049 155.058 39.914C156.011 39.6697 156.818 39.3948 157.5 39.095C158.124 38.8208 158.643 38.5258 159.073 38.2142C159.107 38.1895 159.141 38.1646 159.174 38.1396C159.253 38.0802 159.328 38.0203 159.401 37.9599C160.005 37.4557 160.4 36.9134 160.646 36.35H165.596V39.87ZM168.06 29.09V28.276H158.292V29.09H168.06ZM168.06 31.378V30.564H158.292V31.378H168.06ZM165.596 32.94H160.976V34.282H165.596V32.94ZM168.06 26.824V26.054H158.292V26.824H168.06ZM163.55 24.492C163.432 24.4219 163.305 24.3492 163.173 24.276C163.017 24.189 162.854 24.1012 162.692 24.0162C162.588 23.9619 162.485 23.9088 162.384 23.8576C162.151 23.7398 161.928 23.6328 161.739 23.5476C161.703 23.5316 161.669 23.5164 161.636 23.502C161.662 23.4828 161.687 23.4635 161.712 23.4442C161.721 23.4378 161.729 23.4313 161.738 23.4248C161.963 23.2519 162.173 23.0746 162.384 22.864H159.656C159.808 23.1123 159.951 23.3606 160.064 23.5873C160.126 23.7127 160.179 23.8315 160.219 23.94C160.221 23.9447 160.223 23.9493 160.224 23.9539C160.226 23.9573 160.227 23.9606 160.228 23.964L160.223 23.9659L158.776 24.492H163.55ZM164.195 24.4853C164.192 24.4875 164.19 24.4898 164.188 24.492H167.95C167.916 24.4386 167.88 24.3835 167.843 24.3271C167.832 24.3102 167.821 24.2932 167.809 24.276C167.712 24.13 167.606 23.9759 167.493 23.8188C167.381 23.6626 167.262 23.5033 167.138 23.346C167.037 23.2172 166.933 23.0896 166.828 22.9659C166.799 22.9316 166.769 22.8976 166.74 22.864H165.574C165.443 23.0473 165.308 23.2247 165.171 23.3956C165.103 23.4815 165.033 23.5658 164.964 23.6483C164.832 23.8039 164.7 23.9534 164.568 24.0964C164.524 24.144 164.48 24.1909 164.436 24.237C164.424 24.25 164.412 24.2631 164.399 24.276C164.331 24.3476 164.262 24.4174 164.195 24.4853ZM58.61 29.53C58.5426 29.4703 58.4757 29.4103 58.4093 29.35C58.2533 29.2084 58.0999 29.0652 57.95 28.921C57.949 28.92 57.9479 28.919 57.9469 28.918C57.7081 28.6881 57.4781 28.4556 57.2599 28.2222C57.2553 28.2172 57.2506 28.2122 57.246 28.2073C57.2221 28.1817 57.1984 28.1561 57.1749 28.1305C57.0199 27.9622 56.8713 27.7936 56.7303 27.6254C56.7226 27.6163 56.715 27.6071 56.7073 27.598C56.7051 27.5953 56.7029 27.5927 56.7007 27.59C56.4988 27.3476 56.3127 27.1062 56.146 26.868C55.9976 27.0995 55.83 27.3358 55.6457 27.5748C55.6418 27.5798 55.6379 27.5849 55.634 27.59C55.6319 27.5927 55.6298 27.5953 55.6278 27.598C55.4749 27.7952 55.3108 27.9942 55.1369 28.1937C55.1076 28.2274 55.078 28.261 55.0481 28.2947C54.9898 28.3604 54.9304 28.4262 54.87 28.492C54.7395 28.6342 54.6045 28.7763 54.4654 28.918C54.4609 28.9225 54.4564 28.9271 54.452 28.9316C54.4115 28.9727 54.3708 29.0138 54.3296 29.0548C54.2528 29.1314 54.1748 29.2078 54.0958 29.284C54.0104 29.3663 53.9238 29.4484 53.836 29.53H58.61Z" fill="#23B2BD"/>
</svg>
