<svg width="193" height="59" viewBox="0 0 193 59" fill="none" xmlns="http://www.w3.org/2000/svg">
<path d="M0 29.5C0 13.2076 13.2076 0 29.5 0H163.5C179.792 0 193 13.2076 193 29.5C193 45.7924 179.792 59 163.5 59H29.5C13.2076 59 0 45.7924 0 29.5Z" fill="#4BC2CB"/>
<path fill-rule="evenodd" clip-rule="evenodd" d="M30 7C18.402 7 9 16.402 9 28H6C6 14.7452 16.7452 4 30 4H36C36.8284 4 37.5 4.67157 37.5 5.5C37.5 6.32843 36.8284 7 36 7H30Z" fill="#87D9DB"/>
<path d="M36.962 34.986V37.054H31.506V34.986H36.962ZM29.152 39.914H31.506V39.122H36.962V39.826H39.426V32.918H29.152V39.914ZM31.836 29.53C32.782 28.65 33.596 27.726 34.146 26.868C34.762 27.748 35.642 28.672 36.61 29.53H31.836ZM32.87 24.624C32.782 24.756 32.694 24.91 32.606 25.064V23.59H35.95V25.35H38.414V23.59H40.988V21.368H38.414V19.388H35.95V21.368H32.606V19.388H30.186V21.368H27.744V23.59H30.186V25.284H32.452C31.396 26.824 29.68 28.474 27.832 29.596L27.634 28.21L26.028 28.65V25.922H27.722V23.524H26.028V19.388H23.52V23.524H20.968V25.922H23.52V29.332C22.398 29.64 21.364 29.904 20.528 30.08L21.078 32.61C21.826 32.39 22.662 32.148 23.52 31.906V36.944C23.52 37.274 23.41 37.362 23.146 37.362C22.86 37.384 21.958 37.384 21.1 37.34C21.43 38.066 21.76 39.188 21.826 39.892C23.344 39.892 24.378 39.804 25.104 39.364C25.808 38.968 26.028 38.264 26.028 36.966V31.136L27.15 30.784C27.48 31.268 27.766 31.862 27.942 32.28C28.954 31.774 29.922 31.136 30.824 30.41V31.598H37.644V30.366C38.48 31.026 39.36 31.576 40.218 32.016C40.57 31.268 41.076 30.322 41.582 29.728C39.206 28.804 36.83 26.846 35.246 24.624H32.87Z" fill="white"/>
<path d="M47.742 31.334V29.992H51.57V31.334H47.742ZM47.742 26.692H51.57V28.034H47.742V26.692ZM58.104 26.692V28.034H54.254V26.692H58.104ZM58.104 31.334H54.254V29.992H58.104V31.334ZM63.032 34.612H54.254V33.424H60.744V24.602H54.254V23.546H62.394V21.17H54.254V19.388H51.57V21.17H43.584V23.546H51.57V24.602H45.234V33.424H51.57V34.612H43.056V36.966H51.57V39.936H54.254V36.966H63.032V34.612Z" fill="white"/>
<path d="M73.724 33.49V34.634H69.632V33.49H73.724ZM80.544 34.634H76.254V33.49H80.544V34.634ZM76.254 37.538V36.394H80.544V37.538H76.254ZM69.632 37.538V36.394H73.724V37.538H69.632ZM67.146 39.958H69.632V39.43H80.544V39.936H83.162V31.598H67.146V39.958ZM78.278 28.804H71.678V27.506H78.278V28.804ZM69.236 25.636V30.674H80.874V25.636H69.236ZM81.512 22.358C81.996 21.764 82.524 21.06 83.052 20.312L80.28 19.498C79.928 20.356 79.268 21.544 78.718 22.314L78.85 22.358H76.254V19.366H73.636V22.358H70.908L71.304 22.182C70.952 21.434 70.248 20.356 69.566 19.564L67.234 20.466C67.652 21.038 68.092 21.72 68.444 22.358H65.54V27.352H68.004V24.58H82.084V27.352H84.68V22.358H81.512Z" fill="white"/>
<path d="M92.116 35.58V30.652H101.884V35.58H92.116ZM101.884 23.326V28.056H92.116V23.326H101.884ZM89.41 20.686V39.65H92.116V38.22H101.884V39.606H104.7V20.686H89.41Z" fill="white"/>
<path d="M114.116 23.216H129.054V21.016H121.442V19.388H118.67V21.016H111.718V26.912C111.52 25.79 111.036 24.25 110.464 23.018L108.594 23.788C109.166 25.218 109.65 27.066 109.782 28.21L111.718 27.33V28.122C111.718 28.65 111.718 29.222 111.696 29.794C110.442 30.432 109.254 31.004 108.374 31.378L109.144 33.732C109.892 33.292 110.684 32.83 111.476 32.346C111.168 34.458 110.486 36.57 109.034 38.22C109.518 38.528 110.486 39.43 110.86 39.936C113.654 36.812 114.116 31.686 114.116 28.144V23.216ZM119.396 31.466H120.43V33.182H119.396V31.466ZM122.872 33.182H121.794V31.466H122.872V33.182ZM122.674 35.536C122.806 35.844 122.96 36.174 123.092 36.526L122.08 36.614V34.766H124.456V29.86H122.08V28.672C122.982 28.562 123.862 28.408 124.588 28.21L123.422 26.714C122.036 27.088 119.682 27.396 117.724 27.528C117.9 27.968 118.12 28.584 118.186 29.024C118.802 29.002 119.462 28.958 120.144 28.892V29.86H117.9V34.766H120.144V36.79C118.956 36.9 117.878 36.988 116.976 37.054L117.24 39.078C119.066 38.902 121.42 38.638 123.752 38.352C123.884 38.77 123.994 39.166 124.082 39.496L125.6 38.946C125.336 37.956 124.698 36.328 124.148 35.096L122.674 35.536ZM115.26 24.426V29.156C115.26 31.928 115.084 35.756 113.214 38.462C113.654 38.704 114.512 39.452 114.842 39.848C116.932 36.856 117.306 32.28 117.306 29.178V26.34H125.05C125.072 35.294 125.116 39.892 127.778 39.892C129.054 39.892 129.45 38.924 129.626 36.438C129.23 36.086 128.68 35.404 128.328 34.898C128.306 36.438 128.196 37.714 127.932 37.714C127.074 37.714 127.14 32.72 127.228 24.426H115.26Z" fill="white"/>
<path d="M137.04 19.806C136.644 20.4 136.16 21.038 135.588 21.654C135.016 20.972 134.356 20.29 133.52 19.652L131.628 21.104C132.53 21.852 133.256 22.6 133.828 23.414C132.794 24.316 131.694 25.152 130.66 25.724C131.188 26.296 131.826 27.352 132.156 28.034C133.058 27.396 134.07 26.56 135.016 25.658C135.28 26.34 135.456 27.066 135.588 27.792C134.488 29.684 132.596 31.598 130.858 32.544C131.364 33.116 132.024 34.128 132.332 34.766C133.498 33.93 134.73 32.698 135.808 31.378C135.786 33.886 135.588 35.91 135.148 36.526C134.972 36.768 134.774 36.878 134.444 36.922C133.938 36.966 133.102 36.988 131.914 36.9C132.398 37.67 132.64 38.616 132.662 39.496C133.828 39.562 134.818 39.54 135.698 39.32C136.27 39.188 136.776 38.88 137.106 38.418C138.14 37.076 138.404 34.172 138.404 31.158C138.404 28.54 138.184 26.032 136.952 23.678C137.722 22.798 138.448 21.918 138.998 21.082L137.04 19.806ZM146.39 36.526V30.894H150.614V28.43H146.39V23.392H150.812V20.906H139.328V23.392H143.684V28.43H139.592V30.894H143.684V36.526H138.316V39.012H151.142V36.526H146.39Z" fill="white"/>
<path d="M156.334 28.76C156.334 28.408 156.334 28.078 156.334 27.748V26.912H159.26V28.76H156.334ZM162.164 22.842V24.602H156.334V22.842H162.164ZM164.76 28.76H161.438V26.912H164.606V20.51H154.002V27.748C154.002 30.828 153.892 35.096 152.484 38.044C153.012 38.308 154.024 39.034 154.42 39.496C155.52 37.34 156.004 34.326 156.202 31.554V37.604H158.094V30.916H159.26V39.87H161.438V30.916H162.692V35.272C162.692 35.448 162.648 35.514 162.472 35.514C162.34 35.514 161.944 35.514 161.504 35.492C161.79 36.064 162.054 36.922 162.12 37.538C163 37.538 163.638 37.494 164.122 37.142C164.65 36.79 164.76 36.196 164.76 35.316V28.76ZM168.214 21.5H165.772V34.238H168.214V21.5ZM170.062 19.784V36.812C170.062 37.164 169.93 37.252 169.578 37.274C169.204 37.274 168.06 37.274 166.916 37.23C167.246 38 167.62 39.144 167.708 39.87C169.402 39.87 170.678 39.782 171.492 39.364C172.284 38.946 172.57 38.22 172.57 36.812V19.784H170.062Z" fill="white"/>
<path fill-rule="evenodd" clip-rule="evenodd" d="M39.426 32.918H29.152V39.914H31.506V39.122H36.962V39.826H39.426V32.918ZM36.962 34.986H31.506V37.054H36.962V34.986ZM34.695 43.122H33.8957C33.229 43.6195 32.4019 43.914 31.506 43.914H29.152C28.2178 43.914 27.3584 43.5938 26.6776 43.0571C24.9703 43.8903 23.0633 43.892 21.826 43.892C19.7615 43.892 18.0362 42.3209 17.8435 40.2654C17.8437 40.2681 17.8439 40.2695 17.8438 40.2695C17.8437 40.2695 17.8379 40.222 17.8169 40.1224C17.794 40.0137 17.7607 39.8791 17.7176 39.7292C17.6264 39.4117 17.5247 39.1409 17.4585 38.9952C16.8807 37.724 17.0076 36.2434 17.7935 35.089C17.8162 35.0556 17.8394 35.0226 17.8631 34.99C17.5296 34.5395 17.2909 34.0191 17.1693 33.4597L16.6193 30.9297C16.393 29.8886 16.5913 28.8003 17.1704 27.906C17.229 27.8155 17.2909 27.7278 17.3561 27.643C17.1073 27.1217 16.968 26.5381 16.968 25.922V23.524C16.968 21.8256 18.0266 20.3743 19.52 19.7942V19.388C19.52 17.1789 21.3109 15.388 23.52 15.388H26.028C26.7894 15.388 27.5012 15.6008 28.107 15.9701C28.7128 15.6008 29.4246 15.388 30.186 15.388H32.606C33.2029 15.388 33.7693 15.5188 34.278 15.7532C34.7867 15.5188 35.3531 15.388 35.95 15.388H38.414C39.9321 15.388 41.2526 16.2337 41.9303 17.4796C41.953 17.4851 41.9756 17.4908 41.9982 17.4967C42.4844 17.2865 43.0206 17.17 43.584 17.17H48.2408C48.9579 16.0957 50.1813 15.388 51.57 15.388H54.254C55.6427 15.388 56.8661 16.0957 57.5832 17.17H62.394C63.1081 17.17 63.7785 17.3572 64.3589 17.6851C64.7567 17.2738 65.2432 16.9473 65.791 16.7354L68.123 15.8334C69.2247 15.4073 70.4303 15.4972 71.4335 16.0265C72.0651 15.6091 72.8222 15.366 73.636 15.366H76.254C77.0355 15.366 77.7647 15.5902 78.3808 15.9777C79.2796 15.493 80.3601 15.3527 81.407 15.6601L84.179 16.4741C85.086 16.7404 85.858 17.3152 86.3731 18.0826C87.1067 17.2276 88.1951 16.686 89.41 16.686H104.7C106.283 16.686 107.65 17.6051 108.299 18.9386C109.001 17.7858 110.27 17.016 111.718 17.016H115.449C116.177 16.0286 117.349 15.388 118.67 15.388H121.442C122.763 15.388 123.935 16.0286 124.663 17.016H129.054C129.444 17.016 129.82 17.0718 130.177 17.1757L131.085 16.4788C132.355 15.504 134.065 15.391 135.437 16.1409C136.63 15.6202 138.053 15.6918 139.224 16.4548L139.916 16.906H150.812C151.21 16.906 151.594 16.964 151.956 17.0721C152.555 16.7151 153.254 16.51 154.002 16.51H164.606C165.482 16.51 166.292 16.7916 166.951 17.2693C167.685 16.3633 168.806 15.784 170.062 15.784H172.57C174.779 15.784 176.57 17.5749 176.57 19.784V36.812C176.57 37.7076 176.492 38.8635 176.021 39.996C175.475 41.3089 174.535 42.2812 173.359 42.9016L173.319 42.9223C172.301 43.445 171.239 43.6476 170.396 43.7465C169.526 43.8486 168.596 43.87 167.708 43.87C166.447 43.87 165.31 43.2832 164.573 42.3547C163.84 43.2779 162.708 43.87 161.438 43.87H159.26C158.236 43.87 157.302 43.4855 156.595 42.853C156.089 43.1806 155.509 43.3947 154.893 43.468C153.956 43.5795 153.023 43.3555 152.25 42.8565C151.898 42.9578 151.527 43.012 151.142 43.012H138.316C138.044 43.012 137.777 42.9848 137.52 42.9329C137.228 43.047 136.931 43.1386 136.636 43.2086C135.175 43.5684 133.716 43.5621 132.436 43.4896C131.845 43.4562 131.289 43.2953 130.795 43.0344C130.736 43.0723 130.677 43.1094 130.615 43.1456C129.619 43.7341 128.601 43.892 127.778 43.892C126.848 43.892 125.996 43.6884 125.243 43.3238C124.243 43.6271 123.161 43.5278 122.23 43.0416C122.007 42.9251 121.797 42.7887 121.603 42.6351C120.164 42.7999 118.793 42.9469 117.624 43.0596C117.482 43.0733 117.341 43.0793 117.201 43.0781C116.571 43.5386 115.811 43.8104 115.012 43.8444C114.277 43.8757 113.558 43.7035 112.928 43.3602C112.257 43.7652 111.474 43.969 110.674 43.9317C109.482 43.8761 108.378 43.2915 107.662 42.3384C107.659 42.3355 107.653 42.328 107.642 42.3159C106.911 43.1091 105.864 43.606 104.7 43.606H101.884C100.674 43.606 99.5897 43.0689 98.8562 42.22H95.1813C94.4475 43.0943 93.3467 43.65 92.116 43.65H89.41C88.21 43.65 87.1334 43.1216 86.4002 42.2847C85.6731 43.2854 84.4936 43.936 83.162 43.936H80.544C79.8365 43.936 79.1718 43.7523 78.5952 43.43H71.6196C71.0341 43.766 70.3555 43.958 69.632 43.958H67.146C65.2825 43.958 63.7166 42.6837 63.2723 40.9589C63.1928 40.9636 63.1127 40.966 63.032 40.966H58.1201C57.6657 42.676 56.107 43.936 54.254 43.936H51.57C49.717 43.936 48.1583 42.676 47.7039 40.966H43.2612C42.7704 42.6198 41.2391 43.826 39.426 43.826H36.962C36.1203 43.826 35.3393 43.5661 34.695 43.122ZM51.57 39.936H54.254V36.966H63.032V34.612H54.254V33.424H60.744V24.602H54.254V23.546H62.394V21.17H54.254V19.388H51.57V21.17H43.584V23.546H51.57V24.602H45.234V33.424H51.57V34.612H43.056V36.966H51.57V39.936ZM40.988 23.59H38.414V25.35H35.95V23.59H32.606V25.064C32.694 24.91 32.782 24.756 32.87 24.624H35.246C35.3514 24.7719 35.4604 24.9187 35.5726 25.064C35.6467 25.16 35.7222 25.2553 35.7991 25.35C35.804 25.356 35.8089 25.362 35.8138 25.368C35.8579 25.4223 35.9026 25.4763 35.9476 25.53C35.9484 25.531 35.9492 25.5319 35.95 25.5329C35.9627 25.5481 35.9755 25.5632 35.9883 25.5784C36.1164 25.7299 36.2478 25.8796 36.3824 26.027C36.4573 26.109 36.5332 26.1904 36.61 26.271C36.6698 26.3338 36.7301 26.3961 36.7909 26.4579C37.211 26.8848 37.6565 27.2897 38.12 27.6652C38.1477 27.6877 38.1755 27.7101 38.2034 27.7323C38.2732 27.7881 38.3434 27.8432 38.414 27.8976C38.66 28.0873 38.9105 28.2685 39.1644 28.4402C39.436 28.6239 39.7115 28.7968 39.9896 28.9574C40.0127 28.9708 40.0358 28.984 40.059 28.9972C40.2394 29.1 40.4208 29.1976 40.6029 29.2897C40.8126 29.3957 41.0231 29.4945 41.234 29.5854C41.2972 29.6126 41.3604 29.6391 41.4237 29.6649C41.4765 29.6865 41.5292 29.7075 41.582 29.728C41.4654 29.8649 41.3487 30.0206 41.234 30.1881C41.1943 30.2461 41.1549 30.3055 41.1157 30.366C40.9943 30.5537 40.8759 30.7524 40.7627 30.9539C40.6419 31.1688 40.5272 31.3869 40.4212 31.598C40.4199 31.6006 40.4186 31.6032 40.4173 31.6058C40.3466 31.7467 40.2799 31.8844 40.218 32.016C40.171 31.9919 40.124 31.9675 40.0769 31.9428C40.0108 31.908 39.9446 31.8726 39.8783 31.8366C39.7374 31.76 39.5961 31.6805 39.4548 31.598C39.4452 31.5924 39.4356 31.5868 39.426 31.5812C38.8255 31.2291 38.2242 30.8241 37.644 30.366V31.598H30.824V30.41C30.5092 30.6634 30.1865 30.906 29.8566 31.136C29.6266 31.2964 29.3933 31.4506 29.1568 31.598C29.1552 31.599 29.1536 31.6 29.152 31.601C29.1272 31.6165 29.1023 31.6319 29.0774 31.6472C28.9346 31.7351 28.7907 31.8204 28.6458 31.9032C28.6388 31.9072 28.6317 31.9112 28.6247 31.9152C28.4096 32.0376 28.1922 32.1542 27.9727 32.2646C27.9624 32.2698 27.9522 32.2749 27.942 32.28C27.9411 32.2779 27.9402 32.2759 27.9394 32.2738C27.8564 32.0771 27.7493 31.842 27.6249 31.598C27.5779 31.5058 27.5284 31.4122 27.4767 31.319C27.4428 31.2577 27.408 31.1966 27.3723 31.136C27.3673 31.1276 27.3624 31.1192 27.3574 31.1108C27.3098 31.0307 27.2608 30.9518 27.2107 30.875C27.1907 30.8443 27.1704 30.814 27.15 30.784L26.028 31.136V36.966C26.028 37.779 25.9417 38.3589 25.7042 38.7762C25.5713 39.0097 25.391 39.1922 25.152 39.3361C25.1363 39.3456 25.1203 39.3549 25.104 39.364C24.9108 39.4811 24.6958 39.5733 24.4556 39.6455C24.1312 39.743 23.761 39.8042 23.3367 39.8412C23.2743 39.8466 23.2108 39.8515 23.146 39.856C22.7521 39.8829 22.3141 39.892 21.826 39.892C21.76 39.188 21.43 38.066 21.1 37.34C21.3435 37.3525 21.5905 37.3615 21.826 37.3674C22.4203 37.3823 22.9412 37.3778 23.146 37.362C23.404 37.362 23.515 37.278 23.5198 36.966C23.5199 36.9588 23.52 36.9515 23.52 36.944V31.906C23.0103 32.0498 22.5083 32.1936 22.028 32.3327C21.6998 32.4278 21.3816 32.5207 21.078 32.61L20.528 30.08C20.6368 30.0571 20.749 30.0327 20.8644 30.0069C20.9842 29.9801 21.1075 29.9518 21.2338 29.922C21.5289 29.8526 21.8408 29.7755 22.1661 29.6923C22.2145 29.6799 22.2632 29.6673 22.3122 29.6547C22.4865 29.6096 22.6644 29.5628 22.8455 29.5146C23.066 29.4558 23.2912 29.3948 23.52 29.332V25.922H20.968V23.524H23.52V19.388H26.028V23.524H27.722V25.922H26.028V28.65L27.634 28.21L27.832 29.596C27.8334 29.5952 27.8349 29.5943 27.8363 29.5934C27.8868 29.5627 27.9372 29.5316 27.9875 29.5002C28.2357 29.3449 28.4813 29.1803 28.7229 29.008C28.7588 28.9824 28.7946 28.9567 28.8302 28.9308C28.9564 28.8392 29.0814 28.7455 29.2051 28.65C29.2467 28.6179 29.2881 28.5856 29.3294 28.5531C29.5375 28.3891 29.7417 28.2201 29.9409 28.0471C29.9639 28.0271 29.9869 28.007 30.0098 27.9869C30.0158 27.9816 30.0219 27.9762 30.028 27.9709C30.0742 27.9303 30.12 27.8894 30.1656 27.8484C30.1724 27.8422 30.1792 27.8361 30.186 27.83C30.1984 27.8188 30.2108 27.8075 30.2232 27.7963C30.6178 27.4378 30.9903 27.0652 31.333 26.6876C31.3982 26.6159 31.4622 26.5439 31.5252 26.4718C31.5873 26.4008 31.6482 26.3296 31.7081 26.2584C31.7513 26.2069 31.794 26.1554 31.836 26.1039C31.888 26.0401 31.9391 25.9763 31.9892 25.9125C32.0645 25.8168 32.1375 25.7212 32.2082 25.6258C32.2318 25.5939 32.2552 25.5619 32.2784 25.53C32.3189 25.4741 32.3587 25.4184 32.3976 25.3627C32.4005 25.3585 32.4034 25.3542 32.4064 25.35C32.4217 25.328 32.4369 25.306 32.452 25.284H30.186V23.59H27.744V21.368H30.186V19.388H32.606V21.368H35.95V19.388H38.414V21.368H40.988V23.59ZM36.61 29.53C36.5427 29.4703 36.4757 29.4103 36.4093 29.35C36.2533 29.2084 36.0999 29.0652 35.95 28.921C35.949 28.92 35.9479 28.919 35.9469 28.918C35.7081 28.6882 35.4781 28.4556 35.2599 28.2222C35.2553 28.2172 35.2506 28.2123 35.246 28.2073C35.2222 28.1817 35.1985 28.1561 35.1749 28.1305C35.0199 27.9622 34.8713 27.7936 34.7303 27.6254C34.7226 27.6163 34.715 27.6072 34.7074 27.598C34.7051 27.5954 34.7029 27.5927 34.7007 27.59C34.4988 27.3476 34.3127 27.1062 34.146 26.868C33.9976 27.0995 33.83 27.3358 33.6457 27.5748C33.6418 27.5799 33.6379 27.5849 33.634 27.59C33.6319 27.5927 33.6298 27.5954 33.6278 27.598C33.4749 27.7952 33.3108 27.9942 33.1369 28.1937C33.1076 28.2274 33.078 28.261 33.0481 28.2947C32.9898 28.3605 32.9304 28.4263 32.87 28.4921C32.7395 28.6342 32.6045 28.7764 32.4654 28.918C32.4609 28.9226 32.4565 28.9271 32.452 28.9316C32.4116 28.9727 32.3708 29.0138 32.3296 29.0548C32.2528 29.1314 32.1748 29.2078 32.0958 29.284C32.0104 29.3663 31.9238 29.4484 31.836 29.53H36.61ZM19.52 36.8821C19.5196 36.9097 19.5198 36.9288 19.5199 36.9384C19.52 36.9409 19.52 36.9428 19.52 36.944V36.8821ZM58.104 31.334V29.992H54.254V31.334H58.104ZM58.104 28.034V26.692H54.254V28.034H58.104ZM51.57 26.692H47.742V28.034H51.57V26.692ZM47.742 31.334H51.57V29.992H47.742V31.334ZM67.146 39.958H69.632V39.43H80.544V39.936H83.162V31.598H67.146V39.958ZM69.632 36.394V37.538H73.724V36.394H69.632ZM76.254 36.394V37.538H80.544V36.394H76.254ZM80.544 34.634V33.49H76.254V34.634H80.544ZM69.632 33.49V34.634H73.724V33.49H69.632ZM80.874 30.674V25.636H69.236V30.674H80.874ZM78.278 28.804V27.506H71.678V28.804H78.278ZM65.54 27.352H68.004V24.58H82.084V27.352H84.68V22.358H81.512C81.6594 22.1772 81.8108 21.9861 81.9651 21.7867C82.0046 21.7357 82.0442 21.6842 82.084 21.6321C82.2516 21.413 82.4222 21.1847 82.5941 20.9496C82.6671 20.8497 82.7404 20.7486 82.8138 20.6465C82.8339 20.6185 82.854 20.5904 82.8742 20.5623C82.9334 20.4795 82.9927 20.396 83.052 20.312L80.28 19.498C80.2715 19.5187 80.2628 19.5396 80.254 19.5607C80.1233 19.8721 79.9547 20.2232 79.7672 20.58C79.7238 20.6625 79.6795 20.7454 79.6343 20.8281C79.4838 21.1038 79.3247 21.3783 79.1655 21.636C79.1125 21.7219 79.0596 21.8058 79.0069 21.8874C78.9542 21.969 78.9018 22.0482 78.85 22.1244C78.8055 22.19 78.7614 22.2533 78.718 22.314L78.85 22.358H76.254V19.366H73.636V22.358H70.908L71.304 22.182C71.2251 22.0143 71.1284 21.83 71.0183 21.636C70.9829 21.5736 70.9461 21.5102 70.908 21.446C70.843 21.3365 70.7743 21.2247 70.7027 21.1118C70.591 20.9358 70.4721 20.757 70.3486 20.58C70.1664 20.3189 69.9743 20.0615 69.7808 19.8219C69.7326 19.7621 69.6843 19.7035 69.636 19.6462C69.6127 19.6185 69.5893 19.5911 69.566 19.564L67.234 20.466C67.2631 20.5058 67.2922 20.5461 67.3215 20.5869C67.3323 20.6021 67.3432 20.6173 67.3541 20.6326C67.4742 20.8012 67.5952 20.9777 67.7146 21.1583C67.8126 21.3065 67.9096 21.4575 68.004 21.6094C68.0423 21.671 68.0802 21.7328 68.1176 21.7945C68.232 21.9835 68.3417 22.1726 68.444 22.358H65.54V27.352ZM89.41 39.65H92.116V38.22H101.884V39.606H104.7V20.686H89.41V39.65ZM92.116 28.056H101.884V23.326H92.116V28.056ZM92.116 30.652V35.58H101.884V30.652H92.116ZM136.635 38.8955C136.815 38.7617 136.975 38.6021 137.106 38.418C137.181 38.3213 137.251 38.2165 137.318 38.104C137.322 38.0975 137.326 38.0909 137.329 38.0842C137.577 37.6607 137.772 37.1318 137.923 36.526C138.061 35.9734 138.164 35.3568 138.237 34.6977C138.239 34.6852 138.24 34.6728 138.241 34.6603C138.271 34.3944 138.295 34.1216 138.316 33.8435C138.326 33.7127 138.334 33.5808 138.342 33.4478C138.36 33.1454 138.374 32.8376 138.384 32.526C138.395 32.1552 138.402 31.7792 138.403 31.4008C138.404 31.32 138.404 31.239 138.404 31.158C138.404 31.0699 138.404 30.9819 138.403 30.894C138.403 30.8678 138.403 30.8416 138.403 30.8154C138.399 30.3413 138.387 29.8709 138.361 29.4045C138.344 29.0777 138.319 28.7528 138.287 28.43C138.28 28.3603 138.273 28.2908 138.265 28.2213C138.232 27.9216 138.191 27.6238 138.141 27.3278C138.135 27.2873 138.128 27.247 138.121 27.2066C137.997 26.5009 137.823 25.8057 137.581 25.1222C137.566 25.0808 137.551 25.0394 137.536 24.9981C137.531 24.9835 137.525 24.969 137.52 24.9545C137.491 24.8772 137.462 24.8001 137.431 24.7232C137.333 24.4754 137.225 24.2292 137.106 23.9847C137.057 23.8822 137.005 23.78 136.952 23.678C137.035 23.5827 137.118 23.4873 137.201 23.392C137.239 23.3474 137.277 23.3028 137.316 23.2582C137.464 23.0851 137.61 22.9122 137.752 22.74C137.757 22.7334 137.763 22.7269 137.768 22.7204C138.221 22.1711 138.637 21.6282 138.985 21.1024C138.989 21.0956 138.994 21.0888 138.998 21.082L137.04 19.806C136.902 20.0129 136.753 20.2252 136.594 20.4399C136.48 20.5943 136.36 20.75 136.234 20.906C136.033 21.1561 135.818 21.4068 135.588 21.654C135.503 21.5531 135.417 21.4522 135.328 21.3514C135.06 21.0472 134.772 20.7443 134.456 20.4466C134.169 20.1765 133.859 19.9106 133.52 19.652L131.628 21.104C131.791 21.2396 131.949 21.3752 132.101 21.5111C132.219 21.6164 132.333 21.7219 132.444 21.8278C132.598 21.9747 132.746 22.1225 132.887 22.2715C132.944 22.3312 132.999 22.391 133.054 22.4512C133.077 22.4761 133.099 22.501 133.121 22.526C133.275 22.6981 133.42 22.8722 133.558 23.0491C133.606 23.1114 133.654 23.1741 133.7 23.2371C133.744 23.2957 133.786 23.3547 133.828 23.414C133.743 23.4884 133.657 23.5623 133.571 23.6357C133.482 23.7116 133.393 23.7868 133.303 23.8613C133.195 23.9512 133.086 24.04 132.977 24.1275C132.966 24.1366 132.955 24.1456 132.943 24.1547C132.849 24.2303 132.754 24.305 132.659 24.3785C132.178 24.7517 131.694 25.0964 131.218 25.3944C131.03 25.5119 130.844 25.6222 130.66 25.724C130.835 25.914 131.023 26.1575 131.207 26.4229C131.233 26.4603 131.259 26.4982 131.285 26.5365C131.339 26.6161 131.392 26.6973 131.445 26.7792C131.49 26.8489 131.534 26.9191 131.577 26.9893C131.806 27.3612 132.011 27.7339 132.156 28.034C132.678 27.6646 133.238 27.2288 133.799 26.7522C133.828 26.7278 133.857 26.7034 133.886 26.6788C134.265 26.3539 134.646 26.011 135.016 25.658C135.124 25.9368 135.217 26.2229 135.299 26.5134C135.367 26.7558 135.427 27.0011 135.48 27.2478C135.49 27.2948 135.5 27.3419 135.51 27.389C135.538 27.5232 135.564 27.6576 135.588 27.792C135.246 28.3799 134.828 28.97 134.362 29.5324C134.252 29.6642 134.14 29.7945 134.026 29.9229C134.001 29.9507 133.977 29.9784 133.952 30.006C133.877 30.0888 133.801 30.1708 133.725 30.2518C133.355 30.6436 132.965 31.0135 132.568 31.3496C132.314 31.5646 132.057 31.7658 131.799 31.95C131.771 31.9701 131.743 31.99 131.715 32.0096C131.588 32.0979 131.462 32.1821 131.337 32.2618C131.287 32.2935 131.237 32.3245 131.187 32.3547C131.077 32.4215 130.967 32.4847 130.858 32.544C130.957 32.6555 131.061 32.7837 131.168 32.9226C131.177 32.9346 131.186 32.9467 131.195 32.9588C131.197 32.9606 131.198 32.9624 131.199 32.9642C131.371 33.1906 131.547 33.4429 131.713 33.6963C131.763 33.773 131.811 33.8497 131.859 33.9259C131.896 33.985 131.932 34.0438 131.967 34.1019C132.006 34.1674 132.044 34.232 132.081 34.2952C132.088 34.3089 132.096 34.3224 132.104 34.3359C132.109 34.3448 132.114 34.3536 132.119 34.3624C132.201 34.5069 132.273 34.6434 132.332 34.766C132.39 34.7246 132.448 34.6822 132.506 34.6388C132.514 34.633 132.521 34.6272 132.529 34.6214C132.68 34.5083 132.832 34.389 132.984 34.264C133.313 33.9937 133.644 33.6972 133.972 33.381C134.022 33.3323 134.073 33.2832 134.123 33.2336C134.203 33.1553 134.282 33.0759 134.361 32.9955C134.692 32.6592 135.018 32.3053 135.334 31.9409C135.44 31.8186 135.545 31.6951 135.649 31.5707C135.702 31.5067 135.755 31.4425 135.808 31.378C135.806 31.643 135.801 31.9026 135.795 32.1557C135.79 32.3466 135.784 32.5337 135.777 32.7167C135.772 32.8506 135.766 32.9821 135.76 33.1113C135.754 33.2317 135.747 33.35 135.74 33.466C135.73 33.6186 135.72 33.7673 135.708 33.9118C135.67 34.3958 135.62 34.8326 135.558 35.2097C135.456 35.8274 135.32 36.2847 135.148 36.526C135.124 36.5591 135.1 36.5896 135.074 36.6179C135.061 36.6331 135.047 36.6476 135.033 36.6615C135.002 36.6926 134.97 36.7206 134.935 36.7457C134.907 36.7668 134.877 36.7859 134.845 36.8031C134.734 36.8635 134.605 36.9006 134.444 36.922C134.403 36.9256 134.361 36.9289 134.316 36.9321C134.193 36.9409 134.055 36.9482 133.9 36.9533C133.806 36.9563 133.705 36.9585 133.598 36.9597C133.364 36.9621 133.1 36.9594 132.806 36.9492C132.628 36.943 132.439 36.9341 132.238 36.9219C132.133 36.9155 132.025 36.9083 131.914 36.9C132.015 37.0614 132.106 37.2306 132.187 37.4052C132.384 37.8338 132.518 38.2956 132.593 38.7575C132.633 39.0053 132.656 39.2532 132.662 39.496C132.846 39.5065 133.026 39.5147 133.202 39.5203C133.604 39.5331 133.985 39.5321 134.347 39.5122C134.455 39.5062 134.562 39.4985 134.667 39.489C134.707 39.4854 134.746 39.4816 134.785 39.4775C134.899 39.4655 135.011 39.4513 135.121 39.4345C135.319 39.4046 135.511 39.3668 135.698 39.32C135.972 39.2569 136.23 39.1534 136.462 39.012C136.521 38.9757 136.579 38.9368 136.635 38.8955ZM129.511 37.6014C129.542 37.3749 129.569 37.1297 129.592 36.8649C129.593 36.8596 129.593 36.8543 129.594 36.849C129.605 36.7169 129.616 36.5799 129.626 36.438C129.569 36.3875 129.509 36.3302 129.447 36.2675C129.423 36.2436 129.399 36.2189 129.375 36.1936C129.091 35.8965 128.771 35.5048 128.511 35.1523C128.488 35.1222 128.467 35.0923 128.445 35.0628C128.429 35.0401 128.412 35.0176 128.397 34.9953C128.373 34.9623 128.35 34.9298 128.328 34.898C128.327 34.9782 128.325 35.0576 128.324 35.1362C128.319 35.3631 128.312 35.5829 128.303 35.7922C128.302 35.821 128.301 35.8496 128.299 35.878C128.298 35.9056 128.297 35.9329 128.295 35.9601C128.289 36.0927 128.281 36.2204 128.272 36.3422C128.22 37.0606 128.131 37.575 127.993 37.6898C127.973 37.7058 127.953 37.714 127.932 37.714C127.877 37.714 127.826 37.6935 127.778 37.6528C127.747 37.6262 127.717 37.5909 127.689 37.5472C127.645 37.4788 127.604 37.3898 127.567 37.2805C127.554 37.2425 127.542 37.202 127.529 37.1592C127.502 37.0635 127.477 36.9559 127.454 36.8363C127.422 36.6724 127.393 36.4861 127.368 36.2782C127.355 36.1726 127.343 36.0615 127.331 35.9449C127.321 35.8384 127.311 35.7273 127.302 35.6117C127.284 35.3859 127.269 35.1427 127.255 34.8827C127.253 34.8442 127.251 34.8053 127.249 34.766C127.241 34.5918 127.233 34.4102 127.227 34.2215C127.222 34.0778 127.217 33.9298 127.213 33.7779C127.212 33.7614 127.212 33.745 127.211 33.7285C127.201 33.3432 127.193 32.932 127.188 32.4956C127.184 32.1029 127.181 31.6898 127.18 31.2569C127.179 31.1939 127.179 31.1304 127.179 31.0665C127.179 31.0357 127.179 31.0047 127.179 30.9737C127.179 30.6153 127.179 30.2439 127.181 29.86C127.182 29.3999 127.185 28.9217 127.189 28.426C127.191 28.1951 127.193 27.9605 127.195 27.722C127.196 27.5552 127.198 27.3865 127.199 27.216C127.2 27.1283 127.201 27.04 127.202 26.9513C127.204 26.7483 127.206 26.5427 127.208 26.3347C127.209 26.2789 127.209 26.2229 127.21 26.1667C127.213 25.812 127.217 25.4502 127.221 25.0815C127.221 25.0597 127.221 25.0379 127.222 25.016C127.223 24.9418 127.223 24.8672 127.224 24.7924L127.228 24.426H115.26V29.156C115.26 29.1634 115.26 29.1707 115.26 29.178C115.26 29.2719 115.26 29.3669 115.259 29.463C115.259 29.5934 115.257 29.7258 115.256 29.86C115.255 29.8836 115.255 29.9072 115.255 29.9309C115.25 30.2618 115.241 30.6036 115.226 30.9532C115.216 31.189 115.203 31.4284 115.186 31.6704C115.184 31.6999 115.182 31.7294 115.18 31.7589C115.154 32.1251 115.12 32.4969 115.076 32.871C115.048 33.1096 115.015 33.3491 114.978 33.5888C114.917 33.9821 114.843 34.3758 114.753 34.766C114.624 35.3307 114.462 35.8881 114.26 36.427C114.197 36.5957 114.13 36.7625 114.058 36.9272C114.002 37.0558 113.944 37.1831 113.883 37.3089C113.857 37.3621 113.831 37.4151 113.804 37.4677C113.72 37.6342 113.63 37.798 113.535 37.9585C113.434 38.1302 113.327 38.2981 113.214 38.462C113.314 38.5171 113.436 38.5984 113.568 38.6958C113.62 38.7343 113.674 38.7752 113.729 38.818C113.971 39.007 114.231 39.2328 114.451 39.4418C114.61 39.5926 114.748 39.7347 114.842 39.848C114.883 39.7895 114.923 39.7303 114.963 39.6705C115.033 39.565 115.101 39.4576 115.167 39.3485C115.395 38.9711 115.6 38.5734 115.783 38.1607C115.928 37.8349 116.06 37.4999 116.179 37.158C116.222 37.0361 116.263 36.9135 116.302 36.79C116.388 36.5235 116.466 36.2534 116.538 35.9811C116.541 35.9717 116.543 35.9623 116.546 35.9529C116.646 35.5713 116.734 35.1853 116.811 34.798C116.813 34.7873 116.815 34.7767 116.817 34.766C116.921 34.2375 117.004 33.7067 117.071 33.182C117.077 33.1328 117.083 33.0836 117.089 33.0345C117.095 32.9818 117.101 32.9292 117.107 32.8766C117.162 32.3979 117.203 31.9256 117.234 31.466C117.27 30.9082 117.291 30.3691 117.3 29.86C117.304 29.626 117.306 29.3983 117.306 29.178V26.34H125.05C125.051 26.6368 125.051 26.9288 125.052 27.216C125.053 27.4288 125.054 27.6389 125.055 27.8464C125.055 27.9361 125.055 28.0254 125.056 28.1141C125.056 28.2188 125.057 28.3227 125.057 28.426C125.058 28.5085 125.058 28.5905 125.058 28.672C125.061 29.0789 125.064 29.4749 125.068 29.86C125.068 29.8981 125.069 29.936 125.069 29.9738C125.074 30.3985 125.079 30.8097 125.087 31.2075C125.089 31.2943 125.09 31.3805 125.092 31.466C125.097 31.7174 125.103 31.9632 125.11 32.2034C125.113 32.3064 125.116 32.4084 125.12 32.5093C125.127 32.7388 125.135 32.9631 125.144 33.182C125.163 33.6258 125.186 34.0477 125.213 34.4479C125.217 34.5042 125.221 34.56 125.225 34.6154C125.225 34.6213 125.226 34.6273 125.226 34.6333C125.229 34.6778 125.233 34.7221 125.236 34.766C125.237 34.7751 125.237 34.7842 125.238 34.7932C125.24 34.8135 125.241 34.8338 125.243 34.854C125.266 35.1451 125.292 35.4237 125.322 35.6899C125.345 35.8958 125.369 36.0942 125.396 36.2851C125.412 36.3973 125.429 36.507 125.446 36.614C125.46 36.7018 125.475 36.7878 125.49 36.872C125.506 36.9572 125.522 37.0406 125.538 37.1222C125.547 37.1661 125.556 37.2094 125.566 37.2522C125.603 37.4236 125.643 37.5867 125.685 37.7415C125.733 37.9141 125.784 38.0764 125.839 38.2283C125.871 38.3163 125.905 38.4009 125.939 38.482C125.99 38.5996 126.043 38.7099 126.099 38.8129C126.123 38.8562 126.147 38.8982 126.172 38.9388C126.188 38.9657 126.204 38.9919 126.221 39.0176C126.601 39.5993 127.106 39.892 127.778 39.892C127.831 39.892 127.882 39.8904 127.932 39.887C128.223 39.8674 128.464 39.79 128.665 39.647C128.688 39.6303 128.711 39.6127 128.733 39.5942C129 39.3737 129.19 39.0242 129.329 38.5248C129.38 38.3423 129.424 38.1397 129.462 37.9161C129.463 37.9138 129.463 37.9115 129.463 37.9093C129.48 37.8107 129.496 37.7082 129.511 37.6014ZM125.6 38.946C125.573 38.8456 125.543 38.7386 125.509 38.6261C125.439 38.3958 125.355 38.1424 125.262 37.8753C125.128 37.4958 124.975 37.0885 124.813 36.6801C124.805 36.6581 124.796 36.6361 124.787 36.614C124.704 36.4035 124.618 36.193 124.532 35.9862C124.522 35.962 124.511 35.9379 124.501 35.9139C124.49 35.8876 124.479 35.8614 124.468 35.8353C124.464 35.8255 124.46 35.8157 124.456 35.8059C124.408 35.6927 124.36 35.5809 124.313 35.4712C124.273 35.3795 124.234 35.2892 124.195 35.2008C124.179 35.1656 124.163 35.1306 124.148 35.096L122.674 35.536C122.7 35.5961 122.726 35.6569 122.753 35.7186C122.754 35.7199 122.754 35.7211 122.755 35.7224C122.766 35.7481 122.778 35.7741 122.789 35.8001C122.817 35.8623 122.844 35.9253 122.872 35.9892C122.91 36.0774 122.949 36.1672 122.986 36.2586C123.023 36.3463 123.058 36.4354 123.092 36.526L122.08 36.614V34.766H124.456V29.86H122.08V28.672C122.347 28.6395 122.612 28.603 122.872 28.5627C122.961 28.549 123.049 28.5348 123.136 28.5202C123.153 28.5172 123.171 28.5143 123.188 28.5113C123.346 28.4844 123.502 28.4559 123.654 28.426C123.727 28.4116 123.8 28.3967 123.872 28.3816C123.951 28.365 124.028 28.348 124.104 28.3306C124.225 28.3031 124.342 28.2746 124.456 28.2451C124.501 28.2336 124.545 28.2219 124.588 28.21L123.422 26.714C123.352 26.733 123.279 26.7519 123.203 26.7705C122.869 26.8533 122.49 26.9324 122.08 27.0066C122.014 27.0185 121.948 27.0303 121.881 27.0419C121.856 27.0462 121.831 27.0506 121.805 27.0549C121.643 27.0827 121.476 27.1097 121.306 27.1358C121.222 27.1487 121.137 27.1615 121.052 27.174C120.954 27.1883 120.856 27.2023 120.757 27.216C120.555 27.244 120.35 27.2708 120.144 27.2962C120.093 27.3025 120.042 27.3086 119.991 27.3147C119.748 27.3438 119.504 27.3711 119.26 27.3962C118.923 27.4311 118.587 27.4619 118.258 27.4884C118.216 27.4918 118.174 27.4952 118.132 27.4985C118.126 27.4989 118.121 27.4993 118.116 27.4997C118.044 27.5053 117.972 27.5106 117.9 27.5158C117.841 27.52 117.782 27.5241 117.724 27.528C117.756 27.609 117.79 27.6959 117.824 27.7866C117.85 27.8536 117.875 27.9227 117.9 27.993C117.918 28.0429 117.935 28.0933 117.953 28.144C117.984 28.2378 118.015 28.3324 118.043 28.426C118.057 28.4704 118.069 28.5146 118.082 28.5583C118.092 28.5966 118.103 28.6346 118.112 28.672C118.112 28.6729 118.113 28.6738 118.113 28.6747C118.132 28.7495 118.149 28.8223 118.163 28.892C118.172 28.9375 118.18 28.9816 118.186 29.024C118.335 29.0187 118.487 29.0121 118.641 29.0042C118.844 28.9938 119.05 28.9811 119.26 28.9663C119.305 28.9631 119.351 28.9597 119.396 28.9563C119.642 28.9379 119.891 28.9165 120.144 28.892V29.86H117.9V34.766H120.144V36.79C120.122 36.7921 120.1 36.7941 120.078 36.7962C119.93 36.8097 119.785 36.823 119.641 36.8359C119.559 36.8433 119.477 36.8506 119.396 36.8577C119.233 36.8722 119.072 36.8862 118.914 36.8997C118.705 36.9175 118.501 36.9346 118.303 36.9509C118.235 36.9565 118.167 36.962 118.1 36.9674C118.099 36.9675 118.097 36.9676 118.096 36.9677C118.03 36.9731 117.965 36.9783 117.9 36.9834C117.82 36.9898 117.741 36.996 117.663 37.0021C117.449 37.0188 117.243 37.0344 117.044 37.049C117.022 37.0507 116.999 37.0524 116.976 37.054L117.24 39.078C117.319 39.0704 117.399 39.0626 117.48 39.0547C117.9 39.0135 118.346 38.9679 118.811 38.9189C119.143 38.8838 119.486 38.8468 119.836 38.8084C119.998 38.7906 120.161 38.7725 120.326 38.7541C120.641 38.7189 120.961 38.6826 121.285 38.6453C121.446 38.6268 121.609 38.608 121.771 38.589C121.874 38.577 121.977 38.565 122.08 38.5529C122.136 38.5463 122.191 38.5398 122.247 38.5332C122.582 38.4936 122.919 38.4533 123.256 38.4125C123.345 38.4017 123.434 38.3909 123.523 38.38C123.572 38.374 123.622 38.368 123.671 38.3619C123.685 38.3603 123.699 38.3586 123.712 38.3569C123.726 38.3553 123.739 38.3537 123.752 38.352C123.763 38.3854 123.773 38.4186 123.783 38.4517C123.816 38.5584 123.848 38.6635 123.878 38.766C123.901 38.8435 123.923 38.9197 123.944 38.9941C123.975 39.1018 124.004 39.2059 124.031 39.3055C124.036 39.324 124.041 39.3423 124.046 39.3605C124.058 39.4068 124.07 39.452 124.082 39.496L125.6 38.946ZM122.872 33.182V31.466H121.794V33.182H122.872ZM119.396 31.466V33.182H120.43V31.466H119.396ZM112.941 36.2923C112.964 36.2261 112.988 36.1597 113.01 36.0931C113.103 35.8232 113.187 35.55 113.266 35.2745C113.455 34.6056 113.605 33.9235 113.722 33.2429C113.754 33.0573 113.784 32.8717 113.811 32.6866C113.844 32.4641 113.873 32.2422 113.9 32.0215C113.977 31.3854 114.029 30.7585 114.062 30.1535C114.067 30.0637 114.072 29.9744 114.076 29.8856C114.076 29.8771 114.077 29.8685 114.077 29.86C114.086 29.6794 114.093 29.501 114.098 29.3251C114.099 29.2994 114.1 29.2737 114.1 29.2481C114.101 29.2247 114.102 29.2013 114.102 29.178C114.103 29.1707 114.103 29.1634 114.103 29.156C114.104 29.0953 114.106 29.0348 114.107 28.9747C114.11 28.8368 114.112 28.7007 114.114 28.5665C114.115 28.4234 114.116 28.2825 114.116 28.144V23.216H129.054V21.016H121.442V19.388H118.67V21.016H111.718V26.912C111.713 26.886 111.709 26.8598 111.704 26.8334C111.608 26.3147 111.454 25.7132 111.26 25.097C111.173 24.8186 111.077 24.5372 110.975 24.2591C110.877 23.9915 110.773 23.727 110.665 23.4711C110.628 23.385 110.591 23.2999 110.554 23.216C110.527 23.1556 110.5 23.0957 110.473 23.0366C110.47 23.0304 110.467 23.0242 110.464 23.018L108.594 23.788C108.594 23.7879 108.594 23.7881 108.594 23.788C108.605 23.8154 108.616 23.8433 108.627 23.871C108.651 23.9334 108.676 23.9965 108.7 24.0604C108.726 24.1302 108.753 24.2009 108.779 24.2722C109.034 24.9725 109.264 25.7363 109.442 26.4514C109.481 26.6077 109.518 26.7616 109.551 26.912C109.579 27.0375 109.606 27.1606 109.63 27.2805C109.633 27.2971 109.636 27.3136 109.64 27.33C109.696 27.6156 109.741 27.8827 109.771 28.122C109.775 28.1518 109.779 28.1811 109.782 28.21L111.718 27.33V28.122C111.718 28.1294 111.718 28.1367 111.718 28.144C111.718 28.2131 111.718 28.2829 111.718 28.3533C111.718 28.6138 111.717 28.883 111.713 29.156C111.709 29.3672 111.704 29.5806 111.696 29.794C111.547 29.87 111.398 29.945 111.251 30.0189C111.073 30.1083 110.897 30.1961 110.724 30.2818C110.591 30.3471 110.461 30.4113 110.332 30.474C110.26 30.5092 110.188 30.5439 110.117 30.5782C110.085 30.5937 110.053 30.6092 110.021 30.6245C109.544 30.854 109.097 31.0613 108.7 31.2367C108.587 31.2864 108.478 31.3336 108.374 31.378L109.144 33.732C109.205 33.696 109.267 33.6599 109.328 33.6236C109.379 33.5939 109.43 33.564 109.481 33.534C109.521 33.5106 109.561 33.4871 109.601 33.4635C110.083 33.1801 110.58 32.8879 111.079 32.587C111.211 32.5073 111.344 32.427 111.476 32.346C111.444 32.5658 111.408 32.7856 111.367 33.0048C111.268 33.5401 111.142 34.0722 110.983 34.5937C110.841 35.0594 110.672 35.5165 110.472 35.9598C110.47 35.9655 110.467 35.9713 110.465 35.977C110.398 36.1249 110.327 36.2712 110.253 36.4158C110.02 36.8703 109.751 37.3075 109.44 37.7211C109.376 37.8055 109.311 37.889 109.244 37.9714C109.176 38.0554 109.106 38.1383 109.034 38.22C109.089 38.2549 109.15 38.2975 109.216 38.3462C109.583 38.6188 110.096 39.0851 110.48 39.4927C110.633 39.6551 110.766 39.8082 110.86 39.936C110.878 39.9157 110.896 39.8952 110.914 39.8747C111.413 39.3066 111.836 38.6742 112.194 37.9985C112.225 37.9396 112.256 37.8805 112.286 37.821C112.536 37.3302 112.753 36.8181 112.941 36.2923ZM139.328 23.392H143.684V28.43H139.592V30.894H143.684V36.526H138.316V39.012H151.142V36.526H146.39V30.894H150.614V28.43H146.39V23.392H150.812V20.906H139.328V23.392ZM154.002 27.8523C154.002 27.9711 154.002 28.0916 154.001 28.2137C154.001 28.2853 154 28.3574 154 28.43C153.999 28.5389 153.998 28.649 153.997 28.76C153.989 29.4396 153.972 30.1582 153.934 30.894C153.926 31.0586 153.916 31.224 153.906 31.39C153.902 31.4446 153.899 31.4993 153.895 31.554C153.887 31.6725 153.878 31.7913 153.869 31.9103C153.829 32.4134 153.779 32.9197 153.713 33.4227C153.712 33.4345 153.71 33.4463 153.709 33.4581C153.57 34.5172 153.366 35.5606 153.069 36.526C152.954 36.8981 152.825 37.2587 152.681 37.604C152.618 37.7536 152.553 37.9004 152.484 38.044C152.848 38.2262 153.443 38.6284 153.907 39.012C154.115 39.1843 154.297 39.3528 154.42 39.496C154.491 39.3565 154.56 39.2134 154.626 39.067C154.634 39.0487 154.642 39.0304 154.651 39.012C154.833 38.602 154.996 38.1667 155.142 37.7125C155.154 37.6765 155.165 37.6403 155.176 37.604C155.205 37.5129 155.233 37.4211 155.26 37.3285C155.444 36.7008 155.598 36.0418 155.726 35.3677C155.889 34.5099 156.01 33.6275 156.099 32.7532C156.14 32.3507 156.174 31.9499 156.202 31.554V37.604H158.094V30.916H159.26V39.87H161.438V30.916H162.692V35.272C162.692 35.2875 162.692 35.3022 162.691 35.316C162.683 35.4591 162.632 35.514 162.472 35.514C162.408 35.514 162.283 35.514 162.12 35.5115C162.111 35.5114 162.103 35.5113 162.094 35.5111C162.057 35.5105 162.018 35.5098 161.978 35.5089C161.835 35.5057 161.673 35.5005 161.504 35.492C161.761 36.006 162 36.751 162.094 37.3437C162.105 37.4106 162.113 37.4756 162.12 37.538C162.242 37.538 162.359 37.5372 162.472 37.5348C162.632 37.5314 162.783 37.5249 162.926 37.5133C163.043 37.5038 163.154 37.491 163.26 37.4736C163.303 37.4665 163.346 37.4586 163.388 37.45C163.489 37.4289 163.585 37.403 163.677 37.3712C163.839 37.3151 163.986 37.2407 164.122 37.142C164.65 36.79 164.76 36.196 164.76 35.316V28.76H161.438V26.912H164.606V20.51H154.002V27.748C154.002 27.7826 154.002 27.8174 154.002 27.8523ZM159.26 28.76V26.912H156.334V28.76H159.26ZM162.164 22.842H156.334V24.602H162.164V22.842ZM165.772 21.5V34.238H168.214V21.5H165.772ZM167.602 39.2962C167.65 39.5038 167.687 39.6986 167.708 39.87C168.403 39.87 169.027 39.8552 169.578 39.809C169.631 39.8045 169.684 39.7997 169.736 39.7947C170.387 39.7309 170.93 39.6185 171.359 39.4274C171.405 39.4072 171.449 39.3861 171.492 39.364C171.552 39.3325 171.609 39.2992 171.663 39.264C172.326 38.8326 172.57 38.1138 172.57 36.812V19.784H170.062V36.812C170.062 37.164 169.93 37.252 169.578 37.274C169.393 37.274 169.021 37.274 168.555 37.2687C168.446 37.2675 168.332 37.266 168.214 37.2641C168.052 37.2616 167.882 37.2583 167.708 37.2542C167.451 37.2482 167.183 37.2403 166.916 37.23C167.043 37.5258 167.176 37.8768 167.297 38.238C167.417 38.5951 167.524 38.9623 167.602 39.2962Z" fill="#23B2BD"/>
</svg>
