<svg width="376" height="242" viewBox="0 0 376 242" fill="none" xmlns="http://www.w3.org/2000/svg">
<path d="M208.266 209.073H352.87L253.312 241.825H116.215L208.266 209.073Z" fill="#698FC8"/>
<path d="M107.925 209.073H147.91L48.7614 241.825H0L107.925 209.073Z" fill="#698FC8"/>
<path d="M128.225 133.433L146.378 43.5605C146.378 43.5605 146.378 34.7967 153.331 33.5671H330.103C330.103 33.5671 338.8 39.6257 339.694 45.662C340.611 51.7206 345.596 125.989 345.596 125.989L289.169 147.026L128.225 133.433Z" fill="white"/>
<path d="M272.356 29.0737L270.076 12.1498H259.948C259.948 12.1498 258.16 2 247.205 2C236.25 2 234.462 12.1498 234.462 12.1498H224.334L222.054 29.0737" fill="white"/>
<path d="M140.7 94.2653L174.257 58.7856" stroke="black" stroke-width="2.86364" stroke-miterlimit="10" stroke-linecap="round" stroke-linejoin="round"/>
<path d="M140.7 111.1L189.594 59.9257" stroke="black" stroke-width="2.86364" stroke-miterlimit="10" stroke-linecap="round" stroke-linejoin="round"/>
<path d="M202.381 61.5354H171.618C168.757 61.5354 166.432 59.2103 166.432 56.3487V53.2411C166.432 50.3795 168.757 48.0544 171.618 48.0544H202.381C205.243 48.0544 207.568 50.3795 207.568 53.2411V56.3487C207.568 59.2327 205.243 61.5354 202.381 61.5354Z" fill="#D1D3D4" stroke="black" stroke-width="2.86364" stroke-miterlimit="10" stroke-linecap="round" stroke-linejoin="round"/>
<path d="M182.105 41.3253V51.7434C182.105 53.599 183.603 55.0969 185.458 55.0969C187.314 55.0969 188.812 53.599 188.812 51.7434V49.3736L186.554 47.831V41.1688" fill="#939598"/>
<path d="M182.105 41.3253V51.7434C182.105 53.599 183.603 55.0969 185.458 55.0969C187.314 55.0969 188.812 53.599 188.812 51.7434V49.3736L186.554 47.831V41.1688" stroke="black" stroke-width="2.86364" stroke-miterlimit="10" stroke-linecap="round" stroke-linejoin="round"/>
<path d="M330.126 37.0774L330.26 40.6097C330.26 40.6097 335.916 42.13 336.296 46.2659C336.676 50.4242 345.35 130.237 345.35 130.237H354.651L344.344 46.2659L342.824 38.2176L334.776 36.5856L330.126 37.0774Z" fill="#FFCC31"/>
<path d="M96.4789 177.565C96.4789 177.565 96.4789 165.493 96.4789 158.898C96.4789 152.28 98.4239 143.919 104.639 140.029C110.854 136.139 129.544 126.615 129.544 126.615L146.401 42.1971C147.966 32.8521 154.695 28.1796 166.119 28.1796C177.543 28.1796 304.774 28.1796 304.774 28.1796C304.774 28.1796 318.702 28.1796 325.7 28.1796C332.697 28.1796 341.595 29.0962 343.495 42.756C345.396 56.4158 354.137 125.654 354.137 125.654C356.529 127.867 359.301 130.46 361.805 132.808C364.175 135.021 366.523 137.19 367.014 142.354C367.551 148.077 369.161 191.918 369.161 194.31C369.161 196.702 367.976 199.162 364.868 199.162C359.145 199.162 363.683 199.162 363.683 199.162H359.726C359.726 199.162 361.671 160.574 346.268 158.54C331.669 156.617 329.567 174.368 328.673 180.338C327.779 189.928 327.555 199.005 327.555 199.005H262.99C262.99 199.005 265.002 159.703 249.531 158.54C234.441 157.4 233.054 179.153 233.054 179.153" stroke="black" stroke-width="2.86364" stroke-miterlimit="10" stroke-linecap="round" stroke-linejoin="round"/>
<path d="M293.126 46.467L293.506 61.8259C293.506 61.8259 294.467 63.4132 294.333 70.0531C294.333 70.0531 295.652 89.8609 295.898 92.7673C296.144 95.6513 295.697 99.0941 295.697 99.0941C295.697 99.0941 295.898 106.248 296.144 110.898C296.39 115.548 298.76 121.942 295.988 123.463V125.43L294.467 126.637L308.463 126.861L303.812 52.6374L293.126 46.467Z" fill="#FFCC31"/>
<path d="M261.469 29.0737L259.189 12.1498H249.062C249.062 12.1498 247.273 2 236.318 2C225.364 2 223.575 12.1498 223.575 12.1498H213.448L211.167 29.0737" fill="white"/>
<path d="M261.469 29.0737L259.189 12.1498H249.062C249.062 12.1498 247.273 2 236.318 2C225.364 2 223.575 12.1498 223.575 12.1498H213.448L211.167 29.0737" stroke="black" stroke-width="2.99308" stroke-miterlimit="10" stroke-linecap="round" stroke-linejoin="round"/>
<path d="M272.379 29.0737L270.098 12.1498H259.971C259.971 12.1498 258.182 2 247.228 2H236.318" stroke="black" stroke-width="2.99308" stroke-miterlimit="10" stroke-linecap="round" stroke-linejoin="round"/>
<path d="M368.221 162.028L373.833 161.737L373.385 152.884C373.385 152.884 370.591 147.116 366.745 148.167L368.221 162.028Z" fill="#F7941C"/>
<path d="M367.327 162.475L367.997 171.552C367.997 171.552 371.53 170.434 372.871 168.668C374.19 166.901 373.989 162.698 373.989 162.698L367.327 162.475Z" fill="#F04928"/>
<path d="M368.356 147.943C368.356 147.943 373.006 147.608 373.475 154.739C374.079 163.905 373.878 165.783 373.878 165.783C373.878 165.783 373.833 170.545 369.227 171.037" stroke="black" stroke-width="2.86364" stroke-miterlimit="10" stroke-linecap="round" stroke-linejoin="round"/>
<path d="M367.484 162.475H373.677" stroke="black" stroke-width="2.86364" stroke-miterlimit="10" stroke-linecap="round" stroke-linejoin="round"/>
<path d="M129.745 120.981C125.855 120.981 127.822 120.981 123.932 120.981C120.042 120.981 116.152 119.305 116.152 113.201C116.152 107.076 116.152 115.907 116.152 109.781C116.152 103.678 120.042 102.001 123.932 102.001C127.822 102.001 129.432 102.001 133.322 102.001" fill="#D1D3D4"/>
<path d="M129.745 120.981C125.855 120.981 127.822 120.981 123.932 120.981C120.042 120.981 116.152 119.305 116.152 113.201C116.152 107.076 116.152 115.907 116.152 109.781C116.152 103.678 120.042 102.001 123.932 102.001C127.822 102.001 129.432 102.001 133.322 102.001" stroke="black" stroke-width="2.86364" stroke-miterlimit="10" stroke-linecap="round" stroke-linejoin="round"/>
<path d="M98.6028 148.77C98.6028 148.77 100.995 143.047 105.265 140.185C109.557 137.324 129.812 126.123 129.812 126.123H226.571C226.571 126.123 233.725 124.938 235.38 118.499L242.757 115.884C242.757 115.884 246.804 123.038 248.235 124.469C249.665 125.899 254.673 126.615 263.973 126.615H319.552C319.552 126.615 326.415 128.113 331.892 127.151C337.37 126.19 343.473 125.81 343.473 125.81L354.115 125.654C354.115 125.654 359.592 131.846 361.738 133.277C363.884 134.708 367.461 138.285 367.461 142.577C367.461 146.87 368.646 175.464 368.646 175.464L361.269 176.895L355.545 168.086C355.545 168.086 343.16 169.986 342.445 170.702C341.729 171.417 330.998 198.357 330.059 198.357C329.098 198.357 264.689 198.357 264.689 198.357L237.28 199.072C237.28 199.072 237.28 181.679 232.987 179.287C228.695 176.895 217.248 177.856 217.248 177.856L112.866 177.386H96.6578L96.4119 165.001" fill="#FFC232"/>
<path d="M146.736 40.8333C146.736 40.8333 149.352 28.6714 161.759 28.6714C174.145 28.6714 323.397 28.6714 327.689 28.6714C331.981 28.6714 340.566 29.1409 342.936 41.0569H306.316C306.316 41.0569 302.985 42.0182 303.209 48.2109C303.432 54.4037 305.824 70.5897 305.824 70.5897C305.824 70.5897 298.223 54.1354 294.177 49.8653L293.461 48.2333C293.461 48.2333 292.746 40.3638 285.592 40.3638C278.438 40.3638 253.488 40.3638 253.488 40.3638C253.488 40.3638 245.149 38.7765 245.149 51.162C245.149 63.5475 245.149 103.253 245.149 103.253V118.5L234.664 120.646V78.7051L235.133 49.6641C235.133 49.6641 236.095 40.6097 225.609 40.6097C215.124 40.6097 146.736 40.8333 146.736 40.8333Z" fill="#FFC232"/>
<path d="M126.816 184.183C126.816 184.183 133.433 183.02 138.486 183.02C143.538 183.02 155.611 166.096 155.611 186.553C155.611 207.009 147.451 210.876 142.376 210.876C137.323 210.876 127.598 210.876 127.598 210.876C121.383 210.876 118.521 210.876 114.877 210.876C111.255 210.876 106.829 206.249 106.829 202.09H118.499C118.499 202.09 123.171 198.983 123.417 194.825C123.686 190.666 121.338 190.018 121.338 190.018C121.338 190.018 115.883 188.587 116.666 186.508C117.471 184.451 126.816 184.183 126.816 184.183Z" fill="black"/>
<path d="M202.739 184.183C202.739 184.183 209.356 183.02 214.409 183.02C219.461 183.02 231.534 166.096 231.534 186.553C231.534 207.009 223.374 210.876 218.299 210.876C213.246 210.876 203.521 210.876 203.521 210.876C197.306 210.876 194.444 210.876 190.8 210.876C187.179 210.876 182.752 206.249 182.752 202.09H194.422C194.422 202.09 199.095 198.983 199.341 194.825C199.609 190.666 197.261 190.018 197.261 190.018C197.261 190.018 191.806 188.587 192.589 186.508C193.394 184.451 202.739 184.183 202.739 184.183Z" fill="black"/>
<path d="M182.104 200.928C182.104 200.928 221.63 200.928 227.733 200.928C233.836 200.928 235.513 197.038 235.513 193.148C235.513 189.258 235.513 189.392 235.513 185.502C235.513 181.612 233.836 177.722 227.733 177.722C221.607 177.722 182.104 177.722 182.104 177.722C182.104 177.722 103.834 177.722 97.7304 177.722C91.627 177.722 89.9503 181.612 89.9503 185.502C89.9503 189.392 89.9503 189.258 89.9503 193.148C89.9503 197.038 91.627 200.928 97.7304 200.928C103.834 200.928 182.104 200.928 182.104 200.928Z" fill="white" stroke="black" stroke-width="2.86364" stroke-miterlimit="10" stroke-linecap="round" stroke-linejoin="round"/>
<path d="M176.09 184.004H135.848V201.062H176.09V184.004Z" fill="#B3B5B8" stroke="black" stroke-width="2.86364" stroke-miterlimit="10" stroke-linecap="round" stroke-linejoin="round"/>
<path d="M182.059 177.7H128.962C126.033 177.7 123.664 175.33 123.664 172.401V153.935C123.664 151.006 126.033 148.636 128.962 148.636H182.059C184.987 148.636 187.357 151.006 187.357 153.935V172.401C187.357 175.33 184.987 177.7 182.059 177.7Z" fill="#6D6E71" stroke="black" stroke-width="2.86364" stroke-miterlimit="10" stroke-linecap="round" stroke-linejoin="round"/>
<path d="M155.232 78.3252C155.232 54.1578 155.232 49.4183 155.232 46.5343" stroke="black" stroke-width="2.86364" stroke-miterlimit="10" stroke-linecap="round" stroke-linejoin="round"/>
<path d="M130.372 126.593C130.372 126.593 141.214 126.593 145.104 126.593C148.995 126.593 155.232 124.648 155.232 116.868V96.6353" stroke="black" stroke-width="2.86364" stroke-miterlimit="10" stroke-linecap="round" stroke-linejoin="round"/>
<path d="M296.591 122.993L293.931 62.4744C293.931 62.4744 293.439 53.5766 293.148 49.4183C292.612 41.124 287.738 40.6322 284.25 40.6322C284.25 40.6322 261.447 40.6322 254.047 40.6322C246.647 40.6322 245.104 45.3047 245.104 50.3573C245.104 55.4098 245.104 109.088 245.104 116.868C245.104 124.648 251.319 126.593 255.232 126.593C257.154 126.593 271.172 126.593 293.282 126.593C294.937 126.593 296.748 126.011 296.591 122.993Z" stroke="black" stroke-width="2.86364" stroke-miterlimit="10" stroke-linecap="round" stroke-linejoin="round"/>
<path d="M218.88 126.593C218.88 126.593 178.259 126.593 174.369 126.593C170.479 126.593 164.241 124.648 164.241 116.868C164.241 113.894 164.241 96.2105 164.241 93.4159" stroke="black" stroke-width="2.86364" stroke-miterlimit="10" stroke-linecap="round" stroke-linejoin="round"/>
<path d="M241.46 126.213L247.049 119.595" stroke="black" stroke-width="2.86364" stroke-miterlimit="10" stroke-linecap="round" stroke-linejoin="round"/>
<path d="M254.047 164.487C254.047 164.487 257.646 158.853 246.691 159.233C237.749 159.546 238.822 163.704 238.822 163.704L254.047 164.487Z" fill="black"/>
<path d="M352.215 164.487C352.215 164.487 353.78 158.719 344.86 159.233C335.939 159.747 336.99 163.704 336.99 163.704L352.215 164.487Z" fill="black"/>
<path d="M308.217 126.347C307.591 112.508 303.321 51.3408 303.209 48.4568C303.053 44.4774 304.551 41.3027 309.089 41.3027C310.766 41.3027 330.663 41.3027 330.663 41.3027C334.016 41.3027 335.894 42.1076 336.409 47.1378C337.705 60.0374 337.705 60.1269 337.705 60.1269C337.705 60.1269 343.786 120.4 343.943 122.077C344.256 125.408 343.183 126.593 340.164 126.593C340.164 126.593 329.009 126.593 308.485 126.593" stroke="black" stroke-width="2.86364" stroke-miterlimit="10" stroke-linecap="round" stroke-linejoin="round"/>
<path d="M247.318 131.131C247.318 131.131 249.867 135.267 249.867 142.89C249.867 150.514 249.867 158.495 249.867 158.495" stroke="black" stroke-width="2.70401" stroke-miterlimit="10" stroke-linecap="round" stroke-linejoin="round"/>
<path d="M302.157 131.466C302.157 131.466 304.706 135.602 304.706 143.226C304.706 150.849 304.706 187.536 304.706 187.536" stroke="black" stroke-width="2.70401" stroke-miterlimit="10" stroke-linecap="round" stroke-linejoin="round"/>
<path d="M129.969 154.337H186.307" stroke="black" stroke-width="2.86364" stroke-miterlimit="10" stroke-linecap="round" stroke-linejoin="round"/>
<path d="M129.969 160.373H186.307" stroke="black" stroke-width="2.86364" stroke-miterlimit="10" stroke-linecap="round" stroke-linejoin="round"/>
<path d="M129.969 166.409H186.307" stroke="black" stroke-width="2.86364" stroke-miterlimit="10" stroke-linecap="round" stroke-linejoin="round"/>
<path d="M129.969 172.446H186.307" stroke="black" stroke-width="2.86364" stroke-miterlimit="10" stroke-linecap="round" stroke-linejoin="round"/>
<path d="M226.034 40.6322H184.72" stroke="black" stroke-width="2.86364" stroke-miterlimit="10" stroke-linecap="round" stroke-linejoin="round"/>
<path d="M272.737 193.103H320.177" stroke="black" stroke-width="2.86364" stroke-miterlimit="10" stroke-linecap="round" stroke-linejoin="round"/>
<path d="M207.814 114.341V121.048C205.847 121.875 204.461 123.843 204.461 126.123H215.46C215.46 123.843 214.074 121.898 212.106 121.048V114.028" fill="#A7A9AC"/>
<path d="M207.814 114.341V121.048C205.847 121.875 204.461 123.843 204.461 126.123H215.46C215.46 123.843 214.074 121.898 212.106 121.048V114.028" stroke="black" stroke-width="2.86364" stroke-miterlimit="10" stroke-linecap="round" stroke-linejoin="round"/>
<path d="M197.284 125.765H189.548L191.225 116.242L195.115 111.793L200.704 107.411L206.83 105.399C206.83 105.399 217.673 105.51 221.138 108.372C224.603 111.234 228.404 115.526 228.404 115.526L230.55 122.546L230.192 125.877H222.569C222.569 125.877 220.669 119.796 218.992 118.254C217.315 116.711 211.614 112.665 205.891 115.034C200.145 117.426 197.284 125.765 197.284 125.765Z" fill="#6D6E71"/>
<path d="M197.285 126.101C197.285 119.059 202.986 113.358 210.028 113.358C217.07 113.358 222.771 119.059 222.771 126.101" stroke="black" stroke-width="2.86364" stroke-miterlimit="10" stroke-linecap="round" stroke-linejoin="round"/>
<path d="M207.143 82.7515C207.143 82.7515 212.799 82.7515 217.002 82.7515C221.205 82.7515 223.866 79.5769 224.089 75.5975C224.358 70.679 220.87 69.1812 217.897 69.1812C215.907 69.1812 209.96 69.1812 209.96 69.1812H203.41C203.41 69.1812 198.827 69.1812 194.624 69.1812C190.421 69.1812 187.76 72.3558 187.537 76.3352C187.268 81.2536 190.756 82.7515 193.729 82.7515C195.719 82.7515 200.593 82.7515 200.593 82.7515H207.143Z" stroke="black" stroke-width="2.86364" stroke-miterlimit="10" stroke-linecap="round" stroke-linejoin="round"/>
<path d="M317.583 82.7519C317.583 82.7519 322.703 82.7519 326.906 82.7519C331.444 82.7519 333.948 79.8232 333.948 75.9555C333.948 70.5453 329.566 69.1592 326.571 69.1592C324.581 69.1592 320.4 69.1592 320.4 69.1592H313.85C313.85 69.1592 309.267 69.1592 305.064 69.1592C300.861 69.1592 298.2 72.3338 297.977 76.3133C297.708 81.2317 301.196 82.7295 304.169 82.7295C306.159 82.7295 311.033 82.7295 311.033 82.7295H317.583V82.7519Z" stroke="black" stroke-width="2.86364" stroke-miterlimit="10" stroke-linecap="round" stroke-linejoin="round"/>
<path d="M191.716 82.8856L190.71 90.308" stroke="black" stroke-width="2.86364" stroke-miterlimit="10" stroke-linecap="round" stroke-linejoin="round"/>
<path d="M195.764 83.1093L194.78 90.5316" stroke="black" stroke-width="2.86364" stroke-miterlimit="10" stroke-linecap="round" stroke-linejoin="round"/>
<path d="M216.153 82.8856L215.147 90.308" stroke="black" stroke-width="2.86364" stroke-miterlimit="10" stroke-linecap="round" stroke-linejoin="round"/>
<path d="M220.199 83.1093L219.215 90.5316" stroke="black" stroke-width="2.86364" stroke-miterlimit="10" stroke-linecap="round" stroke-linejoin="round"/>
<path d="M183.444 101.151L184.54 96.501C185.322 92.8568 186.865 90.6436 189.749 90.6436C192.633 90.6436 199.943 90.6436 199.943 90.6436C206.36 90.6436 213.648 90.6436 216.174 90.6436C218.7 90.6436 221.719 91.2695 221.964 96.568C222.21 101.844 222.21 104.862 222.21 104.862" stroke="black" stroke-width="2.86364" stroke-miterlimit="10" stroke-linecap="round" stroke-linejoin="round"/>
<path d="M194.713 158.451C194.713 154.449 197.328 152.034 201.397 150.671C206.405 148.994 214.52 146.825 219.103 145.819C223.016 144.97 227.577 146.557 228.717 151.073C230.148 156.752 226.459 164.196 219.282 164.196C212.106 164.196 203.745 164.196 200.726 164.196C197.708 164.219 194.713 161.871 194.713 158.451Z" fill="white" stroke="black" stroke-width="2.86364" stroke-miterlimit="10" stroke-linecap="round" stroke-linejoin="round"/>
<path d="M96.5909 164.219C102.426 164.219 108.149 164.219 110.541 164.219C113.56 164.219 116.555 161.871 116.555 158.451C116.555 154.449 113.94 152.034 109.871 150.671C106.785 149.642 102.538 148.435 98.6477 147.406" fill="white"/>
<path d="M96.5909 164.219C102.426 164.219 108.149 164.219 110.541 164.219C113.56 164.219 116.555 161.871 116.555 158.451C116.555 154.449 113.94 152.034 109.871 150.671C106.785 149.642 102.538 148.435 98.6477 147.406" stroke="black" stroke-width="2.86364" stroke-miterlimit="10" stroke-linecap="round" stroke-linejoin="round"/>
<path d="M354.137 125.654C356.529 127.867 359.301 130.46 361.805 132.808C364.175 135.021 366.522 137.189 367.014 142.354C367.551 148.077 369.16 191.918 369.16 194.31C369.16 196.702 367.975 199.162 364.868 199.162C359.145 199.162 363.683 199.162 363.683 199.162H359.726C359.726 199.162 361.671 160.574 346.267 158.54C331.669 156.617 329.567 174.368 328.673 180.337C327.778 189.928 327.555 199.005 327.555 199.005H262.989C262.989 199.005 265.002 159.702 249.531 158.54C234.44 157.4 233.054 179.153 233.054 179.153" stroke="black" stroke-width="2.86364" stroke-miterlimit="10" stroke-linecap="round" stroke-linejoin="round"/>
<path d="M96.4789 177.565C96.4789 177.565 96.4789 165.493 96.4789 158.898C96.4789 152.28 98.4239 143.919 104.639 140.029C110.854 136.139 129.544 126.615 129.544 126.615L146.401 42.1971C147.966 32.8521 154.695 28.1796 166.119 28.1796C177.543 28.1796 304.774 28.1796 304.774 28.1796C304.774 28.1796 318.702 28.1796 325.7 28.1796C332.697 28.1796 341.349 29.1185 343.495 42.756" stroke="black" stroke-width="2.86364" stroke-miterlimit="10" stroke-linecap="round" stroke-linejoin="round"/>
<path d="M129.543 126.593C129.543 126.593 220.981 126.593 224.871 126.593C228.761 126.593 234.999 124.648 234.999 116.868C234.999 109.088 234.999 55.4098 234.999 50.3573C234.999 45.3047 233.434 40.6322 226.056 40.6322C218.656 40.6322 148.233 40.6322 148.233 40.6322" stroke="black" stroke-width="2.86364" stroke-miterlimit="10" stroke-linecap="round" stroke-linejoin="round"/>
<path d="M266.298 109.781C266.298 103.678 262.408 102.001 258.518 102.001C254.628 102.001 254.762 102.001 250.872 102.001C246.982 102.001 243.092 103.678 243.092 109.781C243.092 115.907 243.092 107.076 243.092 113.201C243.092 119.305 246.982 120.981 250.872 120.981C254.762 120.981 254.628 120.981 258.518 120.981C262.408 120.981 266.298 119.305 266.298 113.201C266.298 107.076 266.298 115.907 266.298 109.781Z" fill="#D1D3D4" stroke="black" stroke-width="2.86364" stroke-miterlimit="10" stroke-linecap="round" stroke-linejoin="round"/>
<path d="M220.715 151.14V159.68" stroke="black" stroke-width="2.86364" stroke-miterlimit="10" stroke-linecap="round" stroke-linejoin="round"/>
<path d="M285.615 135.356H295.362" stroke="black" stroke-width="2.86364" stroke-miterlimit="10" stroke-linecap="round" stroke-linejoin="round"/>
<path d="M358.452 199.452C358.452 199.452 360.755 198.827 360.755 194.758C360.755 190.711 360.755 184.027 360.755 181.657C360.755 179.265 361.47 177.118 364.801 177.118C366.858 177.118 367.506 177.118 370.055 177.118C373.073 177.118 373.386 179.958 373.386 181.657C373.386 184.764 373.386 189.526 373.386 192.611C373.386 195.361 372.581 199.452 366.232 199.452C362.118 199.452 363.37 199.452 358.452 199.452Z" fill="white" stroke="black" stroke-width="2.86364" stroke-miterlimit="10" stroke-linecap="round" stroke-linejoin="round"/>
<path d="M336.431 162.229C336.431 162.229 346.156 162.229 351.208 162.229C356.261 162.229 364.443 166.097 364.443 186.553C364.443 207.009 356.283 210.877 351.208 210.877C346.156 210.877 336.431 210.877 336.431 210.877C330.216 210.877 327.354 210.877 323.71 210.877C320.088 210.877 314.879 205.981 314.633 200.28L326.057 199.765C326.057 199.765 327.622 196.144 327.868 191.985C328.136 187.827 329.433 180.561 329.433 180.561C329.433 180.561 330.26 175.978 330.73 173.81C332.161 167.036 336.431 162.229 336.431 162.229Z" fill="black"/>
<path d="M358.988 186.552C358.988 193.215 356.842 198.625 354.182 198.625C351.521 198.625 349.375 193.215 349.375 186.552C349.375 179.89 351.521 174.48 354.182 174.48C356.842 174.502 358.988 179.89 358.988 186.552Z" fill="white"/>
<path d="M239.269 162.229C239.269 162.229 248.994 162.229 254.047 162.229C259.099 162.229 267.282 166.097 267.282 186.553C267.282 207.009 259.121 210.877 254.047 210.877C248.994 210.877 239.269 210.877 239.269 210.877C233.054 210.877 230.192 210.877 226.548 210.877C222.926 210.877 218.5 206.249 218.5 202.091H230.17C230.17 202.091 234.842 198.983 235.088 194.825C235.357 190.666 235.088 183.155 235.088 183.155C235.088 183.155 232.763 175.889 233.523 173.81C234.328 171.73 239.269 162.229 239.269 162.229Z" fill="black"/>
<path d="M261.827 186.552C261.827 193.215 259.68 198.625 257.02 198.625C254.36 198.625 252.213 193.215 252.213 186.552C252.213 179.89 254.36 174.48 257.02 174.48C259.68 174.502 261.827 179.89 261.827 186.552Z" fill="white"/>
<path d="M327.443 82.7516C327.443 82.7516 326.526 82.7516 329.097 82.7516C331.668 82.7516 334.239 85.0767 335.111 89.548C335.961 94.0192 338.375 120.467 338.375 120.467" stroke="black" stroke-width="2.86364" stroke-miterlimit="10" stroke-linecap="round" stroke-linejoin="round"/>
<path d="M319.887 91.3367L320.826 90.8672L321.318 91.8062C321.385 91.9403 328.718 105.779 342.825 103.275C356.127 100.928 354.361 76.0449 354.339 75.799L354.227 74.7482L365.986 73.4515V74.7259C366.031 77.4086 365.964 84.4286 364.533 91.9403C361.381 108.574 352.103 113.581 344.882 114.856C343.026 115.191 341.171 115.348 339.337 115.348C331.982 115.348 324.962 112.598 319.06 107.411C313.672 102.671 310.922 97.3506 310.811 97.127L310.341 96.1881L319.887 91.3367Z" fill="#EF442A"/>
<path d="M365.963 66.8787C365.963 67.9294 365.113 68.779 364.063 68.779C363.012 68.779 362.162 67.9294 362.162 66.8787C362.162 65.8279 363.012 64.9784 364.063 64.9784C365.113 64.9784 365.963 65.8279 365.963 66.8787Z" fill="#EF442A"/>
<path d="M365.963 66.8789H362.14V74.2789H365.963V66.8789Z" fill="#EF442A"/>
<path d="M362.14 66.8787C362.14 67.9294 361.291 68.779 360.24 68.779C359.189 68.779 358.34 67.9294 358.34 66.8787C358.34 65.8279 359.189 64.9784 360.24 64.9784C361.291 64.9784 362.14 65.8279 362.14 66.8787Z" fill="#EF442A"/>
<path d="M362.163 66.8789H358.34V74.2789H362.163V66.8789Z" fill="#EF442A"/>
<path d="M358.341 66.8787C358.341 67.9294 357.491 68.779 356.44 68.779C355.39 68.779 354.54 67.9294 354.54 66.8787C354.54 65.8279 355.39 64.9784 356.44 64.9784C357.469 64.9784 358.341 65.8279 358.341 66.8787Z" fill="#EF442A"/>
<path d="M358.339 66.8789H354.516V74.2789H358.339V66.8789Z" fill="#EF442A"/>
<path d="M353.653 71.4001L351.182 74.0476L355.267 77.8616L357.739 75.2141L353.653 71.4001Z" fill="#EF442A"/>
<path d="M365.896 74.279L355.948 73.4741V75.8886L361.671 75.6874L365.896 74.279Z" fill="#EF442A"/>
<path d="M364.489 72.1993L355.278 73.7419V75.5304L361.582 75.6869L365.003 73.0936L364.489 72.1993Z" fill="#EF442A"/>
<path d="M353.644 71.3949C354.382 72.0656 354.405 73.2281 353.734 73.9435C353.063 74.6813 351.901 74.7036 351.185 74.0329C350.447 73.3622 350.425 72.1997 351.096 71.4843C351.766 70.7689 352.907 70.7242 353.644 71.3949Z" fill="#EF442A"/>
<path d="M319.886 91.3366L320.825 90.8672L321.317 91.8061C321.384 91.9403 328.717 105.779 342.824 103.275C354.382 101.218 354.561 82.1705 354.382 77.0509L351.163 74.0551C350.425 73.3844 350.403 72.2219 351.073 71.5065C351.744 70.7687 352.907 70.7464 353.622 71.417L354.494 72.2442V66.8787C354.494 65.8279 355.343 64.9784 356.394 64.9784C357.445 64.9784 358.294 65.8279 358.294 66.8787V70.724V66.8787C358.294 65.8279 359.144 64.9784 360.195 64.9784C361.246 64.9784 362.095 65.8279 362.095 66.8787C362.095 65.8279 362.945 64.9784 363.995 64.9784C365.046 64.9784 365.896 65.8279 365.896 66.8787V73.7868V74.7258C365.94 77.4086 365.873 84.4285 364.443 91.9403C361.29 108.573 352.012 113.581 344.791 114.856C342.936 115.191 341.08 115.347 339.247 115.347C331.892 115.347 324.872 112.598 318.969 107.411C313.582 102.671 310.832 97.3505 310.72 97.127L310.25 96.188L319.886 91.3366Z" stroke="#030000" stroke-width="2.4534" stroke-miterlimit="10" stroke-linecap="round" stroke-linejoin="round"/>
<path d="M284.384 184.161L284.406 205.757C284.406 208.105 282.484 211.391 278.482 211.391C275.039 211.391 272.334 211.391 270.054 211.391C266.857 211.391 262.072 209.379 262.072 204.573C262.072 199.766 266.432 198.156 269.629 198.156C270.724 198.156 270.724 198.156 270.724 198.156V184.161H284.384Z" fill="white"/>
<path d="M270.761 184.152H284.398V158.174H270.761V184.152Z" fill="#EF442A"/>
<path d="M270.761 189.721H284.398V187.888H270.761V189.721Z" fill="#1F5DA9"/>
<path d="M270.761 193.367H284.398V191.534H270.761V193.367Z" fill="#1F5DA9"/>
<path d="M284.384 184.161L284.406 205.757C284.406 208.105 282.484 211.391 278.482 211.391C275.039 211.391 272.334 211.391 270.054 211.391C266.857 211.391 262.072 209.379 262.072 204.573C262.072 199.766 266.432 198.156 269.629 198.156C270.724 198.156 270.724 198.156 270.724 198.156V184.161H284.384Z" stroke="#030000" stroke-width="2.4534" stroke-miterlimit="10" stroke-linecap="round" stroke-linejoin="round"/>
<path d="M270.761 184.152H284.398V158.174H270.761V184.152Z" stroke="#030000" stroke-width="2.4534" stroke-miterlimit="10" stroke-linecap="round" stroke-linejoin="round"/>
<path d="M284.407 184.161L284.384 205.757C284.384 208.105 286.307 211.391 290.309 211.391C293.752 211.391 296.457 211.391 298.737 211.391C301.934 211.391 306.696 209.379 306.719 204.573C306.719 199.766 302.359 198.156 299.162 198.156C298.067 198.156 298.067 198.156 298.067 198.156V184.161H284.407Z" fill="white"/>
<path d="M298.022 158.183H284.384V184.161H298.022V158.183Z" fill="#EF442A"/>
<path d="M298.022 187.917H284.384V189.75H298.022V187.917Z" fill="#1F5DA9"/>
<path d="M298.022 191.561H284.384V193.394H298.022V191.561Z" fill="#1F5DA9"/>
<path d="M284.407 184.161L284.384 205.757C284.384 208.105 286.307 211.391 290.309 211.391C293.752 211.391 296.457 211.391 298.737 211.391C301.934 211.391 306.696 209.379 306.719 204.573C306.719 199.766 302.359 198.156 299.162 198.156C298.067 198.156 298.067 198.156 298.067 198.156V184.161H284.407Z" stroke="#030000" stroke-width="2.4534" stroke-miterlimit="10" stroke-linecap="round" stroke-linejoin="round"/>
<path d="M298.022 158.183H284.384V184.161H298.022V158.183Z" stroke="#030000" stroke-width="2.4534" stroke-miterlimit="10" stroke-linecap="round" stroke-linejoin="round"/>
<path d="M300.302 162.296C315.706 159.211 326.974 148.838 328.829 131.131C331.042 109.937 318.925 96.5458 321.496 73.4069C323.285 57.4891 313.269 42.1749 296.345 40.4087C279.399 38.6426 266.455 51.5422 264.89 67.4824C262.632 90.6437 247.988 101.241 245.775 122.435C243.919 140.141 252.795 152.616 267.237 158.831C278.773 163.615 290.98 163.883 300.302 162.296Z" fill="#EF442A"/>
<path d="M303.297 64.1738C304.214 64.2633 304.884 65.1128 304.795 66.0294C304.706 66.9684 303.856 67.6391 302.939 67.5496C302.023 67.4602 301.352 66.633 301.441 65.6941C301.553 64.7551 302.38 64.062 303.297 64.1738Z" fill="#030000"/>
<path d="M284.564 61.9382C285.503 62.0276 286.174 62.8771 286.062 63.7937C285.972 64.7327 285.145 65.4034 284.206 65.2916C283.29 65.2022 282.619 64.375 282.708 63.4361C282.82 62.5194 283.647 61.8487 284.564 61.9382Z" fill="#030000"/>
<path d="M292.924 72.9823C292.007 72.8929 291.336 72.0434 291.426 71.1268C291.515 70.2102 292.342 69.5171 293.281 69.6065C294.198 69.696 294.869 70.5455 294.779 71.4621C294.69 72.4011 293.84 73.0941 292.924 72.9823Z" fill="#030000"/>
<path d="M270.076 164.13C270.076 164.13 278.929 163.749 284.026 168.154L283.467 162.743L270.746 160.083L270.076 164.13Z" fill="#030000"/>
<path d="M284.296 164.018C284.296 164.018 293.149 165.024 298.246 169.428V163.213L291.271 163.459L284.296 164.018Z" fill="#030000"/>
<path d="M300.302 162.296C315.706 159.211 326.974 148.838 328.829 131.131C331.042 109.937 318.925 96.5458 321.496 73.4069C323.285 57.4891 313.269 42.1749 296.345 40.4087C279.399 38.6426 266.455 51.5422 264.89 67.4824C262.632 90.6437 247.988 101.241 245.775 122.435C243.919 140.141 252.795 152.616 267.237 158.831C278.773 163.615 290.98 163.883 300.302 162.296Z" stroke="#030000" stroke-width="2.4534" stroke-miterlimit="10" stroke-linecap="round" stroke-linejoin="round"/>
<path d="M362.14 70.5901V66.8789" stroke="#030000" stroke-width="2.4534" stroke-miterlimit="10" stroke-linecap="round" stroke-linejoin="round"/>
<path d="M286.04 91.9854L294.356 92.7902L290.667 99.743L292.434 126.481L286.71 134.083L282.485 124.939L288.164 99.6089L286.04 91.9854Z" fill="#030000"/>
<path d="M298.134 78.4597C298.134 78.4597 295.72 79.8905 292.187 79.421C288.655 78.9739 286.688 76.9841 286.688 76.9841" stroke="#030000" stroke-width="2.42143" stroke-miterlimit="10" stroke-linecap="round" stroke-linejoin="round"/>
<path d="M229.858 199.989L223.709 191.181C223.709 191.181 220.356 187.246 222.145 184.675C223.933 182.104 234.888 183.445 234.888 183.445L236.341 194.4L229.858 199.989Z" fill="white"/>
<path d="M234.953 185.512L222.374 189.33L222.887 191.02L235.466 187.202L234.953 185.512Z" fill="#EF442A"/>
<path d="M235.526 185.34L224.703 192.802L225.706 194.256L236.528 186.794L235.526 185.34Z" fill="#EF442A"/>
<path d="M222.771 184.541L235.335 185.011L237.615 174.235L231.087 173.475L222.771 184.541Z" fill="#FFC232"/>
<path d="M230.819 173.899C230.819 173.899 224.627 180.875 223.151 182.842C221.653 184.787 221.318 188.118 223.732 191.203C226.147 194.288 230.708 199.788 230.708 199.788" stroke="#030000" stroke-width="2.47352" stroke-miterlimit="10" stroke-linecap="round" stroke-linejoin="round"/>
<path d="M222.771 185.234L233.166 185.569" stroke="#030000" stroke-width="2.47352" stroke-miterlimit="10" stroke-linecap="round" stroke-linejoin="round"/>
<path d="M230.484 175.017C230.484 175.017 236.162 176.56 239.94 180.942L242.355 173.631L234.195 174.146L230.417 174.056L230.484 175.017Z" fill="#030000"/>
<path d="M172.737 130.081C172.737 130.081 179.22 140.722 184.742 143.897C190.264 147.071 196.368 146.937 199.319 146.334C202.292 145.752 211.414 141.281 213.537 139.515L207.345 129.768C207.345 129.768 202.56 134.284 199.788 135.178C197.016 136.072 193.081 136.787 189.84 135.133C186.598 133.479 183.401 128.806 183.088 128.18C182.797 127.554 178.796 118.455 178.796 118.455L173.296 125.184L172.737 130.081Z" fill="#FFC232"/>
<path d="M176.068 113.559C175.174 113.872 174.704 114.834 174.995 115.706L175.285 116.756L174.995 115.706C174.682 114.811 173.72 114.342 172.848 114.655C171.954 114.968 171.485 115.929 171.775 116.801C171.462 115.907 170.501 115.437 169.629 115.728C168.735 116.041 168.265 117.002 168.556 117.874L169.741 121.496L170.009 122.301C170.747 124.559 172.066 128.493 174.503 132.786C182.283 146.535 191.404 147.966 197.865 146.96C199.52 146.714 201.062 145.753 202.583 145.238C207.434 143.584 211.637 140.588 214.901 136.452" stroke="#030000" stroke-width="2.33603" stroke-miterlimit="10" stroke-linecap="round" stroke-linejoin="round"/>
<path d="M171.35 128.381L162.296 125.743C160.977 125.363 160.217 123.977 160.597 122.658L165.605 105.421C165.985 104.102 167.371 103.342 168.69 103.722L177.744 106.36C179.063 106.74 179.823 108.126 179.443 109.445L174.435 126.682C174.055 128.001 172.669 128.761 171.35 128.381Z" fill="#EF442A" stroke="black" stroke-width="2.23721" stroke-miterlimit="10" stroke-linecap="round" stroke-linejoin="round"/>
<path d="M172.066 123.53L164.375 121.294C164.017 121.183 163.816 120.803 163.905 120.445L167.661 107.478C167.773 107.12 168.153 106.919 168.511 107.009L176.201 109.244C176.559 109.356 176.76 109.736 176.671 110.094L172.915 123.061C172.803 123.418 172.423 123.642 172.066 123.53Z" fill="#030000"/>
<path d="M168.602 123.754C168.781 124.246 168.513 124.805 168.021 124.984C167.529 125.163 166.97 124.894 166.791 124.402C166.612 123.91 166.88 123.351 167.372 123.172C167.887 122.993 168.446 123.262 168.602 123.754Z" fill="#030000"/>
<path d="M178.437 127.04C178.437 127.04 176.738 125.117 176.291 123.709C175.844 122.3 176.537 120.512 176.537 120.512C176.537 120.512 173.787 118.701 174.592 116.957C175.374 115.258 177.677 116.108 178.035 116.398C178.393 116.689 180.628 120.489 180.628 120.489L180.718 123.485L178.437 127.04Z" fill="#FFC232"/>
<path d="M208.06 127.912C205.892 131.489 202.248 135.29 196.167 136.095C186.352 137.391 181.903 126.504 180.964 124.402C180.964 124.402 181.188 119.059 178.617 116.801C176.962 115.348 175.576 115.75 174.906 116.689C174.213 117.673 174.66 119.081 175.509 119.819C176.359 120.557 176.471 120.713 176.471 120.713C176.471 120.713 174.146 123.083 176.292 125.967" stroke="#030000" stroke-width="2.33603" stroke-miterlimit="10" stroke-linecap="round" stroke-linejoin="round"/>
<path d="M241.863 205.958C241.863 208.216 240.008 211.391 236.162 211.391C232.831 211.391 230.976 211.391 228.785 211.391C225.7 211.391 221.094 209.468 221.094 204.818C221.094 200.168 225.297 198.625 228.382 198.625C230.752 198.625 233.122 198.625 233.122 198.625" fill="white"/>
<path d="M249.661 172.106L236.798 169.396L233.054 187.159L245.917 189.869L249.661 172.106Z" fill="#FFC232"/>
<path d="M249.661 172.106L236.798 169.396L233.054 187.159L245.917 189.869L249.661 172.106Z" stroke="#030000" stroke-width="2.47352" stroke-miterlimit="10" stroke-linecap="round" stroke-linejoin="round"/>
<path d="M241.572 207.59L228.628 204.997L234.396 186.106L246.96 189.973L241.572 207.59Z" fill="white"/>
<path d="M246.094 192.232L233.269 189.345L232.882 191.069L245.706 193.955L246.094 192.232Z" fill="#EF442A"/>
<path d="M245.338 195.653L232.514 192.767L232.126 194.49L244.951 197.376L245.338 195.653Z" fill="#EF442A"/>
<path d="M241.64 207.389C241.663 207.345 241.663 207.3 241.685 207.255L245.977 189.258L233.212 186.598L230.574 198.626C229.903 198.626 229.165 198.626 228.405 198.626C225.32 198.626 221.117 200.168 221.117 204.818C221.117 209.469 225.7 211.391 228.808 211.391C230.999 211.391 232.854 211.391 236.185 211.391C239.159 211.391 240.947 209.491 241.595 207.591L241.64 207.389Z" stroke="#030000" stroke-width="2.47352" stroke-miterlimit="10" stroke-linecap="round" stroke-linejoin="round"/>
<path d="M250.268 137.637C250.268 137.637 248.479 136.542 248.815 134.865C249.173 133.121 251.14 132.518 253.353 133.77L254.56 137.168L250.268 137.637Z" fill="#EF442A"/>
<path d="M250.268 137.637C250.268 137.637 248.479 136.542 248.815 134.865C249.173 133.121 251.14 132.518 253.353 133.77L254.56 137.168L250.268 137.637Z" stroke="#030000" stroke-width="2.4534" stroke-miterlimit="10" stroke-linecap="round" stroke-linejoin="round"/>
<path d="M233.549 173.625H246.315V171.926H233.549V173.625Z" fill="#FDB923"/>
<path d="M271.231 159.794C289.626 141.398 289.626 111.573 271.231 93.1776C252.835 74.7821 223.01 74.7821 204.615 93.1776C186.219 111.573 186.219 141.398 204.615 159.794C223.01 178.189 252.835 178.189 271.231 159.794Z" fill="#FFC232"/>
<path d="M225.208 118.992C226.035 118.992 226.728 118.299 226.728 117.472C226.728 116.644 226.057 115.951 225.208 115.951C224.381 115.951 223.71 116.644 223.71 117.472C223.71 118.299 224.381 118.992 225.208 118.992Z" fill="#030000"/>
<path d="M271.231 159.794C289.626 141.398 289.626 111.573 271.231 93.1776C252.835 74.7821 223.01 74.7821 204.615 93.1776C186.219 111.573 186.219 141.398 204.615 159.794C223.01 178.189 252.835 178.189 271.231 159.794Z" stroke="#030000" stroke-width="2.42143" stroke-miterlimit="10" stroke-linecap="round" stroke-linejoin="round"/>
<path d="M231.021 123.061C231.021 123.061 228.897 124.782 225.432 124.782C221.989 124.782 219.843 123.061 219.843 123.061" stroke="#030000" stroke-width="2.42143" stroke-miterlimit="10" stroke-linecap="round" stroke-linejoin="round"/>
<path d="M236.341 108.574V110.899C236.341 112.374 235.156 113.559 233.68 113.559C232.205 113.559 231.02 112.374 231.02 110.899V108.574" stroke="#030000" stroke-width="2.19876" stroke-miterlimit="10" stroke-linecap="round" stroke-linejoin="round"/>
<path d="M219.26 108.574V110.899C219.26 112.374 218.075 113.559 216.6 113.559C215.124 113.559 213.939 112.374 213.939 110.899V108.574" stroke="#030000" stroke-width="2.19876" stroke-miterlimit="10" stroke-linecap="round" stroke-linejoin="round"/>
<path d="M236.498 174.928C236.498 174.928 243.808 175.867 247.229 180.428L248.794 173.475L240.634 173.989L236.855 173.9L236.498 174.928Z" fill="#030000"/>
<path d="M240.5 146.714L238.086 146.647C237.147 146.647 236.386 147.407 236.386 148.346C236.386 149.285 237.147 150.045 238.086 150.045L239.181 150.09L238.086 150.045C237.147 150.045 236.386 150.805 236.386 151.744C236.386 152.683 237.147 153.443 238.086 153.443C237.147 153.443 236.386 154.203 236.386 155.142C236.386 156.081 237.147 156.841 238.086 156.841L241.909 156.908H242.758C245.15 156.953 249.309 157.065 254.138 156.059C268.87 152.974 273.409 144.858 274.549 138.419C274.84 136.765 274.996 135.111 274.996 133.479C274.996 128.359 273.498 123.418 270.637 118.992" stroke="#030000" stroke-width="2.33603" stroke-miterlimit="10" stroke-linecap="round" stroke-linejoin="round"/>
<path d="M260.263 122.703C262.945 125.9 265.248 130.55 264.175 136.586C262.342 146.87 249.889 146.759 245.328 146.602C244.68 146.602 243.808 146.244 243.875 144.814C243.942 143.271 242.735 142.31 241.617 142.466C240.678 142.6 239.896 143.182 239.896 144.836C239.896 145.752 239.896 146.423 239.896 146.423" stroke="#030000" stroke-width="2.33603" stroke-miterlimit="10" stroke-linecap="round" stroke-linejoin="round"/>
<path d="M239.026 153.51L238.063 153.465" stroke="#030000" stroke-width="2.33603" stroke-miterlimit="10" stroke-linecap="round" stroke-linejoin="round"/>
<path d="M195.586 98.5134C196.212 98.3569 199.387 100.302 199.387 100.302L202.785 97.7085C202.785 97.7085 203.657 95.8753 202.919 95.1375C202.181 94.3998 201.13 93.7067 199.901 94.9363C198.649 96.1883 195.586 98.5134 195.586 98.5134Z" fill="#EF442A"/>
<path d="M199.006 98.2003L202.226 100.369C203.209 101.017 203.5 102.336 202.851 103.32C202.203 104.304 200.884 104.594 199.9 103.946L197.508 102.403L199.9 103.946C200.884 104.594 201.175 105.913 200.526 106.897C199.878 107.881 198.559 108.171 197.575 107.523C198.559 108.171 198.85 109.49 198.201 110.474C197.553 111.458 196.234 111.748 195.25 111.1L191.919 108.842C190.533 107.948 188.722 105.086 191.584 100.861C194.088 97.1271 197.329 97.0377 199.006 98.2003Z" fill="#EF442A"/>
<path d="M200.146 98.7598L202.583 100.369C203.566 101.018 203.857 102.337 203.209 103.321C202.56 104.304 201.241 104.595 200.258 103.947L197.865 102.404L200.258 103.947C201.241 104.595 201.532 105.914 200.884 106.898C200.235 107.881 198.916 108.172 197.932 107.524C198.916 108.172 199.207 109.491 198.558 110.475C197.91 111.458 196.591 111.749 195.607 111.101L192.276 108.865C190.89 107.971 188.878 104.93 191.65 100.66C193.148 98.3351 195.294 97.3961 195.294 97.3961C196.502 96.7925 197.195 96.5912 198.089 96.2112" stroke="black" stroke-width="2.47352" stroke-miterlimit="10" stroke-linecap="round" stroke-linejoin="round"/>
<path d="M195.674 106.07L197.91 107.523" stroke="black" stroke-width="2.47352" stroke-miterlimit="10" stroke-linecap="round" stroke-linejoin="round"/>
<path d="M201.443 99.2531L202.697 98.1556" stroke="black" stroke-width="2.69977" stroke-miterlimit="10" stroke-linecap="round" stroke-linejoin="round"/>
<path d="M197.753 96.4342L199.854 94.9587C200.748 94.1762 202.09 94.2656 202.872 95.1599C203.655 96.0541 203.565 97.3955 202.671 98.178" stroke="black" stroke-width="2.47352" stroke-miterlimit="10" stroke-linecap="round" stroke-linejoin="round"/>
<path d="M235.624 7.85757C236.192 7.85757 236.653 7.39714 236.653 6.82918C236.653 6.26121 236.192 5.80078 235.624 5.80078C235.057 5.80078 234.596 6.26121 234.596 6.82918C234.596 7.39714 235.057 7.85757 235.624 7.85757Z" fill="#F4763A"/>
<path d="M236.698 12.1501C236.698 11.8147 236.698 11.457 236.675 11.1217C236.653 10.831 236.631 10.5628 236.608 10.2721V10.2498C236.608 10.1827 236.541 10.138 236.474 10.1156H236.452C236.183 10.0933 235.915 10.0933 235.647 10.0933C235.088 10.0933 234.618 10.5404 234.618 11.1217C234.596 11.457 234.596 11.8147 234.596 12.1501C234.596 12.4854 234.596 12.8431 234.618 13.1785C234.641 13.4691 234.663 13.7374 234.686 14.028V14.0504C234.686 14.1174 234.753 14.1621 234.82 14.1845H234.842C235.11 14.2069 235.379 14.2068 235.647 14.2068C236.206 14.2068 236.675 13.7597 236.675 13.1785C236.675 12.8431 236.698 12.5078 236.698 12.1501Z" fill="#F4763A"/>
<path d="M227.845 12.3066C227.845 12.5301 228.225 12.2395 228.292 12.2171C228.56 12.0606 228.851 11.9042 229.142 11.7477C229.7 11.457 230.259 11.2111 230.841 10.9652C231.958 10.518 233.143 10.1827 234.328 9.95913C235.535 9.73557 236.787 9.62379 238.017 9.66851C238.889 9.71322 240.409 10.1827 240.23 11.3229C240.186 11.5464 240.119 11.77 240.029 11.9936C239.984 12.1277 239.806 12.3736 240.051 12.3736C240.253 12.3736 240.588 12.0606 240.722 11.9489C240.946 11.77 241.169 11.5688 241.371 11.3452C242.064 10.5628 242.309 9.44494 241.415 8.68482C240.521 7.9247 239.247 7.87999 238.151 7.94706C236.899 8.01413 235.67 8.21534 234.462 8.55068C233.143 8.90839 231.869 9.40022 230.662 10.0486C230.103 10.3392 229.499 10.6745 228.985 11.0546C228.739 11.2335 228.516 11.457 228.314 11.6806C228.18 11.8147 227.845 12.1054 227.845 12.3066Z" fill="#518043"/>
<path d="M243.607 12.0606C243.607 11.8371 243.227 12.1277 243.16 12.15C242.891 12.3065 242.601 12.463 242.31 12.6195C241.751 12.9102 241.192 13.1561 240.611 13.402C239.493 13.8491 238.308 14.1845 237.124 14.408C235.916 14.6316 234.664 14.7434 233.435 14.6987C232.563 14.654 231.043 14.1845 231.221 13.0443C231.266 12.8207 231.333 12.5972 231.423 12.3736C231.467 12.2395 231.646 11.9935 231.4 11.9935C231.199 11.9935 230.864 12.3065 230.73 12.4183C230.506 12.5972 230.282 12.7984 230.081 13.0219C229.388 13.8044 229.142 14.9222 230.037 15.6824C230.931 16.4425 232.205 16.4872 233.301 16.4201C234.553 16.3531 235.782 16.1518 236.989 15.8165C238.308 15.4588 239.583 14.967 240.79 14.3186C241.349 14.028 241.953 13.6926 242.467 13.3126C242.713 13.1337 242.936 12.9102 243.137 12.6866C243.272 12.5748 243.607 12.2618 243.607 12.0606Z" fill="#31376B"/>
<path d="M217.986 22.7449L219.797 22.6108C219.842 22.9014 219.999 23.1473 220.244 23.3262C220.49 23.505 220.781 23.5945 221.116 23.5945C221.496 23.5945 221.809 23.4827 222.078 23.2591C222.346 23.0356 222.48 22.7002 222.48 22.2307C222.48 21.806 222.346 21.493 222.1 21.2694C221.832 21.0458 221.496 20.9564 221.094 20.9564C220.58 20.9564 220.11 21.1353 219.708 21.4706L218.232 21.3141L219.149 17.7147H223.933V18.9667H220.535L220.244 20.1516C220.647 19.9951 221.049 19.928 221.474 19.928C222.279 19.928 222.95 20.1516 223.508 20.5763C224.067 21.0011 224.336 21.56 224.336 22.2531C224.336 22.8343 224.112 23.3262 223.665 23.7733C223.061 24.3769 222.212 24.6899 221.116 24.6899C220.244 24.6899 219.529 24.5111 218.992 24.1757C218.411 23.7733 218.076 23.3262 217.986 22.7449Z" fill="#D92528"/>
<path d="M225.364 22.7469L227.174 22.6127C227.219 22.9034 227.376 23.1493 227.622 23.3281C227.867 23.507 228.158 23.5964 228.493 23.5964C228.873 23.5964 229.186 23.4846 229.455 23.2611C229.723 23.0375 229.857 22.7022 229.857 22.2327C229.857 21.8079 229.723 21.4949 229.477 21.2714C229.209 21.0478 228.873 20.9584 228.471 20.9584C227.957 20.9584 227.487 21.1372 227.085 21.4726L225.609 21.3161L226.526 17.7167H231.31V18.9686H227.912L227.622 20.1535C228.024 19.997 228.426 19.93 228.851 19.93C229.656 19.93 230.327 20.1535 230.886 20.5783C231.444 21.0031 231.713 21.562 231.713 22.255C231.713 22.8363 231.489 23.3281 231.042 23.7753C230.438 24.3789 229.589 24.6919 228.493 24.6919C227.622 24.6919 226.906 24.513 226.37 24.1777C225.811 23.7753 225.475 23.3281 225.364 22.7469Z" fill="#D92528"/>
<path d="M238.866 19.3043L237.122 19.4385C237.077 19.1702 236.965 18.969 236.786 18.8572C236.608 18.7231 236.362 18.6784 236.093 18.6784C235.713 18.6784 235.378 18.8125 235.132 19.0584C234.864 19.3043 234.707 19.8409 234.64 20.6234C235.087 20.2433 235.646 20.0421 236.317 20.0421C237.077 20.0421 237.725 20.2433 238.262 20.6681C238.798 21.0929 239.067 21.6294 239.067 22.3001C239.067 23.0155 238.776 23.5744 238.217 23.9992C237.658 24.424 236.921 24.6475 236.026 24.6475C235.065 24.6475 234.282 24.3793 233.679 23.8427C233.075 23.3061 232.762 22.4119 232.762 21.1823C232.762 19.908 233.075 18.9913 233.724 18.4324C234.372 17.8735 235.199 17.5829 236.205 17.5829C236.92 17.5829 237.524 17.7394 237.994 18.03C238.463 18.3207 238.731 18.7454 238.866 19.3043ZM234.752 22.1883C234.752 22.6131 234.886 22.9484 235.154 23.1944C235.423 23.4179 235.736 23.5521 236.071 23.5521C236.406 23.5521 236.675 23.4626 236.898 23.2614C237.122 23.0602 237.233 22.7472 237.233 22.3225C237.233 21.8753 237.122 21.54 236.876 21.3388C236.63 21.1376 236.339 21.0258 235.982 21.0258C235.624 21.0258 235.333 21.1152 235.11 21.3164C234.886 21.5176 234.752 21.8083 234.752 22.1883Z" fill="#D92528"/>
<path d="M241.684 20.7796C241.214 20.6231 240.879 20.4443 240.655 20.176C240.454 19.9301 240.342 19.6395 240.342 19.3488C240.342 18.8346 240.588 18.4098 241.08 18.0745C241.572 17.7392 242.265 17.5603 243.182 17.5603C244.076 17.5603 244.769 17.7392 245.261 18.0745C245.753 18.4098 245.999 18.8346 245.999 19.3488C245.999 19.6618 245.887 19.9524 245.663 20.1984C245.44 20.4443 245.127 20.6455 244.702 20.7796C245.216 20.9361 245.619 21.1597 245.887 21.4503C246.155 21.741 246.289 22.0987 246.289 22.4787C246.289 23.1271 246.021 23.6413 245.462 24.0437C244.903 24.4461 244.165 24.6473 243.249 24.6473C242.399 24.6473 241.684 24.4908 241.103 24.1555C240.432 23.7754 240.097 23.2388 240.097 22.5458C240.097 22.1657 240.231 21.8304 240.477 21.5174C240.723 21.2044 241.125 20.9585 241.684 20.7796ZM241.885 22.4116C241.885 22.7694 242.019 23.06 242.265 23.2612C242.511 23.4624 242.846 23.5742 243.226 23.5742C243.607 23.5742 243.897 23.4848 244.143 23.2836C244.389 23.0823 244.501 22.7917 244.501 22.434C244.501 22.0987 244.367 21.8527 244.121 21.6515C243.875 21.4503 243.562 21.3609 243.182 21.3609C242.735 21.3609 242.422 21.4727 242.198 21.6962C241.997 21.9198 241.885 22.1657 241.885 22.4116ZM242.042 19.4606C242.042 19.7289 242.153 19.9301 242.355 20.0866C242.556 20.2431 242.824 20.3101 243.159 20.3101C243.495 20.3101 243.785 20.2431 243.987 20.0866C244.188 19.9301 244.3 19.7289 244.3 19.4606C244.3 19.2147 244.188 19.0135 243.987 18.857C243.785 18.7005 243.517 18.6334 243.182 18.6334C242.824 18.6334 242.556 18.7005 242.355 18.857C242.153 19.0135 242.042 19.2147 242.042 19.4606Z" fill="#D92528"/>
<path d="M249.06 20.7796C248.591 20.6231 248.255 20.4443 248.032 20.176C247.831 19.9301 247.719 19.6395 247.719 19.3488C247.719 18.8346 247.965 18.4098 248.457 18.0745C248.948 17.7392 249.641 17.5603 250.558 17.5603C251.452 17.5603 252.145 17.7392 252.637 18.0745C253.129 18.4098 253.375 18.8346 253.375 19.3488C253.375 19.6618 253.263 19.9524 253.04 20.1984C252.816 20.4443 252.503 20.6455 252.078 20.7796C252.593 20.9361 252.995 21.1597 253.263 21.4503C253.531 21.741 253.666 22.0987 253.666 22.4787C253.666 23.1271 253.397 23.6413 252.838 24.0437C252.28 24.4461 251.542 24.6473 250.625 24.6473C249.776 24.6473 249.06 24.4908 248.479 24.1555C247.808 23.7754 247.473 23.2388 247.473 22.5458C247.473 22.1657 247.607 21.8304 247.853 21.5174C248.121 21.2044 248.524 20.9585 249.06 20.7796ZM249.284 22.4116C249.284 22.7694 249.418 23.06 249.664 23.2612C249.91 23.4624 250.245 23.5742 250.625 23.5742C251.005 23.5742 251.296 23.4848 251.542 23.2836C251.788 23.0823 251.899 22.7917 251.899 22.434C251.899 22.0987 251.765 21.8527 251.519 21.6515C251.273 21.4503 250.961 21.3609 250.58 21.3609C250.133 21.3609 249.82 21.4727 249.597 21.6962C249.373 21.9198 249.284 22.1657 249.284 22.4116ZM249.44 19.4606C249.44 19.7289 249.552 19.9301 249.753 20.0866C249.954 20.2431 250.223 20.3101 250.558 20.3101C250.893 20.3101 251.184 20.2431 251.385 20.0866C251.586 19.9301 251.698 19.7289 251.698 19.4606C251.698 19.2147 251.586 19.0135 251.385 18.857C251.184 18.7005 250.916 18.6334 250.58 18.6334C250.223 18.6334 249.954 18.7005 249.753 18.857C249.552 19.0135 249.44 19.2147 249.44 19.4606Z" fill="#D92528"/>
</svg>
