<svg width="797" height="97" viewBox="0 0 797 97" fill="none" xmlns="http://www.w3.org/2000/svg">
<path d="M79.5166 1.17703C79.5166 0.526974 80.0436 0 80.6936 0H794.17C796.328 0 797.097 2.85338 795.233 3.93872L754.373 27.7194C730.914 41.3728 716.483 66.4688 716.483 93.6116C716.483 95.4829 714.966 97 713.095 97H2.18023C0.265009 97 -0.303478 94.3924 1.43796 93.5952L27.9822 81.4444C59.3812 67.0713 79.5166 35.7095 79.5166 1.17703Z" fill="#99C0FA"/>
<path d="M231.148 45.2879V48.8999H256.908V45.2879H231.148Z" fill="white"/>
<path d="M273.4 46.3239L271.272 46.8839V42.6279H273.428V39.5759H271.272V34.3119H268.08V39.5759H264.832V42.6279H268.08V47.6679C266.652 48.0039 265.336 48.3119 264.272 48.5359L264.972 51.7559L268.08 50.9159V56.6559C268.08 57.0759 267.94 57.1879 267.604 57.1879C267.24 57.2159 266.092 57.2159 265 57.1599C265.42 58.0839 265.84 59.5119 265.924 60.4079C267.856 60.4079 269.172 60.2959 270.096 59.7359C270.992 59.2319 271.272 58.3359 271.272 56.6839V50.0199C272.112 49.7679 272.952 49.5439 273.764 49.2919L273.4 46.3239ZM278.664 53.2399H281.912V56.0119H278.664V53.2399ZM281.912 44.9239H278.664V42.3199H281.912V44.9239ZM281.912 50.4399H278.664V47.7239H281.912V50.4399ZM290.592 56.0119H284.992V53.2399H289.36V50.4399H284.992V47.7239H289.36V44.9239H284.992V42.3199H290.088V39.3799H285.328C285.972 38.0359 286.616 36.5239 287.232 35.0679L283.704 34.3399C283.312 35.8519 282.668 37.7559 282.024 39.3799H278.944C279.56 37.9519 280.092 36.4959 280.512 35.0119L277.32 34.2559C276.284 38.0639 274.436 41.8159 272.14 44.1399C272.784 44.8399 273.82 46.3519 274.24 47.0799C274.66 46.6319 275.08 46.1279 275.472 45.5959V60.4079H278.664V59.0359H290.592V56.0119Z" fill="white"/>
<path d="M305.096 40.2759H303.388V39.2399H305.096V40.2759ZM305.096 43.2999H303.388V42.2639H305.096V43.2999ZM305.096 46.3239H303.388V45.2599H305.096V46.3239ZM317.08 40.2759H315.372V39.2399H317.08V40.2759ZM317.08 43.2999H315.372V42.2639H317.08V43.2999ZM317.08 46.3239H315.372V45.2599H317.08V46.3239ZM300.588 48.4239H311.228V46.3239H307.756V45.2599H310.416V43.2999H307.756V42.2639H310.416V41.7599C310.864 42.3199 311.34 42.9639 311.564 43.3279C311.9 42.9639 312.264 42.5719 312.6 42.1519V48.4239H323.772V46.3239H319.74V45.2599H322.736V43.2999H319.74V42.2639H322.736V40.2759H319.74V39.2399H323.464V37.1399H319.74C320.104 36.5519 320.496 35.9079 320.86 35.2359L318.144 34.7319C317.92 35.4319 317.556 36.3279 317.192 37.1399H315.652C315.988 36.4399 316.268 35.7399 316.52 35.0399L313.916 34.3119C313.16 36.5799 311.9 38.8199 310.416 40.4159V40.2759H307.756V39.2399H310.976V37.1399H308.036C308.4 36.5519 308.82 35.9359 309.212 35.2919L306.468 34.7319C306.244 35.4319 305.852 36.3279 305.432 37.1399H303.696C304.004 36.4399 304.284 35.7119 304.536 35.0119L301.96 34.3119C301.148 36.8599 299.664 39.2679 297.984 40.8079C298.488 41.3679 299.3 42.6279 299.58 43.1879C299.916 42.8519 300.252 42.4879 300.588 42.1239V48.4239ZM315.652 52.3159C314.476 53.3239 312.992 54.1639 311.34 54.8359C309.548 54.1359 308.036 53.2959 306.832 52.3159H315.652ZM318.9 49.4879L318.284 49.6279H300V52.3159H304.928L303.192 53.1279C304.312 54.3039 305.6 55.3119 307.056 56.2079C304.368 56.8519 301.428 57.2439 298.432 57.4679C298.936 58.2519 299.524 59.5679 299.776 60.4639C303.78 60.0439 307.672 59.3439 311.088 58.1399C314.28 59.3439 317.948 60.0999 321.98 60.4919C322.4 59.5679 323.324 58.1119 324.024 57.2999C321 57.1039 318.116 56.7119 315.54 56.1239C317.864 54.7799 319.768 53.0439 321.14 50.8599L318.9 49.4879Z" fill="white"/>
<path d="M356.952 36.3559H346.424V34.2839H342.952V36.3559H332.62V39.1559H356.952V36.3559ZM339.172 42.6839H350.428V44.2799H339.172V42.6839ZM353.956 46.5759V40.4159H335.84V46.5759H353.956ZM357.372 52.5399H347.992C350.428 51.6439 352.724 50.5239 354.628 49.3759L352.556 47.5559L351.8 47.6959H334.972V50.2999H347.292C346.424 50.6919 345.472 51.0559 344.548 51.3639H342.98V52.5399H332.228V55.3679H342.98V57.2719C342.98 57.6919 342.812 57.8039 342.252 57.8319C341.776 57.8319 339.592 57.8319 337.968 57.7479C338.416 58.5319 338.892 59.6239 339.116 60.4919C341.552 60.4919 343.4 60.4919 344.688 60.1279C346.032 59.7359 346.508 59.0639 346.508 57.4119V55.3679H357.372V52.5399Z" fill="white"/>
<path d="M385.988 54.1639V56.7959H379.044V54.1639H385.988ZM376.048 60.4359H379.044V59.4279H385.988V60.3239H389.124V51.5319H376.048V60.4359ZM379.464 47.2199C380.668 46.0999 381.704 44.9239 382.404 43.8319C383.188 44.9519 384.308 46.1279 385.54 47.2199H379.464ZM380.78 40.9759C380.668 41.1439 380.556 41.3399 380.444 41.5359V39.6599H384.7V41.8999H387.836V39.6599H391.112V36.8319H387.836V34.3119H384.7V36.8319H380.444V34.3119H377.364V36.8319H374.256V39.6599H377.364V41.8159H380.248C378.904 43.7759 376.72 45.8759 374.368 47.3039L374.116 45.5399L372.072 46.0999V42.6279H374.228V39.5759H372.072V34.3119H368.88V39.5759H365.632V42.6279H368.88V46.9679C367.452 47.3599 366.136 47.6959 365.072 47.9199L365.772 51.1399C366.724 50.8599 367.788 50.5519 368.88 50.2439V56.6559C368.88 57.0759 368.74 57.1879 368.404 57.1879C368.04 57.2159 366.892 57.2159 365.8 57.1599C366.22 58.0839 366.64 59.5119 366.724 60.4079C368.656 60.4079 369.972 60.2959 370.896 59.7359C371.792 59.2319 372.072 58.3359 372.072 56.6839V49.2639L373.5 48.8159C373.92 49.4319 374.284 50.1879 374.508 50.7199C375.796 50.0759 377.028 49.2639 378.176 48.3399V49.8519H386.856V48.2839C387.92 49.1239 389.04 49.8239 390.132 50.3839C390.58 49.4319 391.224 48.2279 391.868 47.4719C388.844 46.2959 385.82 43.8039 383.804 40.9759H380.78Z" fill="white"/>
<path d="M405.308 49.5159V47.8079H410.18V49.5159H405.308ZM405.308 43.6079H410.18V45.3159H405.308V43.6079ZM418.496 43.6079V45.3159H413.596V43.6079H418.496ZM418.496 49.5159H413.596V47.8079H418.496V49.5159ZM424.768 53.6879H413.596V52.1759H421.856V40.9479H413.596V39.6039H423.956V36.5799H413.596V34.3119H410.18V36.5799H400.016V39.6039H410.18V40.9479H402.116V52.1759H410.18V53.6879H399.344V56.6839H410.18V60.4639H413.596V56.6839H424.768V53.6879Z" fill="white"/>
<path d="M432.748 45.2879V48.8999H458.508V45.2879H432.748Z" fill="white"/>
<path d="M487.488 42.5719H480.404V51.1679C480.404 54.3879 481.3 55.2839 484.408 55.2839H488.384C491.1 55.2839 491.912 54.1079 492.276 49.9359C491.436 49.7399 490.064 49.2079 489.364 48.6759C489.252 51.8119 489.084 52.3159 488.104 52.3159H484.856C483.764 52.3159 483.568 52.1759 483.568 51.1679V45.4279H487.488V46.1559H490.708V35.3479H480.152V38.2599H487.488V42.5719ZM475.112 51.3639H479.088V48.4799H475.112V45.4559H479.34V42.5719H474.496V39.9399H478.64V37.0839H474.496V34.3399H471.388V37.0839H467.216V39.9399H471.388V42.5719H466.46V45.4559H472.06V54.1639C471.332 53.3519 470.772 52.3159 470.324 50.9439C470.38 49.7679 470.436 48.5639 470.464 47.3319L467.412 47.1079C467.356 51.8959 467.076 56.5439 465.704 59.3719C466.432 59.6799 467.888 60.4079 468.476 60.7999C469.092 59.4279 469.512 57.7759 469.792 55.8999C471.976 59.0359 475.308 59.7079 480.516 59.7079H491.324C491.52 58.7279 492.08 57.1879 492.584 56.4319C490.064 56.5439 482.644 56.5439 480.516 56.5159C478.36 56.5159 476.596 56.4039 475.112 55.9839V51.3639Z" fill="white"/>
<path d="M505.772 35.5159C504.484 37.5039 502.216 39.4639 499.948 40.6399C500.676 41.1999 501.936 42.3759 502.552 42.9639C504.848 41.4799 507.424 39.0719 508.992 36.5519L505.772 35.5159ZM518.932 49.7399H508.6V48.4239H518.932V49.7399ZM508.6 57.0479V55.6759H518.932V57.0479H508.6ZM508.6 51.9799H518.932V53.4079H508.6V51.9799ZM517.7 39.4079C516.692 40.5839 515.32 41.5919 513.724 42.4319C514.284 41.9839 514.48 41.3119 514.48 40.1919V34.2839H511.12V40.0799C511.12 40.4439 510.98 40.5279 510.504 40.5279C510.028 40.5559 508.264 40.5559 506.808 40.4719C507.312 41.2279 507.928 42.4599 508.152 43.3279C510.168 43.3279 511.68 43.2999 512.884 42.8519L512.94 42.8239C509.272 44.6159 504.484 45.7079 499.584 46.2959C500.2 46.9959 501.208 48.4239 501.628 49.1799C502.888 48.9839 504.12 48.7319 505.38 48.4519V60.4639H508.6V59.5119H518.932V60.3239H522.32V45.9319H513.36C516.356 44.6439 518.988 42.9639 520.892 40.8359L517.7 39.4079ZM517.112 36.8879C519.268 38.4839 521.816 40.7799 522.908 42.3479L525.792 40.5279C524.532 38.9319 521.928 36.7479 519.8 35.2639L517.112 36.8879Z" fill="white"/>
<path d="M544.972 50.8039H547.828L548.584 41.2279L548.724 37.0559H544.076L544.216 41.2279L544.972 50.8039ZM546.4 58.2519C547.8 58.2519 548.864 57.2439 548.864 55.7879C548.864 54.3039 547.8 53.2959 546.4 53.2959C545 53.2959 543.936 54.3039 543.936 55.7879C543.936 57.2439 544.972 58.2519 546.4 58.2519Z" fill="white"/>
<path fill-rule="evenodd" clip-rule="evenodd" d="M225.148 45.2881C225.148 41.9744 227.834 39.2881 231.148 39.2881H256.908C257.581 39.2881 258.228 39.3989 258.832 39.6032V39.5761C258.832 37.2542 260.151 35.2404 262.08 34.2428C262.118 30.961 264.789 28.3121 268.08 28.3121H271.272C272.355 28.3121 273.372 28.5992 274.249 29.1016C275.543 28.3305 277.126 28.0442 278.703 28.4176L281.03 28.9688C282.193 28.389 283.551 28.1821 284.917 28.4639L288.445 29.1919C290.204 29.555 291.709 30.6878 292.544 32.2786C292.869 32.8965 293.079 33.5581 293.174 34.2333C293.749 34.5787 294.261 35.0177 294.689 35.5292C295.28 34.7428 295.866 33.6754 296.243 32.4903C297.219 29.429 300.433 27.6795 303.533 28.5221L304.987 28.917C305.84 28.6991 306.753 28.6666 307.668 28.8533L310.412 29.4133C310.422 29.4154 310.432 29.4175 310.442 29.4196C311.87 28.4072 313.724 28.0283 315.531 28.5337L316.791 28.8858C317.574 28.7042 318.404 28.678 319.239 28.8328L321.955 29.3368C323.4 29.6049 324.68 30.3899 325.571 31.5206C326.383 31.8252 327.111 32.3007 327.712 32.9033C328.798 31.3625 330.592 30.3561 332.62 30.3561H338.416C339.517 29.0869 341.141 28.2841 342.952 28.2841H346.424C348.236 28.2841 349.86 29.0869 350.96 30.3561H356.952C359.575 30.3561 361.805 32.0397 362.621 34.3853C362.706 34.3357 362.793 34.2882 362.88 34.2428C362.918 30.961 365.589 28.3121 368.88 28.3121H372.072C373.022 28.3121 373.92 28.5327 374.718 28.9256C375.516 28.5327 376.414 28.3121 377.364 28.3121H380.444C381.193 28.3121 381.911 28.4495 382.572 28.7004C383.233 28.4495 383.951 28.3121 384.7 28.3121H387.836C389.971 28.3121 391.845 29.4267 392.908 31.1056C393.887 31.4124 394.758 31.9634 395.45 32.6872C396.551 31.3977 398.188 30.5801 400.016 30.5801H405.482C406.581 29.1981 408.277 28.3121 410.18 28.3121H413.596C415.499 28.3121 417.195 29.1981 418.294 30.5801H423.956C427.27 30.5801 429.956 33.2664 429.956 36.5801V39.6041C429.956 39.7311 429.952 39.8571 429.944 39.9821C430.781 39.539 431.735 39.2881 432.748 39.2881H458.508C459.436 39.2881 460.315 39.4987 461.099 39.8748C461.137 39.8004 461.176 39.7269 461.216 39.6543V37.0841C461.216 34.0806 463.423 31.5926 466.304 31.153C467.365 29.4633 469.245 28.3401 471.388 28.3401H474.496C475.915 28.3401 477.22 28.8329 478.247 29.6568C478.846 29.4566 479.486 29.3481 480.152 29.3481H490.708C494.022 29.3481 496.708 32.0344 496.708 35.3481V35.59C496.862 35.4911 497.022 35.3988 497.186 35.3136C498.667 34.5456 500.093 33.2469 500.736 32.2537C502.142 30.0838 504.769 29.0701 507.248 29.7004C508.293 28.8168 509.644 28.2841 511.12 28.2841H514.48C515.844 28.2841 517.102 28.7395 518.11 29.5067C519.83 29.0021 521.718 29.2866 523.232 30.3426C525.526 31.9426 528.697 34.525 530.501 36.8102C531.555 38.1454 531.993 39.8652 531.706 41.5419C531.418 43.2185 530.433 44.6944 528.994 45.6022L528.32 46.0276V60.3241C528.32 63.6378 525.634 66.3241 522.32 66.3241H518.932C517.832 66.3241 516.802 66.0284 515.916 65.5121H511.844C510.909 66.1146 509.795 66.4641 508.6 66.4641H505.38C502.066 66.4641 499.38 63.7778 499.38 60.4641V54.7431C498.918 54.5562 498.479 54.312 498.076 54.0161C498.881 55.8435 498.726 57.9663 497.638 59.6657C497.633 59.6751 497.628 59.6868 497.621 59.7009C497.577 59.7936 497.517 59.9327 497.451 60.1071C497.386 60.2791 497.328 60.4532 497.281 60.6085C497.232 60.7713 497.211 60.8656 497.207 60.8848C496.647 63.6893 494.184 65.7081 491.324 65.7081H480.516C478.051 65.7081 475.4 65.5875 472.863 64.8931C472.13 65.6785 471.192 66.2619 470.136 66.5658C468.448 67.0519 466.632 66.7738 465.168 65.8056C465.168 65.8059 465.169 65.8061 465.168 65.8056C465.159 65.8008 465.102 65.7658 464.982 65.6989C464.828 65.6135 464.633 65.5102 464.417 65.3998C463.96 65.1668 463.552 64.9764 463.366 64.8979C461.851 64.257 460.666 63.0223 460.087 61.4825C459.509 59.9428 459.588 58.233 460.306 56.7532C460.502 56.3486 460.738 55.5953 460.937 54.3881C460.194 54.7173 459.373 54.9001 458.508 54.9001H432.748C432.054 54.9001 431.388 54.7823 430.768 54.5657V56.6841C430.768 59.9978 428.082 62.6841 424.768 62.6841H419.172C418.289 64.8989 416.125 66.4641 413.596 66.4641H410.18C407.651 66.4641 405.487 64.8989 404.604 62.6841H399.344C397.684 62.6841 396.181 62.0098 395.095 60.9201C394.796 63.954 392.237 66.3241 389.124 66.3241H385.988C384.83 66.3241 383.749 65.9962 382.832 65.4281H382.374C381.421 66.0648 380.276 66.4361 379.044 66.4361H376.048C374.85 66.4361 373.733 66.0847 372.796 65.4794C370.568 66.4085 368.217 66.4083 366.778 66.4081H366.724C363.638 66.4081 361.058 64.0679 360.753 61.0007C360.751 60.9876 360.745 60.9508 360.732 60.8886C360.708 60.7745 360.671 60.6247 360.621 60.452C360.618 60.441 360.615 60.43 360.612 60.419C359.677 61.0197 358.565 61.3681 357.372 61.3681H351.754C351.572 61.7814 351.347 62.198 351.069 62.6086C349.669 64.6737 347.683 65.5047 346.368 65.8881L346.32 65.902C344.198 66.5016 341.571 66.4966 339.571 66.4927C339.415 66.4924 339.263 66.4921 339.116 66.4921C336.38 66.4921 333.99 64.6408 333.306 61.9914C333.272 61.8596 333.186 61.6243 333.075 61.3681H332.228C331.084 61.3681 330.014 61.0478 329.105 60.4921C328.946 60.7447 328.767 60.9874 328.568 61.2177C328.472 61.3299 328.237 61.6396 327.954 62.0832C327.67 62.5284 327.493 62.8624 327.442 62.9749C326.381 65.31 323.952 66.7122 321.399 66.4639C317.776 66.1116 314.278 65.4777 311.024 64.4605C307.578 65.4677 303.935 66.0608 300.402 66.4314C298.016 66.6816 295.767 65.4911 294.6 63.5009C293.538 64.4554 292.133 65.0361 290.592 65.0361H282.483C281.445 65.8932 280.115 66.4081 278.664 66.4081H275.472C274.247 66.4081 273.107 66.0408 272.158 65.4104C269.882 66.4085 267.452 66.4083 265.978 66.4081H265.924C262.838 66.4081 260.258 64.0679 259.953 61.0007C259.951 60.9877 259.945 60.9508 259.932 60.8886C259.908 60.7745 259.871 60.6247 259.821 60.452C259.715 60.0801 259.6 59.7789 259.538 59.6429C258.784 57.9852 258.83 56.0903 259.629 54.4858C259.597 54.423 259.566 54.3595 259.536 54.2955C258.742 54.6828 257.851 54.9001 256.908 54.9001H231.148C227.834 54.9001 225.148 52.2138 225.148 48.9001V45.2881ZM275.472 60.4081H278.664V59.0361H290.592V56.0121H284.992V53.2401H289.36V50.4401H284.992V47.7241H289.36V44.9241H284.992V42.3201H290.088V39.3801H285.328C285.4 39.2301 285.472 39.078 285.544 38.9241C285.569 38.87 285.594 38.8156 285.619 38.7611C285.746 38.4876 285.872 38.209 285.999 37.9268C286.234 37.3997 286.468 36.8604 286.7 36.3201C286.855 35.9582 287.009 35.5958 287.161 35.2363C287.185 35.1802 287.208 35.1241 287.232 35.0681L283.704 34.3401C283.586 34.7964 283.444 35.2883 283.287 35.7975C283.222 36.0074 283.155 36.2203 283.085 36.4347C283.061 36.5077 283.037 36.5808 283.013 36.6541C282.861 37.115 282.699 37.5813 282.532 38.0404C282.366 38.4983 282.195 38.9491 282.024 39.3801H278.944C279.009 39.2284 279.074 39.0764 279.137 38.9241C279.201 38.7715 279.264 38.6185 279.325 38.4652C279.343 38.4206 279.361 38.3759 279.379 38.3312C279.407 38.2618 279.434 38.1924 279.461 38.123C279.632 37.6853 279.795 37.2451 279.948 36.8023C279.981 36.7071 280.014 36.6119 280.046 36.5166C280.068 36.4511 280.09 36.3856 280.111 36.3201C280.243 35.9209 280.367 35.5197 280.482 35.1164C280.492 35.0817 280.502 35.0469 280.512 35.0121L277.32 34.2561C277.304 34.3142 277.288 34.3723 277.272 34.4304C277.231 34.5761 277.19 34.7217 277.147 34.8671C276.964 35.4863 276.76 36.102 276.536 36.7083C276.363 37.1794 276.177 37.6449 275.981 38.1019C275.765 38.6048 275.535 39.0974 275.294 39.5761C275.29 39.5837 275.286 39.5912 275.282 39.5987C275.128 39.9022 274.97 40.2 274.806 40.4913C274.555 40.9386 274.293 41.3704 274.021 41.7833C273.911 41.9495 273.8 42.1126 273.687 42.2725C273.676 42.2884 273.665 42.3043 273.653 42.3201C273.579 42.4242 273.505 42.5269 273.429 42.6281C273.429 42.6286 273.428 42.6291 273.428 42.6297C273.189 42.9509 272.943 43.2571 272.69 43.5464C272.685 43.5527 272.679 43.5589 272.674 43.5651C272.671 43.5689 272.667 43.5727 272.664 43.5765C272.498 43.7654 272.33 43.947 272.159 44.1207C272.153 44.1272 272.146 44.1337 272.14 44.1401C272.153 44.1537 272.165 44.1677 272.178 44.1819C272.325 44.3452 272.491 44.5474 272.664 44.7708C272.703 44.8209 272.742 44.8721 272.781 44.9241C272.897 45.0766 273.015 45.2365 273.131 45.3988C273.145 45.4174 273.158 45.436 273.171 45.4547C273.2 45.495 273.229 45.5356 273.257 45.5761C273.262 45.5828 273.267 45.5894 273.272 45.5961C273.324 45.671 273.377 45.7459 273.428 45.8205C273.537 45.9778 273.642 46.1333 273.74 46.2824C273.866 46.4729 273.981 46.6529 274.08 46.8129C274.095 46.8371 274.109 46.8609 274.124 46.8841C274.166 46.9542 274.205 47.0198 274.24 47.0801C274.3 47.0159 274.36 46.9505 274.421 46.8841C274.498 46.7985 274.575 46.7111 274.652 46.6222C274.793 46.4595 274.933 46.2915 275.071 46.1192C275.207 45.9487 275.341 45.774 275.472 45.5961V60.4081ZM281.912 53.2401H278.664V56.0121H281.912V53.2401ZM281.912 47.7241H278.664V50.4401H281.912V47.7241ZM281.912 42.3201H278.664V44.9241H281.912V42.3201ZM271.272 42.6281H273.428V39.5761H271.272V34.3121H268.08V39.5761H264.832V42.6281H268.08V47.6681C267.897 47.7113 267.715 47.754 267.536 47.7961C267.492 47.8063 267.449 47.8164 267.406 47.8265C267.355 47.8384 267.305 47.8502 267.255 47.862C266.651 48.0033 266.074 48.1372 265.536 48.2589C265.503 48.2664 265.47 48.2738 265.437 48.2812C265.354 48.2998 265.272 48.3182 265.192 48.3362C265.07 48.3634 264.95 48.3899 264.832 48.4157C264.639 48.458 264.452 48.4983 264.272 48.5361L264.972 51.7561L268.08 50.9161V56.6561C268.08 56.6656 268.08 56.6749 268.08 56.6841C268.074 57.0811 267.932 57.1881 267.604 57.1881C267.405 57.2034 266.973 57.2103 266.445 57.2044C266.279 57.2025 266.104 57.1994 265.924 57.1949C265.624 57.1874 265.31 57.176 265 57.1601C265.082 57.3402 265.164 57.5393 265.243 57.75C265.571 58.6204 265.856 59.6867 265.924 60.4081C266.545 60.4081 267.103 60.3965 267.604 60.3622C267.686 60.3566 267.767 60.3503 267.847 60.3434C268.387 60.2963 268.858 60.2185 269.271 60.0943C269.339 60.0737 269.407 60.0518 269.472 60.0285C269.698 59.9481 269.905 59.8517 270.096 59.7361C270.961 59.2497 271.252 58.3982 271.271 56.8543C271.272 56.7985 271.272 56.7418 271.272 56.6841V50.0201C271.528 49.9434 271.783 49.8693 272.038 49.7962C272.15 49.7642 272.261 49.7324 272.372 49.7007C272.47 49.6729 272.567 49.6451 272.664 49.6173C273.035 49.5112 273.402 49.4044 273.764 49.2921L273.4 46.3241L271.272 46.8841V42.6281ZM357.372 55.3681V52.5401H347.992C348.07 52.5114 348.148 52.4825 348.226 52.4533C348.237 52.4492 348.248 52.445 348.259 52.4409C348.437 52.3737 348.615 52.3054 348.792 52.2359C348.855 52.2113 348.917 52.1865 348.98 52.1616C349.955 51.7733 350.9 51.3523 351.8 50.9118C351.984 50.8219 352.165 50.7312 352.345 50.6398C352.587 50.5169 352.824 50.3927 353.058 50.2676C353.136 50.2259 353.213 50.1841 353.29 50.1422C353.516 50.0191 353.738 49.8952 353.956 49.7707C354.185 49.6398 354.409 49.5081 354.628 49.3761L352.556 47.5561L351.8 47.6961H334.972V50.3001H347.292C347.257 50.3161 347.221 50.332 347.186 50.3478C346.999 50.4312 346.808 50.5132 346.614 50.5937C346.579 50.6084 346.544 50.6231 346.508 50.6377C345.867 50.9012 345.201 51.1466 344.548 51.3641H342.98V52.5401H332.228V55.3681H342.98V57.2721C342.98 57.3232 342.978 57.3697 342.972 57.4121C342.933 57.7181 342.744 57.8075 342.252 57.8321C341.882 57.8321 340.483 57.8321 339.116 57.7928C338.722 57.7815 338.331 57.7669 337.968 57.7481C338.105 57.9883 338.245 58.2574 338.38 58.5401C338.684 59.1802 338.961 59.89 339.116 60.4921C340.299 60.4921 341.343 60.4921 342.252 60.4504C342.296 60.4484 342.339 60.4463 342.383 60.4441C342.589 60.4335 342.788 60.4207 342.98 60.405C343.631 60.3518 344.2 60.2661 344.688 60.1281C345.747 59.8191 346.267 59.3363 346.44 58.3368C346.487 58.0681 346.508 57.7621 346.508 57.4121V55.3681H357.372ZM335.84 46.5761H353.956V40.4161H335.84V46.5761ZM339.172 42.6841V44.2801H350.428V42.6841H339.172ZM356.952 39.1561V36.3561H346.424V34.2841H342.952V36.3561H332.62V39.1561H356.952ZM329.84 44.4746V44.5859C329.762 44.7141 329.689 44.8454 329.621 44.9796C329.561 44.7172 329.483 44.4615 329.39 44.2136C329.536 44.3068 329.686 44.3939 329.84 44.4746ZM298.853 58.2067C298.712 57.9339 298.569 57.6813 298.432 57.4681C298.621 57.454 298.81 57.4391 298.999 57.4236C299.15 57.4112 299.302 57.3983 299.453 57.3849C299.636 57.3688 299.818 57.352 300 57.3345C301.028 57.2357 302.045 57.115 303.044 56.969C303.044 56.9689 303.045 56.9688 303.045 56.9688C303.627 56.8837 304.202 56.7899 304.769 56.6869C304.796 56.682 304.823 56.6771 304.85 56.6722C304.876 56.6674 304.902 56.6626 304.928 56.6578C305.556 56.5415 306.174 56.4137 306.779 56.2734C306.797 56.2693 306.814 56.2652 306.832 56.2611C306.907 56.2436 306.982 56.2259 307.056 56.2081C306.981 56.1619 306.906 56.1154 306.832 56.0685C306.761 56.0236 306.69 55.9785 306.62 55.933C306.465 55.8328 306.312 55.7312 306.161 55.6281C305.734 55.3368 305.323 55.0337 304.928 54.7173C304.918 54.7091 304.908 54.701 304.897 54.6928C304.787 54.6043 304.679 54.5147 304.571 54.4241C304.34 54.2292 304.115 54.0294 303.895 53.8241C303.654 53.5987 303.419 53.3669 303.192 53.1281L304.928 52.3161H300V49.6281H318.284L318.9 49.4881L321.14 50.8601C321.111 50.9059 321.082 50.9514 321.053 50.9968C320.996 51.0853 320.938 51.1731 320.879 51.2601C320.631 51.6279 320.367 51.9825 320.088 52.3241C319.949 52.4946 319.805 52.6619 319.659 52.826C319.49 53.015 319.316 53.1997 319.137 53.3803C318.94 53.5795 318.736 53.7736 318.528 53.9627C318.447 54.0355 318.366 54.1076 318.284 54.179C318.189 54.2617 318.093 54.3434 317.995 54.4241C317.891 54.5106 317.785 54.596 317.678 54.6802C317.416 54.8869 317.146 55.0868 316.869 55.2801C316.699 55.3986 316.526 55.5146 316.351 55.6281C316.122 55.7759 315.889 55.9194 315.652 56.0588C315.615 56.0807 315.577 56.1024 315.54 56.1241C315.577 56.1326 315.615 56.1411 315.652 56.1495C316.193 56.2713 316.747 56.3846 317.313 56.4893C318.036 56.623 318.778 56.7427 319.537 56.8484C319.55 56.8503 319.564 56.8521 319.577 56.854C320.466 56.9772 321.376 57.0812 322.303 57.1659C322.769 57.2086 323.239 57.2463 323.713 57.2792C323.817 57.2864 323.92 57.2934 324.024 57.3001C323.324 58.1121 322.4 59.5681 321.98 60.4921C321.37 60.4328 320.768 60.3651 320.175 60.2888C319.343 60.1819 318.529 60.058 317.733 59.9164C317.006 59.787 316.294 59.6428 315.598 59.4832C315.335 59.4229 315.074 59.3603 314.816 59.2956C314.177 59.1353 313.552 58.9614 312.942 58.7733C312.807 58.7317 312.672 58.6893 312.539 58.6463C312.21 58.5405 311.886 58.4305 311.567 58.3161C311.406 58.2585 311.246 58.1999 311.088 58.1401C310.918 58.2 310.747 58.2587 310.575 58.3161C310.393 58.3765 310.211 58.4356 310.027 58.4933C309.983 58.5072 309.939 58.5209 309.895 58.5345C309.198 58.7507 308.484 58.948 307.756 59.1284C307.43 59.2092 307.1 59.2865 306.769 59.3606C306.148 59.4994 305.518 59.6267 304.88 59.7436C303.997 59.9056 303.1 60.0477 302.192 60.1725C301.394 60.2825 300.587 60.379 299.776 60.4641C299.593 59.8118 299.231 58.9369 298.853 58.2067ZM310.354 54.4241C310.408 54.4484 310.463 54.4725 310.518 54.4965C310.785 54.6132 311.059 54.7264 311.34 54.8361C311.667 54.7029 311.988 54.5632 312.301 54.4168C312.379 54.3803 312.457 54.3433 312.534 54.306C312.556 54.2953 312.578 54.2847 312.6 54.274C312.61 54.2692 312.62 54.2644 312.629 54.2595C312.658 54.2454 312.687 54.2311 312.716 54.2168C313.17 53.991 313.606 53.7506 314.02 53.4958C314.259 53.349 314.49 53.1974 314.714 53.041C315.041 52.8123 315.351 52.5734 315.643 52.3241C315.646 52.3214 315.649 52.3188 315.652 52.3161H306.832C307.096 52.5307 307.374 52.7386 307.667 52.9398C307.987 53.1592 308.323 53.3707 308.677 53.5742C308.993 53.7559 309.322 53.9312 309.664 54.1002C309.728 54.1319 309.793 54.1635 309.859 54.1948C310.021 54.2726 310.186 54.3491 310.354 54.4241ZM318.144 34.7321C318.066 34.9762 317.971 35.2442 317.865 35.5241C317.853 35.5548 317.841 35.5856 317.829 35.6165C317.794 35.707 317.759 35.7985 317.722 35.8908C317.67 36.0205 317.617 36.1517 317.562 36.2832C317.497 36.4402 317.43 36.5976 317.362 36.7536C317.306 36.8838 317.249 37.013 317.192 37.1401H315.652C315.671 37.1001 315.69 37.0601 315.709 37.0201C315.78 36.8692 315.849 36.7184 315.915 36.5676C315.959 36.4664 316.003 36.3653 316.045 36.2641C316.199 35.8977 316.341 35.5314 316.475 35.165C316.479 35.1524 316.484 35.1398 316.488 35.1273C316.499 35.0982 316.51 35.0692 316.52 35.0401L313.916 34.3121C313.818 34.6052 313.712 34.8978 313.598 35.1886C313.561 35.285 313.522 35.3812 313.482 35.4772C313.411 35.6499 313.338 35.8218 313.261 35.9926C313.233 36.0551 313.205 36.1174 313.177 36.1795C313.145 36.2479 313.113 36.3162 313.081 36.3842C313.014 36.5263 312.945 36.6674 312.874 36.8074C312.817 36.919 312.76 37.0299 312.701 37.1401C312.664 37.2096 312.627 37.2788 312.589 37.3477C312.535 37.4472 312.479 37.546 312.423 37.644C312.106 38.1979 311.763 38.7278 311.399 39.2222C311.395 39.2282 311.391 39.2342 311.386 39.2401C311.291 39.3695 311.194 39.4965 311.096 39.6208C311.091 39.6276 311.085 39.6343 311.08 39.6411C311.046 39.6846 311.011 39.7278 310.976 39.7707C310.884 39.8845 310.79 39.9959 310.696 40.1047C310.649 40.1588 310.601 40.2123 310.554 40.2651C310.551 40.2688 310.547 40.2725 310.544 40.2761C310.543 40.2777 310.541 40.2793 310.54 40.2809C310.527 40.2954 310.514 40.3098 310.501 40.3241C310.475 40.3528 310.448 40.3814 310.422 40.4097C310.42 40.4118 310.418 40.414 310.416 40.4161V40.2761H307.756V39.2401H310.976V37.1401H308.036C308.052 37.1137 308.069 37.0872 308.085 37.0607C308.214 36.8552 308.348 36.6463 308.486 36.4341C308.509 36.3988 308.532 36.3635 308.555 36.3281C308.568 36.3068 308.582 36.2855 308.596 36.2641C308.655 36.1731 308.714 36.0814 308.774 35.9892C308.865 35.8468 308.957 35.703 309.048 35.5577C309.103 35.4697 309.158 35.3812 309.212 35.2921L306.468 34.7321C306.383 34.9962 306.275 35.2883 306.15 35.5932C306.144 35.6092 306.137 35.6251 306.13 35.6412C306.096 35.7247 306.06 35.8092 306.023 35.8942C305.964 36.0315 305.902 36.1704 305.838 36.3095C305.789 36.4166 305.738 36.5238 305.687 36.6306C305.604 36.8023 305.518 36.973 305.432 37.1401H303.696C303.713 37.1011 303.73 37.062 303.747 37.0229C303.836 36.8179 303.923 36.6108 304.007 36.4029C304.026 36.3567 304.044 36.3104 304.063 36.2641C304.215 35.8814 304.36 35.4974 304.497 35.1205C304.51 35.0843 304.523 35.0482 304.536 35.0121L301.96 34.3121C301.867 34.6055 301.764 34.8971 301.653 35.1857C301.538 35.4867 301.414 35.7844 301.282 36.0777C301.269 36.1051 301.257 36.1325 301.244 36.1598C301.148 36.3701 301.048 36.578 300.943 36.7831C300.494 37.6677 299.973 38.4993 299.405 39.2401C299.304 39.3728 299.2 39.5025 299.096 39.6291C298.92 39.8418 298.741 40.0457 298.559 40.2397C298.557 40.2417 298.555 40.2437 298.553 40.2457C298.543 40.2558 298.534 40.266 298.524 40.2761C298.347 40.4631 298.167 40.6407 297.984 40.8081C298.167 41.011 298.39 41.3059 298.613 41.6261C298.727 41.7885 298.84 41.9574 298.949 42.1241C298.979 42.171 299.009 42.2177 299.039 42.2641C299.058 42.2943 299.077 42.3244 299.096 42.3543C299.302 42.6806 299.477 42.9818 299.58 43.1881C299.681 43.0873 299.782 42.984 299.882 42.879C300.074 42.6787 300.267 42.472 300.459 42.2641C300.473 42.2489 300.487 42.2337 300.501 42.2186C300.53 42.1871 300.559 42.1556 300.588 42.1241V48.4241H311.228V46.3241H307.756V45.2601H310.416V43.3001H307.756V42.2641H310.416V41.7601C310.43 41.7781 310.445 41.7963 310.459 41.8145C310.547 41.9252 310.636 42.0386 310.724 42.1521C310.741 42.1742 310.758 42.1964 310.775 42.2185C310.786 42.2337 310.798 42.2489 310.809 42.2641C310.85 42.3177 310.891 42.3712 310.93 42.4241C310.946 42.4445 310.961 42.4649 310.976 42.4851C311.011 42.5326 311.046 42.5795 311.08 42.6258C311.085 42.6331 311.091 42.6404 311.096 42.6476C311.142 42.71 311.186 42.7711 311.228 42.8302C311.356 43.0089 311.465 43.1705 311.547 43.3001C311.553 43.3096 311.558 43.3189 311.564 43.3281L311.603 43.2863C311.882 42.9833 312.18 42.6611 312.463 42.3197C312.479 42.3012 312.494 42.2827 312.509 42.2641C312.512 42.2612 312.514 42.2584 312.516 42.2555C312.544 42.2212 312.572 42.1868 312.6 42.1521V48.4241H323.772V46.3241H319.74V45.2601H322.736V43.3001H319.74V42.2641H322.736V40.2761H319.74V39.2401H323.464V37.1401H319.74C319.78 37.0759 319.82 37.0111 319.86 36.9457C319.975 36.7583 320.093 36.5657 320.211 36.3689C320.232 36.3341 320.253 36.2992 320.274 36.2641C320.413 36.0302 320.552 35.7905 320.689 35.5465C320.746 35.4438 320.804 35.3403 320.86 35.2361L318.144 34.7321ZM315.372 46.3241H317.08V45.2601H315.372V46.3241ZM317.08 43.3001V42.2641H315.372V43.3001H317.08ZM317.08 40.2761V39.2401H315.372V40.2761H317.08ZM305.096 42.2641H303.388V43.3001H305.096V42.2641ZM305.096 40.2761V39.2401H303.388V40.2761H305.096ZM303.388 45.2601V46.3241H305.096V45.2601H303.388ZM359.956 44.7853C359.971 44.7601 359.987 44.735 360.003 44.7099C359.987 44.6663 359.971 44.6223 359.956 44.5782V44.7853ZM365.632 42.6281H368.88V46.9681C368.678 47.0234 368.479 47.0777 368.282 47.1306C368.195 47.1542 368.108 47.1774 368.022 47.2005C367.415 47.3622 366.835 47.5108 366.295 47.6415C366.288 47.6431 366.281 47.6448 366.275 47.6464C366.054 47.6998 365.839 47.7502 365.632 47.7973C365.588 47.8074 365.544 47.8173 365.5 47.8271C365.353 47.8599 365.211 47.8909 365.072 47.9201C365.072 47.92 365.072 47.9201 365.072 47.9201L365.772 51.1401C365.871 51.111 365.971 51.0817 366.072 51.052C366.678 50.8745 367.324 50.6872 367.989 50.497C368.283 50.4131 368.58 50.3286 368.88 50.2441V56.6561C368.88 56.6656 368.88 56.6749 368.88 56.6841C368.874 57.0811 368.732 57.1881 368.404 57.1881C368.143 57.2082 367.48 57.2138 366.724 57.1949C366.424 57.1874 366.11 57.176 365.8 57.1601C366.22 58.0841 366.64 59.5121 366.724 60.4081C367.345 60.4081 367.903 60.3965 368.404 60.3622C368.486 60.3566 368.567 60.3503 368.647 60.3434C369.177 60.2972 369.641 60.2213 370.048 60.1011C370.056 60.0989 370.063 60.0966 370.071 60.0943C370.376 60.0024 370.65 59.8851 370.896 59.7361C371.761 59.2497 372.052 58.3982 372.071 56.8543C372.072 56.7985 372.072 56.7418 372.072 56.6841V49.2641L373.5 48.8161C373.591 48.9494 373.679 49.0892 373.764 49.2319C373.77 49.2426 373.777 49.2534 373.783 49.2641C373.824 49.3343 373.865 49.4052 373.904 49.4763C373.974 49.6018 374.041 49.7278 374.104 49.8521C374.11 49.8638 374.116 49.8755 374.122 49.8872C374.184 50.0089 374.242 50.1286 374.296 50.2441C374.313 50.2808 374.33 50.3171 374.346 50.3528C374.354 50.3695 374.362 50.3862 374.369 50.4027C374.42 50.5147 374.466 50.6212 374.508 50.7201C374.528 50.71 374.548 50.6999 374.569 50.6897C374.673 50.6371 374.777 50.5834 374.88 50.5286C375.056 50.4356 375.23 50.3395 375.404 50.2405C375.588 50.1351 375.771 50.0265 375.953 49.9147C375.985 49.8952 376.016 49.8756 376.048 49.8559C376.05 49.8546 376.052 49.8534 376.054 49.8521C376.355 49.6644 376.652 49.4682 376.945 49.2641C377.365 48.9713 377.775 48.6625 378.176 48.3401V49.8521H386.856V48.2841C387.594 48.867 388.36 49.3826 389.124 49.8306C389.136 49.8378 389.148 49.845 389.161 49.8521C389.485 50.0416 389.81 50.2189 390.132 50.3841C390.19 50.2618 390.25 50.1354 390.314 50.0064C390.339 49.9553 390.365 49.9039 390.391 49.8521C390.525 49.5834 390.672 49.3058 390.825 49.0323C390.969 48.7759 391.12 48.5229 391.275 48.2841C391.347 48.1716 391.421 48.0623 391.495 47.9572C391.618 47.7821 391.743 47.6187 391.868 47.4721C391.801 47.446 391.734 47.4192 391.667 47.3918C391.624 47.3745 391.582 47.3569 391.539 47.339C391.328 47.2505 391.118 47.1558 390.908 47.0551C390.306 46.7668 389.709 46.4302 389.124 46.053C389.013 45.9811 388.902 45.9078 388.791 45.8331C388.707 45.7762 388.623 45.7186 388.54 45.6601C388.48 45.6178 388.419 45.5752 388.359 45.5321C388.183 45.4057 388.009 45.2757 387.836 45.1425C387.746 45.0732 387.657 45.0031 387.568 44.9321C387.327 44.7394 387.089 44.5404 386.856 44.3357C386.826 44.3096 386.797 44.2834 386.767 44.2571C386.617 44.1243 386.47 43.9893 386.324 43.8521C386.214 43.748 386.104 43.6427 385.996 43.5363C385.842 43.3839 385.689 43.2292 385.54 43.0723C385.455 42.9834 385.372 42.8938 385.289 42.8036C385.214 42.722 385.14 42.6398 385.066 42.5571C384.959 42.436 384.853 42.3139 384.749 42.1908C384.732 42.1715 384.716 42.1521 384.7 42.1328C384.635 42.0556 384.571 41.978 384.508 41.9001C384.463 41.8446 384.418 41.789 384.374 41.7331C384.322 41.6677 384.271 41.602 384.22 41.5361C384.139 41.4313 384.059 41.326 383.981 41.2201C383.921 41.1391 383.862 41.0577 383.804 40.9761H380.78C380.729 41.0525 380.678 41.1347 380.627 41.2201C380.566 41.3224 380.505 41.4293 380.444 41.5361V39.6601H384.7V41.9001H387.836V39.6601H391.112V36.8321H387.836V34.3121H384.7V36.8321H380.444V34.3121H377.364V36.8321H374.256V39.6601H377.364V41.8161H380.248C380.241 41.8258 380.235 41.8355 380.228 41.8452C380.215 41.8635 380.203 41.8818 380.19 41.9001C380.109 42.0167 380.025 42.1338 379.938 42.2511C379.937 42.2524 379.936 42.2537 379.935 42.255C379.864 42.3503 379.792 42.4457 379.717 42.5413C379.695 42.5702 379.672 42.5992 379.65 42.6281C379.614 42.6736 379.578 42.7191 379.541 42.7646C379.52 42.7912 379.498 42.8178 379.476 42.8444C379.472 42.8494 379.468 42.8545 379.464 42.8595C379.289 43.0736 379.106 43.2875 378.916 43.5005C378.811 43.6181 378.703 43.7353 378.593 43.8521C378.457 43.9967 378.318 44.1406 378.176 44.2834C378.142 44.318 378.107 44.3526 378.072 44.3871C377.986 44.4724 377.899 44.5573 377.81 44.6417C377.679 44.7668 377.546 44.8908 377.411 45.0135C377.396 45.0278 377.38 45.0421 377.364 45.0564C377.355 45.0642 377.347 45.072 377.338 45.0798C377.168 45.2328 376.995 45.3837 376.819 45.5321C376.768 45.575 376.717 45.6177 376.666 45.6601C376.56 45.7475 376.454 45.8339 376.346 45.9192C376.322 45.9384 376.298 45.9576 376.274 45.9767C376.221 46.0181 376.168 46.0592 376.116 46.1001C376.093 46.1175 376.071 46.1348 376.048 46.152C375.667 46.4435 375.277 46.7212 374.88 46.981C374.792 47.0386 374.704 47.0952 374.616 47.151C374.599 47.1614 374.582 47.1718 374.566 47.1821C374.5 47.2233 374.434 47.264 374.368 47.3041L374.116 45.5401L372.072 46.1001V42.6281H374.228V39.5761H372.072V34.3121H368.88V39.5761H365.632V42.6281ZM385.54 47.2201C385.415 47.1091 385.291 46.9972 385.168 46.8846C385.01 46.7392 384.853 46.5925 384.7 46.445C384.62 46.368 384.541 46.2908 384.462 46.2134C384.423 46.1743 384.384 46.1352 384.344 46.096C384.2 45.9512 384.058 45.8058 383.92 45.6601C383.881 45.619 383.842 45.5778 383.804 45.5366C383.803 45.5351 383.801 45.5336 383.8 45.5321C383.346 45.0455 382.934 44.5565 382.579 44.0757C382.524 44.001 382.47 43.9264 382.418 43.8521C382.413 43.8454 382.409 43.8388 382.404 43.8321C382.4 43.8388 382.395 43.8454 382.391 43.8521C382.363 43.8964 382.334 43.9409 382.304 43.9854C381.969 44.4892 381.565 45.0093 381.109 45.5321C381.071 45.5748 381.034 45.6174 380.996 45.6601C380.925 45.7397 380.853 45.8194 380.78 45.8991C380.691 45.9966 380.599 46.094 380.507 46.1914C380.466 46.2338 380.426 46.2761 380.385 46.3184C380.357 46.3473 380.329 46.3761 380.3 46.405C380.283 46.4228 380.266 46.4407 380.248 46.4585C380.246 46.4607 380.244 46.4628 380.242 46.465C379.999 46.7114 379.747 46.9566 379.486 47.1992C379.479 47.2061 379.472 47.2131 379.464 47.2201H385.54ZM389.124 51.5321H376.048V60.4361H379.044V59.4281H385.988V60.3241H389.124V51.5321ZM385.988 54.1641H379.044V56.7961H385.988V54.1641ZM410.18 60.4641H413.596V56.6841H424.768V53.6881H413.596V52.1761H421.856V40.9481H413.596V39.6041H423.956V36.5801H413.596V34.3121H410.18V36.5801H400.016V39.6041H410.18V40.9481H402.116V52.1761H410.18V53.6881H399.344V56.6841H410.18V60.4641ZM418.496 49.5161V47.8081H413.596V49.5161H418.496ZM418.496 45.3161V43.6081H413.596V45.3161H418.496ZM410.18 45.3161V43.6081H405.308V45.3161H410.18ZM405.308 47.8081V49.5161H410.18V47.8081H405.308ZM505.38 60.4641H508.6V59.5121H518.932V60.3241H522.32V45.9321H513.36C513.528 45.8598 513.695 45.7862 513.861 45.7114C513.886 45.7002 513.911 45.689 513.935 45.6778C514.034 45.6331 514.132 45.588 514.229 45.5424C514.24 45.5375 514.25 45.5326 514.261 45.5277C514.269 45.5237 514.278 45.5198 514.286 45.5159C514.571 45.3819 514.852 45.2441 515.129 45.1024C515.224 45.0543 515.317 45.0058 515.41 44.9568C515.489 44.9156 515.566 44.8741 515.644 44.8322C515.971 44.6561 516.291 44.4744 516.604 44.287C516.9 44.1098 517.19 43.9275 517.474 43.7401C517.982 43.4035 518.469 43.0503 518.932 42.6799C518.934 42.6778 518.937 42.6758 518.94 42.6738C519.039 42.5939 519.138 42.5132 519.235 42.4316C519.236 42.4307 519.237 42.4297 519.239 42.4287C519.513 42.1993 519.777 41.9635 520.032 41.7213C520.09 41.6661 520.148 41.6106 520.204 41.5548C520.281 41.4794 520.357 41.4034 520.432 41.3268C520.59 41.166 520.743 41.0024 520.892 40.8361L517.7 39.4081C517.547 39.5866 517.386 39.7613 517.216 39.9321C517.184 39.9642 517.152 39.9961 517.12 40.0279C517.102 40.0453 517.084 40.0627 517.067 40.0801C517.028 40.1176 516.989 40.155 516.949 40.1921C516.868 40.2689 516.784 40.345 516.699 40.4201C515.964 41.0715 515.111 41.6611 514.171 42.1892C514.029 42.2689 513.885 42.3472 513.739 42.4241C513.734 42.4268 513.729 42.4294 513.724 42.4321C513.727 42.4294 513.731 42.4268 513.734 42.4241C513.855 42.3255 513.96 42.2162 514.048 42.0937C514.33 41.7037 514.454 41.1806 514.476 40.4487C514.478 40.3949 514.479 40.3401 514.48 40.2841C514.48 40.2538 514.48 40.2231 514.48 40.1921V34.2841H511.12V40.0801C511.12 40.1209 511.118 40.1581 511.114 40.1921C511.104 40.2827 511.08 40.3504 511.036 40.4003C511.024 40.4133 511.011 40.4251 510.997 40.4358C510.947 40.4737 510.878 40.4975 510.788 40.5115C510.71 40.5234 510.616 40.5281 510.504 40.5281C510.324 40.5387 509.958 40.5453 509.495 40.5448C509.101 40.5444 508.635 40.5389 508.152 40.5264C508.113 40.5254 508.074 40.5243 508.035 40.5232C507.93 40.5202 507.824 40.5169 507.718 40.5133C507.411 40.5027 507.103 40.4891 506.808 40.4721C506.999 40.759 507.207 41.1143 507.403 41.4923C507.517 41.7137 507.628 41.9429 507.73 42.1706C507.754 42.225 507.777 42.2793 507.801 42.3334C507.82 42.379 507.839 42.4244 507.857 42.4696C507.944 42.6807 508.02 42.887 508.081 43.0807C508.083 43.0861 508.084 43.0915 508.086 43.0968C508.111 43.1763 508.133 43.2535 508.152 43.3281C508.27 43.3281 508.386 43.328 508.501 43.3277C508.534 43.3277 508.567 43.3276 508.6 43.3275C509.294 43.3251 509.926 43.3155 510.504 43.2805C510.558 43.2772 510.612 43.2737 510.665 43.27C510.935 43.251 511.192 43.2261 511.438 43.1931C511.679 43.161 511.91 43.1212 512.13 43.072C512.392 43.0137 512.641 42.9422 512.878 42.8545C512.648 42.9657 512.415 43.0741 512.177 43.1799C511.793 43.3508 511.398 43.5147 510.994 43.6719C510.935 43.6948 510.876 43.7175 510.816 43.7401C510.776 43.7554 510.736 43.7707 510.696 43.7859C510.632 43.8098 510.568 43.8336 510.504 43.8572C510.204 43.9677 509.9 44.0745 509.591 44.178C509.265 44.2869 508.935 44.3921 508.6 44.4935C508.452 44.5384 508.302 44.5826 508.152 44.6261C508.148 44.6272 508.144 44.6284 508.14 44.6296C507.916 44.6942 507.691 44.7572 507.464 44.8187C507.16 44.9008 506.853 44.9801 506.543 45.0566C506.425 45.086 506.305 45.1149 506.186 45.1435C505.702 45.2589 505.212 45.3677 504.717 45.4701C504.557 45.5033 504.396 45.5357 504.235 45.5676C503.9 45.6336 503.563 45.6968 503.224 45.7573C503.164 45.7679 503.105 45.7784 503.045 45.7889C502.932 45.8086 502.819 45.8281 502.706 45.8472C502.688 45.8502 502.67 45.8532 502.653 45.8562C502.154 45.9401 501.652 46.0181 501.147 46.0904C500.628 46.1649 500.107 46.2334 499.584 46.2961C500.034 46.808 500.694 47.7091 501.181 48.4521C501.275 48.5953 501.362 48.7327 501.44 48.8603C501.511 48.9759 501.574 49.0835 501.628 49.1801C501.954 49.1295 502.277 49.0751 502.6 49.0175C502.724 48.9953 502.848 48.9727 502.971 48.9497C503.141 48.9181 503.31 48.8857 503.479 48.8526C503.809 48.7878 504.139 48.7201 504.47 48.65C504.688 48.6038 504.906 48.5566 505.125 48.5085C505.21 48.4899 505.295 48.471 505.38 48.4521V60.4641ZM518.932 57.0481V55.6761H508.6V57.0481H518.932ZM518.932 53.4081V51.9801H508.6V53.4081H518.932ZM518.932 49.7401V48.4241H508.6V49.7401H518.932ZM502.513 42.9272C502.526 42.9398 502.539 42.9521 502.552 42.9641C502.585 42.9427 502.618 42.9212 502.651 42.8995C503.292 42.4792 503.954 41.9883 504.607 41.4443C505.118 41.0192 505.624 40.5617 506.113 40.0801C506.373 39.8235 506.628 39.5601 506.876 39.2911C507.104 39.0442 507.326 38.7925 507.54 38.5372C507.752 38.2848 507.956 38.0287 508.152 37.7699C508.263 37.6233 508.371 37.4759 508.476 37.3277C508.477 37.3258 508.479 37.3238 508.48 37.3218C508.488 37.3101 508.497 37.2984 508.505 37.2867C508.676 37.0434 508.839 36.7983 508.992 36.5521L505.772 35.5161C505.576 35.8184 505.358 36.12 505.12 36.4183C505.005 36.5623 504.886 36.7055 504.763 36.8476C503.718 38.0516 502.381 39.1789 500.985 40.048C500.929 40.083 500.873 40.1176 500.816 40.1518C500.797 40.1637 500.777 40.1756 500.757 40.1875C500.489 40.3486 500.218 40.4999 499.948 40.6401C500.21 40.8413 500.54 41.1221 500.884 41.4266C501.479 41.952 502.115 42.5479 502.513 42.9272ZM471.388 34.3401V37.0841H467.216V39.9401H471.388V42.5721H466.46V45.4561H472.06V54.1641C471.773 53.8438 471.512 53.4887 471.274 53.0918C470.985 52.6117 470.73 52.0705 470.502 51.4561C470.491 51.4256 470.48 51.395 470.468 51.3641C470.419 51.2277 470.371 51.0877 470.324 50.9441C470.34 50.6077 470.356 50.2689 470.371 49.9279C470.392 49.4799 470.411 49.028 470.427 48.5721C470.428 48.5415 470.429 48.5108 470.43 48.4801C470.441 48.1807 470.45 47.8796 470.458 47.5769C470.46 47.4954 470.462 47.4138 470.464 47.3321L467.412 47.1081C467.411 47.1597 467.411 47.2112 467.41 47.2627C467.405 47.7009 467.397 48.1378 467.387 48.5721C467.372 49.1984 467.352 49.8192 467.325 50.4307C467.319 50.5543 467.313 50.6776 467.307 50.8004C467.296 51.0204 467.284 51.239 467.27 51.4561C467.26 51.6222 467.249 51.7875 467.238 51.9518C467.211 52.3419 467.179 52.7265 467.144 53.1045C467.11 53.4639 467.071 53.8175 467.029 54.1641C466.974 54.6079 466.912 55.0404 466.841 55.4597C466.76 55.9431 466.667 56.409 466.561 56.8542C466.423 57.4358 466.263 57.9822 466.078 58.4867C466.076 58.4912 466.075 58.4956 466.073 58.5C465.96 58.8068 465.837 59.098 465.704 59.3721C466.169 59.5689 466.932 59.9373 467.575 60.2798C467.938 60.4733 468.264 60.6586 468.476 60.8001C468.486 60.7774 468.496 60.7546 468.506 60.7317C468.699 60.2956 468.872 59.8316 469.027 59.3416C469.174 58.8793 469.305 58.3938 469.421 57.8866C469.542 57.3622 469.647 56.8147 469.738 56.2455C469.752 56.1589 469.766 56.0717 469.779 55.9841C469.784 55.9562 469.788 55.9282 469.792 55.9001C469.812 55.9283 469.831 55.9563 469.851 55.9841C469.875 56.0168 469.898 56.0492 469.922 56.0814C470.222 56.491 470.543 56.8566 470.888 57.1825C471.346 57.6163 471.845 57.9797 472.389 58.283C472.957 58.5999 473.574 58.8513 474.245 59.049C474.548 59.1383 474.862 59.2166 475.187 59.2851C475.209 59.2897 475.231 59.2943 475.253 59.2988C476.137 59.4803 477.105 59.5901 478.166 59.6496C478.891 59.6903 479.659 59.7075 480.474 59.7081C480.488 59.7081 480.502 59.7081 480.516 59.7081H491.324C491.477 58.9428 491.852 57.836 492.249 57.0277C492.36 56.801 492.474 56.5977 492.584 56.4321C492.245 56.4472 491.816 56.4602 491.324 56.4715C490.488 56.4905 489.467 56.5043 488.384 56.5139C488.291 56.5147 488.198 56.5155 488.104 56.5162C487.41 56.5218 486.694 56.5257 485.989 56.5282C485.607 56.5296 485.227 56.5305 484.856 56.531C484.705 56.5313 484.556 56.5314 484.408 56.5315C483.583 56.5321 482.809 56.5308 482.145 56.5281C481.467 56.5254 480.904 56.5212 480.516 56.5161C480.242 56.5161 479.974 56.5143 479.712 56.5103C479.5 56.507 479.292 56.5023 479.088 56.4959C478.576 56.4799 478.088 56.4534 477.623 56.413C476.751 56.3372 475.958 56.2127 475.231 56.017C475.191 56.0063 475.152 55.9953 475.112 55.9841V51.3641H479.088V48.4801H475.112V45.4561H479.34V42.5721H474.496V39.9401H478.64V37.0841H474.496V34.3401H471.388ZM480.152 38.2601H487.488V42.5721H480.404V51.1681C480.404 51.2336 480.404 51.2982 480.405 51.3618C480.405 51.3626 480.405 51.3634 480.405 51.3641C480.412 51.9092 480.446 52.3844 480.516 52.7975C480.53 52.8796 480.545 52.9592 480.562 53.0365C480.615 53.2844 480.684 53.5077 480.769 53.7081C480.862 53.9284 480.976 54.1213 481.112 54.2893C481.613 54.907 482.418 55.1882 483.649 55.263C483.886 55.2774 484.139 55.2841 484.408 55.2841H488.384C488.662 55.2841 488.92 55.2718 489.159 55.2452C489.611 55.1951 489.998 55.0942 490.33 54.9294C490.738 54.7267 491.063 54.4275 491.324 54.0073C491.325 54.0055 491.326 54.0037 491.327 54.0019C491.629 53.5144 491.846 52.8647 492.008 52.015C492.096 51.552 492.168 51.0297 492.228 50.4419C492.245 50.2784 492.261 50.1098 492.276 49.9361C491.84 49.8345 491.262 49.6425 490.708 49.407C490.29 49.2292 489.886 49.0265 489.568 48.8192C489.495 48.7717 489.427 48.7239 489.364 48.6761C489.351 49.0455 489.337 49.3784 489.321 49.6783C489.317 49.753 489.313 49.8257 489.309 49.8964C489.295 50.1183 489.28 50.3206 489.264 50.5048C489.24 50.7587 489.213 50.9784 489.181 51.1681C489.09 51.7017 488.957 51.9987 488.746 52.1561C488.644 52.2319 488.525 52.2754 488.384 52.2974C488.299 52.3107 488.206 52.3161 488.104 52.3161H484.856C484.686 52.3161 484.537 52.3127 484.408 52.3031C483.785 52.2571 483.606 52.0681 483.574 51.4281C483.573 51.4073 483.572 51.3859 483.571 51.3641C483.569 51.3027 483.568 51.2375 483.568 51.1681V45.4281H487.488V46.1561H490.708V35.3481H480.152V38.2601ZM518.125 37.6664C518.211 37.7355 518.298 37.8053 518.385 37.8758C519.1 38.4543 519.818 39.0761 520.48 39.6948C520.565 39.774 520.648 39.8531 520.731 39.9321C520.865 40.0603 520.997 40.188 521.125 40.315C521.375 40.5626 521.613 40.8072 521.833 41.0456C522.006 41.2323 522.169 41.4152 522.32 41.5928C522.545 41.8579 522.743 42.1113 522.908 42.3481L525.792 40.5281C525.76 40.4882 525.728 40.4479 525.695 40.4072C524.934 39.4747 523.745 38.3591 522.472 37.3039C522.063 36.9645 521.645 36.6313 521.229 36.3125C520.978 36.1192 520.727 35.9312 520.48 35.7503C520.25 35.5816 520.022 35.419 519.8 35.2641L517.112 36.8881C517.115 36.8901 517.117 36.892 517.12 36.894C517.448 37.137 517.785 37.3962 518.125 37.6664ZM231.148 48.9001V45.2881H256.908V48.9001H231.148ZM432.748 48.9001V45.2881H458.508V48.9001H432.748ZM539.02 51.5617C539.008 51.4673 538.998 51.3721 538.991 51.2763L538.235 41.7003C538.227 41.6101 538.222 41.5198 538.219 41.4293L538.079 37.2573C538.025 35.632 538.632 34.0542 539.763 32.8852C540.893 31.7162 542.45 31.0561 544.076 31.0561H548.724C550.35 31.0561 551.907 31.7162 553.037 32.8852C554.168 34.0542 554.775 35.632 554.721 37.2573L554.581 41.4293C554.578 41.5198 554.573 41.6101 554.565 41.7003L553.809 51.2763C553.802 51.3721 553.792 51.4673 553.78 51.5617C554.47 52.7919 554.864 54.2281 554.864 55.7881C554.864 60.648 551.023 64.2521 546.4 64.2521C544.242 64.2521 542.063 63.4688 540.407 61.8257C538.743 60.1755 537.936 57.9838 537.936 55.7881C537.936 54.2281 538.33 52.7919 539.02 51.5617ZM544.972 50.8041H547.828L548.584 41.2281L548.724 37.0561H544.076L544.216 41.2281L544.972 50.8041ZM542.937 56.4496C543.065 57.0451 543.373 57.6916 543.931 58.2451C544.693 59.0005 545.631 59.2961 546.4 59.2961C547.169 59.2961 548.107 59.0005 548.869 58.2451C549.427 57.6916 549.735 57.0451 549.863 56.4496C549.489 56.5847 549.098 56.6835 548.694 56.7419C548.804 56.4542 548.864 56.1338 548.864 55.7881C548.864 54.8764 548.462 54.1443 547.828 53.7153C547.43 53.446 546.94 53.2961 546.4 53.2961C545.86 53.2961 545.37 53.446 544.972 53.7153C544.338 54.1443 543.936 54.8764 543.936 55.7881C543.936 56.1336 543.994 56.4538 544.102 56.7414C543.7 56.6828 543.31 56.5842 542.937 56.4496Z" fill="#266DD7"/>
<path fill-rule="evenodd" clip-rule="evenodd" d="M49 88C49 86.8954 49.8954 86 51 86H204C205.105 86 206 86.8954 206 88C206 89.1046 205.105 90 204 90H51C49.8954 90 49 89.1046 49 88Z" fill="#72A4EF"/>
<path fill-rule="evenodd" clip-rule="evenodd" d="M597 10C597 8.89543 597.895 8 599 8H752C753.105 8 754 8.89543 754 10C754 11.1046 753.105 12 752 12H599C597.895 12 597 11.1046 597 10Z" fill="#72A4EF"/>
</svg>
