<svg width="775" height="133" viewBox="0 0 775 133" fill="none" xmlns="http://www.w3.org/2000/svg">
<path d="M412.934 120.993V122.075H410.796V120.993H412.934ZM410.796 124.501V123.431H412.934V124.501H410.796ZM411.63 126.796C411.878 127.161 412.126 127.565 412.361 127.969L410.796 128.36V125.935H414.369V119.559H409.309V128.699C408.996 128.778 408.696 128.843 408.436 128.895L408.879 130.486C410.066 130.16 411.591 129.743 413.065 129.325C413.26 129.743 413.417 130.134 413.508 130.473L414.877 129.782C414.551 128.778 413.691 127.304 412.882 126.209L411.63 126.796ZM420.132 119.533H415.099V131.086H416.677V121.097H418.528V127.356C418.528 127.526 418.476 127.591 418.307 127.591C418.124 127.591 417.589 127.604 417.081 127.565C417.316 127.995 417.563 128.791 417.616 129.26C418.45 129.26 419.063 129.221 419.545 128.934C420.015 128.647 420.132 128.139 420.132 127.408V119.533Z" fill="black"/>
<path d="M425.974 128.53V125.609H431.763V128.53H425.974ZM431.763 121.267V124.07H425.974V121.267H431.763ZM424.37 119.702V130.942H425.974V130.095H431.763V130.916H433.433V119.702H424.37Z" fill="black"/>
<path d="M447.072 122.779H443.773V126.783C443.773 128.282 444.19 128.699 445.638 128.699H447.489C448.754 128.699 449.132 128.152 449.302 126.209C448.911 126.118 448.272 125.87 447.946 125.622C447.893 127.082 447.815 127.317 447.359 127.317H445.846C445.338 127.317 445.246 127.252 445.246 126.783V124.109H447.072V124.448H448.571V119.415H443.656V120.771H447.072V122.779ZM441.308 126.874H443.16V125.531H441.308V124.122H443.277V122.779H441.022V121.554H442.951V120.224H441.022V118.946H439.574V120.224H437.631V121.554H439.574V122.779H437.279V124.122H439.887V128.178C439.548 127.8 439.287 127.317 439.079 126.678C439.105 126.131 439.131 125.57 439.144 124.996L437.723 124.892C437.696 127.122 437.566 129.286 436.927 130.603C437.266 130.747 437.944 131.086 438.218 131.268C438.505 130.629 438.701 129.86 438.831 128.986C439.848 130.447 441.4 130.76 443.825 130.76H448.858C448.95 130.303 449.21 129.586 449.445 129.234C448.272 129.286 444.816 129.286 443.825 129.273C442.821 129.273 442 129.221 441.308 129.025V126.874Z" fill="black"/>
<path d="M456.855 125.192H460.636L460.206 126.952H456.424L456.855 125.192Z" fill="black"/>
<path d="M471.355 120.719C471.702 120.719 472.024 120.776 472.32 120.889C472.624 121.002 472.885 121.158 473.102 121.358C473.328 121.549 473.502 121.775 473.624 122.036C473.745 122.297 473.806 122.575 473.806 122.871C473.806 123.201 473.771 123.497 473.702 123.757C473.632 124.018 473.515 124.27 473.35 124.514C473.185 124.757 472.963 125.005 472.685 125.257C472.415 125.509 472.081 125.792 471.681 126.104C471.446 126.287 471.207 126.461 470.964 126.626C470.729 126.791 470.494 126.961 470.259 127.135C470.033 127.308 469.812 127.495 469.594 127.695C469.377 127.887 469.173 128.104 468.982 128.347H472.867L472.476 129.964H466.465C466.543 129.417 466.678 128.943 466.869 128.543C467.06 128.143 467.295 127.782 467.573 127.461C467.86 127.13 468.182 126.826 468.538 126.548C468.895 126.261 469.281 125.957 469.699 125.635C470.09 125.331 470.42 125.07 470.69 124.853C470.968 124.627 471.19 124.422 471.355 124.24C471.529 124.049 471.655 123.87 471.733 123.705C471.811 123.54 471.85 123.366 471.85 123.184C471.85 122.958 471.768 122.771 471.603 122.623C471.446 122.466 471.242 122.388 470.99 122.388C470.633 122.388 470.286 122.466 469.947 122.623C469.607 122.771 469.238 122.997 468.838 123.301L468.173 121.88C468.695 121.454 469.216 121.154 469.738 120.98C470.259 120.806 470.798 120.719 471.355 120.719Z" fill="black"/>
<path d="M478.283 128.478C478.562 128.478 478.818 128.395 479.053 128.23C479.288 128.065 479.492 127.847 479.666 127.578C479.848 127.308 480.005 127.004 480.135 126.665C480.274 126.317 480.387 125.965 480.474 125.609C480.561 125.253 480.626 124.905 480.67 124.566C480.713 124.227 480.735 123.927 480.735 123.666C480.735 123.223 480.665 122.897 480.526 122.688C480.396 122.479 480.192 122.375 479.913 122.375C479.627 122.375 479.366 122.458 479.131 122.623C478.896 122.788 478.688 123.005 478.505 123.275C478.323 123.544 478.162 123.853 478.023 124.201C477.892 124.548 477.784 124.9 477.697 125.257C477.61 125.613 477.545 125.961 477.501 126.3C477.458 126.639 477.436 126.939 477.436 127.2C477.436 127.652 477.505 127.978 477.645 128.178C477.784 128.378 477.997 128.478 478.283 128.478ZM477.984 130.147C477.558 130.147 477.197 130.073 476.901 129.925C476.606 129.769 476.362 129.564 476.171 129.312C475.989 129.06 475.854 128.778 475.767 128.465C475.689 128.143 475.649 127.813 475.649 127.474C475.649 126.483 475.758 125.574 475.975 124.748C476.201 123.923 476.51 123.21 476.901 122.61C477.301 122.01 477.779 121.545 478.336 121.215C478.892 120.884 479.509 120.719 480.187 120.719C480.613 120.719 480.974 120.797 481.27 120.954C481.565 121.102 481.804 121.302 481.987 121.554C482.178 121.806 482.313 122.093 482.391 122.414C482.478 122.727 482.521 123.053 482.521 123.392C482.521 124.383 482.408 125.292 482.182 126.118C481.965 126.943 481.656 127.656 481.257 128.256C480.865 128.856 480.392 129.321 479.835 129.651C479.279 129.982 478.662 130.147 477.984 130.147Z" fill="black"/>
<path d="M488.785 120.719C489.133 120.719 489.454 120.776 489.75 120.889C490.054 121.002 490.315 121.158 490.532 121.358C490.758 121.549 490.932 121.775 491.054 122.036C491.176 122.297 491.236 122.575 491.236 122.871C491.236 123.201 491.202 123.497 491.132 123.757C491.063 124.018 490.945 124.27 490.78 124.514C490.615 124.757 490.393 125.005 490.115 125.257C489.846 125.509 489.511 125.792 489.111 126.104C488.876 126.287 488.637 126.461 488.394 126.626C488.159 126.791 487.924 126.961 487.69 127.135C487.464 127.308 487.242 127.495 487.025 127.695C486.807 127.887 486.603 128.104 486.412 128.347H490.298L489.906 129.964H483.895C483.973 129.417 484.108 128.943 484.299 128.543C484.491 128.143 484.725 127.782 485.004 127.461C485.29 127.13 485.612 126.826 485.968 126.548C486.325 126.261 486.712 125.957 487.129 125.635C487.52 125.331 487.851 125.07 488.12 124.853C488.398 124.627 488.62 124.422 488.785 124.24C488.959 124.049 489.085 123.87 489.163 123.705C489.241 123.54 489.281 123.366 489.281 123.184C489.281 122.958 489.198 122.771 489.033 122.623C488.876 122.466 488.672 122.388 488.42 122.388C488.063 122.388 487.716 122.466 487.377 122.623C487.038 122.771 486.668 122.997 486.268 123.301L485.603 121.88C486.125 121.454 486.647 121.154 487.168 120.98C487.69 120.806 488.229 120.719 488.785 120.719Z" fill="black"/>
<path d="M497.5 120.719C497.848 120.719 498.17 120.776 498.465 120.889C498.769 121.002 499.03 121.158 499.247 121.358C499.473 121.549 499.647 121.775 499.769 122.036C499.891 122.297 499.952 122.575 499.952 122.871C499.952 123.201 499.917 123.497 499.847 123.757C499.778 124.018 499.66 124.27 499.495 124.514C499.33 124.757 499.108 125.005 498.83 125.257C498.561 125.509 498.226 125.792 497.826 126.104C497.591 126.287 497.352 126.461 497.109 126.626C496.874 126.791 496.64 126.961 496.405 127.135C496.179 127.308 495.957 127.495 495.74 127.695C495.522 127.887 495.318 128.104 495.127 128.347H499.013L498.622 129.964H492.61C492.689 129.417 492.823 128.943 493.015 128.543C493.206 128.143 493.44 127.782 493.719 127.461C494.006 127.13 494.327 126.826 494.684 126.548C495.04 126.261 495.427 125.957 495.844 125.635C496.235 125.331 496.566 125.07 496.835 124.853C497.113 124.627 497.335 124.422 497.5 124.24C497.674 124.049 497.8 123.87 497.878 123.705C497.957 123.54 497.996 123.366 497.996 123.184C497.996 122.958 497.913 122.771 497.748 122.623C497.591 122.466 497.387 122.388 497.135 122.388C496.779 122.388 496.431 122.466 496.092 122.623C495.753 122.771 495.383 122.997 494.984 123.301L494.318 121.88C494.84 121.454 495.362 121.154 495.883 120.98C496.405 120.806 496.944 120.719 497.5 120.719Z" fill="black"/>
<path d="M501.352 132.377H499.369L506.672 119.754H508.641L501.352 132.377Z" fill="black"/>
<path d="M511.412 128.478C511.69 128.478 511.947 128.395 512.181 128.23C512.416 128.065 512.62 127.847 512.794 127.578C512.977 127.308 513.133 127.004 513.264 126.665C513.403 126.317 513.516 125.965 513.603 125.609C513.69 125.253 513.755 124.905 513.798 124.566C513.842 124.227 513.864 123.927 513.864 123.666C513.864 123.223 513.794 122.897 513.655 122.688C513.525 122.479 513.32 122.375 513.042 122.375C512.755 122.375 512.494 122.458 512.26 122.623C512.025 122.788 511.816 123.005 511.634 123.275C511.451 123.544 511.29 123.853 511.151 124.201C511.021 124.548 510.912 124.9 510.825 125.257C510.738 125.613 510.673 125.961 510.63 126.3C510.586 126.639 510.565 126.939 510.565 127.2C510.565 127.652 510.634 127.978 510.773 128.178C510.912 128.378 511.125 128.478 511.412 128.478ZM511.112 130.147C510.686 130.147 510.326 130.073 510.03 129.925C509.734 129.769 509.491 129.564 509.3 129.312C509.117 129.06 508.982 128.778 508.896 128.465C508.817 128.143 508.778 127.813 508.778 127.474C508.778 126.483 508.887 125.574 509.104 124.748C509.33 123.923 509.639 123.21 510.03 122.61C510.43 122.01 510.908 121.545 511.464 121.215C512.021 120.884 512.638 120.719 513.316 120.719C513.742 120.719 514.103 120.797 514.398 120.954C514.694 121.102 514.933 121.302 515.115 121.554C515.307 121.806 515.441 122.093 515.52 122.414C515.607 122.727 515.65 123.053 515.65 123.392C515.65 124.383 515.537 125.292 515.311 126.118C515.094 126.943 514.785 127.656 514.385 128.256C513.994 128.856 513.52 129.321 512.964 129.651C512.408 129.982 511.79 130.147 511.112 130.147Z" fill="black"/>
<path d="M524.469 122.388C523.93 122.406 523.426 122.445 522.957 122.506C522.496 122.566 522.07 122.679 521.679 122.845C521.296 123.01 520.957 123.231 520.662 123.51C520.375 123.788 520.136 124.149 519.945 124.592C520.171 124.47 520.432 124.383 520.727 124.331C521.031 124.27 521.314 124.24 521.575 124.24C521.896 124.24 522.196 124.292 522.474 124.396C522.761 124.492 523.009 124.644 523.218 124.853C523.435 125.053 523.604 125.305 523.726 125.609C523.848 125.913 523.909 126.265 523.909 126.665C523.909 127.23 523.817 127.73 523.635 128.165C523.452 128.591 523.205 128.951 522.892 129.247C522.579 129.543 522.214 129.769 521.796 129.925C521.379 130.073 520.94 130.147 520.479 130.147C520.071 130.147 519.693 130.077 519.345 129.938C518.997 129.799 518.693 129.599 518.432 129.338C518.18 129.069 517.98 128.738 517.832 128.347C517.685 127.947 517.611 127.487 517.611 126.965C517.611 126.2 517.741 125.452 518.002 124.722C518.263 123.983 518.662 123.327 519.201 122.753C519.74 122.18 520.423 121.719 521.249 121.371C522.075 121.015 523.052 120.836 524.183 120.836C524.252 120.836 524.33 120.836 524.417 120.836C524.513 120.836 524.609 120.841 524.704 120.85L524.469 122.388ZM522.057 126.796C522.057 126.378 521.944 126.091 521.718 125.935C521.492 125.778 521.223 125.7 520.91 125.7C520.692 125.7 520.471 125.731 520.245 125.792C520.027 125.844 519.823 125.909 519.632 125.987C519.519 126.317 519.462 126.656 519.462 127.004C519.462 127.421 519.558 127.782 519.749 128.086C519.94 128.382 520.236 128.53 520.636 128.53C521.053 128.53 521.392 128.378 521.653 128.073C521.922 127.769 522.057 127.343 522.057 126.796Z" fill="black"/>
<path d="M525.765 132.377H523.783L531.085 119.754H533.054L525.765 132.377Z" fill="black"/>
<path d="M538.121 125.166C538.486 125.339 538.768 125.609 538.968 125.974C539.168 126.33 539.268 126.722 539.268 127.148C539.268 127.504 539.194 127.86 539.046 128.217C538.899 128.573 538.664 128.895 538.342 129.182C538.021 129.469 537.612 129.703 537.117 129.886C536.621 130.06 536.026 130.147 535.33 130.147C534.339 130.147 533.448 129.942 532.657 129.534L533.361 127.995C533.613 128.169 533.926 128.313 534.3 128.426C534.674 128.53 535.056 128.582 535.448 128.582C535.691 128.582 535.926 128.556 536.152 128.504C536.386 128.452 536.591 128.365 536.765 128.243C536.938 128.121 537.077 127.965 537.182 127.774C537.286 127.582 537.338 127.348 537.338 127.069C537.338 126.713 537.191 126.443 536.895 126.261C536.608 126.078 536.221 125.987 535.734 125.987H534.9L535.278 124.448H536.217C536.399 124.448 536.591 124.431 536.791 124.396C536.991 124.362 537.173 124.301 537.338 124.214C537.503 124.118 537.638 123.996 537.743 123.849C537.856 123.692 537.912 123.492 537.912 123.249C537.912 122.945 537.808 122.723 537.599 122.584C537.39 122.436 537.117 122.362 536.778 122.362C536.508 122.362 536.208 122.41 535.878 122.506C535.556 122.601 535.222 122.74 534.874 122.923L534.378 121.462C534.804 121.219 535.243 121.036 535.695 120.915C536.147 120.784 536.617 120.719 537.104 120.719C537.564 120.719 537.969 120.784 538.316 120.915C538.664 121.036 538.951 121.202 539.177 121.41C539.412 121.619 539.585 121.858 539.698 122.127C539.811 122.388 539.868 122.658 539.868 122.936C539.868 123.162 539.829 123.388 539.751 123.614C539.681 123.831 539.572 124.04 539.425 124.24C539.286 124.431 539.103 124.609 538.877 124.774C538.66 124.931 538.408 125.061 538.121 125.166Z" fill="black"/>
<path d="M544.541 128.478C544.819 128.478 545.075 128.395 545.31 128.23C545.545 128.065 545.749 127.847 545.923 127.578C546.106 127.308 546.262 127.004 546.392 126.665C546.532 126.317 546.645 125.965 546.731 125.609C546.818 125.253 546.884 124.905 546.927 124.566C546.971 124.227 546.992 123.927 546.992 123.666C546.992 123.223 546.923 122.897 546.784 122.688C546.653 122.479 546.449 122.375 546.171 122.375C545.884 122.375 545.623 122.458 545.388 122.623C545.154 122.788 544.945 123.005 544.762 123.275C544.58 123.544 544.419 123.853 544.28 124.201C544.15 124.548 544.041 124.9 543.954 125.257C543.867 125.613 543.802 125.961 543.758 126.3C543.715 126.639 543.693 126.939 543.693 127.2C543.693 127.652 543.763 127.978 543.902 128.178C544.041 128.378 544.254 128.478 544.541 128.478ZM544.241 130.147C543.815 130.147 543.454 130.073 543.159 129.925C542.863 129.769 542.62 129.564 542.428 129.312C542.246 129.06 542.111 128.778 542.024 128.465C541.946 128.143 541.907 127.813 541.907 127.474C541.907 126.483 542.015 125.574 542.233 124.748C542.459 123.923 542.767 123.21 543.159 122.61C543.559 122.01 544.037 121.545 544.593 121.215C545.149 120.884 545.767 120.719 546.445 120.719C546.871 120.719 547.231 120.797 547.527 120.954C547.822 121.102 548.062 121.302 548.244 121.554C548.435 121.806 548.57 122.093 548.648 122.414C548.735 122.727 548.779 123.053 548.779 123.392C548.779 124.383 548.666 125.292 548.44 126.118C548.222 126.943 547.914 127.656 547.514 128.256C547.123 128.856 546.649 129.321 546.093 129.651C545.536 129.982 544.919 130.147 544.241 130.147Z" fill="black"/>
<path d="M56.5471 63.2678H421.669L377.476 98.6113V132.149H0L24.9994 115.233C40.7353 104.585 51.6298 88.154 55.3128 69.5146L56.5471 63.2678Z" fill="#006FA9"/>
<path fill-rule="evenodd" clip-rule="evenodd" d="M377.476 98.6113L421.669 63.2678H56.5471L55.3128 69.5146C51.6298 88.154 40.7353 104.585 24.9994 115.233L0 132.149H377.476V98.6113ZM375.045 129.717V97.4425L414.736 65.6991H58.5451L57.698 69.9859C53.8908 89.2541 42.6287 106.239 26.3619 117.246L7.93163 129.717H375.045Z" fill="#284273"/>
<path d="M62.7245 57.0905H436.083L415.081 73.8869C400.423 85.6096 391.89 103.36 391.89 122.129V125.971H18.532L33.842 116.341C51.817 105.035 62.7245 85.2877 62.7245 64.0523V57.0905Z" fill="#6BC4CB"/>
<path fill-rule="evenodd" clip-rule="evenodd" d="M429.15 59.5219H65.1558V64.0523C65.1558 86.1235 53.8191 106.648 35.1365 118.399L26.9636 123.54H389.459V122.129C389.459 102.622 398.328 84.1722 413.562 71.9882L429.15 59.5219ZM62.7245 57.0905V64.0523C62.7245 85.2877 51.817 105.035 33.842 116.341L18.532 125.971H391.89V122.129C391.89 103.36 400.423 85.6096 415.081 73.8869L436.083 57.0905H62.7245Z" fill="#284273"/>
<path d="M282.268 113.246C282.513 110.271 283.022 107.174 283.797 103.954C284.571 100.735 285.508 97.5762 286.609 94.4789C287.75 91.3816 289.013 88.4677 290.399 85.7372C291.784 82.9659 293.19 80.5818 294.617 78.5849H276.216V70.8213H305.865V77.4234C304.561 78.8498 303.114 80.8264 301.525 83.3531C299.976 85.8798 298.488 88.753 297.062 91.9725C295.676 95.1513 294.454 98.5747 293.394 102.243C292.375 105.91 291.744 109.578 291.499 113.246H282.268Z" fill="white"/>
<path fill-rule="evenodd" clip-rule="evenodd" d="M277.744 117.414L278.114 112.905C278.378 109.695 278.925 106.385 279.744 102.98C280.553 99.6187 281.531 96.3198 282.681 93.0836L282.689 93.0607L282.698 93.038C283.889 89.8044 285.214 86.7446 286.676 83.8622C286.864 83.4868 287.053 83.117 287.242 82.7529H272.048V66.6533H310.033V79.0416L308.941 80.2358C307.873 81.4044 306.58 83.146 305.066 85.5516C303.636 87.8874 302.237 90.582 300.878 93.6494C299.576 96.6382 298.416 99.8793 297.404 103.379C296.462 106.775 295.882 110.156 295.658 113.523L295.399 117.414H277.744ZM293.394 102.242C294.454 98.5746 295.676 95.1513 297.062 91.9725C298.488 88.753 299.976 85.8798 301.525 83.3531C303.114 80.8263 304.561 78.8498 305.865 77.4234V70.8213H276.216V78.5849H294.617C293.731 79.8249 292.853 81.2143 291.983 82.7529C291.452 83.692 290.924 84.6868 290.399 85.7372C289.013 88.4677 287.75 91.3816 286.609 94.4789C285.508 97.5762 284.571 100.735 283.797 103.954C283.377 105.698 283.036 107.406 282.772 109.078C282.548 110.493 282.38 111.882 282.268 113.246H291.499C291.744 109.578 292.375 105.91 293.394 102.242Z" fill="black"/>
<path d="M321.331 100.609C321.331 102.263 320.909 103.53 320.064 104.41C319.219 105.29 318.084 105.73 316.659 105.73C315.233 105.73 314.098 105.29 313.254 104.41C312.409 103.53 311.986 102.263 311.986 100.609C311.986 98.9545 312.409 97.6875 313.254 96.8075C314.098 95.9276 315.233 95.4877 316.659 95.4877C318.084 95.4877 319.219 95.9276 320.064 96.8075C320.909 97.6875 321.331 98.9545 321.331 100.609ZM318.348 100.609C318.348 99.7113 318.19 99.0601 317.873 98.6554C317.556 98.2506 317.152 98.0482 316.659 98.0482C316.148 98.0482 315.735 98.2506 315.418 98.6554C315.119 99.0601 314.969 99.7113 314.969 100.609C314.969 101.506 315.119 102.166 315.418 102.589C315.735 102.993 316.148 103.196 316.659 103.196C317.152 103.196 317.556 102.993 317.873 102.589C318.19 102.166 318.348 101.506 318.348 100.609ZM326.479 95.91H330.148L319.827 114.203H316.157L326.479 95.91ZM334.371 109.505C334.371 111.159 333.949 112.426 333.104 113.306C332.26 114.186 331.125 114.626 329.699 114.626C328.274 114.626 327.139 114.186 326.294 113.306C325.449 112.426 325.027 111.159 325.027 109.505C325.027 107.85 325.449 106.583 326.294 105.703C327.139 104.824 328.274 104.384 329.699 104.384C331.125 104.384 332.26 104.824 333.104 105.703C333.949 106.583 334.371 107.85 334.371 109.505ZM331.389 109.505C331.389 108.607 331.23 107.956 330.913 107.551C330.597 107.147 330.192 106.944 329.699 106.944C329.189 106.944 328.775 107.147 328.458 107.551C328.159 107.956 328.01 108.607 328.01 109.505C328.01 110.402 328.159 111.062 328.458 111.484C328.775 111.889 329.189 112.092 329.699 112.092C330.192 112.092 330.597 111.889 330.913 111.484C331.23 111.062 331.389 110.402 331.389 109.505Z" fill="white"/>
<path fill-rule="evenodd" clip-rule="evenodd" d="M320.696 97.6772C320.539 97.3861 320.352 97.1219 320.136 96.8844C320.112 96.8585 320.088 96.8328 320.064 96.8075C319.219 95.9276 318.084 95.4877 316.659 95.4877C315.233 95.4877 314.098 95.9276 313.254 96.8075C313.225 96.8368 313.198 96.8664 313.171 96.8965C313.153 96.916 313.136 96.9357 313.119 96.9556C312.364 97.8274 311.986 99.0451 311.986 100.609C311.986 102.156 312.356 103.364 313.095 104.234C313.124 104.269 313.154 104.303 313.185 104.336C313.207 104.361 313.23 104.386 313.254 104.41C313.998 105.185 314.968 105.619 316.163 105.711C316.324 105.724 316.489 105.73 316.659 105.73C318.084 105.73 319.219 105.29 320.064 104.41C320.084 104.39 320.103 104.369 320.122 104.348C320.135 104.334 320.148 104.319 320.161 104.305C320.941 103.43 321.331 102.198 321.331 100.609C321.331 99.4375 321.119 98.4603 320.696 97.6772ZM318.348 100.513C318.347 100.441 318.345 100.37 318.342 100.301C318.33 100.039 318.303 99.8005 318.26 99.5865C318.199 99.2773 318.105 99.0182 317.979 98.8093C317.946 98.7545 317.911 98.7032 317.873 98.6553C317.556 98.2506 317.152 98.0482 316.659 98.0482C316.148 98.0482 315.735 98.2506 315.418 98.6553C315.386 98.6995 315.355 98.7466 315.326 98.7966C315.205 99.0039 315.115 99.2616 315.056 99.5696C315.013 99.7933 314.986 100.044 314.975 100.32C314.974 100.351 314.973 100.382 314.972 100.413C314.97 100.477 314.969 100.542 314.969 100.609C314.969 100.717 314.972 100.822 314.976 100.923C314.988 101.2 315.016 101.452 315.061 101.678C315.119 101.972 315.204 102.222 315.318 102.428C315.349 102.485 315.383 102.538 315.418 102.589C315.735 102.993 316.148 103.196 316.659 103.196C317.152 103.196 317.556 102.993 317.873 102.589C317.913 102.535 317.951 102.477 317.987 102.415C318.105 102.208 318.195 101.957 318.255 101.661C318.299 101.445 318.328 101.206 318.34 100.942C318.342 100.902 318.344 100.861 318.345 100.819C318.347 100.75 318.348 100.68 318.348 100.609C318.348 100.577 318.348 100.545 318.348 100.513ZM317.103 99.9009C317.089 99.8291 317.073 99.7747 317.06 99.7358C317.055 99.7194 317.05 99.7059 317.046 99.6951C317.005 99.6837 316.92 99.6651 316.775 99.6583L317.103 99.9009ZM316.697 99.6559L317.119 99.9865C317.143 100.135 317.163 100.338 317.163 100.609C317.163 100.898 317.141 101.111 317.114 101.262L316.731 101.561C316.708 101.561 316.684 101.562 316.659 101.562C316.623 101.562 316.59 101.561 316.559 101.56L316.208 101.286C316.18 101.134 316.155 100.914 316.155 100.609C316.155 100.324 316.176 100.112 316.203 99.9626C316.221 99.8594 316.241 99.7852 316.257 99.7358C316.263 99.7194 316.268 99.7059 316.272 99.6951C316.317 99.6824 316.418 99.6608 316.594 99.6564C316.615 99.6559 316.636 99.6557 316.659 99.6557C316.672 99.6557 316.684 99.6558 316.697 99.6559ZM316.222 101.35C316.234 101.405 316.246 101.449 316.257 101.482C316.263 101.498 316.268 101.512 316.272 101.522C316.308 101.533 316.38 101.548 316.497 101.557L316.222 101.35ZM316.883 101.551C316.964 101.543 317.016 101.531 317.046 101.522C317.05 101.512 317.055 101.498 317.06 101.482C317.067 101.462 317.074 101.438 317.081 101.41L316.883 101.551ZM314.001 109.543C312.622 109.153 311.334 108.428 310.247 107.296C308.424 105.398 307.818 102.948 307.818 100.609C307.818 98.2696 308.424 95.8197 310.247 93.921C312.011 92.0837 314.306 91.3196 316.659 91.3196C318.94 91.3196 321.167 92.0378 322.908 93.7562L324.045 91.742H337.285L332.311 100.558C333.708 100.944 335.012 101.673 336.111 102.817C337.934 104.716 338.539 107.166 338.539 109.505C338.539 111.844 337.934 114.294 336.111 116.192C334.347 118.03 332.052 118.794 329.699 118.794C327.403 118.794 325.162 118.066 323.416 116.324L322.261 118.371H309.02L314.001 109.543ZM316.157 114.203H319.827L330.148 95.91H326.479L316.157 114.203ZM330.144 104.399C329.999 104.389 329.851 104.384 329.699 104.384C328.274 104.384 327.139 104.824 326.294 105.703C326.266 105.733 326.238 105.762 326.211 105.792C326.193 105.812 326.176 105.832 326.159 105.852C325.404 106.723 325.027 107.941 325.027 109.505C325.027 110.652 325.23 111.613 325.636 112.388C325.778 112.658 325.944 112.905 326.135 113.13C326.165 113.165 326.195 113.199 326.225 113.232C326.248 113.257 326.271 113.282 326.294 113.306C327.139 114.186 328.274 114.626 329.699 114.626C331.125 114.626 332.26 114.186 333.104 113.306C333.124 113.286 333.143 113.265 333.162 113.244C333.175 113.23 333.189 113.215 333.202 113.201C333.982 112.326 334.371 111.094 334.371 109.505C334.371 107.898 333.973 106.657 333.176 105.78C333.153 105.754 333.129 105.729 333.104 105.703C332.35 104.917 331.363 104.482 330.144 104.399ZM328.101 110.574C328.159 110.868 328.245 111.118 328.358 111.324C328.39 111.381 328.423 111.434 328.458 111.484C328.775 111.889 329.189 112.092 329.699 112.092C330.192 112.092 330.597 111.889 330.913 111.484C330.954 111.431 330.992 111.373 331.027 111.311C331.146 111.104 331.235 110.852 331.295 110.557C331.34 110.341 331.368 110.101 331.381 109.838C331.383 109.798 331.384 109.756 331.386 109.715C331.388 109.646 331.389 109.576 331.389 109.505C331.389 109.473 331.388 109.441 331.388 109.409C331.387 109.337 331.385 109.266 331.382 109.197C331.37 108.934 331.343 108.696 331.3 108.482C331.239 108.173 331.145 107.914 331.019 107.705C330.986 107.65 330.951 107.599 330.913 107.551C330.597 107.146 330.192 106.944 329.699 106.944C329.189 106.944 328.775 107.146 328.458 107.551C328.426 107.595 328.395 107.643 328.366 107.693C328.245 107.9 328.155 108.157 328.096 108.465C328.053 108.689 328.026 108.939 328.015 109.216C328.014 109.247 328.013 109.277 328.012 109.309C328.011 109.373 328.01 109.438 328.01 109.505C328.01 109.613 328.012 109.717 328.016 109.819C328.028 110.096 328.056 110.348 328.101 110.574ZM329.262 110.246C329.274 110.301 329.287 110.345 329.298 110.378C329.303 110.394 329.308 110.408 329.312 110.418C329.348 110.428 329.42 110.444 329.537 110.452L329.262 110.246ZM329.923 110.447C330.004 110.438 330.057 110.427 330.086 110.418C330.09 110.408 330.095 110.394 330.101 110.378C330.107 110.358 330.114 110.334 330.122 110.306L329.923 110.447ZM330.159 108.882C330.184 109.031 330.203 109.234 330.203 109.505C330.203 109.794 330.181 110.007 330.154 110.157L329.772 110.457C329.749 110.457 329.725 110.458 329.699 110.458C329.663 110.458 329.63 110.457 329.599 110.456L329.249 110.182C329.22 110.03 329.195 109.81 329.195 109.505C329.195 109.219 329.217 109.008 329.243 108.859C329.261 108.755 329.281 108.681 329.298 108.632C329.303 108.615 329.308 108.602 329.312 108.591C329.357 108.578 329.458 108.557 329.634 108.552C329.655 108.552 329.676 108.552 329.699 108.552C329.712 108.552 329.725 108.552 329.737 108.552L330.159 108.882ZM330.144 108.797L329.815 108.554C329.96 108.561 330.046 108.58 330.086 108.591C330.09 108.602 330.095 108.615 330.101 108.632C330.114 108.671 330.129 108.725 330.144 108.797Z" fill="black"/>
<path d="M80.6421 94.0877V97.6997H106.402V94.0877H80.6421Z" fill="black"/>
<path d="M118.694 90.8677C119.31 91.9597 119.814 93.4437 119.954 94.3957L122.054 93.5557C121.886 92.5757 121.298 91.1477 120.626 90.0837L118.694 90.8677ZM118.414 89.4397H122.39V94.8437C121.018 94.9837 119.674 95.1237 118.414 95.2357V89.4397ZM126.338 96.9717L126.254 94.4237L125.078 94.5637V86.8637H121.41C121.802 85.9117 122.25 84.7637 122.67 83.6157L119.114 83.0557C119.002 84.1757 118.666 85.6597 118.358 86.8637H115.81V95.4877L113.85 95.6557L114.186 98.3157L115.81 98.1477C115.754 101.34 115.474 105.092 113.85 107.752C114.494 108.032 115.614 108.76 116.09 109.208C117.966 106.212 118.358 101.536 118.414 97.8397L122.39 97.4197V106.212C122.39 106.548 122.306 106.66 121.97 106.66C121.69 106.66 120.766 106.66 119.87 106.632C120.206 107.332 120.57 108.508 120.654 109.236C122.25 109.236 123.286 109.18 124.07 108.732C124.882 108.256 125.078 107.528 125.078 106.268V97.1117L126.338 96.9717ZM121.242 98.2037H119.338V104.588H121.242V98.2037ZM135.13 97.8117C134.542 99.3517 133.702 100.724 132.666 101.9C131.686 100.696 130.93 99.3237 130.37 97.8117H135.13ZM137.006 94.7877L136.474 94.8997H128.074C130.37 93.1077 130.818 90.1957 130.818 87.8157V86.9757H133.786V90.3077C133.786 92.0437 133.982 92.6597 134.43 93.1077C134.878 93.5837 135.634 93.8077 136.306 93.8077H137.762C138.266 93.8077 138.882 93.6957 139.274 93.4717C139.694 93.2757 140.03 92.8837 140.226 92.3517C140.422 91.8477 140.534 90.6157 140.618 89.4677C139.806 89.2157 138.77 88.6837 138.238 88.2357C138.21 89.2997 138.182 90.1677 138.126 90.5597C138.07 90.9237 138.014 91.0917 137.902 91.1477C137.818 91.2317 137.678 91.2597 137.538 91.2597H137.09C136.978 91.2597 136.866 91.2317 136.81 91.1197C136.754 91.0357 136.782 90.7557 136.782 90.2797V84.0917H127.878V87.7597C127.878 89.4677 127.682 91.5117 125.694 93.0517C126.31 93.4157 127.514 94.3957 128.018 94.8997H126.842V97.8117H130.258L127.682 98.3997C128.41 100.5 129.362 102.32 130.538 103.888C129.054 105.036 127.29 105.904 125.358 106.464C125.974 107.136 126.758 108.424 127.122 109.236C129.222 108.48 131.126 107.5 132.75 106.212C134.346 107.556 136.278 108.564 138.602 109.208C139.05 108.368 139.89 107.108 140.59 106.464C138.406 105.988 136.558 105.148 135.018 104.056C136.894 101.872 138.294 99.0437 139.106 95.4877L137.006 94.7877Z" fill="black"/>
<path d="M170.186 83.7277C169.626 85.4077 168.562 87.6477 167.722 89.0757L170.606 90.1397C171.474 88.8237 172.538 86.8357 173.434 84.8757L170.186 83.7277ZM151.258 109.096C152.77 106.268 154.31 103.048 155.598 100.052L153.134 98.0357C151.622 101.312 149.718 104.84 148.318 106.968L151.258 109.096ZM154.562 93.8917C153.442 92.8557 151.174 91.5117 149.438 90.6997L147.562 93.0517C149.326 93.9757 151.538 95.4317 152.574 96.4957L154.562 93.8917ZM148.85 85.6597C150.558 86.5837 152.742 88.0397 153.722 89.1037L155.794 86.5277C154.702 85.4637 152.518 84.1197 150.782 83.3357L148.85 85.6597ZM161.87 88.9637C161.45 87.5077 160.246 85.4637 159.126 83.9237L156.326 85.1557C157.418 86.7797 158.51 88.9637 158.846 90.3357L161.87 88.9637ZM160.47 100.92V98.8197H168.954V100.92H160.47ZM168.954 93.9757V96.0197H160.47V93.9757H168.954ZM172.202 90.8677H166.49V83.0837H163.13V90.8677H157.194V109.18H160.47V103.72H168.954V105.568C168.954 105.932 168.814 106.072 168.394 106.1C167.946 106.1 166.49 106.1 165.202 106.016C165.65 106.884 166.098 108.256 166.21 109.152C168.31 109.152 169.822 109.124 170.858 108.592C171.922 108.088 172.202 107.22 172.202 105.596V90.8677Z" fill="black"/>
<path d="M188.414 101.928H200.454V103.076H188.414V101.928ZM195.806 92.3797V94.2277H190.71C191.326 93.6677 191.774 93.0517 192.082 92.3797H195.806ZM186.79 89.3277H189.646C189.646 89.7197 189.59 90.0837 189.478 90.4197H186.426L186.79 89.3277ZM192.698 86.2757H195.806V87.3957H192.698V86.2757ZM201.882 86.2757V87.3957H198.97V86.2757H201.882ZM195.806 90.4197H192.614C192.642 90.0557 192.67 89.6917 192.698 89.3277H195.806V90.4197ZM203.45 92.3797C203.394 92.7997 203.31 93.0517 203.198 93.1917C203.03 93.3877 202.862 93.3877 202.61 93.3877C202.302 93.4157 201.714 93.3877 201.07 93.3037C201.182 93.5557 201.322 93.8917 201.406 94.2277H198.97V92.3797H203.45ZM200.454 97.2237H188.414V96.1317H200.454V97.2237ZM200.454 100.136H188.414V99.0157H200.454V100.136ZM203.842 104.98V95.3197C204.01 95.3197 204.15 95.2917 204.262 95.2917C204.85 95.2637 205.466 95.0397 205.886 94.6197C206.362 94.1157 206.53 93.1077 206.67 91.2877C206.698 90.9797 206.726 90.4197 206.726 90.4197H198.97V89.3277H204.906V84.3157H198.97V83.1117H195.806V84.3157H192.698V83.1117H189.674V84.3157H183.318V86.2757H189.674V87.3957H184.354C183.878 89.0477 183.206 91.0637 182.59 92.4357L185.614 92.6317L185.698 92.3797H188.162C187.014 93.3037 184.998 94.0037 181.526 94.4517C182.03 95.0677 182.814 96.3277 183.094 97.0277C183.85 96.9157 184.522 96.8037 185.166 96.6637V104.98H188.974C187.014 105.792 184.158 106.492 181.554 106.94C182.254 107.5 183.43 108.676 183.962 109.32C186.818 108.62 190.374 107.36 192.698 105.988L190.486 104.98H197.962L195.834 106.296C198.746 107.248 201.658 108.424 203.31 109.264L207.006 107.668C205.242 106.912 202.302 105.848 199.614 104.98H203.842Z" fill="black"/>
<path d="M233.774 87.2557H221.902V86.1077H233.774V87.2557ZM233.774 90.4477H221.902V89.2717H233.774V90.4477ZM237.106 83.9797H218.71V92.5757H237.106V83.9797ZM235.51 99.8277C235.006 100.836 234.362 101.76 233.606 102.572C232.85 101.76 232.206 100.836 231.73 99.8277H235.51ZM220.67 103.16H224.31V104.252C223.078 104.364 221.846 104.448 220.67 104.532V103.16ZM220.67 99.6877H224.31V100.864H220.67V99.6877ZM224.31 96.2437V97.3637H220.67V96.2437H224.31ZM237.47 97.1677L236.91 97.2797H228.202V99.8277H230.778L228.93 100.332C229.602 101.872 230.47 103.272 231.478 104.476C230.302 105.344 228.93 106.016 227.502 106.492V96.2437H240.326V93.6117H215.434V96.2437H217.618V104.756C216.75 104.84 215.91 104.868 215.182 104.924L215.434 107.78C217.898 107.556 221.09 107.276 224.31 106.968V109.236H227.502V106.968C228.062 107.64 228.678 108.564 228.986 109.208C230.722 108.564 232.318 107.696 233.746 106.604C235.23 107.752 236.966 108.62 238.954 109.208C239.402 108.424 240.27 107.22 240.914 106.604C239.066 106.156 237.386 105.456 235.986 104.532C237.554 102.768 238.758 100.584 239.514 97.9517L237.47 97.1677Z" fill="black"/>
<path d="M263.874 104.7H259.03V102.88H263.874V104.7ZM272.834 96.6357H250.378V109.236H253.626V99.4077H269.474V105.652C269.474 105.988 269.362 106.072 268.942 106.1C268.634 106.128 267.766 106.128 266.814 106.1V100.668H256.118V108.2H259.03V106.94H266.254C266.562 107.668 266.814 108.536 266.898 109.18C268.914 109.18 270.398 109.152 271.434 108.648C272.526 108.144 272.834 107.248 272.834 105.708V96.6357ZM265.75 93.2197H257.014V91.5117H265.75V93.2197ZM253.85 89.2997V95.4597H269.138V89.2997H253.85ZM263.006 85.4077V83.0557H259.618V85.4077H249.258V88.2357H273.73V85.4077H263.006Z" fill="black"/>
<path d="M401.583 40.0817H765.255L759.013 44.7083C740.327 58.5601 731.006 81.7345 734.897 104.667L735.932 110.769H356.817L401.583 85.3039V40.0817Z" fill="#F04928"/>
<path fill-rule="evenodd" clip-rule="evenodd" d="M401.583 85.3039L356.817 110.769H735.932L734.897 104.667C731.006 81.7345 740.327 58.5601 759.013 44.7083L765.255 40.0817H401.583V85.3039ZM404.014 42.513V86.7181L366.008 108.337H733.053L732.5 105.074C728.455 81.2386 738.143 57.152 757.565 42.7551L757.892 42.513H404.014Z" fill="black"/>
<path d="M393.109 32.5481H772.224L759.182 39.3526C735.873 51.5139 723.06 77.3145 727.458 103.235H348.343L353.801 100.13C378.101 86.3076 393.109 60.5039 393.109 32.5481Z" fill="#FFC232"/>
<path fill-rule="evenodd" clip-rule="evenodd" d="M727.096 100.804C727.2 101.614 727.321 102.424 727.458 103.235H348.343L353.801 100.13C378.101 86.3076 393.109 60.5039 393.109 32.5481H772.224L759.182 39.3526C736.602 51.1335 723.872 75.714 727.096 100.804ZM724.645 100.804C721.436 74.8151 734.664 49.402 758.058 37.197L762.308 34.9794H395.504C394.689 61.9281 380.372 86.6678 357.434 100.804H724.645Z" fill="black"/>
<path d="M603.85 56.7376C605.032 56.2485 606.255 55.6984 607.518 55.0871C608.822 54.435 610.085 53.7422 611.308 53.0086C612.531 52.2343 613.692 51.4396 614.792 50.6245C615.934 49.7687 616.952 48.8721 617.849 47.9348H624.207V90.2984H615.098V59.7941C613.875 60.6092 612.51 61.3631 611.002 62.056C609.494 62.708 608.027 63.2786 606.601 63.7676L603.85 56.7376Z" fill="white"/>
<path d="M656.322 77.8277C656.322 76.6458 656.057 75.6066 655.528 74.71C654.998 73.7727 654.081 72.9984 652.777 72.3871C651.473 71.7758 649.72 71.3071 647.519 70.9811C645.319 70.655 642.547 70.492 639.206 70.492C639.654 66.7019 640.021 62.8507 640.306 58.9383C640.591 55.0259 640.815 51.3581 640.978 47.9348H663.902V55.5761H648.62C648.538 57.0432 648.436 58.4696 648.314 59.8553C648.233 61.2001 648.131 62.382 648.008 63.4008C653.958 63.8084 658.34 65.2144 661.152 67.6189C664.004 69.9826 665.431 73.2837 665.431 77.5221C665.431 79.4782 665.084 81.2918 664.391 82.9627C663.699 84.6336 662.659 86.0804 661.274 87.303C659.888 88.5256 658.136 89.4833 656.017 90.1761C653.938 90.8689 651.493 91.2153 648.681 91.2153C647.581 91.2153 646.419 91.1338 645.196 90.9708C644.015 90.8486 642.853 90.6652 641.712 90.4206C640.612 90.2169 639.613 89.9927 638.717 89.7482C637.82 89.5037 637.127 89.2592 636.638 89.0146L638.289 81.4956C639.307 81.9438 640.652 82.3921 642.323 82.8404C643.994 83.248 645.991 83.4517 648.314 83.4517C651.126 83.4517 653.164 82.9016 654.427 81.8012C655.691 80.6601 656.322 79.3356 656.322 77.8277Z" fill="white"/>
<path fill-rule="evenodd" clip-rule="evenodd" d="M598.479 54.4494L602.256 52.8863C603.349 52.4341 604.489 51.9216 605.678 51.347C606.865 50.7528 608.012 50.1238 609.121 49.4603C610.243 48.7483 611.303 48.0222 612.301 47.2827C613.274 46.5528 614.115 45.8083 614.837 45.0537L616.068 43.7667H628.375V94.4664H610.93V66.6014C609.925 67.0045 608.933 67.3743 607.953 67.7103L604.175 69.0056L598.479 54.4494ZM610.93 62.0871C610.954 62.0768 610.978 62.0664 611.002 62.0559C612.51 61.3631 613.875 60.6092 615.098 59.7941V90.2984H624.207V47.9347H617.849C616.952 48.8721 615.934 49.7687 614.792 50.6245C613.692 51.4396 612.531 52.2343 611.308 53.0086C610.085 53.7422 608.822 54.435 607.518 55.087C606.254 55.6983 605.032 56.2485 603.85 56.7376L606.601 63.7676C608.004 63.2864 609.448 62.7262 610.93 62.0871ZM651.919 76.7959L651.899 76.7615C651.883 76.7361 651.706 76.4882 651.008 76.161C650.213 75.7886 648.901 75.3993 646.909 75.104C644.983 74.8188 642.434 74.66 639.206 74.66H634.516L635.066 70.0024C635.507 66.276 635.868 62.487 636.149 58.6352C636.432 54.7528 636.654 51.1203 636.815 47.7365L637.004 43.7667H668.07V59.7441H652.639C657.103 60.4957 660.942 61.966 663.835 64.4298C667.771 67.7034 669.599 72.2538 669.599 77.522C669.599 79.9811 669.161 82.3421 668.242 84.5591C667.3 86.8291 665.882 88.7952 664.031 90.4283C662.145 92.093 659.868 93.3008 657.323 94.1341C654.721 94.9995 651.816 95.3833 648.681 95.3833C647.395 95.3833 646.069 95.2896 644.707 95.1103C643.419 94.975 642.148 94.7746 640.896 94.5084C639.726 94.2903 638.631 94.0452 637.62 93.7693C636.615 93.4952 635.62 93.1656 634.774 92.7426L631.871 91.2911L635.309 75.6308L639.967 77.6805C640.709 78.0069 641.815 78.3869 643.355 78.8017C644.606 79.1021 646.24 79.2837 648.314 79.2837C650.663 79.2837 651.494 78.8122 651.672 78.6725C652.147 78.2315 652.154 77.9935 652.154 77.8277C652.154 77.2891 652.04 77.0019 651.939 76.8304L651.919 76.7959ZM654.427 81.8012C653.164 82.9015 651.126 83.4517 648.314 83.4517C645.991 83.4517 643.994 83.2479 642.323 82.8404C642.304 82.8351 642.284 82.8298 642.264 82.8245C640.621 82.3815 639.295 81.9385 638.289 81.4955L636.638 89.0146C637.127 89.2591 637.82 89.5037 638.717 89.7482C639.613 89.9927 640.612 90.2169 641.712 90.4206C642.853 90.6651 644.015 90.8485 645.196 90.9708C646.419 91.1338 647.58 91.2153 648.681 91.2153C651.493 91.2153 653.938 90.8689 656.017 90.1761C658.136 89.4833 659.888 88.5256 661.274 87.303C662.659 86.0803 663.699 84.6336 664.391 82.9627C665.084 81.2918 665.431 79.4782 665.431 77.522C665.431 73.2836 664.004 69.9826 661.152 67.6188C659.037 65.811 656.036 64.5676 652.148 63.8886C650.865 63.6645 649.485 63.5019 648.008 63.4008C648.131 62.382 648.233 61.2001 648.314 59.8552C648.332 59.6536 648.349 59.451 648.366 59.2476C648.466 58.0535 648.55 56.8297 648.62 55.5761H663.902V47.9347H640.978C640.815 51.3581 640.591 55.0259 640.306 58.9383C640.125 61.4252 639.91 63.8874 639.663 66.325C639.521 67.7221 639.369 69.1111 639.206 70.492C640.717 70.492 642.112 70.5254 643.39 70.5921C644.938 70.6728 646.314 70.8025 647.519 70.981C649.72 71.3071 651.472 71.7757 652.777 72.387C654.081 72.9984 654.998 73.7727 655.528 74.71C656.057 75.6066 656.322 76.6458 656.322 77.8277C656.322 79.3356 655.691 80.6601 654.427 81.8012Z" fill="black"/>
<path d="M680.625 77.6611C680.625 79.3154 680.202 80.5824 679.358 81.4624C678.513 82.3423 677.378 82.7822 675.952 82.7822C674.527 82.7822 673.392 82.3423 672.547 81.4624C671.702 80.5824 671.28 79.3154 671.28 77.6611C671.28 76.0069 671.702 74.7398 672.547 73.8599C673.392 72.98 674.527 72.54 675.952 72.54C677.378 72.54 678.513 72.98 679.358 73.8599C680.202 74.7398 680.625 76.0069 680.625 77.6611ZM677.642 77.6611C677.642 76.7636 677.483 76.1125 677.167 75.7077C676.85 75.303 676.445 75.1006 675.952 75.1006C675.442 75.1006 675.028 75.303 674.712 75.7077C674.413 76.1125 674.263 76.7636 674.263 77.6611C674.263 78.5586 674.413 79.2186 674.712 79.6409C675.028 80.0457 675.442 80.2481 675.952 80.2481C676.445 80.2481 676.85 80.0457 677.167 79.6409C677.483 79.2186 677.642 78.5586 677.642 77.6611ZM685.772 72.9624H689.441L679.12 91.2558H675.451L685.772 72.9624ZM693.665 86.5571C693.665 88.2113 693.243 89.4784 692.398 90.3583C691.553 91.2382 690.418 91.6782 688.993 91.6782C687.567 91.6782 686.432 91.2382 685.587 90.3583C684.743 89.4784 684.32 88.2113 684.32 86.5571C684.32 84.9028 684.743 83.6357 685.587 82.7558C686.432 81.8759 687.567 81.436 688.993 81.436C690.418 81.436 691.553 81.8759 692.398 82.7558C693.243 83.6357 693.665 84.9028 693.665 86.5571ZM690.682 86.5571C690.682 85.6595 690.524 85.0084 690.207 84.6036C689.89 84.1989 689.485 83.9965 688.993 83.9965C688.482 83.9965 688.069 84.1989 687.752 84.6036C687.453 85.0084 687.303 85.6595 687.303 86.5571C687.303 87.4546 687.453 88.1145 687.752 88.5369C688.069 88.9416 688.482 89.144 688.993 89.144C689.485 89.144 689.89 88.9416 690.207 88.5369C690.524 88.1145 690.682 87.4546 690.682 86.5571Z" fill="white"/>
<path fill-rule="evenodd" clip-rule="evenodd" d="M679.989 74.7296C679.832 74.4385 679.645 74.1742 679.429 73.9368C679.406 73.9108 679.382 73.8852 679.358 73.8599C678.513 72.98 677.378 72.54 675.952 72.54C674.527 72.54 673.392 72.98 672.547 73.8599C672.519 73.8891 672.491 73.9188 672.464 73.9489C672.447 73.9684 672.429 73.9881 672.412 74.008C671.657 74.8798 671.28 76.0975 671.28 77.6611C671.28 79.2083 671.649 80.4168 672.388 81.2866C672.418 81.3212 672.448 81.3553 672.478 81.3888C672.501 81.4136 672.524 81.4381 672.547 81.4623C673.291 82.2377 674.261 82.6715 675.457 82.7636C675.618 82.776 675.783 82.7822 675.952 82.7822C677.378 82.7822 678.513 82.3423 679.358 81.4623C679.377 81.442 679.396 81.4215 679.415 81.4008C679.429 81.3864 679.442 81.3718 679.455 81.3572C680.235 80.4826 680.625 79.2506 680.625 77.6611C680.625 76.4898 680.413 75.5126 679.989 74.7296ZM677.641 77.5659C677.64 77.4932 677.638 77.4223 677.635 77.353C677.623 77.0909 677.596 76.8529 677.554 76.6389C677.492 76.3297 677.398 76.0706 677.272 75.8617C677.239 75.8069 677.204 75.7556 677.167 75.7077C676.85 75.3029 676.445 75.1006 675.952 75.1006C675.442 75.1006 675.028 75.3029 674.712 75.7077C674.679 75.7519 674.648 75.799 674.619 75.849C674.499 76.0563 674.409 76.3139 674.349 76.6219C674.306 76.8456 674.279 77.0959 674.268 77.3727C674.267 77.4032 674.266 77.4339 674.265 77.465C674.264 77.529 674.263 77.5944 674.263 77.6611C674.263 77.7692 674.265 77.8739 674.269 77.9751C674.281 78.2528 674.31 78.5045 674.354 78.7303C674.412 79.0244 674.498 79.2745 674.611 79.4805C674.643 79.5373 674.676 79.5908 674.712 79.6409C675.028 80.0457 675.442 80.2481 675.952 80.2481C676.445 80.2481 676.85 80.0457 677.167 79.6409C677.207 79.5871 677.245 79.5294 677.28 79.4679C677.399 79.2603 677.488 79.0089 677.549 78.7137C677.593 78.4975 677.621 78.2579 677.634 77.9947C677.636 77.9541 677.638 77.9129 677.639 77.8712C677.641 77.8027 677.642 77.7327 677.642 77.6611C677.642 77.629 677.642 77.5973 677.641 77.5659ZM676.397 76.9532C676.382 76.8814 676.367 76.8271 676.354 76.7882C676.348 76.7717 676.343 76.7583 676.339 76.7474C676.299 76.7361 676.213 76.7175 676.069 76.7107L676.397 76.9532ZM675.99 76.7083L676.413 77.0388C676.437 77.187 676.457 77.3907 676.457 77.6611C676.457 77.9506 676.434 78.1636 676.407 78.3139L676.025 78.6132C676.002 78.6138 675.978 78.6142 675.952 78.6142C675.916 78.6142 675.883 78.6135 675.852 78.6123L675.502 78.338C675.473 78.1868 675.448 77.9664 675.448 77.6611C675.448 77.3759 675.47 77.1649 675.496 77.015C675.514 76.9118 675.534 76.8376 675.551 76.7882C675.556 76.7717 675.561 76.7583 675.566 76.7474C675.61 76.7348 675.711 76.7132 675.887 76.7088C675.908 76.7083 675.93 76.708 675.952 76.708C675.965 76.708 675.978 76.7081 675.99 76.7083ZM675.515 78.4022C675.528 78.4578 675.54 78.5014 675.551 78.5341C675.556 78.5505 675.561 78.564 675.566 78.5748C675.602 78.5849 675.673 78.6008 675.791 78.6089L675.515 78.4022ZM676.176 78.6035C676.258 78.5949 676.31 78.583 676.339 78.5748C676.343 78.564 676.348 78.5505 676.354 78.5341C676.36 78.5143 676.368 78.4907 676.375 78.4628L676.176 78.6035ZM673.295 86.5949C671.916 86.2054 670.627 85.4808 669.54 84.3488C667.718 82.4502 667.112 80.0002 667.112 77.6611C667.112 75.322 667.718 72.872 669.54 70.9734C671.304 69.136 673.6 68.372 675.952 68.372C678.233 68.372 680.461 69.0902 682.202 70.8085L683.338 68.7944H696.579L691.605 77.6105C693.001 77.9969 694.306 78.7249 695.405 79.8693C697.227 81.768 697.833 84.2179 697.833 86.557C697.833 88.8961 697.227 91.3461 695.405 93.2447C693.641 95.0821 691.345 95.8461 688.993 95.8461C686.697 95.8461 684.455 95.1186 682.709 93.376L681.554 95.4238H668.313L673.295 86.5949ZM675.451 91.2558H679.12L689.441 72.9624H685.772L675.451 91.2558ZM689.438 81.4509C689.293 81.4409 689.144 81.4359 688.993 81.4359C687.567 81.4359 686.432 81.8759 685.587 82.7558C685.559 82.785 685.532 82.8147 685.505 82.8448C685.487 82.8643 685.47 82.884 685.452 82.9039C684.698 83.7757 684.32 84.9934 684.32 86.557C684.32 87.7044 684.524 88.6656 684.93 89.4405C685.072 89.7104 685.238 89.9578 685.429 90.1825C685.458 90.2171 685.488 90.2512 685.519 90.2847C685.541 90.3095 685.564 90.334 685.587 90.3583C686.432 91.2382 687.567 91.6781 688.993 91.6781C690.418 91.6781 691.553 91.2382 692.398 90.3583C692.417 90.338 692.437 90.3175 692.456 90.2967C692.469 90.2823 692.482 90.2677 692.495 90.2531C693.275 89.3785 693.665 88.1465 693.665 86.557C693.665 84.9504 693.267 83.7089 692.47 82.8327C692.446 82.8068 692.422 82.7811 692.398 82.7558C691.643 81.9695 690.656 81.5345 689.438 81.4509ZM687.394 87.6262C687.453 87.9203 687.538 88.1704 687.652 88.3764C687.683 88.4333 687.716 88.4867 687.752 88.5368C688.069 88.9416 688.482 89.144 688.993 89.144C689.485 89.144 689.89 88.9416 690.207 88.5368C690.247 88.483 690.285 88.4253 690.32 88.3638C690.439 88.1563 690.529 87.9049 690.589 87.6096C690.633 87.3935 690.661 87.1538 690.674 86.8906C690.676 86.85 690.678 86.8089 690.679 86.7671C690.681 86.6986 690.682 86.6286 690.682 86.557C690.682 86.525 690.682 86.4932 690.681 86.4618C690.681 86.3891 690.679 86.3182 690.675 86.2489C690.664 85.9868 690.637 85.7488 690.594 85.5348C690.532 85.2256 690.439 84.9665 690.313 84.7576C690.28 84.7028 690.244 84.6515 690.207 84.6036C689.89 84.1989 689.485 83.9965 688.993 83.9965C688.482 83.9965 688.069 84.1989 687.752 84.6036C687.719 84.6478 687.688 84.6949 687.659 84.7449C687.539 84.9522 687.449 85.2099 687.39 85.5179C687.347 85.7416 687.32 85.9918 687.309 86.2687C687.308 86.2991 687.307 86.3298 687.306 86.3609C687.304 86.4249 687.303 86.4903 687.303 86.557C687.303 86.6651 687.305 86.7698 687.31 86.871C687.322 87.1487 687.35 87.4004 687.394 87.6262ZM688.555 87.2982C688.568 87.3538 688.58 87.3973 688.591 87.43C688.597 87.4464 688.602 87.4599 688.606 87.4707C688.642 87.4808 688.713 87.4967 688.831 87.5049L688.555 87.2982ZM689.217 87.4994C689.298 87.4909 689.35 87.4789 689.379 87.4707C689.384 87.4599 689.389 87.4464 689.394 87.43C689.401 87.4103 689.408 87.3866 689.415 87.3587L689.217 87.4994ZM689.453 85.9348C689.477 86.0829 689.497 86.2866 689.497 86.557C689.497 86.8465 689.474 87.0596 689.448 87.2098L689.065 87.5091C689.042 87.5098 689.018 87.5101 688.993 87.5101C688.957 87.5101 688.923 87.5094 688.893 87.5082L688.542 87.2339C688.513 87.0827 688.488 86.8623 688.488 86.557C688.488 86.2718 688.51 86.0608 688.537 85.9109C688.555 85.8077 688.575 85.7335 688.591 85.6841C688.597 85.6677 688.602 85.6542 688.606 85.6434C688.651 85.6307 688.752 85.6091 688.928 85.6047C688.948 85.6042 688.97 85.604 688.993 85.604C689.006 85.604 689.018 85.604 689.031 85.6042L689.453 85.9348ZM689.437 85.8491L689.109 85.6066C689.254 85.6134 689.339 85.632 689.379 85.6434C689.384 85.6542 689.389 85.6677 689.394 85.6841C689.407 85.723 689.422 85.7773 689.437 85.8491Z" fill="black"/>
<path d="M408.931 73.3349C408.8 75.5255 408.54 77.8466 407.888 79.3852C408.461 79.5939 409.505 80.0633 410 80.3762C410.626 78.7333 411.069 76.1514 411.278 73.7L408.931 73.3349ZM413.964 73.8825C414.46 75.4212 414.981 77.4032 415.138 78.7333L417.302 78.003C417.094 76.6991 416.546 74.7692 416.024 73.2566L413.964 73.8825ZM412.165 69.2665C412.53 68.7189 412.921 68.1451 413.286 67.5453C413.521 68.0669 413.755 68.6145 413.99 69.1622L412.165 69.2665ZM421.996 69.3187H424.135V66.6325H421.996V64.3376H424.396V61.5993H421.996V58.3915H419.31V61.5993H416.781V64.3376H419.31V66.6325H417.12V69.3187H419.31V69.736C419.31 70.414 419.31 71.0921 419.284 71.7701H417.224C416.937 70.2836 416.103 68.1973 415.242 66.5282L413.521 67.1802C414.564 65.5633 415.607 63.816 416.494 62.2773L414.068 61.2341C413.599 62.3816 412.947 63.7117 412.243 65.0417C412.034 64.7548 411.8 64.4419 411.539 64.155C412.295 62.6946 413.182 60.6865 413.964 58.9392L411.356 58.1046C411.043 59.3825 410.496 60.9734 409.922 62.3556C409.739 62.173 409.583 61.9904 409.4 61.834L408.122 64.0246C409.087 65.0417 410.157 66.3457 410.861 67.4671C410.443 68.1451 410.052 68.7971 409.661 69.3708L407.966 69.4491L408.227 72.1613C409.192 72.0831 410.261 72.0048 411.382 71.9005V82.4365H413.938V71.6658L414.799 71.5876C414.929 72.0831 415.033 72.5525 415.085 72.9698L416.755 72.2656V74.4824H419.023C418.658 76.8816 417.824 79.0462 415.946 80.7935C416.598 81.1847 417.693 82.0453 418.241 82.6451C420.484 80.4284 421.423 77.6119 421.762 74.4824H424.448V71.7701H421.97C421.996 71.0921 421.996 70.414 421.996 69.736V69.3187ZM430.42 59.3825L430.029 59.4868H424.813V82.4104H427.577V62.0426H429.325C429.038 63.9725 428.647 66.137 428.203 68.432C429.429 70.9878 429.872 72.5003 429.872 73.9086C429.872 74.8475 429.742 75.682 429.455 75.9428C429.377 76.0993 429.168 76.1514 428.96 76.1514C428.725 76.1514 428.386 76.1514 428.125 76.1253C428.542 76.8556 428.699 77.977 428.699 78.7333C429.22 78.7593 429.69 78.7593 430.055 78.6811C430.603 78.5768 431.02 78.4203 431.385 78.1074C432.167 77.3771 432.559 75.9428 432.559 74.0129C432.559 72.4482 431.985 70.6487 430.681 68.093C431.385 65.2764 431.985 62.6163 432.454 60.4257L430.42 59.3825Z" fill="black"/>
<path d="M463.514 70.3358V67.2584H452.77V64.2333H460.724V61.2341H452.77V58.0786H449.458V67.2584H439.913V70.3358H449.458V82.4104H452.77V74.5084C455.378 75.4212 458.612 76.673 460.307 77.5858L461.95 74.7692C459.942 73.7782 455.978 72.4482 453.37 71.6658L452.77 72.6307V70.3358H463.514Z" fill="black"/>
<path d="M490.037 76.5948V79.0462H483.569V76.5948H490.037ZM480.779 82.4365H483.569V81.4976H490.037V82.3322H492.958V74.1433H480.779V82.4365ZM483.961 70.1271C485.082 69.084 486.047 67.9886 486.699 66.9716C487.429 68.0147 488.472 69.1101 489.62 70.1271H483.961ZM485.186 64.3115C485.082 64.468 484.978 64.6505 484.873 64.8331V63.0858H488.837V65.1721H491.758V63.0858H494.809V60.4518H491.758V58.1046H488.837V60.4518H484.873V58.1046H482.005V60.4518H479.11V63.0858H482.005V65.0939H484.691C483.439 66.9194 481.405 68.8753 479.214 70.2054L478.979 68.5624L477.076 69.084V65.8502H479.084V63.0075H477.076V58.1046H474.103V63.0075H471.077V65.8502H474.103V69.8924C472.773 70.2575 471.547 70.5705 470.556 70.7791L471.208 73.7782C472.095 73.5174 473.086 73.2306 474.103 72.9437V78.9158C474.103 79.307 473.972 79.4113 473.659 79.4113C473.32 79.4374 472.251 79.4374 471.234 79.3852C471.625 80.2458 472.016 81.5759 472.095 82.4104C473.894 82.4104 475.12 82.3061 475.98 81.7845C476.815 81.3151 477.076 80.4806 477.076 78.9419V72.0309L478.406 71.6136C478.797 72.1874 479.136 72.8915 479.345 73.387C480.544 72.7872 481.692 72.0309 482.761 71.1703V72.5786H490.845V71.1181C491.836 71.9005 492.88 72.5525 493.897 73.0741C494.314 72.1874 494.914 71.066 495.514 70.3619C492.697 69.2665 489.88 66.9455 488.003 64.3115H485.186Z" fill="black"/>
<path d="M508.032 72.2656V70.6748H512.569V72.2656H508.032ZM508.032 66.7629H512.569V68.3538H508.032V66.7629ZM520.315 66.7629V68.3538H515.751V66.7629H520.315ZM520.315 72.2656H515.751V70.6748H520.315V72.2656ZM526.157 76.1514H515.751V74.7431H523.444V64.2854H515.751V63.0336H525.4V60.2171H515.751V58.1046H512.569V60.2171H503.103V63.0336H512.569V64.2854H505.059V74.7431H512.569V76.1514H502.477V78.9419H512.569V82.4626H515.751V78.9419H526.157V76.1514Z" fill="black"/>
<path d="M551.036 61.9644H539.979V60.8951H551.036V61.9644ZM551.036 64.9374H539.979V63.8421H551.036V64.9374ZM554.14 58.9131H537.006V66.9194H554.14V58.9131ZM552.653 73.6739C552.184 74.6128 551.584 75.4734 550.88 76.2297C550.175 75.4734 549.576 74.6128 549.132 73.6739H552.653ZM538.831 76.7773H542.221V77.7944C541.074 77.8987 539.926 77.977 538.831 78.0552V76.7773ZM538.831 73.5435H542.221V74.6388H538.831V73.5435ZM542.221 70.3358V71.3789H538.831V70.3358H542.221ZM554.479 71.1964L553.957 71.3007H545.846V73.6739H548.246L546.524 74.1433C547.15 75.5777 547.959 76.8816 548.898 78.003C547.802 78.8115 546.524 79.4374 545.194 79.8807V70.3358H557.139V67.8843H533.954V70.3358H535.988V78.2638C535.18 78.3421 534.398 78.3682 533.72 78.4203L533.954 81.0804C536.249 80.8717 539.222 80.611 542.221 80.3241V82.4365H545.194V80.3241C545.716 80.95 546.29 81.8106 546.577 82.4104C548.193 81.8106 549.68 81.0021 551.01 79.9851C552.392 81.0543 554.009 81.8628 555.861 82.4104C556.278 81.6802 557.086 80.5588 557.686 79.9851C555.965 79.5678 554.4 78.9158 553.096 78.0552C554.557 76.4122 555.678 74.378 556.382 71.9266L554.479 71.1964Z" fill="black"/>
<path d="M579.071 78.2117H574.559V76.5165H579.071V78.2117ZM587.417 70.7009H566.501V82.4365H569.526V73.2827H584.287V79.0984C584.287 79.4113 584.183 79.4896 583.792 79.5156C583.505 79.5417 582.696 79.5417 581.809 79.5156V74.4563H571.847V81.4716H574.559V80.298H581.288C581.575 80.9761 581.809 81.7845 581.888 82.3843C583.765 82.3843 585.148 82.3583 586.113 81.8888C587.13 81.4194 587.417 80.5849 587.417 79.1505V70.7009ZM580.818 67.5192H572.682V65.9284H580.818V67.5192ZM569.735 63.8681V69.6056H583.974V63.8681H569.735ZM578.263 60.2431V58.0525H575.107V60.2431H565.458V62.8771H588.251V60.2431H578.263Z" fill="black"/>
<path d="M771.889 37.4013C770.46 52.7708 748.325 63.2845 722.451 60.8843C718.115 60.4821 713.948 59.7427 710.024 58.7181C706.376 57.7656 689.707 63.0243 686.534 61.6206C682.941 60.031 692.918 51.7212 690.09 49.6672C682.075 43.8437 677.474 36.3972 678.189 28.7095C679.619 13.34 701.754 2.82625 727.628 5.22641C753.503 7.62658 773.319 22.0318 771.889 37.4013Z" fill="#284273"/>
<path d="M711.692 22.5604L711.353 26.2065L705.623 25.675L704.195 41.0271L699.919 40.6303L701.347 25.2783L695.617 24.7468L695.956 21.1007L711.692 22.5604Z" fill="white" fill-opacity="0.9"/>
<path d="M715.645 31.7514C717.156 31.8915 718.291 32.2672 719.05 32.8783C719.81 33.4797 720.134 34.3848 720.021 35.5935C719.908 36.8119 719.417 37.656 718.547 38.1259C717.678 38.5861 716.484 38.7456 714.963 38.6046L714.247 38.5381L713.931 41.9302L711.65 41.7186L712.579 31.7325C713.085 31.6811 713.618 31.6617 714.177 31.6742C714.736 31.6868 715.226 31.7125 715.645 31.7514ZM715.61 33.7095C715.444 33.6942 715.278 33.6837 715.112 33.678C714.955 33.6733 714.817 33.6704 714.699 33.6693L714.427 36.5935L715.144 36.66C715.933 36.7332 716.538 36.6811 716.958 36.5038C717.377 36.3264 717.614 35.9453 717.669 35.3605C717.695 35.0778 717.663 34.8389 717.573 34.6437C717.493 34.4495 717.36 34.2897 717.175 34.1644C717.001 34.0303 716.779 33.931 716.51 33.8667C716.241 33.7927 715.941 33.7403 715.61 33.7095Z" fill="white" fill-opacity="0.9"/>
<path d="M728.252 39.3654C728.196 39.9697 728.056 40.5172 727.834 41.0077C727.612 41.4886 727.319 41.894 726.954 42.2239C726.59 42.544 726.165 42.7799 725.679 42.9314C725.202 43.0839 724.677 43.1334 724.102 43.0801C723.536 43.0276 723.029 42.8822 722.579 42.6439C722.139 42.4064 721.77 42.0969 721.471 41.7153C721.173 41.3239 720.955 40.871 720.816 40.3567C720.678 39.8327 720.637 39.2685 720.693 38.6642C720.749 38.0598 720.893 37.5177 721.124 37.0378C721.366 36.5587 721.668 36.1591 722.032 35.839C722.406 35.5197 722.831 35.2839 723.307 35.1314C723.793 34.9799 724.309 34.9294 724.855 34.9801C725.411 35.0316 725.909 35.1761 726.349 35.4135C726.798 35.6519 727.173 35.9619 727.471 36.3435C727.77 36.7252 727.989 37.1731 728.128 37.6874C728.267 38.2017 728.308 38.761 728.252 39.3654ZM726.03 39.1592C726.092 38.4866 726.005 37.9476 725.767 37.5422C725.54 37.1279 725.178 36.8977 724.681 36.8515C724.184 36.8054 723.781 36.9647 723.472 37.3292C723.163 37.6841 722.978 38.1978 722.915 38.8703C722.853 39.5429 722.939 40.0916 723.175 40.5166C723.412 40.9318 723.779 41.1625 724.276 41.2086C724.773 41.2547 725.171 41.095 725.471 40.7295C725.781 40.3552 725.967 39.8318 726.03 39.1592Z" fill="white" fill-opacity="0.9"/>
<path d="M731.759 43.5839L729.581 43.3819L730.296 35.6912L732.475 35.8933L731.759 43.5839ZM732.886 33.6899C732.849 34.0895 732.688 34.3941 732.403 34.6037C732.129 34.8043 731.816 34.8884 731.465 34.8558C731.114 34.8233 730.818 34.6827 730.575 34.4341C730.344 34.1767 730.246 33.8481 730.283 33.4485C730.321 33.0488 730.476 32.7487 730.751 32.548C731.036 32.3385 731.354 32.25 731.704 32.2826C732.055 32.3151 732.347 32.4601 732.578 32.7175C732.821 32.9661 732.923 33.2903 732.886 33.6899Z" fill="white" fill-opacity="0.9"/>
<path d="M734.498 36.3465C734.878 36.2736 735.365 36.2204 735.958 36.187C736.552 36.1437 737.171 36.152 737.814 36.2116C738.467 36.2722 739 36.4101 739.413 36.6254C739.836 36.8318 740.16 37.1027 740.384 37.4381C740.608 37.7735 740.754 38.1606 740.822 38.5995C740.889 39.0383 740.898 39.5209 740.849 40.0472L740.445 44.3897L738.267 44.1876L738.646 40.1083C738.711 39.4065 738.665 38.9008 738.507 38.5912C738.349 38.2816 738.017 38.1033 737.51 38.0563C737.354 38.0418 737.187 38.0362 737.01 38.0394C736.834 38.0329 736.676 38.033 736.538 38.0399L735.986 43.976L733.807 43.7739L734.498 36.3465Z" fill="white" fill-opacity="0.9"/>
<path d="M743.238 34.9598L745.449 34.811L745.238 37.0773L747.855 37.32L747.687 39.133L745.069 38.8903L744.818 41.5951C744.775 42.0533 744.819 42.426 744.95 42.7134C745.09 43.0017 745.404 43.1685 745.891 43.2137C746.125 43.2354 746.366 43.238 746.613 43.2217C746.871 43.1964 747.106 43.1543 747.318 43.0953L747.467 44.8198C747.194 44.9027 746.893 44.9681 746.564 45.0163C746.235 45.0644 745.837 45.0668 745.369 45.0234C744.774 44.9682 744.289 44.8446 743.914 44.6524C743.539 44.4506 743.248 44.1975 743.041 43.8931C742.834 43.579 742.701 43.2127 742.642 42.7943C742.592 42.3767 742.59 41.9194 742.636 41.4223L743.238 34.9598Z" fill="white" fill-opacity="0.9"/>
<path d="M751.267 43.8156C751.667 43.8527 751.953 43.8399 752.126 43.7773C752.299 43.7147 752.396 43.5713 752.417 43.3471C752.433 43.1717 752.34 43.0106 752.137 42.864C751.936 42.7077 751.623 42.5263 751.2 42.3199C750.871 42.1615 750.571 42.001 750.301 41.8383C750.041 41.6765 749.822 41.494 749.644 41.2907C749.467 41.0777 749.337 40.8346 749.255 40.5615C749.172 40.2884 749.148 39.9666 749.182 39.5962C749.249 38.8749 749.57 38.3296 750.145 37.9602C750.721 37.5908 751.476 37.4495 752.412 37.5363C752.88 37.5797 753.324 37.6651 753.745 37.7926C754.166 37.9104 754.499 38.0298 754.744 38.1507L754.206 39.8115C753.961 39.7003 753.69 39.5965 753.394 39.5003C753.108 39.4049 752.78 39.3401 752.409 39.3057C751.727 39.2424 751.368 39.4008 751.333 39.781C751.325 39.8687 751.332 39.948 751.355 40.019C751.378 40.0899 751.43 40.1636 751.511 40.2399C751.594 40.3066 751.704 40.3856 751.843 40.4772C751.993 40.5599 752.181 40.656 752.406 40.7654C752.868 40.9851 753.246 41.1972 753.542 41.4016C753.838 41.5962 754.065 41.804 754.221 42.025C754.388 42.2371 754.495 42.4682 754.54 42.7182C754.595 42.9691 754.608 43.2554 754.578 43.5771C754.507 44.3374 754.166 44.8858 753.555 45.2223C752.953 45.5598 752.131 45.6801 751.088 45.5834C750.406 45.5201 749.841 45.4087 749.394 45.2492C748.956 45.0907 748.653 44.9643 748.485 44.87L749.015 43.1348C749.372 43.3154 749.741 43.4676 750.123 43.5915C750.506 43.7056 750.887 43.7803 751.267 43.8156Z" fill="white" fill-opacity="0.9"/>
</svg>
