<svg width="250" height="100" viewBox="0 0 250 100" fill="none" xmlns="http://www.w3.org/2000/svg">
<path d="M22.1894 7.10059H239.645L217.456 99.5562H0L22.1894 7.10059Z" fill="#006FA9"/>
<path fill-rule="evenodd" clip-rule="evenodd" d="M23.6071 8.89891L2.28099 97.7579H216.038L237.364 8.89891H23.6071ZM22.1894 7.10059L0 99.5562H217.456L239.645 7.10059H22.1894Z" fill="#284273"/>
<path d="M32.5444 0.443359H250L227.811 92.899H10.355L32.5444 0.443359Z" fill="#6BC4CB"/>
<path fill-rule="evenodd" clip-rule="evenodd" d="M33.9622 2.24169L12.636 91.1007H226.393L247.719 2.24169H33.9622ZM32.5444 0.443359L10.355 92.899H227.811L250 0.443359H32.5444Z" fill="#284273"/>
<path d="M90.3314 45.0532C90.3314 46.2603 90.4734 47.3491 90.7574 48.3195C91.0651 49.2899 91.4911 50.1302 92.0355 50.8402C92.6036 51.5266 93.2899 52.0592 94.0947 52.4379C94.8994 52.8166 95.8225 53.0059 96.8639 53.0059C97.8817 53.0059 98.7929 52.8166 99.5976 52.4379C100.426 52.0592 101.112 51.5266 101.657 50.8402C102.225 50.1302 102.651 49.2899 102.935 48.3195C103.243 47.3491 103.396 46.2603 103.396 45.0532C103.396 43.8461 103.243 42.7574 102.935 41.787C102.651 40.7929 102.225 39.9527 101.657 39.2663C101.112 38.5562 100.426 38.0118 99.5976 37.6331C98.7929 37.2544 97.8817 37.0651 96.8639 37.0651C95.8225 37.0651 94.8994 37.2663 94.0947 37.6686C93.2899 38.0473 92.6036 38.5917 92.0355 39.3018C91.4911 39.9882 91.0651 40.8284 90.7574 41.8225C90.4734 42.7929 90.3314 43.8698 90.3314 45.0532ZM109.112 45.0532C109.112 46.7811 108.899 48.3432 108.473 49.7396C108.047 51.1124 107.444 52.3195 106.663 53.3609C105.905 54.4024 104.994 55.2663 103.929 55.9526C102.864 56.639 101.692 57.1361 100.414 57.4438C100.533 57.9171 100.793 58.2958 101.195 58.5799C101.598 58.8876 102.107 59.1361 102.722 59.3254C103.337 59.5148 104.047 59.6568 104.852 59.7515C105.68 59.8461 106.568 59.929 107.515 60L106.379 64.0473C104.533 63.9763 102.947 63.787 101.621 63.4793C100.32 63.1953 99.2071 62.7929 98.284 62.2722C97.3846 61.7515 96.6627 61.1124 96.1183 60.355C95.5976 59.5976 95.1953 58.7219 94.9112 57.7278C93.4438 57.5385 92.0828 57.1361 90.8284 56.5207C89.574 55.8816 88.4852 55.0296 87.5621 53.9645C86.6391 52.8994 85.9172 51.6213 85.3965 50.1302C84.8757 48.639 84.6154 46.9467 84.6154 45.0532C84.6154 42.9467 84.9467 41.1006 85.6095 39.5148C86.2722 37.9053 87.1598 36.5562 88.2722 35.4674C89.4083 34.3787 90.7101 33.5621 92.1775 33.0177C93.6686 32.4734 95.2308 32.2012 96.8639 32.2012C98.5444 32.2012 100.13 32.4734 101.621 33.0177C103.112 33.5621 104.414 34.3787 105.527 35.4674C106.639 36.5562 107.515 37.9053 108.154 39.5148C108.793 41.1006 109.112 42.9467 109.112 45.0532Z" fill="white"/>
<path d="M119.232 50.8402C119.232 49.9408 119.362 49.1243 119.623 48.3905C119.883 47.6331 120.226 46.9586 120.652 46.3669C121.102 45.7515 121.611 45.2189 122.179 44.7692C122.771 44.2958 123.386 43.8816 124.025 43.5266C123.457 42.8402 122.948 42.1065 122.498 41.3254C122.049 40.5207 121.824 39.645 121.824 38.6982C121.824 36.6154 122.451 35.0177 123.706 33.9053C124.96 32.7692 126.688 32.2012 128.889 32.2012C130.001 32.2012 130.972 32.355 131.8 32.6627C132.629 32.9467 133.315 33.3491 133.859 33.8698C134.427 34.3669 134.853 34.9586 135.137 35.645C135.422 36.3077 135.564 37.0296 135.564 37.8106C135.564 39.2544 135.149 40.5444 134.321 41.6805C133.516 42.7929 132.487 43.7278 131.232 44.4852L135.208 48.4615C135.422 47.9882 135.623 47.3964 135.812 46.6864C136.025 45.9527 136.155 45.3136 136.203 44.7692L140.605 45.3373C140.558 45.787 140.475 46.284 140.356 46.8284C140.238 47.3491 140.084 47.8816 139.895 48.426C139.729 48.9704 139.528 49.5148 139.291 50.0592C139.078 50.6035 138.842 51.1006 138.581 51.5503C139.339 52.4024 140.072 53.3373 140.782 54.355C141.516 55.3491 142.143 56.355 142.664 57.3728H137.232C137.043 57.0651 136.782 56.6864 136.451 56.2367C136.12 55.7633 135.788 55.3609 135.457 55.0296C134.51 55.787 133.41 56.426 132.155 56.9467C130.901 57.4438 129.493 57.6923 127.93 57.6923C126.274 57.6923 124.889 57.4911 123.777 57.0887C122.664 56.6627 121.765 56.1302 121.078 55.4911C120.416 54.8284 119.942 54.0947 119.658 53.2899C119.374 52.4615 119.232 51.645 119.232 50.8402ZM124.167 50.3077C124.167 50.6627 124.238 51.0296 124.38 51.4083C124.522 51.787 124.747 52.142 125.055 52.4734C125.386 52.7811 125.8 53.0414 126.297 53.2544C126.794 53.4438 127.398 53.5384 128.108 53.5384C129.102 53.5384 129.966 53.4083 130.7 53.1479C131.457 52.8876 132.084 52.5444 132.581 52.1183L126.901 46.4024C126.569 46.568 126.238 46.7692 125.907 47.0059C125.599 47.2426 125.315 47.5266 125.055 47.858C124.794 48.1657 124.581 48.5207 124.416 48.9231C124.25 49.3254 124.167 49.787 124.167 50.3077ZM131.055 38.0592C131.055 37.5148 130.877 37.0296 130.522 36.6035C130.167 36.1775 129.575 35.9645 128.747 35.9645C127.99 35.9645 127.398 36.2012 126.972 36.6745C126.569 37.1242 126.368 37.716 126.368 38.4497C126.368 39.0651 126.546 39.6686 126.901 40.2603C127.256 40.8284 127.717 41.3728 128.285 41.8935C129.043 41.4674 129.694 40.9586 130.238 40.3669C130.782 39.7751 131.055 39.0059 131.055 38.0592Z" fill="white"/>
<path d="M170.511 57.3728C170.251 56.5207 169.955 55.645 169.623 54.7456C169.316 53.8461 169.008 52.9467 168.7 52.0473H159.114C158.807 52.9467 158.487 53.8461 158.156 54.7456C157.848 55.645 157.564 56.5207 157.304 57.3728H151.552C152.475 54.7219 153.351 52.2722 154.18 50.0237C155.008 47.7751 155.813 45.6568 156.594 43.6686C157.398 41.6805 158.18 39.7988 158.937 38.0237C159.718 36.2248 160.523 34.4734 161.351 32.7692H166.641C167.446 34.4734 168.239 36.2248 169.02 38.0237C169.801 39.7988 170.582 41.6805 171.363 43.6686C172.168 45.6568 172.984 47.7751 173.813 50.0237C174.641 52.2722 175.517 54.7219 176.44 57.3728H170.511ZM163.872 38.3432C163.754 38.6982 163.576 39.1834 163.339 39.7988C163.103 40.4142 162.83 41.1242 162.523 41.929C162.215 42.7337 161.872 43.6213 161.493 44.5917C161.138 45.5621 160.771 46.5799 160.393 47.645H167.387C167.008 46.5799 166.641 45.5621 166.286 44.5917C165.931 43.6213 165.588 42.7337 165.256 41.929C164.949 41.1242 164.677 40.4142 164.44 39.7988C164.203 39.1834 164.014 38.6982 163.872 38.3432Z" fill="white"/>
<path fill-rule="evenodd" clip-rule="evenodd" d="M90.8284 56.5201C89.574 55.881 88.4852 55.029 87.5621 53.9639C86.6391 52.8988 85.9172 51.6207 85.3965 50.1296C84.8757 48.6384 84.6154 46.9461 84.6154 45.0526C84.6154 42.9461 84.9468 41.1 85.6095 39.5142C86.2722 37.9047 87.1598 36.5556 88.2722 35.4668C89.4083 34.3781 90.7101 33.5615 92.1775 33.0171C93.6686 32.4728 95.2308 32.2006 96.8639 32.2006C98.5444 32.2006 100.13 32.4728 101.621 33.0171C103.112 33.5615 104.414 34.3781 105.527 35.4668C106.639 36.5556 107.515 37.9047 108.154 39.5142C108.793 41.1 109.112 42.9461 109.112 45.0526C109.112 46.7804 108.899 48.3426 108.473 49.739C108.047 51.1118 107.444 52.3189 106.663 53.3603C106.137 54.0831 105.537 54.7204 104.863 55.2722C104.712 55.3963 104.557 55.516 104.397 55.6315C104.245 55.7423 104.089 55.8492 103.929 55.952C103.859 55.9968 103.789 56.0408 103.719 56.084C103.379 56.2923 103.029 56.4818 102.669 56.6525C102.613 56.6789 102.557 56.7049 102.5 56.7305C101.903 57.0011 101.278 57.2212 100.624 57.3908C100.554 57.4089 100.484 57.4263 100.414 57.4432C100.533 57.9165 100.793 58.2952 101.195 58.5793C101.364 58.7081 101.551 58.8265 101.757 58.9346C101.993 59.0588 102.254 59.1694 102.54 59.2662C102.558 59.2723 102.577 59.2784 102.595 59.2844C102.637 59.2982 102.679 59.3116 102.722 59.3248C102.834 59.3593 102.949 59.3921 103.067 59.4234C103.599 59.5643 104.194 59.6734 104.852 59.7509C105.232 59.7943 105.624 59.8352 106.029 59.8736C106.196 59.8895 106.366 59.905 106.537 59.92C106.856 59.948 107.182 59.9744 107.515 59.9994L106.379 64.0467C105.673 64.0196 105.006 63.9752 104.376 63.9135C104.372 63.913 104.367 63.9126 104.363 63.9121C103.35 63.8124 102.437 63.6679 101.621 63.4787C101.566 63.4665 101.51 63.4541 101.455 63.4416C100.977 63.3322 100.525 63.2064 100.1 63.0643C99.4296 62.8406 98.8244 62.5764 98.284 62.2716C97.3846 61.7509 96.6627 61.1118 96.1183 60.3544C95.5976 59.597 95.1953 58.7213 94.9112 57.7272C93.4438 57.5378 92.0828 57.1355 90.8284 56.5201ZM91.6891 61.5849C90.7208 61.3086 89.781 60.9494 88.8739 60.5044C88.8538 60.4945 88.8338 60.4845 88.8139 60.4744C87.0492 59.5754 85.5058 58.3673 84.2085 56.8704C82.8763 55.3332 81.8901 53.5498 81.2067 51.5926C80.4928 49.5483 80.1775 47.3481 80.1775 45.0526C80.1775 42.4917 80.5793 40.0463 81.5102 37.8139C82.3747 35.7179 83.5799 33.8496 85.1681 32.2952L85.2016 32.2627C86.7735 30.7563 88.5943 29.613 90.634 28.8563L90.6556 28.8484C92.6485 28.1208 94.7268 27.7627 96.8639 27.7627C99.0328 27.7627 101.136 28.1157 103.143 28.8484C105.215 29.6046 107.059 30.7566 108.631 32.2952C110.232 33.8623 111.432 35.749 112.274 37.8661C113.166 40.0831 113.55 42.5096 113.55 45.0526C113.55 47.1412 113.293 49.1491 112.718 51.034L112.712 51.0544C112.154 52.8515 111.339 54.5155 110.233 55.9969C110.154 56.1049 110.073 56.2117 109.992 56.3173C110.439 56.618 110.833 57.0011 111.149 57.4529C111.913 58.5427 112.147 59.9176 111.788 61.1987L110.651 65.2461C110.097 67.2223 108.259 68.5602 106.208 68.4813C104.185 68.4035 102.316 68.1931 100.647 67.8083C99.0288 67.453 97.4885 66.9181 96.1036 66.1369L96.0605 66.1122C94.6801 65.3131 93.4653 64.2671 92.5147 62.9445C92.4967 62.9194 92.4789 62.8941 92.4614 62.8686C92.1769 62.4549 91.92 62.0263 91.6891 61.5849ZM94.0947 37.668C93.2899 38.0467 92.6036 38.5911 92.0355 39.3012C91.4911 39.9875 91.0651 40.8278 90.7574 41.8219C90.4734 42.7923 90.3314 43.8692 90.3314 45.0526C90.3314 46.2597 90.4734 47.3485 90.7574 48.3189C91.0651 49.2893 91.4911 50.1296 92.0355 50.8396C92.6036 51.526 93.2899 52.0586 94.0947 52.4373C94.8994 52.816 95.8225 53.0053 96.8639 53.0053C97.8817 53.0053 98.7929 52.816 99.5976 52.4373C100.426 52.0586 101.112 51.526 101.657 50.8396C102.225 50.1296 102.651 49.2893 102.935 48.3189C103.243 47.3485 103.396 46.2597 103.396 45.0526C103.396 43.8455 103.243 42.7568 102.935 41.7864C102.651 40.7923 102.225 39.952 101.657 39.2657C101.112 38.5556 100.426 38.0112 99.5976 37.6325C98.7929 37.2538 97.8817 37.0645 96.8639 37.0645C95.8225 37.0645 94.8994 37.2657 94.0947 37.668ZM95.5054 48.0692C95.6439 48.2222 95.795 48.3327 95.9843 48.4218C96.1052 48.4787 96.3649 48.5674 96.8639 48.5674C97.3227 48.5674 97.5741 48.4848 97.708 48.4218L97.7526 48.4011C97.9698 48.3018 98.0883 48.1972 98.1797 48.082L98.1914 48.0673C98.3595 47.8572 98.5361 47.5495 98.6757 47.0723C98.685 47.0406 98.6946 47.0091 98.7046 46.9776C98.852 46.5128 98.9586 45.8867 98.9586 45.0526C98.9586 44.2186 98.852 43.5924 98.7046 43.1277C98.6918 43.0871 98.6795 43.0464 98.6678 43.0055C98.5254 42.5073 98.3573 42.2393 98.2379 42.0951C98.2028 42.0526 98.1684 42.0095 98.1349 41.9658C98.0401 41.8421 97.9336 41.7514 97.7525 41.6686L97.708 41.648C97.5741 41.585 97.3227 41.5023 96.8639 41.5023C96.4029 41.5023 96.1776 41.5883 96.0794 41.6374C96.0479 41.6531 96.0162 41.6685 95.9843 41.6835C95.8093 41.7659 95.6593 41.8775 95.507 42.0659C95.3651 42.2468 95.1774 42.5626 95.0073 43.1007C94.865 43.5996 94.7692 44.2388 94.7692 45.0526C94.7692 45.8902 94.8652 46.5353 95.0033 47.0259C95.1574 47.4976 95.3352 47.8307 95.5054 48.0692ZM124.18 49.9597C124.171 50.0724 124.167 50.1882 124.167 50.3071C124.167 50.6621 124.238 51.029 124.38 51.4077C124.522 51.7864 124.747 52.1414 125.055 52.4728C125.307 52.7069 125.607 52.9136 125.955 53.0929C126.064 53.1493 126.178 53.2029 126.297 53.2538C126.703 53.4083 127.179 53.4998 127.726 53.5282C127.793 53.5317 127.861 53.5342 127.93 53.5358C127.989 53.5372 128.048 53.5378 128.108 53.5378C129.054 53.5378 129.883 53.4198 130.593 53.1838C130.614 53.1768 130.635 53.1697 130.656 53.1626C130.671 53.1575 130.685 53.1524 130.7 53.1473C131.457 52.887 132.084 52.5438 132.581 52.1177L126.901 46.4017C126.582 46.5613 126.263 46.7538 125.943 46.9792C125.931 46.9878 125.919 46.9965 125.907 47.0053C125.599 47.242 125.315 47.526 125.055 47.8574C124.985 47.9397 124.919 48.0255 124.856 48.1146C124.851 48.1209 124.847 48.1271 124.843 48.1333C124.746 48.2721 124.657 48.4191 124.577 48.5742C124.533 48.6585 124.492 48.7453 124.453 48.8344C124.44 48.8635 124.428 48.8929 124.416 48.9225C124.288 49.233 124.209 49.5787 124.18 49.9597ZM135.695 55.2796C135.616 55.192 135.536 55.1084 135.457 55.029C135.382 55.089 135.306 55.1483 135.229 55.2068C134.335 55.8869 133.31 56.4667 132.155 56.9461C132.124 56.9586 132.092 56.9709 132.061 56.983C132.048 56.9878 132.036 56.9926 132.023 56.9974C130.85 57.442 129.545 57.6731 128.108 57.6906C128.049 57.6913 127.99 57.6917 127.93 57.6917C126.718 57.6917 125.651 57.5839 124.73 57.3683C124.67 57.3544 124.611 57.3399 124.552 57.325C124.535 57.3205 124.517 57.3159 124.499 57.3113C124.247 57.2455 124.006 57.1711 123.777 57.0881C122.664 56.6621 121.765 56.1296 121.078 55.4905C120.416 54.8278 119.942 54.0941 119.658 53.2893C119.374 52.4609 119.232 51.6444 119.232 50.8396C119.232 49.9402 119.362 49.1236 119.623 48.3899C119.883 47.6325 120.226 46.958 120.652 46.3662C120.684 46.3233 120.715 46.2808 120.747 46.2387C120.812 46.1534 120.878 46.0697 120.945 45.9877C121.175 45.7067 121.418 45.445 121.676 45.2028C121.714 45.1669 121.753 45.1314 121.792 45.0963C121.917 44.9826 122.047 44.8734 122.179 44.7686C122.6 44.4318 123.033 44.1249 123.478 43.848C123.518 43.823 123.558 43.7983 123.599 43.7739C123.682 43.7231 123.766 43.6733 123.851 43.6246C123.909 43.5913 123.967 43.5584 124.025 43.526C123.918 43.3962 123.812 43.2647 123.709 43.1315C123.557 42.9351 123.409 42.735 123.266 42.5312C123.251 42.5099 123.237 42.4886 123.222 42.4672C122.966 42.0984 122.725 41.7176 122.498 41.3248C122.488 41.306 122.478 41.2871 122.467 41.2682C122.203 40.783 122.021 40.2721 121.919 39.7356C121.856 39.3996 121.824 39.0536 121.824 38.6976C121.824 37.2554 122.125 36.0458 122.726 35.0688C122.993 34.6349 123.32 34.2468 123.706 33.9047C123.734 33.879 123.763 33.8535 123.791 33.8284C123.795 33.8257 123.798 33.8229 123.801 33.8202C125.019 32.7644 126.668 32.2248 128.747 32.2014C128.794 32.2008 128.841 32.2006 128.889 32.2006C130.001 32.2006 130.972 32.3544 131.8 32.6621C132.615 32.9415 133.293 33.3355 133.833 33.844C133.842 33.8524 133.851 33.8608 133.859 33.8692C134.092 34.0726 134.301 34.2919 134.485 34.5271C134.752 34.8665 134.97 35.2389 135.137 35.6444C135.422 36.3071 135.564 37.029 135.564 37.81C135.564 38.3214 135.512 38.8134 135.408 39.2862C135.316 39.7038 135.184 40.1063 135.011 40.4938C134.863 40.8251 134.685 41.1454 134.478 41.4547C134.428 41.5304 134.375 41.6055 134.321 41.6799C133.97 42.1654 133.576 42.617 133.139 43.0349C132.734 43.4222 132.292 43.7804 131.814 44.1095C131.63 44.2363 131.44 44.3588 131.245 44.477C131.241 44.4796 131.236 44.4821 131.232 44.4846L135.208 48.4609C135.23 48.4124 135.252 48.3627 135.274 48.3117C135.416 47.9762 135.552 47.5868 135.683 47.1437C135.7 47.0891 135.716 47.0336 135.732 46.9774C135.759 46.8825 135.786 46.7853 135.812 46.6858C135.823 46.6496 135.833 46.6136 135.843 46.5779C135.911 46.3365 135.97 46.1055 136.02 45.8851C136.023 45.8715 136.026 45.8579 136.029 45.8443C136.069 45.6653 136.103 45.4932 136.13 45.3282C136.157 45.1697 136.178 45.0177 136.193 44.8722C136.196 44.8373 136.2 44.8028 136.203 44.7686L140.605 45.3367C140.588 45.5002 140.566 45.67 140.539 45.8461C140.493 46.1541 140.432 46.4814 140.356 46.8278C140.282 47.156 140.193 47.489 140.09 47.8266C140.081 47.8576 140.071 47.8885 140.062 47.9195C140.01 48.087 139.954 48.2556 139.895 48.4254C139.769 48.838 139.623 49.2506 139.457 49.6632C139.404 49.795 139.349 49.9268 139.291 50.0586C139.265 50.127 139.237 50.1946 139.21 50.2616C139.127 50.4632 139.041 50.658 138.951 50.8461C138.834 51.0923 138.71 51.3268 138.581 51.5497C138.972 51.9892 139.356 52.4507 139.734 52.9343C140.089 53.3882 140.439 53.8616 140.782 54.3544C141.516 55.3485 142.143 56.3544 142.664 57.3722H137.232C137.098 57.154 136.928 56.9002 136.722 56.6106C136.638 56.4918 136.548 56.3669 136.451 56.2361C136.199 55.8762 135.947 55.5574 135.695 55.2796ZM134.417 60.8026C134.232 60.8859 134.045 60.9667 133.857 61.0449C133.834 61.0541 133.812 61.0631 133.79 61.0719C131.94 61.805 129.965 62.1296 127.93 62.1296C125.949 62.1296 124.015 61.8936 122.267 61.2614C122.241 61.252 122.215 61.2424 122.189 61.2325C120.683 60.6555 119.254 59.8552 118.054 58.7386C118.016 58.7026 117.978 58.6659 117.94 58.6286C116.856 57.5439 115.999 56.2553 115.473 54.7663L115.46 54.7286C115.031 53.4778 114.794 52.1754 114.794 50.8396C114.794 49.5191 114.985 48.1985 115.433 46.9271C115.82 45.8067 116.352 44.7442 117.051 43.7732L117.069 43.7478C117.397 43.2996 117.75 42.8739 118.131 42.4731C117.632 41.2753 117.386 40.0043 117.386 38.6976C117.386 35.6846 118.329 32.7509 120.743 30.6C123.032 28.5361 125.934 27.7627 128.889 27.7627C130.379 27.7627 131.875 27.9648 133.292 28.4822C134.581 28.9311 135.806 29.6124 136.855 30.5938C137.886 31.5149 138.69 32.6348 139.227 33.9217C139.76 35.1738 140.001 36.4875 140.001 37.81C140.001 38.8154 139.875 39.7942 139.621 40.735L141.173 40.9353C143.563 41.2437 145.271 43.404 145.018 45.8012C144.951 46.4433 144.838 47.1029 144.693 47.7705L144.684 47.8113C144.533 48.4772 144.341 49.1409 144.115 49.8017C144.003 50.1628 143.88 50.5213 143.746 50.8772C143.963 51.1686 144.177 51.4653 144.389 51.7673C145.239 52.9249 145.985 54.1191 146.615 55.3508C147.319 56.7266 147.256 58.3695 146.45 59.6878C145.644 61.0061 144.209 61.81 142.664 61.81H137.232C136.19 61.81 135.199 61.4447 134.417 60.8026ZM126.508 39.3863C126.597 39.6803 126.728 39.9714 126.901 40.2597C127.02 40.4497 127.15 40.637 127.293 40.8217C127.48 41.0642 127.688 41.3021 127.916 41.5355C127.963 41.584 128.012 41.6324 128.061 41.6806C128.134 41.7518 128.209 41.8225 128.285 41.8929C128.638 41.6943 128.968 41.4777 129.275 41.2432C129.626 40.9745 129.947 40.6822 130.238 40.3662C130.543 40.0344 130.763 39.6467 130.897 39.2031C130.899 39.1977 130.9 39.1923 130.902 39.1869C130.922 39.1189 130.94 39.0495 130.957 38.9789C130.993 38.8182 131.02 38.6508 131.036 38.4766C131.039 38.4464 131.041 38.4161 131.043 38.3855C131.051 38.279 131.055 38.17 131.055 38.0586C131.055 37.732 130.991 37.4268 130.863 37.1428C130.849 37.1112 130.834 37.0799 130.818 37.0488C130.739 36.8936 130.64 36.745 130.522 36.6029C130.505 36.5826 130.488 36.5627 130.47 36.5433C130.444 36.5154 130.417 36.4886 130.389 36.4628C130.05 36.1521 129.55 35.9865 128.889 35.966C128.842 35.9646 128.795 35.9639 128.747 35.9639C127.99 35.9639 127.398 36.2006 126.972 36.6739C126.842 36.8185 126.734 36.9777 126.646 37.1516C126.639 37.1664 126.631 37.1812 126.624 37.1961C126.609 37.2281 126.594 37.2605 126.581 37.2934C126.51 37.4604 126.457 37.6399 126.422 37.8317C126.386 38.025 126.368 38.2307 126.368 38.4491C126.368 38.461 126.368 38.473 126.368 38.4849C126.372 38.7883 126.418 39.0888 126.508 39.3863ZM128.307 38.4491L128.638 38.1733L128.307 38.4491ZM166.641 32.7686C167.446 34.4728 168.239 36.2242 169.02 38.0231C169.801 39.7982 170.582 41.6799 171.363 43.668C172.168 45.6562 172.984 47.7745 173.813 50.023C174.157 50.9586 174.51 51.929 174.871 52.9343C175.378 54.345 175.901 55.8243 176.44 57.3722H170.511C170.251 56.5201 169.955 55.6444 169.623 54.7449L168.7 52.0467H159.114C158.807 52.9461 158.487 53.8455 158.156 54.7449C157.848 55.6444 157.564 56.5201 157.304 57.3722H151.552C152.091 55.8243 152.614 54.345 153.121 52.9343C153.482 51.929 153.835 50.9586 154.18 50.023C155.008 47.7745 155.813 45.6562 156.594 43.668C157.398 41.6799 158.18 39.7982 158.937 38.0231C159.718 36.2242 160.523 34.4728 161.351 32.7686H166.641ZM160.405 47.6088C160.401 47.6207 160.397 47.6325 160.393 47.6444H167.387C167.382 47.6325 167.378 47.6207 167.374 47.6088C167 46.5566 166.637 45.5507 166.286 44.5911C166.281 44.5768 166.276 44.5625 166.27 44.5482C166.099 44.0817 165.931 43.6345 165.766 43.2065C165.76 43.1916 165.754 43.1766 165.749 43.1618C165.582 42.731 165.418 42.3199 165.256 41.9284C165.028 41.3319 164.82 40.7874 164.631 40.2949C164.565 40.123 164.501 39.9574 164.44 39.7982C164.203 39.1828 164.014 38.6976 163.872 38.3426C163.754 38.6976 163.576 39.1828 163.339 39.7982C163.278 39.9574 163.214 40.123 163.148 40.2949C162.959 40.7874 162.751 41.3319 162.523 41.9284C162.374 42.3175 162.217 42.726 162.052 43.1538C162.045 43.1713 162.038 43.1889 162.031 43.2065C162.024 43.2263 162.016 43.2461 162.008 43.2659C161.852 43.6695 161.689 44.0901 161.518 44.5276C161.51 44.5488 161.501 44.5699 161.493 44.5911C161.142 45.5507 160.779 46.5566 160.405 47.6088ZM162.252 56.4846C161.999 57.2337 161.764 57.9618 161.548 58.669C160.978 60.5353 159.255 61.81 157.304 61.81H151.552C150.115 61.81 148.767 61.1143 147.935 59.943C147.103 58.7717 146.889 57.2698 147.361 55.9128C148.292 53.241 149.176 50.766 150.015 48.4889C150.853 46.2142 151.669 44.0661 152.463 42.0453L152.48 42.003C153.294 39.992 154.086 38.0846 154.855 36.2815L154.866 36.2555C155.672 34.4006 156.503 32.5915 157.36 30.8284C158.103 29.3005 159.652 28.3307 161.351 28.3307H166.641C168.358 28.3307 169.921 29.3211 170.654 30.8736C171.478 32.6183 172.289 34.4088 173.086 36.2451C173.889 38.0706 174.689 39.9972 175.485 42.024C176.307 44.054 177.137 46.2093 177.977 48.4889C178.816 50.766 179.701 53.241 180.631 55.9128C181.104 57.2698 180.89 58.7717 180.057 59.943C179.225 61.1143 177.877 61.81 176.44 61.81H170.511C168.559 61.81 166.837 60.5353 166.267 58.669C166.052 57.9662 165.808 57.2382 165.534 56.4846H162.252Z" fill="#284273"/>
</svg>
