<svg width="775" height="133" viewBox="0 0 775 133" fill="none" xmlns="http://www.w3.org/2000/svg">
<path d="M376.261 98.6113V130.933H3.96582L25.6807 116.24C41.682 105.412 52.7603 88.7041 56.5054 69.7502L57.5461 64.4834H418.203L376.717 97.6619L376.261 98.0269V98.6113Z" fill="#006FA9" stroke="#284273" stroke-width="2.43134"/>
<path d="M63.9401 58.3062H432.616L414.322 72.9376C399.376 84.8909 390.675 102.991 390.675 122.129V124.756H22.7478L34.4893 117.37C52.8181 105.841 63.9401 85.7056 63.9401 64.0523V58.3062Z" fill="#6BC4CB" stroke="#284273" stroke-width="2.43134"/>
<path d="M282.268 113.246C282.513 110.271 283.022 107.174 283.797 103.954C284.571 100.735 285.508 97.5761 286.609 94.4788C287.75 91.3815 289.013 88.4676 290.399 85.7371C291.784 82.9659 293.19 80.5818 294.617 78.5848H276.216V70.8212H305.865V77.4233C304.561 78.8497 303.114 80.8263 301.525 83.353C299.976 85.8798 298.488 88.7529 297.062 91.9725C295.676 95.1513 294.454 98.5746 293.394 102.242C292.375 105.91 291.744 109.578 291.499 113.246H282.268Z" fill="white"/>
<path d="M282.268 113.246L278.114 112.905L277.744 117.414H282.268V113.246ZM283.797 103.954L287.849 104.929L283.797 103.954ZM286.609 94.4788L282.698 93.0379L282.689 93.0607L282.681 93.0835L286.609 94.4788ZM290.399 85.7371L294.116 87.6233L294.121 87.6122L294.127 87.6011L290.399 85.7371ZM294.617 78.5848L298.008 81.0074L302.716 74.4168H294.617V78.5848ZM276.216 78.5848H272.048V82.7528H276.216V78.5848ZM276.216 70.8212V66.6532H272.048V70.8212H276.216ZM305.865 70.8212H310.033V66.6532H305.865V70.8212ZM305.865 77.4233L308.941 80.2358L310.033 79.0415V77.4233H305.865ZM301.525 83.353L297.997 81.1338L297.984 81.1543L297.971 81.175L301.525 83.353ZM297.062 91.9725L293.251 90.2841L293.246 90.2955L293.241 90.307L297.062 91.9725ZM293.394 102.242L289.39 101.086L289.384 101.106L289.378 101.127L293.394 102.242ZM291.499 113.246V117.414H295.399L295.658 113.523L291.499 113.246ZM286.422 113.587C286.648 110.847 287.12 107.962 287.849 104.929L279.744 102.979C278.925 106.385 278.378 109.695 278.114 112.905L286.422 113.587ZM287.849 104.929C288.589 101.85 289.485 98.8325 290.536 95.8741L282.681 93.0835C281.531 96.3198 280.553 99.6186 279.744 102.979L287.849 104.929ZM290.52 95.9197C291.609 92.9628 292.809 90.1986 294.116 87.6233L286.682 83.851C285.218 86.7367 283.89 89.8002 282.698 93.0379L290.52 95.9197ZM294.127 87.6011C295.439 84.9765 296.736 82.7883 298.008 81.0074L291.225 76.1622C289.644 78.3752 288.13 80.9552 286.671 83.8731L294.127 87.6011ZM294.617 74.4168H276.216V82.7528H294.617V74.4168ZM280.384 78.5848V70.8212H272.048V78.5848H280.384ZM276.216 74.9892H305.865V66.6532H276.216V74.9892ZM301.697 70.8212V77.4233H310.033V70.8212H301.697ZM302.789 74.6109C301.252 76.2918 299.655 78.4967 297.997 81.1338L305.053 85.5723C306.573 83.1559 307.87 81.4077 308.941 80.2358L302.789 74.6109ZM297.971 81.175C296.31 83.8851 294.739 86.9262 293.251 90.2841L300.873 93.6608C302.238 90.5796 303.642 87.8744 305.078 85.5311L297.971 81.175ZM293.241 90.307C291.777 93.6668 290.495 97.2616 289.39 101.086L297.398 103.399C298.413 99.8876 299.576 96.6358 300.883 93.6379L293.241 90.307ZM289.378 101.127C288.286 105.059 287.604 109.007 287.34 112.969L295.658 113.523C295.883 110.149 296.465 106.762 297.41 103.358L289.378 101.127ZM291.499 109.078H282.268V117.414H291.499V109.078Z" fill="black"/>
<path d="M321.331 100.609C321.331 102.263 320.909 103.53 320.064 104.41C319.219 105.29 318.084 105.73 316.659 105.73C315.233 105.73 314.098 105.29 313.254 104.41C312.409 103.53 311.987 102.263 311.987 100.609C311.987 98.9544 312.409 97.6873 313.254 96.8074C314.098 95.9275 315.233 95.4876 316.659 95.4876C318.084 95.4876 319.219 95.9275 320.064 96.8074C320.909 97.6873 321.331 98.9544 321.331 100.609ZM318.348 100.609C318.348 99.7111 318.19 99.06 317.873 98.6552C317.556 98.2505 317.152 98.0481 316.659 98.0481C316.148 98.0481 315.735 98.2505 315.418 98.6552C315.119 99.06 314.969 99.7111 314.969 100.609C314.969 101.506 315.119 102.166 315.418 102.588C315.735 102.993 316.148 103.196 316.659 103.196C317.152 103.196 317.556 102.993 317.873 102.588C318.19 102.166 318.348 101.506 318.348 100.609ZM326.479 95.9099H330.148L319.827 114.203H316.157L326.479 95.9099ZM334.371 109.505C334.371 111.159 333.949 112.426 333.104 113.306C332.26 114.186 331.125 114.626 329.699 114.626C328.274 114.626 327.139 114.186 326.294 113.306C325.449 112.426 325.027 111.159 325.027 109.505C325.027 107.85 325.449 106.583 326.294 105.703C327.139 104.823 328.274 104.383 329.699 104.383C331.125 104.383 332.26 104.823 333.104 105.703C333.949 106.583 334.371 107.85 334.371 109.505ZM331.389 109.505C331.389 108.607 331.23 107.956 330.913 107.551C330.597 107.146 330.192 106.944 329.699 106.944C329.189 106.944 328.775 107.146 328.458 107.551C328.159 107.956 328.01 108.607 328.01 109.505C328.01 110.402 328.159 111.062 328.458 111.484C328.775 111.889 329.189 112.092 329.699 112.092C330.192 112.092 330.597 111.889 330.913 111.484C331.23 111.062 331.389 110.402 331.389 109.505Z" fill="white"/>
<path d="M313.254 104.41L310.247 107.296H310.247L313.254 104.41ZM313.254 96.8074L310.247 93.9209L310.247 93.9209L313.254 96.8074ZM317.873 98.6552L314.591 101.224L317.873 98.6552ZM315.418 98.6552L312.136 96.0865L312.1 96.1317L312.066 96.1778L315.418 98.6552ZM315.418 102.588L312.017 104.998L312.074 105.079L312.136 105.157L315.418 102.588ZM317.873 102.588L321.155 105.157L321.182 105.124L321.208 105.089L317.873 102.588ZM326.479 95.9099V91.7419H324.045L322.849 93.8618L326.479 95.9099ZM330.148 95.9099L333.778 97.9581L337.285 91.7419H330.148V95.9099ZM319.827 114.203V118.371H322.261L323.457 116.251L319.827 114.203ZM316.157 114.203L312.527 112.155L309.02 118.371H316.157V114.203ZM333.104 113.306L336.111 116.192L333.104 113.306ZM326.294 113.306L323.287 116.192L326.294 113.306ZM326.294 105.703L323.287 102.817L323.287 102.817L326.294 105.703ZM333.104 105.703L336.111 102.817L336.111 102.817L333.104 105.703ZM330.913 107.551L327.631 110.12V110.12L330.913 107.551ZM328.458 107.551L325.176 104.982L325.141 105.028L325.107 105.074L328.458 107.551ZM328.458 111.484L325.057 113.894L325.115 113.975L325.176 114.053L328.458 111.484ZM330.913 111.484L334.196 114.053L334.222 114.019L334.248 113.985L330.913 111.484ZM317.163 100.609C317.163 101.09 317.101 101.36 317.06 101.482C317.026 101.585 317.012 101.571 317.057 101.523L323.071 107.296C324.894 105.398 325.499 102.948 325.499 100.609H317.163ZM317.057 101.523C317.051 101.53 317.053 101.527 317.064 101.519C317.075 101.512 317.08 101.511 317.073 101.513C317.06 101.518 316.943 101.562 316.659 101.562V109.898C319.011 109.898 321.307 109.134 323.071 107.296L317.057 101.523ZM316.659 101.562C316.375 101.562 316.257 101.518 316.245 101.513C316.237 101.511 316.243 101.512 316.254 101.519C316.264 101.527 316.267 101.53 316.26 101.523L310.247 107.296C312.011 109.134 314.306 109.898 316.659 109.898V101.562ZM316.26 101.523C316.306 101.571 316.292 101.585 316.257 101.482C316.217 101.36 316.155 101.09 316.155 100.609H307.818C307.818 102.948 308.424 105.398 310.247 107.296L316.26 101.523ZM316.155 100.609C316.155 100.127 316.217 99.8568 316.257 99.7357C316.292 99.6323 316.306 99.6468 316.26 99.6939L310.247 93.9209C308.424 95.8196 307.818 98.2696 307.818 100.609H316.155ZM316.26 99.6939C316.267 99.6869 316.264 99.6907 316.254 99.698C316.243 99.7052 316.237 99.7067 316.245 99.7038C316.257 99.6989 316.375 99.6556 316.659 99.6556V91.3195C314.306 91.3195 312.011 92.0836 310.247 93.9209L316.26 99.6939ZM316.659 99.6556C316.943 99.6556 317.06 99.6989 317.073 99.7038C317.08 99.7067 317.075 99.7052 317.064 99.698C317.053 99.6907 317.051 99.6869 317.057 99.6939L323.071 93.9209C321.307 92.0836 319.011 91.3195 316.659 91.3195V99.6556ZM317.057 99.6939C317.012 99.6468 317.026 99.6323 317.06 99.7357C317.101 99.8568 317.163 100.127 317.163 100.609H325.499C325.499 98.2696 324.894 95.8196 323.071 93.9209L317.057 99.6939ZM322.516 100.609C322.516 99.4026 322.338 97.5978 321.155 96.0865L314.591 101.224C314.29 100.84 314.2 100.516 314.18 100.432C314.159 100.348 314.18 100.387 314.18 100.609H322.516ZM321.155 96.0865C320.088 94.7228 318.496 93.8801 316.659 93.8801V102.216C316.317 102.216 315.895 102.141 315.468 101.928C315.047 101.717 314.762 101.442 314.591 101.224L321.155 96.0865ZM316.659 93.8801C314.856 93.8801 313.236 94.6807 312.136 96.0865L318.7 101.224C318.516 101.46 318.22 101.737 317.798 101.944C317.375 102.151 316.969 102.216 316.659 102.216V93.8801ZM312.066 96.1778C310.961 97.6732 310.801 99.4352 310.801 100.609H319.137C319.137 100.374 319.159 100.316 319.144 100.38C319.13 100.439 319.053 100.75 318.77 101.133L312.066 96.1778ZM310.801 100.609C310.801 101.806 310.97 103.52 312.017 104.998L318.819 100.179C319.068 100.53 319.136 100.807 319.146 100.855C319.158 100.907 319.137 100.841 319.137 100.609H310.801ZM312.136 105.157C313.236 106.563 314.856 107.364 316.659 107.364V99.0276C316.969 99.0276 317.375 99.093 317.798 99.3C318.22 99.5066 318.516 99.784 318.7 100.02L312.136 105.157ZM316.659 107.364C318.496 107.364 320.088 106.521 321.155 105.157L314.591 100.02C314.762 99.8015 315.047 99.5264 315.468 99.3158C315.895 99.1025 316.317 99.0276 316.659 99.0276V107.364ZM321.208 105.089C322.329 103.594 322.516 101.838 322.516 100.609H314.18C314.18 100.828 314.159 100.876 314.177 100.804C314.194 100.732 314.273 100.441 314.539 100.088L321.208 105.089ZM326.479 100.078H330.148V91.7419H326.479V100.078ZM326.518 93.8618L316.196 112.155L323.457 116.251L333.778 97.9581L326.518 93.8618ZM319.827 110.035H316.157V118.371H319.827V110.035ZM319.787 116.251L330.109 97.9581L322.849 93.8618L312.527 112.155L319.787 116.251ZM330.203 109.505C330.203 109.986 330.141 110.256 330.101 110.378C330.066 110.481 330.052 110.466 330.098 110.419L336.111 116.192C337.934 114.294 338.539 111.844 338.539 109.505H330.203ZM330.098 110.419C330.091 110.426 330.094 110.422 330.104 110.415C330.115 110.408 330.121 110.407 330.113 110.409C330.101 110.414 329.983 110.458 329.699 110.458V118.794C332.052 118.794 334.347 118.03 336.111 116.192L330.098 110.419ZM329.699 110.458C329.415 110.458 329.298 110.414 329.285 110.409C329.278 110.407 329.283 110.408 329.294 110.415C329.305 110.422 329.307 110.426 329.301 110.419L323.287 116.192C325.051 118.03 327.347 118.794 329.699 118.794V110.458ZM329.301 110.419C329.346 110.466 329.332 110.481 329.298 110.378C329.257 110.256 329.195 109.986 329.195 109.505H320.859C320.859 111.844 321.464 114.294 323.287 116.192L329.301 110.419ZM329.195 109.505C329.195 109.023 329.257 108.753 329.298 108.632C329.332 108.528 329.346 108.543 329.301 108.59L323.287 102.817C321.464 104.716 320.859 107.165 320.859 109.505H329.195ZM329.301 108.59C329.307 108.583 329.305 108.587 329.294 108.594C329.283 108.601 329.278 108.603 329.285 108.6C329.298 108.595 329.415 108.551 329.699 108.551V100.215C327.347 100.215 325.051 100.979 323.287 102.817L329.301 108.59ZM329.699 108.551C329.983 108.551 330.101 108.595 330.113 108.6C330.121 108.603 330.115 108.601 330.104 108.594C330.094 108.587 330.091 108.583 330.098 108.59L336.111 102.817C334.347 100.979 332.052 100.215 329.699 100.215V108.551ZM330.098 108.59C330.052 108.543 330.066 108.528 330.101 108.632C330.141 108.753 330.203 109.023 330.203 109.505H338.539C338.539 107.165 337.934 104.716 336.111 102.817L330.098 108.59ZM335.557 109.505C335.557 108.299 335.379 106.494 334.196 104.982L327.631 110.12C327.331 109.736 327.24 109.411 327.22 109.328C327.199 109.244 327.221 109.283 327.221 109.505H335.557ZM334.196 104.982C333.129 103.619 331.537 102.776 329.699 102.776V111.112C329.357 111.112 328.935 111.037 328.508 110.824C328.087 110.613 327.802 110.338 327.631 110.12L334.196 104.982ZM329.699 102.776C327.896 102.776 326.276 103.577 325.176 104.982L331.741 110.12C331.556 110.356 331.26 110.633 330.838 110.84C330.415 111.047 330.009 111.112 329.699 111.112V102.776ZM325.107 105.074C324.001 106.569 323.842 108.331 323.842 109.505H332.178C332.178 109.27 332.199 109.212 332.184 109.276C332.171 109.335 332.093 109.646 331.81 110.029L325.107 105.074ZM323.842 109.505C323.842 110.702 324.011 112.416 325.057 113.894L331.86 109.075C332.108 109.426 332.176 109.703 332.187 109.751C332.199 109.803 332.178 109.737 332.178 109.505H323.842ZM325.176 114.053C326.276 115.459 327.896 116.26 329.699 116.26V107.924C330.009 107.924 330.415 107.989 330.838 108.196C331.26 108.403 331.556 108.68 331.741 108.916L325.176 114.053ZM329.699 116.26C331.537 116.26 333.129 115.417 334.196 114.053L327.631 108.916C327.802 108.697 328.087 108.422 328.508 108.212C328.935 107.998 329.357 107.924 329.699 107.924V116.26ZM334.248 113.985C335.369 112.49 335.557 110.734 335.557 109.505H327.221C327.221 109.724 327.2 109.772 327.217 109.7C327.234 109.628 327.314 109.337 327.579 108.984L334.248 113.985Z" fill="black"/>
<path d="M80.6421 94.0877V97.6997H106.402V94.0877H80.6421ZM118.694 90.8677C119.31 91.9597 119.814 93.4437 119.954 94.3957L122.054 93.5557C121.886 92.5757 121.298 91.1477 120.626 90.0837L118.694 90.8677ZM118.414 89.4397H122.39V94.8437C121.018 94.9837 119.674 95.1237 118.414 95.2357V89.4397ZM126.338 96.9717L126.254 94.4237L125.078 94.5637V86.8637H121.41C121.802 85.9117 122.25 84.7637 122.67 83.6157L119.114 83.0557C119.002 84.1757 118.666 85.6597 118.358 86.8637H115.81V95.4877L113.85 95.6557L114.186 98.3157L115.81 98.1477C115.754 101.34 115.474 105.092 113.85 107.752C114.494 108.032 115.614 108.76 116.09 109.208C117.966 106.212 118.358 101.536 118.414 97.8397L122.39 97.4197V106.212C122.39 106.548 122.306 106.66 121.97 106.66C121.69 106.66 120.766 106.66 119.87 106.632C120.206 107.332 120.57 108.508 120.654 109.236C122.25 109.236 123.286 109.18 124.07 108.732C124.882 108.256 125.078 107.528 125.078 106.268V97.1117L126.338 96.9717ZM121.242 98.2037H119.338V104.588H121.242V98.2037ZM135.13 97.8117C134.542 99.3517 133.702 100.724 132.666 101.9C131.686 100.696 130.93 99.3237 130.37 97.8117H135.13ZM137.006 94.7877L136.474 94.8997H128.074C130.37 93.1077 130.818 90.1957 130.818 87.8157V86.9757H133.786V90.3077C133.786 92.0437 133.982 92.6597 134.43 93.1077C134.878 93.5837 135.634 93.8077 136.306 93.8077H137.762C138.266 93.8077 138.882 93.6957 139.274 93.4717C139.694 93.2757 140.03 92.8837 140.226 92.3517C140.422 91.8477 140.534 90.6157 140.618 89.4677C139.806 89.2157 138.77 88.6837 138.238 88.2357C138.21 89.2997 138.182 90.1677 138.126 90.5597C138.07 90.9237 138.014 91.0917 137.902 91.1477C137.818 91.2317 137.678 91.2597 137.538 91.2597H137.09C136.978 91.2597 136.866 91.2317 136.81 91.1197C136.754 91.0357 136.782 90.7557 136.782 90.2797V84.0917H127.878V87.7597C127.878 89.4677 127.682 91.5117 125.694 93.0517C126.31 93.4157 127.514 94.3957 128.018 94.8997H126.842V97.8117H130.258L127.682 98.3997C128.41 100.5 129.362 102.32 130.538 103.888C129.054 105.036 127.29 105.904 125.358 106.464C125.974 107.136 126.758 108.424 127.122 109.236C129.222 108.48 131.126 107.5 132.75 106.212C134.346 107.556 136.278 108.564 138.602 109.208C139.05 108.368 139.89 107.108 140.59 106.464C138.406 105.988 136.558 105.148 135.018 104.056C136.894 101.872 138.294 99.0437 139.106 95.4877L137.006 94.7877ZM170.186 83.7277C169.626 85.4077 168.562 87.6477 167.722 89.0757L170.606 90.1397C171.474 88.8237 172.538 86.8357 173.434 84.8757L170.186 83.7277ZM151.258 109.096C152.77 106.268 154.31 103.048 155.598 100.052L153.134 98.0357C151.622 101.312 149.718 104.84 148.318 106.968L151.258 109.096ZM154.562 93.8917C153.442 92.8557 151.174 91.5117 149.438 90.6997L147.562 93.0517C149.326 93.9757 151.538 95.4317 152.574 96.4957L154.562 93.8917ZM148.85 85.6597C150.558 86.5837 152.742 88.0397 153.722 89.1037L155.794 86.5277C154.702 85.4637 152.518 84.1197 150.782 83.3357L148.85 85.6597ZM161.87 88.9637C161.45 87.5077 160.246 85.4637 159.126 83.9237L156.326 85.1557C157.418 86.7797 158.51 88.9637 158.846 90.3357L161.87 88.9637ZM160.47 100.92V98.8197H168.954V100.92H160.47ZM168.954 93.9757V96.0197H160.47V93.9757H168.954ZM172.202 90.8677H166.49V83.0837H163.13V90.8677H157.194V109.18H160.47V103.72H168.954V105.568C168.954 105.932 168.814 106.072 168.394 106.1C167.946 106.1 166.49 106.1 165.202 106.016C165.65 106.884 166.098 108.256 166.21 109.152C168.31 109.152 169.822 109.124 170.858 108.592C171.922 108.088 172.202 107.22 172.202 105.596V90.8677ZM188.414 101.928H200.454V103.076H188.414V101.928ZM195.806 92.3797V94.2277H190.71C191.326 93.6677 191.774 93.0517 192.082 92.3797H195.806ZM186.79 89.3277H189.646C189.646 89.7197 189.59 90.0837 189.478 90.4197H186.426L186.79 89.3277ZM192.698 86.2757H195.806V87.3957H192.698V86.2757ZM201.882 86.2757V87.3957H198.97V86.2757H201.882ZM195.806 90.4197H192.614C192.642 90.0557 192.67 89.6917 192.698 89.3277H195.806V90.4197ZM203.45 92.3797C203.394 92.7997 203.31 93.0517 203.198 93.1917C203.03 93.3877 202.862 93.3877 202.61 93.3877C202.302 93.4157 201.714 93.3877 201.07 93.3037C201.182 93.5557 201.322 93.8917 201.406 94.2277H198.97V92.3797H203.45ZM200.454 97.2237H188.414V96.1317H200.454V97.2237ZM200.454 100.136H188.414V99.0157H200.454V100.136ZM203.842 104.98V95.3197C204.01 95.3197 204.15 95.2917 204.262 95.2917C204.85 95.2637 205.466 95.0397 205.886 94.6197C206.362 94.1157 206.53 93.1077 206.67 91.2877C206.698 90.9797 206.726 90.4197 206.726 90.4197H198.97V89.3277H204.906V84.3157H198.97V83.1117H195.806V84.3157H192.698V83.1117H189.674V84.3157H183.318V86.2757H189.674V87.3957H184.354C183.878 89.0477 183.206 91.0637 182.59 92.4357L185.614 92.6317L185.698 92.3797H188.162C187.014 93.3037 184.998 94.0037 181.526 94.4517C182.03 95.0677 182.814 96.3277 183.094 97.0277C183.85 96.9157 184.522 96.8037 185.166 96.6637V104.98H188.974C187.014 105.792 184.158 106.492 181.554 106.94C182.254 107.5 183.43 108.676 183.962 109.32C186.818 108.62 190.374 107.36 192.698 105.988L190.486 104.98H197.962L195.834 106.296C198.746 107.248 201.658 108.424 203.31 109.264L207.006 107.668C205.242 106.912 202.302 105.848 199.614 104.98H203.842ZM233.774 87.2557H221.902V86.1077H233.774V87.2557ZM233.774 90.4477H221.902V89.2717H233.774V90.4477ZM237.106 83.9797H218.71V92.5757H237.106V83.9797ZM235.51 99.8277C235.006 100.836 234.362 101.76 233.606 102.572C232.85 101.76 232.206 100.836 231.73 99.8277H235.51ZM220.67 103.16H224.31V104.252C223.078 104.364 221.846 104.448 220.67 104.532V103.16ZM220.67 99.6877H224.31V100.864H220.67V99.6877ZM224.31 96.2437V97.3637H220.67V96.2437H224.31ZM237.47 97.1677L236.91 97.2797H228.202V99.8277H230.778L228.93 100.332C229.602 101.872 230.47 103.272 231.478 104.476C230.302 105.344 228.93 106.016 227.502 106.492V96.2437H240.326V93.6117H215.434V96.2437H217.618V104.756C216.75 104.84 215.91 104.868 215.182 104.924L215.434 107.78C217.898 107.556 221.09 107.276 224.31 106.968V109.236H227.502V106.968C228.062 107.64 228.678 108.564 228.986 109.208C230.722 108.564 232.318 107.696 233.746 106.604C235.23 107.752 236.966 108.62 238.954 109.208C239.402 108.424 240.27 107.22 240.914 106.604C239.066 106.156 237.386 105.456 235.986 104.532C237.554 102.768 238.758 100.584 239.514 97.9517L237.47 97.1677ZM263.874 104.7H259.03V102.88H263.874V104.7ZM272.834 96.6357H250.378V109.236H253.626V99.4077H269.474V105.652C269.474 105.988 269.362 106.072 268.942 106.1C268.634 106.128 267.766 106.128 266.814 106.1V100.668H256.118V108.2H259.03V106.94H266.254C266.562 107.668 266.814 108.536 266.898 109.18C268.914 109.18 270.398 109.152 271.434 108.648C272.526 108.144 272.834 107.248 272.834 105.708V96.6357ZM265.75 93.2197H257.014V91.5117H265.75V93.2197ZM253.85 89.2997V95.4597H269.138V89.2997H253.85ZM263.006 85.4077V83.0557H259.618V85.4077H249.258V88.2357H273.73V85.4077H263.006Z" fill="black"/>
<path d="M402.798 85.3039V41.2973H761.573L758.289 43.7317C739.235 57.8561 729.731 81.4865 733.698 104.871L734.493 109.553H361.412L402.184 86.3606L402.798 86.011V85.3039Z" fill="#F04928" stroke="black" stroke-width="2.43134"/>
<path d="M394.315 33.7638H767.266L758.62 38.2748C735.269 50.458 722.245 76.0607 726.036 102.019H352.939L354.402 101.187C378.729 87.3488 393.887 61.6874 394.315 33.7638Z" fill="#FFC232" stroke="black" stroke-width="2.43134"/>
<path d="M603.85 56.7376C605.032 56.2486 606.254 55.6984 607.518 55.0871C608.822 54.435 610.085 53.7422 611.308 53.0086C612.531 52.2343 613.692 51.4396 614.792 50.6245C615.934 49.7687 616.952 48.8721 617.849 47.9348H624.207V90.2984H615.098V59.7941C613.875 60.6092 612.51 61.3632 611.002 62.056C609.494 62.708 608.027 63.2786 606.601 63.7676L603.85 56.7376ZM656.322 77.8277C656.322 76.6459 656.057 75.6066 655.527 74.71C654.998 73.7727 654.081 72.9984 652.777 72.3871C651.472 71.7758 649.72 71.3071 647.519 70.9811C645.319 70.655 642.547 70.492 639.206 70.492C639.654 66.7019 640.021 62.8507 640.306 58.9383C640.591 55.0259 640.815 51.3581 640.978 47.9348H663.902V55.5761H648.62C648.538 57.0433 648.436 58.4696 648.314 59.8553C648.233 61.2001 648.131 62.382 648.008 63.4009C653.958 63.8084 658.34 65.2144 661.152 67.6189C664.004 69.9826 665.431 73.2837 665.431 77.5221C665.431 79.4783 665.084 81.2918 664.391 82.9627C663.699 84.6336 662.659 86.0804 661.274 87.303C659.888 88.5256 658.136 89.4833 656.017 90.1761C653.938 90.869 651.493 91.2154 648.681 91.2154C647.58 91.2154 646.419 91.1339 645.196 90.9708C644.015 90.8486 642.853 90.6652 641.712 90.4207C640.612 90.2169 639.613 89.9927 638.717 89.7482C637.82 89.5037 637.127 89.2592 636.638 89.0147L638.289 81.4956C639.307 81.9439 640.652 82.3922 642.323 82.8404C643.994 83.248 645.991 83.4518 648.314 83.4518C651.126 83.4518 653.164 82.9016 654.427 81.8012C655.691 80.6601 656.322 79.3356 656.322 77.8277Z" fill="white"/>
<path d="M603.85 56.7376L602.256 52.8863L598.479 54.4494L599.969 58.2564L603.85 56.7376ZM607.518 55.0871L609.333 58.8389L609.358 58.8272L609.382 58.8151L607.518 55.0871ZM611.308 53.0086L613.452 56.5827L613.496 56.5568L613.538 56.5298L611.308 53.0086ZM614.792 50.6245L617.273 53.9738L617.283 53.9664L617.293 53.9589L614.792 50.6245ZM617.849 47.9348V43.7668H616.068L614.837 45.0537L617.849 47.9348ZM624.207 47.9348H628.375V43.7668H624.207V47.9348ZM624.207 90.2984V94.4664H628.375V90.2984H624.207ZM615.098 90.2984H610.93V94.4664H615.098V90.2984ZM615.098 59.7941H619.266V52.0061L612.786 56.3261L615.098 59.7941ZM611.002 62.056L612.657 65.8816L612.7 65.863L612.742 65.8434L611.002 62.056ZM606.601 63.7676L602.719 65.2865L604.175 69.0056L607.953 67.7104L606.601 63.7676ZM605.444 60.5889C606.707 60.0661 608.004 59.4822 609.333 58.8389L605.702 51.3352C604.505 51.9146 603.357 52.431 602.256 52.8863L605.444 60.5889ZM609.382 58.8151C610.779 58.1164 612.136 57.3723 613.452 56.5827L609.164 49.4346C608.034 50.112 606.865 50.7537 605.654 51.3591L609.382 58.8151ZM613.538 56.5298C614.842 55.7043 616.087 54.8525 617.273 53.9738L612.312 47.2753C611.297 48.0267 610.22 48.7643 609.078 49.4874L613.538 56.5298ZM617.293 53.9589C618.599 52.9796 619.792 51.9334 620.861 50.8158L614.837 45.0537C614.113 45.8109 613.268 46.5578 612.292 47.2901L617.293 53.9589ZM617.849 52.1028H624.207V43.7668H617.849V52.1028ZM620.039 47.9348V90.2984H628.375V47.9348H620.039ZM624.207 86.1304H615.098V94.4664H624.207V86.1304ZM619.266 90.2984V59.7941H610.93V90.2984H619.266ZM612.786 56.3261C611.767 57.0056 610.596 57.6556 609.262 58.2686L612.742 65.8434C614.424 65.0707 615.984 64.2129 617.41 63.2621L612.786 56.3261ZM609.348 58.2303C607.931 58.8432 606.565 59.3739 605.249 59.8249L607.953 67.7104C609.49 67.1833 611.058 66.5729 612.657 65.8816L609.348 58.2303ZM610.482 62.2488L607.731 55.2188L599.969 58.2564L602.719 65.2865L610.482 62.2488ZM655.528 74.71L651.899 76.7609L651.919 76.7959L651.939 76.8304L655.528 74.71ZM652.777 72.3871L651.008 76.161H651.008L652.777 72.3871ZM639.206 70.492L635.066 70.0024L634.516 74.66H639.206V70.492ZM640.306 58.9383L644.463 59.2414L640.306 58.9383ZM640.978 47.9348V43.7668H637.004L636.815 47.7365L640.978 47.9348ZM663.902 47.9348H668.07V43.7668H663.902V47.9348ZM663.902 55.5761V59.7441H668.07V55.5761H663.902ZM648.62 55.5761V51.4081H644.677L644.458 55.3449L648.62 55.5761ZM648.314 59.8553L644.162 59.4889L644.157 59.546L644.154 59.6031L648.314 59.8553ZM648.008 63.4009L643.87 62.9043L643.347 67.2594L647.724 67.5591L648.008 63.4009ZM661.152 67.6189L658.443 70.7867L658.467 70.8077L658.492 70.8283L661.152 67.6189ZM664.391 82.9627L668.242 84.5591L664.391 82.9627ZM661.274 87.303L658.516 84.1777L661.274 87.303ZM656.017 90.1761L654.721 86.2145L654.71 86.2182L654.699 86.222L656.017 90.1761ZM645.196 90.9708L645.747 86.8394L645.686 86.8313L645.625 86.825L645.196 90.9708ZM641.712 90.4207L642.585 86.3452L642.528 86.333L642.471 86.3223L641.712 90.4207ZM638.717 89.7482L639.813 85.7271L638.717 89.7482ZM636.638 89.0147L632.567 88.121L631.871 91.2911L634.774 92.7426L636.638 89.0147ZM638.289 81.4956L639.967 77.6805L635.309 75.6308L634.218 80.6019L638.289 81.4956ZM642.323 82.8404L641.243 86.8661L641.289 86.8784L641.336 86.8898L642.323 82.8404ZM654.427 81.8012L657.165 84.9442L657.193 84.9195L657.221 84.8943L654.427 81.8012ZM660.49 77.8277C660.49 76.0025 660.074 74.2114 659.116 72.5897L651.939 76.8304C652.04 77.0019 652.154 77.2892 652.154 77.8277H660.49ZM659.156 72.6592C658.078 70.7513 656.373 69.4695 654.546 68.6131L651.008 76.161C651.789 76.5273 651.918 76.7942 651.899 76.7609L659.156 72.6592ZM654.546 68.6131C652.732 67.763 650.539 67.2149 648.13 66.8581L646.909 75.1041C648.901 75.3993 650.213 75.7886 651.008 76.161L654.546 68.6131ZM648.13 66.8581C645.654 66.4912 642.661 66.324 639.206 66.324V74.66C642.434 74.66 644.983 74.8189 646.909 75.1041L648.13 66.8581ZM643.345 70.9816C643.801 67.1278 644.173 63.2143 644.463 59.2414L636.149 58.6352C635.868 62.487 635.507 66.276 635.066 70.0024L643.345 70.9816ZM644.463 59.2414C644.75 55.299 644.977 51.5959 645.142 48.133L636.815 47.7365C636.654 51.1203 636.432 54.7529 636.149 58.6352L644.463 59.2414ZM640.978 52.1028H663.902V43.7668H640.978V52.1028ZM659.734 47.9348V55.5761H668.07V47.9348H659.734ZM663.902 51.4081H648.62V59.7441H663.902V51.4081ZM644.458 55.3449C644.379 56.7695 644.28 58.1507 644.162 59.4889L652.466 60.2216C652.592 58.7886 652.697 57.317 652.781 55.8073L644.458 55.3449ZM644.154 59.6031C644.076 60.8899 643.98 61.9872 643.87 62.9043L652.147 63.8975C652.281 62.7768 652.389 61.5104 652.474 60.1074L644.154 59.6031ZM647.724 67.5591C653.284 67.94 656.615 69.2238 658.443 70.7867L663.86 64.451C660.064 61.205 654.633 59.6768 648.293 59.2426L647.724 67.5591ZM658.492 70.8283C660.245 72.2807 661.263 74.3244 661.263 77.5221H669.599C669.599 72.2429 667.763 67.6845 663.811 64.4094L658.492 70.8283ZM661.263 77.5221C661.263 78.9754 661.008 80.2414 660.541 81.3663L668.242 84.5591C669.161 82.3421 669.599 79.9811 669.599 77.5221H661.263ZM660.541 81.3663C660.097 82.4381 659.437 83.3655 658.516 84.1777L664.031 90.4283C665.882 88.7953 667.3 86.8291 668.242 84.5591L660.541 81.3663ZM658.516 84.1777C657.634 84.9557 656.41 85.6623 654.721 86.2145L657.312 94.1378C659.861 93.3043 662.142 92.0955 664.031 90.4283L658.516 84.1777ZM654.699 86.222C653.146 86.7395 651.165 87.0474 648.681 87.0474V95.3834C651.82 95.3834 654.73 94.9984 657.335 94.1303L654.699 86.222ZM648.681 87.0474C647.785 87.0474 646.809 86.9809 645.747 86.8394L644.646 95.1023C646.029 95.2868 647.376 95.3834 648.681 95.3834V87.0474ZM645.625 86.825C644.59 86.7179 643.577 86.5577 642.585 86.3452L640.839 94.4962C642.129 94.7727 643.439 94.9793 644.768 95.1167L645.625 86.825ZM642.471 86.3223C641.462 86.1355 640.579 85.9358 639.813 85.7271L637.62 93.7694C638.648 94.0497 639.761 94.2983 640.953 94.519L642.471 86.3223ZM639.813 85.7271C639.025 85.5122 638.634 85.3527 638.502 85.2867L634.774 92.7426C635.62 93.1657 636.615 93.4952 637.62 93.7694L639.813 85.7271ZM640.709 89.9083L642.36 82.3892L634.218 80.6019L632.567 88.121L640.709 89.9083ZM636.61 85.3106C637.898 85.8774 639.467 86.3894 641.243 86.8661L643.403 78.8148C641.838 78.3949 640.717 78.0104 639.967 77.6805L636.61 85.3106ZM641.336 86.8898C643.42 87.3981 645.766 87.6198 648.314 87.6198V79.2837C646.216 79.2837 644.568 79.0978 643.311 78.7911L641.336 86.8898ZM648.314 87.6198C651.501 87.6198 654.773 87.027 657.165 84.9442L651.69 78.6582C651.554 78.7761 650.751 79.2837 648.314 79.2837V87.6198ZM657.221 84.8943C659.234 83.076 660.49 80.6733 660.49 77.8277H652.154C652.154 77.9979 652.147 78.2443 651.633 78.7081L657.221 84.8943Z" fill="black"/>
<path d="M680.625 77.6612C680.625 79.3154 680.202 80.5825 679.358 81.4624C678.513 82.3423 677.378 82.7823 675.952 82.7823C674.527 82.7823 673.392 82.3423 672.547 81.4624C671.702 80.5825 671.28 79.3154 671.28 77.6612C671.28 76.007 671.702 74.7399 672.547 73.86C673.392 72.9801 674.527 72.5401 675.952 72.5401C677.378 72.5401 678.513 72.9801 679.358 73.86C680.202 74.7399 680.625 76.007 680.625 77.6612ZM677.642 77.6612C677.642 76.7637 677.483 76.1126 677.167 75.7078C676.85 75.303 676.445 75.1007 675.952 75.1007C675.442 75.1007 675.028 75.303 674.712 75.7078C674.412 76.1126 674.263 76.7637 674.263 77.6612C674.263 78.5587 674.412 79.2186 674.712 79.641C675.028 80.0458 675.442 80.2481 675.952 80.2481C676.445 80.2481 676.85 80.0458 677.167 79.641C677.483 79.2186 677.642 78.5587 677.642 77.6612ZM685.772 72.9625H689.441L679.12 91.2559H675.451L685.772 72.9625ZM693.665 86.5571C693.665 88.2114 693.243 89.4784 692.398 90.3583C691.553 91.2383 690.418 91.6782 688.993 91.6782C687.567 91.6782 686.432 91.2383 685.587 90.3583C684.743 89.4784 684.32 88.2114 684.32 86.5571C684.32 84.9029 684.743 83.6358 685.587 82.7559C686.432 81.876 687.567 81.436 688.993 81.436C690.418 81.436 691.553 81.876 692.398 82.7559C693.243 83.6358 693.665 84.9029 693.665 86.5571ZM690.682 86.5571C690.682 85.6596 690.524 85.0085 690.207 84.6037C689.89 84.199 689.485 83.9966 688.993 83.9966C688.482 83.9966 688.069 84.199 687.752 84.6037C687.453 85.0085 687.303 85.6596 687.303 86.5571C687.303 87.4546 687.453 88.1146 687.752 88.5369C688.069 88.9417 688.482 89.1441 688.993 89.1441C689.485 89.1441 689.89 88.9417 690.207 88.5369C690.524 88.1146 690.682 87.4546 690.682 86.5571Z" fill="white"/>
<path d="M672.547 81.4624L669.54 84.3489H669.54L672.547 81.4624ZM672.547 73.86L669.54 70.9735L669.54 70.9735L672.547 73.86ZM677.167 75.7078L673.884 78.2766L677.167 75.7078ZM674.712 75.7078L671.429 73.139L671.394 73.1842L671.36 73.2304L674.712 75.7078ZM674.712 79.641L671.31 82.0502L671.368 82.1314L671.429 82.2098L674.712 79.641ZM677.167 79.641L680.449 82.2098L680.475 82.1761L680.501 82.1418L677.167 79.641ZM685.772 72.9625V68.7945H683.338L682.142 70.9143L685.772 72.9625ZM689.441 72.9625L693.071 75.0106L696.579 68.7945H689.441V72.9625ZM679.12 91.2559V95.4239H681.554L682.75 93.304L679.12 91.2559ZM675.451 91.2559L671.821 89.2077L668.313 95.4239H675.451V91.2559ZM692.398 90.3583L695.405 93.2448L692.398 90.3583ZM685.587 90.3583L682.581 93.2448L685.587 90.3583ZM685.587 82.7559L682.581 79.8694L682.581 79.8694L685.587 82.7559ZM692.398 82.7559L695.405 79.8694L695.405 79.8694L692.398 82.7559ZM690.207 84.6037L686.925 87.1725V87.1725L690.207 84.6037ZM687.752 84.6037L684.47 82.0349L684.434 82.0801L684.4 82.1263L687.752 84.6037ZM687.752 88.5369L684.351 90.9461L684.408 91.0273L684.47 91.1057L687.752 88.5369ZM690.207 88.5369L693.489 91.1057L693.516 91.072L693.541 91.0377L690.207 88.5369ZM676.457 77.6612C676.457 78.1429 676.394 78.413 676.354 78.5341C676.319 78.6375 676.306 78.6231 676.351 78.5759L682.364 84.3489C684.187 82.4503 684.793 80.0003 684.793 77.6612H676.457ZM676.351 78.5759C676.344 78.5829 676.347 78.5791 676.358 78.5719C676.368 78.5646 676.374 78.5632 676.366 78.566C676.354 78.5709 676.236 78.6143 675.952 78.6143V86.9503C678.305 86.9503 680.6 86.1863 682.364 84.3489L676.351 78.5759ZM675.952 78.6143C675.668 78.6143 675.551 78.5709 675.538 78.566C675.531 78.5632 675.536 78.5646 675.547 78.5719C675.558 78.5791 675.561 78.5829 675.554 78.5759L669.54 84.3489C671.304 86.1863 673.6 86.9503 675.952 86.9503V78.6143ZM675.554 78.5759C675.599 78.6231 675.585 78.6375 675.551 78.5341C675.511 78.413 675.448 78.1429 675.448 77.6612H667.112C667.112 80.0003 667.718 82.4503 669.54 84.3489L675.554 78.5759ZM675.448 77.6612C675.448 77.1795 675.511 76.9094 675.551 76.7883C675.585 76.6849 675.599 76.6993 675.554 76.7465L669.54 70.9735C667.718 72.8721 667.112 75.3221 667.112 77.6612H675.448ZM675.554 76.7465C675.561 76.7395 675.558 76.7433 675.547 76.7505C675.536 76.7578 675.531 76.7592 675.538 76.7564C675.551 76.7515 675.668 76.7081 675.952 76.7081V68.3721C673.6 68.3721 671.304 69.1361 669.54 70.9735L675.554 76.7465ZM675.952 76.7081C676.236 76.7081 676.354 76.7515 676.366 76.7564C676.374 76.7592 676.368 76.7578 676.358 76.7505C676.347 76.7433 676.344 76.7395 676.351 76.7465L682.364 70.9735C680.6 69.1361 678.305 68.3721 675.952 68.3721V76.7081ZM676.351 76.7465C676.306 76.6993 676.319 76.6849 676.354 76.7883C676.394 76.9094 676.457 77.1795 676.457 77.6612H684.793C684.793 75.3221 684.187 72.8721 682.364 70.9735L676.351 76.7465ZM681.81 77.6612C681.81 76.4552 681.632 74.6503 680.449 73.139L673.884 78.2766C673.584 77.8926 673.493 77.5681 673.473 77.4848C673.452 77.4002 673.474 77.44 673.474 77.6612H681.81ZM680.449 73.139C679.382 71.7754 677.79 70.9326 675.952 70.9326V79.2687C675.61 79.2687 675.188 79.1937 674.761 78.9804C674.34 78.7698 674.055 78.4947 673.884 78.2766L680.449 73.139ZM675.952 70.9326C674.15 70.9326 672.529 71.7332 671.429 73.139L677.994 78.2766C677.81 78.5122 677.514 78.7896 677.091 78.9962C676.668 79.2032 676.263 79.2687 675.952 79.2687V70.9326ZM671.36 73.2304C670.255 74.7257 670.095 76.4878 670.095 77.6612H678.431C678.431 77.4268 678.452 77.3685 678.437 77.4329C678.424 77.492 678.346 77.8028 678.063 78.1852L671.36 73.2304ZM670.095 77.6612C670.095 78.8587 670.264 80.5726 671.31 82.0502L678.113 77.2318C678.361 77.5826 678.429 77.8595 678.44 77.9079C678.452 77.9599 678.431 77.8939 678.431 77.6612H670.095ZM671.429 82.2098C672.529 83.6156 674.15 84.4162 675.952 84.4162V76.0801C676.263 76.0801 676.668 76.1456 677.091 76.3526C677.514 76.5592 677.81 76.8366 677.994 77.0722L671.429 82.2098ZM675.952 84.4162C677.79 84.4162 679.382 83.5734 680.449 82.2098L673.884 77.0722C674.055 76.8541 674.34 76.579 674.761 76.3684C675.188 76.1551 675.61 76.0801 675.952 76.0801V84.4162ZM680.501 82.1418C681.622 80.6467 681.81 78.8909 681.81 77.6612H673.474C673.474 77.8806 673.453 77.9284 673.47 77.8566C673.487 77.7849 673.567 77.494 673.832 77.1402L680.501 82.1418ZM685.772 77.1305H689.441V68.7945H685.772V77.1305ZM685.811 70.9143L675.49 89.2077L682.75 93.304L693.071 75.0106L685.811 70.9143ZM679.12 87.0878H675.451V95.4239H679.12V87.0878ZM679.081 93.304L689.402 75.0106L682.142 70.9143L671.821 89.2077L679.081 93.304ZM689.497 86.5571C689.497 87.0388 689.434 87.309 689.394 87.4301C689.36 87.5335 689.346 87.519 689.391 87.4719L695.405 93.2448C697.227 91.3462 697.833 88.8962 697.833 86.5571H689.497ZM689.391 87.4719C689.384 87.4789 689.387 87.475 689.398 87.4678C689.409 87.4605 689.414 87.4591 689.407 87.462C689.394 87.4668 689.277 87.5102 688.993 87.5102V95.8462C691.345 95.8462 693.641 95.0822 695.405 93.2448L689.391 87.4719ZM688.993 87.5102C688.709 87.5102 688.591 87.4668 688.579 87.462C688.571 87.4591 688.576 87.4605 688.587 87.4678C688.598 87.475 688.601 87.4789 688.594 87.4719L682.581 93.2448C684.345 95.0822 686.64 95.8462 688.993 95.8462V87.5102ZM688.594 87.4719C688.639 87.519 688.626 87.5335 688.591 87.4301C688.551 87.309 688.488 87.0388 688.488 86.5571H680.152C680.152 88.8962 680.758 91.3462 682.581 93.2448L688.594 87.4719ZM688.488 86.5571C688.488 86.0755 688.551 85.8053 688.591 85.6842C688.626 85.5808 688.639 85.5952 688.594 85.6424L682.581 79.8694C680.758 81.7681 680.152 84.218 680.152 86.5571H688.488ZM688.594 85.6424C688.601 85.6354 688.598 85.6392 688.587 85.6465C688.576 85.6537 688.571 85.6552 688.579 85.6523C688.591 85.6474 688.709 85.604 688.993 85.604V77.268C686.64 77.268 684.345 78.032 682.581 79.8694L688.594 85.6424ZM688.993 85.604C689.277 85.604 689.394 85.6474 689.407 85.6523C689.414 85.6552 689.409 85.6537 689.398 85.6465C689.387 85.6392 689.384 85.6354 689.391 85.6424L695.405 79.8694C693.641 78.032 691.345 77.268 688.993 77.268V85.604ZM689.391 85.6424C689.346 85.5952 689.36 85.5808 689.394 85.6842C689.434 85.8053 689.497 86.0755 689.497 86.5571H697.833C697.833 84.218 697.227 81.7681 695.405 79.8694L689.391 85.6424ZM694.85 86.5571C694.85 85.3511 694.672 83.5463 693.489 82.0349L686.925 87.1725C686.624 86.7886 686.534 86.464 686.513 86.3808C686.493 86.2961 686.514 86.3359 686.514 86.5571H694.85ZM693.489 82.0349C692.422 80.6713 690.83 79.8286 688.993 79.8286V88.1646C688.651 88.1646 688.228 88.0896 687.802 87.8763C687.381 87.6658 687.095 87.3906 686.925 87.1725L693.489 82.0349ZM688.993 79.8286C687.19 79.8286 685.57 80.6292 684.47 82.0349L691.034 87.1725C690.85 87.4081 690.554 87.6856 690.132 87.8921C689.709 88.0992 689.303 88.1646 688.993 88.1646V79.8286ZM684.4 82.1263C683.295 83.6216 683.135 85.3837 683.135 86.5571H691.471C691.471 86.3227 691.492 86.2644 691.478 86.3288C691.464 86.3879 691.386 86.6988 691.104 87.0811L684.4 82.1263ZM683.135 86.5571C683.135 87.7546 683.304 89.4685 684.351 90.9461L691.153 86.1277C691.402 86.4786 691.469 86.7555 691.48 86.8038C691.492 86.8558 691.471 86.7898 691.471 86.5571H683.135ZM684.47 91.1057C685.57 92.5115 687.19 93.3121 688.993 93.3121V84.9761C689.303 84.9761 689.709 85.0415 690.132 85.2485C690.554 85.4551 690.85 85.7325 691.034 85.9681L684.47 91.1057ZM688.993 93.3121C690.83 93.3121 692.422 92.4694 693.489 91.1057L686.925 85.9681C687.095 85.75 687.381 85.4749 687.802 85.2643C688.228 85.051 688.651 84.9761 688.993 84.9761V93.3121ZM693.541 91.0377C694.663 89.5426 694.85 87.7868 694.85 86.5571H686.514C686.514 86.7765 686.493 86.8243 686.51 86.7525C686.528 86.6809 686.607 86.3899 686.873 86.0361L693.541 91.0377Z" fill="black"/>
<path d="M408.931 73.3349C408.8 75.5256 408.54 77.8466 407.888 79.3853C408.461 79.5939 409.505 80.0633 410 80.3763C410.626 78.7333 411.069 76.1515 411.278 73.7L408.931 73.3349ZM413.964 73.8826C414.46 75.4213 414.981 77.4033 415.138 78.7333L417.302 78.0031C417.094 76.6991 416.546 74.7693 416.024 73.2567L413.964 73.8826ZM412.165 69.2666C412.53 68.7189 412.921 68.1452 413.286 67.5454C413.521 68.0669 413.755 68.6146 413.99 69.1623L412.165 69.2666ZM421.996 69.3187H424.135V66.6326H421.996V64.3376H424.396V61.5993H421.996V58.3916H419.31V61.5993H416.781V64.3376H419.31V66.6326H417.12V69.3187H419.31V69.736C419.31 70.4141 419.31 71.0921 419.284 71.7702H417.224C416.937 70.2837 416.103 68.1973 415.242 66.5283L413.521 67.1802C414.564 65.5633 415.607 63.816 416.494 62.2774L414.068 61.2342C413.599 62.3817 412.947 63.7117 412.243 65.0418C412.034 64.7549 411.8 64.4419 411.539 64.1551C412.295 62.6946 413.182 60.6865 413.964 58.9392L411.356 58.1047C411.043 59.3826 410.496 60.9734 409.922 62.3556C409.739 62.173 409.583 61.9905 409.4 61.834L408.122 64.0247C409.087 65.0418 410.157 66.3457 410.861 67.4671C410.443 68.1452 410.052 68.7972 409.661 69.3709L407.966 69.4491L408.227 72.1614C409.192 72.0831 410.261 72.0049 411.382 71.9006V82.4365H413.938V71.6659L414.799 71.5876C414.929 72.0831 415.033 72.5526 415.085 72.9698L416.755 72.2657V74.4824H419.023C418.658 76.8817 417.824 79.0463 415.946 80.7936C416.598 81.1848 417.693 82.0454 418.241 82.6452C420.484 80.4285 421.423 77.6119 421.762 74.4824H424.448V71.7702H421.97C421.996 71.0921 421.996 70.4141 421.996 69.736V69.3187ZM430.42 59.3826L430.029 59.4869H424.813V82.4105H427.577V62.0427H429.325C429.038 63.9725 428.647 66.1371 428.203 68.432C429.429 70.9878 429.872 72.5004 429.872 73.9087C429.872 74.8475 429.742 75.682 429.455 75.9428C429.377 76.0993 429.168 76.1515 428.96 76.1515C428.725 76.1515 428.386 76.1515 428.125 76.1254C428.542 76.8556 428.699 77.977 428.699 78.7333C429.22 78.7594 429.69 78.7594 430.055 78.6812C430.603 78.5768 431.02 78.4204 431.385 78.1074C432.167 77.3772 432.559 75.9428 432.559 74.013C432.559 72.4482 431.985 70.6488 430.681 68.093C431.385 65.2765 431.985 62.6164 432.454 60.4257L430.42 59.3826ZM463.514 70.3358V67.2585H452.77V64.2333H460.724V61.2342H452.77V58.0786H449.458V67.2585H439.913V70.3358H449.458V82.4105H452.77V74.5085C455.378 75.4213 458.612 76.6731 460.307 77.5858L461.95 74.7693C459.942 73.7783 455.978 72.4482 453.37 71.6659L452.77 72.6308V70.3358H463.514ZM490.037 76.5948V79.0463H483.569V76.5948H490.037ZM480.779 82.4365H483.569V81.4977H490.037V82.3322H492.958V74.1434H480.779V82.4365ZM483.961 70.1272C485.082 69.084 486.047 67.9887 486.699 66.9716C487.429 68.0148 488.472 69.1101 489.62 70.1272H483.961ZM485.186 64.3115C485.082 64.468 484.978 64.6506 484.873 64.8331V63.0858H488.837V65.1722H491.758V63.0858H494.809V60.4518H491.758V58.1047H488.837V60.4518H484.873V58.1047H482.005V60.4518H479.11V63.0858H482.005V65.0939H484.691C483.439 66.9195 481.405 68.8754 479.214 70.2054L478.979 68.5624L477.076 69.084V65.8502H479.084V63.0076H477.076V58.1047H474.103V63.0076H471.077V65.8502H474.103V69.8925C472.773 70.2576 471.547 70.5705 470.556 70.7792L471.208 73.7783C472.094 73.5175 473.086 73.2306 474.103 72.9437V78.9159C474.103 79.3071 473.972 79.4114 473.659 79.4114C473.32 79.4374 472.251 79.4374 471.234 79.3853C471.625 80.2459 472.016 81.5759 472.094 82.4105C473.894 82.4105 475.12 82.3062 475.98 81.7846C476.815 81.3151 477.076 80.4806 477.076 78.9419V72.031L478.406 71.6137C478.797 72.1874 479.136 72.8916 479.345 73.3871C480.544 72.7873 481.692 72.031 482.761 71.1704V72.5786H490.845V71.1182C491.836 71.9006 492.88 72.5526 493.897 73.0741C494.314 72.1874 494.914 71.066 495.514 70.3619C492.697 69.2666 489.88 66.9455 488.003 64.3115H485.186ZM508.032 72.2657V70.6749H512.569V72.2657H508.032ZM508.032 66.763H512.569V68.3538H508.032V66.763ZM520.315 66.763V68.3538H515.751V66.763H520.315ZM520.315 72.2657H515.751V70.6749H520.315V72.2657ZM526.157 76.1515H515.751V74.7432H523.444V64.2855H515.751V63.0337H525.4V60.2171H515.751V58.1047H512.569V60.2171H503.103V63.0337H512.569V64.2855H505.059V74.7432H512.569V76.1515H502.477V78.9419H512.569V82.4626H515.751V78.9419H526.157V76.1515ZM551.036 61.9644H539.979V60.8952H551.036V61.9644ZM551.036 64.9374H539.979V63.8421H551.036V64.9374ZM554.14 58.9132H537.006V66.9195H554.14V58.9132ZM552.653 73.674C552.184 74.6128 551.584 75.4734 550.88 76.2297C550.175 75.4734 549.576 74.6128 549.132 73.674H552.653ZM538.831 76.7774H542.221V77.7945C541.074 77.8988 539.926 77.977 538.831 78.0553V76.7774ZM538.831 73.5436H542.221V74.6389H538.831V73.5436ZM542.221 70.3358V71.379H538.831V70.3358H542.221ZM554.479 71.1964L553.957 71.3008H545.846V73.674H548.246L546.524 74.1434C547.15 75.5777 547.959 76.8817 548.898 78.0031C547.802 78.8115 546.524 79.4374 545.194 79.8808V70.3358H557.139V67.8844H533.954V70.3358H535.988V78.2639C535.18 78.3421 534.398 78.3682 533.72 78.4204L533.954 81.0804C536.249 80.8718 539.222 80.611 542.221 80.3241V82.4365H545.194V80.3241C545.716 80.95 546.29 81.8107 546.577 82.4105C548.193 81.8107 549.68 81.0022 551.01 79.9851C552.392 81.0544 554.009 81.8628 555.861 82.4105C556.278 81.6803 557.086 80.5589 557.686 79.9851C555.965 79.5678 554.4 78.9159 553.096 78.0553C554.557 76.4123 555.678 74.3781 556.382 71.9267L554.479 71.1964ZM579.071 78.2117H574.559V76.5166H579.071V78.2117ZM587.417 70.7009H566.501V82.4365H569.526V73.2828H584.287V79.0984C584.287 79.4114 584.183 79.4896 583.792 79.5157C583.505 79.5418 582.696 79.5418 581.809 79.5157V74.4563H571.847V81.4716H574.559V80.2981H581.288C581.575 80.9761 581.809 81.7846 581.888 82.3844C583.765 82.3844 585.148 82.3583 586.113 81.8889C587.13 81.4195 587.417 80.5849 587.417 79.1506V70.7009ZM580.818 67.5193H572.682V65.9284H580.818V67.5193ZM569.735 63.8682V69.6056H583.974V63.8682H569.735ZM578.263 60.2432V58.0525H575.107V60.2432H565.458V62.8772H588.251V60.2432H578.263Z" fill="black"/>
<path d="M771.889 37.4013C770.46 52.7708 748.325 63.2845 722.451 60.8844C718.115 60.4821 713.948 59.7427 710.024 58.7181C706.376 57.7656 689.707 63.0243 686.534 61.6207C682.941 60.031 692.918 51.7213 690.09 49.6672C682.075 43.8437 677.474 36.3972 678.189 28.7095C679.619 13.34 701.754 2.82628 727.628 5.22644C753.503 7.62661 773.319 22.0318 771.889 37.4013Z" fill="#284273"/>
<path d="M711.692 22.5605L711.353 26.2066L705.623 25.6751L704.195 41.0271L699.919 40.6304L701.347 25.2784L695.617 24.7469L695.956 21.1008L711.692 22.5605Z" fill="#FDCC0D"/>
<path d="M715.645 31.7514C717.156 31.8916 718.291 32.2672 719.05 32.8784C719.81 33.4798 720.134 34.3848 720.021 35.5935C719.908 36.8119 719.416 37.6561 718.547 38.126C717.678 38.5861 716.484 38.7457 714.963 38.6046L714.247 38.5381L713.931 41.9302L711.65 41.7186L712.579 31.7325C713.085 31.6811 713.618 31.6617 714.177 31.6743C714.736 31.6868 715.226 31.7126 715.645 31.7514ZM715.61 33.7096C715.444 33.6942 715.278 33.6837 715.112 33.6781C714.955 33.6734 714.817 33.6705 714.699 33.6694L714.427 36.5936L715.144 36.66C715.933 36.7333 716.538 36.6812 716.958 36.5038C717.377 36.3265 717.614 35.9453 717.669 35.3605C717.695 35.0778 717.663 34.8389 717.573 34.6438C717.493 34.4495 717.36 34.2898 717.175 34.1645C717.001 34.0303 716.779 33.9311 716.51 33.8668C716.241 33.7927 715.941 33.7403 715.61 33.7096ZM728.252 39.3654C728.196 39.9697 728.056 40.5172 727.834 41.0078C727.612 41.4886 727.319 41.894 726.954 42.2239C726.59 42.5441 726.165 42.7799 725.679 42.9315C725.202 43.0839 724.677 43.1335 724.102 43.0801C723.536 43.0277 723.029 42.8823 722.579 42.6439C722.139 42.4065 721.77 42.0969 721.471 41.7153C721.173 41.3239 720.955 40.8711 720.816 40.3568C720.678 39.8327 720.637 39.2685 720.693 38.6642C720.749 38.0599 720.893 37.5177 721.124 37.0378C721.366 36.5588 721.668 36.1592 722.032 35.839C722.406 35.5198 722.831 35.2839 723.307 35.1315C723.793 34.9799 724.309 34.9295 724.855 34.9801C725.411 35.0316 725.909 35.1761 726.349 35.4136C726.798 35.6519 727.173 35.9619 727.471 36.3436C727.77 36.7252 727.989 37.1732 728.128 37.6875C728.267 38.2018 728.308 38.7611 728.252 39.3654ZM726.03 39.1593C726.092 38.4867 726.005 37.9477 725.767 37.5422C725.54 37.1279 725.178 36.8977 724.681 36.8516C724.184 36.8055 723.781 36.9647 723.472 37.3293C723.163 37.6841 722.978 38.1978 722.915 38.8704C722.853 39.5429 722.939 40.0917 723.175 40.5166C723.412 40.9319 723.779 41.1625 724.276 41.2086C724.773 41.2548 725.171 41.0951 725.471 40.7296C725.781 40.3553 725.967 39.8318 726.03 39.1593ZM731.759 43.584L729.581 43.3819L730.296 35.6913L732.475 35.8934L731.759 43.584ZM732.886 33.69C732.849 34.0896 732.688 34.3942 732.403 34.6037C732.129 34.8044 731.816 34.8884 731.465 34.8559C731.114 34.8233 730.818 34.6828 730.575 34.4342C730.344 34.1767 730.246 33.8482 730.283 33.4485C730.321 33.0489 730.476 32.7487 730.751 32.5481C731.036 32.3385 731.354 32.25 731.704 32.2826C732.055 32.3151 732.347 32.4601 732.578 32.7176C732.821 32.9662 732.923 33.2903 732.886 33.69ZM734.498 36.3465C734.878 36.2736 735.365 36.2205 735.958 36.187C736.552 36.1438 737.171 36.152 737.814 36.2117C738.467 36.2723 739 36.4102 739.412 36.6254C739.836 36.8318 740.16 37.1027 740.384 37.4381C740.608 37.7736 740.754 38.1607 740.822 38.5995C740.889 39.0383 740.898 39.5209 740.849 40.0473L740.445 44.3897L738.267 44.1876L738.646 40.1084C738.711 39.4066 738.665 38.9009 738.507 38.5913C738.349 38.2817 738.017 38.1034 737.51 38.0563C737.354 38.0419 737.187 38.0362 737.01 38.0395C736.833 38.0329 736.676 38.0331 736.538 38.0399L735.986 43.976L733.807 43.774L734.498 36.3465ZM743.238 34.9599L745.449 34.8111L745.238 37.0773L747.855 37.3201L747.687 39.1331L745.069 38.8903L744.818 41.5952C744.775 42.0533 744.819 42.4261 744.95 42.7135C745.09 43.0018 745.404 43.1685 745.891 43.2137C746.125 43.2354 746.366 43.2381 746.613 43.2217C746.871 43.1965 747.106 43.1544 747.318 43.0954L747.467 44.8199C747.194 44.9027 746.893 44.9682 746.564 45.0163C746.235 45.0645 745.837 45.0668 745.369 45.0234C744.774 44.9683 744.289 44.8446 743.914 44.6525C743.539 44.4506 743.248 44.1975 743.041 43.8931C742.834 43.579 742.701 43.2127 742.642 42.7943C742.592 42.3768 742.59 41.9195 742.636 41.4223L743.238 34.9599ZM751.267 43.8156C751.667 43.8527 751.953 43.84 752.126 43.7773C752.299 43.7147 752.396 43.5713 752.417 43.3472C752.433 43.1717 752.34 43.0107 752.137 42.8641C751.936 42.7077 751.623 42.5263 751.2 42.3199C750.871 42.1616 750.571 42.0011 750.301 41.8384C750.041 41.6766 749.822 41.4941 749.644 41.2908C749.467 41.0777 749.337 40.8347 749.255 40.5615C749.172 40.2884 749.148 39.9667 749.182 39.5963C749.249 38.875 749.57 38.3296 750.145 37.9602C750.721 37.5908 751.476 37.4495 752.412 37.5363C752.88 37.5797 753.324 37.6652 753.745 37.7927C754.166 37.9104 754.499 38.0298 754.744 38.1508L754.206 39.8116C753.961 39.7003 753.69 39.5966 753.394 39.5003C753.108 39.405 752.78 39.3401 752.409 39.3057C751.727 39.2424 751.368 39.4009 751.333 39.781C751.325 39.8687 751.332 39.9481 751.355 40.019C751.378 40.09 751.43 40.1636 751.511 40.24C751.594 40.3066 751.704 40.3857 751.843 40.4772C751.993 40.5599 752.181 40.656 752.406 40.7654C752.868 40.9852 753.246 41.1973 753.542 41.4016C753.838 41.5963 754.065 41.8041 754.221 42.0251C754.388 42.2372 754.494 42.4682 754.54 42.7183C754.595 42.9692 754.608 43.2555 754.578 43.5771C754.507 44.3374 754.166 44.8858 753.555 45.2224C752.953 45.5598 752.131 45.6802 751.088 45.5834C750.406 45.5201 749.841 45.4088 749.394 45.2493C748.956 45.0907 748.653 44.9643 748.485 44.8701L749.015 43.1348C749.372 43.3154 749.741 43.4676 750.123 43.5915C750.506 43.7057 750.887 43.7804 751.267 43.8156Z" fill="white" fill-opacity="0.9"/>
<path d="M412.934 120.993V122.075H410.796V120.993H412.934ZM410.796 124.501V123.431H412.934V124.501H410.796ZM411.63 126.796C411.878 127.161 412.126 127.565 412.361 127.969L410.796 128.36V125.935H414.369V119.559H409.309V128.699C408.996 128.778 408.696 128.843 408.436 128.895L408.879 130.486C410.066 130.16 411.591 129.742 413.065 129.325C413.26 129.742 413.417 130.134 413.508 130.473L414.877 129.782C414.551 128.778 413.691 127.304 412.882 126.209L411.63 126.796ZM420.132 119.533H415.099V131.086H416.677V121.097H418.528V127.356C418.528 127.526 418.476 127.591 418.307 127.591C418.124 127.591 417.589 127.604 417.081 127.565C417.316 127.995 417.563 128.791 417.616 129.26C418.45 129.26 419.063 129.221 419.545 128.934C420.015 128.647 420.132 128.139 420.132 127.408V119.533ZM425.974 128.53V125.609H431.763V128.53H425.974ZM431.763 121.267V124.07H425.974V121.267H431.763ZM424.37 119.702V130.942H425.974V130.095H431.763V130.916H433.433V119.702H424.37ZM447.072 122.779H443.773V126.783C443.773 128.282 444.19 128.699 445.638 128.699H447.489C448.754 128.699 449.132 128.152 449.302 126.209C448.91 126.117 448.272 125.87 447.946 125.622C447.893 127.082 447.815 127.317 447.359 127.317H445.846C445.338 127.317 445.246 127.252 445.246 126.783V124.109H447.072V124.448H448.571V119.415H443.656V120.771H447.072V122.779ZM441.308 126.874H443.16V125.531H441.308V124.122H443.277V122.779H441.022V121.554H442.951V120.224H441.022V118.946H439.574V120.224H437.631V121.554H439.574V122.779H437.279V124.122H439.887V128.178C439.548 127.8 439.287 127.317 439.079 126.678C439.105 126.131 439.131 125.57 439.144 124.996L437.723 124.892C437.696 127.122 437.566 129.286 436.927 130.603C437.266 130.747 437.944 131.086 438.218 131.268C438.505 130.629 438.701 129.86 438.831 128.986C439.848 130.447 441.4 130.76 443.825 130.76H448.858C448.95 130.303 449.21 129.586 449.445 129.234C448.272 129.286 444.816 129.286 443.825 129.273C442.821 129.273 442 129.221 441.308 129.025V126.874ZM456.855 125.192H460.636L460.206 126.952H456.424L456.855 125.192ZM471.355 120.719C471.702 120.719 472.024 120.776 472.32 120.889C472.624 121.002 472.885 121.158 473.102 121.358C473.328 121.549 473.502 121.775 473.624 122.036C473.745 122.297 473.806 122.575 473.806 122.871C473.806 123.201 473.771 123.497 473.702 123.757C473.632 124.018 473.515 124.27 473.35 124.514C473.185 124.757 472.963 125.005 472.685 125.257C472.415 125.509 472.081 125.792 471.681 126.104C471.446 126.287 471.207 126.461 470.964 126.626C470.729 126.791 470.494 126.961 470.259 127.135C470.033 127.308 469.812 127.495 469.594 127.695C469.377 127.887 469.173 128.104 468.982 128.347H472.867L472.476 129.964H466.465C466.543 129.417 466.678 128.943 466.869 128.543C467.06 128.143 467.295 127.782 467.573 127.461C467.86 127.13 468.182 126.826 468.538 126.548C468.895 126.261 469.281 125.957 469.699 125.635C470.09 125.331 470.42 125.07 470.69 124.853C470.968 124.627 471.19 124.422 471.355 124.24C471.529 124.049 471.655 123.87 471.733 123.705C471.811 123.54 471.85 123.366 471.85 123.184C471.85 122.958 471.768 122.771 471.603 122.623C471.446 122.466 471.242 122.388 470.99 122.388C470.633 122.388 470.286 122.466 469.946 122.623C469.607 122.771 469.238 122.997 468.838 123.301L468.173 121.88C468.695 121.454 469.216 121.154 469.738 120.98C470.259 120.806 470.798 120.719 471.355 120.719ZM478.283 128.478C478.562 128.478 478.818 128.395 479.053 128.23C479.288 128.065 479.492 127.847 479.666 127.578C479.848 127.308 480.005 127.004 480.135 126.665C480.274 126.317 480.387 125.965 480.474 125.609C480.561 125.253 480.626 124.905 480.67 124.566C480.713 124.227 480.735 123.927 480.735 123.666C480.735 123.223 480.665 122.897 480.526 122.688C480.396 122.479 480.192 122.375 479.913 122.375C479.627 122.375 479.366 122.458 479.131 122.623C478.896 122.788 478.688 123.005 478.505 123.275C478.323 123.544 478.162 123.853 478.023 124.201C477.892 124.548 477.784 124.9 477.697 125.257C477.61 125.613 477.545 125.961 477.501 126.3C477.458 126.639 477.436 126.939 477.436 127.2C477.436 127.652 477.505 127.978 477.645 128.178C477.784 128.378 477.997 128.478 478.283 128.478ZM477.984 130.147C477.558 130.147 477.197 130.073 476.901 129.925C476.606 129.769 476.362 129.564 476.171 129.312C475.988 129.06 475.854 128.778 475.767 128.465C475.689 128.143 475.649 127.813 475.649 127.474C475.649 126.483 475.758 125.574 475.975 124.748C476.201 123.923 476.51 123.21 476.901 122.61C477.301 122.01 477.779 121.545 478.336 121.215C478.892 120.884 479.509 120.719 480.187 120.719C480.613 120.719 480.974 120.797 481.27 120.954C481.565 121.102 481.804 121.302 481.987 121.554C482.178 121.806 482.313 122.093 482.391 122.414C482.478 122.727 482.521 123.053 482.521 123.392C482.521 124.383 482.408 125.292 482.182 126.117C481.965 126.943 481.656 127.656 481.256 128.256C480.865 128.856 480.392 129.321 479.835 129.651C479.279 129.982 478.662 130.147 477.984 130.147ZM488.785 120.719C489.133 120.719 489.454 120.776 489.75 120.889C490.054 121.002 490.315 121.158 490.532 121.358C490.758 121.549 490.932 121.775 491.054 122.036C491.176 122.297 491.236 122.575 491.236 122.871C491.236 123.201 491.202 123.497 491.132 123.757C491.063 124.018 490.945 124.27 490.78 124.514C490.615 124.757 490.393 125.005 490.115 125.257C489.846 125.509 489.511 125.792 489.111 126.104C488.876 126.287 488.637 126.461 488.394 126.626C488.159 126.791 487.924 126.961 487.69 127.135C487.464 127.308 487.242 127.495 487.025 127.695C486.807 127.887 486.603 128.104 486.412 128.347H490.298L489.906 129.964H483.895C483.973 129.417 484.108 128.943 484.299 128.543C484.491 128.143 484.725 127.782 485.004 127.461C485.29 127.13 485.612 126.826 485.968 126.548C486.325 126.261 486.712 125.957 487.129 125.635C487.52 125.331 487.85 125.07 488.12 124.853C488.398 124.627 488.62 124.422 488.785 124.24C488.959 124.049 489.085 123.87 489.163 123.705C489.241 123.54 489.281 123.366 489.281 123.184C489.281 122.958 489.198 122.771 489.033 122.623C488.876 122.466 488.672 122.388 488.42 122.388C488.063 122.388 487.716 122.466 487.377 122.623C487.038 122.771 486.668 122.997 486.268 123.301L485.603 121.88C486.125 121.454 486.647 121.154 487.168 120.98C487.69 120.806 488.229 120.719 488.785 120.719ZM497.5 120.719C497.848 120.719 498.169 120.776 498.465 120.889C498.769 121.002 499.03 121.158 499.247 121.358C499.473 121.549 499.647 121.775 499.769 122.036C499.891 122.297 499.952 122.575 499.952 122.871C499.952 123.201 499.917 123.497 499.847 123.757C499.778 124.018 499.66 124.27 499.495 124.514C499.33 124.757 499.108 125.005 498.83 125.257C498.561 125.509 498.226 125.792 497.826 126.104C497.591 126.287 497.352 126.461 497.109 126.626C496.874 126.791 496.64 126.961 496.405 127.135C496.179 127.308 495.957 127.495 495.74 127.695C495.522 127.887 495.318 128.104 495.127 128.347H499.013L498.622 129.964H492.61C492.689 129.417 492.823 128.943 493.015 128.543C493.206 128.143 493.44 127.782 493.719 127.461C494.006 127.13 494.327 126.826 494.684 126.548C495.04 126.261 495.427 125.957 495.844 125.635C496.235 125.331 496.566 125.07 496.835 124.853C497.113 124.627 497.335 124.422 497.5 124.24C497.674 124.049 497.8 123.87 497.878 123.705C497.957 123.54 497.996 123.366 497.996 123.184C497.996 122.958 497.913 122.771 497.748 122.623C497.591 122.466 497.387 122.388 497.135 122.388C496.779 122.388 496.431 122.466 496.092 122.623C495.753 122.771 495.383 122.997 494.983 123.301L494.318 121.88C494.84 121.454 495.362 121.154 495.883 120.98C496.405 120.806 496.944 120.719 497.5 120.719ZM501.351 132.376H499.369L506.672 119.754H508.641L501.351 132.376ZM511.412 128.478C511.69 128.478 511.947 128.395 512.181 128.23C512.416 128.065 512.62 127.847 512.794 127.578C512.977 127.308 513.133 127.004 513.264 126.665C513.403 126.317 513.516 125.965 513.603 125.609C513.69 125.253 513.755 124.905 513.798 124.566C513.842 124.227 513.864 123.927 513.864 123.666C513.864 123.223 513.794 122.897 513.655 122.688C513.525 122.479 513.32 122.375 513.042 122.375C512.755 122.375 512.494 122.458 512.26 122.623C512.025 122.788 511.816 123.005 511.634 123.275C511.451 123.544 511.29 123.853 511.151 124.201C511.021 124.548 510.912 124.9 510.825 125.257C510.738 125.613 510.673 125.961 510.63 126.3C510.586 126.639 510.565 126.939 510.565 127.2C510.565 127.652 510.634 127.978 510.773 128.178C510.912 128.378 511.125 128.478 511.412 128.478ZM511.112 130.147C510.686 130.147 510.325 130.073 510.03 129.925C509.734 129.769 509.491 129.564 509.3 129.312C509.117 129.06 508.982 128.778 508.895 128.465C508.817 128.143 508.778 127.813 508.778 127.474C508.778 126.483 508.887 125.574 509.104 124.748C509.33 123.923 509.639 123.21 510.03 122.61C510.43 122.01 510.908 121.545 511.464 121.215C512.021 120.884 512.638 120.719 513.316 120.719C513.742 120.719 514.103 120.797 514.398 120.954C514.694 121.102 514.933 121.302 515.115 121.554C515.307 121.806 515.441 122.093 515.52 122.414C515.607 122.727 515.65 123.053 515.65 123.392C515.65 124.383 515.537 125.292 515.311 126.117C515.094 126.943 514.785 127.656 514.385 128.256C513.994 128.856 513.52 129.321 512.964 129.651C512.407 129.982 511.79 130.147 511.112 130.147ZM524.469 122.388C523.93 122.406 523.426 122.445 522.957 122.506C522.496 122.566 522.07 122.679 521.679 122.845C521.296 123.01 520.957 123.231 520.662 123.51C520.375 123.788 520.136 124.149 519.945 124.592C520.171 124.47 520.432 124.383 520.727 124.331C521.031 124.27 521.314 124.24 521.575 124.24C521.896 124.24 522.196 124.292 522.474 124.396C522.761 124.492 523.009 124.644 523.218 124.853C523.435 125.053 523.604 125.305 523.726 125.609C523.848 125.913 523.909 126.265 523.909 126.665C523.909 127.23 523.817 127.73 523.635 128.165C523.452 128.591 523.205 128.951 522.892 129.247C522.579 129.543 522.214 129.769 521.796 129.925C521.379 130.073 520.94 130.147 520.479 130.147C520.071 130.147 519.693 130.077 519.345 129.938C518.997 129.799 518.693 129.599 518.432 129.338C518.18 129.069 517.98 128.738 517.832 128.347C517.685 127.947 517.611 127.487 517.611 126.965C517.611 126.2 517.741 125.452 518.002 124.722C518.263 123.983 518.662 123.327 519.201 122.753C519.74 122.18 520.423 121.719 521.249 121.371C522.074 121.015 523.052 120.836 524.183 120.836C524.252 120.836 524.33 120.836 524.417 120.836C524.513 120.836 524.609 120.841 524.704 120.85L524.469 122.388ZM522.057 126.796C522.057 126.378 521.944 126.091 521.718 125.935C521.492 125.778 521.223 125.7 520.91 125.7C520.692 125.7 520.471 125.731 520.245 125.792C520.027 125.844 519.823 125.909 519.632 125.987C519.519 126.317 519.462 126.656 519.462 127.004C519.462 127.421 519.558 127.782 519.749 128.086C519.94 128.382 520.236 128.53 520.636 128.53C521.053 128.53 521.392 128.378 521.653 128.073C521.922 127.769 522.057 127.343 522.057 126.796ZM525.765 132.376H523.783L531.085 119.754H533.054L525.765 132.376ZM538.121 125.166C538.486 125.339 538.768 125.609 538.968 125.974C539.168 126.33 539.268 126.722 539.268 127.148C539.268 127.504 539.194 127.86 539.046 128.217C538.899 128.573 538.664 128.895 538.342 129.182C538.021 129.469 537.612 129.703 537.117 129.886C536.621 130.06 536.026 130.147 535.33 130.147C534.339 130.147 533.448 129.942 532.657 129.534L533.361 127.995C533.613 128.169 533.926 128.312 534.3 128.426C534.674 128.53 535.056 128.582 535.448 128.582C535.691 128.582 535.926 128.556 536.152 128.504C536.386 128.452 536.591 128.365 536.765 128.243C536.938 128.121 537.077 127.965 537.182 127.774C537.286 127.582 537.338 127.348 537.338 127.069C537.338 126.713 537.19 126.443 536.895 126.261C536.608 126.078 536.221 125.987 535.734 125.987H534.9L535.278 124.448H536.217C536.399 124.448 536.591 124.431 536.791 124.396C536.991 124.362 537.173 124.301 537.338 124.214C537.503 124.118 537.638 123.996 537.742 123.849C537.856 123.692 537.912 123.492 537.912 123.249C537.912 122.945 537.808 122.723 537.599 122.584C537.39 122.436 537.117 122.362 536.778 122.362C536.508 122.362 536.208 122.41 535.878 122.506C535.556 122.601 535.222 122.74 534.874 122.923L534.378 121.462C534.804 121.219 535.243 121.036 535.695 120.915C536.147 120.784 536.617 120.719 537.104 120.719C537.564 120.719 537.969 120.784 538.316 120.915C538.664 121.036 538.951 121.202 539.177 121.41C539.412 121.619 539.585 121.858 539.698 122.127C539.811 122.388 539.868 122.658 539.868 122.936C539.868 123.162 539.829 123.388 539.751 123.614C539.681 123.831 539.572 124.04 539.425 124.24C539.286 124.431 539.103 124.609 538.877 124.774C538.66 124.931 538.408 125.061 538.121 125.166ZM544.541 128.478C544.819 128.478 545.075 128.395 545.31 128.23C545.545 128.065 545.749 127.847 545.923 127.578C546.106 127.308 546.262 127.004 546.392 126.665C546.532 126.317 546.645 125.965 546.731 125.609C546.818 125.253 546.884 124.905 546.927 124.566C546.971 124.227 546.992 123.927 546.992 123.666C546.992 123.223 546.923 122.897 546.784 122.688C546.653 122.479 546.449 122.375 546.171 122.375C545.884 122.375 545.623 122.458 545.388 122.623C545.154 122.788 544.945 123.005 544.762 123.275C544.58 123.544 544.419 123.853 544.28 124.201C544.15 124.548 544.041 124.9 543.954 125.257C543.867 125.613 543.802 125.961 543.758 126.3C543.715 126.639 543.693 126.939 543.693 127.2C543.693 127.652 543.763 127.978 543.902 128.178C544.041 128.378 544.254 128.478 544.541 128.478ZM544.241 130.147C543.815 130.147 543.454 130.073 543.159 129.925C542.863 129.769 542.62 129.564 542.428 129.312C542.246 129.06 542.111 128.778 542.024 128.465C541.946 128.143 541.907 127.813 541.907 127.474C541.907 126.483 542.015 125.574 542.233 124.748C542.459 123.923 542.767 123.21 543.159 122.61C543.558 122.01 544.037 121.545 544.593 121.215C545.149 120.884 545.767 120.719 546.445 120.719C546.871 120.719 547.231 120.797 547.527 120.954C547.822 121.102 548.061 121.302 548.244 121.554C548.435 121.806 548.57 122.093 548.648 122.414C548.735 122.727 548.779 123.053 548.779 123.392C548.779 124.383 548.666 125.292 548.44 126.117C548.222 126.943 547.914 127.656 547.514 128.256C547.123 128.856 546.649 129.321 546.093 129.651C545.536 129.982 544.919 130.147 544.241 130.147Z" fill="black"/>
</svg>
