<svg width="659" height="94" viewBox="0 0 659 94" fill="none" xmlns="http://www.w3.org/2000/svg">
<path d="M1.60541 92.7L19.1226 10.3H644.395L626.877 92.7H1.60541Z" fill="#9FC2F7" stroke="black" stroke-width="2.6"/>
<path d="M14.6054 83.7L32.1226 1.3H657.395L639.877 83.7H14.6054Z" fill="#5996F5" stroke="black" stroke-width="2.6"/>
<mask id="path-3-outside-1" maskUnits="userSpaceOnUse" x="52.392" y="24.0601" width="552" height="38" fill="black">
<rect fill="white" x="52.392" y="24.0601" width="552" height="38"/>
<path d="M70.888 46.8601C70.076 47.3081 69.348 47.7281 68.732 48.0361L70.132 50.6961C72.12 49.4641 74.5 47.8681 76.684 46.3841L75.76 44.0041L73.828 45.1521V37.5081H75.844C76.096 40.8401 76.544 43.8921 77.216 46.3281C76.096 47.7281 74.836 48.9041 73.436 49.7721C74.08 50.3041 75.004 51.3681 75.424 52.0681C76.488 51.3401 77.468 50.4441 78.392 49.4081C79.148 50.8641 80.128 51.7041 81.304 51.7041C83.32 51.7041 84.16 50.6681 84.58 46.8041C83.852 46.4961 82.928 45.8521 82.34 45.1801C82.256 47.5881 82.032 48.6801 81.64 48.6801C81.192 48.6801 80.772 47.9801 80.352 46.7761C81.752 44.5921 82.872 42.0441 83.656 39.3001L81.108 38.6281C80.688 40.0561 80.128 41.4841 79.456 42.8001C79.204 41.2321 78.98 39.4401 78.84 37.5081H83.964V34.7361H81.668L83.656 33.6441C83.208 32.7481 82.144 31.4041 81.248 30.4241L79.008 31.6001C79.82 32.5241 80.716 33.8121 81.164 34.7361H78.672C78.616 33.2801 78.588 31.7961 78.588 30.3121H75.508C75.536 31.7961 75.592 33.2801 75.648 34.7361H70.888V46.8601ZM66.548 47.4201H69.88V44.5361H66.548V41.4281H70.244V38.5161H66.044V36.1641H69.824V33.2521H66.044V30.3121H62.992V33.2521H59.1V36.1641H62.992V38.5161H58.148V41.4281H63.552V49.4641C62.936 48.6801 62.432 47.7001 62.012 46.4681C62.04 45.3761 62.04 44.2841 62.012 43.2201L59.212 43.0521C59.352 46.8321 59.184 51.1721 57.392 54.3361C58.064 54.6721 59.128 55.6801 59.548 56.3521C60.472 54.8401 61.06 53.1041 61.452 51.3121C63.832 54.9521 67.444 55.7081 72.96 55.7081H83.096C83.32 54.7281 83.852 53.1881 84.384 52.4321C82.004 52.5161 74.976 52.5161 72.988 52.5161C70.384 52.5161 68.256 52.3481 66.548 51.6761V47.4201Z"/>
<path d="M112.188 50.1641V52.7961H105.244V50.1641H112.188ZM102.248 56.4361H105.244V55.4281H112.188V56.3241H115.324V47.5321H102.248V56.4361ZM105.664 43.2201C106.868 42.1001 107.904 40.9241 108.604 39.8321C109.388 40.9521 110.508 42.1281 111.74 43.2201H105.664ZM106.98 36.9761C106.868 37.1441 106.756 37.3401 106.644 37.5361V35.6601H110.9V37.9001H114.036V35.6601H117.312V32.8321H114.036V30.3121H110.9V32.8321H106.644V30.3121H103.564V32.8321H100.456V35.6601H103.564V37.8161H106.448C105.104 39.7761 102.92 41.8761 100.568 43.3041L100.316 41.5401L98.272 42.1001V38.6281H100.428V35.5761H98.272V30.3121H95.08V35.5761H91.832V38.6281H95.08V42.9681C93.652 43.3601 92.336 43.6961 91.272 43.9201L91.972 47.1401C92.924 46.8601 93.988 46.5521 95.08 46.2441V52.6561C95.08 53.0761 94.94 53.1881 94.604 53.1881C94.24 53.2161 93.092 53.2161 92 53.1601C92.42 54.0841 92.84 55.5121 92.924 56.4081C94.856 56.4081 96.172 56.2961 97.096 55.7361C97.992 55.2321 98.272 54.3361 98.272 52.6841V45.2641L99.7 44.8161C100.12 45.4321 100.484 46.1881 100.708 46.7201C101.996 46.0761 103.228 45.2641 104.376 44.3401V45.8521H113.056V44.2841C114.12 45.1241 115.24 45.8241 116.332 46.3841C116.78 45.4321 117.424 44.2281 118.068 43.4721C115.044 42.2961 112.02 39.8041 110.004 36.9761H106.98Z"/>
<path d="M138.088 46.8601C137.276 47.3081 136.548 47.7281 135.932 48.0361L137.332 50.6961C139.32 49.4641 141.7 47.8681 143.884 46.3841L142.96 44.0041L141.028 45.1521V37.5081H143.044C143.296 40.8401 143.744 43.8921 144.416 46.3281C143.296 47.7281 142.036 48.9041 140.636 49.7721C141.28 50.3041 142.204 51.3681 142.624 52.0681C143.688 51.3401 144.668 50.4441 145.592 49.4081C146.348 50.8641 147.328 51.7041 148.504 51.7041C150.52 51.7041 151.36 50.6681 151.78 46.8041C151.052 46.4961 150.128 45.8521 149.54 45.1801C149.456 47.5881 149.232 48.6801 148.84 48.6801C148.392 48.6801 147.972 47.9801 147.552 46.7761C148.952 44.5921 150.072 42.0441 150.856 39.3001L148.308 38.6281C147.888 40.0561 147.328 41.4841 146.656 42.8001C146.404 41.2321 146.18 39.4401 146.04 37.5081H151.164V34.7361H148.868L150.856 33.6441C150.408 32.7481 149.344 31.4041 148.448 30.4241L146.208 31.6001C147.02 32.5241 147.916 33.8121 148.364 34.7361H145.872C145.816 33.2801 145.788 31.7961 145.788 30.3121H142.708C142.736 31.7961 142.792 33.2801 142.848 34.7361H138.088V46.8601ZM133.748 47.4201H137.08V44.5361H133.748V41.4281H137.444V38.5161H133.244V36.1641H137.024V33.2521H133.244V30.3121H130.192V33.2521H126.3V36.1641H130.192V38.5161H125.348V41.4281H130.752V49.4641C130.136 48.6801 129.632 47.7001 129.212 46.4681C129.24 45.3761 129.24 44.2841 129.212 43.2201L126.412 43.0521C126.552 46.8321 126.384 51.1721 124.592 54.3361C125.264 54.6721 126.328 55.6801 126.748 56.3521C127.672 54.8401 128.26 53.1041 128.652 51.3121C131.032 54.9521 134.644 55.7081 140.16 55.7081H150.296C150.52 54.7281 151.052 53.1881 151.584 52.4321C149.204 52.5161 142.176 52.5161 140.188 52.5161C137.584 52.5161 135.456 52.3481 133.748 51.6761V47.4201Z"/>
<path d="M165.584 36.5281H162.812V33.9521H165.584V36.5281ZM165.584 41.6241H162.812V39.0201H165.584V41.6241ZM165.584 46.7201H162.812V44.0881H165.584V46.7201ZM168.496 31.3201H159.984V49.3801H168.496V31.3201ZM161.328 49.5761C160.768 51.5361 159.704 53.5521 158.444 54.8681C159.144 55.2321 160.348 56.0161 160.908 56.4921C162.224 54.9801 163.512 52.5721 164.24 50.2201L161.328 49.5761ZM174.936 46.0201V44.5921H176.476V46.0201H174.936ZM174.936 41.0641H176.476V42.3801H174.936V41.0641ZM174.936 37.5641H176.476V38.6561H174.936V37.5641ZM180.872 41.0641V42.3801H179.276V41.0641H180.872ZM179.276 46.0201V44.5921H180.872V46.0201H179.276ZM183.588 48.3721V44.7321H184.96V42.1561H183.588V38.6561H179.276V37.5641H184.344V35.0441H179.276V34.1481C180.9 33.5041 182.496 32.7481 183.784 31.9081L181.152 30.3121C180.032 31.2641 177.988 32.3281 176.028 33.0561C176.168 33.2521 176.336 33.5321 176.476 33.8121V35.0441H174.936V32.9441C175.748 32.6361 176.532 32.3281 177.204 31.9641L174.796 30.3121C173.536 31.1241 171.184 31.9361 169.084 32.4961C169.392 33.0001 169.784 33.8401 169.924 34.3441C170.652 34.2041 171.436 34.0081 172.192 33.8121V35.0441H169.224V37.5641H172.192V38.6561H169.868V41.0641H172.192V42.3801H168.916V44.5921H172.192V46.0201H169.756V48.3721H171.632C170.848 49.9121 169.784 51.3401 168.58 52.4321C168.16 51.4801 167.6 50.3601 167.068 49.4921L164.604 50.5561C165.276 51.8441 166.088 53.5801 166.452 54.7001L167.824 54.0281C168.3 54.5321 168.804 55.1481 169.112 55.5961C170.26 54.7281 171.296 53.4961 172.192 52.0401V56.4361H174.936V48.3721H176.476V56.4361H179.276V50.9761C180.424 52.7121 181.796 54.3081 183.112 55.3721C183.588 54.6721 184.512 53.6361 185.156 53.1321C183.504 52.0681 181.74 50.2481 180.452 48.3721H183.588Z"/>
<path d="M223.467 47.2521V52.0961H211.819V47.2521H223.467ZM208.403 56.4081H211.819V55.2881H223.467V56.3801H227.051V44.0881H208.403V56.4081ZM220.583 35.0441C221.451 35.8001 222.375 36.6401 223.271 37.5361C220.051 37.6761 216.803 37.8161 213.779 37.9281C215.123 35.8841 216.523 33.5321 217.699 31.3201L213.863 30.0881C212.911 32.5521 211.315 35.6321 209.747 38.0681C208.179 38.0961 206.723 38.1521 205.435 38.1801L205.631 41.5401C210.839 41.3441 218.651 41.0361 226.043 40.6441C226.799 41.5681 227.415 42.4361 227.835 43.1921L230.719 40.9801C229.291 38.5721 225.959 35.3521 223.187 33.0841L220.583 35.0441Z"/>
<path d="M256.451 30.7601H251.579V32.3561H256.451V30.7601ZM244.579 33.4481C243.739 32.5521 241.919 31.3761 240.547 30.6201L238.643 32.8881C240.043 33.7281 241.779 35.0161 242.563 35.9401L244.579 33.4481ZM244.047 40.5881C243.123 39.7201 241.303 38.6281 239.875 37.9561L238.055 40.2801C239.455 41.0361 241.275 42.2681 242.087 43.1361L244.047 40.5881ZM241.639 56.1001C242.759 53.3841 243.907 50.1361 244.803 47.1401L242.171 45.4601C241.135 48.7361 239.707 52.2641 238.699 54.4481L241.639 56.1001ZM254.687 42.6601H253.287V41.4281H254.687V42.6601ZM246.735 44.3961H248.835V38.8241L249.703 38.7401C249.759 39.0201 249.787 39.2721 249.815 39.4961L251.327 38.9361C251.215 38.0681 250.823 36.7241 250.347 35.7161L248.947 36.2201C249.031 36.4441 249.115 36.6961 249.199 36.9481L247.995 36.9761C248.863 35.9961 249.759 34.8481 250.571 33.7841V34.7921H257.263V34.4841C257.907 35.0441 258.523 35.7161 258.943 36.2761C258.691 36.5561 258.439 36.8641 258.215 37.1161L256.899 37.1441L257.095 39.1601L259.503 39.0201V40.0561L257.683 39.6361C257.459 40.6721 257.151 41.7921 256.703 42.7161V39.9441H251.355V44.1441H256.703V43.2201C257.207 43.4441 257.879 43.8081 258.215 44.0601C258.691 43.1641 259.195 41.8201 259.503 40.5601V44.3961H261.631V38.9081L262.723 38.8241C262.779 39.0761 262.835 39.3001 262.863 39.4961L264.543 38.7681C264.347 37.8441 263.815 36.4721 263.255 35.4641L261.659 36.1081C261.799 36.3881 261.939 36.6961 262.079 37.0041L260.539 37.0321C261.547 35.9401 262.611 34.6521 263.535 33.5041L261.687 32.4681C261.323 33.1121 260.819 33.8401 260.259 34.5961C260.091 34.4001 259.895 34.1761 259.671 33.9801C260.259 33.1681 260.903 32.1321 261.547 31.1801L259.643 30.2561C259.335 30.9561 258.831 31.9641 258.355 32.8321L257.991 32.5521L257.263 33.5321V33.0561H250.571V33.5321L248.891 32.5801C248.583 33.1401 248.163 33.7561 247.715 34.4281C247.547 34.2321 247.323 34.0641 247.127 33.8681C247.659 33.0561 248.275 32.0761 248.863 31.1241L246.987 30.1721C246.679 30.9281 246.203 31.9361 245.727 32.7761C245.587 32.6921 245.419 32.5801 245.279 32.4961L244.243 34.1201C244.999 34.6801 245.839 35.4361 246.455 36.1081C246.203 36.4441 245.923 36.7801 245.671 37.0881L243.963 37.1441L244.187 39.1601C244.971 39.1041 245.839 39.0481 246.735 38.9641V40.0561L244.887 39.6361C244.635 40.8961 244.243 42.2401 243.599 43.2481C244.103 43.4441 244.943 43.8641 245.363 44.1161C245.895 43.1921 246.399 41.8201 246.735 40.5601V44.3961ZM261.715 40.1401C262.191 41.2881 262.695 42.7721 262.863 43.7521L264.627 43.1641C264.403 42.2121 263.871 40.7561 263.395 39.6361L261.715 40.1401ZM251.383 39.1881H256.703V37.6761H251.383V39.1881ZM256.703 35.5201H251.383V37.0321H256.703V35.5201ZM251.271 42.6881C251.131 41.9041 250.823 40.6721 250.515 39.7481L248.919 40.1121C249.199 41.0921 249.479 42.3521 249.591 43.1641L251.271 42.6881ZM249.311 50.3881L249.535 49.5201H261.939V44.8721H246.063V46.7481H258.859V47.6161H246.903C246.567 49.3521 246.035 51.4241 245.531 52.8521L248.527 53.2441C248.611 52.9921 248.695 52.7121 248.779 52.4321H259.811C259.559 53.2161 259.307 53.6641 258.999 53.8881C258.719 54.0841 258.383 54.1121 257.823 54.1121C257.123 54.1121 255.275 54.0841 253.595 53.9161C254.071 54.6161 254.435 55.6241 254.491 56.3521C256.227 56.4081 257.935 56.4361 258.831 56.4081C259.951 56.3521 260.735 56.2121 261.435 55.6801C262.191 55.0641 262.695 53.8321 263.143 51.5921C263.255 51.2001 263.311 50.3881 263.311 50.3881H249.311Z"/>
<path d="M297.359 41.2321V37.7881H286.355C286.635 35.1841 286.663 32.6081 286.691 30.3121H283.051C283.023 32.6081 283.051 35.1561 282.771 37.7881H272.579V41.2321H282.211C281.119 46.0481 278.459 50.6961 272.047 53.5521C273.027 54.2521 274.007 55.4561 274.539 56.3801C280.475 53.5241 283.499 49.1561 285.011 44.4801C287.195 49.8841 290.443 53.9721 295.511 56.3521C296.043 55.4001 297.135 53.9161 297.975 53.2161C292.739 51.0881 289.351 46.6921 287.503 41.2321H297.359Z"/>
<path d="M311.835 45.5161V43.8081H316.707V45.5161H311.835ZM311.835 39.6081H316.707V41.3161H311.835V39.6081ZM325.023 39.6081V41.3161H320.123V39.6081H325.023ZM325.023 45.5161H320.123V43.8081H325.023V45.5161ZM331.295 49.6881H320.123V48.1761H328.383V36.9481H320.123V35.6041H330.483V32.5801H320.123V30.3121H316.707V32.5801H306.543V35.6041H316.707V36.9481H308.643V48.1761H316.707V49.6881H305.871V52.6841H316.707V56.4641H320.123V52.6841H331.295V49.6881Z"/>
<path d="M354.927 39.8041C355.571 39.2721 356.159 38.7121 356.719 38.1241C357.139 40.5321 357.643 42.8281 358.315 44.9001C357.615 43.0801 356.523 41.3161 354.927 39.8041ZM363.243 38.9361C362.487 39.8321 361.367 40.9241 360.331 41.8481C359.939 40.4761 359.603 39.0481 359.323 37.5641H364.867V34.6801H361.311C361.871 33.7001 362.487 32.4681 363.131 31.2361L359.967 30.3121C359.575 31.6001 358.847 33.3081 358.231 34.4561L358.931 34.6801H354.255L354.899 34.4281C354.591 33.3081 353.835 31.6561 353.023 30.4521L350.335 31.3761C350.923 32.3561 351.483 33.6161 351.847 34.6801H348.599V37.5641H353.443C351.763 39.0201 349.607 40.3081 347.507 41.1761C348.067 41.7081 349.047 42.9121 349.439 43.5281C350.503 42.9681 351.651 42.2681 352.743 41.5121C353.051 41.8201 353.331 42.1561 353.583 42.5201C352.267 43.7241 350.279 45.0121 348.543 45.8521C348.543 44.2281 348.179 42.3521 346.499 40.2241C347.283 38.0401 348.207 34.9881 348.935 32.6081L346.751 31.3481L346.275 31.4881H340.199V56.4361H343.083V34.4561H345.267C344.819 36.3601 344.231 38.7961 343.671 40.5601C345.239 42.4361 345.603 44.1721 345.603 45.4601C345.603 46.2441 345.491 46.8041 345.183 47.0281C344.959 47.1961 344.707 47.2521 344.399 47.2801C344.035 47.2801 343.671 47.2801 343.167 47.2521C343.615 48.0361 343.867 49.2961 343.895 50.0801C344.539 50.1081 345.211 50.0801 345.687 50.0241C346.331 49.9121 346.863 49.7441 347.311 49.4361C347.983 48.9601 348.347 48.1201 348.487 46.9441C348.907 47.4481 349.299 48.0081 349.579 48.4841C351.231 47.5601 353.303 46.0761 354.899 44.6481C355.095 45.0681 355.263 45.4881 355.403 45.9081C353.359 48.3161 349.747 50.8081 346.611 51.9841C347.311 52.5441 348.123 53.5521 348.599 54.2801C351.063 53.1041 353.863 51.1161 356.019 49.0721C356.103 50.7801 355.767 52.1521 355.263 52.7121C354.927 53.3281 354.479 53.4401 353.891 53.4401C353.275 53.4401 352.575 53.3841 351.679 53.3001C352.267 54.2241 352.491 55.4841 352.519 56.3521C353.247 56.4081 353.891 56.4361 354.479 56.4081C355.851 56.3801 356.747 56.1001 357.615 55.1481C359.155 53.7481 359.799 49.8561 358.651 45.9361C359.799 49.1281 361.311 51.8161 363.383 53.7201C363.915 52.9081 364.895 51.7601 365.651 51.2001C363.747 49.6601 362.319 47.2801 361.227 44.4801C362.515 43.5561 364.055 42.2961 365.371 41.1481L363.243 38.9361Z"/>
<path d="M390.627 49.0721V50.1641H380.855V49.0721H390.627ZM380.855 53.4961V52.3761H390.627V53.4961H380.855ZM377.579 56.4361H380.855V55.6801H390.627V56.3521H394.043V46.8881H377.579V56.4361ZM376.711 38.3761C378.139 37.7601 379.539 37.0601 380.827 36.3041V37.3681H390.655V36.4161C391.971 37.1441 393.371 37.8161 394.715 38.3761H376.711ZM392.587 43.9481H390.207C390.655 43.1641 391.187 42.0721 391.747 40.9521L389.563 40.4201H392.587V43.9481ZM378.811 43.9481V40.4201H381.947L379.791 41.0361C380.239 41.9321 380.603 43.0801 380.743 43.9481H378.811ZM384.243 43.9481H381.415L383.207 43.4161C383.039 42.5761 382.591 41.3721 382.087 40.4201H384.243V43.9481ZM388.975 40.4201C388.723 41.3441 388.247 42.6321 387.855 43.5001L389.507 43.9481H386.931V40.4201H388.975ZM382.591 35.2121C383.767 34.4281 384.775 33.6441 385.559 32.8601C386.399 33.6441 387.463 34.4561 388.667 35.2121H382.591ZM383.879 30.2841C381.583 32.7761 376.991 35.4081 372.427 36.7521C373.043 37.4241 373.771 38.6281 374.163 39.3561C374.779 39.1321 375.423 38.9081 376.039 38.6561V45.9921H395.499V38.6841C396.031 38.9081 396.591 39.1041 397.095 39.2721C397.599 38.4321 398.299 37.2561 398.999 36.5001C394.687 35.4361 390.179 33.2241 387.015 30.2841H383.879Z"/>
<path d="M425.039 35.5761H413.727V33.7561H425.039V35.5761ZM428.595 31.1521H410.367V38.1521H428.595V31.1521ZM412.411 48.0921H426.131V49.3241H412.411V48.0921ZM412.411 44.7881H426.131V45.9641H412.411V44.7881ZM412.411 41.4561H426.131V42.6601H412.411V41.4561ZM429.575 51.5641V39.1881H409.107V51.5641H413.503C411.599 52.5161 408.715 53.5241 406.279 54.0561C407.035 54.7001 408.183 55.7361 408.799 56.4361C411.627 55.7361 415.211 54.3921 417.479 53.0761L415.323 51.5641H422.967L420.615 53.2441C423.583 54.1121 427.447 55.4841 429.603 56.4921L432.543 54.1401C430.611 53.3561 427.671 52.3481 425.039 51.5641H429.575Z"/>
<path d="M465.695 45.4601V42.6321H454.635V41.0361H463.119V38.2921H454.635V37.1721C455.223 36.5561 455.755 35.8281 456.287 35.0161H457.379C458.107 36.0241 458.807 37.2001 459.115 37.9841L461.971 36.7801C461.747 36.3041 461.355 35.6601 460.907 35.0161H465.555V32.3001H457.827C458.051 31.8241 458.275 31.3201 458.415 30.8721L455.223 30.0601C454.663 31.6561 453.739 33.2801 452.619 34.5681V32.3001H446.487C446.739 31.8241 446.963 31.3761 447.159 30.9001L443.967 30.0601C442.987 32.4401 441.335 34.8481 439.515 36.3601C440.271 36.7521 441.643 37.6761 442.287 38.2081C443.127 37.3401 444.051 36.2481 444.891 35.0161H445.171C445.703 36.0241 446.263 37.1721 446.459 37.9561L449.315 36.7801C449.147 36.3041 448.839 35.6601 448.475 35.0161H452.227C451.919 35.3521 451.583 35.6881 451.219 35.9681C451.639 36.1921 452.255 36.5841 452.843 36.9481H451.163V38.2921H443.043V41.0361H451.163V42.6321H440.215V45.4601H456.679V47.1401H441.279V49.9401H446.431L444.947 51.0601C446.571 52.2641 448.391 54.0001 449.175 55.2601L451.751 53.1881C451.051 52.2081 449.707 50.9481 448.363 49.9401H456.679V52.9081C456.679 53.2441 456.539 53.3561 456.091 53.3561C455.643 53.3561 453.963 53.3561 452.535 53.3001C452.983 54.1681 453.543 55.4561 453.739 56.4081C455.811 56.4081 457.407 56.3801 458.583 55.9041C459.787 55.4001 460.123 54.6161 460.123 52.9641V49.9401H464.855V47.1401H460.123V45.4601H465.695Z"/>
<path d="M474.515 46.6641C474.291 49.0161 473.843 51.5081 473.031 53.1601C473.759 53.4121 474.991 54.0001 475.579 54.3641C476.391 52.5721 476.979 49.7721 477.259 47.1401L474.515 46.6641ZM482.299 44.8721C482.467 45.4041 482.579 45.9081 482.663 46.3281L485.043 45.2641C484.735 43.6681 483.643 41.2321 482.551 39.3281L480.367 40.2521C480.703 40.8681 481.039 41.5401 481.319 42.2401L478.295 42.3801C480.059 40.1121 481.991 37.2841 483.531 34.8481L480.815 33.5881C480.171 34.9601 479.275 36.5561 478.323 38.1241C478.043 37.7881 477.735 37.3961 477.371 37.0041C478.379 35.4361 479.499 33.2801 480.507 31.3761L477.623 30.3121C477.147 31.7961 476.363 33.6441 475.579 35.1841C475.355 34.9881 475.131 34.7921 474.935 34.6241L473.339 36.8921C474.487 38.0121 475.831 39.4961 476.643 40.7001C476.195 41.3441 475.775 41.9321 475.355 42.4921L473.311 42.5761L473.591 45.4601C474.795 45.3761 476.195 45.2921 477.651 45.2081V56.4641H480.535V45.0121L482.299 44.8721ZM488.879 34.9601H492.183C491.791 37.3121 491.259 40.2241 490.727 42.5761L493.695 42.9121L493.919 41.8201H495.739C495.095 44.2841 494.143 46.4401 492.939 48.2321C490.783 45.0121 489.579 40.8121 488.879 36.0801V34.9601ZM497.391 38.7401L496.831 38.8521H494.535C494.983 36.5281 495.403 34.1201 495.683 32.0761L493.471 31.7681L492.967 31.9081H483.671V34.9601H485.995V39.1321C485.995 42.1281 485.799 46.1601 484.343 49.8561C484.007 48.7361 483.531 47.4201 483.055 46.3841L480.703 47.1401C481.319 48.6801 481.963 50.6681 482.215 51.9841L483.615 51.4801C483.055 52.5721 482.355 53.6081 481.487 54.5601C482.243 54.9241 483.363 55.7921 483.923 56.3241C486.695 53.2441 487.955 49.2121 488.487 45.4041C489.159 47.3361 489.971 49.1001 491.007 50.6681C489.691 52.0121 488.179 53.1041 486.499 53.9161C487.199 54.4201 488.291 55.6521 488.739 56.3801C490.279 55.5401 491.707 54.4761 492.995 53.1321C494.367 54.5041 495.991 55.6241 497.923 56.4641C498.343 55.6241 499.267 54.3641 499.939 53.7761C497.979 53.0761 496.355 52.0401 494.983 50.7241C497.027 47.8121 498.539 44.0881 499.379 39.4961L497.391 38.7401Z"/>
<path d="M507.275 41.2881V44.9001H533.035V41.2881H507.275Z"/>
<path d="M548.743 35.9401C547.679 34.7641 545.411 33.0841 543.759 32.0201L541.351 34.4561C543.087 35.6881 545.271 37.4801 546.251 38.6841L548.743 35.9401ZM546.923 43.0241C544.627 45.5721 542.135 48.1481 540.595 49.6601L542.723 52.4881C544.627 50.6121 546.895 48.1761 548.855 45.9081L546.923 43.0241ZM558.515 38.4321H562.463C561.959 40.0281 561.259 41.6241 560.699 42.6881C561.483 42.9961 562.855 43.6681 563.527 44.0601C564.619 42.0441 565.963 39.1601 566.747 36.3601L564.283 34.9321L563.639 35.1001H554.007C554.455 33.7841 554.819 32.4121 555.127 31.0121L551.655 30.3681C550.787 34.8481 549.107 39.1601 546.727 41.7361C547.567 42.1281 549.191 43.0241 549.863 43.5561C550.927 42.1841 551.935 40.4201 552.775 38.4321H555.015V41.3161C555.015 44.4241 553.139 50.6121 545.579 53.6361C546.167 54.2521 547.203 55.6521 547.595 56.4361C553.251 53.9721 556.107 49.2121 556.779 46.7201C557.311 49.2121 559.915 54.1401 564.927 56.4361C565.459 55.5681 566.411 54.1961 567.055 53.3841C560.195 50.3881 558.515 44.2841 558.515 41.2881V38.4321Z"/>
<path d="M593.767 46.3281H583.631V45.1241H593.767V46.3281ZM583.631 52.9921V51.7041H593.767V52.9921H583.631ZM593.767 49.6321H583.631V48.4001H593.767V49.6321ZM599.759 41.4561V38.8241H585.899C586.067 38.4321 586.234 38.0121 586.374 37.6201H598.246V35.1001H587.271C587.411 34.6521 587.551 34.2041 587.663 33.7561C591.499 33.5601 595.166 33.2521 598.134 32.7481L596.175 30.3681C591.471 31.1521 583.378 31.4881 576.546 31.4881C576.826 32.1601 577.135 33.2521 577.163 33.9801C579.347 34.0081 581.671 33.9801 583.995 33.8961C583.911 34.3161 583.798 34.7081 583.686 35.1001H576.855V37.6201H582.79C582.622 38.0121 582.455 38.4321 582.259 38.8241H574.895V41.4561H580.858C579.178 44.0881 576.939 46.4121 574.027 47.9801C574.671 48.6521 575.65 49.8841 576.126 50.6681C577.75 49.7161 579.179 48.5681 580.439 47.3081V56.5201H583.631V55.5121H593.767V56.5201H597.126V42.6041H584.022C584.246 42.2121 584.471 41.8481 584.667 41.4561H599.759Z"/>
</mask>
<path d="M70.888 46.8601C70.076 47.3081 69.348 47.7281 68.732 48.0361L70.132 50.6961C72.12 49.4641 74.5 47.8681 76.684 46.3841L75.76 44.0041L73.828 45.1521V37.5081H75.844C76.096 40.8401 76.544 43.8921 77.216 46.3281C76.096 47.7281 74.836 48.9041 73.436 49.7721C74.08 50.3041 75.004 51.3681 75.424 52.0681C76.488 51.3401 77.468 50.4441 78.392 49.4081C79.148 50.8641 80.128 51.7041 81.304 51.7041C83.32 51.7041 84.16 50.6681 84.58 46.8041C83.852 46.4961 82.928 45.8521 82.34 45.1801C82.256 47.5881 82.032 48.6801 81.64 48.6801C81.192 48.6801 80.772 47.9801 80.352 46.7761C81.752 44.5921 82.872 42.0441 83.656 39.3001L81.108 38.6281C80.688 40.0561 80.128 41.4841 79.456 42.8001C79.204 41.2321 78.98 39.4401 78.84 37.5081H83.964V34.7361H81.668L83.656 33.6441C83.208 32.7481 82.144 31.4041 81.248 30.4241L79.008 31.6001C79.82 32.5241 80.716 33.8121 81.164 34.7361H78.672C78.616 33.2801 78.588 31.7961 78.588 30.3121H75.508C75.536 31.7961 75.592 33.2801 75.648 34.7361H70.888V46.8601ZM66.548 47.4201H69.88V44.5361H66.548V41.4281H70.244V38.5161H66.044V36.1641H69.824V33.2521H66.044V30.3121H62.992V33.2521H59.1V36.1641H62.992V38.5161H58.148V41.4281H63.552V49.4641C62.936 48.6801 62.432 47.7001 62.012 46.4681C62.04 45.3761 62.04 44.2841 62.012 43.2201L59.212 43.0521C59.352 46.8321 59.184 51.1721 57.392 54.3361C58.064 54.6721 59.128 55.6801 59.548 56.3521C60.472 54.8401 61.06 53.1041 61.452 51.3121C63.832 54.9521 67.444 55.7081 72.96 55.7081H83.096C83.32 54.7281 83.852 53.1881 84.384 52.4321C82.004 52.5161 74.976 52.5161 72.988 52.5161C70.384 52.5161 68.256 52.3481 66.548 51.6761V47.4201Z" fill="white"/>
<path d="M112.188 50.1641V52.7961H105.244V50.1641H112.188ZM102.248 56.4361H105.244V55.4281H112.188V56.3241H115.324V47.5321H102.248V56.4361ZM105.664 43.2201C106.868 42.1001 107.904 40.9241 108.604 39.8321C109.388 40.9521 110.508 42.1281 111.74 43.2201H105.664ZM106.98 36.9761C106.868 37.1441 106.756 37.3401 106.644 37.5361V35.6601H110.9V37.9001H114.036V35.6601H117.312V32.8321H114.036V30.3121H110.9V32.8321H106.644V30.3121H103.564V32.8321H100.456V35.6601H103.564V37.8161H106.448C105.104 39.7761 102.92 41.8761 100.568 43.3041L100.316 41.5401L98.272 42.1001V38.6281H100.428V35.5761H98.272V30.3121H95.08V35.5761H91.832V38.6281H95.08V42.9681C93.652 43.3601 92.336 43.6961 91.272 43.9201L91.972 47.1401C92.924 46.8601 93.988 46.5521 95.08 46.2441V52.6561C95.08 53.0761 94.94 53.1881 94.604 53.1881C94.24 53.2161 93.092 53.2161 92 53.1601C92.42 54.0841 92.84 55.5121 92.924 56.4081C94.856 56.4081 96.172 56.2961 97.096 55.7361C97.992 55.2321 98.272 54.3361 98.272 52.6841V45.2641L99.7 44.8161C100.12 45.4321 100.484 46.1881 100.708 46.7201C101.996 46.0761 103.228 45.2641 104.376 44.3401V45.8521H113.056V44.2841C114.12 45.1241 115.24 45.8241 116.332 46.3841C116.78 45.4321 117.424 44.2281 118.068 43.4721C115.044 42.2961 112.02 39.8041 110.004 36.9761H106.98Z" fill="white"/>
<path d="M138.088 46.8601C137.276 47.3081 136.548 47.7281 135.932 48.0361L137.332 50.6961C139.32 49.4641 141.7 47.8681 143.884 46.3841L142.96 44.0041L141.028 45.1521V37.5081H143.044C143.296 40.8401 143.744 43.8921 144.416 46.3281C143.296 47.7281 142.036 48.9041 140.636 49.7721C141.28 50.3041 142.204 51.3681 142.624 52.0681C143.688 51.3401 144.668 50.4441 145.592 49.4081C146.348 50.8641 147.328 51.7041 148.504 51.7041C150.52 51.7041 151.36 50.6681 151.78 46.8041C151.052 46.4961 150.128 45.8521 149.54 45.1801C149.456 47.5881 149.232 48.6801 148.84 48.6801C148.392 48.6801 147.972 47.9801 147.552 46.7761C148.952 44.5921 150.072 42.0441 150.856 39.3001L148.308 38.6281C147.888 40.0561 147.328 41.4841 146.656 42.8001C146.404 41.2321 146.18 39.4401 146.04 37.5081H151.164V34.7361H148.868L150.856 33.6441C150.408 32.7481 149.344 31.4041 148.448 30.4241L146.208 31.6001C147.02 32.5241 147.916 33.8121 148.364 34.7361H145.872C145.816 33.2801 145.788 31.7961 145.788 30.3121H142.708C142.736 31.7961 142.792 33.2801 142.848 34.7361H138.088V46.8601ZM133.748 47.4201H137.08V44.5361H133.748V41.4281H137.444V38.5161H133.244V36.1641H137.024V33.2521H133.244V30.3121H130.192V33.2521H126.3V36.1641H130.192V38.5161H125.348V41.4281H130.752V49.4641C130.136 48.6801 129.632 47.7001 129.212 46.4681C129.24 45.3761 129.24 44.2841 129.212 43.2201L126.412 43.0521C126.552 46.8321 126.384 51.1721 124.592 54.3361C125.264 54.6721 126.328 55.6801 126.748 56.3521C127.672 54.8401 128.26 53.1041 128.652 51.3121C131.032 54.9521 134.644 55.7081 140.16 55.7081H150.296C150.52 54.7281 151.052 53.1881 151.584 52.4321C149.204 52.5161 142.176 52.5161 140.188 52.5161C137.584 52.5161 135.456 52.3481 133.748 51.6761V47.4201Z" fill="white"/>
<path d="M165.584 36.5281H162.812V33.9521H165.584V36.5281ZM165.584 41.6241H162.812V39.0201H165.584V41.6241ZM165.584 46.7201H162.812V44.0881H165.584V46.7201ZM168.496 31.3201H159.984V49.3801H168.496V31.3201ZM161.328 49.5761C160.768 51.5361 159.704 53.5521 158.444 54.8681C159.144 55.2321 160.348 56.0161 160.908 56.4921C162.224 54.9801 163.512 52.5721 164.24 50.2201L161.328 49.5761ZM174.936 46.0201V44.5921H176.476V46.0201H174.936ZM174.936 41.0641H176.476V42.3801H174.936V41.0641ZM174.936 37.5641H176.476V38.6561H174.936V37.5641ZM180.872 41.0641V42.3801H179.276V41.0641H180.872ZM179.276 46.0201V44.5921H180.872V46.0201H179.276ZM183.588 48.3721V44.7321H184.96V42.1561H183.588V38.6561H179.276V37.5641H184.344V35.0441H179.276V34.1481C180.9 33.5041 182.496 32.7481 183.784 31.9081L181.152 30.3121C180.032 31.2641 177.988 32.3281 176.028 33.0561C176.168 33.2521 176.336 33.5321 176.476 33.8121V35.0441H174.936V32.9441C175.748 32.6361 176.532 32.3281 177.204 31.9641L174.796 30.3121C173.536 31.1241 171.184 31.9361 169.084 32.4961C169.392 33.0001 169.784 33.8401 169.924 34.3441C170.652 34.2041 171.436 34.0081 172.192 33.8121V35.0441H169.224V37.5641H172.192V38.6561H169.868V41.0641H172.192V42.3801H168.916V44.5921H172.192V46.0201H169.756V48.3721H171.632C170.848 49.9121 169.784 51.3401 168.58 52.4321C168.16 51.4801 167.6 50.3601 167.068 49.4921L164.604 50.5561C165.276 51.8441 166.088 53.5801 166.452 54.7001L167.824 54.0281C168.3 54.5321 168.804 55.1481 169.112 55.5961C170.26 54.7281 171.296 53.4961 172.192 52.0401V56.4361H174.936V48.3721H176.476V56.4361H179.276V50.9761C180.424 52.7121 181.796 54.3081 183.112 55.3721C183.588 54.6721 184.512 53.6361 185.156 53.1321C183.504 52.0681 181.74 50.2481 180.452 48.3721H183.588Z" fill="white"/>
<path d="M223.467 47.2521V52.0961H211.819V47.2521H223.467ZM208.403 56.4081H211.819V55.2881H223.467V56.3801H227.051V44.0881H208.403V56.4081ZM220.583 35.0441C221.451 35.8001 222.375 36.6401 223.271 37.5361C220.051 37.6761 216.803 37.8161 213.779 37.9281C215.123 35.8841 216.523 33.5321 217.699 31.3201L213.863 30.0881C212.911 32.5521 211.315 35.6321 209.747 38.0681C208.179 38.0961 206.723 38.1521 205.435 38.1801L205.631 41.5401C210.839 41.3441 218.651 41.0361 226.043 40.6441C226.799 41.5681 227.415 42.4361 227.835 43.1921L230.719 40.9801C229.291 38.5721 225.959 35.3521 223.187 33.0841L220.583 35.0441Z" fill="white"/>
<path d="M256.451 30.7601H251.579V32.3561H256.451V30.7601ZM244.579 33.4481C243.739 32.5521 241.919 31.3761 240.547 30.6201L238.643 32.8881C240.043 33.7281 241.779 35.0161 242.563 35.9401L244.579 33.4481ZM244.047 40.5881C243.123 39.7201 241.303 38.6281 239.875 37.9561L238.055 40.2801C239.455 41.0361 241.275 42.2681 242.087 43.1361L244.047 40.5881ZM241.639 56.1001C242.759 53.3841 243.907 50.1361 244.803 47.1401L242.171 45.4601C241.135 48.7361 239.707 52.2641 238.699 54.4481L241.639 56.1001ZM254.687 42.6601H253.287V41.4281H254.687V42.6601ZM246.735 44.3961H248.835V38.8241L249.703 38.7401C249.759 39.0201 249.787 39.2721 249.815 39.4961L251.327 38.9361C251.215 38.0681 250.823 36.7241 250.347 35.7161L248.947 36.2201C249.031 36.4441 249.115 36.6961 249.199 36.9481L247.995 36.9761C248.863 35.9961 249.759 34.8481 250.571 33.7841V34.7921H257.263V34.4841C257.907 35.0441 258.523 35.7161 258.943 36.2761C258.691 36.5561 258.439 36.8641 258.215 37.1161L256.899 37.1441L257.095 39.1601L259.503 39.0201V40.0561L257.683 39.6361C257.459 40.6721 257.151 41.7921 256.703 42.7161V39.9441H251.355V44.1441H256.703V43.2201C257.207 43.4441 257.879 43.8081 258.215 44.0601C258.691 43.1641 259.195 41.8201 259.503 40.5601V44.3961H261.631V38.9081L262.723 38.8241C262.779 39.0761 262.835 39.3001 262.863 39.4961L264.543 38.7681C264.347 37.8441 263.815 36.4721 263.255 35.4641L261.659 36.1081C261.799 36.3881 261.939 36.6961 262.079 37.0041L260.539 37.0321C261.547 35.9401 262.611 34.6521 263.535 33.5041L261.687 32.4681C261.323 33.1121 260.819 33.8401 260.259 34.5961C260.091 34.4001 259.895 34.1761 259.671 33.9801C260.259 33.1681 260.903 32.1321 261.547 31.1801L259.643 30.2561C259.335 30.9561 258.831 31.9641 258.355 32.8321L257.991 32.5521L257.263 33.5321V33.0561H250.571V33.5321L248.891 32.5801C248.583 33.1401 248.163 33.7561 247.715 34.4281C247.547 34.2321 247.323 34.0641 247.127 33.8681C247.659 33.0561 248.275 32.0761 248.863 31.1241L246.987 30.1721C246.679 30.9281 246.203 31.9361 245.727 32.7761C245.587 32.6921 245.419 32.5801 245.279 32.4961L244.243 34.1201C244.999 34.6801 245.839 35.4361 246.455 36.1081C246.203 36.4441 245.923 36.7801 245.671 37.0881L243.963 37.1441L244.187 39.1601C244.971 39.1041 245.839 39.0481 246.735 38.9641V40.0561L244.887 39.6361C244.635 40.8961 244.243 42.2401 243.599 43.2481C244.103 43.4441 244.943 43.8641 245.363 44.1161C245.895 43.1921 246.399 41.8201 246.735 40.5601V44.3961ZM261.715 40.1401C262.191 41.2881 262.695 42.7721 262.863 43.7521L264.627 43.1641C264.403 42.2121 263.871 40.7561 263.395 39.6361L261.715 40.1401ZM251.383 39.1881H256.703V37.6761H251.383V39.1881ZM256.703 35.5201H251.383V37.0321H256.703V35.5201ZM251.271 42.6881C251.131 41.9041 250.823 40.6721 250.515 39.7481L248.919 40.1121C249.199 41.0921 249.479 42.3521 249.591 43.1641L251.271 42.6881ZM249.311 50.3881L249.535 49.5201H261.939V44.8721H246.063V46.7481H258.859V47.6161H246.903C246.567 49.3521 246.035 51.4241 245.531 52.8521L248.527 53.2441C248.611 52.9921 248.695 52.7121 248.779 52.4321H259.811C259.559 53.2161 259.307 53.6641 258.999 53.8881C258.719 54.0841 258.383 54.1121 257.823 54.1121C257.123 54.1121 255.275 54.0841 253.595 53.9161C254.071 54.6161 254.435 55.6241 254.491 56.3521C256.227 56.4081 257.935 56.4361 258.831 56.4081C259.951 56.3521 260.735 56.2121 261.435 55.6801C262.191 55.0641 262.695 53.8321 263.143 51.5921C263.255 51.2001 263.311 50.3881 263.311 50.3881H249.311Z" fill="white"/>
<path d="M297.359 41.2321V37.7881H286.355C286.635 35.1841 286.663 32.6081 286.691 30.3121H283.051C283.023 32.6081 283.051 35.1561 282.771 37.7881H272.579V41.2321H282.211C281.119 46.0481 278.459 50.6961 272.047 53.5521C273.027 54.2521 274.007 55.4561 274.539 56.3801C280.475 53.5241 283.499 49.1561 285.011 44.4801C287.195 49.8841 290.443 53.9721 295.511 56.3521C296.043 55.4001 297.135 53.9161 297.975 53.2161C292.739 51.0881 289.351 46.6921 287.503 41.2321H297.359Z" fill="white"/>
<path d="M311.835 45.5161V43.8081H316.707V45.5161H311.835ZM311.835 39.6081H316.707V41.3161H311.835V39.6081ZM325.023 39.6081V41.3161H320.123V39.6081H325.023ZM325.023 45.5161H320.123V43.8081H325.023V45.5161ZM331.295 49.6881H320.123V48.1761H328.383V36.9481H320.123V35.6041H330.483V32.5801H320.123V30.3121H316.707V32.5801H306.543V35.6041H316.707V36.9481H308.643V48.1761H316.707V49.6881H305.871V52.6841H316.707V56.4641H320.123V52.6841H331.295V49.6881Z" fill="white"/>
<path d="M354.927 39.8041C355.571 39.2721 356.159 38.7121 356.719 38.1241C357.139 40.5321 357.643 42.8281 358.315 44.9001C357.615 43.0801 356.523 41.3161 354.927 39.8041ZM363.243 38.9361C362.487 39.8321 361.367 40.9241 360.331 41.8481C359.939 40.4761 359.603 39.0481 359.323 37.5641H364.867V34.6801H361.311C361.871 33.7001 362.487 32.4681 363.131 31.2361L359.967 30.3121C359.575 31.6001 358.847 33.3081 358.231 34.4561L358.931 34.6801H354.255L354.899 34.4281C354.591 33.3081 353.835 31.6561 353.023 30.4521L350.335 31.3761C350.923 32.3561 351.483 33.6161 351.847 34.6801H348.599V37.5641H353.443C351.763 39.0201 349.607 40.3081 347.507 41.1761C348.067 41.7081 349.047 42.9121 349.439 43.5281C350.503 42.9681 351.651 42.2681 352.743 41.5121C353.051 41.8201 353.331 42.1561 353.583 42.5201C352.267 43.7241 350.279 45.0121 348.543 45.8521C348.543 44.2281 348.179 42.3521 346.499 40.2241C347.283 38.0401 348.207 34.9881 348.935 32.6081L346.751 31.3481L346.275 31.4881H340.199V56.4361H343.083V34.4561H345.267C344.819 36.3601 344.231 38.7961 343.671 40.5601C345.239 42.4361 345.603 44.1721 345.603 45.4601C345.603 46.2441 345.491 46.8041 345.183 47.0281C344.959 47.1961 344.707 47.2521 344.399 47.2801C344.035 47.2801 343.671 47.2801 343.167 47.2521C343.615 48.0361 343.867 49.2961 343.895 50.0801C344.539 50.1081 345.211 50.0801 345.687 50.0241C346.331 49.9121 346.863 49.7441 347.311 49.4361C347.983 48.9601 348.347 48.1201 348.487 46.9441C348.907 47.4481 349.299 48.0081 349.579 48.4841C351.231 47.5601 353.303 46.0761 354.899 44.6481C355.095 45.0681 355.263 45.4881 355.403 45.9081C353.359 48.3161 349.747 50.8081 346.611 51.9841C347.311 52.5441 348.123 53.5521 348.599 54.2801C351.063 53.1041 353.863 51.1161 356.019 49.0721C356.103 50.7801 355.767 52.1521 355.263 52.7121C354.927 53.3281 354.479 53.4401 353.891 53.4401C353.275 53.4401 352.575 53.3841 351.679 53.3001C352.267 54.2241 352.491 55.4841 352.519 56.3521C353.247 56.4081 353.891 56.4361 354.479 56.4081C355.851 56.3801 356.747 56.1001 357.615 55.1481C359.155 53.7481 359.799 49.8561 358.651 45.9361C359.799 49.1281 361.311 51.8161 363.383 53.7201C363.915 52.9081 364.895 51.7601 365.651 51.2001C363.747 49.6601 362.319 47.2801 361.227 44.4801C362.515 43.5561 364.055 42.2961 365.371 41.1481L363.243 38.9361Z" fill="white"/>
<path d="M390.627 49.0721V50.1641H380.855V49.0721H390.627ZM380.855 53.4961V52.3761H390.627V53.4961H380.855ZM377.579 56.4361H380.855V55.6801H390.627V56.3521H394.043V46.8881H377.579V56.4361ZM376.711 38.3761C378.139 37.7601 379.539 37.0601 380.827 36.3041V37.3681H390.655V36.4161C391.971 37.1441 393.371 37.8161 394.715 38.3761H376.711ZM392.587 43.9481H390.207C390.655 43.1641 391.187 42.0721 391.747 40.9521L389.563 40.4201H392.587V43.9481ZM378.811 43.9481V40.4201H381.947L379.791 41.0361C380.239 41.9321 380.603 43.0801 380.743 43.9481H378.811ZM384.243 43.9481H381.415L383.207 43.4161C383.039 42.5761 382.591 41.3721 382.087 40.4201H384.243V43.9481ZM388.975 40.4201C388.723 41.3441 388.247 42.6321 387.855 43.5001L389.507 43.9481H386.931V40.4201H388.975ZM382.591 35.2121C383.767 34.4281 384.775 33.6441 385.559 32.8601C386.399 33.6441 387.463 34.4561 388.667 35.2121H382.591ZM383.879 30.2841C381.583 32.7761 376.991 35.4081 372.427 36.7521C373.043 37.4241 373.771 38.6281 374.163 39.3561C374.779 39.1321 375.423 38.9081 376.039 38.6561V45.9921H395.499V38.6841C396.031 38.9081 396.591 39.1041 397.095 39.2721C397.599 38.4321 398.299 37.2561 398.999 36.5001C394.687 35.4361 390.179 33.2241 387.015 30.2841H383.879Z" fill="white"/>
<path d="M425.039 35.5761H413.727V33.7561H425.039V35.5761ZM428.595 31.1521H410.367V38.1521H428.595V31.1521ZM412.411 48.0921H426.131V49.3241H412.411V48.0921ZM412.411 44.7881H426.131V45.9641H412.411V44.7881ZM412.411 41.4561H426.131V42.6601H412.411V41.4561ZM429.575 51.5641V39.1881H409.107V51.5641H413.503C411.599 52.5161 408.715 53.5241 406.279 54.0561C407.035 54.7001 408.183 55.7361 408.799 56.4361C411.627 55.7361 415.211 54.3921 417.479 53.0761L415.323 51.5641H422.967L420.615 53.2441C423.583 54.1121 427.447 55.4841 429.603 56.4921L432.543 54.1401C430.611 53.3561 427.671 52.3481 425.039 51.5641H429.575Z" fill="white"/>
<path d="M465.695 45.4601V42.6321H454.635V41.0361H463.119V38.2921H454.635V37.1721C455.223 36.5561 455.755 35.8281 456.287 35.0161H457.379C458.107 36.0241 458.807 37.2001 459.115 37.9841L461.971 36.7801C461.747 36.3041 461.355 35.6601 460.907 35.0161H465.555V32.3001H457.827C458.051 31.8241 458.275 31.3201 458.415 30.8721L455.223 30.0601C454.663 31.6561 453.739 33.2801 452.619 34.5681V32.3001H446.487C446.739 31.8241 446.963 31.3761 447.159 30.9001L443.967 30.0601C442.987 32.4401 441.335 34.8481 439.515 36.3601C440.271 36.7521 441.643 37.6761 442.287 38.2081C443.127 37.3401 444.051 36.2481 444.891 35.0161H445.171C445.703 36.0241 446.263 37.1721 446.459 37.9561L449.315 36.7801C449.147 36.3041 448.839 35.6601 448.475 35.0161H452.227C451.919 35.3521 451.583 35.6881 451.219 35.9681C451.639 36.1921 452.255 36.5841 452.843 36.9481H451.163V38.2921H443.043V41.0361H451.163V42.6321H440.215V45.4601H456.679V47.1401H441.279V49.9401H446.431L444.947 51.0601C446.571 52.2641 448.391 54.0001 449.175 55.2601L451.751 53.1881C451.051 52.2081 449.707 50.9481 448.363 49.9401H456.679V52.9081C456.679 53.2441 456.539 53.3561 456.091 53.3561C455.643 53.3561 453.963 53.3561 452.535 53.3001C452.983 54.1681 453.543 55.4561 453.739 56.4081C455.811 56.4081 457.407 56.3801 458.583 55.9041C459.787 55.4001 460.123 54.6161 460.123 52.9641V49.9401H464.855V47.1401H460.123V45.4601H465.695Z" fill="white"/>
<path d="M474.515 46.6641C474.291 49.0161 473.843 51.5081 473.031 53.1601C473.759 53.4121 474.991 54.0001 475.579 54.3641C476.391 52.5721 476.979 49.7721 477.259 47.1401L474.515 46.6641ZM482.299 44.8721C482.467 45.4041 482.579 45.9081 482.663 46.3281L485.043 45.2641C484.735 43.6681 483.643 41.2321 482.551 39.3281L480.367 40.2521C480.703 40.8681 481.039 41.5401 481.319 42.2401L478.295 42.3801C480.059 40.1121 481.991 37.2841 483.531 34.8481L480.815 33.5881C480.171 34.9601 479.275 36.5561 478.323 38.1241C478.043 37.7881 477.735 37.3961 477.371 37.0041C478.379 35.4361 479.499 33.2801 480.507 31.3761L477.623 30.3121C477.147 31.7961 476.363 33.6441 475.579 35.1841C475.355 34.9881 475.131 34.7921 474.935 34.6241L473.339 36.8921C474.487 38.0121 475.831 39.4961 476.643 40.7001C476.195 41.3441 475.775 41.9321 475.355 42.4921L473.311 42.5761L473.591 45.4601C474.795 45.3761 476.195 45.2921 477.651 45.2081V56.4641H480.535V45.0121L482.299 44.8721ZM488.879 34.9601H492.183C491.791 37.3121 491.259 40.2241 490.727 42.5761L493.695 42.9121L493.919 41.8201H495.739C495.095 44.2841 494.143 46.4401 492.939 48.2321C490.783 45.0121 489.579 40.8121 488.879 36.0801V34.9601ZM497.391 38.7401L496.831 38.8521H494.535C494.983 36.5281 495.403 34.1201 495.683 32.0761L493.471 31.7681L492.967 31.9081H483.671V34.9601H485.995V39.1321C485.995 42.1281 485.799 46.1601 484.343 49.8561C484.007 48.7361 483.531 47.4201 483.055 46.3841L480.703 47.1401C481.319 48.6801 481.963 50.6681 482.215 51.9841L483.615 51.4801C483.055 52.5721 482.355 53.6081 481.487 54.5601C482.243 54.9241 483.363 55.7921 483.923 56.3241C486.695 53.2441 487.955 49.2121 488.487 45.4041C489.159 47.3361 489.971 49.1001 491.007 50.6681C489.691 52.0121 488.179 53.1041 486.499 53.9161C487.199 54.4201 488.291 55.6521 488.739 56.3801C490.279 55.5401 491.707 54.4761 492.995 53.1321C494.367 54.5041 495.991 55.6241 497.923 56.4641C498.343 55.6241 499.267 54.3641 499.939 53.7761C497.979 53.0761 496.355 52.0401 494.983 50.7241C497.027 47.8121 498.539 44.0881 499.379 39.4961L497.391 38.7401Z" fill="white"/>
<path d="M507.275 41.2881V44.9001H533.035V41.2881H507.275Z" fill="white"/>
<path d="M548.743 35.9401C547.679 34.7641 545.411 33.0841 543.759 32.0201L541.351 34.4561C543.087 35.6881 545.271 37.4801 546.251 38.6841L548.743 35.9401ZM546.923 43.0241C544.627 45.5721 542.135 48.1481 540.595 49.6601L542.723 52.4881C544.627 50.6121 546.895 48.1761 548.855 45.9081L546.923 43.0241ZM558.515 38.4321H562.463C561.959 40.0281 561.259 41.6241 560.699 42.6881C561.483 42.9961 562.855 43.6681 563.527 44.0601C564.619 42.0441 565.963 39.1601 566.747 36.3601L564.283 34.9321L563.639 35.1001H554.007C554.455 33.7841 554.819 32.4121 555.127 31.0121L551.655 30.3681C550.787 34.8481 549.107 39.1601 546.727 41.7361C547.567 42.1281 549.191 43.0241 549.863 43.5561C550.927 42.1841 551.935 40.4201 552.775 38.4321H555.015V41.3161C555.015 44.4241 553.139 50.6121 545.579 53.6361C546.167 54.2521 547.203 55.6521 547.595 56.4361C553.251 53.9721 556.107 49.2121 556.779 46.7201C557.311 49.2121 559.915 54.1401 564.927 56.4361C565.459 55.5681 566.411 54.1961 567.055 53.3841C560.195 50.3881 558.515 44.2841 558.515 41.2881V38.4321Z" fill="white"/>
<path d="M593.767 46.3281H583.631V45.1241H593.767V46.3281ZM583.631 52.9921V51.7041H593.767V52.9921H583.631ZM593.767 49.6321H583.631V48.4001H593.767V49.6321ZM599.759 41.4561V38.8241H585.899C586.067 38.4321 586.234 38.0121 586.374 37.6201H598.246V35.1001H587.271C587.411 34.6521 587.551 34.2041 587.663 33.7561C591.499 33.5601 595.166 33.2521 598.134 32.7481L596.175 30.3681C591.471 31.1521 583.378 31.4881 576.546 31.4881C576.826 32.1601 577.135 33.2521 577.163 33.9801C579.347 34.0081 581.671 33.9801 583.995 33.8961C583.911 34.3161 583.798 34.7081 583.686 35.1001H576.855V37.6201H582.79C582.622 38.0121 582.455 38.4321 582.259 38.8241H574.895V41.4561H580.858C579.178 44.0881 576.939 46.4121 574.027 47.9801C574.671 48.6521 575.65 49.8841 576.126 50.6681C577.75 49.7161 579.179 48.5681 580.439 47.3081V56.5201H583.631V55.5121H593.767V56.5201H597.126V42.6041H584.022C584.246 42.2121 584.471 41.8481 584.667 41.4561H599.759Z" fill="white"/>
<path d="M70.888 46.8601C70.076 47.3081 69.348 47.7281 68.732 48.0361L70.132 50.6961C72.12 49.4641 74.5 47.8681 76.684 46.3841L75.76 44.0041L73.828 45.1521V37.5081H75.844C76.096 40.8401 76.544 43.8921 77.216 46.3281C76.096 47.7281 74.836 48.9041 73.436 49.7721C74.08 50.3041 75.004 51.3681 75.424 52.0681C76.488 51.3401 77.468 50.4441 78.392 49.4081C79.148 50.8641 80.128 51.7041 81.304 51.7041C83.32 51.7041 84.16 50.6681 84.58 46.8041C83.852 46.4961 82.928 45.8521 82.34 45.1801C82.256 47.5881 82.032 48.6801 81.64 48.6801C81.192 48.6801 80.772 47.9801 80.352 46.7761C81.752 44.5921 82.872 42.0441 83.656 39.3001L81.108 38.6281C80.688 40.0561 80.128 41.4841 79.456 42.8001C79.204 41.2321 78.98 39.4401 78.84 37.5081H83.964V34.7361H81.668L83.656 33.6441C83.208 32.7481 82.144 31.4041 81.248 30.4241L79.008 31.6001C79.82 32.5241 80.716 33.8121 81.164 34.7361H78.672C78.616 33.2801 78.588 31.7961 78.588 30.3121H75.508C75.536 31.7961 75.592 33.2801 75.648 34.7361H70.888V46.8601ZM66.548 47.4201H69.88V44.5361H66.548V41.4281H70.244V38.5161H66.044V36.1641H69.824V33.2521H66.044V30.3121H62.992V33.2521H59.1V36.1641H62.992V38.5161H58.148V41.4281H63.552V49.4641C62.936 48.6801 62.432 47.7001 62.012 46.4681C62.04 45.3761 62.04 44.2841 62.012 43.2201L59.212 43.0521C59.352 46.8321 59.184 51.1721 57.392 54.3361C58.064 54.6721 59.128 55.6801 59.548 56.3521C60.472 54.8401 61.06 53.1041 61.452 51.3121C63.832 54.9521 67.444 55.7081 72.96 55.7081H83.096C83.32 54.7281 83.852 53.1881 84.384 52.4321C82.004 52.5161 74.976 52.5161 72.988 52.5161C70.384 52.5161 68.256 52.3481 66.548 51.6761V47.4201Z" stroke="black" stroke-width="6" stroke-linecap="round" mask="url(#path-3-outside-1)"/>
<path d="M112.188 50.1641V52.7961H105.244V50.1641H112.188ZM102.248 56.4361H105.244V55.4281H112.188V56.3241H115.324V47.5321H102.248V56.4361ZM105.664 43.2201C106.868 42.1001 107.904 40.9241 108.604 39.8321C109.388 40.9521 110.508 42.1281 111.74 43.2201H105.664ZM106.98 36.9761C106.868 37.1441 106.756 37.3401 106.644 37.5361V35.6601H110.9V37.9001H114.036V35.6601H117.312V32.8321H114.036V30.3121H110.9V32.8321H106.644V30.3121H103.564V32.8321H100.456V35.6601H103.564V37.8161H106.448C105.104 39.7761 102.92 41.8761 100.568 43.3041L100.316 41.5401L98.272 42.1001V38.6281H100.428V35.5761H98.272V30.3121H95.08V35.5761H91.832V38.6281H95.08V42.9681C93.652 43.3601 92.336 43.6961 91.272 43.9201L91.972 47.1401C92.924 46.8601 93.988 46.5521 95.08 46.2441V52.6561C95.08 53.0761 94.94 53.1881 94.604 53.1881C94.24 53.2161 93.092 53.2161 92 53.1601C92.42 54.0841 92.84 55.5121 92.924 56.4081C94.856 56.4081 96.172 56.2961 97.096 55.7361C97.992 55.2321 98.272 54.3361 98.272 52.6841V45.2641L99.7 44.8161C100.12 45.4321 100.484 46.1881 100.708 46.7201C101.996 46.0761 103.228 45.2641 104.376 44.3401V45.8521H113.056V44.2841C114.12 45.1241 115.24 45.8241 116.332 46.3841C116.78 45.4321 117.424 44.2281 118.068 43.4721C115.044 42.2961 112.02 39.8041 110.004 36.9761H106.98Z" stroke="black" stroke-width="6" stroke-linecap="round" mask="url(#path-3-outside-1)"/>
<path d="M138.088 46.8601C137.276 47.3081 136.548 47.7281 135.932 48.0361L137.332 50.6961C139.32 49.4641 141.7 47.8681 143.884 46.3841L142.96 44.0041L141.028 45.1521V37.5081H143.044C143.296 40.8401 143.744 43.8921 144.416 46.3281C143.296 47.7281 142.036 48.9041 140.636 49.7721C141.28 50.3041 142.204 51.3681 142.624 52.0681C143.688 51.3401 144.668 50.4441 145.592 49.4081C146.348 50.8641 147.328 51.7041 148.504 51.7041C150.52 51.7041 151.36 50.6681 151.78 46.8041C151.052 46.4961 150.128 45.8521 149.54 45.1801C149.456 47.5881 149.232 48.6801 148.84 48.6801C148.392 48.6801 147.972 47.9801 147.552 46.7761C148.952 44.5921 150.072 42.0441 150.856 39.3001L148.308 38.6281C147.888 40.0561 147.328 41.4841 146.656 42.8001C146.404 41.2321 146.18 39.4401 146.04 37.5081H151.164V34.7361H148.868L150.856 33.6441C150.408 32.7481 149.344 31.4041 148.448 30.4241L146.208 31.6001C147.02 32.5241 147.916 33.8121 148.364 34.7361H145.872C145.816 33.2801 145.788 31.7961 145.788 30.3121H142.708C142.736 31.7961 142.792 33.2801 142.848 34.7361H138.088V46.8601ZM133.748 47.4201H137.08V44.5361H133.748V41.4281H137.444V38.5161H133.244V36.1641H137.024V33.2521H133.244V30.3121H130.192V33.2521H126.3V36.1641H130.192V38.5161H125.348V41.4281H130.752V49.4641C130.136 48.6801 129.632 47.7001 129.212 46.4681C129.24 45.3761 129.24 44.2841 129.212 43.2201L126.412 43.0521C126.552 46.8321 126.384 51.1721 124.592 54.3361C125.264 54.6721 126.328 55.6801 126.748 56.3521C127.672 54.8401 128.26 53.1041 128.652 51.3121C131.032 54.9521 134.644 55.7081 140.16 55.7081H150.296C150.52 54.7281 151.052 53.1881 151.584 52.4321C149.204 52.5161 142.176 52.5161 140.188 52.5161C137.584 52.5161 135.456 52.3481 133.748 51.6761V47.4201Z" stroke="black" stroke-width="6" stroke-linecap="round" mask="url(#path-3-outside-1)"/>
<path d="M165.584 36.5281H162.812V33.9521H165.584V36.5281ZM165.584 41.6241H162.812V39.0201H165.584V41.6241ZM165.584 46.7201H162.812V44.0881H165.584V46.7201ZM168.496 31.3201H159.984V49.3801H168.496V31.3201ZM161.328 49.5761C160.768 51.5361 159.704 53.5521 158.444 54.8681C159.144 55.2321 160.348 56.0161 160.908 56.4921C162.224 54.9801 163.512 52.5721 164.24 50.2201L161.328 49.5761ZM174.936 46.0201V44.5921H176.476V46.0201H174.936ZM174.936 41.0641H176.476V42.3801H174.936V41.0641ZM174.936 37.5641H176.476V38.6561H174.936V37.5641ZM180.872 41.0641V42.3801H179.276V41.0641H180.872ZM179.276 46.0201V44.5921H180.872V46.0201H179.276ZM183.588 48.3721V44.7321H184.96V42.1561H183.588V38.6561H179.276V37.5641H184.344V35.0441H179.276V34.1481C180.9 33.5041 182.496 32.7481 183.784 31.9081L181.152 30.3121C180.032 31.2641 177.988 32.3281 176.028 33.0561C176.168 33.2521 176.336 33.5321 176.476 33.8121V35.0441H174.936V32.9441C175.748 32.6361 176.532 32.3281 177.204 31.9641L174.796 30.3121C173.536 31.1241 171.184 31.9361 169.084 32.4961C169.392 33.0001 169.784 33.8401 169.924 34.3441C170.652 34.2041 171.436 34.0081 172.192 33.8121V35.0441H169.224V37.5641H172.192V38.6561H169.868V41.0641H172.192V42.3801H168.916V44.5921H172.192V46.0201H169.756V48.3721H171.632C170.848 49.9121 169.784 51.3401 168.58 52.4321C168.16 51.4801 167.6 50.3601 167.068 49.4921L164.604 50.5561C165.276 51.8441 166.088 53.5801 166.452 54.7001L167.824 54.0281C168.3 54.5321 168.804 55.1481 169.112 55.5961C170.26 54.7281 171.296 53.4961 172.192 52.0401V56.4361H174.936V48.3721H176.476V56.4361H179.276V50.9761C180.424 52.7121 181.796 54.3081 183.112 55.3721C183.588 54.6721 184.512 53.6361 185.156 53.1321C183.504 52.0681 181.74 50.2481 180.452 48.3721H183.588Z" stroke="black" stroke-width="6" stroke-linecap="round" mask="url(#path-3-outside-1)"/>
<path d="M223.467 47.2521V52.0961H211.819V47.2521H223.467ZM208.403 56.4081H211.819V55.2881H223.467V56.3801H227.051V44.0881H208.403V56.4081ZM220.583 35.0441C221.451 35.8001 222.375 36.6401 223.271 37.5361C220.051 37.6761 216.803 37.8161 213.779 37.9281C215.123 35.8841 216.523 33.5321 217.699 31.3201L213.863 30.0881C212.911 32.5521 211.315 35.6321 209.747 38.0681C208.179 38.0961 206.723 38.1521 205.435 38.1801L205.631 41.5401C210.839 41.3441 218.651 41.0361 226.043 40.6441C226.799 41.5681 227.415 42.4361 227.835 43.1921L230.719 40.9801C229.291 38.5721 225.959 35.3521 223.187 33.0841L220.583 35.0441Z" stroke="black" stroke-width="6" stroke-linecap="round" mask="url(#path-3-outside-1)"/>
<path d="M256.451 30.7601H251.579V32.3561H256.451V30.7601ZM244.579 33.4481C243.739 32.5521 241.919 31.3761 240.547 30.6201L238.643 32.8881C240.043 33.7281 241.779 35.0161 242.563 35.9401L244.579 33.4481ZM244.047 40.5881C243.123 39.7201 241.303 38.6281 239.875 37.9561L238.055 40.2801C239.455 41.0361 241.275 42.2681 242.087 43.1361L244.047 40.5881ZM241.639 56.1001C242.759 53.3841 243.907 50.1361 244.803 47.1401L242.171 45.4601C241.135 48.7361 239.707 52.2641 238.699 54.4481L241.639 56.1001ZM254.687 42.6601H253.287V41.4281H254.687V42.6601ZM246.735 44.3961H248.835V38.8241L249.703 38.7401C249.759 39.0201 249.787 39.2721 249.815 39.4961L251.327 38.9361C251.215 38.0681 250.823 36.7241 250.347 35.7161L248.947 36.2201C249.031 36.4441 249.115 36.6961 249.199 36.9481L247.995 36.9761C248.863 35.9961 249.759 34.8481 250.571 33.7841V34.7921H257.263V34.4841C257.907 35.0441 258.523 35.7161 258.943 36.2761C258.691 36.5561 258.439 36.8641 258.215 37.1161L256.899 37.1441L257.095 39.1601L259.503 39.0201V40.0561L257.683 39.6361C257.459 40.6721 257.151 41.7921 256.703 42.7161V39.9441H251.355V44.1441H256.703V43.2201C257.207 43.4441 257.879 43.8081 258.215 44.0601C258.691 43.1641 259.195 41.8201 259.503 40.5601V44.3961H261.631V38.9081L262.723 38.8241C262.779 39.0761 262.835 39.3001 262.863 39.4961L264.543 38.7681C264.347 37.8441 263.815 36.4721 263.255 35.4641L261.659 36.1081C261.799 36.3881 261.939 36.6961 262.079 37.0041L260.539 37.0321C261.547 35.9401 262.611 34.6521 263.535 33.5041L261.687 32.4681C261.323 33.1121 260.819 33.8401 260.259 34.5961C260.091 34.4001 259.895 34.1761 259.671 33.9801C260.259 33.1681 260.903 32.1321 261.547 31.1801L259.643 30.2561C259.335 30.9561 258.831 31.9641 258.355 32.8321L257.991 32.5521L257.263 33.5321V33.0561H250.571V33.5321L248.891 32.5801C248.583 33.1401 248.163 33.7561 247.715 34.4281C247.547 34.2321 247.323 34.0641 247.127 33.8681C247.659 33.0561 248.275 32.0761 248.863 31.1241L246.987 30.1721C246.679 30.9281 246.203 31.9361 245.727 32.7761C245.587 32.6921 245.419 32.5801 245.279 32.4961L244.243 34.1201C244.999 34.6801 245.839 35.4361 246.455 36.1081C246.203 36.4441 245.923 36.7801 245.671 37.0881L243.963 37.1441L244.187 39.1601C244.971 39.1041 245.839 39.0481 246.735 38.9641V40.0561L244.887 39.6361C244.635 40.8961 244.243 42.2401 243.599 43.2481C244.103 43.4441 244.943 43.8641 245.363 44.1161C245.895 43.1921 246.399 41.8201 246.735 40.5601V44.3961ZM261.715 40.1401C262.191 41.2881 262.695 42.7721 262.863 43.7521L264.627 43.1641C264.403 42.2121 263.871 40.7561 263.395 39.6361L261.715 40.1401ZM251.383 39.1881H256.703V37.6761H251.383V39.1881ZM256.703 35.5201H251.383V37.0321H256.703V35.5201ZM251.271 42.6881C251.131 41.9041 250.823 40.6721 250.515 39.7481L248.919 40.1121C249.199 41.0921 249.479 42.3521 249.591 43.1641L251.271 42.6881ZM249.311 50.3881L249.535 49.5201H261.939V44.8721H246.063V46.7481H258.859V47.6161H246.903C246.567 49.3521 246.035 51.4241 245.531 52.8521L248.527 53.2441C248.611 52.9921 248.695 52.7121 248.779 52.4321H259.811C259.559 53.2161 259.307 53.6641 258.999 53.8881C258.719 54.0841 258.383 54.1121 257.823 54.1121C257.123 54.1121 255.275 54.0841 253.595 53.9161C254.071 54.6161 254.435 55.6241 254.491 56.3521C256.227 56.4081 257.935 56.4361 258.831 56.4081C259.951 56.3521 260.735 56.2121 261.435 55.6801C262.191 55.0641 262.695 53.8321 263.143 51.5921C263.255 51.2001 263.311 50.3881 263.311 50.3881H249.311Z" stroke="black" stroke-width="6" stroke-linecap="round" mask="url(#path-3-outside-1)"/>
<path d="M297.359 41.2321V37.7881H286.355C286.635 35.1841 286.663 32.6081 286.691 30.3121H283.051C283.023 32.6081 283.051 35.1561 282.771 37.7881H272.579V41.2321H282.211C281.119 46.0481 278.459 50.6961 272.047 53.5521C273.027 54.2521 274.007 55.4561 274.539 56.3801C280.475 53.5241 283.499 49.1561 285.011 44.4801C287.195 49.8841 290.443 53.9721 295.511 56.3521C296.043 55.4001 297.135 53.9161 297.975 53.2161C292.739 51.0881 289.351 46.6921 287.503 41.2321H297.359Z" stroke="black" stroke-width="6" stroke-linecap="round" mask="url(#path-3-outside-1)"/>
<path d="M311.835 45.5161V43.8081H316.707V45.5161H311.835ZM311.835 39.6081H316.707V41.3161H311.835V39.6081ZM325.023 39.6081V41.3161H320.123V39.6081H325.023ZM325.023 45.5161H320.123V43.8081H325.023V45.5161ZM331.295 49.6881H320.123V48.1761H328.383V36.9481H320.123V35.6041H330.483V32.5801H320.123V30.3121H316.707V32.5801H306.543V35.6041H316.707V36.9481H308.643V48.1761H316.707V49.6881H305.871V52.6841H316.707V56.4641H320.123V52.6841H331.295V49.6881Z" stroke="black" stroke-width="6" stroke-linecap="round" mask="url(#path-3-outside-1)"/>
<path d="M354.927 39.8041C355.571 39.2721 356.159 38.7121 356.719 38.1241C357.139 40.5321 357.643 42.8281 358.315 44.9001C357.615 43.0801 356.523 41.3161 354.927 39.8041ZM363.243 38.9361C362.487 39.8321 361.367 40.9241 360.331 41.8481C359.939 40.4761 359.603 39.0481 359.323 37.5641H364.867V34.6801H361.311C361.871 33.7001 362.487 32.4681 363.131 31.2361L359.967 30.3121C359.575 31.6001 358.847 33.3081 358.231 34.4561L358.931 34.6801H354.255L354.899 34.4281C354.591 33.3081 353.835 31.6561 353.023 30.4521L350.335 31.3761C350.923 32.3561 351.483 33.6161 351.847 34.6801H348.599V37.5641H353.443C351.763 39.0201 349.607 40.3081 347.507 41.1761C348.067 41.7081 349.047 42.9121 349.439 43.5281C350.503 42.9681 351.651 42.2681 352.743 41.5121C353.051 41.8201 353.331 42.1561 353.583 42.5201C352.267 43.7241 350.279 45.0121 348.543 45.8521C348.543 44.2281 348.179 42.3521 346.499 40.2241C347.283 38.0401 348.207 34.9881 348.935 32.6081L346.751 31.3481L346.275 31.4881H340.199V56.4361H343.083V34.4561H345.267C344.819 36.3601 344.231 38.7961 343.671 40.5601C345.239 42.4361 345.603 44.1721 345.603 45.4601C345.603 46.2441 345.491 46.8041 345.183 47.0281C344.959 47.1961 344.707 47.2521 344.399 47.2801C344.035 47.2801 343.671 47.2801 343.167 47.2521C343.615 48.0361 343.867 49.2961 343.895 50.0801C344.539 50.1081 345.211 50.0801 345.687 50.0241C346.331 49.9121 346.863 49.7441 347.311 49.4361C347.983 48.9601 348.347 48.1201 348.487 46.9441C348.907 47.4481 349.299 48.0081 349.579 48.4841C351.231 47.5601 353.303 46.0761 354.899 44.6481C355.095 45.0681 355.263 45.4881 355.403 45.9081C353.359 48.3161 349.747 50.8081 346.611 51.9841C347.311 52.5441 348.123 53.5521 348.599 54.2801C351.063 53.1041 353.863 51.1161 356.019 49.0721C356.103 50.7801 355.767 52.1521 355.263 52.7121C354.927 53.3281 354.479 53.4401 353.891 53.4401C353.275 53.4401 352.575 53.3841 351.679 53.3001C352.267 54.2241 352.491 55.4841 352.519 56.3521C353.247 56.4081 353.891 56.4361 354.479 56.4081C355.851 56.3801 356.747 56.1001 357.615 55.1481C359.155 53.7481 359.799 49.8561 358.651 45.9361C359.799 49.1281 361.311 51.8161 363.383 53.7201C363.915 52.9081 364.895 51.7601 365.651 51.2001C363.747 49.6601 362.319 47.2801 361.227 44.4801C362.515 43.5561 364.055 42.2961 365.371 41.1481L363.243 38.9361Z" stroke="black" stroke-width="6" stroke-linecap="round" mask="url(#path-3-outside-1)"/>
<path d="M390.627 49.0721V50.1641H380.855V49.0721H390.627ZM380.855 53.4961V52.3761H390.627V53.4961H380.855ZM377.579 56.4361H380.855V55.6801H390.627V56.3521H394.043V46.8881H377.579V56.4361ZM376.711 38.3761C378.139 37.7601 379.539 37.0601 380.827 36.3041V37.3681H390.655V36.4161C391.971 37.1441 393.371 37.8161 394.715 38.3761H376.711ZM392.587 43.9481H390.207C390.655 43.1641 391.187 42.0721 391.747 40.9521L389.563 40.4201H392.587V43.9481ZM378.811 43.9481V40.4201H381.947L379.791 41.0361C380.239 41.9321 380.603 43.0801 380.743 43.9481H378.811ZM384.243 43.9481H381.415L383.207 43.4161C383.039 42.5761 382.591 41.3721 382.087 40.4201H384.243V43.9481ZM388.975 40.4201C388.723 41.3441 388.247 42.6321 387.855 43.5001L389.507 43.9481H386.931V40.4201H388.975ZM382.591 35.2121C383.767 34.4281 384.775 33.6441 385.559 32.8601C386.399 33.6441 387.463 34.4561 388.667 35.2121H382.591ZM383.879 30.2841C381.583 32.7761 376.991 35.4081 372.427 36.7521C373.043 37.4241 373.771 38.6281 374.163 39.3561C374.779 39.1321 375.423 38.9081 376.039 38.6561V45.9921H395.499V38.6841C396.031 38.9081 396.591 39.1041 397.095 39.2721C397.599 38.4321 398.299 37.2561 398.999 36.5001C394.687 35.4361 390.179 33.2241 387.015 30.2841H383.879Z" stroke="black" stroke-width="6" stroke-linecap="round" mask="url(#path-3-outside-1)"/>
<path d="M425.039 35.5761H413.727V33.7561H425.039V35.5761ZM428.595 31.1521H410.367V38.1521H428.595V31.1521ZM412.411 48.0921H426.131V49.3241H412.411V48.0921ZM412.411 44.7881H426.131V45.9641H412.411V44.7881ZM412.411 41.4561H426.131V42.6601H412.411V41.4561ZM429.575 51.5641V39.1881H409.107V51.5641H413.503C411.599 52.5161 408.715 53.5241 406.279 54.0561C407.035 54.7001 408.183 55.7361 408.799 56.4361C411.627 55.7361 415.211 54.3921 417.479 53.0761L415.323 51.5641H422.967L420.615 53.2441C423.583 54.1121 427.447 55.4841 429.603 56.4921L432.543 54.1401C430.611 53.3561 427.671 52.3481 425.039 51.5641H429.575Z" stroke="black" stroke-width="6" stroke-linecap="round" mask="url(#path-3-outside-1)"/>
<path d="M465.695 45.4601V42.6321H454.635V41.0361H463.119V38.2921H454.635V37.1721C455.223 36.5561 455.755 35.8281 456.287 35.0161H457.379C458.107 36.0241 458.807 37.2001 459.115 37.9841L461.971 36.7801C461.747 36.3041 461.355 35.6601 460.907 35.0161H465.555V32.3001H457.827C458.051 31.8241 458.275 31.3201 458.415 30.8721L455.223 30.0601C454.663 31.6561 453.739 33.2801 452.619 34.5681V32.3001H446.487C446.739 31.8241 446.963 31.3761 447.159 30.9001L443.967 30.0601C442.987 32.4401 441.335 34.8481 439.515 36.3601C440.271 36.7521 441.643 37.6761 442.287 38.2081C443.127 37.3401 444.051 36.2481 444.891 35.0161H445.171C445.703 36.0241 446.263 37.1721 446.459 37.9561L449.315 36.7801C449.147 36.3041 448.839 35.6601 448.475 35.0161H452.227C451.919 35.3521 451.583 35.6881 451.219 35.9681C451.639 36.1921 452.255 36.5841 452.843 36.9481H451.163V38.2921H443.043V41.0361H451.163V42.6321H440.215V45.4601H456.679V47.1401H441.279V49.9401H446.431L444.947 51.0601C446.571 52.2641 448.391 54.0001 449.175 55.2601L451.751 53.1881C451.051 52.2081 449.707 50.9481 448.363 49.9401H456.679V52.9081C456.679 53.2441 456.539 53.3561 456.091 53.3561C455.643 53.3561 453.963 53.3561 452.535 53.3001C452.983 54.1681 453.543 55.4561 453.739 56.4081C455.811 56.4081 457.407 56.3801 458.583 55.9041C459.787 55.4001 460.123 54.6161 460.123 52.9641V49.9401H464.855V47.1401H460.123V45.4601H465.695Z" stroke="black" stroke-width="6" stroke-linecap="round" mask="url(#path-3-outside-1)"/>
<path d="M474.515 46.6641C474.291 49.0161 473.843 51.5081 473.031 53.1601C473.759 53.4121 474.991 54.0001 475.579 54.3641C476.391 52.5721 476.979 49.7721 477.259 47.1401L474.515 46.6641ZM482.299 44.8721C482.467 45.4041 482.579 45.9081 482.663 46.3281L485.043 45.2641C484.735 43.6681 483.643 41.2321 482.551 39.3281L480.367 40.2521C480.703 40.8681 481.039 41.5401 481.319 42.2401L478.295 42.3801C480.059 40.1121 481.991 37.2841 483.531 34.8481L480.815 33.5881C480.171 34.9601 479.275 36.5561 478.323 38.1241C478.043 37.7881 477.735 37.3961 477.371 37.0041C478.379 35.4361 479.499 33.2801 480.507 31.3761L477.623 30.3121C477.147 31.7961 476.363 33.6441 475.579 35.1841C475.355 34.9881 475.131 34.7921 474.935 34.6241L473.339 36.8921C474.487 38.0121 475.831 39.4961 476.643 40.7001C476.195 41.3441 475.775 41.9321 475.355 42.4921L473.311 42.5761L473.591 45.4601C474.795 45.3761 476.195 45.2921 477.651 45.2081V56.4641H480.535V45.0121L482.299 44.8721ZM488.879 34.9601H492.183C491.791 37.3121 491.259 40.2241 490.727 42.5761L493.695 42.9121L493.919 41.8201H495.739C495.095 44.2841 494.143 46.4401 492.939 48.2321C490.783 45.0121 489.579 40.8121 488.879 36.0801V34.9601ZM497.391 38.7401L496.831 38.8521H494.535C494.983 36.5281 495.403 34.1201 495.683 32.0761L493.471 31.7681L492.967 31.9081H483.671V34.9601H485.995V39.1321C485.995 42.1281 485.799 46.1601 484.343 49.8561C484.007 48.7361 483.531 47.4201 483.055 46.3841L480.703 47.1401C481.319 48.6801 481.963 50.6681 482.215 51.9841L483.615 51.4801C483.055 52.5721 482.355 53.6081 481.487 54.5601C482.243 54.9241 483.363 55.7921 483.923 56.3241C486.695 53.2441 487.955 49.2121 488.487 45.4041C489.159 47.3361 489.971 49.1001 491.007 50.6681C489.691 52.0121 488.179 53.1041 486.499 53.9161C487.199 54.4201 488.291 55.6521 488.739 56.3801C490.279 55.5401 491.707 54.4761 492.995 53.1321C494.367 54.5041 495.991 55.6241 497.923 56.4641C498.343 55.6241 499.267 54.3641 499.939 53.7761C497.979 53.0761 496.355 52.0401 494.983 50.7241C497.027 47.8121 498.539 44.0881 499.379 39.4961L497.391 38.7401Z" stroke="black" stroke-width="6" stroke-linecap="round" mask="url(#path-3-outside-1)"/>
<path d="M507.275 41.2881V44.9001H533.035V41.2881H507.275Z" stroke="black" stroke-width="6" stroke-linecap="round" mask="url(#path-3-outside-1)"/>
<path d="M548.743 35.9401C547.679 34.7641 545.411 33.0841 543.759 32.0201L541.351 34.4561C543.087 35.6881 545.271 37.4801 546.251 38.6841L548.743 35.9401ZM546.923 43.0241C544.627 45.5721 542.135 48.1481 540.595 49.6601L542.723 52.4881C544.627 50.6121 546.895 48.1761 548.855 45.9081L546.923 43.0241ZM558.515 38.4321H562.463C561.959 40.0281 561.259 41.6241 560.699 42.6881C561.483 42.9961 562.855 43.6681 563.527 44.0601C564.619 42.0441 565.963 39.1601 566.747 36.3601L564.283 34.9321L563.639 35.1001H554.007C554.455 33.7841 554.819 32.4121 555.127 31.0121L551.655 30.3681C550.787 34.8481 549.107 39.1601 546.727 41.7361C547.567 42.1281 549.191 43.0241 549.863 43.5561C550.927 42.1841 551.935 40.4201 552.775 38.4321H555.015V41.3161C555.015 44.4241 553.139 50.6121 545.579 53.6361C546.167 54.2521 547.203 55.6521 547.595 56.4361C553.251 53.9721 556.107 49.2121 556.779 46.7201C557.311 49.2121 559.915 54.1401 564.927 56.4361C565.459 55.5681 566.411 54.1961 567.055 53.3841C560.195 50.3881 558.515 44.2841 558.515 41.2881V38.4321Z" stroke="black" stroke-width="6" stroke-linecap="round" mask="url(#path-3-outside-1)"/>
<path d="M593.767 46.3281H583.631V45.1241H593.767V46.3281ZM583.631 52.9921V51.7041H593.767V52.9921H583.631ZM593.767 49.6321H583.631V48.4001H593.767V49.6321ZM599.759 41.4561V38.8241H585.899C586.067 38.4321 586.234 38.0121 586.374 37.6201H598.246V35.1001H587.271C587.411 34.6521 587.551 34.2041 587.663 33.7561C591.499 33.5601 595.166 33.2521 598.134 32.7481L596.175 30.3681C591.471 31.1521 583.378 31.4881 576.546 31.4881C576.826 32.1601 577.135 33.2521 577.163 33.9801C579.347 34.0081 581.671 33.9801 583.995 33.8961C583.911 34.3161 583.798 34.7081 583.686 35.1001H576.855V37.6201H582.79C582.622 38.0121 582.455 38.4321 582.259 38.8241H574.895V41.4561H580.858C579.178 44.0881 576.939 46.4121 574.027 47.9801C574.671 48.6521 575.65 49.8841 576.126 50.6681C577.75 49.7161 579.179 48.5681 580.439 47.3081V56.5201H583.631V55.5121H593.767V56.5201H597.126V42.6041H584.022C584.246 42.2121 584.471 41.8481 584.667 41.4561H599.759Z" stroke="black" stroke-width="6" stroke-linecap="round" mask="url(#path-3-outside-1)"/>
</svg>
