<svg width="437" height="76" viewBox="0 0 437 76" fill="none" xmlns="http://www.w3.org/2000/svg">
<path d="M56.5471 6.26776H421.669L377.476 41.6113V75.1487H0L24.9994 58.2328C40.7353 47.585 51.6298 31.154 55.3128 12.5146L56.5471 6.26776Z" fill="#006FA9"/>
<path fill-rule="evenodd" clip-rule="evenodd" d="M377.476 41.6113L421.669 6.26776H56.5471L55.3128 12.5146C51.6298 31.154 40.7353 47.585 24.9994 58.2328L0 75.1487H377.476V41.6113ZM375.045 72.7174V40.4425L414.736 8.6991H58.5451L57.698 12.9859C53.8908 32.2541 42.6287 49.2395 26.3619 60.2464L7.93163 72.7174H375.045Z" fill="#284273"/>
<path d="M62.7245 0.0905151H436.083L415.081 16.8869C400.423 28.6096 391.89 46.3605 391.89 65.1293V68.9715H18.532L33.842 59.3412C51.817 48.0345 62.7245 28.2877 62.7245 7.05228V0.0905151Z" fill="#6BC4CB"/>
<path fill-rule="evenodd" clip-rule="evenodd" d="M429.15 2.52185H65.1558V7.05228C65.1558 29.1235 53.8191 49.6476 35.1365 61.3992L26.9636 66.5402H389.459V65.1293C389.459 45.6217 398.328 27.1722 413.562 14.9882L429.15 2.52185ZM62.7245 0.0905151V7.05228C62.7245 28.2877 51.817 48.0345 33.842 59.3412L18.532 68.9715H391.89V65.1293C391.89 46.3605 400.423 28.6096 415.081 16.8869L436.083 0.0905151H62.7245Z" fill="#284273"/>
<path d="M282.268 56.2461C282.513 53.271 283.022 50.1737 283.797 46.9542C284.571 43.7346 285.508 40.5762 286.609 37.4789C287.75 34.3816 289.013 31.4677 290.399 28.7372C291.784 25.9659 293.19 23.5818 294.617 21.5849H276.216V13.8213H305.865V20.4234C304.561 21.8498 303.114 23.8264 301.525 26.3531C299.976 28.8798 298.488 31.753 297.062 34.9725C295.676 38.1513 294.454 41.5747 293.394 45.2425C292.375 48.9104 291.744 52.5782 291.499 56.2461H282.268Z" fill="white"/>
<path fill-rule="evenodd" clip-rule="evenodd" d="M277.744 60.414L278.114 55.9046C278.378 52.6946 278.925 49.385 279.744 45.9795C280.553 42.6187 281.531 39.3198 282.681 36.0836L282.689 36.0607L282.698 36.038C283.889 32.8044 285.214 29.7446 286.676 26.8622C286.864 26.4868 287.053 26.117 287.242 25.7529H272.048V9.65326H310.033V22.0416L308.941 23.2358C307.873 24.4044 306.58 26.146 305.066 28.5516C303.636 30.8874 302.237 33.582 300.878 36.6494C299.576 39.6382 298.416 42.8793 297.404 46.3786C296.462 49.7754 295.882 53.1557 295.658 56.5233L295.399 60.414H277.744ZM293.394 45.2425C294.454 41.5746 295.676 38.1513 297.062 34.9725C298.488 31.753 299.976 28.8798 301.525 26.3531C303.114 23.8263 304.561 21.8498 305.865 20.4234V13.8213H276.216V21.5849H294.617C293.731 22.8249 292.853 24.2143 291.983 25.7529C291.452 26.692 290.924 27.6868 290.399 28.7372C289.013 31.4677 287.75 34.3816 286.609 37.4789C285.508 40.5762 284.571 43.7346 283.797 46.9542C283.377 48.698 283.036 50.4059 282.772 52.078C282.548 53.493 282.38 54.8824 282.268 56.246H291.499C291.744 52.5782 292.375 48.9103 293.394 45.2425Z" fill="black"/>
<path d="M321.331 43.6088C321.331 45.263 320.909 46.5301 320.064 47.41C319.219 48.2899 318.084 48.7299 316.659 48.7299C315.233 48.7299 314.098 48.2899 313.254 47.41C312.409 46.5301 311.986 45.263 311.986 43.6088C311.986 41.9545 312.409 40.6875 313.254 39.8075C314.098 38.9276 315.233 38.4877 316.659 38.4877C318.084 38.4877 319.219 38.9276 320.064 39.8075C320.909 40.6875 321.331 41.9545 321.331 43.6088ZM318.348 43.6088C318.348 42.7113 318.19 42.0601 317.873 41.6554C317.556 41.2506 317.152 41.0482 316.659 41.0482C316.148 41.0482 315.735 41.2506 315.418 41.6554C315.119 42.0601 314.969 42.7113 314.969 43.6088C314.969 44.5063 315.119 45.1662 315.418 45.5886C315.735 45.9933 316.148 46.1957 316.659 46.1957C317.152 46.1957 317.556 45.9933 317.873 45.5886C318.19 45.1662 318.348 44.5063 318.348 43.6088ZM326.479 38.91H330.148L319.827 57.2034H316.157L326.479 38.91ZM334.371 52.5047C334.371 54.1589 333.949 55.426 333.104 56.3059C332.26 57.1858 331.125 57.6258 329.699 57.6258C328.274 57.6258 327.139 57.1858 326.294 56.3059C325.449 55.426 325.027 54.1589 325.027 52.5047C325.027 50.8505 325.449 49.5834 326.294 48.7035C327.139 47.8235 328.274 47.3836 329.699 47.3836C331.125 47.3836 332.26 47.8235 333.104 48.7035C333.949 49.5834 334.371 50.8505 334.371 52.5047ZM331.389 52.5047C331.389 51.6072 331.23 50.956 330.913 50.5513C330.597 50.1465 330.192 49.9441 329.699 49.9441C329.189 49.9441 328.775 50.1465 328.458 50.5513C328.159 50.956 328.01 51.6072 328.01 52.5047C328.01 53.4022 328.159 54.0621 328.458 54.4845C328.775 54.8893 329.189 55.0916 329.699 55.0916C330.192 55.0916 330.597 54.8893 330.913 54.4845C331.23 54.0621 331.389 53.4022 331.389 52.5047Z" fill="white"/>
<path fill-rule="evenodd" clip-rule="evenodd" d="M320.696 40.6772C320.539 40.3861 320.352 40.1219 320.136 39.8844C320.112 39.8585 320.088 39.8328 320.064 39.8075C319.219 38.9276 318.084 38.4877 316.659 38.4877C315.233 38.4877 314.098 38.9276 313.254 39.8075C313.225 39.8368 313.198 39.8664 313.171 39.8965C313.153 39.916 313.136 39.9357 313.119 39.9556C312.364 40.8274 311.986 42.0451 311.986 43.6087C311.986 45.1559 312.356 46.3644 313.095 47.2342C313.124 47.2688 313.154 47.3029 313.185 47.3364C313.207 47.3612 313.23 47.3857 313.254 47.41C313.998 48.1853 314.968 48.6191 316.163 48.7112C316.324 48.7236 316.489 48.7298 316.659 48.7298C318.084 48.7298 319.219 48.2899 320.064 47.41C320.084 47.3897 320.103 47.3692 320.122 47.3485C320.135 47.334 320.148 47.3194 320.161 47.3048C320.941 46.4302 321.331 45.1982 321.331 43.6087C321.331 42.4375 321.119 41.4603 320.696 40.6772ZM318.348 43.5135C318.347 43.4409 318.345 43.3699 318.342 43.3006C318.33 43.0386 318.303 42.8005 318.26 42.5865C318.199 42.2773 318.105 42.0182 317.979 41.8093C317.946 41.7545 317.911 41.7032 317.873 41.6553C317.556 41.2506 317.152 41.0482 316.659 41.0482C316.148 41.0482 315.735 41.2506 315.418 41.6553C315.386 41.6995 315.355 41.7466 315.326 41.7966C315.205 42.0039 315.115 42.2616 315.056 42.5696C315.013 42.7933 314.986 43.0435 314.975 43.3204C314.974 43.3508 314.973 43.3815 314.972 43.4126C314.97 43.4766 314.969 43.542 314.969 43.6087C314.969 43.7168 314.972 43.8215 314.976 43.9227C314.988 44.2004 315.016 44.4521 315.061 44.6779C315.119 44.972 315.204 45.2221 315.318 45.4281C315.349 45.485 315.383 45.5384 315.418 45.5886C315.735 45.9933 316.148 46.1957 316.659 46.1957C317.152 46.1957 317.556 45.9933 317.873 45.5886C317.913 45.5347 317.951 45.477 317.987 45.4155C318.105 45.208 318.195 44.9566 318.255 44.6613C318.299 44.4452 318.328 44.2055 318.34 43.9424C318.342 43.9017 318.344 43.8606 318.345 43.8188C318.347 43.7503 318.348 43.6803 318.348 43.6087C318.348 43.5767 318.348 43.5449 318.348 43.5135ZM317.103 42.9009C317.089 42.8291 317.073 42.7747 317.06 42.7358C317.055 42.7194 317.05 42.7059 317.046 42.6951C317.005 42.6837 316.92 42.6651 316.775 42.6583L317.103 42.9009ZM316.697 42.6559L317.119 42.9865C317.143 43.1346 317.163 43.3383 317.163 43.6087C317.163 43.8982 317.141 44.1113 317.114 44.2615L316.731 44.5608C316.708 44.5615 316.684 44.5618 316.659 44.5618C316.623 44.5618 316.59 44.5611 316.559 44.5599L316.208 44.2856C316.18 44.1344 316.155 43.9141 316.155 43.6087C316.155 43.3235 316.176 43.1125 316.203 42.9626C316.221 42.8594 316.241 42.7852 316.257 42.7358C316.263 42.7194 316.268 42.7059 316.272 42.6951C316.317 42.6824 316.418 42.6608 316.594 42.6564C316.615 42.6559 316.636 42.6557 316.659 42.6557C316.672 42.6557 316.684 42.6558 316.697 42.6559ZM316.222 44.3499C316.234 44.4055 316.246 44.449 316.257 44.4817C316.263 44.4981 316.268 44.5116 316.272 44.5224C316.308 44.5325 316.38 44.5484 316.497 44.5566L316.222 44.3499ZM316.883 44.5512C316.964 44.5426 317.016 44.5306 317.046 44.5224C317.05 44.5116 317.055 44.4981 317.06 44.4817C317.067 44.462 317.074 44.4383 317.081 44.4104L316.883 44.5512ZM314.001 52.5425C312.622 52.153 311.334 51.4284 310.247 50.2964C308.424 48.3978 307.818 45.9478 307.818 43.6087C307.818 41.2696 308.424 38.8197 310.247 36.921C312.011 35.0837 314.306 34.3196 316.659 34.3196C318.94 34.3196 321.167 35.0378 322.908 36.7562L324.045 34.742H337.285L332.311 43.5582C333.708 43.9445 335.012 44.6725 336.111 45.817C337.934 47.7156 338.539 50.1656 338.539 52.5047C338.539 54.8438 337.934 57.2937 336.111 59.1924C334.347 61.0298 332.052 61.7938 329.699 61.7938C327.403 61.7938 325.162 61.0662 323.416 59.3237L322.261 61.3714H309.02L314.001 52.5425ZM316.157 57.2034H319.827L330.148 38.91H326.479L316.157 57.2034ZM330.144 47.3985C329.999 47.3886 329.851 47.3836 329.699 47.3836C328.274 47.3836 327.139 47.8235 326.294 48.7034C326.266 48.7327 326.238 48.7623 326.211 48.7924C326.193 48.812 326.176 48.8317 326.159 48.8515C325.404 49.7233 325.027 50.9411 325.027 52.5047C325.027 53.6521 325.23 54.6132 325.636 55.3881C325.778 55.6581 325.944 55.9054 326.135 56.1302C326.165 56.1648 326.195 56.1988 326.225 56.2323C326.248 56.2572 326.271 56.2817 326.294 56.3059C327.139 57.1858 328.274 57.6258 329.699 57.6258C331.125 57.6258 332.26 57.1858 333.104 56.3059C333.124 56.2856 333.143 56.2651 333.162 56.2444C333.175 56.2299 333.189 56.2154 333.202 56.2007C333.982 55.3261 334.371 54.0941 334.371 52.5047C334.371 50.898 333.973 49.6566 333.176 48.7803C333.153 48.7544 333.129 48.7288 333.104 48.7034C332.35 47.9171 331.363 47.4822 330.144 47.3985ZM328.101 53.5738C328.159 53.8679 328.245 54.118 328.358 54.3241C328.39 54.3809 328.423 54.4344 328.458 54.4845C328.775 54.8892 329.189 55.0916 329.699 55.0916C330.192 55.0916 330.597 54.8892 330.913 54.4845C330.954 54.4306 330.992 54.373 331.027 54.3114C331.146 54.1039 331.235 53.8525 331.295 53.5572C331.34 53.3411 331.368 53.1014 331.381 52.8383C331.383 52.7977 331.384 52.7565 331.386 52.7148C331.388 52.6462 331.389 52.5762 331.389 52.5047C331.389 52.4726 331.388 52.4408 331.388 52.4094C331.387 52.3368 331.385 52.2658 331.382 52.1965C331.37 51.9345 331.343 51.6964 331.3 51.4824C331.239 51.1732 331.145 50.9142 331.019 50.7052C330.986 50.6505 330.951 50.5991 330.913 50.5513C330.597 50.1465 330.192 49.9441 329.699 49.9441C329.189 49.9441 328.775 50.1465 328.458 50.5513C328.426 50.5954 328.395 50.6425 328.366 50.6926C328.245 50.8999 328.155 51.1575 328.096 51.4655C328.053 51.6892 328.026 51.9395 328.015 52.2163C328.014 52.2467 328.013 52.2775 328.012 52.3085C328.011 52.3726 328.01 52.4379 328.01 52.5047C328.01 52.6128 328.012 52.7174 328.016 52.8186C328.028 53.0963 328.056 53.3481 328.101 53.5738ZM329.262 53.2458C329.274 53.3014 329.287 53.3449 329.298 53.3776C329.303 53.3941 329.308 53.4075 329.312 53.4183C329.348 53.4285 329.42 53.4443 329.537 53.4525L329.262 53.2458ZM329.923 53.4471C330.004 53.4385 330.057 53.4265 330.086 53.4183C330.09 53.4075 330.095 53.3941 330.101 53.3776C330.107 53.3579 330.114 53.3342 330.122 53.3063L329.923 53.4471ZM330.159 51.8824C330.184 52.0305 330.203 52.2343 330.203 52.5047C330.203 52.7941 330.181 53.0072 330.154 53.1574L329.772 53.4568C329.749 53.4574 329.725 53.4578 329.699 53.4578C329.663 53.4578 329.63 53.4571 329.599 53.4558L329.249 53.1816C329.22 53.0303 329.195 52.81 329.195 52.5047C329.195 52.2195 329.217 52.0084 329.243 51.8586C329.261 51.7553 329.281 51.6811 329.298 51.6317C329.303 51.6153 329.308 51.6018 329.312 51.591C329.357 51.5784 329.458 51.5567 329.634 51.5524C329.655 51.5519 329.676 51.5516 329.699 51.5516C329.712 51.5516 329.725 51.5517 329.737 51.5518L330.159 51.8824ZM330.144 51.7968L329.815 51.5542C329.96 51.561 330.046 51.5796 330.086 51.591C330.09 51.6018 330.095 51.6153 330.101 51.6317C330.114 51.6706 330.129 51.725 330.144 51.7968Z" fill="black"/>
<path d="M80.6421 37.0877V40.6997H106.402V37.0877H80.6421Z" fill="black"/>
<path d="M118.694 33.8677C119.31 34.9597 119.814 36.4437 119.954 37.3957L122.054 36.5557C121.886 35.5757 121.298 34.1477 120.626 33.0837L118.694 33.8677ZM118.414 32.4397H122.39V37.8437C121.018 37.9837 119.674 38.1237 118.414 38.2357V32.4397ZM126.338 39.9717L126.254 37.4237L125.078 37.5637V29.8637H121.41C121.802 28.9117 122.25 27.7637 122.67 26.6157L119.114 26.0557C119.002 27.1757 118.666 28.6597 118.358 29.8637H115.81V38.4877L113.85 38.6557L114.186 41.3157L115.81 41.1477C115.754 44.3397 115.474 48.0917 113.85 50.7517C114.494 51.0317 115.614 51.7597 116.09 52.2077C117.966 49.2117 118.358 44.5357 118.414 40.8397L122.39 40.4197V49.2117C122.39 49.5477 122.306 49.6597 121.97 49.6597C121.69 49.6597 120.766 49.6597 119.87 49.6317C120.206 50.3317 120.57 51.5077 120.654 52.2357C122.25 52.2357 123.286 52.1797 124.07 51.7317C124.882 51.2557 125.078 50.5277 125.078 49.2677V40.1117L126.338 39.9717ZM121.242 41.2037H119.338V47.5877H121.242V41.2037ZM135.13 40.8117C134.542 42.3517 133.702 43.7237 132.666 44.8997C131.686 43.6957 130.93 42.3237 130.37 40.8117H135.13ZM137.006 37.7877L136.474 37.8997H128.074C130.37 36.1077 130.818 33.1957 130.818 30.8157V29.9757H133.786V33.3077C133.786 35.0437 133.982 35.6597 134.43 36.1077C134.878 36.5837 135.634 36.8077 136.306 36.8077H137.762C138.266 36.8077 138.882 36.6957 139.274 36.4717C139.694 36.2757 140.03 35.8837 140.226 35.3517C140.422 34.8477 140.534 33.6157 140.618 32.4677C139.806 32.2157 138.77 31.6837 138.238 31.2357C138.21 32.2997 138.182 33.1677 138.126 33.5597C138.07 33.9237 138.014 34.0917 137.902 34.1477C137.818 34.2317 137.678 34.2597 137.538 34.2597H137.09C136.978 34.2597 136.866 34.2317 136.81 34.1197C136.754 34.0357 136.782 33.7557 136.782 33.2797V27.0917H127.878V30.7597C127.878 32.4677 127.682 34.5117 125.694 36.0517C126.31 36.4157 127.514 37.3957 128.018 37.8997H126.842V40.8117H130.258L127.682 41.3997C128.41 43.4997 129.362 45.3197 130.538 46.8877C129.054 48.0357 127.29 48.9037 125.358 49.4637C125.974 50.1357 126.758 51.4237 127.122 52.2357C129.222 51.4797 131.126 50.4997 132.75 49.2117C134.346 50.5557 136.278 51.5637 138.602 52.2077C139.05 51.3677 139.89 50.1077 140.59 49.4637C138.406 48.9877 136.558 48.1477 135.018 47.0557C136.894 44.8717 138.294 42.0437 139.106 38.4877L137.006 37.7877Z" fill="black"/>
<path d="M170.186 26.7277C169.626 28.4077 168.562 30.6477 167.722 32.0757L170.606 33.1397C171.474 31.8237 172.538 29.8357 173.434 27.8757L170.186 26.7277ZM151.258 52.0957C152.77 49.2677 154.31 46.0477 155.598 43.0517L153.134 41.0357C151.622 44.3117 149.718 47.8397 148.318 49.9677L151.258 52.0957ZM154.562 36.8917C153.442 35.8557 151.174 34.5117 149.438 33.6997L147.562 36.0517C149.326 36.9757 151.538 38.4317 152.574 39.4957L154.562 36.8917ZM148.85 28.6597C150.558 29.5837 152.742 31.0397 153.722 32.1037L155.794 29.5277C154.702 28.4637 152.518 27.1197 150.782 26.3357L148.85 28.6597ZM161.87 31.9637C161.45 30.5077 160.246 28.4637 159.126 26.9237L156.326 28.1557C157.418 29.7797 158.51 31.9637 158.846 33.3357L161.87 31.9637ZM160.47 43.9197V41.8197H168.954V43.9197H160.47ZM168.954 36.9757V39.0197H160.47V36.9757H168.954ZM172.202 33.8677H166.49V26.0837H163.13V33.8677H157.194V52.1797H160.47V46.7197H168.954V48.5677C168.954 48.9317 168.814 49.0717 168.394 49.0997C167.946 49.0997 166.49 49.0997 165.202 49.0157C165.65 49.8837 166.098 51.2557 166.21 52.1517C168.31 52.1517 169.822 52.1237 170.858 51.5917C171.922 51.0877 172.202 50.2197 172.202 48.5957V33.8677Z" fill="black"/>
<path d="M188.414 44.9277H200.454V46.0757H188.414V44.9277ZM195.806 35.3797V37.2277H190.71C191.326 36.6677 191.774 36.0517 192.082 35.3797H195.806ZM186.79 32.3277H189.646C189.646 32.7197 189.59 33.0837 189.478 33.4197H186.426L186.79 32.3277ZM192.698 29.2757H195.806V30.3957H192.698V29.2757ZM201.882 29.2757V30.3957H198.97V29.2757H201.882ZM195.806 33.4197H192.614C192.642 33.0557 192.67 32.6917 192.698 32.3277H195.806V33.4197ZM203.45 35.3797C203.394 35.7997 203.31 36.0517 203.198 36.1917C203.03 36.3877 202.862 36.3877 202.61 36.3877C202.302 36.4157 201.714 36.3877 201.07 36.3037C201.182 36.5557 201.322 36.8917 201.406 37.2277H198.97V35.3797H203.45ZM200.454 40.2237H188.414V39.1317H200.454V40.2237ZM200.454 43.1357H188.414V42.0157H200.454V43.1357ZM203.842 47.9797V38.3197C204.01 38.3197 204.15 38.2917 204.262 38.2917C204.85 38.2637 205.466 38.0397 205.886 37.6197C206.362 37.1157 206.53 36.1077 206.67 34.2877C206.698 33.9797 206.726 33.4197 206.726 33.4197H198.97V32.3277H204.906V27.3157H198.97V26.1117H195.806V27.3157H192.698V26.1117H189.674V27.3157H183.318V29.2757H189.674V30.3957H184.354C183.878 32.0477 183.206 34.0637 182.59 35.4357L185.614 35.6317L185.698 35.3797H188.162C187.014 36.3037 184.998 37.0037 181.526 37.4517C182.03 38.0677 182.814 39.3277 183.094 40.0277C183.85 39.9157 184.522 39.8037 185.166 39.6637V47.9797H188.974C187.014 48.7917 184.158 49.4917 181.554 49.9397C182.254 50.4997 183.43 51.6757 183.962 52.3197C186.818 51.6197 190.374 50.3597 192.698 48.9877L190.486 47.9797H197.962L195.834 49.2957C198.746 50.2477 201.658 51.4237 203.31 52.2637L207.006 50.6677C205.242 49.9117 202.302 48.8477 199.614 47.9797H203.842Z" fill="black"/>
<path d="M233.774 30.2557H221.902V29.1077H233.774V30.2557ZM233.774 33.4477H221.902V32.2717H233.774V33.4477ZM237.106 26.9797H218.71V35.5757H237.106V26.9797ZM235.51 42.8277C235.006 43.8357 234.362 44.7597 233.606 45.5717C232.85 44.7597 232.206 43.8357 231.73 42.8277H235.51ZM220.67 46.1597H224.31V47.2517C223.078 47.3637 221.846 47.4477 220.67 47.5317V46.1597ZM220.67 42.6877H224.31V43.8637H220.67V42.6877ZM224.31 39.2437V40.3637H220.67V39.2437H224.31ZM237.47 40.1677L236.91 40.2797H228.202V42.8277H230.778L228.93 43.3317C229.602 44.8717 230.47 46.2717 231.478 47.4757C230.302 48.3437 228.93 49.0157 227.502 49.4917V39.2437H240.326V36.6117H215.434V39.2437H217.618V47.7557C216.75 47.8397 215.91 47.8677 215.182 47.9237L215.434 50.7797C217.898 50.5557 221.09 50.2757 224.31 49.9677V52.2357H227.502V49.9677C228.062 50.6397 228.678 51.5637 228.986 52.2077C230.722 51.5637 232.318 50.6957 233.746 49.6037C235.23 50.7517 236.966 51.6197 238.954 52.2077C239.402 51.4237 240.27 50.2197 240.914 49.6037C239.066 49.1557 237.386 48.4557 235.986 47.5317C237.554 45.7677 238.758 43.5837 239.514 40.9517L237.47 40.1677Z" fill="black"/>
<path d="M263.874 47.6997H259.03V45.8797H263.874V47.6997ZM272.834 39.6357H250.378V52.2357H253.626V42.4077H269.474V48.6517C269.474 48.9877 269.362 49.0717 268.942 49.0997C268.634 49.1277 267.766 49.1277 266.814 49.0997V43.6677H256.118V51.1997H259.03V49.9397H266.254C266.562 50.6677 266.814 51.5357 266.898 52.1797C268.914 52.1797 270.398 52.1517 271.434 51.6477C272.526 51.1437 272.834 50.2477 272.834 48.7077V39.6357ZM265.75 36.2197H257.014V34.5117H265.75V36.2197ZM253.85 32.2997V38.4597H269.138V32.2997H253.85ZM263.006 28.4077V26.0557H259.618V28.4077H249.258V31.2357H273.73V28.4077H263.006Z" fill="black"/>
</svg>
