<svg width="473" height="92" viewBox="0 0 473 92" fill="none" xmlns="http://www.w3.org/2000/svg">
<path d="M249.52 48.008V45.584H232.48V48.008H249.52ZM249.52 51.224H232.48V53.648H249.52V51.224Z" fill="white"/>
<path fill-rule="evenodd" clip-rule="evenodd" d="M230.051 43.1555H251.949V56.0767H230.051V43.1555ZM249.52 45.5841V48.0081H232.48V45.5841H249.52ZM232.48 53.6481H249.52V51.2241H232.48V53.6481Z" fill="black"/>
<path d="M400.424 41.3759C400.232 42.1919 399.848 43.2959 399.536 44.0159L401.12 44.3519H396.416L397.616 44.0159C397.52 43.2959 397.208 42.1919 396.8 41.3759H400.424ZM400.112 50.9519H404.072V48.5519H400.112V46.7039H404.288V44.3519H401.864C402.2 43.6319 402.584 42.6719 403.016 41.6399L401.624 41.3759H404.096V39.0479H400.112V36.8639H397.352V39.0479H393.32V41.3759H396.008L394.544 41.7119C394.88 42.5279 395.168 43.5599 395.264 44.3519H393.056V46.7039H397.352V48.5519H393.128V50.9519H396.776C395.672 52.7519 394.016 54.5519 392.456 55.5839C393.056 56.0399 393.872 56.9759 394.304 57.5999C395.336 56.7599 396.416 55.5599 397.352 54.2159V59.0399H400.112V53.9279C400.808 54.5999 401.48 55.3199 401.864 55.7999L403.52 53.7599C402.968 53.3279 400.976 51.7439 400.112 51.1439V50.9519ZM415.184 44.5679H407.696V41.2079C410.216 40.6799 412.952 39.9359 415.064 38.9999L412.784 36.9119C411.32 37.7039 408.944 38.4719 406.664 39.0239L405.008 38.5679V46.8719C405.008 50.1839 404.72 54.2639 401.96 57.1919C402.608 57.5279 403.64 58.5119 404 59.1359C407.168 55.8479 407.672 50.7839 407.696 47.2079H410.144V58.9439H412.904V47.2079H415.184V44.5679Z" fill="#1F1806"/>
<path d="M437.72 51.2159V55.3679H427.736V51.2159H437.72ZM424.808 59.0639H427.736V58.1039H437.72V59.0399H440.792V48.5039H424.808V59.0639ZM435.248 40.7519C435.992 41.3999 436.784 42.1199 437.552 42.8879C434.792 43.0079 432.008 43.1279 429.416 43.2239C430.568 41.4719 431.768 39.4559 432.776 37.5599L429.488 36.5039C428.672 38.6159 427.304 41.2559 425.96 43.3439C424.616 43.3679 423.368 43.4159 422.264 43.4399L422.432 46.3199C426.896 46.1519 433.592 45.8879 439.928 45.5519C440.576 46.3439 441.104 47.0879 441.464 47.7359L443.936 45.8399C442.712 43.7759 439.856 41.0159 437.48 39.0719L435.248 40.7519Z" fill="#1F1806"/>
<path d="M470.48 50.2079H462.92V48.9119H460.112V50.2079H453.056V58.0079H455.816V52.5839H460.112V59.0879H462.92V52.5839H467.672V55.2959C467.672 55.5839 467.552 55.6799 467.168 55.7039C466.832 55.7039 465.392 55.7039 464.24 55.6559C464.6 56.2799 465.008 57.2879 465.176 58.0079C466.976 58.0079 468.272 58.0079 469.232 57.6239C470.192 57.2399 470.48 56.5679 470.48 55.3199V50.2079ZM468.704 41.1119C468.368 42.0239 467.936 42.8159 467.36 43.5119C466.784 42.7919 466.304 41.9759 465.92 41.1119H468.704ZM472.52 41.1119V38.9759H466.664C466.904 38.3999 467.12 37.7999 467.312 37.1759L464.936 36.6959C464.432 38.5439 463.424 40.2239 462.128 41.4239V40.4159H460.664C461.192 39.7439 461.84 38.8319 462.512 37.8959L460.208 37.1039C459.896 37.9199 459.32 39.1199 458.864 39.9119L460.064 40.4159H458.072V36.6959H455.624V40.4159H453.512L455.024 39.7199C454.784 39.0239 454.136 37.9439 453.536 37.1519L451.568 37.9919C452.072 38.7359 452.576 39.6959 452.84 40.4159H451.616V49.0799H453.632V46.5599C453.992 46.7279 454.424 47.0159 454.664 47.1599C455.24 46.1279 455.576 44.5439 455.696 42.9839L454.304 42.7679C454.208 43.9199 454.064 45.0959 453.632 46.0319V42.0959H455.96V48.8399H457.736V42.0959H460.088V46.7759C460.088 46.9679 460.016 47.0159 459.824 47.0159H458.456C458.72 47.5199 458.984 48.2879 459.08 48.8159C460.112 48.8159 460.832 48.7919 461.408 48.5039C461.984 48.1919 462.128 47.6639 462.128 46.7759V42.3119C462.584 42.7679 463.064 43.3439 463.328 43.6559C463.688 43.3679 464.024 43.0319 464.336 42.6719C464.768 43.5119 465.248 44.3039 465.776 45.0479C464.768 45.7919 463.544 46.3919 462.152 46.8239C462.584 47.3279 463.256 48.4319 463.472 48.9599C464.96 48.4079 466.28 47.6879 467.384 46.8239C468.536 47.8559 469.856 48.6959 471.392 49.2479C471.728 48.6479 472.376 47.7599 472.904 47.3039C471.44 46.8479 470.144 46.1279 469.04 45.2399C470.024 44.0879 470.768 42.7199 471.32 41.1119H472.52ZM459.992 45.9119C459.92 45.0719 459.608 43.7519 459.248 42.7439L458.048 43.0799C458.36 44.0879 458.672 45.4319 458.696 46.2719L459.992 45.9119Z" fill="#1F1806"/>
<path d="M112.912 40.176C115.392 40.176 117.296 40.616 118.624 41.496C119.952 42.36 120.616 43.784 120.616 45.768C120.616 47.768 119.944 49.216 118.6 50.112C117.256 50.992 115.336 51.432 112.84 51.432H111.664V57H107.92V40.608C108.736 40.448 109.6 40.336 110.512 40.272C111.424 40.208 112.224 40.176 112.912 40.176ZM113.152 43.368C112.88 43.368 112.608 43.376 112.336 43.392C112.08 43.408 111.856 43.424 111.664 43.44V48.24H112.84C114.136 48.24 115.112 48.064 115.768 47.712C116.424 47.36 116.752 46.704 116.752 45.744C116.752 45.28 116.664 44.896 116.488 44.592C116.328 44.288 116.088 44.048 115.768 43.872C115.464 43.68 115.088 43.552 114.64 43.488C114.192 43.408 113.696 43.368 113.152 43.368Z" fill="#1F1806"/>
<path d="M139.382 50.664C139.382 51.656 139.238 52.568 138.95 53.4C138.662 54.216 138.246 54.92 137.702 55.512C137.158 56.088 136.502 56.536 135.734 56.856C134.982 57.176 134.134 57.336 133.19 57.336C132.262 57.336 131.414 57.176 130.646 56.856C129.894 56.536 129.246 56.088 128.702 55.512C128.158 54.92 127.734 54.216 127.43 53.4C127.126 52.568 126.974 51.656 126.974 50.664C126.974 49.672 127.126 48.768 127.43 47.952C127.75 47.136 128.182 46.44 128.726 45.864C129.286 45.288 129.942 44.84 130.694 44.52C131.462 44.2 132.294 44.04 133.19 44.04C134.102 44.04 134.934 44.2 135.686 44.52C136.454 44.84 137.11 45.288 137.654 45.864C138.198 46.44 138.622 47.136 138.926 47.952C139.23 48.768 139.382 49.672 139.382 50.664ZM135.734 50.664C135.734 49.56 135.51 48.696 135.062 48.072C134.63 47.432 134.006 47.112 133.19 47.112C132.374 47.112 131.742 47.432 131.294 48.072C130.846 48.696 130.622 49.56 130.622 50.664C130.622 51.768 130.846 52.648 131.294 53.304C131.742 53.944 132.374 54.264 133.19 54.264C134.006 54.264 134.63 53.944 135.062 53.304C135.51 52.648 135.734 51.768 135.734 50.664Z" fill="#1F1806"/>
<path d="M150.528 57H146.952V44.376H150.528V57ZM150.864 40.728C150.864 41.384 150.648 41.904 150.216 42.288C149.8 42.656 149.304 42.84 148.728 42.84C148.152 42.84 147.648 42.656 147.216 42.288C146.8 41.904 146.592 41.384 146.592 40.728C146.592 40.072 146.8 39.56 147.216 39.192C147.648 38.808 148.152 38.616 148.728 38.616C149.304 38.616 149.8 38.808 150.216 39.192C150.648 39.56 150.864 40.072 150.864 40.728Z" fill="#1F1806"/>
<path d="M158.689 44.808C159.297 44.632 160.081 44.472 161.041 44.328C162.001 44.168 163.009 44.088 164.065 44.088C165.137 44.088 166.025 44.232 166.729 44.52C167.449 44.792 168.017 45.184 168.433 45.696C168.849 46.208 169.145 46.816 169.321 47.52C169.497 48.224 169.585 49.008 169.585 49.872V57H166.009V50.304C166.009 49.152 165.857 48.336 165.553 47.856C165.249 47.376 164.681 47.136 163.849 47.136C163.593 47.136 163.321 47.152 163.033 47.184C162.745 47.2 162.489 47.224 162.265 47.256V57H158.689V44.808Z" fill="#1F1806"/>
<path d="M177.502 41.232L181.078 40.656V44.376H185.374V47.352H181.078V51.792C181.078 52.544 181.206 53.144 181.462 53.592C181.734 54.04 182.27 54.264 183.07 54.264C183.454 54.264 183.846 54.232 184.246 54.168C184.662 54.088 185.038 53.984 185.374 53.856L185.878 56.64C185.446 56.816 184.966 56.968 184.438 57.096C183.91 57.224 183.262 57.288 182.494 57.288C181.518 57.288 180.71 57.16 180.07 56.904C179.43 56.632 178.918 56.264 178.534 55.8C178.15 55.32 177.878 54.744 177.718 54.072C177.574 53.4 177.502 52.656 177.502 51.84V41.232Z" fill="#1F1806"/>
<path d="M196.71 54.432C197.366 54.432 197.83 54.368 198.102 54.24C198.374 54.112 198.51 53.864 198.51 53.496C198.51 53.208 198.334 52.96 197.982 52.752C197.63 52.528 197.094 52.28 196.374 52.008C195.814 51.8 195.302 51.584 194.838 51.36C194.39 51.136 194.006 50.872 193.686 50.568C193.366 50.248 193.118 49.872 192.942 49.44C192.766 49.008 192.678 48.488 192.678 47.88C192.678 46.696 193.118 45.76 193.998 45.072C194.878 44.384 196.086 44.04 197.622 44.04C198.39 44.04 199.126 44.112 199.83 44.256C200.534 44.384 201.094 44.528 201.51 44.688L200.886 47.472C200.47 47.328 200.014 47.2 199.518 47.088C199.038 46.976 198.494 46.92 197.886 46.92C196.766 46.92 196.206 47.232 196.206 47.856C196.206 48 196.23 48.128 196.278 48.24C196.326 48.352 196.422 48.464 196.566 48.576C196.71 48.672 196.902 48.784 197.142 48.912C197.398 49.024 197.718 49.152 198.102 49.296C198.886 49.584 199.534 49.872 200.046 50.16C200.558 50.432 200.958 50.736 201.246 51.072C201.55 51.392 201.758 51.752 201.87 52.152C201.998 52.552 202.062 53.016 202.062 53.544C202.062 54.792 201.59 55.736 200.646 56.376C199.718 57.016 198.398 57.336 196.686 57.336C195.566 57.336 194.63 57.24 193.878 57.048C193.142 56.856 192.63 56.696 192.342 56.568L192.942 53.664C193.55 53.904 194.174 54.096 194.814 54.24C195.454 54.368 196.086 54.432 196.71 54.432Z" fill="#1F1806"/>
<path d="M94.4376 43.5708C94.4376 67.6344 74.9303 87.1417 50.8667 87.1417C26.8032 87.1417 7.2959 67.6344 7.2959 43.5708C7.2959 19.5073 26.8032 0 50.8667 0C74.9303 0 94.4376 19.5073 94.4376 43.5708Z" fill="#FFC232"/>
<path fill-rule="evenodd" clip-rule="evenodd" d="M50.8667 84.5417C73.4943 84.5417 91.8376 66.1984 91.8376 43.5708C91.8376 20.9433 73.4943 2.6 50.8667 2.6C28.2392 2.6 9.8959 20.9433 9.8959 43.5708C9.8959 66.1984 28.2392 84.5417 50.8667 84.5417ZM50.8667 87.1417C74.9303 87.1417 94.4376 67.6344 94.4376 43.5708C94.4376 19.5073 74.9303 0 50.8667 0C26.8032 0 7.2959 19.5073 7.2959 43.5708C7.2959 67.6344 26.8032 87.1417 50.8667 87.1417Z" fill="black"/>
<path fill-rule="evenodd" clip-rule="evenodd" d="M70 7.9999H39V5.3999H70V7.9999Z" fill="black"/>
<path fill-rule="evenodd" clip-rule="evenodd" d="M83 16.9999H41V14.3999H83V16.9999Z" fill="black"/>
<path fill-rule="evenodd" clip-rule="evenodd" d="M89 26.9999H41V24.3999H89V26.9999Z" fill="black"/>
<path fill-rule="evenodd" clip-rule="evenodd" d="M92 36.9999H40V34.3999H92V36.9999Z" fill="black"/>
<path fill-rule="evenodd" clip-rule="evenodd" d="M93 46.9999H40V44.3999H93V46.9999Z" fill="black"/>
<path fill-rule="evenodd" clip-rule="evenodd" d="M92 56.9999H39V54.3999H92V56.9999Z" fill="black"/>
<path fill-rule="evenodd" clip-rule="evenodd" d="M87 66.9999H38V64.3999H87V66.9999Z" fill="black"/>
<path d="M87.1417 47.5708C87.1417 71.6344 67.6344 91.1417 43.5708 91.1417C19.5073 91.1417 0 71.6344 0 47.5708C0 23.5073 19.5073 4 43.5708 4C67.6344 4 87.1417 23.5073 87.1417 47.5708Z" fill="#FFC232"/>
<path fill-rule="evenodd" clip-rule="evenodd" d="M43.5708 88.5417C66.1984 88.5417 84.5417 70.1984 84.5417 47.5708C84.5417 24.9433 66.1984 6.6 43.5708 6.6C20.9433 6.6 2.6 24.9433 2.6 47.5708C2.6 70.1984 20.9433 88.5417 43.5708 88.5417ZM43.5708 91.1417C67.6344 91.1417 87.1417 71.6344 87.1417 47.5708C87.1417 23.5073 67.6344 4 43.5708 4C19.5073 4 0 23.5073 0 47.5708C0 71.6344 19.5073 91.1417 43.5708 91.1417Z" fill="black"/>
<path d="M25.66 59H42.67V55.43H36.67V36.71H33.43C31.78 37.82 29.83 38.09 27.04 38.57V41.33H32.26V55.43H25.66V59Z" fill="white"/>
<path d="M66.82 38.21V42.2H60.55V59H55.87V42.2H49.6V38.21H66.82Z" fill="white"/>
<path fill-rule="evenodd" clip-rule="evenodd" d="M23.66 61V53.43H30.26V43.33H25.04V36.8847L26.7009 36.5989C26.8092 36.5803 26.9155 36.562 27.0197 36.5441C29.7764 36.0707 31.1472 35.8352 32.3137 35.0505L32.8199 34.71H38.67V53.43H44.67V61H23.66ZM33.43 36.71H36.67V55.43H42.67V59H25.66V55.43H32.26V41.33H27.04V38.57C27.2348 38.5364 27.4255 38.504 27.6123 38.4721C30.1008 38.0482 31.8952 37.7425 33.43 36.71ZM68.82 36.21V44.2H62.55V61H53.87V44.2H47.6V36.21H68.82ZM55.87 42.2V59H60.55V42.2H66.82V38.21H49.6V42.2H55.87Z" fill="black"/>
<path d="M379.438 43.5708C379.438 67.6344 359.93 87.1417 335.867 87.1417C311.803 87.1417 292.296 67.6344 292.296 43.5708C292.296 19.5073 311.803 0 335.867 0C359.93 0 379.438 19.5073 379.438 43.5708Z" fill="#FFC232"/>
<path fill-rule="evenodd" clip-rule="evenodd" d="M335.867 84.5417C358.494 84.5417 376.838 66.1984 376.838 43.5708C376.838 20.9433 358.494 2.6 335.867 2.6C313.239 2.6 294.896 20.9433 294.896 43.5708C294.896 66.1984 313.239 84.5417 335.867 84.5417ZM335.867 87.1417C359.93 87.1417 379.438 67.6344 379.438 43.5708C379.438 19.5073 359.93 0 335.867 0C311.803 0 292.296 19.5073 292.296 43.5708C292.296 67.6344 311.803 87.1417 335.867 87.1417Z" fill="black"/>
<path fill-rule="evenodd" clip-rule="evenodd" d="M355 7.9999H324V5.3999H355V7.9999Z" fill="black"/>
<path fill-rule="evenodd" clip-rule="evenodd" d="M368 16.9999H326V14.3999H368V16.9999Z" fill="black"/>
<path fill-rule="evenodd" clip-rule="evenodd" d="M374 26.9999H326V24.3999H374V26.9999Z" fill="black"/>
<path fill-rule="evenodd" clip-rule="evenodd" d="M377 36.9999H325V34.3999H377V36.9999Z" fill="black"/>
<path fill-rule="evenodd" clip-rule="evenodd" d="M378 46.9999H325V44.3999H378V46.9999Z" fill="black"/>
<path fill-rule="evenodd" clip-rule="evenodd" d="M377 56.9999H324V54.3999H377V56.9999Z" fill="black"/>
<path fill-rule="evenodd" clip-rule="evenodd" d="M372 66.9999H323V64.3999H372V66.9999Z" fill="black"/>
<path d="M372.142 47.5708C372.142 71.6344 352.634 91.1417 328.571 91.1417C304.507 91.1417 285 71.6344 285 47.5708C285 23.5073 304.507 4 328.571 4C352.634 4 372.142 23.5073 372.142 47.5708Z" fill="#FFC232"/>
<path fill-rule="evenodd" clip-rule="evenodd" d="M328.571 88.5417C351.198 88.5417 369.542 70.1984 369.542 47.5708C369.542 24.9433 351.198 6.6 328.571 6.6C305.943 6.6 287.6 24.9433 287.6 47.5708C287.6 70.1984 305.943 88.5417 328.571 88.5417ZM328.571 91.1417C352.634 91.1417 372.142 71.6344 372.142 47.5708C372.142 23.5073 352.634 4 328.571 4C304.507 4 285 23.5073 285 47.5708C285 71.6344 304.507 91.1417 328.571 91.1417Z" fill="black"/>
<path d="M309.66 59H326.67V55.43H320.67V36.71H317.43C315.78 37.82 313.83 38.09 311.04 38.57V41.33H316.26V55.43H309.66V59Z" fill="white"/>
<path d="M353.52 40.352H336.48V43.112H353.52V40.352ZM350.328 58.016C349.536 58.016 349.392 57.872 349.392 56.96V49.616H355.728V46.832H334.32V49.616H339.744C339.456 53.6 338.784 56.84 333.792 58.712C334.44 59.264 335.232 60.32 335.568 61.04C341.304 58.712 342.408 54.608 342.84 49.616H346.44V56.96C346.44 59.768 347.136 60.68 349.848 60.68H352.728C355.176 60.68 355.896 59.432 356.184 55.136C355.392 54.944 354.168 54.44 353.544 53.936C353.424 57.392 353.28 58.016 352.488 58.016H350.328Z" fill="white"/>
<path fill-rule="evenodd" clip-rule="evenodd" d="M307.66 61V53.43H314.26V43.33H309.04V36.8847L310.701 36.5989C310.809 36.5803 310.915 36.562 311.02 36.5441C313.776 36.0707 315.147 35.8352 316.314 35.0505L316.82 34.71H322.67V53.43H328.67V61H307.66ZM317.43 36.71H320.67V55.43H326.67V59H309.66V55.43H316.26V41.33H311.04V38.57C311.235 38.5364 311.425 38.504 311.612 38.4721C314.101 38.0482 315.895 37.7425 317.43 36.71ZM355.52 38.352V44.832H357.728V51.616H353.855L354.801 52.3801C354.913 52.4711 355.192 52.6394 355.608 52.823C356.004 52.9978 356.395 53.1292 356.655 53.1923L358.292 53.5891L358.179 55.2697C358.038 57.3775 357.784 59.2427 356.97 60.5665C356.511 61.312 355.881 61.8878 355.069 62.2469C354.303 62.5861 353.49 62.68 352.728 62.68H349.848C348.395 62.68 346.752 62.4659 345.63 61.1993C344.575 60.0089 344.44 58.3729 344.44 56.96V52.8363C344.155 54.372 343.707 55.8787 342.953 57.2765C341.66 59.6742 339.566 61.5757 336.32 62.8931L334.559 63.6078L333.756 61.8857C333.539 61.4212 332.921 60.5973 332.495 60.2344L329.909 58.0319L333.09 56.8393C335.224 56.0391 336.214 55.0457 336.77 54.0098C337.133 53.3335 337.36 52.5539 337.515 51.616H332.32V44.832H334.48V38.352H355.52ZM339.744 49.616C339.694 50.306 339.633 50.9738 339.539 51.616C339.173 54.138 338.313 56.2657 335.721 57.8027C335.162 58.1339 334.524 58.4376 333.792 58.712C334.245 59.0975 334.767 59.7289 335.156 60.32C335.324 60.5752 335.467 60.8228 335.568 61.04C336.087 60.8293 336.568 60.6042 337.014 60.3651C337.135 60.3005 337.253 60.2349 337.368 60.1683C341.549 57.7569 342.458 54.0342 342.84 49.616H346.44V56.96C346.44 59.768 347.136 60.68 349.848 60.68H352.728C355.176 60.68 355.896 59.432 356.184 55.136C355.981 55.0867 355.75 55.017 355.507 54.9321C354.804 54.6856 354.008 54.3108 353.544 53.936C353.511 54.8984 353.475 55.6411 353.425 56.212C353.294 57.6911 353.059 58.016 352.488 58.016H350.328C349.536 58.016 349.392 57.872 349.392 56.96V49.616H355.728V46.832H334.32V49.616H339.744ZM351.392 51.616V56.016H351.434C351.438 55.9712 351.442 55.9242 351.446 55.8749C351.485 55.3764 351.515 54.7259 351.545 53.8666L351.623 51.616H351.392ZM336.48 43.112V40.352H353.52V43.112H336.48Z" fill="black"/>
</svg>
