<svg width="427" height="111" viewBox="0 0 427 111" fill="none" xmlns="http://www.w3.org/2000/svg">
<path d="M53.5827 40.0817H417.255L411.013 44.7083C392.327 58.5601 383.006 81.7345 386.897 104.667L387.932 110.769H8.81659L53.5827 85.3039V40.0817Z" fill="#F04928"/>
<path fill-rule="evenodd" clip-rule="evenodd" d="M53.5827 85.3039L8.81659 110.769H387.932L386.897 104.667C383.006 81.7345 392.327 58.5601 411.013 44.7083L417.255 40.0817H53.5827V85.3039ZM56.014 42.513V86.7181L18.0081 108.337H385.053L384.5 105.074C380.455 81.2386 390.143 57.152 409.565 42.7551L409.892 42.513H56.014Z" fill="black"/>
<path d="M45.1091 32.5481H424.224L411.182 39.3526C387.873 51.5139 375.06 77.3145 379.458 103.235H0.342957L5.80141 100.13C30.1009 86.3076 45.1091 60.5039 45.1091 32.5481Z" fill="#FFC232"/>
<path fill-rule="evenodd" clip-rule="evenodd" d="M379.096 100.804C379.2 101.614 379.321 102.424 379.458 103.235H0.342957L5.80141 100.13C30.1009 86.3076 45.1091 60.5039 45.1091 32.5481H424.224L411.182 39.3526C388.602 51.1335 375.872 75.714 379.096 100.804ZM376.645 100.804C373.436 74.8151 386.664 49.402 410.058 37.197L414.308 34.9794H47.5037C46.689 61.9281 32.3717 86.6678 9.43421 100.804H376.645Z" fill="black"/>
<path d="M255.85 56.7376C257.032 56.2485 258.255 55.6984 259.518 55.0871C260.822 54.435 262.085 53.7422 263.308 53.0086C264.531 52.2343 265.692 51.4396 266.792 50.6245C267.934 49.7687 268.952 48.8721 269.849 47.9348H276.207V90.2984H267.098V59.7941C265.875 60.6092 264.51 61.3631 263.002 62.056C261.494 62.708 260.027 63.2786 258.601 63.7676L255.85 56.7376Z" fill="white"/>
<path d="M308.322 77.8277C308.322 76.6458 308.057 75.6066 307.528 74.71C306.998 73.7727 306.081 72.9984 304.777 72.3871C303.473 71.7758 301.72 71.3071 299.519 70.9811C297.319 70.655 294.547 70.492 291.206 70.492C291.654 66.7019 292.021 62.8507 292.306 58.9383C292.591 55.0259 292.815 51.3581 292.978 47.9348H315.902V55.5761H300.62C300.538 57.0432 300.436 58.4696 300.314 59.8553C300.233 61.2001 300.131 62.382 300.008 63.4008C305.958 63.8084 310.34 65.2144 313.152 67.6189C316.004 69.9826 317.431 73.2837 317.431 77.5221C317.431 79.4782 317.084 81.2918 316.391 82.9627C315.699 84.6336 314.659 86.0804 313.274 87.303C311.888 88.5256 310.136 89.4833 308.017 90.1761C305.938 90.8689 303.493 91.2153 300.681 91.2153C299.581 91.2153 298.419 91.1338 297.196 90.9708C296.015 90.8486 294.853 90.6652 293.712 90.4206C292.612 90.2169 291.613 89.9927 290.717 89.7482C289.82 89.5037 289.127 89.2592 288.638 89.0146L290.289 81.4956C291.307 81.9438 292.652 82.3921 294.323 82.8404C295.994 83.248 297.991 83.4517 300.314 83.4517C303.126 83.4517 305.164 82.9016 306.427 81.8012C307.691 80.6601 308.322 79.3356 308.322 77.8277Z" fill="white"/>
<path fill-rule="evenodd" clip-rule="evenodd" d="M250.479 54.4494L254.256 52.8863C255.349 52.4341 256.489 51.9216 257.678 51.347C258.865 50.7528 260.012 50.1238 261.121 49.4603C262.243 48.7483 263.303 48.0222 264.301 47.2827C265.274 46.5528 266.115 45.8083 266.837 45.0537L268.068 43.7667H280.375V94.4664H262.93V66.6014C261.925 67.0045 260.933 67.3743 259.953 67.7103L256.175 69.0056L250.479 54.4494ZM262.93 62.0871C262.954 62.0768 262.978 62.0664 263.002 62.0559C264.51 61.3631 265.875 60.6092 267.098 59.7941V90.2984H276.207V47.9347H269.849C268.952 48.8721 267.934 49.7687 266.792 50.6245C265.692 51.4396 264.531 52.2343 263.308 53.0086C262.085 53.7422 260.822 54.435 259.518 55.087C258.254 55.6983 257.032 56.2485 255.85 56.7376L258.601 63.7676C260.004 63.2864 261.448 62.7262 262.93 62.0871ZM303.919 76.7959L303.899 76.7615C303.883 76.7361 303.706 76.4882 303.008 76.161C302.213 75.7886 300.901 75.3993 298.909 75.104C296.983 74.8188 294.434 74.66 291.206 74.66H286.516L287.066 70.0024C287.507 66.276 287.868 62.487 288.149 58.6352C288.432 54.7528 288.654 51.1203 288.815 47.7365L289.004 43.7667H320.07V59.7441H304.639C309.103 60.4957 312.942 61.966 315.835 64.4298C319.771 67.7034 321.599 72.2538 321.599 77.522C321.599 79.9811 321.161 82.3421 320.242 84.5591C319.3 86.8291 317.882 88.7952 316.031 90.4283C314.145 92.093 311.868 93.3008 309.323 94.1341C306.721 94.9995 303.816 95.3833 300.681 95.3833C299.395 95.3833 298.069 95.2896 296.707 95.1103C295.419 94.975 294.148 94.7746 292.896 94.5084C291.726 94.2903 290.631 94.0452 289.62 93.7693C288.615 93.4952 287.62 93.1656 286.774 92.7426L283.871 91.2911L287.309 75.6308L291.967 77.6805C292.709 78.0069 293.815 78.3869 295.355 78.8017C296.606 79.1021 298.24 79.2837 300.314 79.2837C302.663 79.2837 303.494 78.8122 303.672 78.6725C304.147 78.2315 304.154 77.9935 304.154 77.8277C304.154 77.2891 304.04 77.0019 303.939 76.8304L303.919 76.7959ZM306.427 81.8012C305.164 82.9015 303.126 83.4517 300.314 83.4517C297.991 83.4517 295.994 83.2479 294.323 82.8404C294.304 82.8351 294.284 82.8298 294.264 82.8245C292.621 82.3815 291.295 81.9385 290.289 81.4955L288.638 89.0146C289.127 89.2591 289.82 89.5037 290.717 89.7482C291.613 89.9927 292.612 90.2169 293.712 90.4206C294.853 90.6651 296.015 90.8485 297.196 90.9708C298.419 91.1338 299.58 91.2153 300.681 91.2153C303.493 91.2153 305.938 90.8689 308.017 90.1761C310.136 89.4833 311.888 88.5256 313.274 87.303C314.659 86.0803 315.699 84.6336 316.391 82.9627C317.084 81.2918 317.431 79.4782 317.431 77.522C317.431 73.2836 316.004 69.9826 313.152 67.6188C311.037 65.811 308.036 64.5676 304.148 63.8886C302.865 63.6645 301.485 63.5019 300.008 63.4008C300.131 62.382 300.233 61.2001 300.314 59.8552C300.332 59.6536 300.349 59.451 300.366 59.2476C300.466 58.0535 300.55 56.8297 300.62 55.5761H315.902V47.9347H292.978C292.815 51.3581 292.591 55.0259 292.306 58.9383C292.125 61.4252 291.91 63.8874 291.663 66.325C291.521 67.7221 291.369 69.1111 291.206 70.492C292.717 70.492 294.112 70.5254 295.39 70.5921C296.938 70.6728 298.314 70.8025 299.519 70.981C301.72 71.3071 303.472 71.7757 304.777 72.387C306.081 72.9984 306.998 73.7727 307.528 74.71C308.057 75.6066 308.322 76.6458 308.322 77.8277C308.322 79.3356 307.691 80.6601 306.427 81.8012Z" fill="black"/>
<path d="M332.625 77.6611C332.625 79.3154 332.202 80.5824 331.358 81.4624C330.513 82.3423 329.378 82.7822 327.952 82.7822C326.527 82.7822 325.392 82.3423 324.547 81.4624C323.702 80.5824 323.28 79.3154 323.28 77.6611C323.28 76.0069 323.702 74.7398 324.547 73.8599C325.392 72.98 326.527 72.54 327.952 72.54C329.378 72.54 330.513 72.98 331.358 73.8599C332.202 74.7398 332.625 76.0069 332.625 77.6611ZM329.642 77.6611C329.642 76.7636 329.483 76.1125 329.167 75.7077C328.85 75.303 328.445 75.1006 327.952 75.1006C327.442 75.1006 327.028 75.303 326.712 75.7077C326.413 76.1125 326.263 76.7636 326.263 77.6611C326.263 78.5586 326.413 79.2186 326.712 79.6409C327.028 80.0457 327.442 80.2481 327.952 80.2481C328.445 80.2481 328.85 80.0457 329.167 79.6409C329.483 79.2186 329.642 78.5586 329.642 77.6611ZM337.772 72.9624H341.441L331.12 91.2558H327.451L337.772 72.9624ZM345.665 86.5571C345.665 88.2113 345.243 89.4784 344.398 90.3583C343.553 91.2382 342.418 91.6782 340.993 91.6782C339.567 91.6782 338.432 91.2382 337.587 90.3583C336.743 89.4784 336.32 88.2113 336.32 86.5571C336.32 84.9028 336.743 83.6357 337.587 82.7558C338.432 81.8759 339.567 81.436 340.993 81.436C342.418 81.436 343.553 81.8759 344.398 82.7558C345.243 83.6357 345.665 84.9028 345.665 86.5571ZM342.682 86.5571C342.682 85.6595 342.524 85.0084 342.207 84.6036C341.89 84.1989 341.485 83.9965 340.993 83.9965C340.482 83.9965 340.069 84.1989 339.752 84.6036C339.453 85.0084 339.303 85.6595 339.303 86.5571C339.303 87.4546 339.453 88.1145 339.752 88.5369C340.069 88.9416 340.482 89.144 340.993 89.144C341.485 89.144 341.89 88.9416 342.207 88.5369C342.524 88.1145 342.682 87.4546 342.682 86.5571Z" fill="white"/>
<path fill-rule="evenodd" clip-rule="evenodd" d="M331.989 74.7296C331.832 74.4385 331.645 74.1742 331.429 73.9368C331.406 73.9108 331.382 73.8852 331.358 73.8599C330.513 72.98 329.378 72.54 327.952 72.54C326.527 72.54 325.392 72.98 324.547 73.8599C324.519 73.8891 324.491 73.9188 324.464 73.9489C324.447 73.9684 324.429 73.9881 324.412 74.008C323.657 74.8798 323.28 76.0975 323.28 77.6611C323.28 79.2083 323.649 80.4168 324.388 81.2866C324.418 81.3212 324.448 81.3553 324.478 81.3888C324.501 81.4136 324.524 81.4381 324.547 81.4623C325.291 82.2377 326.261 82.6715 327.457 82.7636C327.618 82.776 327.783 82.7822 327.952 82.7822C329.378 82.7822 330.513 82.3423 331.358 81.4623C331.377 81.442 331.396 81.4215 331.415 81.4008C331.429 81.3864 331.442 81.3718 331.455 81.3572C332.235 80.4826 332.625 79.2506 332.625 77.6611C332.625 76.4898 332.413 75.5126 331.989 74.7296ZM329.641 77.5659C329.64 77.4932 329.638 77.4223 329.635 77.353C329.623 77.0909 329.596 76.8529 329.554 76.6389C329.492 76.3297 329.398 76.0706 329.272 75.8617C329.239 75.8069 329.204 75.7556 329.167 75.7077C328.85 75.3029 328.445 75.1006 327.952 75.1006C327.442 75.1006 327.028 75.3029 326.712 75.7077C326.679 75.7519 326.648 75.799 326.619 75.849C326.499 76.0563 326.409 76.3139 326.349 76.6219C326.306 76.8456 326.279 77.0959 326.268 77.3727C326.267 77.4032 326.266 77.4339 326.265 77.465C326.264 77.529 326.263 77.5944 326.263 77.6611C326.263 77.7692 326.265 77.8739 326.269 77.9751C326.281 78.2528 326.31 78.5045 326.354 78.7303C326.412 79.0244 326.498 79.2745 326.611 79.4805C326.643 79.5373 326.676 79.5908 326.712 79.6409C327.028 80.0457 327.442 80.2481 327.952 80.2481C328.445 80.2481 328.85 80.0457 329.167 79.6409C329.207 79.5871 329.245 79.5294 329.28 79.4679C329.399 79.2603 329.488 79.0089 329.549 78.7137C329.593 78.4975 329.621 78.2579 329.634 77.9947C329.636 77.9541 329.638 77.9129 329.639 77.8712C329.641 77.8027 329.642 77.7327 329.642 77.6611C329.642 77.629 329.642 77.5973 329.641 77.5659ZM328.397 76.9532C328.382 76.8814 328.367 76.8271 328.354 76.7882C328.348 76.7717 328.343 76.7583 328.339 76.7474C328.299 76.7361 328.213 76.7175 328.069 76.7107L328.397 76.9532ZM327.99 76.7083L328.413 77.0388C328.437 77.187 328.457 77.3907 328.457 77.6611C328.457 77.9506 328.434 78.1636 328.407 78.3139L328.025 78.6132C328.002 78.6138 327.978 78.6142 327.952 78.6142C327.916 78.6142 327.883 78.6135 327.852 78.6123L327.502 78.338C327.473 78.1868 327.448 77.9664 327.448 77.6611C327.448 77.3759 327.47 77.1649 327.496 77.015C327.514 76.9118 327.534 76.8376 327.551 76.7882C327.556 76.7717 327.561 76.7583 327.566 76.7474C327.61 76.7348 327.711 76.7132 327.887 76.7088C327.908 76.7083 327.93 76.708 327.952 76.708C327.965 76.708 327.978 76.7081 327.99 76.7083ZM327.515 78.4022C327.528 78.4578 327.54 78.5014 327.551 78.5341C327.556 78.5505 327.561 78.564 327.566 78.5748C327.602 78.5849 327.673 78.6008 327.791 78.6089L327.515 78.4022ZM328.176 78.6035C328.258 78.5949 328.31 78.583 328.339 78.5748C328.343 78.564 328.348 78.5505 328.354 78.5341C328.36 78.5143 328.368 78.4907 328.375 78.4628L328.176 78.6035ZM325.295 86.5949C323.916 86.2054 322.627 85.4808 321.54 84.3488C319.718 82.4502 319.112 80.0002 319.112 77.6611C319.112 75.322 319.718 72.872 321.54 70.9734C323.304 69.136 325.6 68.372 327.952 68.372C330.233 68.372 332.461 69.0902 334.202 70.8085L335.338 68.7944H348.579L343.605 77.6105C345.001 77.9969 346.306 78.7249 347.405 79.8693C349.227 81.768 349.833 84.2179 349.833 86.557C349.833 88.8961 349.227 91.3461 347.405 93.2447C345.641 95.0821 343.345 95.8461 340.993 95.8461C338.697 95.8461 336.455 95.1186 334.709 93.376L333.554 95.4238H320.313L325.295 86.5949ZM327.451 91.2558H331.12L341.441 72.9624H337.772L327.451 91.2558ZM341.438 81.4509C341.293 81.4409 341.144 81.4359 340.993 81.4359C339.567 81.4359 338.432 81.8759 337.587 82.7558C337.559 82.785 337.532 82.8147 337.505 82.8448C337.487 82.8643 337.47 82.884 337.452 82.9039C336.698 83.7757 336.32 84.9934 336.32 86.557C336.32 87.7044 336.524 88.6656 336.93 89.4405C337.072 89.7104 337.238 89.9578 337.429 90.1825C337.458 90.2171 337.488 90.2512 337.519 90.2847C337.541 90.3095 337.564 90.334 337.587 90.3583C338.432 91.2382 339.567 91.6781 340.993 91.6781C342.418 91.6781 343.553 91.2382 344.398 90.3583C344.417 90.338 344.437 90.3175 344.456 90.2967C344.469 90.2823 344.482 90.2677 344.495 90.2531C345.275 89.3785 345.665 88.1465 345.665 86.557C345.665 84.9504 345.267 83.7089 344.47 82.8327C344.446 82.8068 344.422 82.7811 344.398 82.7558C343.643 81.9695 342.656 81.5345 341.438 81.4509ZM339.394 87.6262C339.453 87.9203 339.538 88.1704 339.652 88.3764C339.683 88.4333 339.716 88.4867 339.752 88.5368C340.069 88.9416 340.482 89.144 340.993 89.144C341.485 89.144 341.89 88.9416 342.207 88.5368C342.247 88.483 342.285 88.4253 342.32 88.3638C342.439 88.1563 342.529 87.9049 342.589 87.6096C342.633 87.3935 342.661 87.1538 342.674 86.8906C342.676 86.85 342.678 86.8089 342.679 86.7671C342.681 86.6986 342.682 86.6286 342.682 86.557C342.682 86.525 342.682 86.4932 342.681 86.4618C342.681 86.3891 342.679 86.3182 342.675 86.2489C342.664 85.9868 342.637 85.7488 342.594 85.5348C342.532 85.2256 342.439 84.9665 342.313 84.7576C342.28 84.7028 342.244 84.6515 342.207 84.6036C341.89 84.1989 341.485 83.9965 340.993 83.9965C340.482 83.9965 340.069 84.1989 339.752 84.6036C339.719 84.6478 339.688 84.6949 339.659 84.7449C339.539 84.9522 339.449 85.2099 339.39 85.5179C339.347 85.7416 339.32 85.9918 339.309 86.2687C339.308 86.2991 339.307 86.3298 339.306 86.3609C339.304 86.4249 339.303 86.4903 339.303 86.557C339.303 86.6651 339.305 86.7698 339.31 86.871C339.322 87.1487 339.35 87.4004 339.394 87.6262ZM340.555 87.2982C340.568 87.3538 340.58 87.3973 340.591 87.43C340.597 87.4464 340.602 87.4599 340.606 87.4707C340.642 87.4808 340.713 87.4967 340.831 87.5049L340.555 87.2982ZM341.217 87.4994C341.298 87.4909 341.35 87.4789 341.379 87.4707C341.384 87.4599 341.389 87.4464 341.394 87.43C341.401 87.4103 341.408 87.3866 341.415 87.3587L341.217 87.4994ZM341.453 85.9348C341.477 86.0829 341.497 86.2866 341.497 86.557C341.497 86.8465 341.474 87.0596 341.448 87.2098L341.065 87.5091C341.042 87.5098 341.018 87.5101 340.993 87.5101C340.957 87.5101 340.923 87.5094 340.893 87.5082L340.542 87.2339C340.513 87.0827 340.488 86.8623 340.488 86.557C340.488 86.2718 340.51 86.0608 340.537 85.9109C340.555 85.8077 340.575 85.7335 340.591 85.6841C340.597 85.6677 340.602 85.6542 340.606 85.6434C340.651 85.6307 340.752 85.6091 340.928 85.6047C340.948 85.6042 340.97 85.604 340.993 85.604C341.006 85.604 341.018 85.604 341.031 85.6042L341.453 85.9348ZM341.437 85.8491L341.109 85.6066C341.254 85.6134 341.339 85.632 341.379 85.6434C341.384 85.6542 341.389 85.6677 341.394 85.6841C341.407 85.723 341.422 85.7773 341.437 85.8491Z" fill="black"/>
<path d="M60.9308 73.3349C60.8004 75.5255 60.5396 77.8466 59.8876 79.3852C60.4614 79.5939 61.5045 80.0633 62 80.3762C62.6259 78.7333 63.0693 76.1514 63.2779 73.7L60.9308 73.3349ZM65.9641 73.8825C66.4596 75.4212 66.9812 77.4032 67.1376 78.7333L69.3022 78.003C69.0936 76.6991 68.5459 74.7692 68.0243 73.2566L65.9641 73.8825ZM64.1646 69.2665C64.5297 68.7189 64.9209 68.1451 65.286 67.5453C65.5207 68.0669 65.7554 68.6145 65.9902 69.1622L64.1646 69.2665ZM73.9965 69.3187H76.1349V66.6325H73.9965V64.3376H76.3957V61.5993H73.9965V58.3915H71.3103V61.5993H68.7806V64.3376H71.3103V66.6325H69.1197V69.3187H71.3103V69.736C71.3103 70.414 71.3103 71.0921 71.2842 71.7701H69.224C68.9371 70.2836 68.1026 68.1973 67.242 66.5282L65.5207 67.1802C66.5639 65.5633 67.6071 63.816 68.4938 62.2773L66.0684 61.2341C65.599 62.3816 64.947 63.7117 64.2429 65.0417C64.0342 64.7548 63.7995 64.4419 63.5387 64.155C64.295 62.6946 65.1817 60.6865 65.9641 58.9392L63.3562 58.1046C63.0432 59.3825 62.4955 60.9734 61.9218 62.3556C61.7393 62.173 61.5828 61.9904 61.4002 61.834L60.1223 64.0246C61.0873 65.0417 62.1565 66.3457 62.8607 67.4671C62.4434 68.1451 62.0522 68.7971 61.661 69.3708L59.9659 69.4491L60.2267 72.1613C61.1916 72.0831 62.2608 72.0048 63.3822 71.9005V82.4365H65.938V71.6658L66.7986 71.5876C66.929 72.0831 67.0333 72.5525 67.0855 72.9698L68.7545 72.2656V74.4824H71.0234C70.6583 76.8816 69.8238 79.0462 67.9461 80.7935C68.5981 81.1847 69.6934 82.0453 70.2411 82.6451C72.4839 80.4284 73.4227 77.6119 73.7617 74.4824H76.4479V71.7701H73.9704C73.9965 71.0921 73.9965 70.414 73.9965 69.736V69.3187ZM82.42 59.3825L82.0288 59.4868H76.813V82.4104H79.5774V62.0426H81.3247C81.0378 63.9725 80.6466 66.137 80.2033 68.432C81.429 70.9878 81.8724 72.5003 81.8724 73.9086C81.8724 74.8475 81.742 75.682 81.4551 75.9428C81.3769 76.0993 81.1682 76.1514 80.9596 76.1514C80.7249 76.1514 80.3858 76.1514 80.1251 76.1253C80.5423 76.8556 80.6988 77.977 80.6988 78.7333C81.2204 78.7593 81.6898 78.7593 82.0549 78.6811C82.6026 78.5768 83.0198 78.4203 83.385 78.1074C84.1673 77.3771 84.5585 75.9428 84.5585 74.0129C84.5585 72.4482 83.9848 70.6487 82.6808 68.093C83.385 65.2764 83.9848 62.6163 84.4542 60.4257L82.42 59.3825Z" fill="black"/>
<path d="M115.514 70.3358V67.2584H104.77V64.2333H112.724V61.2341H104.77V58.0786H101.458V67.2584H91.9128V70.3358H101.458V82.4104H104.77V74.5084C107.378 75.4212 110.612 76.673 112.307 77.5858L113.95 74.7692C111.942 73.7782 107.978 72.4482 105.37 71.6658L104.77 72.6307V70.3358H115.514Z" fill="black"/>
<path d="M142.037 76.5948V79.0462H135.569V76.5948H142.037ZM132.779 82.4365H135.569V81.4976H142.037V82.3322H144.958V74.1433H132.779V82.4365ZM135.961 70.1271C137.082 69.084 138.047 67.9886 138.699 66.9716C139.429 68.0147 140.472 69.1101 141.62 70.1271H135.961ZM137.186 64.3115C137.082 64.468 136.978 64.6505 136.873 64.8331V63.0858H140.837V65.1721H143.758V63.0858H146.809V60.4518H143.758V58.1046H140.837V60.4518H136.873V58.1046H134.005V60.4518H131.11V63.0858H134.005V65.0939H136.691C135.439 66.9194 133.405 68.8753 131.214 70.2054L130.979 68.5624L129.076 69.084V65.8502H131.084V63.0075H129.076V58.1046H126.103V63.0075H123.077V65.8502H126.103V69.8924C124.773 70.2575 123.547 70.5705 122.556 70.7791L123.208 73.7782C124.095 73.5174 125.086 73.2306 126.103 72.9437V78.9158C126.103 79.307 125.972 79.4113 125.659 79.4113C125.32 79.4374 124.251 79.4374 123.234 79.3852C123.625 80.2458 124.016 81.5759 124.095 82.4104C125.894 82.4104 127.12 82.3061 127.98 81.7845C128.815 81.3151 129.076 80.4806 129.076 78.9419V72.0309L130.406 71.6136C130.797 72.1874 131.136 72.8915 131.345 73.387C132.544 72.7872 133.692 72.0309 134.761 71.1703V72.5786H142.845V71.1181C143.836 71.9005 144.88 72.5525 145.897 73.0741C146.314 72.1874 146.914 71.066 147.514 70.3619C144.697 69.2665 141.88 66.9455 140.003 64.3115H137.186Z" fill="black"/>
<path d="M160.032 72.2656V70.6748H164.569V72.2656H160.032ZM160.032 66.7629H164.569V68.3538H160.032V66.7629ZM172.315 66.7629V68.3538H167.751V66.7629H172.315ZM172.315 72.2656H167.751V70.6748H172.315V72.2656ZM178.157 76.1514H167.751V74.7431H175.444V64.2854H167.751V63.0336H177.4V60.2171H167.751V58.1046H164.569V60.2171H155.103V63.0336H164.569V64.2854H157.059V74.7431H164.569V76.1514H154.477V78.9419H164.569V82.4626H167.751V78.9419H178.157V76.1514Z" fill="black"/>
<path d="M203.036 61.9644H191.979V60.8951H203.036V61.9644ZM203.036 64.9374H191.979V63.8421H203.036V64.9374ZM206.14 58.9131H189.006V66.9194H206.14V58.9131ZM204.653 73.6739C204.184 74.6128 203.584 75.4734 202.88 76.2297C202.175 75.4734 201.576 74.6128 201.132 73.6739H204.653ZM190.831 76.7773H194.221V77.7944C193.074 77.8987 191.926 77.977 190.831 78.0552V76.7773ZM190.831 73.5435H194.221V74.6388H190.831V73.5435ZM194.221 70.3358V71.3789H190.831V70.3358H194.221ZM206.479 71.1964L205.957 71.3007H197.846V73.6739H200.246L198.524 74.1433C199.15 75.5777 199.959 76.8816 200.898 78.003C199.802 78.8115 198.524 79.4374 197.194 79.8807V70.3358H209.139V67.8843H185.954V70.3358H187.988V78.2638C187.18 78.3421 186.398 78.3682 185.72 78.4203L185.954 81.0804C188.249 80.8717 191.222 80.611 194.221 80.3241V82.4365H197.194V80.3241C197.716 80.95 198.29 81.8106 198.577 82.4104C200.193 81.8106 201.68 81.0021 203.01 79.9851C204.392 81.0543 206.009 81.8628 207.861 82.4104C208.278 81.6802 209.086 80.5588 209.686 79.9851C207.965 79.5678 206.4 78.9158 205.096 78.0552C206.557 76.4122 207.678 74.378 208.382 71.9266L206.479 71.1964Z" fill="black"/>
<path d="M231.071 78.2117H226.559V76.5165H231.071V78.2117ZM239.417 70.7009H218.501V82.4365H221.526V73.2827H236.287V79.0984C236.287 79.4113 236.183 79.4896 235.792 79.5156C235.505 79.5417 234.696 79.5417 233.809 79.5156V74.4563H223.847V81.4716H226.559V80.298H233.288C233.575 80.9761 233.809 81.7845 233.888 82.3843C235.765 82.3843 237.148 82.3583 238.113 81.8888C239.13 81.4194 239.417 80.5849 239.417 79.1505V70.7009ZM232.818 67.5192H224.682V65.9284H232.818V67.5192ZM221.735 63.8681V69.6056H235.974V63.8681H221.735ZM230.263 60.2431V58.0525H227.107V60.2431H217.458V62.8771H240.251V60.2431H230.263Z" fill="black"/>
<path d="M423.889 37.4013C422.46 52.7708 400.325 63.2845 374.451 60.8843C370.115 60.4821 365.948 59.7427 362.024 58.7181C358.376 57.7656 341.707 63.0243 338.534 61.6206C334.941 60.031 344.918 51.7212 342.09 49.6672C334.075 43.8437 329.474 36.3972 330.189 28.7095C331.619 13.34 353.754 2.82625 379.628 5.22641C405.503 7.62658 425.319 22.0318 423.889 37.4013Z" fill="#284273"/>
<path d="M363.692 22.5604L363.353 26.2065L357.623 25.675L356.195 41.0271L351.919 40.6303L353.347 25.2783L347.617 24.7468L347.956 21.1007L363.692 22.5604Z" fill="white" fill-opacity="0.9"/>
<path d="M367.645 31.7514C369.156 31.8915 370.291 32.2672 371.05 32.8783C371.81 33.4797 372.134 34.3848 372.021 35.5935C371.908 36.8119 371.417 37.656 370.547 38.1259C369.678 38.5861 368.484 38.7456 366.963 38.6046L366.247 38.5381L365.931 41.9302L363.65 41.7186L364.579 31.7325C365.085 31.6811 365.618 31.6617 366.177 31.6742C366.736 31.6868 367.226 31.7125 367.645 31.7514ZM367.61 33.7095C367.444 33.6942 367.278 33.6837 367.112 33.678C366.955 33.6733 366.817 33.6704 366.699 33.6693L366.427 36.5935L367.144 36.66C367.933 36.7332 368.538 36.6811 368.958 36.5038C369.377 36.3264 369.614 35.9453 369.669 35.3605C369.695 35.0778 369.663 34.8389 369.573 34.6437C369.493 34.4495 369.36 34.2897 369.175 34.1644C369.001 34.0303 368.779 33.931 368.51 33.8667C368.241 33.7927 367.941 33.7403 367.61 33.7095Z" fill="white" fill-opacity="0.9"/>
<path d="M380.252 39.3654C380.196 39.9697 380.056 40.5172 379.834 41.0077C379.612 41.4886 379.319 41.894 378.954 42.2239C378.59 42.544 378.165 42.7799 377.679 42.9314C377.202 43.0839 376.677 43.1334 376.102 43.0801C375.536 43.0276 375.029 42.8822 374.579 42.6439C374.139 42.4064 373.77 42.0969 373.471 41.7153C373.173 41.3239 372.955 40.871 372.816 40.3567C372.678 39.8327 372.637 39.2685 372.693 38.6642C372.749 38.0598 372.893 37.5177 373.124 37.0378C373.366 36.5587 373.668 36.1591 374.032 35.839C374.406 35.5197 374.831 35.2839 375.307 35.1314C375.793 34.9799 376.309 34.9294 376.855 34.9801C377.411 35.0316 377.909 35.1761 378.349 35.4135C378.798 35.6519 379.173 35.9619 379.471 36.3435C379.77 36.7252 379.989 37.1731 380.128 37.6874C380.267 38.2017 380.308 38.761 380.252 39.3654ZM378.03 39.1592C378.092 38.4866 378.005 37.9476 377.767 37.5422C377.54 37.1279 377.178 36.8977 376.681 36.8515C376.184 36.8054 375.781 36.9647 375.472 37.3292C375.163 37.6841 374.978 38.1978 374.915 38.8703C374.853 39.5429 374.939 40.0916 375.175 40.5166C375.412 40.9318 375.779 41.1625 376.276 41.2086C376.773 41.2547 377.171 41.095 377.471 40.7295C377.781 40.3552 377.967 39.8318 378.03 39.1592Z" fill="white" fill-opacity="0.9"/>
<path d="M383.759 43.5839L381.581 43.3819L382.296 35.6912L384.475 35.8933L383.759 43.5839ZM384.886 33.6899C384.849 34.0895 384.688 34.3941 384.403 34.6037C384.129 34.8043 383.816 34.8884 383.465 34.8558C383.114 34.8233 382.818 34.6827 382.575 34.4341C382.344 34.1767 382.246 33.8481 382.283 33.4485C382.321 33.0488 382.476 32.7487 382.751 32.548C383.036 32.3385 383.354 32.25 383.704 32.2826C384.055 32.3151 384.347 32.4601 384.578 32.7175C384.821 32.9661 384.923 33.2903 384.886 33.6899Z" fill="white" fill-opacity="0.9"/>
<path d="M386.498 36.3465C386.878 36.2736 387.365 36.2204 387.958 36.187C388.552 36.1437 389.171 36.152 389.814 36.2116C390.467 36.2722 391 36.4101 391.413 36.6254C391.836 36.8318 392.16 37.1027 392.384 37.4381C392.608 37.7735 392.754 38.1606 392.822 38.5995C392.889 39.0383 392.898 39.5209 392.849 40.0472L392.445 44.3897L390.267 44.1876L390.646 40.1083C390.711 39.4065 390.665 38.9008 390.507 38.5912C390.349 38.2816 390.017 38.1033 389.51 38.0563C389.354 38.0418 389.187 38.0362 389.01 38.0394C388.834 38.0329 388.676 38.033 388.538 38.0399L387.986 43.976L385.807 43.7739L386.498 36.3465Z" fill="white" fill-opacity="0.9"/>
<path d="M395.238 34.9598L397.449 34.811L397.238 37.0773L399.855 37.32L399.687 39.133L397.069 38.8903L396.818 41.5951C396.775 42.0533 396.819 42.426 396.95 42.7134C397.09 43.0017 397.404 43.1685 397.891 43.2137C398.125 43.2354 398.366 43.238 398.613 43.2217C398.871 43.1964 399.106 43.1543 399.318 43.0953L399.467 44.8198C399.194 44.9027 398.893 44.9681 398.564 45.0163C398.235 45.0644 397.837 45.0668 397.369 45.0234C396.774 44.9682 396.289 44.8446 395.914 44.6524C395.539 44.4506 395.248 44.1975 395.041 43.8931C394.834 43.579 394.701 43.2127 394.642 42.7943C394.592 42.3767 394.59 41.9194 394.636 41.4223L395.238 34.9598Z" fill="white" fill-opacity="0.9"/>
<path d="M403.267 43.8156C403.667 43.8527 403.953 43.8399 404.126 43.7773C404.299 43.7147 404.396 43.5713 404.417 43.3471C404.433 43.1717 404.34 43.0106 404.137 42.864C403.936 42.7077 403.623 42.5263 403.2 42.3199C402.871 42.1615 402.571 42.001 402.301 41.8383C402.041 41.6765 401.822 41.494 401.644 41.2907C401.467 41.0777 401.337 40.8346 401.255 40.5615C401.172 40.2884 401.148 39.9666 401.182 39.5962C401.249 38.8749 401.57 38.3296 402.145 37.9602C402.721 37.5908 403.476 37.4495 404.412 37.5363C404.88 37.5797 405.324 37.6651 405.745 37.7926C406.166 37.9104 406.499 38.0298 406.744 38.1507L406.206 39.8115C405.961 39.7003 405.69 39.5965 405.394 39.5003C405.108 39.4049 404.78 39.3401 404.409 39.3057C403.727 39.2424 403.368 39.4008 403.333 39.781C403.325 39.8687 403.332 39.948 403.355 40.019C403.378 40.0899 403.43 40.1636 403.511 40.2399C403.594 40.3066 403.704 40.3856 403.843 40.4772C403.993 40.5599 404.181 40.656 404.406 40.7654C404.868 40.9851 405.246 41.1972 405.542 41.4016C405.838 41.5962 406.065 41.804 406.221 42.025C406.388 42.2371 406.495 42.4682 406.54 42.7182C406.595 42.9691 406.608 43.2554 406.578 43.5771C406.507 44.3374 406.166 44.8858 405.555 45.2223C404.953 45.5598 404.131 45.6801 403.088 45.5834C402.406 45.5201 401.841 45.4087 401.394 45.2492C400.956 45.0907 400.653 44.9643 400.485 44.87L401.015 43.1348C401.372 43.3154 401.741 43.4676 402.123 43.5915C402.506 43.7056 402.887 43.7803 403.267 43.8156Z" fill="white" fill-opacity="0.9"/>
</svg>
