<svg width="437" height="84" viewBox="0 0 437 84" fill="none" xmlns="http://www.w3.org/2000/svg">
<mask id="path-1-outside-1" maskUnits="userSpaceOnUse" x="-0.828735" y="46.1724" width="430" height="38" fill="black">
<rect fill="white" x="-0.828735" y="46.1724" width="430" height="38"/>
<path d="M17.5753 64.5484H25.5833V66.0044H17.5753V64.5484ZM26.9833 67.8524C26.3113 68.4124 25.6113 68.9724 24.9673 69.3924C24.2393 68.9444 23.5953 68.4124 23.0633 67.8524H26.9833ZM22.8953 74.3484V71.0164C24.6313 72.4164 26.7593 73.4524 29.2233 74.0404C29.6153 73.2564 30.4273 72.1084 31.0433 71.5484C29.6713 71.3244 28.3553 70.9604 27.1793 70.5124C28.2433 69.8684 29.4193 69.0844 30.5673 68.3004L28.8873 67.1524V62.7004H14.4953V67.8524H18.7793C17.0433 69.2244 14.7193 70.3444 12.4233 71.1004C13.0113 71.6884 13.9633 72.8924 14.3273 73.5364C16.1473 72.7804 18.0513 71.7724 19.7313 70.5404V74.3484H22.8953ZM12.2833 61.8324H31.0153V59.5364H12.2833V61.8324ZM26.7873 56.8204H24.9953V54.8884H26.7873V56.8204ZM22.5033 56.8204H20.7113V54.8884H22.5033V56.8204ZM18.1913 56.8204H16.4833V54.8884H18.1913V56.8204ZM29.7553 53.0124H13.6833V58.6684H29.7553V53.0124ZM12.5633 57.4364C11.6673 56.0924 9.73526 54.2444 8.16726 52.9844L5.61926 54.8884C7.18726 56.2324 9.03526 58.1644 9.81926 59.5364L12.5633 57.4364ZM11.8073 63.1484H5.50726V66.2004H8.64327V72.3044C7.52326 73.2564 6.26326 74.1804 5.17126 74.8804L6.73926 78.1844C8.16726 76.9804 9.31526 75.9164 10.4353 74.8244C12.1153 76.9804 14.3553 77.7924 17.6873 77.9324C21.1033 78.0724 27.0393 78.0164 30.5113 77.8484C30.6793 76.9244 31.1553 75.3844 31.5473 74.6004C27.6833 74.9084 21.0753 74.9924 17.7153 74.8524C14.8593 74.7404 12.8993 73.9564 11.8073 72.0804V63.1484Z"/>
<path d="M60.0233 57.7164C59.8553 59.8444 59.6033 60.8524 59.2673 61.1884C58.9873 61.4124 58.7353 61.4684 58.2873 61.4684C57.7273 61.4684 56.4673 61.4404 55.2073 61.3004C55.7673 62.1684 56.1313 63.4284 56.1873 64.3804C57.6713 64.4084 59.0153 64.4084 59.8273 64.3244C60.7793 64.2124 61.4793 63.9884 62.0673 63.3164C62.8233 62.4764 63.1873 60.4604 63.4673 55.9524C63.5233 55.5044 63.5513 54.7204 63.5513 54.7204H54.4233C54.5633 54.0484 54.6753 53.3764 54.7873 52.6764L51.3433 52.2844C50.7833 56.9044 49.3273 60.7684 46.4713 63.0084C47.2833 63.4564 48.7673 64.5484 49.3553 65.1084C51.2873 63.3164 52.7153 60.7684 53.6673 57.7164H60.0233ZM47.5633 55.2804C46.4153 54.3004 44.0913 53.0684 42.2993 52.3964L40.4793 54.8604C42.2713 55.6444 44.5673 56.9884 45.6033 57.9964L47.5633 55.2804ZM45.8833 62.7004C44.7353 61.7484 42.3553 60.5724 40.5913 59.9004L38.8553 62.3924C40.6473 63.1764 42.9433 64.4644 44.0353 65.4444L45.8833 62.7004ZM44.8473 67.0964C43.2233 70.3164 41.2073 73.7884 39.7793 75.8884L42.6353 78.0724C44.2593 75.3844 45.9393 72.1924 47.3393 69.2524L44.8473 67.0964ZM59.0433 68.2164C58.2873 69.4764 57.3353 70.5684 56.1593 71.4924C54.9553 70.5124 53.9193 69.4204 53.1633 68.2164H59.0433ZM61.4233 65.1364L60.8353 65.2484H48.4033V68.2164H52.1833L50.0273 68.9444C50.9513 70.5684 52.0713 71.9964 53.3873 73.2564C51.3433 74.2924 48.9353 74.9924 46.3313 75.4124C46.9473 76.1404 47.6753 77.5124 47.9833 78.4084C51.0353 77.7644 53.7793 76.8404 56.1593 75.4404C58.1753 76.7564 60.4993 77.7364 63.1593 78.3804C63.6353 77.4564 64.5873 76.0844 65.3433 75.3844C63.0193 74.9364 60.9193 74.2364 59.0713 73.3124C61.0873 71.4644 62.6553 69.0844 63.6353 66.0324L61.4233 65.1364Z"/>
<path d="M82.7033 64.4084C83.3753 65.0244 84.1313 65.7804 84.4673 66.2004C85.0833 65.5004 85.6433 64.7164 86.2033 63.8484C86.9313 66.4804 87.8553 68.8604 89.0313 70.9324C87.3793 72.8084 85.3073 74.2924 82.7033 75.4124V64.4084ZM93.7353 60.4324C93.1473 63.3164 92.3073 65.7804 91.1313 67.9084C89.9553 65.6964 89.1153 63.1484 88.4993 60.4324H93.7353ZM98.7473 60.4324V57.2684H89.1993C89.6753 55.8684 90.0673 54.4124 90.4033 52.9284L86.9873 52.2844C86.2033 56.2324 84.7473 60.0684 82.7033 62.7284V52.4524H79.4553V68.1044L77.2153 68.6364V55.5324H74.0233V69.3924C73.3793 69.5324 72.8193 69.6444 72.2873 69.7564L73.4353 73.1444C75.2273 72.6124 77.3273 71.9404 79.4553 71.2684V78.4084H82.7033V75.6084C83.3193 76.3924 84.2153 77.7924 84.4673 78.5204C87.0713 77.2604 89.2273 75.6924 90.9633 73.7884C92.5313 75.7204 94.4353 77.2884 96.7593 78.4364C97.2633 77.5404 98.2993 76.1964 99.0553 75.5244C96.6473 74.4884 94.7153 72.9484 93.1473 70.9884C94.9953 68.1044 96.2833 64.6044 97.1513 60.4324H98.7473Z"/>
<path d="M115.155 73.4804V70.2604H119.719V67.2924H115.155V64.5764H111.851V67.2924H107.203V70.2604H111.851V73.8724C109.695 74.1244 107.707 74.3204 106.083 74.4884L106.615 77.7924C110.395 77.2884 115.743 76.6444 120.727 75.9444L120.615 72.8364L115.155 73.4804ZM114.903 58.8084C115.407 59.4524 115.939 60.1804 116.443 60.9364C114.959 60.9924 113.475 61.0484 112.075 61.0764C112.663 59.7884 113.251 58.3604 113.783 56.9884H120.587V54.0484H106.391V56.9884H110.059C109.723 58.3324 109.247 59.8444 108.771 61.1604L106.335 61.2164L106.531 64.3244C109.639 64.1844 113.951 63.9884 118.095 63.7644C118.375 64.2964 118.599 64.7724 118.767 65.2204L121.399 63.7084C120.699 61.9724 118.907 59.3964 117.367 57.5204L114.903 58.8084ZM124.815 55.6724H121.623V71.4364H124.815V55.6724ZM127.979 53.0684V74.4604C127.979 74.9364 127.811 75.0764 127.307 75.1044C126.747 75.1044 125.039 75.1044 123.359 75.0204C123.835 76.0004 124.311 77.4844 124.451 78.4364C126.831 78.4364 128.651 78.3244 129.743 77.7924C130.863 77.2884 131.255 76.3364 131.255 74.4604V53.0684H127.979Z"/>
<path d="M143.855 56.5964H161.579V58.8924H164.687V53.9924H154.411V52.2844H151.079V53.9924H140.859V58.8924H143.855V56.5964ZM146.795 71.8564H158.751V72.6964H146.795V71.8564ZM146.795 69.3364H158.751V70.1764H146.795V69.3364ZM146.795 66.8724H158.751V67.6844H146.795V66.8724ZM162.139 74.4604V65.1364H143.575V74.4604H147.607C145.619 75.2164 142.651 75.9164 140.131 76.2804C140.775 76.8404 141.671 77.8204 142.119 78.4364C145.423 77.9324 149.315 76.8684 151.583 75.5804L149.931 74.4604H155.391L153.935 75.6644C157.127 76.5884 160.375 77.6804 162.251 78.4364L165.135 76.5884C163.399 76.0004 160.823 75.1884 158.247 74.4604H162.139ZM153.627 62.6444L153.739 61.7764H157.519L157.435 62.6444H153.627ZM147.439 61.7764H150.967L150.855 62.6444H147.327L147.439 61.7764ZM151.275 59.1724L151.191 60.0404H147.663L147.775 59.1724H151.275ZM157.659 60.0404H153.935L154.019 59.1724H157.743L157.659 60.0404ZM160.739 59.7324L160.963 57.4924H145.059L144.779 59.7324H140.383V62.0844H144.471L144.191 64.3244H160.319L160.543 62.0844H165.191V59.7324H160.739Z"/>
<path d="M196.075 57.9404H194.843V56.7364H196.075V57.9404ZM196.075 61.1884H194.843V59.9564H196.075V61.1884ZM188.851 59.9564H190.055V61.1884H188.851V59.9564ZM188.851 56.7364H190.055V57.9404H188.851V56.7364ZM193.051 59.9564V61.1884H191.847V59.9564H193.051ZM191.847 57.9404V56.7364H193.051V57.9404H191.847ZM198.651 54.6364H195.403V52.3124H193.051V54.6364H191.847V52.3124H189.523V54.6364H186.415V63.3164H198.651V54.6364ZM183.363 64.4924H176.167V63.3724H183.363V64.4924ZM178.239 71.4364V70.1484H181.235V71.4364H178.239ZM181.235 67.9644H178.239V66.7324H181.235V67.9644ZM177.763 55.5044H181.683V56.6524H178.743V61.1044H177.763V55.5044ZM180.507 61.1044V58.5284H181.683V61.1044H180.507ZM185.827 65.4724V66.4804H199.183V64.2684H185.855V61.1044H184.175V53.1524H175.383V61.1044H173.787V65.4724H175.439V78.4364H178.239V73.6764H181.235V75.6084C181.235 75.8324 181.179 75.9164 180.927 75.9444C180.675 75.9444 180.031 75.9444 179.387 75.9164C179.695 76.6164 180.031 77.6804 180.143 78.4364C181.459 78.4364 182.411 78.4084 183.139 77.9604C183.895 77.5404 184.063 76.8404 184.063 75.6364V65.4724H185.827ZM194.479 72.8364C194.227 73.7324 193.751 74.8804 193.359 75.7484H191.455C191.259 74.9084 190.755 73.7324 190.195 72.8364H194.479ZM189.495 69.3364H195.459V70.8764H189.495V69.3364ZM195.851 75.7484C196.299 74.9924 196.803 74.1244 197.307 73.2284L195.627 72.8364H198.259V67.3764H186.807V72.8364H189.495L187.787 73.4524C188.207 74.1244 188.571 74.9924 188.823 75.7484H185.239V78.1004H199.491V75.7484H195.851Z"/>
<path d="M232.671 65.4444V62.1404H221.135V58.8924H229.675V55.6724H221.135V52.2844H217.579V62.1404H207.331V65.4444H217.579V78.4084H221.135V69.9244C223.935 70.9044 227.407 72.2484 229.227 73.2284L230.991 70.2044C228.835 69.1404 224.579 67.7124 221.779 66.8724L221.135 67.9084V65.4444H232.671Z"/>
<path d="M251.487 74.8804C248.743 74.8804 248.351 74.5724 248.351 72.4724V64.0724L252.663 62.7004V72.1364H255.967V61.6644L260.979 60.0684C260.923 63.4284 260.811 65.5004 260.531 66.4524C260.195 67.4324 259.831 67.6564 259.243 67.6564C258.739 67.6564 257.675 67.6564 256.891 67.5724C257.255 68.3284 257.591 69.8404 257.647 70.6244C258.711 70.6804 260.195 70.5964 261.175 70.3444C262.183 70.0644 262.967 69.3924 263.471 67.8804C264.031 66.2844 264.199 62.9804 264.283 57.7444L264.423 57.1284L262.071 56.1204L261.427 56.5684L261.063 56.8204L255.967 58.3884V52.3404H252.663V59.4524L248.351 60.7964V54.2444H245.075V61.8324L240.287 63.3444L241.155 66.3404L245.075 65.1084V72.4724C245.075 76.7844 246.531 77.8764 251.459 77.8764H260.195C264.731 77.8764 265.851 76.3924 266.411 71.7444C265.515 71.5484 264.115 70.9884 263.303 70.4844C262.911 74.1524 262.491 74.8804 259.971 74.8804H251.487Z"/>
<path d="M296.427 64.8564C299.003 64.8564 299.871 63.8204 300.235 60.2364C299.339 60.0404 297.967 59.5084 297.295 59.0044C297.183 61.4404 296.987 61.8604 296.091 61.8604H293.039C291.975 61.8604 291.807 61.7484 291.807 60.7404V59.0884C294.243 58.3604 296.847 57.4644 298.975 56.4564L296.847 54.0484C295.531 54.7764 293.683 55.6444 291.807 56.3724V52.3684H288.503V60.7964C288.503 63.8764 289.287 64.8564 292.563 64.8564H296.427ZM278.815 70.6524V69.0004H283.015V70.6524H278.815ZM283.015 65.0804V66.5364H278.815V65.0804H283.015ZM286.291 62.3364H275.735V78.4084H278.815V73.1164H283.015V74.9924C283.015 75.3284 282.903 75.4124 282.567 75.4124C282.203 75.4404 281.083 75.4684 280.103 75.4124C280.495 76.1964 280.999 77.4844 281.167 78.3524C282.847 78.3524 284.135 78.3244 285.087 77.7924C286.011 77.3164 286.291 76.5044 286.291 75.0484V62.3364ZM282.091 55.1964C282.539 55.9244 282.987 56.7084 283.407 57.4924L279.683 57.6604C280.383 56.1764 281.139 54.4964 281.783 52.8724L278.311 52.1724C277.835 53.8804 277.051 56.0364 276.267 57.8004C275.483 57.8284 274.755 57.8564 274.083 57.8564L274.363 61.0204C277.219 60.8524 281.027 60.6284 284.723 60.3764C284.947 60.9084 285.115 61.4124 285.227 61.8604L288.279 60.6284C287.747 58.8084 286.263 56.1484 284.891 54.1604L282.091 55.1964ZM293.067 75.3284C291.975 75.3284 291.779 75.1884 291.779 74.2084V71.9684C294.327 71.1844 297.099 70.1764 299.255 69.0004L297.043 66.5644C295.699 67.4604 293.767 68.3844 291.779 69.1964V65.4164H288.503V74.2084C288.503 77.2884 289.315 78.2404 292.591 78.2404H296.567C299.255 78.2404 300.095 77.1484 300.459 73.2004C299.591 72.9764 298.247 72.4724 297.547 71.9684C297.407 74.7964 297.211 75.3284 296.259 75.3284H293.067Z"/>
<path d="M312.275 64.2404C312.275 63.7924 312.275 63.3724 312.275 62.9524V61.8884H315.999V64.2404H312.275ZM319.695 56.7084V58.9484H312.275V56.7084H319.695ZM322.999 64.2404H318.771V61.8884H322.803V53.7404H309.307V62.9524C309.307 66.8724 309.167 72.3044 307.375 76.0564C308.047 76.3924 309.335 77.3164 309.839 77.9044C311.239 75.1604 311.855 71.3244 312.107 67.7964V75.4964H314.515V66.9844H315.999V78.3804H318.771V66.9844H320.367V72.5284C320.367 72.7524 320.311 72.8364 320.087 72.8364C319.919 72.8364 319.415 72.8364 318.855 72.8084C319.219 73.5364 319.555 74.6284 319.639 75.4124C320.759 75.4124 321.571 75.3564 322.187 74.9084C322.859 74.4604 322.999 73.7044 322.999 72.5844V64.2404ZM327.395 55.0004H324.287V71.2124H327.395V55.0004ZM329.747 52.8164V74.4884C329.747 74.9364 329.579 75.0484 329.131 75.0764C328.655 75.0764 327.199 75.0764 325.743 75.0204C326.163 76.0004 326.639 77.4564 326.751 78.3804C328.907 78.3804 330.531 78.2684 331.567 77.7364C332.575 77.2044 332.939 76.2804 332.939 74.4884V52.8164H329.747Z"/>
<path d="M367.071 65.4444V62.1404H355.535V58.8924H364.075V55.6724H355.535V52.2844H351.979V62.1404H341.731V65.4444H351.979V78.4084H355.535V69.9244C358.335 70.9044 361.807 72.2484 363.627 73.2284L365.391 70.2044C363.235 69.1404 358.979 67.7124 356.179 66.8724L355.535 67.9084V65.4444H367.071Z"/>
<path d="M401.147 57.9964C400.755 56.7084 399.747 54.7204 398.851 53.2364L396.359 54.2164C397.255 55.7564 398.179 57.8284 398.515 59.1164L401.147 57.9964ZM380.175 56.7924V69.1684H378.467V56.7924H380.175ZM382.863 54.1604H375.723V74.1804H378.467V71.8284H382.863V54.1604ZM389.639 60.3204V56.2884C390.815 55.9244 391.907 55.5044 392.915 55.0844C392.915 56.8484 392.943 58.5844 392.999 60.3204H389.639ZM397.759 64.1564C397.395 65.3884 396.919 66.5924 396.359 67.7124C396.219 66.3684 396.107 64.8844 396.023 63.3164H401.007V60.3204H395.911C395.827 57.8284 395.799 55.1964 395.855 52.5644H392.887L392.915 54.9164L390.703 52.7324C388.939 53.6844 385.999 54.7484 383.367 55.4204C383.703 56.0364 384.123 57.0724 384.235 57.7444C385.019 57.5764 385.803 57.3804 386.643 57.1564V60.3204H383.367V63.3164H386.643V67.1524C385.383 67.3764 384.179 67.6004 383.227 67.7404L383.815 70.8204C384.683 70.6244 385.663 70.4284 386.643 70.2044V74.7964C386.643 75.2164 386.531 75.3564 386.111 75.3564C385.719 75.3564 384.431 75.3564 383.171 75.3004C383.619 76.1684 384.039 77.5684 384.151 78.4364C386.055 78.4364 387.483 78.3524 388.379 77.8204C389.359 77.3164 389.639 76.4484 389.639 74.8244V69.5324C390.647 69.2804 391.655 69.0564 392.663 68.8044L392.411 66.0044L389.639 66.5644V63.3164H393.139C393.307 66.3964 393.559 69.2524 394.007 71.6044C392.747 73.2284 391.319 74.6004 389.695 75.6924C390.255 76.2524 391.235 77.4564 391.599 78.1004C392.747 77.2044 393.839 76.1964 394.847 75.0204C395.603 77.1764 396.667 78.4644 398.095 78.4644C400.111 78.4644 400.867 77.3444 401.287 73.5924C400.615 73.2564 399.747 72.6124 399.159 71.8564C399.103 74.3484 398.879 75.3844 398.487 75.3844C397.899 75.3844 397.423 74.2084 397.003 72.2204C398.431 70.0364 399.635 67.5444 400.503 64.8284L397.759 64.1564Z"/>
<path d="M420.131 68.8044H422.987L423.743 59.2284L423.883 55.0564H419.235L419.375 59.2284L420.131 68.8044ZM421.559 76.2524C422.959 76.2524 424.023 75.2444 424.023 73.7884C424.023 72.3044 422.959 71.2964 421.559 71.2964C420.159 71.2964 419.095 72.3044 419.095 73.7884C419.095 75.2444 420.131 76.2524 421.559 76.2524Z"/>
</mask>
<path d="M17.5753 64.5484H25.5833V66.0044H17.5753V64.5484ZM26.9833 67.8524C26.3113 68.4124 25.6113 68.9724 24.9673 69.3924C24.2393 68.9444 23.5953 68.4124 23.0633 67.8524H26.9833ZM22.8953 74.3484V71.0164C24.6313 72.4164 26.7593 73.4524 29.2233 74.0404C29.6153 73.2564 30.4273 72.1084 31.0433 71.5484C29.6713 71.3244 28.3553 70.9604 27.1793 70.5124C28.2433 69.8684 29.4193 69.0844 30.5673 68.3004L28.8873 67.1524V62.7004H14.4953V67.8524H18.7793C17.0433 69.2244 14.7193 70.3444 12.4233 71.1004C13.0113 71.6884 13.9633 72.8924 14.3273 73.5364C16.1473 72.7804 18.0513 71.7724 19.7313 70.5404V74.3484H22.8953ZM12.2833 61.8324H31.0153V59.5364H12.2833V61.8324ZM26.7873 56.8204H24.9953V54.8884H26.7873V56.8204ZM22.5033 56.8204H20.7113V54.8884H22.5033V56.8204ZM18.1913 56.8204H16.4833V54.8884H18.1913V56.8204ZM29.7553 53.0124H13.6833V58.6684H29.7553V53.0124ZM12.5633 57.4364C11.6673 56.0924 9.73526 54.2444 8.16726 52.9844L5.61926 54.8884C7.18726 56.2324 9.03526 58.1644 9.81926 59.5364L12.5633 57.4364ZM11.8073 63.1484H5.50726V66.2004H8.64327V72.3044C7.52326 73.2564 6.26326 74.1804 5.17126 74.8804L6.73926 78.1844C8.16726 76.9804 9.31526 75.9164 10.4353 74.8244C12.1153 76.9804 14.3553 77.7924 17.6873 77.9324C21.1033 78.0724 27.0393 78.0164 30.5113 77.8484C30.6793 76.9244 31.1553 75.3844 31.5473 74.6004C27.6833 74.9084 21.0753 74.9924 17.7153 74.8524C14.8593 74.7404 12.8993 73.9564 11.8073 72.0804V63.1484Z" fill="white"/>
<path d="M60.0233 57.7164C59.8553 59.8444 59.6033 60.8524 59.2673 61.1884C58.9873 61.4124 58.7353 61.4684 58.2873 61.4684C57.7273 61.4684 56.4673 61.4404 55.2073 61.3004C55.7673 62.1684 56.1313 63.4284 56.1873 64.3804C57.6713 64.4084 59.0153 64.4084 59.8273 64.3244C60.7793 64.2124 61.4793 63.9884 62.0673 63.3164C62.8233 62.4764 63.1873 60.4604 63.4673 55.9524C63.5233 55.5044 63.5513 54.7204 63.5513 54.7204H54.4233C54.5633 54.0484 54.6753 53.3764 54.7873 52.6764L51.3433 52.2844C50.7833 56.9044 49.3273 60.7684 46.4713 63.0084C47.2833 63.4564 48.7673 64.5484 49.3553 65.1084C51.2873 63.3164 52.7153 60.7684 53.6673 57.7164H60.0233ZM47.5633 55.2804C46.4153 54.3004 44.0913 53.0684 42.2993 52.3964L40.4793 54.8604C42.2713 55.6444 44.5673 56.9884 45.6033 57.9964L47.5633 55.2804ZM45.8833 62.7004C44.7353 61.7484 42.3553 60.5724 40.5913 59.9004L38.8553 62.3924C40.6473 63.1764 42.9433 64.4644 44.0353 65.4444L45.8833 62.7004ZM44.8473 67.0964C43.2233 70.3164 41.2073 73.7884 39.7793 75.8884L42.6353 78.0724C44.2593 75.3844 45.9393 72.1924 47.3393 69.2524L44.8473 67.0964ZM59.0433 68.2164C58.2873 69.4764 57.3353 70.5684 56.1593 71.4924C54.9553 70.5124 53.9193 69.4204 53.1633 68.2164H59.0433ZM61.4233 65.1364L60.8353 65.2484H48.4033V68.2164H52.1833L50.0273 68.9444C50.9513 70.5684 52.0713 71.9964 53.3873 73.2564C51.3433 74.2924 48.9353 74.9924 46.3313 75.4124C46.9473 76.1404 47.6753 77.5124 47.9833 78.4084C51.0353 77.7644 53.7793 76.8404 56.1593 75.4404C58.1753 76.7564 60.4993 77.7364 63.1593 78.3804C63.6353 77.4564 64.5873 76.0844 65.3433 75.3844C63.0193 74.9364 60.9193 74.2364 59.0713 73.3124C61.0873 71.4644 62.6553 69.0844 63.6353 66.0324L61.4233 65.1364Z" fill="white"/>
<path d="M82.7033 64.4084C83.3753 65.0244 84.1313 65.7804 84.4673 66.2004C85.0833 65.5004 85.6433 64.7164 86.2033 63.8484C86.9313 66.4804 87.8553 68.8604 89.0313 70.9324C87.3793 72.8084 85.3073 74.2924 82.7033 75.4124V64.4084ZM93.7353 60.4324C93.1473 63.3164 92.3073 65.7804 91.1313 67.9084C89.9553 65.6964 89.1153 63.1484 88.4993 60.4324H93.7353ZM98.7473 60.4324V57.2684H89.1993C89.6753 55.8684 90.0673 54.4124 90.4033 52.9284L86.9873 52.2844C86.2033 56.2324 84.7473 60.0684 82.7033 62.7284V52.4524H79.4553V68.1044L77.2153 68.6364V55.5324H74.0233V69.3924C73.3793 69.5324 72.8193 69.6444 72.2873 69.7564L73.4353 73.1444C75.2273 72.6124 77.3273 71.9404 79.4553 71.2684V78.4084H82.7033V75.6084C83.3193 76.3924 84.2153 77.7924 84.4673 78.5204C87.0713 77.2604 89.2273 75.6924 90.9633 73.7884C92.5313 75.7204 94.4353 77.2884 96.7593 78.4364C97.2633 77.5404 98.2993 76.1964 99.0553 75.5244C96.6473 74.4884 94.7153 72.9484 93.1473 70.9884C94.9953 68.1044 96.2833 64.6044 97.1513 60.4324H98.7473Z" fill="white"/>
<path d="M115.155 73.4804V70.2604H119.719V67.2924H115.155V64.5764H111.851V67.2924H107.203V70.2604H111.851V73.8724C109.695 74.1244 107.707 74.3204 106.083 74.4884L106.615 77.7924C110.395 77.2884 115.743 76.6444 120.727 75.9444L120.615 72.8364L115.155 73.4804ZM114.903 58.8084C115.407 59.4524 115.939 60.1804 116.443 60.9364C114.959 60.9924 113.475 61.0484 112.075 61.0764C112.663 59.7884 113.251 58.3604 113.783 56.9884H120.587V54.0484H106.391V56.9884H110.059C109.723 58.3324 109.247 59.8444 108.771 61.1604L106.335 61.2164L106.531 64.3244C109.639 64.1844 113.951 63.9884 118.095 63.7644C118.375 64.2964 118.599 64.7724 118.767 65.2204L121.399 63.7084C120.699 61.9724 118.907 59.3964 117.367 57.5204L114.903 58.8084ZM124.815 55.6724H121.623V71.4364H124.815V55.6724ZM127.979 53.0684V74.4604C127.979 74.9364 127.811 75.0764 127.307 75.1044C126.747 75.1044 125.039 75.1044 123.359 75.0204C123.835 76.0004 124.311 77.4844 124.451 78.4364C126.831 78.4364 128.651 78.3244 129.743 77.7924C130.863 77.2884 131.255 76.3364 131.255 74.4604V53.0684H127.979Z" fill="white"/>
<path d="M143.855 56.5964H161.579V58.8924H164.687V53.9924H154.411V52.2844H151.079V53.9924H140.859V58.8924H143.855V56.5964ZM146.795 71.8564H158.751V72.6964H146.795V71.8564ZM146.795 69.3364H158.751V70.1764H146.795V69.3364ZM146.795 66.8724H158.751V67.6844H146.795V66.8724ZM162.139 74.4604V65.1364H143.575V74.4604H147.607C145.619 75.2164 142.651 75.9164 140.131 76.2804C140.775 76.8404 141.671 77.8204 142.119 78.4364C145.423 77.9324 149.315 76.8684 151.583 75.5804L149.931 74.4604H155.391L153.935 75.6644C157.127 76.5884 160.375 77.6804 162.251 78.4364L165.135 76.5884C163.399 76.0004 160.823 75.1884 158.247 74.4604H162.139ZM153.627 62.6444L153.739 61.7764H157.519L157.435 62.6444H153.627ZM147.439 61.7764H150.967L150.855 62.6444H147.327L147.439 61.7764ZM151.275 59.1724L151.191 60.0404H147.663L147.775 59.1724H151.275ZM157.659 60.0404H153.935L154.019 59.1724H157.743L157.659 60.0404ZM160.739 59.7324L160.963 57.4924H145.059L144.779 59.7324H140.383V62.0844H144.471L144.191 64.3244H160.319L160.543 62.0844H165.191V59.7324H160.739Z" fill="white"/>
<path d="M196.075 57.9404H194.843V56.7364H196.075V57.9404ZM196.075 61.1884H194.843V59.9564H196.075V61.1884ZM188.851 59.9564H190.055V61.1884H188.851V59.9564ZM188.851 56.7364H190.055V57.9404H188.851V56.7364ZM193.051 59.9564V61.1884H191.847V59.9564H193.051ZM191.847 57.9404V56.7364H193.051V57.9404H191.847ZM198.651 54.6364H195.403V52.3124H193.051V54.6364H191.847V52.3124H189.523V54.6364H186.415V63.3164H198.651V54.6364ZM183.363 64.4924H176.167V63.3724H183.363V64.4924ZM178.239 71.4364V70.1484H181.235V71.4364H178.239ZM181.235 67.9644H178.239V66.7324H181.235V67.9644ZM177.763 55.5044H181.683V56.6524H178.743V61.1044H177.763V55.5044ZM180.507 61.1044V58.5284H181.683V61.1044H180.507ZM185.827 65.4724V66.4804H199.183V64.2684H185.855V61.1044H184.175V53.1524H175.383V61.1044H173.787V65.4724H175.439V78.4364H178.239V73.6764H181.235V75.6084C181.235 75.8324 181.179 75.9164 180.927 75.9444C180.675 75.9444 180.031 75.9444 179.387 75.9164C179.695 76.6164 180.031 77.6804 180.143 78.4364C181.459 78.4364 182.411 78.4084 183.139 77.9604C183.895 77.5404 184.063 76.8404 184.063 75.6364V65.4724H185.827ZM194.479 72.8364C194.227 73.7324 193.751 74.8804 193.359 75.7484H191.455C191.259 74.9084 190.755 73.7324 190.195 72.8364H194.479ZM189.495 69.3364H195.459V70.8764H189.495V69.3364ZM195.851 75.7484C196.299 74.9924 196.803 74.1244 197.307 73.2284L195.627 72.8364H198.259V67.3764H186.807V72.8364H189.495L187.787 73.4524C188.207 74.1244 188.571 74.9924 188.823 75.7484H185.239V78.1004H199.491V75.7484H195.851Z" fill="white"/>
<path d="M232.671 65.4444V62.1404H221.135V58.8924H229.675V55.6724H221.135V52.2844H217.579V62.1404H207.331V65.4444H217.579V78.4084H221.135V69.9244C223.935 70.9044 227.407 72.2484 229.227 73.2284L230.991 70.2044C228.835 69.1404 224.579 67.7124 221.779 66.8724L221.135 67.9084V65.4444H232.671Z" fill="white"/>
<path d="M251.487 74.8804C248.743 74.8804 248.351 74.5724 248.351 72.4724V64.0724L252.663 62.7004V72.1364H255.967V61.6644L260.979 60.0684C260.923 63.4284 260.811 65.5004 260.531 66.4524C260.195 67.4324 259.831 67.6564 259.243 67.6564C258.739 67.6564 257.675 67.6564 256.891 67.5724C257.255 68.3284 257.591 69.8404 257.647 70.6244C258.711 70.6804 260.195 70.5964 261.175 70.3444C262.183 70.0644 262.967 69.3924 263.471 67.8804C264.031 66.2844 264.199 62.9804 264.283 57.7444L264.423 57.1284L262.071 56.1204L261.427 56.5684L261.063 56.8204L255.967 58.3884V52.3404H252.663V59.4524L248.351 60.7964V54.2444H245.075V61.8324L240.287 63.3444L241.155 66.3404L245.075 65.1084V72.4724C245.075 76.7844 246.531 77.8764 251.459 77.8764H260.195C264.731 77.8764 265.851 76.3924 266.411 71.7444C265.515 71.5484 264.115 70.9884 263.303 70.4844C262.911 74.1524 262.491 74.8804 259.971 74.8804H251.487Z" fill="white"/>
<path d="M296.427 64.8564C299.003 64.8564 299.871 63.8204 300.235 60.2364C299.339 60.0404 297.967 59.5084 297.295 59.0044C297.183 61.4404 296.987 61.8604 296.091 61.8604H293.039C291.975 61.8604 291.807 61.7484 291.807 60.7404V59.0884C294.243 58.3604 296.847 57.4644 298.975 56.4564L296.847 54.0484C295.531 54.7764 293.683 55.6444 291.807 56.3724V52.3684H288.503V60.7964C288.503 63.8764 289.287 64.8564 292.563 64.8564H296.427ZM278.815 70.6524V69.0004H283.015V70.6524H278.815ZM283.015 65.0804V66.5364H278.815V65.0804H283.015ZM286.291 62.3364H275.735V78.4084H278.815V73.1164H283.015V74.9924C283.015 75.3284 282.903 75.4124 282.567 75.4124C282.203 75.4404 281.083 75.4684 280.103 75.4124C280.495 76.1964 280.999 77.4844 281.167 78.3524C282.847 78.3524 284.135 78.3244 285.087 77.7924C286.011 77.3164 286.291 76.5044 286.291 75.0484V62.3364ZM282.091 55.1964C282.539 55.9244 282.987 56.7084 283.407 57.4924L279.683 57.6604C280.383 56.1764 281.139 54.4964 281.783 52.8724L278.311 52.1724C277.835 53.8804 277.051 56.0364 276.267 57.8004C275.483 57.8284 274.755 57.8564 274.083 57.8564L274.363 61.0204C277.219 60.8524 281.027 60.6284 284.723 60.3764C284.947 60.9084 285.115 61.4124 285.227 61.8604L288.279 60.6284C287.747 58.8084 286.263 56.1484 284.891 54.1604L282.091 55.1964ZM293.067 75.3284C291.975 75.3284 291.779 75.1884 291.779 74.2084V71.9684C294.327 71.1844 297.099 70.1764 299.255 69.0004L297.043 66.5644C295.699 67.4604 293.767 68.3844 291.779 69.1964V65.4164H288.503V74.2084C288.503 77.2884 289.315 78.2404 292.591 78.2404H296.567C299.255 78.2404 300.095 77.1484 300.459 73.2004C299.591 72.9764 298.247 72.4724 297.547 71.9684C297.407 74.7964 297.211 75.3284 296.259 75.3284H293.067Z" fill="white"/>
<path d="M312.275 64.2404C312.275 63.7924 312.275 63.3724 312.275 62.9524V61.8884H315.999V64.2404H312.275ZM319.695 56.7084V58.9484H312.275V56.7084H319.695ZM322.999 64.2404H318.771V61.8884H322.803V53.7404H309.307V62.9524C309.307 66.8724 309.167 72.3044 307.375 76.0564C308.047 76.3924 309.335 77.3164 309.839 77.9044C311.239 75.1604 311.855 71.3244 312.107 67.7964V75.4964H314.515V66.9844H315.999V78.3804H318.771V66.9844H320.367V72.5284C320.367 72.7524 320.311 72.8364 320.087 72.8364C319.919 72.8364 319.415 72.8364 318.855 72.8084C319.219 73.5364 319.555 74.6284 319.639 75.4124C320.759 75.4124 321.571 75.3564 322.187 74.9084C322.859 74.4604 322.999 73.7044 322.999 72.5844V64.2404ZM327.395 55.0004H324.287V71.2124H327.395V55.0004ZM329.747 52.8164V74.4884C329.747 74.9364 329.579 75.0484 329.131 75.0764C328.655 75.0764 327.199 75.0764 325.743 75.0204C326.163 76.0004 326.639 77.4564 326.751 78.3804C328.907 78.3804 330.531 78.2684 331.567 77.7364C332.575 77.2044 332.939 76.2804 332.939 74.4884V52.8164H329.747Z" fill="white"/>
<path d="M367.071 65.4444V62.1404H355.535V58.8924H364.075V55.6724H355.535V52.2844H351.979V62.1404H341.731V65.4444H351.979V78.4084H355.535V69.9244C358.335 70.9044 361.807 72.2484 363.627 73.2284L365.391 70.2044C363.235 69.1404 358.979 67.7124 356.179 66.8724L355.535 67.9084V65.4444H367.071Z" fill="white"/>
<path d="M401.147 57.9964C400.755 56.7084 399.747 54.7204 398.851 53.2364L396.359 54.2164C397.255 55.7564 398.179 57.8284 398.515 59.1164L401.147 57.9964ZM380.175 56.7924V69.1684H378.467V56.7924H380.175ZM382.863 54.1604H375.723V74.1804H378.467V71.8284H382.863V54.1604ZM389.639 60.3204V56.2884C390.815 55.9244 391.907 55.5044 392.915 55.0844C392.915 56.8484 392.943 58.5844 392.999 60.3204H389.639ZM397.759 64.1564C397.395 65.3884 396.919 66.5924 396.359 67.7124C396.219 66.3684 396.107 64.8844 396.023 63.3164H401.007V60.3204H395.911C395.827 57.8284 395.799 55.1964 395.855 52.5644H392.887L392.915 54.9164L390.703 52.7324C388.939 53.6844 385.999 54.7484 383.367 55.4204C383.703 56.0364 384.123 57.0724 384.235 57.7444C385.019 57.5764 385.803 57.3804 386.643 57.1564V60.3204H383.367V63.3164H386.643V67.1524C385.383 67.3764 384.179 67.6004 383.227 67.7404L383.815 70.8204C384.683 70.6244 385.663 70.4284 386.643 70.2044V74.7964C386.643 75.2164 386.531 75.3564 386.111 75.3564C385.719 75.3564 384.431 75.3564 383.171 75.3004C383.619 76.1684 384.039 77.5684 384.151 78.4364C386.055 78.4364 387.483 78.3524 388.379 77.8204C389.359 77.3164 389.639 76.4484 389.639 74.8244V69.5324C390.647 69.2804 391.655 69.0564 392.663 68.8044L392.411 66.0044L389.639 66.5644V63.3164H393.139C393.307 66.3964 393.559 69.2524 394.007 71.6044C392.747 73.2284 391.319 74.6004 389.695 75.6924C390.255 76.2524 391.235 77.4564 391.599 78.1004C392.747 77.2044 393.839 76.1964 394.847 75.0204C395.603 77.1764 396.667 78.4644 398.095 78.4644C400.111 78.4644 400.867 77.3444 401.287 73.5924C400.615 73.2564 399.747 72.6124 399.159 71.8564C399.103 74.3484 398.879 75.3844 398.487 75.3844C397.899 75.3844 397.423 74.2084 397.003 72.2204C398.431 70.0364 399.635 67.5444 400.503 64.8284L397.759 64.1564Z" fill="white"/>
<path d="M420.131 68.8044H422.987L423.743 59.2284L423.883 55.0564H419.235L419.375 59.2284L420.131 68.8044ZM421.559 76.2524C422.959 76.2524 424.023 75.2444 424.023 73.7884C424.023 72.3044 422.959 71.2964 421.559 71.2964C420.159 71.2964 419.095 72.3044 419.095 73.7884C419.095 75.2444 420.131 76.2524 421.559 76.2524Z" fill="white"/>
<path d="M17.5753 64.5484H25.5833V66.0044H17.5753V64.5484ZM26.9833 67.8524C26.3113 68.4124 25.6113 68.9724 24.9673 69.3924C24.2393 68.9444 23.5953 68.4124 23.0633 67.8524H26.9833ZM22.8953 74.3484V71.0164C24.6313 72.4164 26.7593 73.4524 29.2233 74.0404C29.6153 73.2564 30.4273 72.1084 31.0433 71.5484C29.6713 71.3244 28.3553 70.9604 27.1793 70.5124C28.2433 69.8684 29.4193 69.0844 30.5673 68.3004L28.8873 67.1524V62.7004H14.4953V67.8524H18.7793C17.0433 69.2244 14.7193 70.3444 12.4233 71.1004C13.0113 71.6884 13.9633 72.8924 14.3273 73.5364C16.1473 72.7804 18.0513 71.7724 19.7313 70.5404V74.3484H22.8953ZM12.2833 61.8324H31.0153V59.5364H12.2833V61.8324ZM26.7873 56.8204H24.9953V54.8884H26.7873V56.8204ZM22.5033 56.8204H20.7113V54.8884H22.5033V56.8204ZM18.1913 56.8204H16.4833V54.8884H18.1913V56.8204ZM29.7553 53.0124H13.6833V58.6684H29.7553V53.0124ZM12.5633 57.4364C11.6673 56.0924 9.73526 54.2444 8.16726 52.9844L5.61926 54.8884C7.18726 56.2324 9.03526 58.1644 9.81926 59.5364L12.5633 57.4364ZM11.8073 63.1484H5.50726V66.2004H8.64327V72.3044C7.52326 73.2564 6.26326 74.1804 5.17126 74.8804L6.73926 78.1844C8.16726 76.9804 9.31526 75.9164 10.4353 74.8244C12.1153 76.9804 14.3553 77.7924 17.6873 77.9324C21.1033 78.0724 27.0393 78.0164 30.5113 77.8484C30.6793 76.9244 31.1553 75.3844 31.5473 74.6004C27.6833 74.9084 21.0753 74.9924 17.7153 74.8524C14.8593 74.7404 12.8993 73.9564 11.8073 72.0804V63.1484Z" stroke="#266DD7" stroke-width="10" stroke-linecap="round" stroke-linejoin="round" mask="url(#path-1-outside-1)"/>
<path d="M60.0233 57.7164C59.8553 59.8444 59.6033 60.8524 59.2673 61.1884C58.9873 61.4124 58.7353 61.4684 58.2873 61.4684C57.7273 61.4684 56.4673 61.4404 55.2073 61.3004C55.7673 62.1684 56.1313 63.4284 56.1873 64.3804C57.6713 64.4084 59.0153 64.4084 59.8273 64.3244C60.7793 64.2124 61.4793 63.9884 62.0673 63.3164C62.8233 62.4764 63.1873 60.4604 63.4673 55.9524C63.5233 55.5044 63.5513 54.7204 63.5513 54.7204H54.4233C54.5633 54.0484 54.6753 53.3764 54.7873 52.6764L51.3433 52.2844C50.7833 56.9044 49.3273 60.7684 46.4713 63.0084C47.2833 63.4564 48.7673 64.5484 49.3553 65.1084C51.2873 63.3164 52.7153 60.7684 53.6673 57.7164H60.0233ZM47.5633 55.2804C46.4153 54.3004 44.0913 53.0684 42.2993 52.3964L40.4793 54.8604C42.2713 55.6444 44.5673 56.9884 45.6033 57.9964L47.5633 55.2804ZM45.8833 62.7004C44.7353 61.7484 42.3553 60.5724 40.5913 59.9004L38.8553 62.3924C40.6473 63.1764 42.9433 64.4644 44.0353 65.4444L45.8833 62.7004ZM44.8473 67.0964C43.2233 70.3164 41.2073 73.7884 39.7793 75.8884L42.6353 78.0724C44.2593 75.3844 45.9393 72.1924 47.3393 69.2524L44.8473 67.0964ZM59.0433 68.2164C58.2873 69.4764 57.3353 70.5684 56.1593 71.4924C54.9553 70.5124 53.9193 69.4204 53.1633 68.2164H59.0433ZM61.4233 65.1364L60.8353 65.2484H48.4033V68.2164H52.1833L50.0273 68.9444C50.9513 70.5684 52.0713 71.9964 53.3873 73.2564C51.3433 74.2924 48.9353 74.9924 46.3313 75.4124C46.9473 76.1404 47.6753 77.5124 47.9833 78.4084C51.0353 77.7644 53.7793 76.8404 56.1593 75.4404C58.1753 76.7564 60.4993 77.7364 63.1593 78.3804C63.6353 77.4564 64.5873 76.0844 65.3433 75.3844C63.0193 74.9364 60.9193 74.2364 59.0713 73.3124C61.0873 71.4644 62.6553 69.0844 63.6353 66.0324L61.4233 65.1364Z" stroke="#266DD7" stroke-width="10" stroke-linecap="round" stroke-linejoin="round" mask="url(#path-1-outside-1)"/>
<path d="M82.7033 64.4084C83.3753 65.0244 84.1313 65.7804 84.4673 66.2004C85.0833 65.5004 85.6433 64.7164 86.2033 63.8484C86.9313 66.4804 87.8553 68.8604 89.0313 70.9324C87.3793 72.8084 85.3073 74.2924 82.7033 75.4124V64.4084ZM93.7353 60.4324C93.1473 63.3164 92.3073 65.7804 91.1313 67.9084C89.9553 65.6964 89.1153 63.1484 88.4993 60.4324H93.7353ZM98.7473 60.4324V57.2684H89.1993C89.6753 55.8684 90.0673 54.4124 90.4033 52.9284L86.9873 52.2844C86.2033 56.2324 84.7473 60.0684 82.7033 62.7284V52.4524H79.4553V68.1044L77.2153 68.6364V55.5324H74.0233V69.3924C73.3793 69.5324 72.8193 69.6444 72.2873 69.7564L73.4353 73.1444C75.2273 72.6124 77.3273 71.9404 79.4553 71.2684V78.4084H82.7033V75.6084C83.3193 76.3924 84.2153 77.7924 84.4673 78.5204C87.0713 77.2604 89.2273 75.6924 90.9633 73.7884C92.5313 75.7204 94.4353 77.2884 96.7593 78.4364C97.2633 77.5404 98.2993 76.1964 99.0553 75.5244C96.6473 74.4884 94.7153 72.9484 93.1473 70.9884C94.9953 68.1044 96.2833 64.6044 97.1513 60.4324H98.7473Z" stroke="#266DD7" stroke-width="10" stroke-linecap="round" stroke-linejoin="round" mask="url(#path-1-outside-1)"/>
<path d="M115.155 73.4804V70.2604H119.719V67.2924H115.155V64.5764H111.851V67.2924H107.203V70.2604H111.851V73.8724C109.695 74.1244 107.707 74.3204 106.083 74.4884L106.615 77.7924C110.395 77.2884 115.743 76.6444 120.727 75.9444L120.615 72.8364L115.155 73.4804ZM114.903 58.8084C115.407 59.4524 115.939 60.1804 116.443 60.9364C114.959 60.9924 113.475 61.0484 112.075 61.0764C112.663 59.7884 113.251 58.3604 113.783 56.9884H120.587V54.0484H106.391V56.9884H110.059C109.723 58.3324 109.247 59.8444 108.771 61.1604L106.335 61.2164L106.531 64.3244C109.639 64.1844 113.951 63.9884 118.095 63.7644C118.375 64.2964 118.599 64.7724 118.767 65.2204L121.399 63.7084C120.699 61.9724 118.907 59.3964 117.367 57.5204L114.903 58.8084ZM124.815 55.6724H121.623V71.4364H124.815V55.6724ZM127.979 53.0684V74.4604C127.979 74.9364 127.811 75.0764 127.307 75.1044C126.747 75.1044 125.039 75.1044 123.359 75.0204C123.835 76.0004 124.311 77.4844 124.451 78.4364C126.831 78.4364 128.651 78.3244 129.743 77.7924C130.863 77.2884 131.255 76.3364 131.255 74.4604V53.0684H127.979Z" stroke="#266DD7" stroke-width="10" stroke-linecap="round" stroke-linejoin="round" mask="url(#path-1-outside-1)"/>
<path d="M143.855 56.5964H161.579V58.8924H164.687V53.9924H154.411V52.2844H151.079V53.9924H140.859V58.8924H143.855V56.5964ZM146.795 71.8564H158.751V72.6964H146.795V71.8564ZM146.795 69.3364H158.751V70.1764H146.795V69.3364ZM146.795 66.8724H158.751V67.6844H146.795V66.8724ZM162.139 74.4604V65.1364H143.575V74.4604H147.607C145.619 75.2164 142.651 75.9164 140.131 76.2804C140.775 76.8404 141.671 77.8204 142.119 78.4364C145.423 77.9324 149.315 76.8684 151.583 75.5804L149.931 74.4604H155.391L153.935 75.6644C157.127 76.5884 160.375 77.6804 162.251 78.4364L165.135 76.5884C163.399 76.0004 160.823 75.1884 158.247 74.4604H162.139ZM153.627 62.6444L153.739 61.7764H157.519L157.435 62.6444H153.627ZM147.439 61.7764H150.967L150.855 62.6444H147.327L147.439 61.7764ZM151.275 59.1724L151.191 60.0404H147.663L147.775 59.1724H151.275ZM157.659 60.0404H153.935L154.019 59.1724H157.743L157.659 60.0404ZM160.739 59.7324L160.963 57.4924H145.059L144.779 59.7324H140.383V62.0844H144.471L144.191 64.3244H160.319L160.543 62.0844H165.191V59.7324H160.739Z" stroke="#266DD7" stroke-width="10" stroke-linecap="round" stroke-linejoin="round" mask="url(#path-1-outside-1)"/>
<path d="M196.075 57.9404H194.843V56.7364H196.075V57.9404ZM196.075 61.1884H194.843V59.9564H196.075V61.1884ZM188.851 59.9564H190.055V61.1884H188.851V59.9564ZM188.851 56.7364H190.055V57.9404H188.851V56.7364ZM193.051 59.9564V61.1884H191.847V59.9564H193.051ZM191.847 57.9404V56.7364H193.051V57.9404H191.847ZM198.651 54.6364H195.403V52.3124H193.051V54.6364H191.847V52.3124H189.523V54.6364H186.415V63.3164H198.651V54.6364ZM183.363 64.4924H176.167V63.3724H183.363V64.4924ZM178.239 71.4364V70.1484H181.235V71.4364H178.239ZM181.235 67.9644H178.239V66.7324H181.235V67.9644ZM177.763 55.5044H181.683V56.6524H178.743V61.1044H177.763V55.5044ZM180.507 61.1044V58.5284H181.683V61.1044H180.507ZM185.827 65.4724V66.4804H199.183V64.2684H185.855V61.1044H184.175V53.1524H175.383V61.1044H173.787V65.4724H175.439V78.4364H178.239V73.6764H181.235V75.6084C181.235 75.8324 181.179 75.9164 180.927 75.9444C180.675 75.9444 180.031 75.9444 179.387 75.9164C179.695 76.6164 180.031 77.6804 180.143 78.4364C181.459 78.4364 182.411 78.4084 183.139 77.9604C183.895 77.5404 184.063 76.8404 184.063 75.6364V65.4724H185.827ZM194.479 72.8364C194.227 73.7324 193.751 74.8804 193.359 75.7484H191.455C191.259 74.9084 190.755 73.7324 190.195 72.8364H194.479ZM189.495 69.3364H195.459V70.8764H189.495V69.3364ZM195.851 75.7484C196.299 74.9924 196.803 74.1244 197.307 73.2284L195.627 72.8364H198.259V67.3764H186.807V72.8364H189.495L187.787 73.4524C188.207 74.1244 188.571 74.9924 188.823 75.7484H185.239V78.1004H199.491V75.7484H195.851Z" stroke="#266DD7" stroke-width="10" stroke-linecap="round" stroke-linejoin="round" mask="url(#path-1-outside-1)"/>
<path d="M232.671 65.4444V62.1404H221.135V58.8924H229.675V55.6724H221.135V52.2844H217.579V62.1404H207.331V65.4444H217.579V78.4084H221.135V69.9244C223.935 70.9044 227.407 72.2484 229.227 73.2284L230.991 70.2044C228.835 69.1404 224.579 67.7124 221.779 66.8724L221.135 67.9084V65.4444H232.671Z" stroke="#266DD7" stroke-width="10" stroke-linecap="round" stroke-linejoin="round" mask="url(#path-1-outside-1)"/>
<path d="M251.487 74.8804C248.743 74.8804 248.351 74.5724 248.351 72.4724V64.0724L252.663 62.7004V72.1364H255.967V61.6644L260.979 60.0684C260.923 63.4284 260.811 65.5004 260.531 66.4524C260.195 67.4324 259.831 67.6564 259.243 67.6564C258.739 67.6564 257.675 67.6564 256.891 67.5724C257.255 68.3284 257.591 69.8404 257.647 70.6244C258.711 70.6804 260.195 70.5964 261.175 70.3444C262.183 70.0644 262.967 69.3924 263.471 67.8804C264.031 66.2844 264.199 62.9804 264.283 57.7444L264.423 57.1284L262.071 56.1204L261.427 56.5684L261.063 56.8204L255.967 58.3884V52.3404H252.663V59.4524L248.351 60.7964V54.2444H245.075V61.8324L240.287 63.3444L241.155 66.3404L245.075 65.1084V72.4724C245.075 76.7844 246.531 77.8764 251.459 77.8764H260.195C264.731 77.8764 265.851 76.3924 266.411 71.7444C265.515 71.5484 264.115 70.9884 263.303 70.4844C262.911 74.1524 262.491 74.8804 259.971 74.8804H251.487Z" stroke="#266DD7" stroke-width="10" stroke-linecap="round" stroke-linejoin="round" mask="url(#path-1-outside-1)"/>
<path d="M296.427 64.8564C299.003 64.8564 299.871 63.8204 300.235 60.2364C299.339 60.0404 297.967 59.5084 297.295 59.0044C297.183 61.4404 296.987 61.8604 296.091 61.8604H293.039C291.975 61.8604 291.807 61.7484 291.807 60.7404V59.0884C294.243 58.3604 296.847 57.4644 298.975 56.4564L296.847 54.0484C295.531 54.7764 293.683 55.6444 291.807 56.3724V52.3684H288.503V60.7964C288.503 63.8764 289.287 64.8564 292.563 64.8564H296.427ZM278.815 70.6524V69.0004H283.015V70.6524H278.815ZM283.015 65.0804V66.5364H278.815V65.0804H283.015ZM286.291 62.3364H275.735V78.4084H278.815V73.1164H283.015V74.9924C283.015 75.3284 282.903 75.4124 282.567 75.4124C282.203 75.4404 281.083 75.4684 280.103 75.4124C280.495 76.1964 280.999 77.4844 281.167 78.3524C282.847 78.3524 284.135 78.3244 285.087 77.7924C286.011 77.3164 286.291 76.5044 286.291 75.0484V62.3364ZM282.091 55.1964C282.539 55.9244 282.987 56.7084 283.407 57.4924L279.683 57.6604C280.383 56.1764 281.139 54.4964 281.783 52.8724L278.311 52.1724C277.835 53.8804 277.051 56.0364 276.267 57.8004C275.483 57.8284 274.755 57.8564 274.083 57.8564L274.363 61.0204C277.219 60.8524 281.027 60.6284 284.723 60.3764C284.947 60.9084 285.115 61.4124 285.227 61.8604L288.279 60.6284C287.747 58.8084 286.263 56.1484 284.891 54.1604L282.091 55.1964ZM293.067 75.3284C291.975 75.3284 291.779 75.1884 291.779 74.2084V71.9684C294.327 71.1844 297.099 70.1764 299.255 69.0004L297.043 66.5644C295.699 67.4604 293.767 68.3844 291.779 69.1964V65.4164H288.503V74.2084C288.503 77.2884 289.315 78.2404 292.591 78.2404H296.567C299.255 78.2404 300.095 77.1484 300.459 73.2004C299.591 72.9764 298.247 72.4724 297.547 71.9684C297.407 74.7964 297.211 75.3284 296.259 75.3284H293.067Z" stroke="#266DD7" stroke-width="10" stroke-linecap="round" stroke-linejoin="round" mask="url(#path-1-outside-1)"/>
<path d="M312.275 64.2404C312.275 63.7924 312.275 63.3724 312.275 62.9524V61.8884H315.999V64.2404H312.275ZM319.695 56.7084V58.9484H312.275V56.7084H319.695ZM322.999 64.2404H318.771V61.8884H322.803V53.7404H309.307V62.9524C309.307 66.8724 309.167 72.3044 307.375 76.0564C308.047 76.3924 309.335 77.3164 309.839 77.9044C311.239 75.1604 311.855 71.3244 312.107 67.7964V75.4964H314.515V66.9844H315.999V78.3804H318.771V66.9844H320.367V72.5284C320.367 72.7524 320.311 72.8364 320.087 72.8364C319.919 72.8364 319.415 72.8364 318.855 72.8084C319.219 73.5364 319.555 74.6284 319.639 75.4124C320.759 75.4124 321.571 75.3564 322.187 74.9084C322.859 74.4604 322.999 73.7044 322.999 72.5844V64.2404ZM327.395 55.0004H324.287V71.2124H327.395V55.0004ZM329.747 52.8164V74.4884C329.747 74.9364 329.579 75.0484 329.131 75.0764C328.655 75.0764 327.199 75.0764 325.743 75.0204C326.163 76.0004 326.639 77.4564 326.751 78.3804C328.907 78.3804 330.531 78.2684 331.567 77.7364C332.575 77.2044 332.939 76.2804 332.939 74.4884V52.8164H329.747Z" stroke="#266DD7" stroke-width="10" stroke-linecap="round" stroke-linejoin="round" mask="url(#path-1-outside-1)"/>
<path d="M367.071 65.4444V62.1404H355.535V58.8924H364.075V55.6724H355.535V52.2844H351.979V62.1404H341.731V65.4444H351.979V78.4084H355.535V69.9244C358.335 70.9044 361.807 72.2484 363.627 73.2284L365.391 70.2044C363.235 69.1404 358.979 67.7124 356.179 66.8724L355.535 67.9084V65.4444H367.071Z" stroke="#266DD7" stroke-width="10" stroke-linecap="round" stroke-linejoin="round" mask="url(#path-1-outside-1)"/>
<path d="M401.147 57.9964C400.755 56.7084 399.747 54.7204 398.851 53.2364L396.359 54.2164C397.255 55.7564 398.179 57.8284 398.515 59.1164L401.147 57.9964ZM380.175 56.7924V69.1684H378.467V56.7924H380.175ZM382.863 54.1604H375.723V74.1804H378.467V71.8284H382.863V54.1604ZM389.639 60.3204V56.2884C390.815 55.9244 391.907 55.5044 392.915 55.0844C392.915 56.8484 392.943 58.5844 392.999 60.3204H389.639ZM397.759 64.1564C397.395 65.3884 396.919 66.5924 396.359 67.7124C396.219 66.3684 396.107 64.8844 396.023 63.3164H401.007V60.3204H395.911C395.827 57.8284 395.799 55.1964 395.855 52.5644H392.887L392.915 54.9164L390.703 52.7324C388.939 53.6844 385.999 54.7484 383.367 55.4204C383.703 56.0364 384.123 57.0724 384.235 57.7444C385.019 57.5764 385.803 57.3804 386.643 57.1564V60.3204H383.367V63.3164H386.643V67.1524C385.383 67.3764 384.179 67.6004 383.227 67.7404L383.815 70.8204C384.683 70.6244 385.663 70.4284 386.643 70.2044V74.7964C386.643 75.2164 386.531 75.3564 386.111 75.3564C385.719 75.3564 384.431 75.3564 383.171 75.3004C383.619 76.1684 384.039 77.5684 384.151 78.4364C386.055 78.4364 387.483 78.3524 388.379 77.8204C389.359 77.3164 389.639 76.4484 389.639 74.8244V69.5324C390.647 69.2804 391.655 69.0564 392.663 68.8044L392.411 66.0044L389.639 66.5644V63.3164H393.139C393.307 66.3964 393.559 69.2524 394.007 71.6044C392.747 73.2284 391.319 74.6004 389.695 75.6924C390.255 76.2524 391.235 77.4564 391.599 78.1004C392.747 77.2044 393.839 76.1964 394.847 75.0204C395.603 77.1764 396.667 78.4644 398.095 78.4644C400.111 78.4644 400.867 77.3444 401.287 73.5924C400.615 73.2564 399.747 72.6124 399.159 71.8564C399.103 74.3484 398.879 75.3844 398.487 75.3844C397.899 75.3844 397.423 74.2084 397.003 72.2204C398.431 70.0364 399.635 67.5444 400.503 64.8284L397.759 64.1564Z" stroke="#266DD7" stroke-width="10" stroke-linecap="round" stroke-linejoin="round" mask="url(#path-1-outside-1)"/>
<path d="M420.131 68.8044H422.987L423.743 59.2284L423.883 55.0564H419.235L419.375 59.2284L420.131 68.8044ZM421.559 76.2524C422.959 76.2524 424.023 75.2444 424.023 73.7884C424.023 72.3044 422.959 71.2964 421.559 71.2964C420.159 71.2964 419.095 72.3044 419.095 73.7884C419.095 75.2444 420.131 76.2524 421.559 76.2524Z" stroke="#266DD7" stroke-width="10" stroke-linecap="round" stroke-linejoin="round" mask="url(#path-1-outside-1)"/>
<path d="M2.50726 11.2882V14.9002H28.2673V11.2882H2.50726Z" fill="white"/>
<path d="M58.7313 4.93218V6.08018H57.3313V4.93218H58.7313ZM57.3313 9.83218V8.62818H58.7313V9.83218H57.3313ZM54.6433 6.08018H51.0313V8.62818H54.6433V9.83218H52.2353V12.2962H54.6433V13.6122H51.9273V16.2442H54.6433V17.5602H51.3393V20.3042H54.6433V22.5722H57.3313V20.3042H61.7273V17.5602H57.3313V16.2442H61.2513V13.6122H57.3313V12.2962H61.1113V8.82418H62.2593V5.88418H61.1113V2.49618H57.3313V0.42418H54.6433V2.49618H52.2073V4.93218H54.6433V6.08018ZM44.3113 20.6682C44.6753 19.4922 45.0393 17.7562 45.4593 16.1602L43.3873 15.6842C43.2193 17.0002 42.7993 18.9882 42.4913 20.2202L44.3113 20.6682ZM45.5433 21.2842C44.4793 21.4802 43.4153 21.6762 42.3513 21.8722V14.7322H45.2913V11.9882H42.3513V9.97218H44.9833V7.28418H44.6753L46.4953 5.18418L46.4673 5.15618H47.9233C47.1953 7.64818 46.2153 10.7562 45.3473 13.2202L47.8953 13.7242L48.1473 12.9962H49.1553C48.9593 14.6202 48.7353 16.0482 48.3993 17.3362C48.1473 16.4962 47.9233 15.5442 47.7553 14.4522L45.5993 15.0122C45.9913 17.3922 46.4953 19.2682 47.1113 20.7522C46.7193 21.5642 46.2433 22.2642 45.6833 22.8802L45.5433 21.2842ZM39.1313 7.28418C40.1673 5.99618 41.0073 4.70818 41.6793 3.53218C42.6593 4.70818 43.6673 6.19218 44.2553 7.28418H39.1313ZM50.3313 10.2802L49.8553 10.3362H49.0153C49.8833 7.62018 50.7233 4.76418 51.3393 2.52418L49.4353 2.10418L49.0153 2.24418H45.7393V4.03618C44.8153 2.80418 43.4993 1.37618 42.3793 0.312181H39.9433C39.1313 2.49618 37.5913 5.15618 35.2953 7.17218C35.9393 7.62018 36.8353 8.62818 37.2553 9.27218L37.3673 9.16018V9.97218H39.6913V11.9882H36.4153V14.7322H39.6913V22.3482C38.2913 22.5722 37.0313 22.7682 35.9673 22.9362L36.6393 25.8202C38.7953 25.3722 41.3993 24.8962 44.0313 24.3922C43.8913 24.4762 43.7233 24.5882 43.5833 24.6722C44.1713 25.0362 45.2353 25.9602 45.6833 26.4642C46.8313 25.6802 47.8113 24.6442 48.6513 23.3282C50.4153 25.4282 52.7673 25.9602 55.8473 25.9602H61.4753C61.5873 25.1762 62.0073 23.8602 62.3993 23.1602C61.1393 23.2162 57.0513 23.2162 55.9873 23.2162C53.4673 23.2162 51.4233 22.7682 49.9393 20.7242C50.9473 18.1482 51.5913 14.8162 51.8993 10.5882L50.3313 10.2802ZM36.5833 16.4402C36.9753 17.9802 37.3393 19.9682 37.3953 21.3402L39.4113 20.8082C39.3273 19.4922 38.9913 17.5042 38.5153 15.9642L36.5833 16.4402Z" fill="white"/>
<path d="M70.2673 16.6642C70.1273 19.0162 69.8473 21.5082 69.1473 23.1602C69.7633 23.3842 70.8833 23.8882 71.4153 24.2242C72.0873 22.4602 72.5633 19.6882 72.7873 17.0562L70.2673 16.6642ZM75.6713 17.2522C76.2033 18.9042 76.7633 21.0322 76.9313 22.4602L79.2553 21.6762C79.0313 20.2762 78.4433 18.2042 77.8833 16.5802L75.6713 17.2522ZM73.7393 12.2962C74.1313 11.7082 74.5513 11.0922 74.9433 10.4482C75.1953 11.0082 75.4473 11.5962 75.6993 12.1842L73.7393 12.2962ZM84.2953 12.3522H86.5913V9.46818H84.2953V7.00418H86.8713V4.06418H84.2953V0.62018H81.4113V4.06418H78.6953V7.00418H81.4113V9.46818H79.0593V12.3522H81.4113V12.8002C81.4113 13.5282 81.4113 14.2562 81.3833 14.9842H79.1713C78.8633 13.3882 77.9673 11.1482 77.0433 9.35618L75.1953 10.0562C76.3153 8.32018 77.4353 6.44418 78.3873 4.79218L75.7833 3.67218C75.2793 4.90418 74.5793 6.33218 73.8233 7.76018C73.5993 7.45218 73.3473 7.11618 73.0673 6.80818C73.8793 5.24018 74.8313 3.08418 75.6713 1.20818L72.8713 0.312181C72.5353 1.68418 71.9473 3.39218 71.3313 4.87618C71.1353 4.68018 70.9673 4.48418 70.7713 4.31618L69.3993 6.66818C70.4353 7.76018 71.5833 9.16018 72.3393 10.3642C71.8913 11.0922 71.4713 11.7922 71.0513 12.4082L69.2313 12.4922L69.5113 15.4042C70.5473 15.3202 71.6953 15.2362 72.8993 15.1242V26.4362H75.6433V14.8722L76.5673 14.7882C76.7073 15.3202 76.8193 15.8242 76.8753 16.2722L78.6673 15.5162V17.8962H81.1033C80.7113 20.4722 79.8153 22.7962 77.7993 24.6722C78.4993 25.0922 79.6753 26.0162 80.2633 26.6602C82.6713 24.2802 83.6793 21.2562 84.0433 17.8962H86.9273V14.9842H84.2673C84.2953 14.2562 84.2953 13.5282 84.2953 12.8002V12.3522ZM93.3393 1.68418L92.9193 1.79618H87.3193V26.4082H90.2873V4.54018H92.1633C91.8553 6.61218 91.4353 8.93618 90.9593 11.4002C92.2753 14.1442 92.7513 15.7682 92.7513 17.2802C92.7513 18.2882 92.6113 19.1842 92.3033 19.4642C92.2193 19.6322 91.9953 19.6882 91.7713 19.6882C91.5193 19.6882 91.1553 19.6882 90.8753 19.6602C91.3233 20.4442 91.4913 21.6482 91.4913 22.4602C92.0513 22.4882 92.5553 22.4882 92.9473 22.4042C93.5353 22.2922 93.9833 22.1242 94.3753 21.7882C95.2153 21.0042 95.6353 19.4642 95.6353 17.3922C95.6353 15.7122 95.0193 13.7802 93.6193 11.0362C94.3753 8.01218 95.0193 5.15618 95.5233 2.80418L93.3393 1.68418Z" fill="white"/>
<path d="M128.871 13.4442V10.1402H117.335V6.89218H125.875V3.67218H117.335V0.28418H113.779V10.1402H103.531V13.4442H113.779V26.4082H117.335V17.9242C120.135 18.9042 123.607 20.2482 125.427 21.2282L127.191 18.2042C125.035 17.1402 120.779 15.7122 117.979 14.8722L117.335 15.9082V13.4442H128.871Z" fill="white"/>
<path d="M144.523 8.90818C144.187 11.7642 143.655 14.2842 142.843 16.4682C142.143 15.9642 141.443 15.4882 140.771 15.0682C141.219 13.1082 141.667 11.0362 142.115 8.90818H144.523ZM145.839 5.77218L145.279 5.85618H142.759C143.123 4.03618 143.459 2.24418 143.739 0.592181L140.603 0.312181C140.351 2.02018 140.015 3.92418 139.651 5.85618H136.879V8.90818H139.063C138.391 12.1562 137.691 15.2922 137.047 17.5882L139.791 19.0162L140.015 18.1482C140.519 18.5122 141.023 18.9042 141.527 19.2962C140.351 21.3402 138.839 22.9082 136.963 23.8882C137.635 24.5042 138.503 25.6802 138.951 26.5202C141.023 25.2322 142.703 23.5802 144.047 21.3962C145.055 22.3482 145.923 23.2722 146.511 24.0562L148.527 21.3682C147.827 20.4722 146.735 19.4642 145.503 18.4562C146.791 15.2362 147.547 11.1762 147.855 6.08018L145.839 5.77218ZM162.863 11.3722H156.703V9.77618C158.663 7.92818 160.735 5.32418 162.219 3.14018L160.035 1.51618L159.363 1.68418H148.415V4.76418H157.123C156.339 5.94018 155.359 7.17218 154.435 8.12418H153.399V11.3722H147.491V14.5082H153.399V22.6842C153.399 23.0762 153.259 23.1882 152.783 23.1882C152.335 23.2162 150.851 23.1882 149.423 23.1322C149.899 24.0562 150.459 25.4842 150.627 26.4082C152.671 26.4362 154.183 26.3242 155.303 25.7922C156.395 25.2882 156.703 24.3922 156.703 22.7122V14.5082H162.863V11.3722Z" fill="white"/>
<path d="M196.183 14.5082C195.623 13.2762 194.391 11.4002 193.187 9.86018C194.027 8.48818 195.007 6.86418 195.791 5.29618L193.047 4.68018C192.431 6.05218 191.311 8.18018 190.247 9.88818C191.703 11.8762 193.019 14.0602 193.607 15.5722L196.183 14.5082ZM188.315 4.68018C187.783 6.05218 186.747 8.15218 185.739 9.86018C187.139 11.8482 188.315 14.0042 188.875 15.4882L191.423 14.4242C190.891 13.2202 189.771 11.4002 188.623 9.83218C189.435 8.46018 190.303 6.80818 191.003 5.26818L188.315 4.68018ZM196.043 1.40418H181.987V4.20418H196.043V1.40418ZM186.831 14.5362C186.327 13.3322 185.291 11.4562 184.227 9.86018C184.983 8.48818 185.823 6.80818 186.523 5.26818L183.835 4.68018C183.303 6.05218 182.323 8.18018 181.399 9.88818C182.631 11.8762 183.751 14.0602 184.255 15.5722L186.831 14.5362ZM173.391 13.4722H174.875V15.1242H173.391V13.4722ZM173.391 9.63618H174.875V11.2882H173.391V9.63618ZM178.571 11.2882H177.003V9.63618H178.571V11.2882ZM178.571 15.1242H177.003V13.4722H178.571V15.1242ZM181.595 22.0122V19.1002H177.311V17.4202H180.979V7.31218H177.283V5.85618H181.287V2.97218H177.283V0.312181H174.539V2.97218H170.619V5.85618H174.539V7.31218H171.067V17.4202H174.567V19.1002H170.227V22.0122H174.567V26.4362H177.311V22.0122H181.595ZM190.611 22.9362V18.7642H195.623V15.9642H182.631V18.7642H187.307V22.9362H181.371V25.7362H196.463V22.9362H190.611Z" fill="white"/>
<path d="M226.787 8.04018C225.079 9.66418 221.523 10.7282 217.995 11.2042C218.555 11.7922 219.255 12.7442 219.591 13.4722C223.679 12.6602 227.347 11.3442 229.475 9.02018L226.787 8.04018ZM226.171 4.28818C224.547 5.57618 221.383 6.61218 218.695 7.17218C219.339 7.73218 220.067 8.60018 220.487 9.21618C223.511 8.46018 226.675 7.17218 228.747 5.38018L226.171 4.28818ZM225.415 0.53618C223.763 1.68418 220.571 2.83218 218.275 3.44818C218.947 3.98018 219.703 4.79218 220.179 5.40818C222.671 4.65218 225.807 3.33618 227.963 1.82418L225.415 0.53618ZM214.187 10.3362L213.235 10.7842C213.431 10.9522 213.655 11.1482 213.851 11.3442L209.539 11.4842C209.763 11.1202 210.015 10.7282 210.267 10.3362H214.187ZM215.363 21.3962C214.803 20.9202 212.479 19.2122 211.639 18.7082V17.9242H215.083V15.4042H211.639V13.4162L215.503 13.2202C215.755 13.5562 215.979 13.8922 216.147 14.1722L218.331 13.1362C217.855 12.2682 216.875 11.2042 215.895 10.3362H218.639V8.46018H209.595V7.64818H216.623V6.05218H209.595V5.26818H216.623V3.67218H209.595V2.88818H217.491V0.984181H206.599V8.46018H204.415V10.3362H207.383C207.215 10.7562 207.019 11.1762 206.851 11.5682L204.835 11.6242L204.947 13.7242L208.671 13.5562V15.4042H204.499V17.9242H208.251C207.047 19.7442 205.311 21.5362 203.715 22.5162C204.359 23.0762 205.227 24.0842 205.703 24.7562C206.711 23.9442 207.747 22.7682 208.671 21.4242V26.4082H211.639V21.3962C212.395 22.1802 213.179 23.0202 213.599 23.5802L215.363 21.3962ZM223.175 21.1722C223.595 21.6762 224.043 22.2082 224.435 22.7962L220.963 22.9082C221.607 21.6482 222.307 20.1642 222.923 18.7922L219.675 18.0642C219.283 19.5202 218.639 21.4522 217.967 22.9922L214.943 23.0762L215.195 25.8202C218.135 25.6522 222.111 25.4842 225.975 25.2602C226.199 25.6802 226.367 26.0722 226.507 26.4362L228.999 25.2602C228.411 23.7202 226.899 21.6202 225.499 20.0802L223.175 21.1722ZM219.619 13.6122V15.1522L217.239 14.5922C216.623 16.3282 215.475 17.8962 214.019 18.9882C214.663 19.4082 215.699 20.3602 216.175 20.8642C217.575 19.7442 218.835 17.9522 219.675 16.0482H223.847C224.799 17.8962 226.451 19.6042 228.355 20.6682C228.747 19.9402 229.587 18.8202 230.175 18.2602C228.131 17.3642 226.367 15.6282 225.695 13.6122H219.619Z" fill="white"/>
</svg>
