<svg width="695" height="94" viewBox="0 0 695 94" fill="none" xmlns="http://www.w3.org/2000/svg">
<path d="M19.0722 9H681.832L662.759 94H0L19.0722 9Z" fill="#006FA9"/>
<path fill-rule="evenodd" clip-rule="evenodd" d="M21.0185 11.4313L3.03733 91.5687H660.813L678.794 11.4313H21.0185ZM19.0722 9L0 94H662.759L681.832 9H19.0722Z" fill="#284273"/>
<path d="M32.2406 0H695L675.928 85H13.1684L32.2406 0Z" fill="#6BC4CB"/>
<path fill-rule="evenodd" clip-rule="evenodd" d="M34.1869 2.43134L16.2058 82.5687H673.982L691.963 2.43134H34.1869ZM32.2406 0L13.1684 85H675.928L695 0H32.2406Z" fill="#284273"/>
<mask id="path-5-outside-1" maskUnits="userSpaceOnUse" x="171.896" y="29.2002" width="351" height="35" fill="black">
<rect fill="white" x="171.896" y="29.2002" width="351" height="35"/>
<path d="M191.792 55.3762V49.7482H200.164V46.5282H191.792V41.6002H201.228V38.3522H191.792V33.3122H188.292V38.3522H183.98C184.456 37.0642 184.904 35.7482 185.296 34.4042L181.852 33.6482C180.9 37.4562 179.08 41.3202 176.896 43.6722C177.736 44.1202 179.22 45.1282 179.892 45.6602C180.816 44.5682 181.684 43.1402 182.496 41.6002H188.292V46.5282H180.704V49.7482H188.292V55.3762H177.484V58.6522H202.656V55.3762H191.792Z"/>
<path d="M219.064 36.4482C217.86 35.6642 215.424 34.4322 213.856 33.6482L211.98 36.0562C213.604 36.9802 215.984 38.2962 217.076 39.1362L219.064 36.4482ZM217.72 44.0082C216.488 43.2522 213.996 42.0482 212.456 41.2922L210.664 43.7562C212.316 44.6522 214.724 45.9682 215.872 46.7802L217.72 44.0082ZM213.856 59.1282C215.564 56.4122 217.328 53.2202 218.812 50.2802L216.376 48.0402C214.696 51.2882 212.54 54.7602 211.056 56.8602L213.856 59.1282ZM232.028 55.2642H223.628V51.1482H232.028V55.2642ZM236.592 44.5962V41.4042H229.48V37.5682C231.664 37.1482 233.764 36.5882 235.556 35.9162L233.008 33.2842C229.928 34.5162 224.664 35.4402 219.904 35.9162C220.296 36.6722 220.744 37.9602 220.884 38.7722C222.62 38.6042 224.496 38.4082 226.316 38.1282V41.4042H218.868V44.5962H226.316V48.1242H220.604V59.4362H223.628V58.2882H232.028V59.2962H235.192V48.1242H229.48V44.5962H236.592Z"/>
<path d="M246.448 47.0882C247.204 44.9602 247.624 41.6562 247.652 39.1082L245.132 38.8002C245.02 41.1802 244.6 44.2882 243.9 46.1082L246.448 47.0882ZM254.736 42.8882C254.372 41.6282 253.448 39.4722 252.72 37.8482L251.04 38.5482V33.2562H247.82V59.4362H251.04V40.5922C251.544 41.8802 251.992 43.1682 252.216 44.1202L254.736 42.8882ZM263.36 52.4922H269.044V49.5242H263.36V46.9482H260.028V49.5242H254.232V52.4922H260.028V55.7962H252.972V58.7922H270.276V55.7962H263.36V52.4922ZM264.536 37.3722C263.78 38.6882 262.828 39.8082 261.708 40.8162C260.504 39.8082 259.496 38.6602 258.74 37.3722H264.536ZM266.776 34.3482L266.188 34.4602H254.232V37.3722H256.724L255.604 37.7362C256.556 39.5842 257.76 41.2362 259.16 42.6082C257.144 43.7562 254.848 44.5682 252.328 45.0162C252.916 45.6882 253.644 46.9762 253.98 47.8162C256.836 47.1162 259.44 46.1082 261.708 44.7082C263.668 45.9962 265.936 47.0042 268.54 47.6762C269.016 46.8082 269.94 45.4642 270.612 44.8202C268.288 44.3442 266.188 43.6162 264.396 42.6082C266.384 40.7322 267.924 38.3242 268.904 35.2442L266.776 34.3482Z"/>
<path d="M303.568 52.8842V49.9722H291.864C291.976 49.4122 292.06 48.8522 292.116 48.2642H303.26V45.2962H292.452V43.8682H301.02V41.0682H292.452V39.6402H302.14V36.7002H296.96C297.52 35.9722 298.192 35.0762 298.864 34.0962L295.28 33.2002C294.86 34.1802 294.048 35.5802 293.376 36.4762L294.16 36.7002H287.216L287.86 36.4202C287.496 35.4682 286.656 34.1522 285.788 33.2282L282.82 34.3762C283.38 35.0482 283.94 35.9162 284.304 36.7002H279.46V39.6402H289.036V41.0682H280.748V43.8682H289.036V45.2962H278.34V48.2642H288.588C288.504 48.8802 288.42 49.4402 288.308 49.9722H278.172V52.8842H287.02C285.62 54.5922 282.988 55.7122 277.668 56.4122C278.284 57.1402 279.068 58.5122 279.32 59.4082C286.236 58.2882 289.344 56.3002 290.828 53.3042C293.012 56.9722 296.4 58.7922 302.168 59.4642C302.588 58.5402 303.428 57.1402 304.156 56.3842C299.424 56.0762 296.232 55.0122 294.272 52.8842H303.568Z"/>
<path d="M319.164 41.9082C318.828 44.7642 318.296 47.2842 317.484 49.4682C316.784 48.9642 316.084 48.4882 315.412 48.0682C315.86 46.1082 316.308 44.0362 316.756 41.9082H319.164ZM320.48 38.7722L319.92 38.8562H317.4C317.764 37.0362 318.1 35.2442 318.38 33.5922L315.244 33.3122C314.992 35.0202 314.656 36.9242 314.292 38.8562H311.52V41.9082H313.704C313.032 45.1562 312.332 48.2922 311.688 50.5882L314.432 52.0162L314.656 51.1482C315.16 51.5122 315.664 51.9042 316.168 52.2962C314.992 54.3402 313.48 55.9082 311.604 56.8882C312.276 57.5042 313.144 58.6802 313.592 59.5202C315.664 58.2322 317.344 56.5802 318.688 54.3962C319.696 55.3482 320.564 56.2722 321.152 57.0562L323.168 54.3682C322.468 53.4722 321.376 52.4642 320.144 51.4562C321.432 48.2362 322.188 44.1762 322.496 39.0802L320.48 38.7722ZM337.504 44.3722H331.344V42.7762C333.304 40.9282 335.376 38.3242 336.86 36.1402L334.676 34.5162L334.004 34.6842H323.056V37.7642H331.764C330.98 38.9402 330 40.1722 329.076 41.1242H328.04V44.3722H322.132V47.5082H328.04V55.6842C328.04 56.0762 327.9 56.1882 327.424 56.1882C326.976 56.2162 325.492 56.1882 324.064 56.1322C324.54 57.0562 325.1 58.4842 325.268 59.4082C327.312 59.4362 328.824 59.3242 329.944 58.7922C331.036 58.2882 331.344 57.3922 331.344 55.7122V47.5082H337.504V44.3722Z"/>
<path d="M377.915 53.1642V55.7962H370.971V53.1642H377.915ZM367.975 59.4362H370.971V58.4282H377.915V59.3242H381.051V50.5322H367.975V59.4362ZM371.391 46.2202C372.595 45.1002 373.631 43.9242 374.331 42.8322C375.115 43.9522 376.235 45.1282 377.467 46.2202H371.391ZM372.707 39.9762C372.595 40.1442 372.483 40.3402 372.371 40.5362V38.6602H376.627V40.9002H379.763V38.6602H383.039V35.8322H379.763V33.3122H376.627V35.8322H372.371V33.3122H369.291V35.8322H366.183V38.6602H369.291V40.8162H372.175C370.831 42.7762 368.647 44.8762 366.295 46.3042L366.043 44.5402L363.999 45.1002V41.6282H366.155V38.5762H363.999V33.3122H360.807V38.5762H357.559V41.6282H360.807V45.9682C359.379 46.3602 358.063 46.6962 356.999 46.9202L357.699 50.1402C358.651 49.8602 359.715 49.5522 360.807 49.2442V55.6562C360.807 56.0762 360.667 56.1882 360.331 56.1882C359.967 56.2162 358.819 56.2162 357.727 56.1602C358.147 57.0842 358.567 58.5122 358.651 59.4082C360.583 59.4082 361.899 59.2962 362.823 58.7362C363.719 58.2322 363.999 57.3362 363.999 55.6842V48.2642L365.427 47.8162C365.847 48.4322 366.211 49.1882 366.435 49.7202C367.723 49.0762 368.955 48.2642 370.103 47.3402V48.8522H378.783V47.2842C379.847 48.1242 380.967 48.8242 382.059 49.3842C382.507 48.4322 383.151 47.2282 383.795 46.4722C380.771 45.2962 377.747 42.8042 375.731 39.9762H372.707Z"/>
<path d="M404.347 36.5602H410.535V38.2962H406.027V42.6642H404.347V36.5602ZM410.535 42.6642H408.351V40.3682H410.535V42.6642ZM408.603 50.3922H406.083V48.4602H408.603V50.3922ZM402.275 45.1842H412.551V51.9882C412.551 52.2682 412.467 52.3522 412.159 52.3522C411.991 52.3522 411.543 52.3522 411.011 52.3522V46.3602H403.703V53.3602H406.083V52.5202H410.311C410.619 53.2202 410.899 54.2002 410.983 54.9282C412.523 54.9282 413.643 54.9002 414.483 54.4802C415.351 54.0322 415.575 53.3042 415.575 52.0162V42.6642H413.531V34.0962H401.463V42.6642H399.391V54.8442H402.275V45.1842ZM398.131 38.4362C397.235 37.0922 395.303 35.2442 393.735 33.9842L391.187 35.8882C392.755 37.2322 394.603 39.1642 395.387 40.5362L398.131 38.4362ZM397.375 44.1482H391.075V47.2002H394.211V53.3042C393.091 54.2562 391.831 55.1802 390.739 55.8802L392.307 59.1842C393.735 57.9802 394.883 56.9162 396.003 55.8242C397.683 57.9802 399.923 58.7922 403.255 58.9322C406.671 59.0722 412.607 59.0162 416.079 58.8482C416.247 57.9242 416.723 56.3842 417.115 55.6002C413.251 55.9082 406.643 55.9922 403.283 55.8522C400.427 55.7402 398.467 54.9562 397.375 53.0802V44.1482Z"/>
<path d="M449.847 41.5442V38.2682H439.711L439.683 33.2562L436.155 33.2842L436.183 38.2682H425.291V41.5442H436.211L436.239 47.6202C432.599 49.3842 428.399 50.8682 424.311 51.8202C424.899 52.6042 425.711 54.0322 426.131 54.9562C429.603 54.0322 433.047 52.8282 436.267 51.3442L436.295 55.2922C436.295 55.8522 436.127 56.0202 435.511 56.0482C434.895 56.0482 432.879 56.0762 431.003 55.9922C431.507 56.9442 432.095 58.4842 432.291 59.4642C435.007 59.4362 436.939 59.3522 438.171 58.7922C439.431 58.2322 439.851 57.3082 439.823 55.2922L439.795 49.6082C442.763 48.0122 445.451 46.1642 447.635 44.2042L444.359 42.1602C443.155 43.3642 441.587 44.5682 439.767 45.6882L439.739 41.5442H449.847Z"/>
<path d="M471.379 47.4802V44.3442H466.787V43.6722V39.8922H470.735V36.8122H463.343C463.623 35.8602 463.847 34.9082 464.043 33.9282L460.851 33.2842C460.291 36.4762 459.227 39.6962 457.715 41.7122C458.471 42.1322 459.787 43.0842 460.403 43.6442C461.103 42.6082 461.747 41.3202 462.307 39.8922H463.427V43.6442V44.3442H458.247V47.4802H463.203C462.755 50.7282 461.467 54.2282 457.827 56.8322C458.527 57.3362 459.759 58.6522 460.207 59.3522C462.895 57.3922 464.547 54.7602 465.499 52.0162C466.871 53.7242 468.467 55.8242 469.391 57.2802L471.631 54.4802C470.847 53.5562 467.823 50.0562 466.367 48.6282C466.451 48.2642 466.507 47.8722 466.563 47.4802H471.379ZM475.355 53.4722V38.8282H479.415V53.4722H475.355ZM472.135 35.6922V58.6242H475.355V56.6082H479.415V58.2042H482.803V35.6922H472.135Z"/>
<path d="M512.147 44.3722H504.559V42.9162H512.147V44.3722ZM512.147 48.0402H504.559V46.5842H512.147V48.0402ZM512.147 51.7362H504.559V50.2522H512.147V51.7362ZM501.395 40.5082V54.1442H515.451V40.5082H509.151C509.375 40.0322 509.627 39.5282 509.851 38.9962H517.327V36.3082H513.043C513.491 35.6362 513.995 34.8242 514.499 33.9842L511.195 33.2842C510.859 34.1522 510.243 35.4122 509.711 36.3082H506.211L506.547 36.1682C506.267 35.3562 505.483 34.1522 504.727 33.3122L502.095 34.2922C502.571 34.8802 503.047 35.6362 503.383 36.3082H499.491V38.9962H506.267C506.183 39.5002 506.099 40.0042 505.987 40.5082H501.395ZM499.211 38.1562C498.259 36.8402 496.215 35.1042 494.535 33.9282L492.071 35.9442C493.723 37.1762 495.711 39.0242 496.579 40.3682L499.211 38.1562ZM498.511 44.1482H492.043V47.2002H495.263V53.1082C494.031 54.0602 492.631 54.9842 491.427 55.6842L493.051 59.1562C494.591 57.9802 495.823 56.8882 497.055 55.7962C498.875 57.9802 501.171 58.7642 504.615 58.9042C507.947 59.0442 513.575 58.9882 516.935 58.8202C517.103 57.8682 517.607 56.2442 517.971 55.4602C514.247 55.7402 507.947 55.8242 504.671 55.6842C501.759 55.5722 499.659 54.8162 498.511 52.9402V44.1482Z"/>
</mask>
<path d="M191.792 55.3762V49.7482H200.164V46.5282H191.792V41.6002H201.228V38.3522H191.792V33.3122H188.292V38.3522H183.98C184.456 37.0642 184.904 35.7482 185.296 34.4042L181.852 33.6482C180.9 37.4562 179.08 41.3202 176.896 43.6722C177.736 44.1202 179.22 45.1282 179.892 45.6602C180.816 44.5682 181.684 43.1402 182.496 41.6002H188.292V46.5282H180.704V49.7482H188.292V55.3762H177.484V58.6522H202.656V55.3762H191.792Z" fill="white"/>
<path d="M219.064 36.4482C217.86 35.6642 215.424 34.4322 213.856 33.6482L211.98 36.0562C213.604 36.9802 215.984 38.2962 217.076 39.1362L219.064 36.4482ZM217.72 44.0082C216.488 43.2522 213.996 42.0482 212.456 41.2922L210.664 43.7562C212.316 44.6522 214.724 45.9682 215.872 46.7802L217.72 44.0082ZM213.856 59.1282C215.564 56.4122 217.328 53.2202 218.812 50.2802L216.376 48.0402C214.696 51.2882 212.54 54.7602 211.056 56.8602L213.856 59.1282ZM232.028 55.2642H223.628V51.1482H232.028V55.2642ZM236.592 44.5962V41.4042H229.48V37.5682C231.664 37.1482 233.764 36.5882 235.556 35.9162L233.008 33.2842C229.928 34.5162 224.664 35.4402 219.904 35.9162C220.296 36.6722 220.744 37.9602 220.884 38.7722C222.62 38.6042 224.496 38.4082 226.316 38.1282V41.4042H218.868V44.5962H226.316V48.1242H220.604V59.4362H223.628V58.2882H232.028V59.2962H235.192V48.1242H229.48V44.5962H236.592Z" fill="white"/>
<path d="M246.448 47.0882C247.204 44.9602 247.624 41.6562 247.652 39.1082L245.132 38.8002C245.02 41.1802 244.6 44.2882 243.9 46.1082L246.448 47.0882ZM254.736 42.8882C254.372 41.6282 253.448 39.4722 252.72 37.8482L251.04 38.5482V33.2562H247.82V59.4362H251.04V40.5922C251.544 41.8802 251.992 43.1682 252.216 44.1202L254.736 42.8882ZM263.36 52.4922H269.044V49.5242H263.36V46.9482H260.028V49.5242H254.232V52.4922H260.028V55.7962H252.972V58.7922H270.276V55.7962H263.36V52.4922ZM264.536 37.3722C263.78 38.6882 262.828 39.8082 261.708 40.8162C260.504 39.8082 259.496 38.6602 258.74 37.3722H264.536ZM266.776 34.3482L266.188 34.4602H254.232V37.3722H256.724L255.604 37.7362C256.556 39.5842 257.76 41.2362 259.16 42.6082C257.144 43.7562 254.848 44.5682 252.328 45.0162C252.916 45.6882 253.644 46.9762 253.98 47.8162C256.836 47.1162 259.44 46.1082 261.708 44.7082C263.668 45.9962 265.936 47.0042 268.54 47.6762C269.016 46.8082 269.94 45.4642 270.612 44.8202C268.288 44.3442 266.188 43.6162 264.396 42.6082C266.384 40.7322 267.924 38.3242 268.904 35.2442L266.776 34.3482Z" fill="white"/>
<path d="M303.568 52.8842V49.9722H291.864C291.976 49.4122 292.06 48.8522 292.116 48.2642H303.26V45.2962H292.452V43.8682H301.02V41.0682H292.452V39.6402H302.14V36.7002H296.96C297.52 35.9722 298.192 35.0762 298.864 34.0962L295.28 33.2002C294.86 34.1802 294.048 35.5802 293.376 36.4762L294.16 36.7002H287.216L287.86 36.4202C287.496 35.4682 286.656 34.1522 285.788 33.2282L282.82 34.3762C283.38 35.0482 283.94 35.9162 284.304 36.7002H279.46V39.6402H289.036V41.0682H280.748V43.8682H289.036V45.2962H278.34V48.2642H288.588C288.504 48.8802 288.42 49.4402 288.308 49.9722H278.172V52.8842H287.02C285.62 54.5922 282.988 55.7122 277.668 56.4122C278.284 57.1402 279.068 58.5122 279.32 59.4082C286.236 58.2882 289.344 56.3002 290.828 53.3042C293.012 56.9722 296.4 58.7922 302.168 59.4642C302.588 58.5402 303.428 57.1402 304.156 56.3842C299.424 56.0762 296.232 55.0122 294.272 52.8842H303.568Z" fill="white"/>
<path d="M319.164 41.9082C318.828 44.7642 318.296 47.2842 317.484 49.4682C316.784 48.9642 316.084 48.4882 315.412 48.0682C315.86 46.1082 316.308 44.0362 316.756 41.9082H319.164ZM320.48 38.7722L319.92 38.8562H317.4C317.764 37.0362 318.1 35.2442 318.38 33.5922L315.244 33.3122C314.992 35.0202 314.656 36.9242 314.292 38.8562H311.52V41.9082H313.704C313.032 45.1562 312.332 48.2922 311.688 50.5882L314.432 52.0162L314.656 51.1482C315.16 51.5122 315.664 51.9042 316.168 52.2962C314.992 54.3402 313.48 55.9082 311.604 56.8882C312.276 57.5042 313.144 58.6802 313.592 59.5202C315.664 58.2322 317.344 56.5802 318.688 54.3962C319.696 55.3482 320.564 56.2722 321.152 57.0562L323.168 54.3682C322.468 53.4722 321.376 52.4642 320.144 51.4562C321.432 48.2362 322.188 44.1762 322.496 39.0802L320.48 38.7722ZM337.504 44.3722H331.344V42.7762C333.304 40.9282 335.376 38.3242 336.86 36.1402L334.676 34.5162L334.004 34.6842H323.056V37.7642H331.764C330.98 38.9402 330 40.1722 329.076 41.1242H328.04V44.3722H322.132V47.5082H328.04V55.6842C328.04 56.0762 327.9 56.1882 327.424 56.1882C326.976 56.2162 325.492 56.1882 324.064 56.1322C324.54 57.0562 325.1 58.4842 325.268 59.4082C327.312 59.4362 328.824 59.3242 329.944 58.7922C331.036 58.2882 331.344 57.3922 331.344 55.7122V47.5082H337.504V44.3722Z" fill="white"/>
<path d="M377.915 53.1642V55.7962H370.971V53.1642H377.915ZM367.975 59.4362H370.971V58.4282H377.915V59.3242H381.051V50.5322H367.975V59.4362ZM371.391 46.2202C372.595 45.1002 373.631 43.9242 374.331 42.8322C375.115 43.9522 376.235 45.1282 377.467 46.2202H371.391ZM372.707 39.9762C372.595 40.1442 372.483 40.3402 372.371 40.5362V38.6602H376.627V40.9002H379.763V38.6602H383.039V35.8322H379.763V33.3122H376.627V35.8322H372.371V33.3122H369.291V35.8322H366.183V38.6602H369.291V40.8162H372.175C370.831 42.7762 368.647 44.8762 366.295 46.3042L366.043 44.5402L363.999 45.1002V41.6282H366.155V38.5762H363.999V33.3122H360.807V38.5762H357.559V41.6282H360.807V45.9682C359.379 46.3602 358.063 46.6962 356.999 46.9202L357.699 50.1402C358.651 49.8602 359.715 49.5522 360.807 49.2442V55.6562C360.807 56.0762 360.667 56.1882 360.331 56.1882C359.967 56.2162 358.819 56.2162 357.727 56.1602C358.147 57.0842 358.567 58.5122 358.651 59.4082C360.583 59.4082 361.899 59.2962 362.823 58.7362C363.719 58.2322 363.999 57.3362 363.999 55.6842V48.2642L365.427 47.8162C365.847 48.4322 366.211 49.1882 366.435 49.7202C367.723 49.0762 368.955 48.2642 370.103 47.3402V48.8522H378.783V47.2842C379.847 48.1242 380.967 48.8242 382.059 49.3842C382.507 48.4322 383.151 47.2282 383.795 46.4722C380.771 45.2962 377.747 42.8042 375.731 39.9762H372.707Z" fill="white"/>
<path d="M404.347 36.5602H410.535V38.2962H406.027V42.6642H404.347V36.5602ZM410.535 42.6642H408.351V40.3682H410.535V42.6642ZM408.603 50.3922H406.083V48.4602H408.603V50.3922ZM402.275 45.1842H412.551V51.9882C412.551 52.2682 412.467 52.3522 412.159 52.3522C411.991 52.3522 411.543 52.3522 411.011 52.3522V46.3602H403.703V53.3602H406.083V52.5202H410.311C410.619 53.2202 410.899 54.2002 410.983 54.9282C412.523 54.9282 413.643 54.9002 414.483 54.4802C415.351 54.0322 415.575 53.3042 415.575 52.0162V42.6642H413.531V34.0962H401.463V42.6642H399.391V54.8442H402.275V45.1842ZM398.131 38.4362C397.235 37.0922 395.303 35.2442 393.735 33.9842L391.187 35.8882C392.755 37.2322 394.603 39.1642 395.387 40.5362L398.131 38.4362ZM397.375 44.1482H391.075V47.2002H394.211V53.3042C393.091 54.2562 391.831 55.1802 390.739 55.8802L392.307 59.1842C393.735 57.9802 394.883 56.9162 396.003 55.8242C397.683 57.9802 399.923 58.7922 403.255 58.9322C406.671 59.0722 412.607 59.0162 416.079 58.8482C416.247 57.9242 416.723 56.3842 417.115 55.6002C413.251 55.9082 406.643 55.9922 403.283 55.8522C400.427 55.7402 398.467 54.9562 397.375 53.0802V44.1482Z" fill="white"/>
<path d="M449.847 41.5442V38.2682H439.711L439.683 33.2562L436.155 33.2842L436.183 38.2682H425.291V41.5442H436.211L436.239 47.6202C432.599 49.3842 428.399 50.8682 424.311 51.8202C424.899 52.6042 425.711 54.0322 426.131 54.9562C429.603 54.0322 433.047 52.8282 436.267 51.3442L436.295 55.2922C436.295 55.8522 436.127 56.0202 435.511 56.0482C434.895 56.0482 432.879 56.0762 431.003 55.9922C431.507 56.9442 432.095 58.4842 432.291 59.4642C435.007 59.4362 436.939 59.3522 438.171 58.7922C439.431 58.2322 439.851 57.3082 439.823 55.2922L439.795 49.6082C442.763 48.0122 445.451 46.1642 447.635 44.2042L444.359 42.1602C443.155 43.3642 441.587 44.5682 439.767 45.6882L439.739 41.5442H449.847Z" fill="white"/>
<path d="M471.379 47.4802V44.3442H466.787V43.6722V39.8922H470.735V36.8122H463.343C463.623 35.8602 463.847 34.9082 464.043 33.9282L460.851 33.2842C460.291 36.4762 459.227 39.6962 457.715 41.7122C458.471 42.1322 459.787 43.0842 460.403 43.6442C461.103 42.6082 461.747 41.3202 462.307 39.8922H463.427V43.6442V44.3442H458.247V47.4802H463.203C462.755 50.7282 461.467 54.2282 457.827 56.8322C458.527 57.3362 459.759 58.6522 460.207 59.3522C462.895 57.3922 464.547 54.7602 465.499 52.0162C466.871 53.7242 468.467 55.8242 469.391 57.2802L471.631 54.4802C470.847 53.5562 467.823 50.0562 466.367 48.6282C466.451 48.2642 466.507 47.8722 466.563 47.4802H471.379ZM475.355 53.4722V38.8282H479.415V53.4722H475.355ZM472.135 35.6922V58.6242H475.355V56.6082H479.415V58.2042H482.803V35.6922H472.135Z" fill="white"/>
<path d="M512.147 44.3722H504.559V42.9162H512.147V44.3722ZM512.147 48.0402H504.559V46.5842H512.147V48.0402ZM512.147 51.7362H504.559V50.2522H512.147V51.7362ZM501.395 40.5082V54.1442H515.451V40.5082H509.151C509.375 40.0322 509.627 39.5282 509.851 38.9962H517.327V36.3082H513.043C513.491 35.6362 513.995 34.8242 514.499 33.9842L511.195 33.2842C510.859 34.1522 510.243 35.4122 509.711 36.3082H506.211L506.547 36.1682C506.267 35.3562 505.483 34.1522 504.727 33.3122L502.095 34.2922C502.571 34.8802 503.047 35.6362 503.383 36.3082H499.491V38.9962H506.267C506.183 39.5002 506.099 40.0042 505.987 40.5082H501.395ZM499.211 38.1562C498.259 36.8402 496.215 35.1042 494.535 33.9282L492.071 35.9442C493.723 37.1762 495.711 39.0242 496.579 40.3682L499.211 38.1562ZM498.511 44.1482H492.043V47.2002H495.263V53.1082C494.031 54.0602 492.631 54.9842 491.427 55.6842L493.051 59.1562C494.591 57.9802 495.823 56.8882 497.055 55.7962C498.875 57.9802 501.171 58.7642 504.615 58.9042C507.947 59.0442 513.575 58.9882 516.935 58.8202C517.103 57.8682 517.607 56.2442 517.971 55.4602C514.247 55.7402 507.947 55.8242 504.671 55.6842C501.759 55.5722 499.659 54.8162 498.511 52.9402V44.1482Z" fill="white"/>
<path d="M191.792 55.3762V49.7482H200.164V46.5282H191.792V41.6002H201.228V38.3522H191.792V33.3122H188.292V38.3522H183.98C184.456 37.0642 184.904 35.7482 185.296 34.4042L181.852 33.6482C180.9 37.4562 179.08 41.3202 176.896 43.6722C177.736 44.1202 179.22 45.1282 179.892 45.6602C180.816 44.5682 181.684 43.1402 182.496 41.6002H188.292V46.5282H180.704V49.7482H188.292V55.3762H177.484V58.6522H202.656V55.3762H191.792Z" stroke="#284273" stroke-width="6" stroke-linecap="round" mask="url(#path-5-outside-1)"/>
<path d="M219.064 36.4482C217.86 35.6642 215.424 34.4322 213.856 33.6482L211.98 36.0562C213.604 36.9802 215.984 38.2962 217.076 39.1362L219.064 36.4482ZM217.72 44.0082C216.488 43.2522 213.996 42.0482 212.456 41.2922L210.664 43.7562C212.316 44.6522 214.724 45.9682 215.872 46.7802L217.72 44.0082ZM213.856 59.1282C215.564 56.4122 217.328 53.2202 218.812 50.2802L216.376 48.0402C214.696 51.2882 212.54 54.7602 211.056 56.8602L213.856 59.1282ZM232.028 55.2642H223.628V51.1482H232.028V55.2642ZM236.592 44.5962V41.4042H229.48V37.5682C231.664 37.1482 233.764 36.5882 235.556 35.9162L233.008 33.2842C229.928 34.5162 224.664 35.4402 219.904 35.9162C220.296 36.6722 220.744 37.9602 220.884 38.7722C222.62 38.6042 224.496 38.4082 226.316 38.1282V41.4042H218.868V44.5962H226.316V48.1242H220.604V59.4362H223.628V58.2882H232.028V59.2962H235.192V48.1242H229.48V44.5962H236.592Z" stroke="#284273" stroke-width="6" stroke-linecap="round" mask="url(#path-5-outside-1)"/>
<path d="M246.448 47.0882C247.204 44.9602 247.624 41.6562 247.652 39.1082L245.132 38.8002C245.02 41.1802 244.6 44.2882 243.9 46.1082L246.448 47.0882ZM254.736 42.8882C254.372 41.6282 253.448 39.4722 252.72 37.8482L251.04 38.5482V33.2562H247.82V59.4362H251.04V40.5922C251.544 41.8802 251.992 43.1682 252.216 44.1202L254.736 42.8882ZM263.36 52.4922H269.044V49.5242H263.36V46.9482H260.028V49.5242H254.232V52.4922H260.028V55.7962H252.972V58.7922H270.276V55.7962H263.36V52.4922ZM264.536 37.3722C263.78 38.6882 262.828 39.8082 261.708 40.8162C260.504 39.8082 259.496 38.6602 258.74 37.3722H264.536ZM266.776 34.3482L266.188 34.4602H254.232V37.3722H256.724L255.604 37.7362C256.556 39.5842 257.76 41.2362 259.16 42.6082C257.144 43.7562 254.848 44.5682 252.328 45.0162C252.916 45.6882 253.644 46.9762 253.98 47.8162C256.836 47.1162 259.44 46.1082 261.708 44.7082C263.668 45.9962 265.936 47.0042 268.54 47.6762C269.016 46.8082 269.94 45.4642 270.612 44.8202C268.288 44.3442 266.188 43.6162 264.396 42.6082C266.384 40.7322 267.924 38.3242 268.904 35.2442L266.776 34.3482Z" stroke="#284273" stroke-width="6" stroke-linecap="round" mask="url(#path-5-outside-1)"/>
<path d="M303.568 52.8842V49.9722H291.864C291.976 49.4122 292.06 48.8522 292.116 48.2642H303.26V45.2962H292.452V43.8682H301.02V41.0682H292.452V39.6402H302.14V36.7002H296.96C297.52 35.9722 298.192 35.0762 298.864 34.0962L295.28 33.2002C294.86 34.1802 294.048 35.5802 293.376 36.4762L294.16 36.7002H287.216L287.86 36.4202C287.496 35.4682 286.656 34.1522 285.788 33.2282L282.82 34.3762C283.38 35.0482 283.94 35.9162 284.304 36.7002H279.46V39.6402H289.036V41.0682H280.748V43.8682H289.036V45.2962H278.34V48.2642H288.588C288.504 48.8802 288.42 49.4402 288.308 49.9722H278.172V52.8842H287.02C285.62 54.5922 282.988 55.7122 277.668 56.4122C278.284 57.1402 279.068 58.5122 279.32 59.4082C286.236 58.2882 289.344 56.3002 290.828 53.3042C293.012 56.9722 296.4 58.7922 302.168 59.4642C302.588 58.5402 303.428 57.1402 304.156 56.3842C299.424 56.0762 296.232 55.0122 294.272 52.8842H303.568Z" stroke="#284273" stroke-width="6" stroke-linecap="round" mask="url(#path-5-outside-1)"/>
<path d="M319.164 41.9082C318.828 44.7642 318.296 47.2842 317.484 49.4682C316.784 48.9642 316.084 48.4882 315.412 48.0682C315.86 46.1082 316.308 44.0362 316.756 41.9082H319.164ZM320.48 38.7722L319.92 38.8562H317.4C317.764 37.0362 318.1 35.2442 318.38 33.5922L315.244 33.3122C314.992 35.0202 314.656 36.9242 314.292 38.8562H311.52V41.9082H313.704C313.032 45.1562 312.332 48.2922 311.688 50.5882L314.432 52.0162L314.656 51.1482C315.16 51.5122 315.664 51.9042 316.168 52.2962C314.992 54.3402 313.48 55.9082 311.604 56.8882C312.276 57.5042 313.144 58.6802 313.592 59.5202C315.664 58.2322 317.344 56.5802 318.688 54.3962C319.696 55.3482 320.564 56.2722 321.152 57.0562L323.168 54.3682C322.468 53.4722 321.376 52.4642 320.144 51.4562C321.432 48.2362 322.188 44.1762 322.496 39.0802L320.48 38.7722ZM337.504 44.3722H331.344V42.7762C333.304 40.9282 335.376 38.3242 336.86 36.1402L334.676 34.5162L334.004 34.6842H323.056V37.7642H331.764C330.98 38.9402 330 40.1722 329.076 41.1242H328.04V44.3722H322.132V47.5082H328.04V55.6842C328.04 56.0762 327.9 56.1882 327.424 56.1882C326.976 56.2162 325.492 56.1882 324.064 56.1322C324.54 57.0562 325.1 58.4842 325.268 59.4082C327.312 59.4362 328.824 59.3242 329.944 58.7922C331.036 58.2882 331.344 57.3922 331.344 55.7122V47.5082H337.504V44.3722Z" stroke="#284273" stroke-width="6" stroke-linecap="round" mask="url(#path-5-outside-1)"/>
<path d="M377.915 53.1642V55.7962H370.971V53.1642H377.915ZM367.975 59.4362H370.971V58.4282H377.915V59.3242H381.051V50.5322H367.975V59.4362ZM371.391 46.2202C372.595 45.1002 373.631 43.9242 374.331 42.8322C375.115 43.9522 376.235 45.1282 377.467 46.2202H371.391ZM372.707 39.9762C372.595 40.1442 372.483 40.3402 372.371 40.5362V38.6602H376.627V40.9002H379.763V38.6602H383.039V35.8322H379.763V33.3122H376.627V35.8322H372.371V33.3122H369.291V35.8322H366.183V38.6602H369.291V40.8162H372.175C370.831 42.7762 368.647 44.8762 366.295 46.3042L366.043 44.5402L363.999 45.1002V41.6282H366.155V38.5762H363.999V33.3122H360.807V38.5762H357.559V41.6282H360.807V45.9682C359.379 46.3602 358.063 46.6962 356.999 46.9202L357.699 50.1402C358.651 49.8602 359.715 49.5522 360.807 49.2442V55.6562C360.807 56.0762 360.667 56.1882 360.331 56.1882C359.967 56.2162 358.819 56.2162 357.727 56.1602C358.147 57.0842 358.567 58.5122 358.651 59.4082C360.583 59.4082 361.899 59.2962 362.823 58.7362C363.719 58.2322 363.999 57.3362 363.999 55.6842V48.2642L365.427 47.8162C365.847 48.4322 366.211 49.1882 366.435 49.7202C367.723 49.0762 368.955 48.2642 370.103 47.3402V48.8522H378.783V47.2842C379.847 48.1242 380.967 48.8242 382.059 49.3842C382.507 48.4322 383.151 47.2282 383.795 46.4722C380.771 45.2962 377.747 42.8042 375.731 39.9762H372.707Z" stroke="#284273" stroke-width="6" stroke-linecap="round" mask="url(#path-5-outside-1)"/>
<path d="M404.347 36.5602H410.535V38.2962H406.027V42.6642H404.347V36.5602ZM410.535 42.6642H408.351V40.3682H410.535V42.6642ZM408.603 50.3922H406.083V48.4602H408.603V50.3922ZM402.275 45.1842H412.551V51.9882C412.551 52.2682 412.467 52.3522 412.159 52.3522C411.991 52.3522 411.543 52.3522 411.011 52.3522V46.3602H403.703V53.3602H406.083V52.5202H410.311C410.619 53.2202 410.899 54.2002 410.983 54.9282C412.523 54.9282 413.643 54.9002 414.483 54.4802C415.351 54.0322 415.575 53.3042 415.575 52.0162V42.6642H413.531V34.0962H401.463V42.6642H399.391V54.8442H402.275V45.1842ZM398.131 38.4362C397.235 37.0922 395.303 35.2442 393.735 33.9842L391.187 35.8882C392.755 37.2322 394.603 39.1642 395.387 40.5362L398.131 38.4362ZM397.375 44.1482H391.075V47.2002H394.211V53.3042C393.091 54.2562 391.831 55.1802 390.739 55.8802L392.307 59.1842C393.735 57.9802 394.883 56.9162 396.003 55.8242C397.683 57.9802 399.923 58.7922 403.255 58.9322C406.671 59.0722 412.607 59.0162 416.079 58.8482C416.247 57.9242 416.723 56.3842 417.115 55.6002C413.251 55.9082 406.643 55.9922 403.283 55.8522C400.427 55.7402 398.467 54.9562 397.375 53.0802V44.1482Z" stroke="#284273" stroke-width="6" stroke-linecap="round" mask="url(#path-5-outside-1)"/>
<path d="M449.847 41.5442V38.2682H439.711L439.683 33.2562L436.155 33.2842L436.183 38.2682H425.291V41.5442H436.211L436.239 47.6202C432.599 49.3842 428.399 50.8682 424.311 51.8202C424.899 52.6042 425.711 54.0322 426.131 54.9562C429.603 54.0322 433.047 52.8282 436.267 51.3442L436.295 55.2922C436.295 55.8522 436.127 56.0202 435.511 56.0482C434.895 56.0482 432.879 56.0762 431.003 55.9922C431.507 56.9442 432.095 58.4842 432.291 59.4642C435.007 59.4362 436.939 59.3522 438.171 58.7922C439.431 58.2322 439.851 57.3082 439.823 55.2922L439.795 49.6082C442.763 48.0122 445.451 46.1642 447.635 44.2042L444.359 42.1602C443.155 43.3642 441.587 44.5682 439.767 45.6882L439.739 41.5442H449.847Z" stroke="#284273" stroke-width="6" stroke-linecap="round" mask="url(#path-5-outside-1)"/>
<path d="M471.379 47.4802V44.3442H466.787V43.6722V39.8922H470.735V36.8122H463.343C463.623 35.8602 463.847 34.9082 464.043 33.9282L460.851 33.2842C460.291 36.4762 459.227 39.6962 457.715 41.7122C458.471 42.1322 459.787 43.0842 460.403 43.6442C461.103 42.6082 461.747 41.3202 462.307 39.8922H463.427V43.6442V44.3442H458.247V47.4802H463.203C462.755 50.7282 461.467 54.2282 457.827 56.8322C458.527 57.3362 459.759 58.6522 460.207 59.3522C462.895 57.3922 464.547 54.7602 465.499 52.0162C466.871 53.7242 468.467 55.8242 469.391 57.2802L471.631 54.4802C470.847 53.5562 467.823 50.0562 466.367 48.6282C466.451 48.2642 466.507 47.8722 466.563 47.4802H471.379ZM475.355 53.4722V38.8282H479.415V53.4722H475.355ZM472.135 35.6922V58.6242H475.355V56.6082H479.415V58.2042H482.803V35.6922H472.135Z" stroke="#284273" stroke-width="6" stroke-linecap="round" mask="url(#path-5-outside-1)"/>
<path d="M512.147 44.3722H504.559V42.9162H512.147V44.3722ZM512.147 48.0402H504.559V46.5842H512.147V48.0402ZM512.147 51.7362H504.559V50.2522H512.147V51.7362ZM501.395 40.5082V54.1442H515.451V40.5082H509.151C509.375 40.0322 509.627 39.5282 509.851 38.9962H517.327V36.3082H513.043C513.491 35.6362 513.995 34.8242 514.499 33.9842L511.195 33.2842C510.859 34.1522 510.243 35.4122 509.711 36.3082H506.211L506.547 36.1682C506.267 35.3562 505.483 34.1522 504.727 33.3122L502.095 34.2922C502.571 34.8802 503.047 35.6362 503.383 36.3082H499.491V38.9962H506.267C506.183 39.5002 506.099 40.0042 505.987 40.5082H501.395ZM499.211 38.1562C498.259 36.8402 496.215 35.1042 494.535 33.9282L492.071 35.9442C493.723 37.1762 495.711 39.0242 496.579 40.3682L499.211 38.1562ZM498.511 44.1482H492.043V47.2002H495.263V53.1082C494.031 54.0602 492.631 54.9842 491.427 55.6842L493.051 59.1562C494.591 57.9802 495.823 56.8882 497.055 55.7962C498.875 57.9802 501.171 58.7642 504.615 58.9042C507.947 59.0442 513.575 58.9882 516.935 58.8202C517.103 57.8682 517.607 56.2442 517.971 55.4602C514.247 55.7402 507.947 55.8242 504.671 55.6842C501.759 55.5722 499.659 54.8162 498.511 52.9402V44.1482Z" stroke="#284273" stroke-width="6" stroke-linecap="round" mask="url(#path-5-outside-1)"/>
</svg>
