<svg width="797" height="97" viewBox="0 0 797 97" fill="none" xmlns="http://www.w3.org/2000/svg">
<path d="M79.5166 1.17703C79.5166 0.526974 80.0436 0 80.6936 0H794.17C796.328 0 797.097 2.85338 795.233 3.93872L754.373 27.7194C730.914 41.3728 716.483 66.4688 716.483 93.6116C716.483 95.4829 714.966 97 713.095 97H2.18023C0.265009 97 -0.303478 94.3924 1.43796 93.5952L27.9822 81.4444C59.3812 67.0713 79.5166 35.7095 79.5166 1.17703Z" fill="#469BFF"/>
<path d="M202.18 38.8392H205.991V37.0262H209.469V38.8392H213.354V37.0262H217.276V33.8442H213.354V31.6982H209.469V33.8442H205.991V31.6982H202.18V33.8442H198.443V37.0262H202.18V38.8392ZM211.393 61.6312V60.2252H215.426V57.6352H211.393V56.2292H215.426V53.6392H211.393V52.1962H216.425V49.3102H211.726L212.799 47.3862L209.802 46.7572H215.204C216.203 47.3492 217.942 48.6812 218.682 49.4212C219.866 47.4972 220.865 45.0552 221.679 42.3172H222.049V46.2392C222.086 49.6062 221.124 56.9692 215.944 61.6312H211.393ZM204.696 60.2252H207.73V61.6312H204.696V60.2252ZM204.696 53.6392V52.1962H207.73V53.6392H204.696ZM204.696 56.2292H207.73V57.6352H204.696V56.2292ZM211.097 42.0212H213.206V44.1672H211.097V42.0212ZM202.18 42.0212H204.104V44.1672H202.18V42.0212ZM226.267 42.3172H228.302C228.117 44.3152 227.895 46.3132 227.599 47.7932L230.707 49.5692C231.595 46.7942 232.261 42.6872 232.668 39.0982L229.745 38.0622L229.116 38.3212H222.678C223.122 36.3232 223.455 34.2882 223.714 32.1792L219.385 31.6242C218.904 36.4342 217.905 41.2072 216.24 44.7222V39.3942H208.211V46.7572H208.877C208.692 47.4972 208.396 48.4592 208.063 49.3102H205.251C205.473 48.6442 205.695 48.0152 205.917 47.3492L203.697 46.7572H207.101V39.3942H199.294V46.7572H202.217C201.255 50.0502 199.553 53.2322 197.629 55.3042C198.295 56.1182 199.405 57.9682 199.812 58.7822C200.219 58.3382 200.626 57.8572 200.996 57.3762V66.0712H204.696V64.6282H216.314V64.5912C216.684 65.1832 217.054 65.7752 217.276 66.1822C221.642 62.9262 223.751 56.8952 224.195 53.6762C224.602 56.8212 226.378 63.0372 230.337 66.1822C230.966 65.1092 232.187 63.3332 232.964 62.4082C227.414 57.8942 226.267 49.7542 226.267 46.2392V42.3172Z" fill="white"/>
<path d="M271.259 58.7082C270.075 59.4482 268.632 60.0772 267.078 60.5952C265.45 60.0772 264.044 59.4482 262.897 58.7082H271.259ZM256.274 55.7852C258.013 54.6012 259.16 52.8252 259.9 51.1232L256.977 49.8652C256.311 51.2712 255.164 52.7882 253.795 53.7502C253.943 52.3072 254.054 50.8642 254.128 49.4952H263.896L263.489 49.7912C264.784 50.4202 266.449 51.6412 267.226 52.4922L269.631 50.6422C269.261 50.3092 268.706 49.9022 268.114 49.4952H277.401C277.142 50.2722 276.846 51.0122 276.55 51.6412C275.81 50.9012 274.996 50.1612 274.219 49.5692L271.518 50.9752C271.925 51.3082 272.332 51.7152 272.739 52.1222C271.851 51.9002 270.741 51.5672 270.149 51.1972C270.001 52.5292 269.816 52.7512 268.928 52.7512H265.043C263.859 52.7512 263.637 52.6402 263.637 51.8632V50.2352H260.159V51.9002C260.159 53.6022 260.529 54.4902 261.787 54.9342C259.752 56.3772 256.755 57.7832 252.944 58.8562C253.277 57.3022 253.536 55.6742 253.721 54.0832L256.274 55.7852ZM259.049 37.1372V38.8762H254.239V37.1372H259.049ZM267.411 38.8762H262.86V37.1372H267.411V38.8762ZM275.921 41.2812V43.0202H271.333V41.2812H275.921ZM262.86 41.2812H267.411V43.0202H262.86V41.2812ZM259.049 43.0202H254.239V41.2812H259.049V43.0202ZM274.996 56.1922L274.33 56.3402H264.895C265.339 55.9702 265.783 55.6002 266.19 55.2302H269.409C271.703 55.2302 272.628 54.6012 272.924 52.3072C273.997 53.3802 274.922 54.5272 275.44 55.4152L278.326 53.8612C277.993 53.3432 277.512 52.7142 276.957 52.0852L279.88 52.7142C280.657 51.2712 281.508 49.1252 282.211 47.2012L279.362 46.5722L278.733 46.6832H254.239V45.4992H279.954V38.8762H271.333V37.1372H281.249V33.8442H268.151V31.6982H263.563V33.8442H250.243V44.8332C250.243 50.3832 249.984 58.2272 246.987 63.6662C247.912 64.1102 249.651 65.3682 250.354 66.1082C251.538 64.0732 252.352 61.5942 252.944 58.9672C253.647 59.5222 254.683 60.6692 255.127 61.4092C256.607 60.8912 257.976 60.3362 259.234 59.7442C260.159 60.5582 261.195 61.2612 262.342 61.8902C259.271 62.5192 255.941 62.9632 252.685 63.1852C253.277 63.9622 253.98 65.2942 254.313 66.1822C258.568 65.7382 262.934 64.9982 266.856 63.8142C270.63 65.0722 275.033 65.8122 279.769 66.1822C280.25 65.1832 281.175 63.7032 281.915 62.8892C278.4 62.7412 274.996 62.4082 271.962 61.8162C274.182 60.7432 276.069 59.3742 277.475 57.7462L274.996 56.1922Z" fill="white"/>
<path d="M315.104 59.9662V47.1642H328.165V42.6872H315.104V32.1052H310.368V59.9662H297.122V64.4062H330.755V59.9662H315.104Z" fill="white"/>
<path d="M380.076 40.6152V36.3232H365.387V31.5132H360.688V36.3232H346.332V40.6152H360.725V44.5002H349.81V61.7792H354.25V48.7922H360.725V66.2562H365.313V48.7922H372.38V56.9322C372.38 57.3392 372.195 57.5242 371.603 57.5242C371.011 57.5242 368.828 57.5242 366.978 57.4502C367.607 58.6342 368.273 60.5212 368.458 61.7792C371.344 61.7792 373.453 61.7052 375.007 61.0392C376.524 60.3732 376.968 59.1152 376.968 57.0062V44.5002H365.313V40.6152H380.076Z" fill="white"/>
<path d="M427.112 33.0672L426.483 33.2522H417.751V66.2192H421.858V37.1742H425.114C424.448 39.7642 423.597 43.0942 422.82 45.4622C425.003 47.9412 425.558 50.2352 425.558 51.9742C425.558 53.0102 425.336 53.7132 424.892 54.0462C424.559 54.2682 424.226 54.3792 423.819 54.3792C423.338 54.3792 422.783 54.3792 422.08 54.3422C422.709 55.4522 423.042 57.1542 423.079 58.2642C424.004 58.2642 424.892 58.3012 425.632 58.1902C426.446 58.0422 427.223 57.8202 427.815 57.3392C428.999 56.5252 429.554 54.9712 429.517 52.5292C429.517 50.3832 429.073 47.8302 426.668 44.9812C427.815 42.0952 429.073 38.0252 430.109 34.8062L427.112 33.0672ZM435.4 43.6122H443.984V46.7202H435.4V43.6122ZM443.984 37.1002V40.0232H435.4V37.1002H443.984ZM446.648 50.7532C445.797 51.9002 444.539 53.2322 443.318 54.4162C442.763 53.1952 442.282 51.8632 441.912 50.4942H448.35V33.2892H431.182V60.7802C429.739 61.0022 428.444 61.2242 427.334 61.3722L428.777 65.6272C432.255 64.8502 436.806 63.9252 441.061 62.9262L440.728 59.0782C438.952 59.4112 437.139 59.7442 435.4 60.0402V50.4942H438.064C439.729 57.7092 442.615 63.2222 448.054 66.1082C448.646 64.9242 449.941 63.2592 450.903 62.3712C448.498 61.2982 446.574 59.6332 445.094 57.5242C446.685 56.3032 448.498 54.7122 450.089 53.1952L446.648 50.7532Z" fill="white"/>
<path d="M474.028 37.8402V44.3522H470.624V37.8402H474.028ZM470.624 55.1562V48.2002H474.028V55.1562H470.624ZM478.135 33.9182H466.554V62.3342H470.624V59.0782H478.135V33.9182ZM480.318 55.9702C481.983 57.8572 483.87 60.4842 484.536 62.1862L488.31 60.0032C487.533 58.1902 485.535 55.7482 483.833 53.9352L480.318 55.9702ZM499.891 46.4982V42.6502H491.455V39.3942H498.855V35.5462H491.455V31.6612H487.126V35.5462H480.022V39.3942H487.126V42.6502H478.764V46.4982H491.825V49.6802H478.838V53.4912H491.825V61.4462C491.825 61.9642 491.64 62.1122 491.048 62.1122C490.493 62.1122 488.421 62.1122 486.645 62.0382C487.237 63.2222 487.903 64.9612 488.051 66.1822C490.789 66.1822 492.787 66.0712 494.23 65.4422C495.673 64.7762 496.08 63.6662 496.08 61.5572V53.4912H499.632V49.6802H496.08V46.4982H499.891Z" fill="white"/>
<path d="M525.865 35.8422C524.274 34.8062 521.055 33.1782 518.983 32.1422L516.504 35.3242C518.65 36.5452 521.795 38.2842 523.238 39.3942L525.865 35.8422ZM524.089 45.8322C522.461 44.8332 519.168 43.2422 517.133 42.2432L514.765 45.4992C516.948 46.6832 520.13 48.4222 521.647 49.4952L524.089 45.8322ZM518.983 65.8122C521.24 62.2232 523.571 58.0052 525.532 54.1202L522.313 51.1602C520.093 55.4522 517.244 60.0402 515.283 62.8152L518.983 65.8122ZM542.996 60.7062H531.896V55.2672H542.996V60.7062ZM549.027 46.6092V42.3912H539.629V37.3222C542.515 36.7672 545.29 36.0272 547.658 35.1392L544.291 31.6612C540.221 33.2892 533.265 34.5102 526.975 35.1392C527.493 36.1382 528.085 37.8402 528.27 38.9132C530.564 38.6912 533.043 38.4322 535.448 38.0622V42.3912H525.606V46.6092H535.448V51.2712H527.9V66.2192H531.896V64.7022H542.996V66.0342H547.177V51.2712H539.629V46.6092H549.027Z" fill="white"/>
<path d="M575.297 58.5602H581.994V55.4522H575.297V54.0092H581.846V42.5762H575.297V41.1332H582.401V44.0192H585.768C585.509 50.6422 584.621 55.9332 581.735 59.9292C579.589 60.1142 577.406 60.2992 575.297 60.4472V58.5602ZM568.415 51.2712V49.6062H571.301V51.2712H568.415ZM578.183 49.6062V51.2712H575.297V49.6062H578.183ZM575.297 46.9792V45.3512H578.183V46.9792H575.297ZM568.415 45.3512H571.301V46.9792H568.415V45.3512ZM590.06 39.9862C590.134 37.5442 590.134 34.9542 590.134 32.2532H585.916C585.916 34.9912 585.916 37.5442 585.879 39.9862H582.401V37.9512H575.297V36.1382C577.702 35.8792 579.996 35.5462 581.957 35.1392L580.033 31.8462C575.963 32.7342 569.562 33.3632 564.086 33.6592C564.493 34.5102 564.9 35.8792 565.048 36.7672C567.046 36.7302 569.155 36.6192 571.301 36.4712V37.9512H564.012V41.1332H571.301V42.5762H564.937V54.0092H571.301V55.4522H564.789V58.5602H571.301V60.7802C568.452 60.9652 565.862 61.1502 563.79 61.2982L564.308 64.9982C568.304 64.6652 573.632 64.1102 578.96 63.5552C579.922 64.3692 580.995 65.5902 581.55 66.4782C587.766 61.5572 589.468 53.9352 589.949 44.0192H593.279C593.057 55.9702 592.687 60.4842 591.91 61.4832C591.577 61.9642 591.207 62.1122 590.652 62.1122C589.949 62.1122 588.543 62.0752 586.915 61.9272C587.655 63.1482 588.136 64.9242 588.21 66.1452C589.986 66.1822 591.688 66.2192 592.798 65.9972C594.019 65.7382 594.87 65.3682 595.721 64.1472C596.905 62.4452 597.201 57.0802 597.534 41.9472C597.534 41.4292 597.571 39.9862 597.571 39.9862H590.06Z" fill="white"/>
<path fill-rule="evenodd" clip-rule="evenodd" d="M193.294 40.1082V46.7572C193.294 47.933 193.632 49.0298 194.217 49.9556C193.887 50.4474 193.554 50.8747 193.232 51.2215C191.192 53.4182 191.087 56.7835 192.985 59.1036C192.985 59.1029 192.984 59.1025 192.984 59.1025C192.984 59.1025 193.006 59.1292 193.05 59.1899C193.097 59.2546 193.157 59.3401 193.23 59.4465C193.375 59.6611 193.542 59.9199 193.714 60.1977C194.079 60.789 194.355 61.2848 194.445 61.4655C194.604 61.7823 194.788 62.0816 194.996 62.3609V66.0712C194.996 69.3849 197.682 72.0712 200.996 72.0712H204.696C206.186 72.0712 207.55 71.5277 208.599 70.6282H213.247C214.015 71.3242 214.959 71.8173 215.994 72.0436C217.693 72.4152 219.469 72.0315 220.863 70.9919C222.001 70.1431 223.007 69.1891 223.893 68.1834C224.68 69.1481 225.579 70.065 226.605 70.8802C227.966 71.9616 229.73 72.3994 231.438 72.0802C233.147 71.761 234.634 70.7163 235.513 69.2165C236.007 68.3748 237.038 66.8863 237.558 66.2673C238.592 65.0363 239.089 63.4417 238.937 61.8411C238.785 60.2405 237.997 58.7679 236.75 57.7534C235.729 56.923 234.879 55.7919 234.198 54.4491C235.238 53.7053 236.024 52.6402 236.422 51.3978C237.497 48.0372 238.213 43.4468 238.63 39.7743C238.944 37.0001 237.304 34.3756 234.672 33.4429L231.749 32.4069C231.09 32.1733 230.401 32.0587 229.714 32.0623C229.66 29.133 227.466 26.6111 224.477 26.2279L220.148 25.6729C218.807 25.5009 217.455 25.7879 216.307 26.4739C215.435 25.9801 214.427 25.6982 213.354 25.6982H209.469C208.864 25.6982 208.28 25.7876 207.73 25.9541C207.18 25.7876 206.596 25.6982 205.991 25.6982H202.18C200.301 25.6982 198.624 26.562 197.523 27.9142C194.646 28.3567 192.443 30.8432 192.443 33.8442V37.0262C192.443 38.1531 192.754 39.2074 193.294 40.1082ZM198.443 33.8442V37.0262H202.18V38.8392H205.991V37.0262H209.469V38.8392H213.354V37.0262H217.276V33.8442H213.354V31.6982H209.469V33.8442H205.991V31.6982H202.18V33.8442H198.443ZM218.93 35.172C218.831 35.797 218.723 36.416 218.604 37.0262C218.594 37.0787 218.583 37.1312 218.573 37.1837C218.559 37.2557 218.544 37.3276 218.53 37.3993C218.437 37.8547 218.339 38.3048 218.236 38.7484C218.229 38.7787 218.221 38.8089 218.214 38.8392C218.17 39.0254 218.125 39.2104 218.079 39.3942C217.932 39.9786 217.775 40.5504 217.607 41.1066C217.593 41.1517 217.58 41.1967 217.566 41.2416C217.551 41.2904 217.536 41.339 217.521 41.3876C217.454 41.6012 217.386 41.8125 217.316 42.0212C217.302 42.0604 217.289 42.0994 217.276 42.1384C217.256 42.1982 217.235 42.2578 217.215 42.3172C217.176 42.4285 217.137 42.5391 217.097 42.6489C217.051 42.7757 217.005 42.9015 216.957 43.0262C216.954 43.0347 216.951 43.0432 216.948 43.0517C216.913 43.1432 216.878 43.2342 216.842 43.3245C216.769 43.5103 216.695 43.6935 216.619 43.8739C216.577 43.9725 216.535 44.0703 216.493 44.1672C216.47 44.2185 216.448 44.2696 216.425 44.3204C216.364 44.4561 216.303 44.59 216.24 44.7222V39.3942H208.211V46.7572H208.877C208.813 47.0138 208.735 47.2972 208.648 47.5934C208.589 47.7902 208.526 47.9927 208.46 48.1968C208.444 48.2459 208.428 48.295 208.411 48.3442C208.347 48.5362 208.28 48.7287 208.211 48.9184C208.163 49.0508 208.113 49.1817 208.063 49.3102H205.251C205.361 48.9803 205.471 48.6596 205.581 48.3389C205.582 48.3358 205.583 48.3328 205.584 48.3297C205.645 48.1517 205.706 47.9738 205.767 47.7943C205.785 47.7427 205.802 47.691 205.82 47.6392C205.852 47.5432 205.885 47.4466 205.917 47.3492L203.697 46.7572H207.101V39.3942H199.294V46.7572H202.217C202.215 46.764 202.213 46.7708 202.211 46.7776C202.201 46.8126 202.19 46.8476 202.18 46.8826C202.053 47.3072 201.915 47.7297 201.765 48.1481C201.533 48.7948 201.275 49.4314 200.994 50.05C200.783 50.5159 200.559 50.9716 200.324 51.4138C200.284 51.4884 200.244 51.5627 200.204 51.6365C200.118 51.7944 200.03 51.9504 199.941 52.1043C199.924 52.135 199.906 52.1657 199.888 52.1962C199.777 52.3864 199.664 52.5735 199.549 52.7572C199.359 53.0611 199.165 53.3555 198.965 53.6392C198.88 53.7609 198.794 53.8807 198.707 53.9983C198.445 54.3515 198.177 54.6858 197.905 54.9981C197.813 55.1026 197.721 55.2047 197.629 55.3042C197.929 55.6714 198.32 56.2493 198.696 56.8479C198.806 57.0238 198.916 57.2015 199.021 57.3762C199.073 57.4635 199.125 57.55 199.175 57.6352C199.195 57.6692 199.215 57.703 199.235 57.7366C199.475 58.1468 199.68 58.5187 199.812 58.7822C200.048 58.5251 200.283 58.2557 200.512 57.981C200.518 57.9733 200.524 57.9656 200.531 57.9579C200.62 57.851 200.707 57.7432 200.793 57.6352C200.862 57.549 200.93 57.4626 200.996 57.3762V66.0712H204.696V64.6282H216.314V64.5912C216.322 64.6035 216.329 64.6159 216.337 64.6282C216.64 65.1123 216.94 65.5938 217.158 65.9715C217.2 66.046 217.24 66.1165 217.276 66.1822C217.483 66.028 217.684 65.8675 217.881 65.7015C218.208 65.4252 218.522 65.1334 218.822 64.8287C218.887 64.7624 218.951 64.6956 219.015 64.6282C219.027 64.6159 219.039 64.6035 219.05 64.5912C219.612 63.9944 220.124 63.3529 220.589 62.6861C220.822 62.3525 221.042 62.0127 221.251 61.6688C221.303 61.5841 221.353 61.499 221.404 61.4138C221.972 60.4473 222.45 59.4546 222.842 58.4885C223.58 56.6743 224.019 54.9538 224.195 53.6762C224.359 54.944 224.746 56.7109 225.408 58.5745C225.705 59.4101 226.057 60.2651 226.47 61.1033C226.764 61.7004 227.089 62.289 227.445 62.8559C228.179 64.0215 229.05 65.0956 230.072 65.9642C230.159 66.0384 230.247 66.1111 230.337 66.1822C230.901 65.2193 231.943 63.6904 232.712 62.7183C232.8 62.6071 232.884 62.5031 232.964 62.4082C232.851 62.316 232.739 62.2223 232.629 62.1272C231.275 60.9526 230.197 59.5583 229.341 58.0765C228.735 57.0261 228.241 55.9318 227.841 54.8406C227.822 54.7883 227.803 54.736 227.784 54.6838C227.72 54.5042 227.658 54.3247 227.599 54.1456C227.501 53.8528 227.411 53.561 227.326 53.271C227.306 53.2009 227.285 53.1308 227.266 53.0609C226.928 51.8665 226.694 50.7078 226.538 49.6496C226.469 49.1842 226.416 48.7382 226.375 48.3172C226.371 48.2707 226.366 48.2246 226.362 48.1788C226.359 48.1446 226.356 48.1105 226.353 48.0767C226.337 47.8909 226.323 47.7104 226.312 47.5357C226.308 47.4806 226.305 47.4261 226.302 47.3722C226.278 46.9568 226.267 46.5767 226.267 46.2392V42.3172H228.302C228.254 42.8353 228.204 43.3535 228.15 43.8626C228.134 44.0163 228.117 44.1693 228.1 44.3212C228.084 44.4738 228.066 44.6253 228.049 44.7755C227.993 45.2587 227.933 45.7281 227.869 46.1752C227.866 46.1966 227.863 46.2179 227.86 46.2392C227.78 46.7985 227.693 47.3221 227.599 47.7932L230.707 49.5692C230.817 49.225 230.924 48.8604 231.027 48.4788C231.216 47.7817 231.393 47.028 231.557 46.2392C231.745 45.3408 231.917 44.397 232.073 43.4394C232.115 43.1862 232.155 42.932 232.194 42.6775C232.212 42.5575 232.23 42.4373 232.248 42.3172C232.409 41.2307 232.55 40.1425 232.668 39.0982L229.745 38.0622L229.116 38.3212H222.678C222.694 38.2481 222.71 38.1749 222.726 38.1017C222.78 37.8559 222.832 37.6095 222.882 37.3625C222.905 37.2505 222.927 37.1384 222.949 37.0262C222.99 36.8191 223.03 36.6116 223.069 36.4035C223.142 36.0136 223.21 35.6219 223.276 35.2282C223.397 34.5008 223.506 33.7665 223.606 33.0234C223.637 32.7902 223.667 32.5561 223.696 32.3212C223.702 32.2739 223.708 32.2266 223.714 32.1792L219.385 31.6242C219.384 31.6319 219.383 31.6396 219.383 31.6473C219.373 31.7406 219.364 31.8339 219.354 31.9272C219.287 32.5683 219.211 33.2082 219.125 33.8442C219.113 33.9335 219.1 34.0227 219.088 34.1118C219.038 34.4668 218.986 34.8203 218.93 35.172ZM216.696 47.7738C216.605 47.7065 216.515 47.6402 216.425 47.5752C216.289 47.4769 216.155 47.3816 216.024 47.2909C215.724 47.0828 215.443 46.8988 215.204 46.7572H209.802L212.799 47.3862L211.726 49.3102H216.425V52.1962H211.393V53.6392H215.426V56.2292H211.393V57.6352H215.426V60.2252H211.393V61.6312H215.944C216.07 61.518 216.193 61.4031 216.314 61.2868C216.669 60.9451 217.003 60.5904 217.317 60.2252C217.676 59.8079 218.009 59.3769 218.318 58.9358C218.54 58.6183 218.75 58.2955 218.948 57.9689C219.015 57.8581 219.081 57.7468 219.145 57.6352C219.17 57.5928 219.194 57.5504 219.218 57.5079C219.457 57.086 219.677 56.6588 219.879 56.2292C220.041 55.8838 220.192 55.5367 220.333 55.1896C220.418 54.9787 220.5 54.7678 220.577 54.5572C220.631 54.4127 220.682 54.2684 220.732 54.1244C220.788 53.9623 220.841 53.8005 220.893 53.6392C220.936 53.5051 220.977 53.3713 221.017 53.2379C221.037 53.1744 221.055 53.111 221.074 53.0477C221.146 52.7982 221.214 52.5503 221.277 52.3045C221.286 52.2683 221.295 52.2322 221.304 52.1962C221.391 51.852 221.468 51.5123 221.538 51.1785C221.661 50.5813 221.758 50.0032 221.833 49.4535C221.84 49.4055 221.846 49.3577 221.852 49.3102C221.897 48.9669 221.933 48.6351 221.961 48.3172C221.968 48.2438 221.974 48.1711 221.98 48.0992C222.006 47.7756 222.024 47.4675 222.035 47.1775C222.042 47.0062 222.046 46.8412 222.048 46.683C222.048 46.66 222.049 46.6371 222.049 46.6144C222.05 46.5531 222.05 46.4928 222.05 46.4335C222.05 46.3674 222.05 46.3026 222.049 46.2392V42.3172H221.679C221.539 42.7885 221.393 43.251 221.242 43.7036C221.197 43.8404 221.15 43.9762 221.104 44.111C221.033 44.317 220.96 44.5207 220.887 44.7222C220.836 44.8607 220.785 44.9981 220.733 45.1344C220.59 45.5114 220.443 45.88 220.292 46.2392C220.289 46.2457 220.287 46.2521 220.284 46.2586C220.278 46.2718 220.273 46.2851 220.267 46.2983C220.228 46.3907 220.188 46.4825 220.149 46.5737C219.797 47.3818 219.422 48.1398 219.026 48.8387C218.935 48.999 218.843 49.1562 218.75 49.3102C218.727 49.3474 218.705 49.3844 218.682 49.4212C218.646 49.3855 218.608 49.3485 218.568 49.3102C218.547 49.2899 218.525 49.2693 218.503 49.2484C218.229 48.9928 217.871 48.6891 217.48 48.3778C217.227 48.176 216.961 47.971 216.696 47.7738ZM207.73 61.6312V60.2252H204.696V61.6312H207.73ZM207.73 57.6352V56.2292H204.696V57.6352H207.73ZM207.73 53.6392V52.1962H204.696V53.6392H207.73ZM211.097 42.0212V44.1672H213.206V42.0212H211.097ZM202.18 42.0212V44.1672H204.104V42.0212H202.18ZM274.97 62.306C274.991 62.3089 275.012 62.3117 275.034 62.3145C275.342 62.3554 275.652 62.3942 275.965 62.4309C277.285 62.5859 278.647 62.7044 280.034 62.7911C280.326 62.8094 280.62 62.8263 280.914 62.8418C281.246 62.8593 281.58 62.8751 281.915 62.8892C281.175 63.7032 280.25 65.1832 279.769 66.1822C278.818 66.1079 277.881 66.0187 276.959 65.9134C275.857 65.7875 274.778 65.6385 273.725 65.4645C273.116 65.3637 272.515 65.2545 271.924 65.1365C271.728 65.0972 271.532 65.057 271.338 65.0158C270.88 64.9188 270.429 64.8163 269.984 64.7082C269.412 64.569 268.85 64.4204 268.3 64.262C268.167 64.2236 268.034 64.1846 267.903 64.1451C267.549 64.039 267.2 63.9287 266.856 63.8142C266.691 63.864 266.525 63.9131 266.358 63.9614C266.23 63.9986 266.101 64.0353 265.972 64.0716C265.152 64.3017 264.315 64.5134 263.467 64.7082C263.293 64.7481 263.118 64.7873 262.943 64.8258C262.619 64.897 262.294 64.9658 261.967 65.0323C261.893 65.0475 261.818 65.0625 261.744 65.0774C261.318 65.1624 260.89 65.2436 260.461 65.3209C259.412 65.5099 258.353 65.6763 257.293 65.8224C257.236 65.8304 257.178 65.8383 257.12 65.8461C256.98 65.8652 256.84 65.8839 256.7 65.9022C255.903 66.0064 255.106 66.0994 254.313 66.1822C254.164 65.7841 253.94 65.2968 253.685 64.8103C253.583 64.6138 253.475 64.4175 253.365 64.2272C253.239 64.0106 253.111 63.8017 252.984 63.6095C252.883 63.456 252.782 63.3131 252.685 63.1852C252.954 63.1668 253.224 63.147 253.494 63.1256C253.598 63.1174 253.702 63.1089 253.806 63.1002C253.867 63.0951 253.928 63.09 253.99 63.0847C254.037 63.0807 254.084 63.0766 254.131 63.0724C254.639 63.0279 255.149 62.9781 255.657 62.9232C255.946 62.8919 256.235 62.8591 256.523 62.8246C257.088 62.757 257.651 62.6833 258.211 62.6035C258.247 62.5983 258.283 62.5931 258.32 62.5879C258.62 62.5447 258.92 62.4996 259.218 62.4529C259.62 62.3899 260.019 62.3239 260.415 62.2548C260.488 62.2421 260.561 62.2293 260.634 62.2164C260.897 62.1696 261.16 62.1214 261.42 62.0719C261.73 62.0132 262.037 61.9526 262.342 61.8902C262.253 61.8415 262.165 61.7925 262.078 61.7429C261.797 61.5838 261.524 61.4199 261.257 61.2508C260.85 60.9929 260.459 60.7226 260.084 60.4381C260.02 60.3902 259.958 60.3419 259.896 60.2932C259.669 60.1158 259.449 59.933 259.234 59.7442C259.167 59.7755 259.1 59.8068 259.033 59.8379C258.973 59.8658 258.912 59.8937 258.852 59.9215C258.755 59.9656 258.657 60.0096 258.559 60.0534C258.556 60.0547 258.553 60.0561 258.55 60.0575C258.464 60.0958 258.378 60.134 258.291 60.1721C258.191 60.2156 258.091 60.259 257.99 60.3021C257.735 60.4113 257.475 60.5191 257.212 60.6255C256.543 60.8955 255.848 61.1568 255.127 61.4092C255.116 61.3902 255.104 61.371 255.092 61.3515C254.96 61.1408 254.785 60.9007 254.586 60.6526C254.457 60.4909 254.317 60.3257 254.172 60.163C254.047 60.0223 253.918 59.8834 253.79 59.7502C253.758 59.7176 253.727 59.6853 253.695 59.6535C253.446 59.4014 253.201 59.1741 252.984 58.9994C252.971 58.9884 252.957 58.9777 252.944 58.9672C252.891 59.2007 252.837 59.433 252.781 59.664C252.738 59.8413 252.693 60.0178 252.648 60.1934C252.62 60.3031 252.591 60.4124 252.561 60.5213C252.546 60.5785 252.531 60.6355 252.515 60.6925C252.245 61.6783 251.937 62.632 251.581 63.5365C251.487 63.7781 251.388 64.0163 251.287 64.2506C251.239 64.3608 251.19 64.4703 251.141 64.5788C251.002 64.8823 250.858 65.1788 250.707 65.4677C250.673 65.5321 250.639 65.5962 250.605 65.6598C250.523 65.8115 250.44 65.961 250.354 66.1082C250.18 65.9249 249.942 65.7098 249.669 65.4831C249.049 64.9688 248.246 64.3949 247.59 63.9984C247.368 63.8644 247.163 63.7506 246.987 63.6662C247.288 63.1202 247.561 62.55 247.809 61.9603C247.817 61.9415 247.825 61.9226 247.833 61.9037C248.285 60.8201 248.653 59.6716 248.953 58.4873C248.986 58.3552 249.019 58.2227 249.05 58.0897C249.055 58.0682 249.061 58.0467 249.066 58.0251C249.101 57.8745 249.136 57.7234 249.169 57.5718C249.439 56.3536 249.641 55.1064 249.794 53.8607C249.803 53.7837 249.812 53.7067 249.821 53.6297C249.832 53.5351 249.843 53.4405 249.854 53.3459C249.942 52.5564 250.01 51.7691 250.064 50.992C250.103 50.4149 250.134 49.8434 250.159 49.2806C250.159 49.2718 250.16 49.2629 250.16 49.254C250.186 48.6487 250.204 48.0535 250.217 47.4727C250.223 47.2064 250.227 46.9431 250.231 46.6832C250.237 46.2799 250.24 45.8848 250.242 45.4992C250.242 45.3045 250.243 45.1123 250.243 44.9227C250.243 44.8928 250.243 44.863 250.243 44.8332V33.8442H263.563V31.6982H268.151V33.8442H281.249V37.1372H271.333V38.8762H279.954V45.4992H254.239V46.6832H278.733L279.362 46.5722L282.211 47.2012C282.062 47.61 281.906 48.0288 281.745 48.4488C281.46 49.1947 281.16 49.9442 280.858 50.6476C280.736 50.9322 280.613 51.2092 280.491 51.4755C280.429 51.6111 280.367 51.744 280.305 51.8736C280.303 51.8772 280.301 51.8809 280.299 51.8845C280.23 52.0292 280.161 52.1698 280.093 52.3057C280.049 52.392 280.006 52.4765 279.962 52.5589C279.935 52.6115 279.907 52.6633 279.88 52.7142L276.957 52.0852C277.079 52.2234 277.197 52.3616 277.311 52.4986C277.342 52.5349 277.371 52.5711 277.401 52.6072C277.422 52.6326 277.442 52.6579 277.463 52.6832C277.526 52.7617 277.588 52.8397 277.649 52.9168C277.883 53.2169 278.092 53.5049 278.265 53.7673C278.286 53.799 278.306 53.8303 278.326 53.8612L275.44 55.4152C275.378 55.3085 275.31 55.1981 275.236 55.0846C275.051 54.7991 274.832 54.4936 274.586 54.1773C274.569 54.1549 274.551 54.1325 274.533 54.11C274.532 54.1087 274.531 54.1074 274.53 54.106C274.466 54.0244 274.4 53.942 274.332 53.8591C274.331 53.8583 274.331 53.8575 274.33 53.8566C274.18 53.6727 274.021 53.4864 273.856 53.2992C273.769 53.1998 273.679 53.1002 273.588 53.0006C273.491 52.8947 273.392 52.7888 273.291 52.6832C273.171 52.5572 273.048 52.4317 272.924 52.3072C272.907 52.4379 272.888 52.5631 272.867 52.6832C272.853 52.7627 272.838 52.8399 272.822 52.9149C272.794 53.0495 272.762 53.1769 272.727 53.2975C272.627 53.6389 272.5 53.9253 272.34 54.1639C272.288 54.2411 272.233 54.3133 272.174 54.3807C272.016 54.5619 271.833 54.7089 271.619 54.8264C271.528 54.8765 271.432 54.9212 271.33 54.961C271.307 54.9701 271.283 54.979 271.259 54.9876C270.911 55.1123 270.501 55.1828 270.018 55.2128C269.895 55.2204 269.766 55.2255 269.633 55.2281C269.56 55.2295 269.485 55.2302 269.409 55.2302H266.19C265.967 55.4332 265.732 55.6362 265.493 55.8393C265.344 55.9651 265.194 56.091 265.043 56.2168C264.994 56.2579 264.944 56.2991 264.895 56.3402H274.33L274.996 56.1922L277.475 57.7462C277.392 57.8422 277.307 57.9374 277.221 58.0317C277.158 58.1009 277.093 58.1696 277.028 58.2379C277.014 58.2531 276.999 58.2684 276.984 58.2836C276.593 58.6898 276.171 59.0784 275.72 59.4488C275.632 59.521 275.543 59.5924 275.453 59.6632C275.345 59.7481 275.235 59.8319 275.124 59.9148C274.867 60.1065 274.603 60.2929 274.33 60.4737C274.027 60.6745 273.715 60.8686 273.394 61.0557C273.232 61.1503 273.067 61.2431 272.9 61.3342C272.722 61.4315 272.541 61.5267 272.358 61.6199C272.227 61.6864 272.095 61.7518 271.962 61.8162C272.292 61.8806 272.626 61.9419 272.965 62.0002C273.095 62.0227 273.226 62.0448 273.358 62.0664C273.679 62.1191 274.003 62.1692 274.33 62.2167C274.434 62.2319 274.539 62.2469 274.644 62.2615C274.752 62.2766 274.861 62.2914 274.97 62.306ZM283.853 57.2107C285.454 57.7574 286.78 58.9673 287.452 60.5778C288.349 62.7273 287.921 65.2018 286.355 66.9252C286.355 66.9248 286.337 66.945 286.3 66.9904C286.264 67.0347 286.219 67.0938 286.164 67.1683C286.052 67.3193 285.924 67.5048 285.791 67.7128C285.51 68.1492 285.287 68.5522 285.175 68.7851C284.101 71.0149 281.769 72.3567 279.302 72.164C274.96 71.8247 270.695 71.1811 266.784 70.0689C262.903 71.0963 258.814 71.7451 254.936 72.1498C253.995 72.248 253.072 72.1217 252.227 71.8083C251.848 71.9329 251.455 72.0204 251.051 72.0676C249.185 72.2857 247.326 71.6177 246.026 70.2639C246.024 70.2624 245.966 70.207 245.834 70.0973C245.671 69.9623 245.463 69.8011 245.233 69.6347C245.004 69.4684 244.784 69.3197 244.602 69.2048C244.445 69.1057 244.37 69.0658 244.37 69.0654C244.37 69.0654 244.37 69.0652 244.37 69.0654C242.893 68.3495 241.773 67.0596 241.273 65.4955C240.77 63.9244 240.936 62.2154 241.732 60.7706C242.719 58.9799 243.397 56.4926 243.79 53.5075C244.177 50.5735 244.243 47.5426 244.243 44.8332V33.8442C244.243 30.5305 246.929 27.8442 250.243 27.8442H258.964C260.065 26.5323 261.717 25.6982 263.563 25.6982H268.151C269.997 25.6982 271.649 26.5323 272.75 27.8442H281.249C284.563 27.8442 287.249 30.5305 287.249 33.8442V37.1372C287.249 38.544 286.765 39.8378 285.954 40.8609V42.5118C286.568 43.0015 287.086 43.6123 287.472 44.3162C288.304 45.8332 288.44 47.6354 287.847 49.2603C287.138 51.1985 286.163 53.702 285.163 55.5588C284.82 56.1962 284.373 56.7513 283.853 57.2107ZM269.183 52.743C269.266 52.7368 269.341 52.7268 269.409 52.7118C269.414 52.7106 269.419 52.7094 269.425 52.7082C269.455 52.701 269.485 52.6927 269.512 52.6832C269.791 52.5887 269.937 52.3768 270.037 51.9346C270.065 51.8089 270.089 51.6647 270.112 51.4992C270.121 51.436 270.129 51.3697 270.137 51.3003C270.141 51.2667 270.145 51.2323 270.149 51.1972C270.316 51.3013 270.523 51.4025 270.756 51.4992C270.827 51.5291 270.901 51.5585 270.977 51.5875C270.987 51.5913 270.998 51.5951 271.008 51.5989C271.324 51.7181 271.671 51.8288 272.014 51.9277C272.127 51.9603 272.24 51.9915 272.351 52.0214C272.483 52.0571 272.613 52.0908 272.739 52.1222C272.651 52.0341 272.563 51.946 272.475 51.8586C272.352 51.7367 272.229 51.6162 272.106 51.4992C272.072 51.4669 272.038 51.435 272.004 51.4033C271.842 51.252 271.68 51.1077 271.518 50.9752L274.219 49.5692C274.345 49.6649 274.471 49.7645 274.598 49.8674C274.602 49.8702 274.605 49.8731 274.609 49.8759C274.678 49.9316 274.747 49.9882 274.815 50.0457C274.873 50.094 274.931 50.1428 274.989 50.1922C274.998 50.1998 275.007 50.2075 275.016 50.2151C275.221 50.3908 275.427 50.573 275.63 50.7592C275.894 51.001 276.154 51.2496 276.407 51.4992C276.455 51.5465 276.503 51.5938 276.55 51.6412C276.572 51.5945 276.594 51.5471 276.616 51.4992C276.681 51.3579 276.745 51.2115 276.81 51.0609C276.811 51.0579 276.812 51.0549 276.813 51.052C276.883 50.8874 276.953 50.7178 277.021 50.5441C277.153 50.2073 277.281 49.8552 277.401 49.4952H268.114C268.23 49.5748 268.344 49.6543 268.456 49.7334C268.62 49.8492 268.778 49.9639 268.928 50.0757C269 50.1296 269.07 50.1828 269.138 50.2352C269.184 50.2706 269.228 50.3056 269.272 50.3402C269.309 50.3699 269.345 50.3993 269.381 50.4283C269.39 50.436 269.4 50.4437 269.409 50.4514C269.418 50.459 269.427 50.4665 269.436 50.4741C269.506 50.5318 269.571 50.588 269.631 50.6422L267.226 52.4922C267.049 52.298 266.825 52.0845 266.57 51.8632C266.553 51.848 266.535 51.8328 266.517 51.8175C266.413 51.7278 266.303 51.637 266.19 51.5458C266.18 51.5375 266.169 51.5292 266.159 51.5209C266.15 51.5136 266.141 51.5064 266.132 51.4992C266.066 51.4471 266 51.395 265.932 51.3429C265.92 51.3338 265.909 51.3248 265.897 51.3158C265.774 51.2214 265.647 51.1272 265.518 51.0342C265.362 50.9216 265.203 50.8107 265.043 50.7028C264.999 50.6734 264.955 50.6442 264.912 50.6152C264.906 50.6116 264.9 50.608 264.895 50.6044C264.775 50.5257 264.655 50.449 264.536 50.3749C264.459 50.3272 264.382 50.2806 264.306 50.2352C264.302 50.2329 264.298 50.2306 264.294 50.2283C264.274 50.2163 264.254 50.2044 264.234 50.1926C264.12 50.1259 264.007 50.062 263.896 50.0014C263.809 49.9537 263.722 49.9081 263.637 49.8648C263.62 49.856 263.603 49.8473 263.585 49.8387C263.581 49.8364 263.576 49.8341 263.571 49.8318C263.544 49.818 263.516 49.8044 263.489 49.7912L263.896 49.4952H254.128C254.08 50.3825 254.017 51.3009 253.937 52.2303C253.934 52.2667 253.931 52.3032 253.928 52.3397C253.918 52.4509 253.909 52.5622 253.899 52.6737C253.888 52.7951 253.876 52.9167 253.865 53.0383C253.843 53.2754 253.819 53.5128 253.795 53.7502C253.894 53.6809 253.991 53.6088 254.087 53.5341C254.101 53.5234 254.114 53.5128 254.128 53.502C254.164 53.4737 254.2 53.4451 254.235 53.416C254.326 53.3417 254.416 53.2651 254.505 53.1864C254.508 53.1832 254.512 53.1799 254.516 53.1767C254.692 53.0198 254.862 52.8547 255.028 52.6832C255.267 52.4341 255.495 52.1713 255.708 51.9002C255.812 51.7683 255.913 51.6344 256.01 51.4992C256.022 51.482 256.034 51.4648 256.046 51.4476C256.084 51.3944 256.121 51.3411 256.157 51.2876C256.394 50.9403 256.607 50.5861 256.792 50.2352C256.857 50.1113 256.919 49.9878 256.977 49.8652L259.9 51.1232C259.885 51.1581 259.869 51.193 259.854 51.228C259.814 51.3182 259.773 51.4087 259.73 51.4992C259.681 51.6051 259.629 51.711 259.577 51.8169C259.569 51.8323 259.561 51.8478 259.553 51.8632C259.547 51.8755 259.541 51.8879 259.535 51.9002C259.401 52.1626 259.258 52.4244 259.104 52.6832C258.967 52.9123 258.821 53.1391 258.667 53.3618C258.562 53.5136 258.452 53.6636 258.339 53.8111C258.241 53.9377 258.14 54.0625 258.036 54.1852C258.024 54.1998 258.011 54.2144 257.999 54.229C257.906 54.3369 257.811 54.4431 257.713 54.5474C257.607 54.6602 257.498 54.7709 257.386 54.879C257.286 54.9754 257.183 55.0699 257.078 55.1621C256.947 55.2767 256.812 55.3879 256.673 55.4952C256.544 55.5953 256.411 55.6921 256.274 55.7852L253.721 54.0832C253.662 54.5903 253.596 55.1012 253.522 55.6123C253.481 55.8931 253.438 56.1739 253.393 56.4542C253.357 56.6776 253.319 56.9008 253.28 57.1232C253.178 57.7072 253.066 58.2867 252.944 58.8562C252.982 58.8456 253.019 58.8349 253.057 58.8242C253.416 58.7221 253.768 58.617 254.112 58.5092C254.26 58.4629 254.406 58.4161 254.552 58.3688C254.763 58.2999 254.972 58.2299 255.178 58.159C255.442 58.0677 255.702 57.9749 255.957 57.8806C256.155 57.8074 256.35 57.7334 256.541 57.6585C256.706 57.5945 256.867 57.5298 257.027 57.4645C257.13 57.4227 257.231 57.3807 257.331 57.3384C257.549 57.2469 257.762 57.1544 257.971 57.0609C258.292 56.9176 258.602 56.7721 258.901 56.6248C258.935 56.6084 258.968 56.592 259.001 56.5755C259.086 56.5335 259.169 56.4914 259.252 56.4492C259.329 56.4101 259.405 56.3708 259.48 56.3314C259.484 56.3294 259.488 56.3273 259.492 56.3253C259.708 56.2119 259.918 56.0977 260.122 55.9827C260.134 55.9758 260.147 55.9688 260.159 55.9619C260.432 55.8075 260.693 55.6518 260.944 55.4952C261.02 55.4474 261.095 55.3995 261.17 55.3515C261.384 55.2129 261.59 55.0737 261.787 54.9342C261.541 54.8473 261.329 54.7435 261.147 54.6199C261.146 54.6194 261.145 54.6188 261.144 54.6183C260.859 54.4239 260.648 54.1809 260.496 53.8784C260.41 53.7065 260.342 53.5154 260.291 53.3032C260.246 53.1144 260.214 52.9089 260.192 52.6852C260.192 52.6845 260.192 52.6838 260.192 52.6832C260.19 52.6626 260.188 52.6418 260.186 52.6208C260.168 52.3985 260.159 52.1588 260.159 51.9002V50.2352H263.637V51.8632C263.637 51.8757 263.637 51.888 263.637 51.9002C263.641 52.2659 263.699 52.4777 263.896 52.5986C263.954 52.6341 264.024 52.6618 264.108 52.6832C264.145 52.6927 264.185 52.701 264.229 52.7082C264.4 52.7367 264.618 52.7479 264.895 52.7505C264.943 52.751 264.992 52.7512 265.043 52.7512H268.928C268.931 52.7512 268.933 52.7512 268.936 52.7512C269.025 52.751 269.107 52.7486 269.183 52.743ZM271.259 58.7082C271.207 58.7404 271.155 58.7724 271.103 58.8041C270.962 58.8895 270.818 58.9733 270.67 59.0557C270.659 59.0618 270.648 59.068 270.637 59.0742C270.428 59.1899 270.213 59.3026 269.992 59.4123C269.802 59.5068 269.607 59.599 269.409 59.6891C268.997 59.876 268.569 60.0532 268.129 60.2209C268.122 60.2236 268.115 60.2263 268.108 60.229C268.086 60.2371 268.064 60.2453 268.043 60.2534C267.727 60.3723 267.405 60.4862 267.078 60.5952C266.774 60.4985 266.478 60.398 266.19 60.2936C266.18 60.2901 266.171 60.2865 266.161 60.283C266.019 60.2316 265.88 60.1792 265.743 60.1258C265.547 60.0499 265.355 59.9721 265.167 59.8924C265.075 59.8534 264.985 59.814 264.895 59.7742C264.511 59.6037 264.144 59.4248 263.797 59.2377C263.481 59.068 263.181 58.8915 262.897 58.7082H271.259ZM275.921 41.2812H271.333V43.0202H275.921V41.2812ZM267.411 43.0202V41.2812H262.86V43.0202H267.411ZM259.049 43.0202V41.2812H254.239V43.0202H259.049ZM262.86 37.1372V38.8762H267.411V37.1372H262.86ZM259.049 38.8762V37.1372H254.239V38.8762H259.049ZM310.368 59.9662V32.1052H315.104V42.6872H328.165V47.1642H315.104V59.9662H330.755V64.4062H297.122V59.9662H310.368ZM304.368 53.9662H297.122C293.808 53.9662 291.122 56.6525 291.122 59.9662V64.4062C291.122 67.7199 293.808 70.4062 297.122 70.4062H330.755C334.069 70.4062 336.755 67.7199 336.755 64.4062V59.9662C336.755 56.6525 334.069 53.9662 330.755 53.9662H321.104V53.1642H328.165C331.479 53.1642 334.165 50.4779 334.165 47.1642V42.6872C334.165 39.3735 331.479 36.6872 328.165 36.6872H321.104V32.1052C321.104 28.7915 318.418 26.1052 315.104 26.1052H310.368C307.054 26.1052 304.368 28.7915 304.368 32.1052V53.9662ZM376.968 44.5002H365.313V40.6152H380.076V36.3232H365.387V31.5132H360.688V36.3232H346.332V40.6152H360.725V44.5002H349.81V61.7792H354.25V48.7922H360.725V66.2562H365.313V48.7922H372.38V56.9322C372.38 56.9577 372.379 56.9824 372.378 57.0062C372.355 57.3617 372.158 57.5242 371.603 57.5242C371.53 57.5242 371.432 57.5242 371.313 57.524C370.724 57.5233 369.623 57.5192 368.458 57.4943C367.965 57.4837 367.46 57.4695 366.978 57.4502C367.607 58.6342 368.273 60.5212 368.458 61.7792C369.509 61.7792 370.457 61.7694 371.313 61.7247C371.411 61.7196 371.508 61.714 371.603 61.708C372.965 61.6216 374.084 61.4349 375.007 61.0392C376.524 60.3732 376.968 59.1152 376.968 57.0062V44.5002ZM371.127 67.7436C370.465 70.3378 368.113 72.2562 365.313 72.2562H360.725C357.925 72.2562 355.572 70.3376 354.911 67.7432C354.694 67.767 354.473 67.7792 354.25 67.7792H349.81C346.496 67.7792 343.81 65.0929 343.81 61.7792V46.061C341.756 45.1083 340.332 43.0281 340.332 40.6152V36.3232C340.332 33.0095 343.018 30.3232 346.332 30.3232H354.806C355.358 27.5795 357.782 25.5132 360.688 25.5132H365.387C368.293 25.5132 370.717 27.5795 371.269 30.3232H380.076C383.39 30.3232 386.076 33.0095 386.076 36.3232V40.6152C386.076 42.8803 384.821 44.8523 382.968 45.8735V57.0062C382.968 58.3503 382.85 60.2165 382.019 62.0466C381.057 64.1629 379.415 65.6565 377.419 66.533L377.371 66.5541C375.391 67.4022 373.163 67.6633 371.127 67.7436ZM429.452 27.5423C430 27.3777 430.58 27.2892 431.182 27.2892H448.35C451.663 27.2892 454.35 29.9755 454.35 33.2892V48.9709C455.35 49.9804 455.969 51.3222 456.073 52.7624C456.199 54.5046 455.559 56.2129 454.326 57.4433C455.646 58.3604 456.557 59.7811 456.823 61.3982C457.15 63.3892 456.455 65.4114 454.972 66.78C454.483 67.2318 453.653 68.3261 453.42 68.7915C452.697 70.2373 451.422 71.3302 449.882 71.8228C448.342 72.3154 446.669 72.1659 445.241 71.4083C443.897 70.6949 442.681 69.875 441.579 68.9658C439.127 69.5311 436.538 70.0868 434.199 70.5891C432.689 70.9132 431.284 71.215 430.085 71.4828C428.548 71.8262 427.005 71.546 425.734 70.7987C424.689 71.6848 423.336 72.2192 421.858 72.2192H417.751C414.437 72.2192 411.751 69.5329 411.751 66.2192V33.2522C411.751 29.9385 414.437 27.2522 417.751 27.2522H425.633C426.908 26.928 428.249 27.033 429.452 27.5423ZM417.751 66.2192H421.858V37.1742H425.114L425.055 37.4042C424.953 37.7984 424.848 38.2081 424.739 38.6276C424.686 38.8337 424.632 39.0421 424.577 39.2522C424.313 40.2681 424.034 41.3233 423.751 42.341C423.673 42.6221 423.594 42.9004 423.516 43.1742C423.468 43.3417 423.42 43.5075 423.372 43.6713C423.186 44.3061 423.001 44.9103 422.82 45.4622C423.171 45.8607 423.479 46.2544 423.751 46.6418C423.872 46.8145 423.985 46.9859 424.091 47.156C424.605 47.9774 424.954 48.7664 425.182 49.5076C425.459 50.4099 425.558 51.2413 425.558 51.9742C425.558 52.1151 425.554 52.2498 425.545 52.3783C425.542 52.4296 425.538 52.4799 425.534 52.5292C425.532 52.5495 425.53 52.5696 425.528 52.5896C425.484 53.0051 425.392 53.3468 425.251 53.6108C425.229 53.6524 425.206 53.6921 425.182 53.7298C425.137 53.799 425.088 53.8618 425.035 53.9179C425.022 53.9312 425.01 53.9441 424.997 53.9566C424.963 53.989 424.928 54.0188 424.892 54.0462C424.888 54.0489 424.884 54.0515 424.88 54.0541C424.551 54.2708 424.221 54.3792 423.819 54.3792C423.796 54.3792 423.773 54.3792 423.751 54.3792C423.543 54.3791 423.321 54.3788 423.079 54.3753C422.78 54.3709 422.45 54.3617 422.08 54.3422C422.536 55.1478 422.837 56.2653 422.981 57.2419C423.036 57.6109 423.069 57.9598 423.079 58.2642C423.266 58.2642 423.452 58.2657 423.635 58.2672C423.674 58.2675 423.712 58.2678 423.751 58.2681C423.773 58.2683 423.796 58.2685 423.819 58.2686C424.298 58.2721 424.758 58.2719 425.182 58.2397C425.337 58.2279 425.487 58.2119 425.632 58.1902C425.656 58.1857 425.681 58.1812 425.705 58.1766C426.108 58.1008 426.502 58.0053 426.866 57.8674C427.019 57.8097 427.167 57.7446 427.308 57.6704C427.38 57.6326 427.45 57.5923 427.519 57.5495C427.622 57.4854 427.721 57.4156 427.815 57.3392C427.829 57.3293 427.843 57.3192 427.858 57.3091C428.279 57.0094 428.618 56.6135 428.878 56.1144C429.047 55.7888 429.182 55.4193 429.284 55.0041C429.329 54.8206 429.368 54.6281 429.4 54.4266C429.489 53.8658 429.527 53.2345 429.517 52.5292C429.517 52.3471 429.513 52.1621 429.506 51.9742C429.491 51.5857 429.458 51.185 429.4 50.7726C429.243 49.6726 428.903 48.4898 428.224 47.2355C428.111 47.0276 427.99 46.8178 427.858 46.6061C427.527 46.0761 427.135 45.5342 426.668 44.9812C427.024 44.0845 427.391 43.0734 427.759 42.0091C427.792 41.914 427.825 41.8184 427.858 41.7224C428.252 40.5717 428.646 39.3661 429.028 38.1807C429.154 37.7908 429.278 37.4031 429.4 37.0202C429.469 36.8047 429.537 36.5908 429.605 36.3789C429.778 35.8389 429.946 35.312 430.109 34.8062L427.112 33.0672L426.483 33.2522H417.751V66.2192ZM431.182 60.7802C431.011 60.8065 430.841 60.8328 430.675 60.859C430.541 60.88 430.409 60.9009 430.278 60.9217C430.094 60.9508 429.914 60.9796 429.736 61.008C429.651 61.0214 429.568 61.0348 429.485 61.048C428.91 61.1395 428.367 61.2253 427.858 61.2991C427.842 61.3013 427.827 61.3036 427.811 61.3058C427.648 61.3292 427.489 61.3514 427.334 61.3722L428.777 65.6272C429.723 65.4159 430.748 65.1936 431.825 64.9619C431.861 64.954 431.898 64.9462 431.934 64.9383C432.304 64.8589 432.68 64.7783 433.06 64.6966C434.041 64.4861 435.055 64.2687 436.081 64.0453C436.133 64.034 436.185 64.0227 436.238 64.0114C436.498 63.9546 436.76 63.8974 437.022 63.8399C438.369 63.5441 439.729 63.2388 441.061 62.9262L440.728 59.0782C440.546 59.1123 440.364 59.1464 440.181 59.1804C440.045 59.2058 439.909 59.2312 439.772 59.2566C439.638 59.2814 439.505 59.3062 439.371 59.331C438.64 59.4662 437.908 59.5997 437.182 59.7292C436.582 59.8361 435.987 59.9403 435.4 60.0402V50.4942H438.064C438.14 50.8232 438.218 51.1487 438.299 51.4705C438.406 51.8934 438.517 52.31 438.633 52.7202C438.691 52.9259 438.751 53.1299 438.811 53.3324C439.022 54.0343 439.248 54.7163 439.49 55.3775C439.572 55.6012 439.656 55.8225 439.742 56.0414C439.973 56.6302 440.219 57.2013 440.479 57.7541C440.688 58.1956 440.906 58.6254 441.134 59.043C441.221 59.2019 441.31 59.359 441.4 59.5143C441.483 59.6574 441.567 59.7991 441.652 59.9392C441.712 60.0367 441.772 60.1335 441.833 60.2296C442.293 60.9563 442.791 61.6403 443.33 62.2791C443.45 62.4211 443.571 62.5608 443.695 62.6982C444.558 63.6565 445.522 64.505 446.6 65.2343C447.063 65.5479 447.547 65.8394 448.054 66.1082C448.054 66.1083 448.054 66.1081 448.054 66.1082C448.103 66.0103 448.156 65.9088 448.214 65.8051C448.858 64.6539 450.02 63.1857 450.903 62.3712C450.668 62.2665 450.438 62.1561 450.212 62.0402C449.981 61.9215 449.755 61.7971 449.533 61.667C448.521 61.0731 447.609 60.3619 446.791 59.5475C446.744 59.5006 446.697 59.4533 446.65 59.4057C446.442 59.1926 446.24 58.9728 446.045 58.7464C446.011 58.7067 445.977 58.6669 445.943 58.6269C445.932 58.6138 445.921 58.6007 445.91 58.5875C445.624 58.2471 445.352 57.8924 445.094 57.5242C445.208 57.4361 445.324 57.3461 445.441 57.2544C445.559 57.1622 445.677 57.0681 445.797 56.9725C445.933 56.8631 446.071 56.7516 446.209 56.6383C446.267 56.5906 446.326 56.5425 446.384 56.4942C446.429 56.4571 446.474 56.4198 446.519 56.3824C447.124 55.8798 447.741 55.3459 448.35 54.8015C448.921 54.2905 449.484 53.7702 450.023 53.2576C450.045 53.2368 450.067 53.216 450.089 53.1952L446.648 50.7532C446.211 51.3421 445.667 51.9798 445.075 52.6212C445.028 52.6727 444.98 52.7242 444.932 52.7758C444.569 53.1642 444.191 53.5527 443.811 53.9312C443.647 54.095 443.482 54.2569 443.318 54.4162C443.181 54.115 443.048 53.807 442.921 53.4934C442.818 53.2392 442.718 52.9812 442.622 52.7202C442.537 52.49 442.455 52.2573 442.375 52.0226C442.206 51.5211 442.051 51.0102 441.912 50.4942H448.35V33.2892H431.182V60.7802ZM435.4 46.7202H443.984V43.6122H435.4V46.7202ZM443.984 40.0232V37.1002H435.4V40.0232H443.984ZM480.022 39.3942V35.5462H487.126V31.6612H491.455V35.5462H498.855V39.3942H491.455V42.6502H499.891V46.4982H496.08V49.6802H499.632V53.4912H496.08V61.5572C496.08 63.6662 495.673 64.7762 494.23 65.4422C493.376 65.8143 492.328 66.0051 491.048 66.0989C490.607 66.1312 490.138 66.152 489.641 66.1647C489.141 66.1775 488.611 66.1822 488.051 66.1822C487.903 64.9612 487.237 63.2222 486.645 62.0382C487.104 62.0573 487.583 62.0715 488.051 62.082C488.571 62.0937 489.077 62.1009 489.526 62.1053C490.232 62.1122 490.796 62.1122 491.048 62.1122C491.595 62.1122 491.794 61.9857 491.821 61.5572C491.824 61.5222 491.825 61.4853 491.825 61.4462V53.4912H478.838V49.6802H491.825V46.4982H478.764V42.6502H487.126V39.3942H480.022ZM478.135 33.9182H466.554V62.3342H470.624V59.0782H478.135V33.9182ZM474.028 37.8402H470.624V44.3522H474.028V37.8402ZM470.624 48.2002V55.1562H474.028V48.2002H470.624ZM475.961 65.0782C474.965 67.0118 472.949 68.3342 470.624 68.3342H466.554C463.24 68.3342 460.554 65.6479 460.554 62.3342V33.9182C460.554 30.6045 463.24 27.9182 466.554 27.9182H478.135C479.471 27.9182 480.704 28.3548 481.702 29.093C482.664 27.0642 484.731 25.6612 487.126 25.6612H491.455C494.024 25.6612 496.216 27.2761 497.071 29.5462H498.855C502.168 29.5462 504.855 32.2325 504.855 35.5462V39.2789C505.508 40.2397 505.891 41.4003 505.891 42.6502V46.4982C505.891 47.2224 505.762 47.9167 505.527 48.5595C505.596 48.9226 505.632 49.2972 505.632 49.6802V53.4912C505.632 55.9329 504.173 58.034 502.08 58.9707V61.5572C502.08 62.8458 501.984 64.6963 501.164 66.5114C500.199 68.6468 498.567 70.0486 496.744 70.8899C496.705 70.9078 496.666 70.9253 496.627 70.9424C493.852 72.1518 490.58 72.1822 488.051 72.1822C485.303 72.1822 482.946 70.324 482.255 67.7357C480.95 67.1995 479.879 66.2215 479.225 64.9793C478.872 65.0442 478.507 65.0782 478.135 65.0782H475.961ZM485.738 56.107C485.621 55.9638 485.503 55.8214 485.384 55.6802C485.21 55.473 485.035 55.2684 484.859 55.0677C484.616 54.7901 484.374 54.5199 484.135 54.2602C484.033 54.1499 483.932 54.0414 483.833 53.9352L480.318 55.9702C480.515 56.1944 480.716 56.429 480.918 56.6713C481.309 57.1404 481.702 57.6381 482.08 58.1442C482.279 58.4114 482.475 58.681 482.664 58.9499C482.694 58.9927 482.724 59.0354 482.753 59.0782C482.849 59.2163 482.943 59.3541 483.035 59.4912C483.344 59.9529 483.628 60.4068 483.873 60.8372C483.874 60.8392 483.875 60.8411 483.876 60.8431C484.048 61.1451 484.2 61.4356 484.329 61.7092C484.407 61.8748 484.476 62.0342 484.536 62.1862L488.31 60.0032C488.239 59.8375 488.157 59.6665 488.067 59.4912C487.824 59.0193 487.516 58.5163 487.164 58.0009C487.138 57.9626 487.111 57.9241 487.085 57.8856C487.003 57.7671 486.919 57.648 486.833 57.5285C486.518 57.0913 486.177 56.6494 485.825 56.2138C485.796 56.1781 485.767 56.1425 485.738 56.107ZM529.448 38.7971C529.568 38.7849 529.689 38.7727 529.81 38.7603C530.265 38.7137 530.724 38.6652 531.186 38.6142C531.995 38.525 532.812 38.4281 533.629 38.3207C534.237 38.2408 534.845 38.155 535.448 38.0622V42.3912H525.606V46.6092H535.448V51.2712H527.9V66.2192H531.896V64.7022H542.996V66.0342H547.177V51.2712H539.629V46.6092H549.027V42.3912H539.629V37.3222C540.131 37.2256 540.63 37.1234 541.123 37.0159C541.198 36.9996 541.272 36.9833 541.347 36.9668C542.149 36.7889 542.937 36.5968 543.705 36.3912C544.466 36.1873 545.208 35.9703 545.923 35.7409C546.521 35.5488 547.101 35.3481 547.658 35.1392L544.291 31.6612C542.843 32.2403 541.03 32.7678 539.012 33.2356C538.958 33.2481 538.904 33.2605 538.85 33.2729C537.577 33.5643 536.225 33.8321 534.834 34.0742C534.74 34.0905 534.647 34.1067 534.553 34.1227C534.095 34.201 533.633 34.2764 533.168 34.3491C532.69 34.4238 532.209 34.4956 531.727 34.5642C530.449 34.7462 529.162 34.9064 527.895 35.0434C527.587 35.0767 527.28 35.1086 526.975 35.1392C527.156 35.4893 527.347 35.9257 527.526 36.3912C527.641 36.6912 527.752 37.0032 527.852 37.3119C528.04 37.8911 528.191 38.4586 528.27 38.9132C528.657 38.8757 529.051 38.8371 529.448 38.7971ZM521.899 38.475C522.273 38.7134 522.615 38.941 522.91 39.1516C523.027 39.2353 523.136 39.3163 523.238 39.3942L525.865 35.8422C525.829 35.8189 525.792 35.7954 525.755 35.7715C524.669 35.0777 522.914 34.1424 521.265 33.296C521.025 33.1728 520.787 33.0514 520.554 32.933C519.992 32.6478 519.457 32.3795 518.983 32.1422L516.504 35.3242C516.725 35.4499 516.956 35.5811 517.195 35.7166C517.246 35.7451 517.296 35.7737 517.347 35.8026C517.668 35.984 518 36.1724 518.339 36.3648C518.771 36.611 519.213 36.8638 519.649 37.1173C520.244 37.4631 520.83 37.81 521.369 38.1426C521.494 38.2197 521.616 38.2959 521.736 38.3712C521.791 38.406 521.845 38.4406 521.899 38.475ZM511.925 39.2022C511.274 38.4328 510.819 37.5028 510.618 36.4917C510.279 34.7828 510.7 33.011 511.771 31.6367L514.249 28.4547C516.006 26.2 519.109 25.4974 521.666 26.7756C522.855 27.3704 524.656 28.2736 526.32 29.175C526.339 29.1729 526.358 29.1709 526.378 29.169C532.568 28.5499 538.818 27.3882 542.062 26.0903C544.324 25.1858 546.907 25.738 548.602 27.4879L551.969 30.9659C553.375 32.4192 553.955 34.4835 553.511 36.4569C553.398 36.96 553.222 37.4399 552.991 37.8876C554.239 38.9871 555.027 40.5972 555.027 42.3912V46.6092C555.027 48.3169 554.313 49.8579 553.168 50.9506C553.174 51.0567 553.177 51.1636 553.177 51.2712V66.0342C553.177 69.3479 550.49 72.0342 547.177 72.0342H542.996C541.568 72.0342 540.256 71.5352 539.226 70.7022H535.884C534.823 71.6458 533.427 72.2192 531.896 72.2192H527.9C526.029 72.2192 524.359 71.3633 523.258 70.0217C522.376 70.9176 521.226 71.5222 519.964 71.7314C518.271 72.012 516.539 71.5546 515.206 70.4746L511.506 67.4776C509.05 65.488 508.558 61.934 510.383 59.3525C511.6 57.6295 513.23 55.0847 514.804 52.3675C513.854 51.835 512.842 51.2819 511.904 50.7734C510.384 49.9491 509.294 48.5095 508.913 46.8233C508.531 45.1371 508.895 43.3683 509.912 41.9702L511.925 39.2022ZM521.9 51.9486C521.853 52.0374 521.805 52.1263 521.758 52.2152C521.21 53.2389 520.635 54.2696 520.051 55.2792C519.804 55.7065 519.556 56.1301 519.307 56.5477C517.864 58.9736 516.423 61.2011 515.283 62.8152L518.983 65.8122C519.038 65.7242 519.093 65.6359 519.149 65.5472C520.065 64.0798 520.992 62.5128 521.9 60.9105C521.959 60.8061 522.018 60.7016 522.077 60.597C523.29 58.4427 524.466 56.2322 525.532 54.1202L522.313 51.1602C522.294 51.1972 522.274 51.2342 522.255 51.2712C522.215 51.3485 522.175 51.426 522.134 51.5035C522.057 51.6516 521.978 51.8 521.9 51.9486ZM520.031 48.4591C520.33 48.639 520.612 48.8133 520.872 48.9789C521.161 49.1629 521.422 49.3364 521.647 49.4952L524.088 45.8325C523.866 45.6962 523.614 45.5487 523.337 45.3934C523.223 45.3295 523.105 45.2642 522.984 45.1978C522.098 44.7127 521.027 44.1663 519.971 43.6404C519.849 43.5795 519.727 43.5188 519.606 43.4586C519.314 43.3138 519.025 43.1714 518.744 43.0331C518.402 42.8653 518.072 42.7035 517.76 42.5508C517.541 42.4434 517.331 42.3405 517.133 42.2432L514.765 45.4992C514.96 45.605 515.163 45.7153 515.372 45.8292C516.139 46.2462 516.986 46.7109 517.822 47.1806C518.531 47.5787 519.231 47.9804 519.865 48.3594C519.921 48.3928 519.976 48.426 520.031 48.4591ZM531.896 55.2672V60.7062H542.996V55.2672H531.896ZM575.297 54.0092V55.4522H581.994V58.5602H575.297V60.4472C575.958 60.4007 576.628 60.3506 577.301 60.2981C577.736 60.2641 578.172 60.229 578.609 60.1933C578.922 60.1677 579.236 60.1417 579.549 60.1155C579.967 60.0804 580.386 60.0449 580.803 60.0092C580.95 59.9967 581.096 59.9841 581.242 59.9716C581.26 59.97 581.278 59.9685 581.297 59.9669C581.443 59.9543 581.589 59.9418 581.735 59.9292C581.772 59.8775 581.809 59.8256 581.846 59.7734C581.896 59.7024 581.945 59.631 581.994 59.5592C582.178 59.2875 582.354 59.0099 582.521 58.7266C582.554 58.6713 582.586 58.6159 582.618 58.5602C582.892 58.0842 583.143 57.5922 583.373 57.0841C583.611 56.5575 583.827 56.0135 584.022 55.4522C584.185 54.9833 584.334 54.5023 584.47 54.0092C584.785 52.8687 585.03 51.6633 585.22 50.3925C585.238 50.2687 585.256 50.1442 585.274 50.0192C585.453 48.7399 585.58 47.3957 585.668 45.9862C585.706 45.3932 585.736 44.7887 585.762 44.1726C585.764 44.1215 585.766 44.0704 585.768 44.0192H582.401V41.1332H575.297V42.5762H581.846V54.0092H575.297ZM585.493 39.9862H585.879C585.879 39.944 585.88 39.9018 585.881 39.8595C585.881 39.7984 585.882 39.7373 585.883 39.676C585.883 39.6525 585.884 39.6291 585.884 39.6056C585.891 39.126 585.896 38.642 585.9 38.1531C585.9 38.109 585.901 38.0648 585.901 38.0207C585.901 37.9975 585.901 37.9744 585.901 37.9512C585.906 37.3964 585.909 36.8351 585.911 36.2666C585.915 35.2326 585.915 34.1747 585.916 33.0881M580.014 64.5602C579.668 64.1954 579.307 63.8488 578.96 63.5552C578.131 63.6415 577.302 63.7278 576.478 63.8133C576.165 63.8459 575.852 63.8783 575.54 63.9106C575.459 63.919 575.378 63.9274 575.297 63.9357C574.017 64.068 572.755 64.1972 571.53 64.3202C571.454 64.3279 571.377 64.3356 571.301 64.3433C571.126 64.3608 570.952 64.3782 570.779 64.3954C570.211 64.452 569.652 64.507 569.104 64.5602C567.373 64.7282 565.753 64.8777 564.308 64.9982L563.79 61.2982C563.858 61.2933 563.928 61.2883 563.998 61.2833C564.254 61.265 564.518 61.2462 564.789 61.2269C566.14 61.1306 567.668 61.0228 569.315 60.9117C569.472 60.9011 569.63 60.8905 569.79 60.8798C570.284 60.8467 570.788 60.8135 571.301 60.7802V58.5602H564.789V55.4522H571.301V54.0092H564.937V42.5762H571.301V41.1332H564.012V37.9512H571.301V36.4712C570.756 36.5088 570.213 36.544 569.674 36.5762C569.548 36.5837 569.422 36.5911 569.297 36.5983C567.933 36.6764 566.594 36.7343 565.301 36.7621C565.216 36.7639 565.132 36.7656 565.048 36.7672C565.037 36.7057 565.026 36.6419 565.013 36.5762C564.931 36.1483 564.8 35.6369 564.643 35.1332C564.477 34.5961 564.281 34.0679 564.086 33.6592C564.384 33.643 564.686 33.6259 564.989 33.6078C566.638 33.5094 568.353 33.3822 570.049 33.228C570.141 33.2196 570.234 33.2111 570.326 33.2025C570.575 33.1795 570.823 33.1558 571.07 33.1316C571.147 33.124 571.224 33.1165 571.301 33.1088C572.542 32.9852 573.762 32.8472 574.926 32.6954C575.05 32.6793 575.174 32.6629 575.297 32.6464C575.486 32.621 575.673 32.5953 575.859 32.5692C577.193 32.3815 578.437 32.1751 579.535 31.9512C579.668 31.924 579.799 31.8966 579.928 31.8689C579.963 31.8613 579.998 31.8538 580.033 31.8462L581.957 35.1392C581.583 35.2168 581.197 35.2917 580.8 35.3639C580.51 35.4168 580.214 35.4682 579.913 35.5182C579.069 35.6584 578.185 35.7872 577.274 35.9048C576.716 35.9768 576.148 36.0445 575.574 36.108C575.481 36.1182 575.389 36.1282 575.297 36.1382V37.9512H582.401V39.9862H585.493M585.916 32.2532H590.134C590.134 32.8361 590.134 33.4139 590.133 33.9862C590.131 35.3644 590.125 36.7105 590.104 38.0192C590.103 38.0973 590.102 38.1753 590.1 38.2532C590.091 38.7856 590.079 39.3117 590.064 39.8312C590.063 39.8829 590.061 39.9346 590.06 39.9862H597.571C597.571 39.9862 597.534 41.4292 597.534 41.9472C597.517 42.687 597.501 43.4035 597.485 44.0973C597.47 44.7466 597.455 45.376 597.439 45.9862C597.138 58.0178 596.795 62.5723 595.733 64.1298C595.729 64.1357 595.725 64.1414 595.721 64.1472C595.674 64.2137 595.628 64.2776 595.582 64.3391C595.138 64.9277 594.689 65.2965 594.182 65.55C593.96 65.6612 593.727 65.7503 593.478 65.8259C593.263 65.891 593.038 65.9463 592.798 65.9972C592.219 66.113 591.479 66.1583 590.652 66.1699C590.449 66.1728 590.241 66.1736 590.029 66.1729C589.457 66.1712 588.855 66.1586 588.243 66.1459L588.21 66.1452C588.147 65.1087 587.791 63.6724 587.232 62.515C587.139 62.3222 587.04 62.1371 586.936 61.9629C586.929 61.9509 586.922 61.939 586.915 61.9272C586.929 61.9285 586.943 61.9298 586.958 61.9311C587.164 61.9497 587.367 61.9664 587.565 61.9816C587.817 62.0008 588.061 62.0174 588.295 62.0317C589.317 62.0939 590.158 62.1122 590.652 62.1122C591.177 62.1122 591.537 61.9796 591.856 61.5575C591.87 61.5388 591.884 61.5195 591.898 61.4997C591.9 61.4971 591.902 61.4945 591.904 61.4919C591.904 61.4907 591.905 61.4896 591.906 61.4885C591.907 61.4867 591.908 61.485 591.91 61.4832C592.136 61.1921 592.328 60.6027 592.492 59.6179C592.784 57.8608 592.986 54.8449 593.135 50.0192C593.173 48.7944 593.208 47.4531 593.239 45.9862C593.252 45.4043 593.264 44.8026 593.276 44.1806C593.277 44.1269 593.278 44.0731 593.279 44.0192H589.949C589.946 44.0737 589.943 44.128 589.941 44.1824C589.937 44.2594 589.933 44.3362 589.929 44.4129C589.901 44.9426 589.87 45.4656 589.834 45.982C589.581 49.6778 589.114 53.03 588.246 56.0155C588.165 56.2925 588.081 56.5664 587.994 56.8371C587.965 56.9247 587.937 57.0119 587.907 57.0988C587.795 57.4355 587.676 57.7672 587.552 58.0938C587.514 58.1921 587.476 58.2899 587.438 58.3873C587.415 58.4451 587.392 58.5027 587.369 58.5602C587.307 58.7124 587.244 58.8634 587.18 59.0133C586.741 60.0344 586.237 61.0028 585.657 61.9175C585.535 62.1106 585.409 62.3013 585.28 62.4896C585.102 62.7486 584.918 63.0031 584.727 63.2529C584.467 63.5931 584.195 63.9248 583.909 64.248C583.399 64.825 582.847 65.3747 582.249 65.8966C582.245 65.9005 582.24 65.9044 582.236 65.9082C582.2 65.9391 582.165 65.9698 582.129 66.0004C581.941 66.1624 581.747 66.3217 581.55 66.4782C581.454 66.3258 581.344 66.1636 581.221 65.9953C580.914 65.573 580.53 65.1125 580.12 64.6729C580.085 64.6351 580.05 64.5976 580.014 64.5602M576.577 69.8353C577.489 71.1867 578.914 72.1115 580.527 72.3904C582.149 72.6709 583.811 72.2726 585.128 71.2942C585.996 71.8146 587.006 72.1214 588.085 72.1439C588.189 72.1461 588.299 72.1485 588.413 72.1511C589.902 72.1847 592.195 72.2364 593.974 71.8807C593.997 71.8761 594.02 71.8714 594.043 71.8666C594.909 71.6828 596.155 71.3605 597.44 70.6045C598.789 69.8111 599.819 68.7597 600.643 67.5779L600.646 67.5736C601.644 66.1393 602.083 64.5263 602.336 63.2865C602.609 61.9469 602.79 60.3567 602.929 58.5415C603.207 54.9039 603.366 49.6114 603.532 42.0792C603.533 42.0352 603.534 41.9912 603.534 41.9472C603.534 41.7657 603.541 41.3436 603.551 40.9028C603.553 40.7775 603.556 40.6576 603.559 40.5515L603.569 40.1432L603.569 40.1406C603.61 38.5232 602.997 36.9569 601.867 35.7983C600.738 34.6396 599.189 33.9862 597.571 33.9862H596.133C596.134 33.427 596.134 32.8667 596.134 32.3065V32.2532C596.134 28.9395 593.447 26.2532 590.134 26.2532H585.916C584.991 26.2532 584.116 26.4622 583.334 26.8356C582.014 25.9667 580.37 25.6314 578.754 25.9841C575.167 26.7667 569.154 27.3765 563.762 27.6679C561.761 27.7761 559.947 28.8754 558.925 30.5984C558.004 32.1519 557.836 34.0278 558.446 35.7064C558.166 36.3998 558.012 37.1575 558.012 37.9512V41.1332C558.012 42.3106 558.351 43.4087 558.937 44.3353V54.0092C558.937 54.0454 558.937 54.0815 558.938 54.1176C558.84 54.5468 558.789 54.9935 558.789 55.4522V57.983C557.983 59.1986 557.644 60.6729 557.848 62.1301L558.366 65.8301C558.807 68.9827 561.634 71.2418 564.806 70.9775C568.109 70.7022 572.286 70.2799 576.577 69.8353ZM568.415 45.3512V46.9792H571.301V45.3512H568.415ZM568.415 49.6062V51.2712H571.301V49.6062H568.415ZM575.297 49.6062V51.2712H578.183V49.6062H575.297ZM578.183 46.9792V45.3512H575.297V46.9792H578.183Z" fill="#266DD7"/>
<path fill-rule="evenodd" clip-rule="evenodd" d="M49 88C49 86.8954 49.8954 86 51 86H204C205.105 86 206 86.8954 206 88C206 89.1046 205.105 90 204 90H51C49.8954 90 49 89.1046 49 88Z" fill="#7BB8FF"/>
<path fill-rule="evenodd" clip-rule="evenodd" d="M597 10C597 8.89543 597.895 8 599 8H752C753.105 8 754 8.89543 754 10C754 11.1046 753.105 12 752 12H599C597.895 12 597 11.1046 597 10Z" fill="#7BB8FF"/>
</svg>
